<?xml version="1.0" encoding="UTF-8"?><svg xmlns="http://www.w3.org/2000/svg" xmlns:xlink="http://www.w3.org/1999/xlink" viewBox="0 0 102.24 150.24"><defs><style>.cls-1{fill:none;stroke:#1e1e1c;stroke-miterlimit:10;stroke-width:.25px;}.cls-2{fill:url(#linear-gradient-8);}.cls-3{fill:url(#linear-gradient-7);}.cls-4{fill:url(#linear-gradient-5);}.cls-5{fill:url(#linear-gradient-6);}.cls-6{fill:url(#linear-gradient-9);}.cls-7{fill:url(#linear-gradient-4);}.cls-8{fill:url(#linear-gradient-3);}.cls-9{fill:url(#linear-gradient-2);}.cls-10{fill:url(#linear-gradient);}.cls-11{fill:#356d55;}.cls-12{fill:#ae4c3b;}.cls-13{fill:url(#linear-gradient-10);}.cls-14{fill:url(#linear-gradient-11);}.cls-15{fill:url(#linear-gradient-12);}.cls-16{fill:#c0683b;}</style><linearGradient id="linear-gradient" x1="1605.34" y1="35.52" x2="1605.72" y2="36.13" gradientTransform="translate(-620.9 -1388.53) rotate(67.6) scale(1 -1)" gradientUnits="userSpaceOnUse"><stop offset="0" stop-color="#658e4c"/><stop offset="1" stop-color="#a0b37a"/></linearGradient><linearGradient id="linear-gradient-2" x1="1578.33" y1="29.01" x2="1614.3" y2="85.25" xlink:href="#linear-gradient"/><linearGradient id="linear-gradient-3" x1="1633.21" y1="24.04" x2="1633.59" y2="24.65" xlink:href="#linear-gradient"/><linearGradient id="linear-gradient-4" x1="1606.2" y1="17.53" x2="1642.18" y2="73.76" xlink:href="#linear-gradient"/><linearGradient id="linear-gradient-5" x1="1300.52" y1="47.23" x2="1300.91" y2="47.84" gradientTransform="translate(472.74 1265.33) rotate(-112.4)" xlink:href="#linear-gradient"/><linearGradient id="linear-gradient-6" x1="1273.51" y1="40.72" x2="1309.49" y2="96.95" gradientTransform="translate(472.74 1265.33) rotate(-112.4)" xlink:href="#linear-gradient"/><linearGradient id="linear-gradient-7" x1="1698.38" y1="-20.51" x2="1698.77" y2="-19.9" gradientTransform="translate(712.3 1643.34) rotate(-112.58) scale(1 -1)" gradientUnits="userSpaceOnUse"><stop offset="0" stop-color="#935537"/><stop offset="1" stop-color="#cc7e62"/></linearGradient><linearGradient id="linear-gradient-8" x1="1671.21" y1="-27.06" x2="1707.41" y2="29.53" xlink:href="#linear-gradient-7"/><linearGradient id="linear-gradient-9" x1="1828.52" y1="185.44" x2="1828.93" y2="186.07" gradientTransform="translate(-452.06 -1714.01) rotate(67.28)" gradientUnits="userSpaceOnUse"><stop offset="0" stop-color="#cd9a5a"/><stop offset="1" stop-color="#db9d61"/></linearGradient><linearGradient id="linear-gradient-10" x1="1800.13" y1="178.59" x2="1837.96" y2="237.72" xlink:href="#linear-gradient-9"/><linearGradient id="linear-gradient-11" x1="1883.91" y1="208.63" x2="1884.32" y2="209.27" xlink:href="#linear-gradient-9"/><linearGradient id="linear-gradient-12" x1="1855.52" y1="201.78" x2="1893.35" y2="260.92" xlink:href="#linear-gradient-9"/></defs><g id="NOOOOO"><g id="margem"><polyline class="cls-1" points="21.32 141.14 10.38 141.14 10.38 75.95 10.38 9.1 21.32 9.1"/><line class="cls-1" x1="31.32" y1="9.1" x2="45.53" y2="9.1"/><polyline class="cls-1" points="80.92 9.1 91.86 9.1 91.86 141.14 80.92 141.14"/><line class="cls-1" x1="31.32" y1="9.1" x2="45.53" y2="9.1"/><line class="cls-1" x1="70.92" y1="141.14" x2="56.71" y2="141.14"/><line class="cls-1" x1="56.71" y1="9.1" x2="70.92" y2="9.1"/><line class="cls-1" x1="45.53" y1="141.14" x2="31.32" y2="141.14"/></g></g><g id="BASTOS"><path class="cls-10" d="M24.43,82.13c-.24.09-.48.19-.72.28.23-.08.45-.17.67-.25h.01s.03-.02.04-.03Z"/><path class="cls-9" d="M34.71,76.73c2.82-1.35,10.73-5.27,10.73-5.27l-.43,2.62,1.25-.24s.57-3.25,2.77-4.11c.73-.29,2.14-.94,5.34-2.25-.04.05-.07.09-.11.14-.09.11-.19.23-.28.35-.19.23-.39.47-.58.71-.2.24-.4.47-.6.7-.2.23-.4.45-.58.67-.09.11-.19.21-.28.31.2,0,.39.02.58.03,0,0,0,0,.01,0,.22-.19.45-.39.68-.58.23-.2.47-.4.7-.61.23-.21.46-.41.69-.62.11-.1.22-.21.34-.31.11-.1.22-.21.33-.31.21-.2.41-.4.6-.59.2-.19.37-.38.53-.56.07-.07.14-.15.2-.22,2.07-.84,7.4-3.25,12.86-5.76h.02c.27-.13.54-.25.8-.38.26-.12.52-.24.79-.36h0c6.89-3.17,13.5-6.25,13.5-6.25l-.04-.09c-.46-.2-.91-.43-1.38-.61-.02-.01-.05-.02-.08-.03-.02-.01-.05-.02-.08-.03h0s-.02-.01-.04-.01c-.41-.14-.84-.13-1.27-.13-.16,0-.31,0-.47-.01-.05,0-.11,0-.16-.02-.07,0-.15-.02-.22-.04-.18-.04-.34-.11-.5-.18-.07-.03-.14-.06-.21-.1-.98.37-2.12.81-3.35,1.29-.21.08-.42.16-.63.24-.04.01-.09.03-.14.05-4.43,1.7-9.95,3.8-13.97,5.28-.07,0-.21-.02-.41-.03-.15-.01-.32-.02-.52-.02-.1,0-.2,0-.31,0-.11,0-.22,0-.35,0-.24,0-.5.01-.77.03-.27.01-.56.03-.85.06-.15.01-.3.02-.45.04-.15.02-.3.03-.45.05-.31.03-.61.07-.92.1-.31.03-.61.07-.92.11-.26.04-.51.07-.76.11-.14.15-.29.31-.43.47.11,0,.22,0,.34,0,.29,0,.59,0,.89,0,.3,0,.61.01.92.02.31,0,.61.02.92.03.15,0,.3.01.45.02.15.01.29.02.43.03.11,0,.22.02.32.02-7.71,2.81-11.35,5.38-16.74,5.59-.09,0-.17.01-.24.02-.04-.01-.09-.03-.13-.04-.2-.06-.41-.13-.62-.2-.22-.07-.43-.14-.65-.22-.01,0-.03-.01-.05-.02-.2.15-.4.31-.6.47.11.07.22.14.34.21.11.07,1.13.89,1.24.96l-3.52,1.2-2.42.83-5.11,1.73-4.22,1.44-2.54.86h-.03s-2.24.77-2.24.77l-1.35.46c-.11.07-.22.14-.32.21-.14.1-.28.2-.4.3-.14.11-.27.22-.39.34-.12.11-.23.22-.33.34-.1.11-.19.23-.28.35-.06.08-.12.17-.17.26-.2.34-.35.7-.43,1.08,0,.02,0,.03,0,.05-.04.17-.06.34-.06.51,0,.07,0,.14,0,.22,0,.09,0,.19.02.29,0,.1.02.2.04.31.03.2.08.41.15.63.01.05.03.1.05.15.04.12.08.24.13.36.02.05.04.1.06.15,0,.02.02.05.03.07.07.15.14.29.22.43.01.03.03.06.04.08.02.04.05.08.07.12.06.09.12.18.18.26.11.16.23.3.36.43.05.05.09.09.15.14.08.08.17.15.26.21.06.05.12.09.18.13.3.2.63.34.98.43.11.03.21.05.33.07.35.06.71.08,1.1.06.12,0,.25-.02.37-.03.62-.07,1.28-.23,1.95-.47.64-.34,1.39-.75,2.2-1.19.26-.14.53-.28.8-.43h0c1.44-.78,2.99-1.6,4.29-2.28.09-.05.18-.09.27-.14-.01.01-.02.03-.03.04,0,.01-.02.02-.02.03-.09.11-.19.23-.28.35-.19.23-.38.47-.58.7-.2.24-.4.47-.6.7-.18.21-.36.41-.53.61.21.03.41.06.62.09.11-.09.22-.18.33-.28.23-.2.46-.4.7-.61.23-.21.47-.41.69-.63.11-.1.22-.21.34-.31.11-.1.22-.21.32-.31.21-.2.42-.4.61-.59.19-.19.37-.38.53-.55.01-.01.02-.02.03-.04.07-.08.14-.15.2-.22,0,0,0-.01.02-.02h0c.07-.08.13-.15.18-.22.01-.01.02-.02.03-.03Z"/><path class="cls-11" d="M68.91,56.89c-.62.28-1.25.57-1.88.86.54-.26,1.08-.51,1.63-.76.08-.03.17-.06.25-.1Z"/><path class="cls-11" d="M36.45,70.17c.75-.31,1.5-.63,2.26-.95,6.12-2.81,12.33-5.5,18.62-7.55-6.11,2.17-12.19,4.52-18.23,7.41-.76.32-1.6.68-2.37.99-1.6.72-3.09,1.27-4.68,1.86-.78.29-1.57.59-2.35.88.73-.28,1.46-.56,2.19-.84,1.53-.58,3.05-1.18,4.55-1.81Z"/><path class="cls-11" d="M63.89,59.81c3.06-1.3,6.08-2.65,9.06-4.09.79-.32,1.69-.71,2.49-1.03,1.64-.67,3.27-1.34,4.9-2-.07-.03-.14-.06-.21-.1-.98.37-2.12.81-3.35,1.29-.18.07-.36.14-.54.21l-.09.04s-.09.03-.14.05c-.62.24-1.23.48-1.84.73-.68.29-1.36.58-2.04.88-.69.31-1.39.61-2.16.96-1.85.94-3.73,1.82-5.63,2.67-.63.28-1.26.56-1.9.84-.67.3-1.44.62-2.13.92-6.89,2.41-13.68,4.84-20.51,8.17-.78.33-1.65.7-2.43,1.03-1.57.65-3.15,1.29-4.72,1.91-.83.3-1.66.6-2.49.91-.62.23-1.25.46-1.87.69-.62.23-1.25.47-1.87.7-.49.18-5.06,2.05-8.51,3.46,0,.07,0,.14,0,.22,3.35-1.37,7.69-3.13,8.09-3.28.74-.28,1.53-.57,2.27-.84,1.48-.55,2.96-1.1,4.44-1.64.86-.32,1.74-.65,2.67-1,.68-.33,1.37-.65,2.05-.97.69-.32,1.37-.63,2.06-.94,6.24-3.01,12.48-5.4,19.14-7.65,1.18-.36,2.29-.88,3.41-1.32.61-.26,1.23-.51,1.84-.78Z"/><path class="cls-11" d="M65.87,59.41c1.82-.79,3.64-1.59,5.48-2.38.71-.29,1.56-.64,2.28-.93.7-.27,1.36-.53,2.03-.78,2.02-.77,4.03-1.57,6.03-2.38-.16,0-.31,0-.47-.01-.05,0-.1-.01-.16-.02h0c-1.93.78-3.86,1.54-5.8,2.29-.73.28-1.46.57-2.23.87-1.94.91-3.91,1.79-5.88,2.65-.66.29-1.32.57-1.97.86-.6.25-1.19.51-1.79.76s-1.2.51-1.8.76c-3.94,1.65-7.64,2.81-11.6,4.26-3.8,1.38-7.22,3.22-10.72,4.71-.78.34-1.56.68-2.34,1.02-.78.34-1.57.68-2.35,1.02-.75.24-1.68.59-2.52.89-.73.26-1.46.52-2.19.79-.73.27-1.46.54-2.19.82-.82.31-5.96,2.4-9.73,3.93,0,.1.02.2.04.31,3.37-1.37,7.64-3.12,8.08-3.29.78-.29,1.61-.6,2.39-.89,1.56-.57,3.13-1.13,4.71-1.66.83-.31,1.64-.62,2.48-.96.66-.28,1.31-.56,1.97-.84.65-.28,1.31-.57,1.97-.85,6.43-3.15,12.97-5.72,19.74-8.05.83-.34,1.61-.68,2.4-1.03.78-.35,1.56-.69,2.33-1.05.61-.27,1.22-.53,1.83-.8Z"/><path class="cls-11" d="M56.75,59.71c.09-.01.18-.02.28-.03.05,0,.09-.01.13-.02-.16.08-.33.16-.49.24-.33.16-.66.32-.99.47-.11,0-.21,0-.32,0,.46-.22.92-.44,1.39-.66Z"/><path class="cls-11" d="M35.58,69.13l-2.75.82c-.56.22-1.15.44-1.69.65-.7.27-2.5,1-4.67,1.87-2.3.93-5,2.03-7.27,2.94-.12.11-.23.22-.33.34,3.16-1.29,6.79-2.78,7.14-2.91,1.27-.48,2.55-.97,3.83-1.47.28-.11.56-.22.85-.34.45-.18.89-.35,1.34-.53,1.18-.46,2.37-.92,3.56-1.38Z"/><path class="cls-11" d="M78.03,55.31c1.69-.68,3.4-1.45,5.13-2.17h0c-.05-.02-.11-.04-.16-.06h0c-1.51.64-3,1.31-4.58,1.96-.83.31-1.65.61-2.48.92-.72.27-1.44.55-2.15.83-.73.29-1.54.61-2.27.9-.64.25-1.29.51-1.93.76-.64.26-1.29.52-1.94.78-2.33.96-4.61,1.97-6.88,2.96-.76.33-1.54.66-2.31.99-5.77,2.29-11.42,4.25-17.05,6.88-.62.26-1.24.53-1.87.8-1.24.54-2.48,1.09-3.71,1.66-.8.31-1.71.68-2.55,1.01-1.94.72-3.84,1.43-5.73,2.15-.64.24-1.32.5-1.94.73-.39.14-4.25,1.72-7.5,3.04.01.05.03.1.05.15,3.41-1.38,7.87-3.2,8.33-3.37.66-.25,1.31-.49,1.96-.74,1.3-.49,2.59-.97,3.88-1.45.63-.24,1.25-.49,1.87-.73.62-.24,1.26-.5,1.86-.74,1.81-.78,3.63-1.56,5.44-2.34.61-.26,1.22-.53,1.84-.8,4.86-2.39,10.07-4.05,15.08-6.11.76-.33,1.55-.67,2.32-1.01,2.29-1.01,4.58-2.03,6.9-2.99.66-.27,1.32-.54,1.98-.81.66-.27,1.32-.53,1.98-.79.66-.26,1.43-.57,2.11-.83.67-.25,1.33-.51,2-.75.77-.29,1.54-.57,2.31-.85Z"/><path class="cls-11" d="M27.44,73.68c.69-.27,1.39-.53,2.08-.79-.65.24-1.29.48-1.93.72-.7.26-1.46.55-2.15.81-.26.1-4.27,1.74-7.45,3.04,0,.02,0,.03,0,.05,3.14-1.29,7.08-2.91,7.31-3,.69-.26,1.46-.56,2.16-.83Z"/><path class="cls-11" d="M29.7,72.82s-.02,0-.03,0c-.05.02-.1.04-.16.06.06-.02.12-.05.18-.07Z"/><path class="cls-11" d="M31.11,70.47l-1.17.35c-.96.36-4.69,1.86-8.29,3.29-.56.23-1.12.45-1.67.67-.14.1-.28.2-.4.3,1.36-.54,2.86-1.14,4.31-1.73h.03c3.21-1.3,6.22-2.51,7.18-2.89Z"/><path class="cls-11" d="M42.31,66.11s.08,0,.12,0c.05,0,.1,0,.15,0-.53.21-1.06.42-1.6.62-.03-.02-.06-.05-.09-.07.47-.18.94-.35,1.41-.53Z"/><path class="cls-11" d="M40.14,66.12c.05-.05.11-.09.16-.13.25-.08.5-.16.74-.23.08.03.16.05.24.08-.36.11-.71.22-1.07.33-.02-.01-.05-.03-.07-.04Z"/><path class="cls-11" d="M28.25,76.85c-.57.22-1.15.43-1.73.65-.74.27-1.52.55-2.26.82-.2.07-2.93,1.19-5.64,2.31.01.03.03.06.04.08,3.31-1.34,7.25-2.95,7.68-3.12.64-.24,1.27-.49,1.9-.74Z"/><path class="cls-11" d="M35.43,73.9c-2.39,1.07-4.79,2.04-7.19,2.95,2.29-.9,4.56-1.85,6.8-2.86.73-.31,1.47-.62,2.2-.94.74-.32,1.47-.64,2.21-.98.04-.01.08-.02.12-.03-.64.31-1.28.6-1.91.88-.75.34-1.5.66-2.25.98Z"/><path class="cls-11" d="M37.09,74.7c.34-.28.65-.56,1.06-.73.79-.32,1.58-.64,2.37-.96.76-.31,1.54-.64,2.29-.95.56-.26,1.12-.52,1.68-.78.56-.26,1.14-.52,1.69-.78.77-.32,1.55-.65,2.36-.99,7.03-3.02,13.65-6.4,20.91-8.68h.02c.27-.13.54-.25.8-.38.26-.12.52-.24.79-.36-8.08,2.42-15.71,6.42-23.61,9.75-.66.29-1.35.58-2.01.87-.67.31-1.34.63-2.01.96-.81.35-1.58.66-2.33.97-.5.21-1.07.44-1.57.64-.63.26-1.25.51-1.88.76-.64.26-1.3.53-1.94.78-3.2,1.44-6.44,2.76-9.7,4-.67.25-1.36.52-2.03.77-.19.08-2.33.96-4.7,1.93.05.05.09.09.15.14,2.75-1.13,5.37-2.19,5.78-2.33.82-.29,1.63-.59,2.44-.89,3.25-1.19,6.44-2.42,9.44-3.72Z"/><path class="cls-11" d="M32.28,79.17c-.22.07-.45.14-.67.21.24-.09.49-.18.73-.27-.02.02-.04.04-.06.06Z"/><path class="cls-11" d="M31.61,79.38c-.29.11-.58.22-.86.33,0,0,0,0,0,0,.25-.1.49-.19.74-.29.04-.01.07-.02.11-.03Z"/><path class="cls-11" d="M57.15,64.34c-1.35.61-2.73,1.19-4.14,1.74,1.11-.47,2.22-.93,3.33-1.39.27-.12.54-.23.81-.35Z"/><path class="cls-11" d="M31.62,75.02c.72-.29,1.43-.59,2.15-.89.71-.29,1.43-.58,2.14-.89.72-.3,1.48-.65,2.19-.96,1.29-.63,2.62-1.2,3.97-1.74.67-.27,1.35-.54,2.04-.8,3.03-1.16,5.98-2.41,8.91-3.65-3.01,1.2-6.08,2.32-9.03,3.55-.67.27-1.35.54-2.02.82-1.34.55-2.66,1.14-3.97,1.78-.85.38-1.71.74-2.55,1.08s-1.68.68-2.52,1.02c-.7.28-1.41.56-2.11.84-1.13.46-2.29.91-3.46,1.36-.59.22-1.17.44-1.76.66-.39.15-4.04,1.64-7.24,2.93,0,.02.02.05.03.07,3.07-1.24,6.42-2.61,6.76-2.74.69-.26,1.44-.54,2.15-.81.72-.27,1.44-.53,2.15-.78.72-.28,1.44-.56,2.15-.84Z"/><path class="cls-11" d="M60.11,63c2.38-1.08,4.78-2.16,7.26-3.16.64-.25,1.29-.51,1.94-.75.64-.24,1.29-.48,1.95-.71.74-.28,1.4-.54,2.07-.79.65-.25,1.31-.49,1.96-.73.68-.26,1.42-.55,2.1-.83.62-.26,1.24-.52,1.87-.78,1.16-.42,2.34-.78,3.47-1.25.4-.17.8-.35,1.2-.53.03.01.06.03.09.04-.86.36-1.71.72-2.57,1.07-.95.45-1.85.58-2.8,1.03-.62.27-1.25.54-1.88.8-.7.27-1.4.54-2.1.82-.7.27-1.39.55-2.09.82-.68.24-1.36.49-2.03.74-.68.25-1.35.5-2.03.76-3.46,1.33-6.81,2.79-10.16,4.26-.4.18-.81.35-1.22.53.19-.09.39-.17.58-.26.79-.36,1.59-.72,2.38-1.08Z"/><path class="cls-11" d="M68.81,59.72c.7-.24,1.41-.47,2.11-.69.7-.26,1.34-.5,1.98-.74.62-.23,1.24-.46,1.87-.69.65-.26,1.26-.52,1.87-.77.61-.25,1.21-.51,1.82-.76,1.76-.79,3.5-1.2,5.26-1.98.26-.12.53-.23.79-.35,0,0,.02,0,.03.01h0c-.97.43-1.95.84-2.91,1.26-1.44.65-3.01,1-4.45,1.65-.54.23-1.12.47-1.62.68-.63.24-1.26.49-1.88.73-.64.25-1.32.51-1.95.75-.73.24-1.46.48-2.19.74-1.58.57-3.15,1.19-4.71,1.84,1.42-.56,2.84-1.08,4.28-1.55.71-.23,1.43-.46,2.14-.67.63-.22,1.28-.45,1.89-.67.6-.21,1.21-.43,1.82-.63.58-.24,1.34-.54,2-.81,2.35-.97,4.71-1.96,7.08-2.97-.76.35-2.26,1.05-4.2,1.95-.25.08-.5.16-.72.25-.7.29-1.39.59-2.09.88-.7.29-1.49.61-2.18.89-.49.18-.98.36-1.47.54-.49.18-.98.36-1.47.54-.83.26-1.65.53-2.47.81-7.52,2.51-14.3,6.35-21.68,9.22-.5.21-1.02.42-1.53.63-1.51.63-3.01,1.28-4.48,1.94-.61.21-1.28.47-1.92.68-.62.21-1.24.4-1.88.59-.01,0-.02,0-.03,0,.7-.28,1.39-.56,2.08-.84,1.14-.49,2.27-.97,3.4-1.45-1.24.51-2.5.96-3.8,1.31.12-.06.25-.12.37-.18,2.09-.67,4.16-1.5,6.23-2.39.13-.06.27-.12.4-.17.48-.22.95-.45,1.42-.67,2.83-1.18,5.57-2.37,8.34-3.68.69-.31,1.38-.63,2.07-.94,3.44-1.55,6.87-3.05,10.38-4.29Z"/><path class="cls-11" d="M37.91,73.02c-.13.05-.27.11-.4.16.12-.06.25-.12.4-.16Z"/><path class="cls-11" d="M37.51,73.18l-.05.02c-.76.31-1.52.61-2.28.91-.76.3-1.53.61-2.33.94-2.24.98-4.5,1.91-6.79,2.79-.44.17-4.1,1.66-7.33,2.97.06.09.12.18.18.26,2.96-1.21,6.08-2.48,6.39-2.6.6-.23,1.18-.46,1.78-.69,2.96-1.16,5.91-2.4,8.88-3.59.68-.23,1-.72,1.55-1.01Z"/><path class="cls-11" d="M62.43,59.8c1.53-.64,3.07-1.35,4.59-2.05-1.73.82-3.45,1.64-5.24,2.39-.57.24-1.15.47-1.77.7-.9.26-1.79.54-2.68.83,1.18-.42,2.36-.83,3.54-1.24.45-.18,1.04-.42,1.57-.64Z"/><path class="cls-11" d="M26.79,80.86c.26-.14.53-.28.8-.43-.16.06-.31.12-.47.19-.67.27-1.36.54-2.11.83-.24.09-1.32.52-2.75,1.1.12,0,.25-.02.37-.03,1.05-.43,1.8-.74,1.96-.81.77-.3,1.49-.58,2.19-.86Z"/><path class="cls-11" d="M53.26,69.76s-.03.03-.05.04c-.09.08-.18.15-.27.23-.24.11-.47.23-.71.34-.09,0-.17-.01-.26-.01.43-.2.86-.4,1.29-.6Z"/><path class="cls-11" d="M45.98,72.27c.33-.15.65-.31.98-.47-.04.08-.08.16-.11.24-.12.06-.23.12-.35.18-.43.22-.86.43-1.29.64l.04-.25c.25-.11.49-.23.74-.34Z"/><path class="cls-11" d="M34.28,77.22c.07-.08.14-.15.2-.22,0,0,0-.01.02-.02l-.18.06c-.76.32-1.57.63-2.34.94-1.34.55-2.68,1.08-4.02,1.61-.67.26-1.39.54-2.01.78-.68.27-1.35.53-2.03.8-.16.06-1.42.58-3.06,1.25.11.03.21.05.33.07,2.04-.83,3.73-1.53,3.98-1.62.67-.26,1.3-.51,1.91-.75,1.23-.49,2.46-.99,3.69-1.49.38-.16.76-.31,1.14-.47.09-.05.18-.09.27-.14-.01.01-.02.03-.04.04h0s.72-.3.72-.3c.48-.18.96-.36,1.43-.54Z"/><path class="cls-11" d="M55.5,67.72c-.08.08-.15.15-.23.22-.05.05-.11.1-.16.15-.65.28-1.3.57-1.95.86.07-.09.15-.17.22-.26.71-.33,1.41-.66,2.12-.98Z"/><path class="cls-11" d="M24.37,82.16h.01s.03-.02.04-.03c-.24.09-.48.19-.72.28.23-.08.45-.17.67-.25Z"/><path class="cls-11" d="M31.28,79.08c.06-.07.12-.14.18-.21.64-.25,1.27-.51,1.96-.76-.1.1-.2.2-.3.29-.02.02-.05.05-.07.07-.36.12-.73.23-1.1.35-.22.09-.44.17-.66.26Z"/><path class="cls-11" d="M45.96,73.29c.17-.09.34-.17.51-.26-.04.12-.07.23-.1.33-.12.07-.25.13-.37.2-.32.15-.65.3-.98.45l.05-.31c.3-.14.59-.27.89-.41Z"/><path class="cls-11" d="M30.23,80.45s-.08-.01-.12-.02c.02-.02.04-.05.06-.07.44-.17.9-.34,1.32-.5-.09.08-.18.15-.26.23-.34.12-.67.24-1.01.36Z"/><path class="cls-11" d="M23.64,82.44s-.16.06-.35.14c.2-.08.31-.12.35-.14Z"/><path class="cls-11" d="M35.32,75.87c-.33.11-.66.17-.98.23.99-.42,1.97-.85,2.95-1.28.24-.1.49-.2.73-.29-1.01.46-1.73,1-2.71,1.34Z"/><path class="cls-11" d="M41.12,66.82c.65-.25,1.29-.5,1.94-.75.2-.02.41-.03.61-.06-.78.32-1.57.64-2.37.95-.06-.05-.12-.09-.18-.14Z"/><path class="cls-11" d="M57.5,60.42c.74-.3,1.49-.61,2.24-.91.07-.03.14-.06.21-.08.18,0,.35-.01.52-.02.09,0,.17,0,.25,0-.94.34-1.87.68-2.8,1.03-.14,0-.28-.01-.42-.02Z"/><path class="cls-11" d="M34.34,76.1c-.48.08-.95.16-1.42.39-2.06.89-4.13,1.73-6.21,2.54-.71.27-1.46.56-2.16.82-.28.12-2.44,1.01-4.86,2.01.06.05.12.09.18.13,2.51-1.03,4.78-1.96,5.14-2.11.61-.22,1.42-.55,2.12-.82,2.43-.95,4.84-1.94,7.23-2.96Z"/><path class="cls-11" d="M58.07,59.56c.11-.01.23-.02.34-.03.07,0,.13-.01.2-.02-.7.29-1.4.58-2.09.87-.12,0-.24,0-.36,0,.63-.28,1.27-.55,1.91-.82Z"/><path class="cls-11" d="M39.54,67.95l-1.09.33c-.14.05-.28.11-.42.17-.73.29-1.45.57-2.18.85l-.06.02c-.71.27-1.42.54-2.13.8-.85.33-1.62.63-2.39.93-1.54.6-3.07,1.19-4.6,1.78-.47.18-4.7,1.91-8.09,3.29-.06.08-.12.17-.17.26,3.42-1.4,7.75-3.17,8.22-3.36,1.52-.59,3.03-1.19,4.54-1.79.76-.3,1.56-.61,2.36-.93.76-.29,1.53-.58,2.28-.87.76-.29,1.51-.59,2.27-.89l.13-.05c.45-.18.89-.36,1.33-.54Z"/><path class="cls-11" d="M44.45,65.91c-.98.41-1.96.82-2.93,1.22-.02-.02-.05-.04-.08-.06.92-.37,1.84-.75,2.75-1.13.09-.01.17-.02.26-.04Z"/><path class="cls-11" d="M40.1,73.53c.77-.33,1.54-.66,2.32-.99.79-.34,1.58-.68,2.42-1.06.54-.25,1.08-.5,1.63-.75.55-.25,1.09-.5,1.65-.74,6.15-2.59,12.29-5.57,18.57-7.89-.43.2-.86.39-1.28.58-5.02,1.86-9.88,4.16-14.71,6.34-.8.35-1.32.57-1.68.71-.2.08-.38.17-.55.29-.46.2-.91.4-1.37.6-.52.24-1.05.47-1.57.71-.59.28-1.19.57-1.77.85-1.5.71-2.82,1.2-4.34,1.8-.46.19-.93.37-1.39.56.02,0,.03-.02.05-.02.66-.33,1.34-.66,2.03-.98Z"/><path class="cls-8" d="M24.43,112.27c-.24.09-.48.19-.72.28.23-.08.45-.17.67-.25h.01s.03-.02.04-.03Z"/><path class="cls-7" d="M34.71,106.87c2.82-1.35,10.73-5.27,10.73-5.27l-.43,2.62,1.25-.24s.57-3.25,2.77-4.11c.73-.29,2.14-.94,5.34-2.25-.04.05-.07.09-.11.14-.09.11-.19.23-.28.35-.19.23-.39.47-.58.71-.2.24-.4.47-.6.7-.2.23-.4.45-.58.67-.09.11-.19.21-.28.31.2,0,.39.02.58.03,0,0,0,0,.01,0,.22-.19.45-.39.68-.58.23-.2.47-.4.7-.61.23-.21.46-.41.69-.62.11-.1.22-.21.34-.31.11-.1.22-.21.33-.31.21-.2.41-.4.6-.59.2-.19.37-.38.53-.56.07-.07.14-.15.2-.22,2.07-.84,7.4-3.25,12.86-5.76h.02c.27-.13.54-.25.8-.38.26-.12.52-.24.79-.36h0c6.89-3.17,13.5-6.25,13.5-6.25l-.04-.09c-.46-.2-.91-.43-1.38-.61-.02-.01-.05-.02-.08-.03-.02-.01-.05-.02-.08-.03h0s-.02-.01-.04-.01c-.41-.14-.84-.13-1.27-.13-.16,0-.31,0-.47-.01-.05,0-.11,0-.16-.02-.07,0-.15-.02-.22-.04-.18-.04-.34-.11-.5-.18-.07-.03-.14-.06-.21-.1-.98.37-2.12.81-3.35,1.29-.21.08-.42.16-.63.24-.04.01-.09.03-.14.05-4.43,1.7-9.95,3.8-13.97,5.28-.07,0-.21-.02-.41-.03-.15-.01-.32-.02-.52-.02-.1,0-.2,0-.31,0-.11,0-.22,0-.35,0-.24,0-.5.01-.77.03-.27.01-.56.03-.85.06-.15.01-.3.02-.45.04-.15.02-.3.03-.45.05-.31.03-.61.07-.92.1-.31.03-.61.07-.92.11-.26.04-.51.07-.76.11-.14.15-.29.31-.43.47.11,0,.22,0,.34,0,.29,0,.59,0,.89,0,.3,0,.61.01.92.02.31,0,.61.02.92.03.15,0,.3.01.45.02.15.01.29.02.43.03.11,0,.22.02.32.02-7.71,2.81-11.35,5.38-16.74,5.59-.09,0-.17.01-.24.02-.04-.01-.09-.03-.13-.04-.2-.06-.41-.13-.62-.2-.22-.07-.43-.14-.65-.22-.01,0-.03-.01-.05-.02-.2.15-.4.31-.6.47.11.07.22.14.34.21.11.07,1.13.89,1.24.96l-3.52,1.2-2.42.83-5.11,1.73-4.22,1.44-2.54.86h-.03s-2.24.77-2.24.77l-1.35.46c-.11.07-.22.14-.32.21-.14.1-.28.2-.4.3-.14.11-.27.22-.39.34-.12.11-.23.22-.33.34-.1.11-.19.23-.28.35-.06.08-.12.17-.17.26-.2.34-.35.7-.43,1.08,0,.02,0,.03,0,.05-.04.17-.06.34-.06.51,0,.07,0,.14,0,.22,0,.09,0,.19.02.29,0,.1.02.2.04.31.03.2.08.41.15.63.01.05.03.1.05.15.04.12.08.24.13.36.02.05.04.1.06.15,0,.02.02.05.03.07.07.15.14.29.22.43.01.03.03.06.04.08.02.04.05.08.07.12.06.09.12.18.18.26.11.16.23.3.36.43.05.05.09.09.15.14.08.08.17.15.26.21.06.05.12.09.18.13.3.2.63.34.98.43.11.03.21.05.33.07.35.06.71.08,1.1.06.12,0,.25-.02.37-.03.62-.07,1.28-.23,1.95-.47.64-.34,1.39-.75,2.2-1.19.26-.14.53-.28.8-.43h0c1.44-.78,2.99-1.6,4.29-2.28.09-.05.18-.09.27-.14-.01.01-.02.03-.03.04,0,.01-.02.02-.02.03-.09.11-.19.23-.28.35-.19.23-.38.47-.58.7-.2.24-.4.47-.6.7-.18.21-.36.41-.53.61.21.03.41.06.62.09.11-.09.22-.18.33-.28.23-.2.46-.4.7-.61.23-.21.47-.41.69-.63.11-.1.22-.21.34-.31.11-.1.22-.21.32-.31.21-.2.42-.4.61-.59.19-.19.37-.38.53-.55.01-.01.02-.02.03-.04.07-.08.14-.15.2-.22,0,0,0-.01.02-.02h0c.07-.08.13-.15.18-.22.01-.01.02-.02.03-.03Z"/><path class="cls-11" d="M68.91,87.04c-.62.28-1.25.57-1.88.86.54-.26,1.08-.51,1.63-.76.08-.03.17-.06.25-.1Z"/><path class="cls-11" d="M36.45,100.32c.75-.31,1.5-.63,2.26-.95,6.12-2.81,12.33-5.5,18.62-7.55-6.11,2.17-12.19,4.52-18.23,7.41-.76.32-1.6.68-2.37.99-1.6.72-3.09,1.27-4.68,1.86-.78.29-1.57.59-2.35.88.73-.28,1.46-.56,2.19-.84,1.53-.58,3.05-1.18,4.55-1.81Z"/><path class="cls-11" d="M63.89,89.96c3.06-1.3,6.08-2.65,9.06-4.09.79-.32,1.69-.71,2.49-1.03,1.64-.67,3.27-1.34,4.9-2-.07-.03-.14-.06-.21-.1-.98.37-2.12.81-3.35,1.29-.18.07-.36.14-.54.21l-.09.04s-.09.03-.14.05c-.62.24-1.23.48-1.84.73-.68.29-1.36.58-2.04.88-.69.31-1.39.61-2.16.96-1.85.94-3.73,1.82-5.63,2.67-.63.28-1.26.56-1.9.84-.67.3-1.44.62-2.13.92-6.89,2.41-13.68,4.84-20.51,8.17-.78.33-1.65.7-2.43,1.03-1.57.65-3.15,1.29-4.72,1.91-.83.3-1.66.6-2.49.91-.62.23-1.25.46-1.87.69-.62.23-1.25.47-1.87.7-.49.18-5.06,2.05-8.51,3.46,0,.07,0,.14,0,.22,3.35-1.37,7.69-3.13,8.09-3.28.74-.28,1.53-.57,2.27-.84,1.48-.55,2.96-1.1,4.44-1.64.86-.32,1.74-.65,2.67-1,.68-.33,1.37-.65,2.05-.97.69-.32,1.37-.63,2.06-.94,6.24-3.01,12.48-5.4,19.14-7.65,1.18-.36,2.29-.88,3.41-1.32.61-.26,1.23-.51,1.84-.78Z"/><path class="cls-11" d="M65.87,89.55c1.82-.79,3.64-1.59,5.48-2.38.71-.29,1.56-.64,2.28-.93.7-.27,1.36-.53,2.03-.78,2.02-.77,4.03-1.57,6.03-2.38-.16,0-.31,0-.47-.01-.05,0-.1-.01-.16-.02h0c-1.93.78-3.86,1.54-5.8,2.29-.73.28-1.46.57-2.23.87-1.94.91-3.91,1.79-5.88,2.65-.66.29-1.32.57-1.97.86-.6.25-1.19.51-1.79.76s-1.2.51-1.8.76c-3.94,1.65-7.64,2.81-11.6,4.26-3.8,1.38-7.22,3.22-10.72,4.71-.78.34-1.56.68-2.34,1.02-.78.34-1.57.68-2.35,1.02-.75.24-1.68.59-2.52.89-.73.26-1.46.52-2.19.79-.73.27-1.46.54-2.19.82-.82.31-5.96,2.4-9.73,3.93,0,.1.02.2.04.31,3.37-1.37,7.64-3.12,8.08-3.29.78-.29,1.61-.6,2.39-.89,1.56-.57,3.13-1.13,4.71-1.66.83-.31,1.64-.62,2.48-.96.66-.28,1.31-.56,1.97-.84.65-.28,1.31-.57,1.97-.85,6.43-3.15,12.97-5.72,19.74-8.05.83-.34,1.61-.68,2.4-1.03.78-.35,1.56-.69,2.33-1.05.61-.27,1.22-.53,1.83-.8Z"/><path class="cls-11" d="M56.75,89.86c.09-.01.18-.02.28-.03.05,0,.09-.01.13-.02-.16.08-.33.16-.49.24-.33.16-.66.32-.99.47-.11,0-.21,0-.32,0,.46-.22.92-.44,1.39-.66Z"/><path class="cls-11" d="M35.58,99.28l-2.75.82c-.56.22-1.15.44-1.69.65-.7.27-2.5,1-4.67,1.87-2.3.93-5,2.03-7.27,2.94-.12.11-.23.22-.33.34,3.16-1.29,6.79-2.78,7.14-2.91,1.27-.48,2.55-.97,3.83-1.47.28-.11.56-.22.85-.34.45-.18.89-.35,1.34-.53,1.18-.46,2.37-.92,3.56-1.38Z"/><path class="cls-11" d="M78.03,85.45c1.69-.68,3.4-1.45,5.13-2.17h0c-.05-.02-.11-.04-.16-.06h0c-1.51.64-3,1.31-4.58,1.96-.83.31-1.65.61-2.48.92-.72.27-1.44.55-2.15.83-.73.29-1.54.61-2.27.9-.64.25-1.29.51-1.93.76-.64.26-1.29.52-1.94.78-2.33.96-4.61,1.97-6.88,2.96-.76.33-1.54.66-2.31.99-5.77,2.29-11.42,4.25-17.05,6.88-.62.26-1.24.53-1.87.8-1.24.54-2.48,1.09-3.71,1.66-.8.31-1.71.68-2.55,1.01-1.94.72-3.84,1.43-5.73,2.15-.64.24-1.32.5-1.94.73-.39.14-4.25,1.72-7.5,3.04.01.05.03.1.05.15,3.41-1.38,7.87-3.2,8.33-3.37.66-.25,1.31-.49,1.96-.74,1.3-.49,2.59-.97,3.88-1.45.63-.24,1.25-.49,1.87-.73.62-.24,1.26-.5,1.86-.74,1.81-.78,3.63-1.56,5.44-2.34.61-.26,1.22-.53,1.84-.8,4.86-2.39,10.07-4.05,15.08-6.11.76-.33,1.55-.67,2.32-1.01,2.29-1.01,4.58-2.03,6.9-2.99.66-.27,1.32-.54,1.98-.81.66-.27,1.32-.53,1.98-.79.66-.26,1.43-.57,2.11-.83.67-.25,1.33-.51,2-.75.77-.29,1.54-.57,2.31-.85Z"/><path class="cls-11" d="M27.44,103.83c.69-.27,1.39-.53,2.08-.79-.65.24-1.29.48-1.93.72-.7.26-1.46.55-2.15.81-.26.1-4.27,1.74-7.45,3.04,0,.02,0,.03,0,.05,3.14-1.29,7.08-2.91,7.31-3,.69-.26,1.46-.56,2.16-.83Z"/><path class="cls-11" d="M29.7,102.97s-.02,0-.03,0c-.05.02-.1.04-.16.06.06-.02.12-.05.18-.07Z"/><path class="cls-11" d="M31.11,100.62l-1.17.35c-.96.36-4.69,1.86-8.29,3.29-.56.23-1.12.45-1.67.67-.14.1-.28.2-.4.3,1.36-.54,2.86-1.14,4.31-1.73h.03c3.21-1.3,6.22-2.51,7.18-2.89Z"/><path class="cls-11" d="M42.31,96.26s.08,0,.12,0c.05,0,.1,0,.15,0-.53.21-1.06.42-1.6.62-.03-.02-.06-.05-.09-.07.47-.18.94-.35,1.41-.53Z"/><path class="cls-11" d="M40.14,96.27c.05-.05.11-.09.16-.13.25-.08.5-.16.74-.23.08.03.16.05.24.08-.36.11-.71.22-1.07.33-.02-.01-.05-.03-.07-.04Z"/><path class="cls-11" d="M28.25,106.99c-.57.22-1.15.43-1.73.65-.74.27-1.52.55-2.26.82-.2.07-2.93,1.19-5.64,2.31.01.03.03.06.04.08,3.31-1.34,7.25-2.95,7.68-3.12.64-.24,1.27-.49,1.9-.74Z"/><path class="cls-11" d="M35.43,104.04c-2.39,1.07-4.79,2.04-7.19,2.95,2.29-.9,4.56-1.85,6.8-2.86.73-.31,1.47-.62,2.2-.94.74-.32,1.47-.64,2.21-.98.04-.01.08-.02.12-.03-.64.31-1.28.6-1.91.88-.75.34-1.5.66-2.25.98Z"/><path class="cls-11" d="M37.09,104.84c.34-.28.65-.56,1.06-.73.79-.32,1.58-.64,2.37-.96.76-.31,1.54-.64,2.29-.95.56-.26,1.12-.52,1.68-.78.56-.26,1.14-.52,1.69-.78.77-.32,1.55-.65,2.36-.99,7.03-3.02,13.65-6.4,20.91-8.68h.02c.27-.13.54-.25.8-.38.26-.12.52-.24.79-.36-8.08,2.42-15.71,6.42-23.61,9.75-.66.29-1.35.58-2.01.87-.67.31-1.34.63-2.01.96-.81.35-1.58.66-2.33.97-.5.21-1.07.44-1.57.64-.63.26-1.25.51-1.88.76-.64.26-1.3.53-1.94.78-3.2,1.44-6.44,2.76-9.7,4-.67.25-1.36.52-2.03.77-.19.08-2.33.96-4.7,1.93.05.05.09.09.15.14,2.75-1.13,5.37-2.19,5.78-2.33.82-.29,1.63-.59,2.44-.89,3.25-1.19,6.44-2.42,9.44-3.72Z"/><path class="cls-11" d="M32.28,109.31c-.22.07-.45.14-.67.21.24-.09.49-.18.73-.27-.02.02-.04.04-.06.06Z"/><path class="cls-11" d="M31.61,109.52c-.29.11-.58.22-.86.33,0,0,0,0,0,0,.25-.1.49-.19.74-.29.04-.01.07-.02.11-.03Z"/><path class="cls-11" d="M57.15,94.49c-1.35.61-2.73,1.19-4.14,1.74,1.11-.47,2.22-.93,3.33-1.39.27-.12.54-.23.81-.35Z"/><path class="cls-11" d="M31.62,105.17c.72-.29,1.43-.59,2.15-.89.71-.29,1.43-.58,2.14-.89.72-.3,1.48-.65,2.19-.96,1.29-.63,2.62-1.2,3.97-1.74.67-.27,1.35-.54,2.04-.8,3.03-1.16,5.98-2.41,8.91-3.65-3.01,1.2-6.08,2.32-9.03,3.55-.67.27-1.35.54-2.02.82-1.34.55-2.66,1.14-3.97,1.78-.85.38-1.71.74-2.55,1.08s-1.68.68-2.52,1.02c-.7.28-1.41.56-2.11.84-1.13.46-2.29.91-3.46,1.36-.59.22-1.17.44-1.76.66-.39.15-4.04,1.64-7.24,2.93,0,.02.02.05.03.07,3.07-1.24,6.42-2.61,6.76-2.74.69-.26,1.44-.54,2.15-.81.72-.27,1.44-.53,2.15-.78.72-.28,1.44-.56,2.15-.84Z"/><path class="cls-11" d="M60.11,93.14c2.38-1.08,4.78-2.16,7.26-3.16.64-.25,1.29-.51,1.94-.75.64-.24,1.29-.48,1.95-.71.74-.28,1.4-.54,2.07-.79.65-.25,1.31-.49,1.96-.73.68-.26,1.42-.55,2.1-.83.62-.26,1.24-.52,1.87-.78,1.16-.42,2.34-.78,3.47-1.25.4-.17.8-.35,1.2-.53.03.01.06.03.09.04-.86.36-1.71.72-2.57,1.07-.95.45-1.85.58-2.8,1.03-.62.27-1.25.54-1.88.8-.7.27-1.4.54-2.1.82-.7.27-1.39.55-2.09.82-.68.24-1.36.49-2.03.74-.68.25-1.35.5-2.03.76-3.46,1.33-6.81,2.79-10.16,4.26-.4.18-.81.35-1.22.53.19-.09.39-.17.58-.26.79-.36,1.59-.72,2.38-1.08Z"/><path class="cls-11" d="M68.81,89.86c.7-.24,1.41-.47,2.11-.69.7-.26,1.34-.5,1.98-.74.62-.23,1.24-.46,1.87-.69.65-.26,1.26-.52,1.87-.77.61-.25,1.21-.51,1.82-.76,1.76-.79,3.5-1.2,5.26-1.98.26-.12.53-.23.79-.35,0,0,.02,0,.03.01h0c-.97.43-1.95.84-2.91,1.26-1.44.65-3.01,1-4.45,1.65-.54.23-1.12.47-1.62.68-.63.24-1.26.49-1.88.73-.64.25-1.32.51-1.95.75-.73.24-1.46.48-2.19.74-1.58.57-3.15,1.19-4.71,1.84,1.42-.56,2.84-1.08,4.28-1.55.71-.23,1.43-.46,2.14-.67.63-.22,1.28-.45,1.89-.67.6-.21,1.21-.43,1.82-.63.58-.24,1.34-.54,2-.81,2.35-.97,4.71-1.96,7.08-2.97-.76.35-2.26,1.05-4.2,1.95-.25.08-.5.16-.72.25-.7.29-1.39.59-2.09.88-.7.29-1.49.61-2.18.89-.49.18-.98.36-1.47.54-.49.18-.98.36-1.47.54-.83.26-1.65.53-2.47.81-7.52,2.51-14.3,6.35-21.68,9.22-.5.21-1.02.42-1.53.63-1.51.63-3.01,1.28-4.48,1.94-.61.21-1.28.47-1.92.68-.62.21-1.24.4-1.88.59-.01,0-.02,0-.03,0,.7-.28,1.39-.56,2.08-.84,1.14-.49,2.27-.97,3.4-1.45-1.24.51-2.5.96-3.8,1.31.12-.06.25-.12.37-.18,2.09-.67,4.16-1.5,6.23-2.39.13-.06.27-.12.4-.17.48-.22.95-.45,1.42-.67,2.83-1.18,5.57-2.37,8.34-3.68.69-.31,1.38-.63,2.07-.94,3.44-1.55,6.87-3.05,10.38-4.29Z"/><path class="cls-11" d="M37.91,103.17c-.13.05-.27.11-.4.16.12-.06.25-.12.4-.16Z"/><path class="cls-11" d="M37.51,103.33l-.05.02c-.76.31-1.52.61-2.28.91-.76.3-1.53.61-2.33.94-2.24.98-4.5,1.91-6.79,2.79-.44.17-4.1,1.66-7.33,2.97.06.09.12.18.18.26,2.96-1.21,6.08-2.48,6.39-2.6.6-.23,1.18-.46,1.78-.69,2.96-1.16,5.91-2.4,8.88-3.59.68-.23,1-.72,1.55-1.01Z"/><path class="cls-11" d="M62.43,89.95c1.53-.64,3.07-1.35,4.59-2.05-1.73.82-3.45,1.64-5.24,2.39-.57.24-1.15.47-1.77.7-.9.26-1.79.54-2.68.83,1.18-.42,2.36-.83,3.54-1.24.45-.18,1.04-.42,1.57-.64Z"/><path class="cls-11" d="M26.79,111c.26-.14.53-.28.8-.43-.16.06-.31.12-.47.19-.67.27-1.36.54-2.11.83-.24.09-1.32.52-2.75,1.1.12,0,.25-.02.37-.03,1.05-.43,1.8-.74,1.96-.81.77-.3,1.49-.58,2.19-.86Z"/><path class="cls-11" d="M53.26,99.9s-.03.03-.05.04c-.09.08-.18.15-.27.23-.24.11-.47.23-.71.34-.09,0-.17-.01-.26-.01.43-.2.86-.4,1.29-.6Z"/><path class="cls-11" d="M45.98,102.42c.33-.15.65-.31.98-.47-.04.08-.08.16-.11.24-.12.06-.23.12-.35.18-.43.22-.86.43-1.29.64l.04-.25c.25-.11.49-.23.74-.34Z"/><path class="cls-11" d="M34.28,107.36c.07-.08.14-.15.2-.22,0,0,0-.01.02-.02l-.18.06c-.76.32-1.57.63-2.34.94-1.34.55-2.68,1.08-4.02,1.61-.67.26-1.39.54-2.01.78-.68.27-1.35.53-2.03.8-.16.06-1.42.58-3.06,1.25.11.03.21.05.33.07,2.04-.83,3.73-1.53,3.98-1.62.67-.26,1.3-.51,1.91-.75,1.23-.49,2.46-.99,3.69-1.49.38-.16.76-.31,1.14-.47.09-.05.18-.09.27-.14-.01.01-.02.03-.04.04h0s.72-.3.72-.3c.48-.18.96-.36,1.43-.54Z"/><path class="cls-11" d="M55.5,97.87c-.08.08-.15.15-.23.22-.05.05-.11.1-.16.15-.65.28-1.3.57-1.95.86.07-.09.15-.17.22-.26.71-.33,1.41-.66,2.12-.98Z"/><path class="cls-11" d="M24.37,112.3h.01s.03-.02.04-.03c-.24.09-.48.19-.72.28.23-.08.45-.17.67-.25Z"/><path class="cls-11" d="M31.28,109.23c.06-.07.12-.14.18-.21.64-.25,1.27-.51,1.96-.76-.1.1-.2.2-.3.29-.02.02-.05.05-.07.07-.36.12-.73.23-1.1.35-.22.09-.44.17-.66.26Z"/><path class="cls-11" d="M45.96,103.43c.17-.09.34-.17.51-.26-.04.12-.07.23-.1.33-.12.07-.25.13-.37.2-.32.15-.65.3-.98.45l.05-.31c.3-.14.59-.27.89-.41Z"/><path class="cls-11" d="M30.23,110.6s-.08-.01-.12-.02c.02-.02.04-.05.06-.07.44-.17.9-.34,1.32-.5-.09.08-.18.15-.26.23-.34.12-.67.24-1.01.36Z"/><path class="cls-11" d="M23.64,112.58s-.16.06-.35.14c.2-.08.31-.12.35-.14Z"/><path class="cls-11" d="M35.32,106.02c-.33.11-.66.17-.98.23.99-.42,1.97-.85,2.95-1.28.24-.1.49-.2.73-.29-1.01.46-1.73,1-2.71,1.34Z"/><path class="cls-11" d="M41.12,96.96c.65-.25,1.29-.5,1.94-.75.2-.02.41-.03.61-.06-.78.32-1.57.64-2.37.95-.06-.05-.12-.09-.18-.14Z"/><path class="cls-11" d="M57.5,90.56c.74-.3,1.49-.61,2.24-.91.07-.03.14-.06.21-.08.18,0,.35-.01.52-.02.09,0,.17,0,.25,0-.94.34-1.87.68-2.8,1.03-.14,0-.28-.01-.42-.02Z"/><path class="cls-11" d="M34.34,106.25c-.48.08-.95.16-1.42.39-2.06.89-4.13,1.73-6.21,2.54-.71.27-1.46.56-2.16.82-.28.12-2.44,1.01-4.86,2.01.06.05.12.09.18.13,2.51-1.03,4.78-1.96,5.14-2.11.61-.22,1.42-.55,2.12-.82,2.43-.95,4.84-1.94,7.23-2.96Z"/><path class="cls-11" d="M58.07,89.71c.11-.01.23-.02.34-.03.07,0,.13-.01.2-.02-.7.29-1.4.58-2.09.87-.12,0-.24,0-.36,0,.63-.28,1.27-.55,1.91-.82Z"/><path class="cls-11" d="M39.54,98.09l-1.09.33c-.14.05-.28.11-.42.17-.73.29-1.45.57-2.18.85l-.06.02c-.71.27-1.42.54-2.13.8-.85.33-1.62.63-2.39.93-1.54.6-3.07,1.19-4.6,1.78-.47.18-4.7,1.91-8.09,3.29-.06.08-.12.17-.17.26,3.42-1.4,7.75-3.17,8.22-3.36,1.52-.59,3.03-1.19,4.54-1.79.76-.3,1.56-.61,2.36-.93.76-.29,1.53-.58,2.28-.87.76-.29,1.51-.59,2.27-.89l.13-.05c.45-.18.89-.36,1.33-.54Z"/><path class="cls-11" d="M44.45,96.05c-.98.41-1.96.82-2.93,1.22-.02-.02-.05-.04-.08-.06.92-.37,1.84-.75,2.75-1.13.09-.01.17-.02.26-.04Z"/><path class="cls-11" d="M40.1,103.68c.77-.33,1.54-.66,2.32-.99.79-.34,1.58-.68,2.42-1.06.54-.25,1.08-.5,1.63-.75.55-.25,1.09-.5,1.65-.74,6.15-2.59,12.29-5.57,18.57-7.89-.43.2-.86.39-1.28.58-5.02,1.86-9.88,4.16-14.71,6.34-.8.35-1.32.57-1.68.71-.2.08-.38.17-.55.29-.46.2-.91.4-1.37.6-.52.24-1.05.47-1.57.71-.59.28-1.19.57-1.77.85-1.5.71-2.82,1.2-4.34,1.8-.46.19-.93.37-1.39.56.02,0,.03-.02.05-.02.66-.33,1.34-.66,2.03-.98Z"/><path class="cls-4" d="M21.53,44.36c-.23.1-.47.21-.71.31.22-.1.43-.2.65-.29h.01s.03-.01.05-.02Z"/><path class="cls-5" d="M32.63,40.95c2.95-1.03,11.32-3.82,11.32-3.82l-2.16-1.56,1.06-.71s2.69,1.9,4.86.97c.72-.31,2.18-.84,5.38-2.17-.06,0-.12-.01-.18-.02-.15-.01-.29-.03-.44-.05-.3-.03-.61-.06-.91-.09-.31-.03-.61-.05-.92-.08-.3-.02-.6-.04-.89-.06-.14,0-.28-.02-.41-.02.13-.14.26-.29.39-.43,0,0,.01,0,.01,0,.29-.02.59-.04.89-.07.3-.02.61-.05.92-.06.31-.02.62-.03.93-.04.15,0,.3-.01.45-.02.15,0,.3,0,.45,0,.29,0,.58,0,.85,0,.27,0,.53,0,.77.02.1,0,.2,0,.3.01,2.06-.86,7.55-2.91,13.18-4.98h.02c.28-.11.55-.21.83-.31.27-.1.54-.2.81-.3h0c7.12-2.61,13.98-5.08,13.98-5.08l.04.09c-.19.47-.34.95-.55,1.4,0,.03-.02.05-.03.08,0,.03-.02.05-.03.08h0s0,.03-.02.04c-.19.39-.5.68-.81.99-.11.11-.22.22-.32.34-.04.04-.07.08-.1.13-.05.06-.09.12-.13.18-.1.16-.17.32-.23.48-.03.07-.05.14-.08.22-.96.42-2.07.91-3.29,1.45-.2.09-.41.18-.62.27-.04.02-.09.04-.13.06-4.34,1.92-9.74,4.31-13.64,6.1-.04.05-.14.16-.27.31-.09.11-.22.24-.35.38-.07.07-.14.15-.22.23-.08.08-.16.15-.25.24-.18.16-.36.34-.56.52-.2.18-.42.37-.64.56-.11.09-.23.19-.34.29-.12.09-.24.19-.35.29-.24.2-.48.39-.73.58-.24.19-.49.38-.73.57-.21.16-.41.31-.62.46-.21,0-.42-.02-.64-.04.08-.08.16-.16.24-.24.2-.2.41-.42.63-.63.21-.22.43-.44.63-.66.21-.22.42-.44.63-.67.1-.11.2-.22.3-.33.1-.11.19-.22.29-.33.08-.08.14-.16.21-.24-7.45,3.44-11.84,4.18-15.82,7.83-.07.06-.13.11-.19.16-.02.04-.04.08-.07.12-.1.19-.2.38-.3.58-.11.2-.2.4-.3.61,0,.01-.02.03-.02.05-.25.04-.5.07-.75.08.03-.13.06-.26.09-.39.03-.13.17-1.43.21-1.56l-3.34,1.63-2.3,1.12-4.85,2.37-4,1.95-2.41,1.18h-.03s-2.12,1.05-2.12,1.05l-1.28.62c-.13.03-.26.05-.38.08-.17.03-.33.06-.5.07-.17.02-.35.03-.51.03-.16,0-.32,0-.48-.01-.15,0-.3-.03-.44-.05-.1-.02-.21-.04-.31-.06-.38-.1-.74-.25-1.06-.47-.02,0-.03-.02-.04-.03-.14-.09-.28-.2-.41-.32-.05-.05-.1-.1-.15-.15-.07-.07-.13-.14-.19-.21-.07-.08-.13-.16-.19-.25-.12-.17-.23-.35-.34-.55-.03-.05-.05-.09-.07-.14-.06-.11-.11-.23-.16-.35-.02-.05-.04-.1-.06-.15,0-.02-.02-.05-.03-.07-.06-.16-.11-.31-.15-.46-.01-.03-.02-.06-.02-.09-.01-.04-.03-.09-.03-.14-.02-.1-.04-.21-.05-.31-.03-.19-.05-.38-.05-.56,0-.07,0-.13,0-.2,0-.11.01-.22.03-.33,0-.07.02-.15.04-.22.08-.35.21-.68.39-.99.05-.1.11-.19.18-.28.2-.29.45-.56.74-.82.09-.08.19-.16.29-.24.49-.39,1.07-.74,1.72-1.04.69-.2,1.51-.45,2.39-.71.29-.09.57-.17.87-.26h0c1.57-.47,3.25-.98,4.65-1.41.1-.03.19-.06.29-.09-.02,0-.03,0-.05,0-.01,0-.02,0-.04,0-.15-.01-.29-.03-.45-.05-.3-.03-.6-.06-.91-.09-.31-.03-.62-.05-.91-.08-.27-.02-.54-.04-.81-.06.13-.17.25-.33.38-.5.14-.01.28-.02.43-.03.3-.02.61-.04.92-.06.31-.02.62-.03.93-.04.15,0,.3-.01.45-.02.15,0,.3,0,.45,0,.29,0,.58,0,.85,0,.27,0,.53,0,.77.02.02,0,.03,0,.05,0,.1,0,.2,0,.3.01,0,0,.01,0,.02,0h0c.1,0,.19.01.28.02.02,0,.03,0,.04,0Z"/><path class="cls-11" d="M70.87,30.94c-.64.24-1.29.48-1.94.71.56-.2,1.13-.4,1.69-.6.08-.04.17-.07.25-.11Z"/><path class="cls-11" d="M38.48,44.38c.75-.31,1.51-.61,2.27-.92,6.32-2.32,12.62-4.79,18.53-7.77-5.87,2.77-11.84,5.38-18.15,7.59-.77.31-1.61.65-2.38.96-1.65.62-3.09,1.27-4.63,1.98-.76.34-1.53.69-2.29,1.03.72-.32,1.43-.63,2.15-.95,1.49-.67,3-1.31,4.51-1.92Z"/><path class="cls-11" d="M65.25,32.4c3.08-1.24,6.18-2.4,9.31-3.48.79-.33,1.7-.69,2.49-1.03,1.63-.68,3.26-1.36,4.89-2.03-.03.07-.05.14-.08.22-.96.42-2.07.91-3.29,1.45-.17.08-.35.16-.53.23l-.09.04s-.09.04-.13.06c-.61.27-1.21.52-1.82.78-.68.27-1.38.54-2.06.82-.71.27-1.42.55-2.21.84-1.98.64-3.93,1.33-5.87,2.07-.65.24-1.29.49-1.93.74-.69.26-1.46.57-2.16.85-6.59,3.15-13.11,6.21-20.31,8.66-.79.32-1.66.66-2.45.98-1.58.65-3.14,1.3-4.7,1.97-.8.37-1.6.75-2.41,1.11-.61.28-1.21.55-1.81.83-.61.27-1.21.55-1.82.82-.48.22-5.03,2.11-8.47,3.54-.05-.05-.1-.1-.15-.15,3.34-1.39,7.66-3.19,8.05-3.37.72-.32,1.49-.67,2.2-1,1.44-.65,2.87-1.3,4.3-1.96.83-.38,1.69-.77,2.61-1.17.72-.25,1.43-.5,2.14-.76.71-.26,1.42-.52,2.12-.78,6.55-2.26,12.65-4.96,18.98-8.06,1.09-.58,2.25-.99,3.35-1.47.62-.25,1.23-.5,1.85-.74Z"/><path class="cls-11" d="M66.94,31.29c1.85-.72,3.7-1.44,5.57-2.17.71-.29,1.56-.64,2.27-.95.69-.3,1.34-.59,1.99-.87,1.98-.87,3.97-1.72,5.96-2.56-.11.11-.22.22-.32.34-.03.04-.06.08-.1.12h0c-1.91.81-3.82,1.63-5.73,2.47-.72.31-1.44.62-2.2.95-2.02.73-4.03,1.48-6.04,2.26-.67.26-1.34.52-2,.78-.6.24-1.21.48-1.81.72s-1.21.48-1.81.73c-3.96,1.6-7.4,3.39-11.23,5.15-3.67,1.7-7.4,2.8-10.93,4.21-.79.31-1.58.62-2.38.93-.8.31-1.59.62-2.39.93-.7.36-1.61.77-2.41,1.15-.7.33-1.41.66-2.11.98-.71.32-1.42.64-2.13.96-.8.36-5.92,2.5-9.67,4.07-.07-.08-.13-.16-.19-.25,3.36-1.4,7.62-3.17,8.05-3.35.76-.34,1.57-.71,2.32-1.06,1.51-.7,3.02-1.41,4.51-2.14.81-.36,1.6-.71,2.44-1.06.66-.26,1.33-.53,1.99-.79.66-.26,1.33-.52,2-.78,6.78-2.29,13.23-5.07,19.68-8.2.83-.34,1.62-.65,2.43-.96.8-.3,1.6-.61,2.4-.9.62-.24,1.24-.48,1.86-.72Z"/><path class="cls-11" d="M60.26,37.5c.07-.06.15-.11.22-.17.04-.03.07-.06.11-.08-.17.06-.35.12-.52.18-.35.12-.69.24-1.04.36-.07.08-.15.15-.22.22.48-.17.97-.33,1.45-.51Z"/><path class="cls-11" d="M38.59,45.73l-2.53,1.35c-.55.24-1.13.5-1.66.73-.69.3-2.48,1.06-4.64,1.96-2.28.96-4.98,2.09-7.23,3.04-.16,0-.32,0-.48-.01,3.15-1.31,6.78-2.81,7.12-2.97,1.24-.56,2.5-1.11,3.75-1.65.28-.12.56-.24.84-.36.44-.19.88-.38,1.33-.57,1.17-.5,2.33-1.02,3.5-1.52Z"/><path class="cls-11" d="M78.46,25.63c1.68-.71,3.44-1.37,5.17-2.07h0s-.05.1-.07.15h0c-1.52.61-3.05,1.18-4.63,1.84-.8.37-1.6.73-2.41,1.1-.7.31-1.41.62-2.11.92-.72.31-1.52.66-2.25.96-.63.27-1.27.55-1.91.82-.64.27-1.28.54-1.92.81-2.33.96-4.66,1.85-6.97,2.75-.77.3-1.56.62-2.34.92-5.71,2.45-11.1,5.04-16.95,7.13-.63.25-1.26.5-1.89.75-1.26.49-2.53.97-3.8,1.43-.79.34-1.69.72-2.52,1.07-1.88.85-3.74,1.69-5.58,2.52-.62.28-1.28.58-1.89.85-.38.17-4.23,1.78-7.47,3.12-.03-.05-.05-.09-.07-.14,3.39-1.42,7.84-3.28,8.29-3.48.64-.29,1.28-.57,1.91-.86,1.26-.57,2.52-1.14,3.77-1.7.62-.27,1.23-.54,1.84-.8.61-.26,1.25-.53,1.84-.79,1.83-.72,3.67-1.45,5.51-2.17.62-.24,1.23-.49,1.87-.73,5.13-1.73,10-4.23,15.01-6.29.77-.3,1.57-.62,2.36-.92,2.34-.9,4.68-1.79,7-2.74.66-.27,1.32-.54,1.97-.82.66-.27,1.31-.55,1.97-.83.65-.28,1.42-.61,2.08-.9.65-.29,1.3-.58,1.95-.88.75-.34,1.49-.68,2.24-1.02Z"/><path class="cls-11" d="M29.62,48.23c.68-.3,1.35-.6,2.03-.9-.63.28-1.25.57-1.88.85-.69.31-1.43.64-2.1.94-.25.12-4.26,1.78-7.43,3.09-.02,0-.03-.02-.04-.03,3.14-1.3,7.07-2.92,7.3-3.02.67-.3,1.43-.63,2.12-.93Z"/><path class="cls-11" d="M31.83,47.25s-.02.01-.03.01c-.05.02-.1.05-.15.07.06-.03.12-.05.18-.08Z"/><path class="cls-11" d="M34.48,47.93l-1.08.57c-.93.42-4.64,1.99-8.2,3.5-.56.23-1.12.47-1.66.7-.17.03-.33.06-.5.07,1.35-.58,2.83-1.2,4.28-1.81h.03c3.19-1.36,6.18-2.63,7.12-3.04Z"/><path class="cls-11" d="M45.5,43.13s.06-.05.09-.08c.04-.03.08-.07.11-.1-.52.23-1.05.45-1.57.69,0,.04,0,.08-.01.11.46-.2.92-.41,1.37-.61Z"/><path class="cls-11" d="M43.96,44.65c.07,0,.14-.01.21-.02.23-.12.46-.24.69-.36.04-.08.07-.15.11-.23-.33.17-.66.34-.99.52,0,.03-.01.05-.02.08Z"/><path class="cls-11" d="M27.96,45.42c-.56.25-1.12.5-1.68.76-.72.33-1.46.68-2.18,1.01-.19.09-2.92,1.21-5.63,2.34-.01-.03-.02-.06-.02-.09,3.29-1.38,7.22-3.02,7.65-3.2.62-.28,1.24-.55,1.87-.82Z"/><path class="cls-11" d="M35.14,42.45c-2.45.92-4.83,1.92-7.18,2.97,2.26-.97,4.54-1.9,6.84-2.76.74-.3,1.48-.6,2.22-.89.75-.29,1.5-.58,2.26-.87.04-.02.07-.04.11-.06-.67.23-1.33.47-1.97.72-.77.29-1.53.59-2.29.89Z"/><path class="cls-11" d="M35.75,40.72c.44-.04.86-.06,1.27-.23.79-.33,1.58-.66,2.36-.99.75-.31,1.54-.63,2.3-.94.58-.21,1.16-.42,1.75-.63.58-.21,1.17-.43,1.75-.64.78-.32,1.56-.63,2.38-.96,7.11-2.81,14.19-5.08,20.96-8.57h.02c.28-.11.55-.21.83-.31.27-.1.54-.2.81-.3-7.44,3.97-15.67,6.51-23.63,9.71-.67.26-1.37.54-2.04.8-.7.25-1.4.5-2.1.74-.82.33-1.58.64-2.34.96-.5.21-1.06.44-1.56.66-.63.26-1.25.53-1.87.79-.63.26-1.3.54-1.93.81-3.29,1.24-6.51,2.58-9.7,4-.65.29-1.33.59-1.98.88-.19.08-2.33.96-4.7,1.94,0-.07,0-.13,0-.2,2.74-1.14,5.36-2.23,5.74-2.41.79-.37,1.58-.73,2.36-1.09,3.14-1.44,6.28-2.82,9.32-4.01Z"/><path class="cls-11" d="M29.19,40.93c-.21.11-.42.22-.62.32.24-.11.47-.22.71-.33-.03,0-.06,0-.09,0Z"/><path class="cls-11" d="M28.56,41.26c-.28.13-.56.25-.84.37,0,0,0,0,.01,0,.24-.11.49-.21.73-.32.03-.02.07-.04.1-.05Z"/><path class="cls-11" d="M57.28,33.93c-1.39.52-2.78,1.09-4.16,1.68,1.12-.45,2.23-.9,3.34-1.36.27-.11.55-.22.82-.32Z"/><path class="cls-11" d="M31.63,44.35c.71-.3,1.43-.59,2.15-.88.71-.3,1.43-.59,2.14-.88.72-.29,1.51-.58,2.23-.86,1.36-.47,2.7-1,4.05-1.56.67-.28,1.34-.57,2.01-.86,2.96-1.32,5.94-2.5,8.89-3.69-2.98,1.27-5.95,2.64-8.91,3.84-.66.29-1.34.57-2.01.84-1.34.55-2.69,1.07-4.07,1.53-.87.34-1.73.68-2.57,1.02s-1.67.7-2.51,1.05c-.69.3-1.4.6-2.09.9-1.12.47-2.26.96-3.41,1.47-.57.25-1.14.51-1.71.77-.38.17-4.02,1.69-7.2,3.02,0-.02-.02-.05-.03-.07,3.05-1.28,6.4-2.67,6.73-2.82.67-.3,1.4-.63,2.1-.95.7-.32,1.39-.64,2.08-.96.7-.31,1.41-.62,2.12-.92Z"/><path class="cls-11" d="M60.33,32.8c2.46-.91,4.92-1.84,7.38-2.87.63-.27,1.27-.55,1.91-.83.63-.28,1.26-.57,1.88-.87.72-.32,1.37-.6,2.03-.89.64-.28,1.27-.57,1.91-.87.67-.29,1.4-.61,2.07-.9.63-.25,1.25-.51,1.87-.76,1.12-.52,2.21-1.09,3.35-1.56.41-.16.82-.32,1.23-.48.01-.03.02-.06.04-.09-.86.35-1.72.7-2.58,1.05-1,.35-1.72.89-2.72,1.24-.63.25-1.27.5-1.9.75-.69.3-1.38.6-2.06.9-.69.3-1.37.59-2.06.89-.65.31-1.31.61-1.96.91-.65.3-1.31.6-1.97.89-3.39,1.49-6.8,2.82-10.21,4.14-.41.16-.82.32-1.24.48.2-.07.4-.15.6-.22.82-.3,1.63-.61,2.45-.91Z"/><path class="cls-11" d="M68.81,29c.67-.33,1.33-.66,1.99-1,.68-.31,1.3-.59,1.92-.87.6-.27,1.21-.55,1.81-.83.65-.27,1.26-.52,1.87-.77.61-.25,1.22-.49,1.83-.74,1.81-.68,3.32-1.61,5.13-2.3.27-.1.54-.2.81-.31,0-.01,0-.02.01-.03h0c-.99.38-1.97.77-2.95,1.15-1.48.55-2.84,1.41-4.32,1.96-.54.22-1.12.46-1.63.66-.62.27-1.23.54-1.85.81-.62.27-1.3.57-1.91.84-.69.35-1.38.69-2.07,1.02-1.53.71-3.08,1.37-4.64,2.02,1.4-.6,2.78-1.24,4.13-1.91.67-.34,1.34-.68,2-1.03.6-.29,1.23-.58,1.81-.86.58-.27,1.16-.55,1.74-.83.58-.24,1.33-.56,1.99-.83,2.35-.97,4.73-1.93,7.11-2.88-.78.28-2.35.85-4.36,1.58-.23.12-.47.24-.69.33-.7.28-1.4.57-2.1.85-.7.28-1.49.62-2.18.91-.47.22-.95.44-1.42.66-.48.22-.95.43-1.43.65-.77.4-1.55.79-2.33,1.17-7.11,3.52-14.62,5.57-21.88,8.73-.5.21-1.02.42-1.53.63-1.52.62-3.04,1.22-4.54,1.78-.58.27-1.24.57-1.84.87-.58.29-1.17.59-1.75.9,0,0-.02,0-.03.01.69-.29,1.38-.58,2.07-.87,1.15-.46,2.3-.91,3.43-1.37-1.24.51-2.45,1.08-3.62,1.75.13-.04.26-.09.39-.13,1.95-.99,4.01-1.86,6.1-2.69.14-.05.27-.11.41-.16.49-.18.99-.35,1.48-.53,2.84-1.16,5.62-2.24,8.51-3.27.71-.26,1.42-.53,2.13-.79,3.53-1.32,7.03-2.68,10.39-4.27Z"/><path class="cls-11" d="M37.51,41.33c-.13.06-.27.11-.4.17.13-.04.26-.09.4-.17Z"/><path class="cls-11" d="M37.11,41.49l-.05.02c-.76.32-1.51.64-2.26.96-.75.32-1.52.65-2.31.97-2.28.88-4.54,1.82-6.78,2.8-.43.19-4.08,1.71-7.3,3.06-.02-.1-.04-.21-.05-.31,2.95-1.23,6.06-2.52,6.37-2.65.58-.26,1.16-.51,1.75-.76,2.92-1.26,5.88-2.46,8.83-3.71.65-.31,1.21-.2,1.82-.37Z"/><path class="cls-11" d="M64.23,33.43c1.54-.62,3.13-1.2,4.7-1.78-1.8.63-3.6,1.26-5.4,1.99-.57.23-1.15.48-1.75.75-.82.44-1.65.88-2.49,1.3,1.13-.53,2.26-1.07,3.38-1.61.45-.19,1.03-.44,1.56-.65Z"/><path class="cls-11" d="M24.1,43.6c.29-.09.57-.17.87-.26-.16.07-.31.13-.47.2-.67.28-1.35.57-2.08.89-.23.11-1.3.56-2.72,1.16.09-.08.19-.16.29-.24,1.05-.44,1.8-.74,1.96-.81.76-.33,1.47-.64,2.16-.94Z"/><path class="cls-11" d="M50.71,32.83s-.04,0-.06,0c-.12,0-.24.02-.36.03-.25.09-.5.17-.74.26-.06.06-.12.13-.18.19.45-.16.89-.32,1.34-.48Z"/><path class="cls-11" d="M43.77,36.17c.34-.12.68-.24,1.02-.36-.08-.03-.17-.06-.25-.09-.13.04-.25.08-.38.12-.46.14-.91.3-1.37.46l.2.15c.25-.09.51-.18.77-.28Z"/><path class="cls-11" d="M31.98,40.91c.1,0,.2,0,.3.01,0,0,.01,0,.02,0l-.18.08c-.76.31-1.56.66-2.32.98-1.34.55-2.66,1.12-3.99,1.69-.66.28-1.37.6-1.98.87-.67.29-1.34.58-2,.87-.15.07-1.42.59-3.05,1.27.05-.1.11-.19.18-.28,2.04-.85,3.73-1.55,3.96-1.65.66-.29,1.28-.55,1.89-.81,1.22-.52,2.44-1.03,3.67-1.54.38-.16.76-.31,1.14-.47.1-.03.19-.06.29-.09-.02,0-.04,0-.06,0h0s.72-.3.72-.3c.47-.21.93-.42,1.39-.63Z"/><path class="cls-11" d="M53.72,32.7c-.11,0-.21,0-.32,0-.07,0-.15,0-.22,0-.66.26-1.33.51-1.99.76.11,0,.23.02.34.03.73-.26,1.47-.53,2.2-.8Z"/><path class="cls-11" d="M21.47,44.38h.01s.03-.01.05-.02c-.23.1-.47.21-.71.31.22-.1.43-.2.65-.29Z"/><path class="cls-11" d="M28.53,41.7c.09,0,.19.02.28.03.63-.27,1.26-.54,1.93-.84-.14,0-.28,0-.42,0-.03,0-.07,0-.1,0-.34.17-.68.35-1.03.52-.22.09-.44.19-.65.28Z"/><path class="cls-11" d="M43.03,35.47c.18-.06.36-.12.54-.17-.11-.06-.22-.12-.3-.17-.13.04-.27.08-.4.12-.34.12-.67.24-1.01.37l.26.19c.31-.11.61-.22.92-.33Z"/><path class="cls-11" d="M26.82,41.47s-.05.06-.07.09c.03,0,.07,0,.1,0,.43-.19.87-.39,1.29-.58-.12,0-.23.01-.35.02-.32.15-.64.3-.97.46Z"/><path class="cls-11" d="M20.75,44.7s-.15.07-.34.15c.19-.08.31-.13.34-.15Z"/><path class="cls-11" d="M33.67,41.13c-.32.16-.59.34-.86.53,1-.4,2-.79,2.99-1.18.24-.1.48-.21.73-.31-1.04.38-1.93.51-2.86.96Z"/><path class="cls-11" d="M44.16,43.47c.63-.28,1.27-.56,1.9-.83.16-.13.31-.26.47-.39-.78.32-1.57.65-2.35,1,0,.07-.02.15-.03.23Z"/><path class="cls-11" d="M60.29,36.47c.74-.31,1.49-.62,2.23-.93.07-.03.14-.06.21-.09.13-.12.26-.24.38-.35.06-.06.12-.12.18-.17-.9.42-1.81.84-2.72,1.24-.09.1-.19.2-.28.31Z"/><path class="cls-11" d="M32.81,41.66c-.4.28-.79.56-1.28.72-2.09.81-4.15,1.68-6.2,2.58-.69.31-1.43.63-2.11.94-.29.11-2.45,1-4.86,2,0-.07.02-.15.04-.22,2.51-1.04,4.78-1.98,5.13-2.12.59-.27,1.39-.61,2.08-.91,2.4-1.04,4.8-2.03,7.21-2.99Z"/><path class="cls-11" d="M61.29,36.68c.09-.07.18-.14.26-.21.05-.04.1-.09.15-.13-.7.29-1.4.57-2.1.85-.08.09-.17.17-.25.25.65-.25,1.29-.51,1.93-.76Z"/><path class="cls-11" d="M42.24,43.78l-1.01.54c-.14.06-.28.12-.42.18-.72.31-1.43.62-2.15.94l-.06.02c-.69.31-1.39.62-2.08.93-.84.36-1.59.69-2.35,1.02-1.51.66-3.02,1.32-4.51,1.98-.46.2-4.68,1.96-8.06,3.36-.1-.02-.21-.04-.31-.06,3.41-1.42,7.74-3.21,8.2-3.41,1.5-.65,2.99-1.29,4.48-1.93.75-.32,1.54-.67,2.33-1.01.75-.33,1.49-.66,2.24-.99.75-.33,1.49-.65,2.24-.96l.13-.05c.44-.19.88-.37,1.33-.55Z"/><path class="cls-11" d="M47.16,41.77c-.98.4-1.97.8-2.94,1.2,0,.03,0,.06-.01.1.92-.38,1.83-.76,2.75-1.14.07-.05.14-.1.21-.16Z"/><path class="cls-11" d="M38.71,39.42c.78-.31,1.56-.62,2.34-.93.8-.31,1.6-.63,2.46-.95.56-.2,1.12-.41,1.68-.61.57-.21,1.13-.42,1.69-.64,6.19-2.49,12.65-4.71,18.73-7.48-.44.16-.88.33-1.32.49-4.87,2.22-9.94,4.01-14.91,5.86-.81.32-1.34.53-1.69.68-.19.08-.39.14-.59.19-.46.18-.93.36-1.39.54-.54.2-1.08.4-1.61.6-.62.21-1.25.43-1.86.64-1.57.55-2.85,1.14-4.35,1.78-.46.19-.92.39-1.38.58.02,0,.03-.01.05-.02.71-.23,1.42-.48,2.13-.74Z"/><path class="cls-3" d="M78.17,67.47c.24-.09.48-.19.73-.28-.23.08-.45.17-.67.25h-.01s-.03.02-.04.03Z"/><path class="cls-2" d="M67.84,72.94c-2.84,1.36-10.78,5.34-10.78,5.34l.43-2.64-1.25.25s-.57,3.27-2.77,4.14c-.73.29-2.15.95-5.37,2.28.04-.05.07-.09.11-.14.09-.11.19-.23.28-.35.19-.24.39-.48.59-.71.2-.24.4-.47.6-.71.2-.23.4-.46.59-.68.09-.11.19-.21.28-.31-.2,0-.39-.02-.59-.03,0,0,0,0-.01,0-.22.19-.45.39-.69.59-.23.2-.47.4-.7.61-.23.21-.46.42-.69.63-.11.1-.22.21-.34.31-.11.1-.22.21-.33.31-.21.2-.41.4-.61.6-.2.19-.37.38-.53.56-.07.08-.14.15-.2.22-2.08.85-7.44,3.3-12.92,5.83h-.02c-.27.13-.54.25-.81.38-.27.12-.53.24-.79.36h0c-6.93,3.21-13.56,6.33-13.56,6.33l.04.09c.47.2.92.43,1.39.61.03.01.05.02.08.03.03.01.05.02.08.03h0s.03.01.04.01c.41.14.85.13,1.28.13.16,0,.32,0,.47.01.05,0,.11,0,.16.01.07,0,.15.02.22.04.18.04.34.11.5.18.07.03.14.06.21.1.98-.38,2.13-.83,3.37-1.31.21-.08.42-.16.63-.25.05-.01.09-.03.14-.05,4.45-1.73,10-3.86,14.04-5.36.07,0,.21.02.42.03.15.01.32.02.52.02.1,0,.2,0,.31,0,.11,0,.23,0,.35,0,.24,0,.5-.01.77-.03.27-.02.56-.03.85-.06.15-.01.3-.02.45-.04.15-.02.3-.03.46-.05.31-.03.62-.07.93-.11.31-.03.62-.08.92-.12.26-.04.52-.07.77-.11.14-.15.29-.32.43-.48-.11,0-.22,0-.34,0-.29,0-.59,0-.9,0-.3,0-.61,0-.92-.02-.31,0-.62-.02-.92-.03-.15,0-.3-.01-.45-.02-.15-.01-.3-.02-.44-.03-.11,0-.22-.02-.32-.02,7.75-2.85,11.4-5.45,16.83-5.68.09,0,.17-.01.25-.02.04.01.09.03.14.04.21.06.42.13.63.2.22.07.43.14.65.22.01,0,.03.01.05.02.2-.15.41-.31.6-.48-.11-.07-.23-.14-.34-.21-.11-.07-1.14-.9-1.26-.96l3.54-1.22,2.44-.84,5.13-1.76,4.24-1.46,2.55-.88h.03s2.25-.78,2.25-.78l1.35-.46c.11-.07.22-.14.32-.21.14-.1.28-.2.41-.3.14-.11.27-.22.39-.34.12-.11.23-.23.33-.35.1-.11.2-.23.28-.35.06-.09.12-.18.17-.27.2-.34.35-.7.42-1.09,0-.02,0-.03,0-.05.04-.17.05-.34.06-.52,0-.07,0-.14,0-.22,0-.09,0-.19-.02-.29,0-.1-.02-.2-.04-.31-.03-.2-.08-.41-.15-.63-.01-.05-.03-.1-.05-.15-.04-.12-.08-.24-.13-.36-.02-.05-.04-.1-.06-.15,0-.02-.02-.05-.03-.07-.07-.15-.14-.3-.22-.43-.01-.03-.03-.06-.04-.08-.02-.04-.05-.08-.07-.12-.06-.09-.12-.18-.18-.26-.11-.16-.24-.3-.36-.43-.05-.05-.09-.09-.15-.14-.08-.08-.17-.15-.26-.21-.06-.05-.12-.09-.18-.13-.31-.2-.64-.34-.99-.43-.11-.03-.21-.05-.33-.07-.35-.06-.72-.08-1.1-.06-.12,0-.25.02-.38.03-.62.07-1.29.24-1.97.48-.64.35-1.39.76-2.21,1.2-.26.14-.53.29-.8.43h0c-1.45.79-3,1.62-4.31,2.31-.09.05-.18.1-.27.14.01-.01.02-.03.03-.04,0-.01.02-.02.02-.03.09-.11.19-.23.28-.35.19-.24.39-.48.58-.71.2-.24.4-.47.6-.71.18-.21.36-.41.53-.62-.21-.03-.41-.06-.62-.09-.11.09-.22.19-.33.28-.23.2-.47.41-.7.61-.23.21-.47.42-.69.63-.11.1-.22.21-.34.31-.11.1-.22.21-.32.31-.21.2-.42.41-.61.6-.19.19-.37.38-.53.56-.01.01-.02.02-.03.04-.07.08-.14.15-.2.22,0,0,0,.01-.02.02h0c-.07.08-.13.15-.18.22-.01.01-.02.02-.03.03Z"/><path class="cls-12" d="M33.5,93c.63-.29,1.26-.58,1.89-.87-.54.26-1.09.52-1.63.77-.09.03-.17.07-.26.1Z"/><path class="cls-12" d="M66.12,79.54c-.76.32-1.51.64-2.27.96-6.15,2.84-12.39,5.57-18.72,7.65,6.15-2.2,12.25-4.59,18.32-7.51.77-.33,1.61-.69,2.38-1.01,1.61-.73,3.1-1.29,4.7-1.88.79-.3,1.58-.6,2.36-.9-.73.28-1.47.57-2.2.85-1.54.58-3.06,1.2-4.58,1.83Z"/><path class="cls-12" d="M38.54,90.05c-3.07,1.31-6.11,2.69-9.1,4.14-.8.32-1.7.72-2.51,1.04-1.64.68-3.29,1.35-4.93,2.03.07.03.14.06.21.1.98-.38,2.13-.83,3.37-1.31.18-.07.36-.14.54-.21l.09-.04s.09-.03.14-.05c.62-.24,1.23-.49,1.85-.74.68-.29,1.37-.59,2.05-.89.7-.31,1.4-.62,2.17-.97,1.86-.95,3.75-1.85,5.65-2.7.63-.29,1.27-.57,1.9-.85.68-.3,1.45-.63,2.15-.93,6.93-2.44,13.75-4.91,20.61-8.28.79-.33,1.65-.71,2.44-1.04,1.58-.66,3.16-1.31,4.75-1.94.83-.3,1.67-.61,2.5-.92.63-.23,1.25-.47,1.88-.7.63-.24,1.25-.47,1.88-.72.5-.19,5.08-2.08,8.55-3.5,0-.07,0-.14,0-.22-3.37,1.38-7.72,3.18-8.13,3.33-.74.28-1.54.58-2.28.86-1.49.56-2.97,1.11-4.46,1.67-.86.32-1.75.66-2.69,1.02-.69.34-1.37.66-2.06.98-.69.32-1.38.64-2.07.95-6.27,3.05-12.54,5.47-19.24,7.76-1.19.37-2.31.9-3.43,1.34-.62.26-1.23.52-1.85.79Z"/><path class="cls-12" d="M36.55,90.46c-1.82.8-3.66,1.61-5.51,2.41-.72.3-1.57.65-2.29.94-.7.28-1.37.53-2.04.79-2.03.78-4.05,1.59-6.06,2.41.16,0,.32,0,.47.01.05,0,.1.01.16.02h0c1.93-.79,3.88-1.56,5.83-2.32.73-.29,1.47-.58,2.24-.88,1.95-.92,3.93-1.81,5.91-2.69.66-.29,1.32-.58,1.98-.87.6-.26,1.2-.51,1.8-.77s1.2-.52,1.81-.77c3.96-1.67,7.68-2.85,11.66-4.32,3.82-1.4,7.26-3.27,10.77-4.78.78-.34,1.57-.68,2.36-1.03.79-.35,1.57-.69,2.36-1.04.75-.24,1.69-.6,2.53-.9.73-.26,1.47-.53,2.2-.8.73-.27,1.47-.55,2.2-.83.82-.31,5.99-2.43,9.78-3.98,0-.1-.02-.2-.04-.31-3.39,1.39-7.68,3.16-8.12,3.34-.78.3-1.62.61-2.41.9-1.57.58-3.15,1.14-4.73,1.69-.83.32-1.64.63-2.49.98-.66.28-1.32.57-1.98.85-.66.29-1.32.58-1.98.86-6.46,3.19-13.03,5.8-19.84,8.16-.83.34-1.62.69-2.41,1.04-.78.35-1.57.7-2.35,1.07-.61.27-1.22.54-1.84.81Z"/><path class="cls-12" d="M45.72,90.13c-.09.01-.18.02-.28.03-.05,0-.09.01-.14.02.17-.08.33-.16.49-.25.33-.16.66-.32.99-.48.11,0,.21,0,.32,0-.46.23-.93.45-1.39.67Z"/><path class="cls-12" d="M67,80.58l2.76-.84c.57-.22,1.16-.45,1.7-.66.71-.27,2.51-1.01,4.7-1.9,2.31-.94,5.03-2.06,7.31-2.98.12-.11.23-.23.33-.35-3.18,1.31-6.83,2.82-7.18,2.95-1.28.49-2.56.99-3.85,1.49-.28.11-.57.23-.85.34-.45.18-.9.36-1.35.54-1.19.47-2.38.94-3.58,1.4Z"/><path class="cls-12" d="M24.32,94.63c-1.7.69-3.42,1.47-5.15,2.2h0c.05.02.11.04.16.06h0c1.52-.65,3.01-1.33,4.6-1.99.83-.31,1.66-.62,2.49-.93.72-.28,1.44-.56,2.16-.84.73-.29,1.55-.62,2.28-.91.65-.26,1.29-.51,1.94-.77.65-.26,1.3-.52,1.95-.79,2.34-.98,4.63-1.99,6.92-3,.77-.33,1.55-.67,2.32-1,5.8-2.32,11.48-4.31,17.14-6.98.63-.26,1.25-.54,1.88-.81,1.25-.55,2.49-1.11,3.73-1.69.8-.31,1.71-.69,2.56-1.03,1.95-.73,3.86-1.46,5.76-2.18.64-.25,1.32-.5,1.95-.74.39-.15,4.28-1.75,7.54-3.09-.01-.05-.03-.1-.05-.15-3.43,1.4-7.91,3.24-8.37,3.42-.66.25-1.32.5-1.97.75-1.3.49-2.6.98-3.89,1.47-.63.24-1.26.49-1.88.74-.63.25-1.26.51-1.87.75-1.82.79-3.64,1.58-5.47,2.37-.61.27-1.22.53-1.85.81-4.89,2.42-10.12,4.1-15.16,6.2-.76.34-1.56.68-2.33,1.02-2.3,1.02-4.6,2.06-6.93,3.03-.66.28-1.32.55-1.99.82-.66.27-1.33.54-1.99.81-.66.27-1.44.57-2.12.84-.67.26-1.34.51-2.01.76-.77.29-1.55.58-2.32.86Z"/><path class="cls-12" d="M75.17,75.98c-.7.27-1.39.54-2.09.81.65-.25,1.29-.49,1.94-.73.71-.27,1.47-.56,2.17-.83.26-.1,4.3-1.77,7.49-3.08,0-.02,0-.03,0-.05-3.15,1.31-7.11,2.95-7.34,3.04-.69.26-1.47.57-2.17.84Z"/><path class="cls-12" d="M72.9,76.85s.02,0,.03,0c.05-.02.11-.04.16-.06-.06.02-.12.05-.18.07Z"/><path class="cls-12" d="M71.49,79.22l1.17-.36c.96-.36,4.72-1.89,8.33-3.34.57-.23,1.13-.46,1.68-.68.14-.1.28-.2.41-.3-1.37.55-2.87,1.16-4.33,1.75h-.03c-3.23,1.32-6.25,2.55-7.22,2.93Z"/><path class="cls-12" d="M60.23,83.64s-.08,0-.13,0c-.05,0-.1,0-.15,0,.53-.21,1.07-.42,1.61-.63.03.02.06.05.09.07-.47.18-.94.36-1.41.54Z"/><path class="cls-12" d="M62.41,83.62c-.05.05-.11.09-.16.13-.25.08-.5.16-.75.24-.08-.03-.16-.05-.24-.08.36-.11.72-.23,1.08-.33.02.01.05.03.07.04Z"/><path class="cls-12" d="M74.35,72.8c.58-.22,1.16-.44,1.74-.66.75-.28,1.52-.56,2.27-.83.2-.08,2.94-1.21,5.67-2.34-.01-.03-.03-.06-.04-.08-3.32,1.36-7.29,2.99-7.72,3.16-.64.24-1.28.49-1.91.75Z"/><path class="cls-12" d="M67.13,75.79c2.4-1.08,4.81-2.07,7.22-2.99-2.3.92-4.59,1.88-6.83,2.9-.74.31-1.48.63-2.22.95-.74.32-1.48.65-2.23.99-.04.01-.08.02-.13.03.65-.31,1.28-.61,1.92-.89.76-.34,1.51-.67,2.26-.99Z"/><path class="cls-12" d="M65.46,74.98c-.34.28-.65.57-1.06.74-.8.32-1.59.65-2.38.98-.76.31-1.55.65-2.31.96-.56.27-1.13.53-1.69.79-.56.26-1.14.53-1.7.79-.78.33-1.56.66-2.37,1.01-7.06,3.06-13.71,6.48-21.02,8.8h-.02c-.27.13-.54.25-.81.38-.27.12-.53.24-.79.36,8.12-2.46,15.79-6.51,23.73-9.89.66-.29,1.35-.59,2.02-.88.68-.32,1.35-.64,2.02-.97.82-.35,1.58-.67,2.35-.98.5-.21,1.07-.44,1.58-.64.63-.26,1.26-.51,1.89-.77.64-.26,1.31-.54,1.95-.79,3.22-1.46,6.47-2.8,9.75-4.05.67-.26,1.36-.53,2.04-.78.19-.08,2.35-.97,4.73-1.96-.05-.05-.09-.09-.15-.14-2.76,1.14-5.4,2.22-5.81,2.37-.82.3-1.64.6-2.46.9-3.26,1.21-6.48,2.46-9.49,3.78Z"/><path class="cls-12" d="M70.28,70.47c.22-.07.45-.14.67-.21-.25.09-.49.18-.74.27.02-.02.04-.04.06-.06Z"/><path class="cls-12" d="M70.96,70.26c.29-.11.58-.22.87-.33,0,0,0,0,0,0-.25.1-.5.19-.75.29-.04.01-.07.02-.11.04Z"/><path class="cls-12" d="M45.3,85.47c1.35-.62,2.75-1.2,4.16-1.77-1.12.47-2.23.95-3.35,1.41-.27.12-.54.24-.81.35Z"/><path class="cls-12" d="M70.97,74.64c-.72.3-1.44.6-2.16.91-.72.29-1.44.59-2.15.9-.72.31-1.49.66-2.2.97-1.3.63-2.63,1.21-3.99,1.77-.68.28-1.36.55-2.05.82-3.05,1.17-6.01,2.44-8.95,3.7,3.02-1.21,6.12-2.35,9.07-3.6.68-.27,1.36-.55,2.03-.83,1.34-.56,2.67-1.16,3.98-1.8.86-.38,1.72-.75,2.56-1.1s1.69-.69,2.53-1.03c.71-.28,1.42-.57,2.12-.85,1.13-.46,2.3-.92,3.47-1.38.59-.22,1.18-.45,1.77-.67.39-.15,4.06-1.66,7.28-2.97,0-.02-.02-.05-.03-.07-3.08,1.26-6.46,2.64-6.8,2.77-.69.27-1.44.55-2.17.82-.72.27-1.44.54-2.16.8-.72.28-1.44.56-2.16.86Z"/><path class="cls-12" d="M42.33,86.83c-2.4,1.1-4.81,2.19-7.29,3.2-.64.25-1.3.51-1.95.76-.65.24-1.3.49-1.96.72-.74.29-1.41.55-2.08.8-.66.25-1.31.5-1.97.74-.68.27-1.43.56-2.11.84-.63.26-1.25.53-1.88.79-1.16.42-2.35.79-3.49,1.27-.4.18-.81.36-1.21.53-.03-.01-.06-.03-.09-.04.86-.36,1.72-.73,2.59-1.09.96-.46,1.86-.59,2.82-1.05.63-.27,1.26-.54,1.89-.81.71-.28,1.41-.55,2.11-.83.7-.28,1.4-.55,2.1-.83.68-.25,1.36-.49,2.04-.75.68-.25,1.36-.51,2.04-.77,3.48-1.35,6.85-2.83,10.21-4.32.41-.18.81-.36,1.22-.54-.19.09-.39.18-.58.27-.8.36-1.6.73-2.39,1.09Z"/><path class="cls-12" d="M33.59,90.16c-.71.24-1.41.48-2.12.7-.71.26-1.35.51-1.99.75-.62.24-1.25.47-1.88.7-.66.27-1.27.52-1.88.78-.61.26-1.22.51-1.83.77-1.77.8-3.51,1.21-5.29,2.01-.26.12-.53.24-.79.36,0,0-.02,0-.03-.01h0c.98-.43,1.96-.86,2.93-1.28,1.45-.66,3.03-1.01,4.47-1.67.54-.23,1.12-.47,1.62-.69.63-.25,1.26-.49,1.89-.74.64-.25,1.33-.52,1.96-.76.74-.24,1.47-.49,2.2-.75,1.59-.58,3.17-1.21,4.73-1.86-1.43.57-2.86,1.1-4.3,1.57-.72.24-1.43.47-2.15.68-.63.23-1.29.46-1.9.68-.61.22-1.22.43-1.82.64-.58.24-1.35.55-2.01.82-2.36.98-4.74,1.99-7.11,3.01.76-.36,2.27-1.07,4.22-1.98.26-.08.5-.16.73-.25.7-.3,1.4-.6,2.1-.89.7-.29,1.5-.62,2.19-.9.49-.18.99-.36,1.48-.54.49-.18.98-.37,1.48-.55.83-.26,1.66-.54,2.49-.82,7.56-2.55,14.37-6.43,21.79-9.35.51-.21,1.03-.43,1.54-.64,1.52-.64,3.03-1.3,4.5-1.96.61-.22,1.29-.47,1.93-.69.62-.21,1.25-.41,1.89-.6.01,0,.02,0,.03,0-.7.28-1.4.57-2.09.86-1.14.49-2.28.98-3.42,1.47,1.25-.52,2.51-.98,3.82-1.33-.12.06-.25.12-.37.18-2.1.68-4.18,1.53-6.26,2.42-.13.06-.27.12-.41.18-.48.23-.96.45-1.43.68-2.85,1.2-5.6,2.4-8.38,3.73-.69.32-1.39.63-2.08.95-3.46,1.57-6.91,3.09-10.43,4.35Z"/><path class="cls-12" d="M64.63,76.67c.13-.05.27-.11.4-.16-.12.07-.25.12-.4.16Z"/><path class="cls-12" d="M65.04,76.51l.05-.02c.77-.31,1.53-.62,2.29-.93.77-.31,1.54-.62,2.34-.95,2.25-.99,4.52-1.94,6.82-2.83.44-.17,4.12-1.69,7.37-3.01-.06-.09-.12-.18-.18-.26-2.97,1.22-6.11,2.52-6.42,2.64-.6.23-1.19.46-1.79.7-2.97,1.18-5.94,2.43-8.93,3.64-.68.24-1,.72-1.56,1.03Z"/><path class="cls-12" d="M40,90.05c-1.54.65-3.08,1.37-4.61,2.08,1.73-.83,3.46-1.66,5.26-2.42.57-.24,1.16-.47,1.78-.71.9-.27,1.8-.55,2.7-.85-1.18.42-2.37.84-3.56,1.26-.46.19-1.05.42-1.57.65Z"/><path class="cls-12" d="M75.8,68.76c-.26.14-.53.29-.8.43.16-.06.31-.13.47-.19.68-.27,1.37-.55,2.12-.85.24-.09,1.33-.52,2.76-1.11-.12,0-.25.02-.38.03-1.06.44-1.81.75-1.97.82-.77.3-1.5.59-2.2.87Z"/><path class="cls-12" d="M49.2,80.01s.03-.03.05-.04c.09-.08.18-.16.27-.23.24-.11.48-.23.71-.35.09,0,.18.01.26.01-.43.21-.86.41-1.3.61Z"/><path class="cls-12" d="M56.52,77.45c-.33.16-.66.31-.98.47.04-.08.08-.16.11-.24.12-.06.23-.12.35-.19.43-.22.86-.44,1.3-.65l-.04.25c-.25.12-.49.23-.74.35Z"/><path class="cls-12" d="M68.28,72.44c-.07.08-.14.15-.2.22,0,0,0,.01-.02.02l.19-.07c.76-.32,1.58-.64,2.35-.95,1.34-.56,2.69-1.1,4.04-1.63.67-.27,1.4-.55,2.02-.79.68-.27,1.36-.54,2.04-.81.16-.06,1.43-.59,3.08-1.27-.11-.03-.21-.05-.33-.07-2.05.85-3.75,1.55-4,1.65-.67.26-1.3.51-1.92.76-1.24.5-2.47,1-3.71,1.51-.38.16-.76.32-1.14.48-.09.05-.18.1-.27.14.01-.01.02-.03.04-.04h0s-.72.3-.72.3c-.48.18-.96.36-1.44.54Z"/><path class="cls-12" d="M46.96,82.06c.08-.08.15-.15.23-.23.05-.05.11-.1.16-.16.66-.29,1.31-.58,1.96-.87-.07.09-.15.18-.22.26-.71.33-1.42.67-2.13.99Z"/><path class="cls-12" d="M78.23,67.44h-.01s-.03.02-.04.03c.24-.09.48-.19.73-.28-.23.08-.45.17-.67.25Z"/><path class="cls-12" d="M71.29,70.56c-.06.07-.12.14-.18.22-.64.26-1.28.51-1.97.77.1-.1.2-.2.31-.3.02-.02.05-.05.07-.07.37-.12.73-.24,1.1-.36.22-.09.44-.18.66-.26Z"/><path class="cls-12" d="M56.54,76.43c-.17.09-.34.17-.51.26.04-.12.07-.24.1-.34.12-.07.25-.13.37-.2.32-.16.65-.31.98-.46l-.05.31c-.3.14-.59.28-.89.42Z"/><path class="cls-12" d="M72.35,69.17s.08.01.12.02c-.02.02-.04.05-.06.07-.44.17-.9.34-1.33.51.09-.08.18-.16.27-.23.34-.12.68-.24,1.01-.36Z"/><path class="cls-12" d="M78.97,67.16s.16-.06.35-.14c-.2.08-.31.13-.35.14Z"/><path class="cls-12" d="M67.23,73.8c.34-.11.66-.18.99-.23-.99.43-1.98.86-2.97,1.29-.24.1-.49.2-.74.3,1.01-.47,1.74-1.01,2.72-1.36Z"/><path class="cls-12" d="M61.43,82.93c-.65.25-1.3.5-1.95.76-.21.02-.41.04-.61.06.79-.33,1.58-.65,2.38-.96.06.05.12.09.18.14Z"/><path class="cls-12" d="M44.97,89.42c-.75.31-1.5.62-2.25.92-.07.03-.14.06-.21.08-.18,0-.36.01-.52.02-.09,0-.17,0-.25,0,.94-.34,1.88-.69,2.82-1.05.14,0,.28.01.42.02Z"/><path class="cls-12" d="M68.22,73.56c.48-.09.96-.16,1.43-.4,2.07-.91,4.15-1.76,6.24-2.57.71-.28,1.46-.56,2.17-.83.28-.12,2.46-1.03,4.88-2.03-.06-.05-.12-.09-.18-.13-2.52,1.05-4.81,1.99-5.16,2.14-.61.23-1.43.55-2.13.83-2.45.97-4.86,1.97-7.26,3Z"/><path class="cls-12" d="M44.4,90.28c-.11.01-.23.02-.34.04-.07,0-.13.01-.2.02.7-.29,1.4-.59,2.1-.89.12,0,.24,0,.36,0-.64.28-1.28.56-1.92.83Z"/><path class="cls-12" d="M63.01,81.79l1.1-.33c.14-.06.28-.11.43-.17.73-.29,1.46-.58,2.19-.86l.06-.02c.71-.28,1.43-.55,2.14-.81.85-.34,1.63-.64,2.4-.95,1.54-.61,3.09-1.21,4.62-1.8.47-.18,4.72-1.94,8.13-3.34.06-.09.12-.18.17-.27-3.43,1.42-7.79,3.22-8.26,3.41-1.53.6-3.05,1.2-4.56,1.81-.76.3-1.57.62-2.37.94-.77.29-1.53.59-2.29.89-.76.3-1.52.6-2.28.91l-.13.05c-.45.18-.89.36-1.34.55Z"/><path class="cls-12" d="M58.08,83.85c.98-.42,1.97-.83,2.95-1.24.02.02.05.04.08.06-.92.38-1.84.76-2.76,1.14-.09.01-.17.03-.26.04Z"/><path class="cls-12" d="M62.43,76.17c-.78.33-1.55.67-2.33,1-.79.34-1.59.69-2.43,1.07-.54.26-1.09.51-1.63.76-.55.25-1.1.5-1.66.75-6.18,2.63-12.35,5.65-18.66,8,.43-.2.86-.4,1.28-.59,5.05-1.88,9.93-4.22,14.78-6.43.81-.35,1.33-.58,1.68-.72.2-.08.38-.18.55-.29.46-.2.91-.41,1.37-.61.53-.24,1.05-.48,1.58-.72.59-.29,1.19-.58,1.78-.86,1.51-.72,2.84-1.21,4.36-1.82.47-.19.93-.38,1.4-.57-.02,0-.03.02-.05.02-.67.34-1.35.67-2.04.99Z"/><path class="cls-6" d="M82.44,44.88c.25-.11.49-.22.74-.33-.23.11-.46.21-.68.31h-.01s-.04.02-.05.02Z"/><path class="cls-13" d="M70.78,48.53c-3.1,1.1-11.88,4.08-11.88,4.08l2.28,1.63-1.11.75s-2.84-1.98-5.11-.99c-.75.33-2.29.9-5.64,2.32.06,0,.12.02.19.02.15.01.31.03.47.05.31.03.64.06.96.09.32.03.64.05.96.07.32.02.63.04.93.06.15,0,.29.01.43.02-.14.15-.27.3-.41.46,0,0-.01,0-.02,0-.3.02-.62.05-.94.08-.32.02-.65.05-.97.07-.33.02-.65.04-.98.05-.16,0-.32.01-.48.02-.16,0-.32,0-.47.01-.31,0-.61.01-.89.01-.29,0-.55,0-.81-.02-.11,0-.21,0-.31,0-2.17.92-7.92,3.1-13.83,5.31h-.02c-.29.12-.58.23-.87.33-.28.11-.56.22-.85.32h0c-7.48,2.79-14.67,5.42-14.67,5.42l-.04-.09c.19-.49.36-1,.57-1.48,0-.03.02-.05.03-.08,0-.03.02-.05.03-.08h0s0-.03.02-.04c.19-.41.53-.72.85-1.04.12-.11.23-.24.34-.36.04-.04.08-.09.11-.13.05-.06.1-.13.14-.19.1-.17.17-.34.23-.5.03-.07.06-.15.08-.23,1-.45,2.18-.97,3.45-1.54.21-.09.43-.19.65-.29.04-.02.09-.04.14-.06,4.56-2.04,10.21-4.59,14.3-6.49.05-.06.14-.17.28-.33.1-.12.22-.25.37-.4.07-.08.15-.16.23-.24.08-.08.17-.16.26-.25.18-.17.38-.36.59-.55.21-.19.44-.39.67-.59.12-.1.24-.2.36-.31.12-.1.25-.2.37-.3.25-.21.5-.41.76-.61.25-.2.51-.4.77-.6.22-.17.43-.33.65-.49.22,0,.45.02.67.03-.08.08-.16.17-.25.25-.21.22-.43.44-.65.67-.22.23-.45.46-.66.7-.22.24-.44.47-.66.71-.1.12-.21.23-.31.35-.1.12-.2.23-.3.34-.08.09-.15.17-.22.26,7.82-3.66,12.43-4.47,16.59-8.32.07-.06.13-.11.2-.17.02-.04.05-.09.07-.13.11-.2.21-.4.31-.61.11-.21.21-.43.32-.64,0-.01.02-.03.02-.05.26-.04.53-.07.79-.09-.03.14-.06.27-.1.41-.03.13-.17,1.51-.21,1.64l3.51-1.74,2.41-1.19,5.08-2.52,4.2-2.08,2.53-1.25h.04s2.22-1.12,2.22-1.12l1.34-.66c.14-.03.27-.06.4-.08.18-.03.35-.06.52-.08.18-.02.36-.04.54-.04.17,0,.34,0,.5,0,.16,0,.32.02.47.05.11.02.22.04.32.07.4.1.78.26,1.12.49.02,0,.03.02.04.03.15.1.29.21.43.34.05.05.11.1.16.16.07.07.14.15.2.22.07.08.14.17.2.26.13.17.25.37.36.58.03.05.05.1.08.15.06.11.12.24.17.37.02.05.04.1.06.16.01.02.02.05.03.08.06.16.11.32.16.48.01.03.02.06.03.09.02.05.03.1.04.15.03.11.05.22.06.33.03.2.05.4.05.59,0,.07,0,.14,0,.21,0,.12-.01.23-.03.35,0,.08-.02.15-.04.23-.08.37-.22.72-.41,1.05-.06.1-.12.2-.19.3-.21.31-.47.59-.77.86-.1.09-.2.17-.3.25-.51.41-1.12.78-1.8,1.11-.73.22-1.59.48-2.51.76-.3.09-.6.18-.91.28h0c-1.65.5-3.41,1.04-4.88,1.51-.1.03-.2.06-.3.1.02,0,.04,0,.05,0,.01,0,.03,0,.04,0,.15.01.31.03.47.05.31.03.64.06.96.09.32.03.65.05.96.07.29.02.57.04.85.06-.13.18-.26.35-.39.53-.15.01-.3.03-.45.04-.32.02-.64.05-.97.07-.33.02-.66.04-.98.05-.16,0-.32.01-.48.02-.16,0-.31,0-.47.01-.31,0-.61.01-.89.01-.28,0-.55,0-.8-.01-.02,0-.03,0-.05,0-.11,0-.21,0-.31-.01,0,0-.01,0-.03,0h0c-.11,0-.2-.01-.3-.02-.02,0-.03,0-.05,0Z"/><path class="cls-16" d="M30.63,59.29c.67-.25,1.35-.51,2.04-.76-.59.21-1.18.43-1.77.64-.09.04-.17.08-.26.12Z"/><path class="cls-16" d="M64.61,44.96c-.79.33-1.58.65-2.38.98-6.64,2.48-13.25,5.11-19.44,8.28,6.16-2.94,12.42-5.73,19.04-8.08.81-.33,1.69-.69,2.5-1.03,1.73-.66,3.24-1.36,4.85-2.11.8-.37,1.6-.73,2.4-1.1-.75.34-1.5.67-2.25,1.01-1.57.71-3.14,1.39-4.73,2.05Z"/><path class="cls-16" d="M36.53,57.72c-3.24,1.32-6.49,2.56-9.77,3.72-.83.35-1.78.74-2.62,1.1-1.71.72-3.42,1.44-5.13,2.16.03-.07.06-.15.08-.23,1-.45,2.18-.97,3.45-1.54.18-.08.37-.17.56-.25l.09-.04s.09-.04.14-.06c.64-.28,1.27-.56,1.91-.83.72-.29,1.44-.58,2.17-.87.74-.29,1.49-.58,2.32-.9,2.07-.69,4.12-1.43,6.16-2.21.68-.26,1.35-.53,2.03-.79.72-.28,1.53-.61,2.27-.91,6.91-3.35,13.75-6.6,21.31-9.22.83-.34,1.74-.71,2.57-1.05,1.65-.69,3.3-1.38,4.93-2.1.84-.4,1.68-.79,2.52-1.18.63-.29,1.27-.59,1.9-.88.64-.29,1.27-.58,1.91-.87.5-.23,5.28-2.25,8.89-3.78.05.05.11.1.16.16-3.5,1.48-8.04,3.4-8.45,3.6-.75.34-1.56.71-2.31,1.06-1.51.69-3.01,1.39-4.52,2.09-.87.4-1.77.82-2.73,1.25-.76.26-1.5.53-2.25.81-.75.28-1.49.55-2.22.84-6.87,2.42-13.28,5.29-19.91,8.58-1.15.61-2.36,1.05-3.52,1.56-.65.27-1.29.53-1.95.79Z"/><path class="cls-16" d="M34.76,58.89c-1.94.77-3.89,1.54-5.84,2.32-.75.31-1.64.69-2.39,1.01-.72.32-1.4.62-2.09.93-2.07.93-4.16,1.84-6.25,2.73.12-.11.23-.24.34-.36.04-.04.07-.09.1-.13h0c2-.86,4.01-1.74,6.01-2.63.75-.33,1.51-.66,2.3-1.01,2.12-.78,4.23-1.58,6.34-2.41.7-.28,1.4-.55,2.1-.83.63-.26,1.26-.51,1.9-.77s1.27-.51,1.9-.78c4.15-1.71,7.76-3.61,11.78-5.49,3.85-1.81,7.76-2.99,11.47-4.49.83-.33,1.66-.66,2.5-.99.83-.33,1.67-.66,2.51-.99.73-.38,1.69-.82,2.53-1.22.73-.35,1.47-.7,2.22-1.05.74-.34,1.49-.69,2.24-1.03.84-.38,6.21-2.66,10.15-4.34.07.08.14.17.2.26-3.52,1.49-7.99,3.38-8.45,3.57-.8.36-1.65.75-2.44,1.12-1.58.74-3.16,1.5-4.73,2.27-.85.39-1.68.76-2.56,1.13-.69.28-1.39.56-2.09.84-.7.28-1.4.56-2.1.83-7.12,2.45-13.89,5.41-20.65,8.74-.87.36-1.7.7-2.55,1.03-.84.33-1.67.65-2.52.96-.65.26-1.3.51-1.95.77Z"/><path class="cls-16" d="M41.75,52.32c-.08.06-.15.12-.23.18-.04.03-.07.06-.11.09.18-.06.36-.13.55-.19.36-.13.73-.26,1.09-.39.08-.08.15-.16.23-.24-.51.18-1.02.36-1.52.54Z"/><path class="cls-16" d="M64.48,43.54l2.65-1.44c.58-.26,1.18-.53,1.74-.78.72-.32,2.6-1.13,4.86-2.09,2.39-1.02,5.22-2.22,7.59-3.23.17,0,.34,0,.5,0-3.31,1.4-7.11,3-7.47,3.16-1.31.59-2.62,1.18-3.94,1.76-.29.13-.59.25-.88.38-.46.2-.93.4-1.39.61-1.23.54-2.45,1.08-3.67,1.62Z"/><path class="cls-16" d="M22.68,64.91c-1.76.76-3.61,1.46-5.42,2.21h0c.02-.05.05-.11.07-.16h0c1.6-.65,3.2-1.26,4.86-1.96.84-.39,1.68-.78,2.52-1.17.73-.33,1.47-.66,2.21-.98.75-.33,1.6-.7,2.36-1.02.67-.29,1.33-.58,2-.88.67-.29,1.34-.58,2.02-.87,2.45-1.02,4.89-1.98,7.31-2.93.81-.32,1.64-.66,2.45-.99,5.99-2.61,11.64-5.36,17.78-7.6.66-.27,1.32-.54,1.98-.8,1.32-.52,2.65-1.03,3.99-1.53.82-.37,1.77-.77,2.64-1.14,1.98-.91,3.92-1.8,5.85-2.68.65-.29,1.35-.61,1.99-.9.39-.18,4.44-1.89,7.83-3.33.03.05.05.1.08.15-3.56,1.52-8.22,3.49-8.7,3.71-.67.31-1.34.61-2,.91-1.33.6-2.65,1.21-3.95,1.81-.65.29-1.29.57-1.93.85-.64.28-1.31.56-1.93.84-1.92.77-3.85,1.54-5.78,2.32-.65.26-1.3.52-1.96.78-5.39,1.85-10.49,4.5-15.75,6.7-.81.32-1.65.66-2.47.98-2.45.96-4.91,1.91-7.34,2.92-.69.29-1.38.58-2.07.87-.69.29-1.38.59-2.06.89-.68.29-1.48.65-2.18.95-.68.31-1.37.62-2.04.94-.78.36-1.57.73-2.35,1.09Z"/><path class="cls-16" d="M73.91,40.85c-.71.32-1.42.64-2.13.96.66-.3,1.31-.6,1.97-.9.72-.33,1.5-.68,2.21-1,.27-.12,4.47-1.89,7.79-3.3.02,0,.03.02.04.03-3.29,1.38-7.42,3.11-7.66,3.22-.7.32-1.5.67-2.23.99Z"/><path class="cls-16" d="M71.59,41.9s.02-.01.03-.02c.05-.02.11-.05.16-.07-.06.03-.12.06-.19.09Z"/><path class="cls-16" d="M68.8,41.2l1.13-.61c.98-.45,4.87-2.12,8.6-3.73.59-.25,1.17-.5,1.74-.75.18-.03.35-.06.52-.08-1.42.61-2.97,1.28-4.49,1.93h-.04c-3.35,1.45-6.48,2.8-7.47,3.23Z"/><path class="cls-16" d="M57.24,46.32s-.07.06-.1.09c-.04.04-.08.07-.12.11.55-.24,1.1-.48,1.65-.73,0-.04,0-.08.01-.12-.48.22-.96.44-1.44.65Z"/><path class="cls-16" d="M58.85,44.71c-.07,0-.15.01-.22.02-.24.13-.49.25-.72.38-.04.08-.08.16-.12.24.35-.18.69-.37,1.04-.56,0-.03.01-.05.02-.08Z"/><path class="cls-16" d="M75.67,43.8c.59-.26,1.18-.53,1.76-.8.76-.35,1.54-.72,2.29-1.08.2-.09,3.06-1.29,5.91-2.49.01.03.02.06.03.09-3.45,1.47-7.58,3.21-8.02,3.41-.65.3-1.3.58-1.96.87Z"/><path class="cls-16" d="M68.14,46.97c2.57-.98,5.07-2.05,7.53-3.16-2.37,1.04-4.77,2.03-7.18,2.94-.77.32-1.55.64-2.33.95-.78.31-1.57.62-2.37.92-.04.02-.08.04-.12.07.71-.25,1.39-.51,2.07-.77.81-.31,1.61-.63,2.4-.95Z"/><path class="cls-16" d="M67.51,48.8c-.46.04-.9.07-1.33.25-.82.35-1.65.7-2.48,1.05-.79.34-1.62.67-2.41,1-.61.22-1.22.45-1.83.67-.61.23-1.23.46-1.83.69-.81.34-1.63.67-2.49,1.02-7.46,3-14.9,5.42-21.99,9.14h-.02c-.29.12-.58.23-.87.33-.28.11-.56.22-.85.32,7.8-4.22,16.44-6.94,24.79-10.35.7-.28,1.43-.57,2.14-.86.73-.27,1.47-.53,2.2-.79.86-.35,1.66-.68,2.45-1.02.52-.22,1.12-.47,1.64-.7.66-.28,1.31-.56,1.96-.84.66-.28,1.36-.58,2.02-.86,3.45-1.32,6.83-2.75,10.18-4.26.68-.31,1.39-.63,2.08-.94.2-.09,2.45-1.03,4.93-2.07,0,.07,0,.14,0,.21-2.88,1.21-5.62,2.38-6.03,2.57-.83.39-1.65.78-2.48,1.16-3.3,1.53-6.59,3-9.78,4.27Z"/><path class="cls-16" d="M74.41,48.53c.22-.11.44-.23.65-.34-.25.11-.5.23-.74.35.03,0,.06,0,.09,0Z"/><path class="cls-16" d="M75.06,48.18c.29-.14.59-.27.89-.4,0,0,0,0-.01,0-.25.11-.51.23-.76.34-.04.02-.07.04-.11.06Z"/><path class="cls-16" d="M44.9,56.06c1.45-.55,2.91-1.16,4.37-1.79-1.17.48-2.34.96-3.51,1.45-.29.12-.57.23-.86.34Z"/><path class="cls-16" d="M71.81,44.95c-.75.32-1.5.63-2.26.94-.75.32-1.5.63-2.25.94-.76.31-1.58.62-2.34.92-1.43.5-2.84,1.06-4.25,1.67-.7.3-1.41.61-2.11.92-3.11,1.4-6.23,2.67-9.33,3.93,3.12-1.35,6.24-2.81,9.34-4.09.7-.3,1.4-.6,2.11-.9,1.4-.58,2.82-1.14,4.27-1.63.91-.36,1.82-.72,2.7-1.09s1.76-.74,2.63-1.12c.73-.32,1.46-.64,2.19-.95,1.18-.5,2.38-1.03,3.58-1.57.6-.27,1.2-.55,1.8-.82.4-.18,4.22-1.8,7.56-3.22.01.02.02.05.03.08-3.2,1.36-6.71,2.85-7.06,3.01-.71.32-1.47.67-2.2,1.01-.73.34-1.46.68-2.18,1.02-.74.33-1.48.66-2.23.98Z"/><path class="cls-16" d="M41.7,57.27c-2.58.97-5.16,1.96-7.74,3.06-.66.29-1.34.59-2,.89-.66.3-1.32.61-1.97.93-.76.34-1.44.64-2.12.95-.67.3-1.34.61-2,.92-.7.31-1.47.65-2.18.95-.66.27-1.31.54-1.96.81-1.17.55-2.32,1.16-3.51,1.66-.43.17-.86.34-1.29.51-.01.03-.02.07-.04.1.9-.37,1.81-.75,2.71-1.12,1.05-.37,1.81-.95,2.85-1.32.66-.27,1.33-.53,1.99-.8.72-.32,1.44-.64,2.17-.96.72-.32,1.44-.63,2.16-.95.68-.33,1.37-.65,2.06-.97.69-.32,1.38-.64,2.07-.95,3.56-1.59,7.13-3.01,10.71-4.41.43-.17.86-.34,1.3-.51-.21.08-.42.16-.62.24-.86.32-1.71.65-2.57.97Z"/><path class="cls-16" d="M32.81,61.31c-.7.35-1.4.7-2.08,1.06-.72.33-1.37.63-2.01.93-.63.29-1.26.58-1.9.88-.68.29-1.32.56-1.96.82-.64.26-1.28.53-1.92.79-1.9.73-3.49,1.72-5.38,2.45-.28.11-.57.22-.85.33,0,.01,0,.02-.01.03h0c1.04-.41,2.07-.82,3.1-1.23,1.56-.59,2.98-1.5,4.53-2.09.57-.23,1.18-.49,1.71-.7.65-.29,1.29-.58,1.94-.86.65-.29,1.36-.61,2-.89.72-.37,1.44-.73,2.17-1.08,1.6-.75,3.23-1.46,4.86-2.15-1.47.64-2.91,1.32-4.33,2.04-.7.36-1.4.72-2.09,1.1-.63.3-1.29.62-1.9.92-.61.29-1.21.59-1.82.88-.61.25-1.4.6-2.09.89-2.47,1.03-4.96,2.06-7.46,3.07.82-.3,2.46-.9,4.57-1.68.25-.13.49-.26.72-.35.74-.3,1.47-.6,2.21-.91.73-.3,1.56-.66,2.29-.97.5-.23,1-.47,1.49-.7.5-.23,1-.46,1.49-.69.81-.43,1.62-.84,2.44-1.24,7.45-3.74,15.34-5.94,22.96-9.31.53-.22,1.07-.45,1.6-.67,1.59-.66,3.19-1.3,4.77-1.9.61-.29,1.3-.61,1.93-.92.61-.31,1.22-.63,1.83-.96,0,0,.02,0,.03-.02-.72.31-1.45.62-2.17.92-1.21.49-2.41.97-3.6,1.46,1.3-.54,2.57-1.15,3.8-1.86-.14.05-.27.1-.41.14-2.05,1.06-4.21,1.98-6.4,2.87-.14.06-.29.11-.43.17-.52.19-1.04.38-1.55.56-2.98,1.23-5.9,2.39-8.93,3.48-.74.28-1.49.56-2.23.85-3.71,1.41-7.37,2.86-10.9,4.55Z"/><path class="cls-16" d="M65.65,48.16c.14-.06.28-.12.42-.18-.14.04-.28.1-.42.18Z"/><path class="cls-16" d="M66.07,47.99l.05-.02c.79-.34,1.58-.68,2.37-1.02.79-.34,1.59-.69,2.43-1.04,2.39-.94,4.76-1.94,7.12-2.98.45-.2,4.28-1.82,7.66-3.26.03.11.05.22.06.33-3.09,1.31-6.36,2.68-6.68,2.83-.61.28-1.22.54-1.83.81-3.06,1.34-6.17,2.62-9.26,3.96-.68.33-1.27.21-1.91.4Z"/><path class="cls-16" d="M37.6,56.62c-1.62.66-3.28,1.29-4.93,1.9,1.89-.68,3.78-1.35,5.67-2.13.6-.25,1.2-.51,1.84-.8.86-.47,1.73-.93,2.61-1.38-1.19.57-2.37,1.14-3.55,1.72-.47.2-1.08.47-1.64.69Z"/><path class="cls-16" d="M79.74,45.69c-.3.09-.6.18-.91.28.16-.07.32-.14.49-.21.7-.3,1.41-.61,2.18-.95.24-.11,1.36-.6,2.86-1.23-.1.09-.2.17-.3.25-1.1.46-1.88.79-2.06.87-.79.35-1.54.68-2.26,1Z"/><path class="cls-16" d="M51.82,57.18s.04,0,.07,0c.13-.01.25-.02.37-.03.26-.09.52-.18.78-.27.06-.07.12-.14.18-.21-.47.17-.94.34-1.41.51Z"/><path class="cls-16" d="M59.1,53.62c-.36.13-.72.26-1.07.38.09.03.18.06.26.09.13-.04.26-.08.4-.12.48-.15.96-.32,1.44-.49l-.21-.15c-.27.1-.53.2-.8.29Z"/><path class="cls-16" d="M71.47,48.57c-.11,0-.21,0-.31-.01,0,0-.01,0-.03,0l.18-.09c.8-.33,1.64-.7,2.44-1.05,1.4-.59,2.79-1.19,4.18-1.8.69-.3,1.44-.64,2.07-.92.7-.31,1.4-.61,2.1-.93.16-.07,1.49-.63,3.2-1.35-.06.1-.12.2-.19.3-2.14.9-3.91,1.65-4.16,1.76-.69.3-1.34.59-1.98.87-1.28.56-2.56,1.1-3.85,1.64-.4.17-.8.33-1.2.5-.1.03-.2.06-.3.1.02,0,.04,0,.06,0h0s-.75.32-.75.32c-.49.22-.98.45-1.46.67Z"/><path class="cls-16" d="M48.65,57.33c.11,0,.23,0,.34,0,.08,0,.16,0,.24,0,.7-.28,1.39-.55,2.09-.81-.12,0-.24-.02-.36-.03-.77.28-1.54.56-2.31.85Z"/><path class="cls-16" d="M82.5,44.86h-.01s-.04.02-.05.02c.25-.11.49-.22.74-.33-.23.11-.46.21-.68.31Z"/><path class="cls-16" d="M75.09,47.72c-.1,0-.19-.02-.29-.03-.66.29-1.32.57-2.02.89.15,0,.29,0,.44,0,.04,0,.07,0,.11,0,.36-.18.72-.37,1.08-.56.23-.1.46-.2.68-.3Z"/><path class="cls-16" d="M59.88,54.35c-.19.06-.38.13-.57.19.12.06.23.12.32.17.14-.04.28-.09.42-.13.35-.12.71-.26,1.06-.39l-.27-.19c-.32.12-.64.24-.97.35Z"/><path class="cls-16" d="M76.89,47.95s.05-.07.07-.1c-.03,0-.07,0-.1,0-.45.21-.92.42-1.35.62.12,0,.25-.02.37-.03.34-.16.68-.32,1.02-.49Z"/><path class="cls-16" d="M83.25,44.51s.16-.07.36-.15c-.2.09-.32.14-.36.15Z"/><path class="cls-16" d="M69.69,48.35c.33-.17.62-.36.9-.56-1.05.42-2.09.84-3.14,1.25-.25.11-.51.22-.76.33,1.09-.41,2.02-.55,3.01-1.02Z"/><path class="cls-16" d="M58.65,45.95c-.66.3-1.33.6-2,.89-.16.14-.33.28-.49.41.82-.34,1.64-.7,2.46-1.06,0-.08.02-.16.03-.24Z"/><path class="cls-16" d="M41.72,53.4c-.78.33-1.56.66-2.34.99-.07.03-.14.06-.22.09-.14.13-.27.25-.4.37-.07.06-.13.12-.19.18.94-.45,1.89-.89,2.85-1.32.1-.11.19-.22.29-.32Z"/><path class="cls-16" d="M70.59,47.79c.42-.29.82-.59,1.35-.77,2.19-.87,4.36-1.79,6.5-2.75.73-.33,1.49-.67,2.22-1,.3-.12,2.57-1.07,5.1-2.13,0,.08-.02.15-.04.23-2.63,1.11-5.01,2.11-5.38,2.26-.62.29-1.46.65-2.18.97-2.52,1.11-5.04,2.16-7.57,3.19Z"/><path class="cls-16" d="M40.67,53.19c-.09.08-.19.15-.28.23-.05.05-.11.09-.16.14.73-.31,1.47-.61,2.2-.91.09-.09.17-.18.26-.27-.68.27-1.35.54-2.03.81Z"/><path class="cls-16" d="M60.66,45.61l1.06-.57c.15-.07.29-.13.44-.19.75-.33,1.5-.66,2.25-1l.06-.02c.73-.33,1.46-.66,2.18-.99.88-.39,1.67-.74,2.47-1.09,1.59-.7,3.17-1.4,4.73-2.11.48-.22,4.91-2.08,8.46-3.58.11.02.22.04.32.07-3.58,1.51-8.12,3.42-8.6,3.63-1.57.69-3.14,1.38-4.7,2.06-.78.34-1.62.71-2.44,1.07-.78.36-1.56.71-2.34,1.05-.78.35-1.56.69-2.35,1.02l-.14.06c-.46.2-.93.4-1.39.59Z"/><path class="cls-16" d="M55.5,47.76c1.03-.42,2.06-.85,3.09-1.28,0-.03,0-.07.01-.1-.96.41-1.92.81-2.88,1.21-.07.06-.15.11-.22.16Z"/><path class="cls-16" d="M64.4,50.18c-.82.33-1.64.66-2.46.99-.84.33-1.68.67-2.58,1.02-.59.22-1.18.43-1.76.66-.6.22-1.18.45-1.78.68-6.49,2.66-13.27,5.02-19.66,7.98.47-.18.93-.35,1.38-.52,5.11-2.36,10.43-4.28,15.64-6.26.85-.34,1.41-.56,1.77-.72.2-.09.41-.15.62-.2.49-.19.97-.38,1.46-.57.56-.22,1.13-.43,1.69-.64.65-.23,1.31-.46,1.95-.69,1.65-.59,2.99-1.22,4.56-1.9.48-.21.97-.41,1.45-.62-.02,0-.04.01-.06.02-.74.25-1.49.51-2.23.79Z"/><path class="cls-14" d="M82.44,104.93c.25-.11.49-.22.74-.33-.23.11-.46.21-.68.31h-.01s-.04.02-.05.02Z"/><path class="cls-15" d="M70.78,108.58c-3.1,1.1-11.88,4.08-11.88,4.08l2.28,1.63-1.11.75s-2.84-1.98-5.11-.99c-.75.33-2.29.9-5.64,2.32.06,0,.12.02.19.02.15.01.31.03.47.05.31.03.64.06.96.09.32.03.64.05.96.07.32.02.63.04.93.06.15,0,.29.01.43.02-.14.15-.27.3-.41.46,0,0-.01,0-.02,0-.3.02-.62.05-.94.08-.32.02-.65.05-.97.07-.33.02-.65.04-.98.05-.16,0-.32.01-.48.02-.16,0-.32,0-.47.01-.31,0-.61.01-.89.01-.29,0-.55,0-.81-.02-.11,0-.21,0-.31,0-2.17.92-7.92,3.1-13.83,5.31h-.02c-.29.12-.58.23-.87.33-.28.11-.56.22-.85.32h0c-7.48,2.79-14.67,5.42-14.67,5.42l-.04-.09c.19-.49.36-1,.57-1.48,0-.03.02-.05.03-.08,0-.03.02-.05.03-.08h0s0-.03.02-.04c.19-.41.53-.72.85-1.04.12-.11.23-.24.34-.36.04-.04.08-.09.11-.13.05-.06.1-.13.14-.19.1-.17.17-.34.23-.5.03-.07.06-.15.08-.23,1-.45,2.18-.97,3.45-1.54.21-.09.43-.19.65-.29.04-.02.09-.04.14-.06,4.56-2.04,10.21-4.59,14.3-6.49.05-.06.14-.17.28-.33.1-.12.22-.25.37-.4.07-.08.15-.16.23-.24.08-.08.17-.16.26-.25.18-.17.38-.36.59-.55.21-.19.44-.39.67-.59.12-.1.24-.2.36-.31.12-.1.25-.2.37-.3.25-.21.5-.41.76-.61.25-.2.51-.4.77-.6.22-.17.43-.33.65-.49.22,0,.45.02.67.03-.08.08-.16.17-.25.25-.21.22-.43.44-.65.67-.22.23-.45.46-.66.7-.22.24-.44.47-.66.71-.1.12-.21.23-.31.35-.1.12-.2.23-.3.34-.08.09-.15.17-.22.26,7.82-3.66,12.43-4.47,16.59-8.32.07-.06.13-.11.2-.17.02-.04.05-.09.07-.13.11-.2.21-.4.31-.61.11-.21.21-.43.32-.64,0-.01.02-.03.02-.05.26-.04.53-.07.79-.09-.03.14-.06.27-.1.41-.03.13-.17,1.51-.21,1.64l3.51-1.74,2.41-1.19,5.08-2.52,4.2-2.08,2.53-1.25h.04s2.22-1.12,2.22-1.12l1.34-.66c.14-.03.27-.06.4-.08.18-.03.35-.06.52-.08.18-.02.36-.04.54-.04.17,0,.34,0,.5,0,.16,0,.32.02.47.05.11.02.22.04.32.07.4.1.78.26,1.12.49.02,0,.03.02.04.03.15.1.29.21.43.34.05.05.11.1.16.16.07.07.14.15.2.22.07.08.14.17.2.26.13.17.25.37.36.58.03.05.05.1.08.15.06.11.12.24.17.37.02.05.04.1.06.16.01.02.02.05.03.08.06.16.11.32.16.48.01.03.02.06.03.09.02.05.03.1.04.15.03.11.05.22.06.33.03.2.05.4.05.59,0,.07,0,.14,0,.21,0,.12-.01.23-.03.35,0,.08-.02.15-.04.23-.08.37-.22.72-.41,1.05-.06.1-.12.2-.19.3-.21.31-.47.59-.77.86-.1.09-.2.17-.3.25-.51.41-1.12.78-1.8,1.11-.73.22-1.59.48-2.51.76-.3.09-.6.18-.91.28h0c-1.65.5-3.41,1.04-4.88,1.51-.1.03-.2.06-.3.1.02,0,.04,0,.05,0,.01,0,.03,0,.04,0,.15.01.31.03.47.05.31.03.64.06.96.09.32.03.65.05.96.07.29.02.57.04.85.06-.13.18-.26.35-.39.53-.15.01-.3.03-.45.04-.32.02-.64.05-.97.07-.33.02-.66.04-.98.05-.16,0-.32.01-.48.02-.16,0-.31,0-.47.01-.31,0-.61.01-.89.01-.28,0-.55,0-.8-.01-.02,0-.03,0-.05,0-.11,0-.21,0-.31-.01,0,0-.01,0-.03,0h0c-.11,0-.2-.01-.3-.02-.02,0-.03,0-.05,0Z"/><path class="cls-16" d="M30.63,119.34c.67-.25,1.35-.51,2.04-.76-.59.21-1.18.43-1.77.64-.09.04-.17.08-.26.12Z"/><path class="cls-16" d="M64.61,105.01c-.79.33-1.58.65-2.38.98-6.64,2.48-13.25,5.11-19.44,8.28,6.16-2.94,12.42-5.73,19.04-8.08.81-.33,1.69-.69,2.5-1.03,1.73-.66,3.24-1.36,4.85-2.11.8-.37,1.6-.73,2.4-1.1-.75.34-1.5.67-2.25,1.01-1.57.71-3.14,1.39-4.73,2.05Z"/><path class="cls-16" d="M36.53,117.77c-3.24,1.32-6.49,2.56-9.77,3.72-.83.35-1.78.74-2.62,1.1-1.71.72-3.42,1.44-5.13,2.16.03-.07.06-.15.08-.23,1-.45,2.18-.97,3.45-1.54.18-.08.37-.17.56-.25l.09-.04s.09-.04.14-.06c.64-.28,1.27-.56,1.91-.83.72-.29,1.44-.58,2.17-.87.74-.29,1.49-.58,2.32-.9,2.07-.69,4.12-1.43,6.16-2.21.68-.26,1.35-.53,2.03-.79.72-.28,1.53-.61,2.27-.91,6.91-3.35,13.75-6.6,21.31-9.22.83-.34,1.74-.71,2.57-1.05,1.65-.69,3.3-1.38,4.93-2.1.84-.4,1.68-.79,2.52-1.18.63-.29,1.27-.59,1.9-.88.64-.29,1.27-.58,1.91-.87.5-.23,5.28-2.25,8.89-3.78.05.05.11.1.16.16-3.5,1.48-8.04,3.4-8.45,3.6-.75.34-1.56.71-2.31,1.06-1.51.69-3.01,1.39-4.52,2.09-.87.4-1.77.82-2.73,1.25-.76.26-1.5.53-2.25.81-.75.28-1.49.55-2.22.84-6.87,2.42-13.28,5.29-19.91,8.58-1.15.61-2.36,1.05-3.52,1.56-.65.27-1.29.53-1.95.79Z"/><path class="cls-16" d="M34.76,118.94c-1.94.77-3.89,1.54-5.84,2.32-.75.31-1.64.69-2.39,1.01-.72.32-1.4.62-2.09.93-2.07.93-4.16,1.84-6.25,2.73.12-.11.23-.24.34-.36.04-.04.07-.09.1-.13h0c2-.86,4.01-1.74,6.01-2.63.75-.33,1.51-.66,2.3-1.01,2.12-.78,4.23-1.58,6.34-2.41.7-.28,1.4-.55,2.1-.83.63-.26,1.26-.51,1.9-.77s1.27-.51,1.9-.78c4.15-1.71,7.76-3.61,11.78-5.49,3.85-1.81,7.76-2.99,11.47-4.49.83-.33,1.66-.66,2.5-.99.83-.33,1.67-.66,2.51-.99.73-.38,1.69-.82,2.53-1.22.73-.35,1.47-.7,2.22-1.05.74-.34,1.49-.69,2.24-1.03.84-.38,6.21-2.66,10.15-4.34.07.08.14.17.2.26-3.52,1.49-7.99,3.38-8.45,3.57-.8.36-1.65.75-2.44,1.12-1.58.74-3.16,1.5-4.73,2.27-.85.39-1.68.76-2.56,1.13-.69.28-1.39.56-2.09.84-.7.28-1.4.56-2.1.83-7.12,2.45-13.89,5.41-20.65,8.74-.87.36-1.7.7-2.55,1.03-.84.33-1.67.65-2.52.96-.65.26-1.3.51-1.95.77Z"/><path class="cls-16" d="M41.75,112.37c-.08.06-.15.12-.23.18-.04.03-.07.06-.11.09.18-.06.36-.13.55-.19.36-.13.73-.26,1.09-.39.08-.08.15-.16.23-.24-.51.18-1.02.36-1.52.54Z"/><path class="cls-16" d="M64.48,103.59l2.65-1.44c.58-.26,1.18-.53,1.74-.78.72-.32,2.6-1.13,4.86-2.09,2.39-1.02,5.22-2.22,7.59-3.23.17,0,.34,0,.5,0-3.31,1.4-7.11,3-7.47,3.16-1.31.59-2.62,1.18-3.94,1.76-.29.13-.59.25-.88.38-.46.2-.93.4-1.39.61-1.23.54-2.45,1.08-3.67,1.62Z"/><path class="cls-16" d="M22.68,124.96c-1.76.76-3.61,1.46-5.42,2.21h0c.02-.05.05-.11.07-.16h0c1.6-.65,3.2-1.26,4.86-1.96.84-.39,1.68-.78,2.52-1.17.73-.33,1.47-.66,2.21-.98.75-.33,1.6-.7,2.36-1.02.67-.29,1.33-.58,2-.88.67-.29,1.34-.58,2.02-.87,2.45-1.02,4.89-1.98,7.31-2.93.81-.32,1.64-.66,2.45-.99,5.99-2.61,11.64-5.36,17.78-7.6.66-.27,1.32-.54,1.98-.8,1.32-.52,2.65-1.03,3.99-1.53.82-.37,1.77-.77,2.64-1.14,1.98-.91,3.92-1.8,5.85-2.68.65-.29,1.35-.61,1.99-.9.39-.18,4.44-1.89,7.83-3.33.03.05.05.1.08.15-3.56,1.52-8.22,3.49-8.7,3.71-.67.31-1.34.61-2,.91-1.33.6-2.65,1.21-3.95,1.81-.65.29-1.29.57-1.93.85-.64.28-1.31.56-1.93.84-1.92.77-3.85,1.54-5.78,2.32-.65.26-1.3.52-1.96.78-5.39,1.85-10.49,4.5-15.75,6.7-.81.32-1.65.66-2.47.98-2.45.96-4.91,1.91-7.34,2.92-.69.29-1.38.58-2.07.87-.69.29-1.38.59-2.06.89-.68.29-1.48.65-2.18.95-.68.31-1.37.62-2.04.94-.78.36-1.57.73-2.35,1.09Z"/><path class="cls-16" d="M73.91,100.9c-.71.32-1.42.64-2.13.96.66-.3,1.31-.6,1.97-.9.72-.33,1.5-.68,2.21-1,.27-.12,4.47-1.89,7.79-3.3.02,0,.03.02.04.03-3.29,1.38-7.42,3.11-7.66,3.22-.7.32-1.5.67-2.23.99Z"/><path class="cls-16" d="M71.59,101.95s.02-.01.03-.02c.05-.02.11-.05.16-.07-.06.03-.12.06-.19.09Z"/><path class="cls-16" d="M68.8,101.25l1.13-.61c.98-.45,4.87-2.12,8.6-3.73.59-.25,1.17-.5,1.74-.75.18-.03.35-.06.52-.08-1.42.61-2.97,1.28-4.49,1.93h-.04c-3.35,1.45-6.48,2.8-7.47,3.23Z"/><path class="cls-16" d="M57.24,106.37s-.07.06-.1.09c-.04.04-.08.07-.12.11.55-.24,1.1-.48,1.65-.73,0-.04,0-.08.01-.12-.48.22-.96.44-1.44.65Z"/><path class="cls-16" d="M58.85,104.76c-.07,0-.15.01-.22.02-.24.13-.49.25-.72.38-.04.08-.08.16-.12.24.35-.18.69-.37,1.04-.56,0-.03.01-.05.02-.08Z"/><path class="cls-16" d="M75.67,103.85c.59-.26,1.18-.53,1.76-.8.76-.35,1.54-.72,2.29-1.08.2-.09,3.06-1.29,5.91-2.49.01.03.02.06.03.09-3.45,1.47-7.58,3.21-8.02,3.41-.65.3-1.3.58-1.96.87Z"/><path class="cls-16" d="M68.14,107.02c2.57-.98,5.07-2.05,7.53-3.16-2.37,1.04-4.77,2.03-7.18,2.94-.77.32-1.55.64-2.33.95-.78.31-1.57.62-2.37.92-.04.02-.08.04-.12.07.71-.25,1.39-.51,2.07-.77.81-.31,1.61-.63,2.4-.95Z"/><path class="cls-16" d="M67.51,108.85c-.46.04-.9.07-1.33.25-.82.35-1.65.7-2.48,1.05-.79.34-1.62.67-2.41,1-.61.22-1.22.45-1.83.67-.61.23-1.23.46-1.83.69-.81.34-1.63.67-2.49,1.02-7.46,3-14.9,5.42-21.99,9.14h-.02c-.29.12-.58.23-.87.33-.28.11-.56.22-.85.32,7.8-4.22,16.44-6.94,24.79-10.35.7-.28,1.43-.57,2.14-.86.73-.27,1.47-.53,2.2-.79.86-.35,1.66-.68,2.45-1.02.52-.22,1.12-.47,1.64-.7.66-.28,1.31-.56,1.96-.84.66-.28,1.36-.58,2.02-.86,3.45-1.32,6.83-2.75,10.18-4.26.68-.31,1.39-.63,2.08-.94.2-.09,2.45-1.03,4.93-2.07,0,.07,0,.14,0,.21-2.88,1.21-5.62,2.38-6.03,2.57-.83.39-1.65.78-2.48,1.16-3.3,1.53-6.59,3-9.78,4.27Z"/><path class="cls-16" d="M74.41,108.58c.22-.11.44-.23.65-.34-.25.11-.5.23-.74.35.03,0,.06,0,.09,0Z"/><path class="cls-16" d="M75.06,108.23c.29-.14.59-.27.89-.4,0,0,0,0-.01,0-.25.11-.51.23-.76.34-.04.02-.07.04-.11.06Z"/><path class="cls-16" d="M44.9,116.11c1.45-.55,2.91-1.16,4.37-1.79-1.17.48-2.34.96-3.51,1.45-.29.12-.57.23-.86.34Z"/><path class="cls-16" d="M71.81,105.01c-.75.32-1.5.63-2.26.94-.75.32-1.5.63-2.25.94-.76.31-1.58.62-2.34.92-1.43.5-2.84,1.06-4.25,1.67-.7.3-1.41.61-2.11.92-3.11,1.4-6.23,2.67-9.33,3.93,3.12-1.35,6.24-2.81,9.34-4.09.7-.3,1.4-.6,2.11-.9,1.4-.58,2.82-1.14,4.27-1.63.91-.36,1.82-.72,2.7-1.09s1.76-.74,2.63-1.12c.73-.32,1.46-.64,2.19-.95,1.18-.5,2.38-1.03,3.58-1.57.6-.27,1.2-.55,1.8-.82.4-.18,4.22-1.8,7.56-3.22.01.02.02.05.03.08-3.2,1.36-6.71,2.85-7.06,3.01-.71.32-1.47.67-2.2,1.01-.73.34-1.46.68-2.18,1.02-.74.33-1.48.66-2.23.98Z"/><path class="cls-16" d="M41.7,117.32c-2.58.97-5.16,1.96-7.74,3.06-.66.29-1.34.59-2,.89-.66.3-1.32.61-1.97.93-.76.34-1.44.64-2.12.95-.67.3-1.34.61-2,.92-.7.31-1.47.65-2.18.95-.66.27-1.31.54-1.96.81-1.17.55-2.32,1.16-3.51,1.66-.43.17-.86.34-1.29.51-.01.03-.02.07-.04.1.9-.37,1.81-.75,2.71-1.12,1.05-.37,1.81-.95,2.85-1.32.66-.27,1.33-.53,1.99-.8.72-.32,1.44-.64,2.17-.96.72-.32,1.44-.63,2.16-.95.68-.33,1.37-.65,2.06-.97.69-.32,1.38-.64,2.07-.95,3.56-1.59,7.13-3.01,10.71-4.41.43-.17.86-.34,1.3-.51-.21.08-.42.16-.62.24-.86.32-1.71.65-2.57.97Z"/><path class="cls-16" d="M32.81,121.36c-.7.35-1.4.7-2.08,1.06-.72.33-1.37.63-2.01.93-.63.29-1.26.58-1.9.88-.68.29-1.32.56-1.96.82-.64.26-1.28.53-1.92.79-1.9.73-3.49,1.72-5.38,2.45-.28.11-.57.22-.85.33,0,.01,0,.02-.01.03h0c1.04-.41,2.07-.82,3.1-1.23,1.56-.59,2.98-1.5,4.53-2.09.57-.23,1.18-.49,1.71-.7.65-.29,1.29-.58,1.94-.86.65-.29,1.36-.61,2-.89.72-.37,1.44-.73,2.17-1.08,1.6-.75,3.23-1.46,4.86-2.15-1.47.64-2.91,1.32-4.33,2.04-.7.36-1.4.72-2.09,1.1-.63.3-1.29.62-1.9.92-.61.29-1.21.59-1.82.88-.61.25-1.4.6-2.09.89-2.47,1.03-4.96,2.06-7.46,3.07.82-.3,2.46-.9,4.57-1.68.25-.13.49-.26.72-.35.74-.3,1.47-.6,2.21-.91.73-.3,1.56-.66,2.29-.97.5-.23,1-.47,1.49-.7.5-.23,1-.46,1.49-.69.81-.43,1.62-.84,2.44-1.24,7.45-3.74,15.34-5.94,22.96-9.31.53-.22,1.07-.45,1.6-.67,1.59-.66,3.19-1.3,4.77-1.9.61-.29,1.3-.61,1.93-.92.61-.31,1.22-.63,1.83-.96,0,0,.02,0,.03-.02-.72.31-1.45.62-2.17.92-1.21.49-2.41.97-3.6,1.46,1.3-.54,2.57-1.15,3.8-1.86-.14.05-.27.1-.41.14-2.05,1.06-4.21,1.98-6.4,2.87-.14.06-.29.11-.43.17-.52.19-1.04.38-1.55.56-2.98,1.23-5.9,2.39-8.93,3.48-.74.28-1.49.56-2.23.85-3.71,1.41-7.37,2.86-10.9,4.55Z"/><path class="cls-16" d="M65.65,108.22c.14-.06.28-.12.42-.18-.14.04-.28.1-.42.18Z"/><path class="cls-16" d="M66.07,108.04l.05-.02c.79-.34,1.58-.68,2.37-1.02.79-.34,1.59-.69,2.43-1.04,2.39-.94,4.76-1.94,7.12-2.98.45-.2,4.28-1.82,7.66-3.26.03.11.05.22.06.33-3.09,1.31-6.36,2.68-6.68,2.83-.61.28-1.22.54-1.83.81-3.06,1.34-6.17,2.62-9.26,3.96-.68.33-1.27.21-1.91.4Z"/><path class="cls-16" d="M37.6,116.67c-1.62.66-3.28,1.29-4.93,1.9,1.89-.68,3.78-1.35,5.67-2.13.6-.25,1.2-.51,1.84-.8.86-.47,1.73-.93,2.61-1.38-1.19.57-2.37,1.14-3.55,1.72-.47.2-1.08.47-1.64.69Z"/><path class="cls-16" d="M79.74,105.74c-.3.09-.6.18-.91.28.16-.07.32-.14.49-.21.7-.3,1.41-.61,2.18-.95.24-.11,1.36-.6,2.86-1.23-.1.09-.2.17-.3.25-1.1.46-1.88.79-2.06.87-.79.35-1.54.68-2.26,1Z"/><path class="cls-16" d="M51.82,117.23s.04,0,.07,0c.13-.01.25-.02.37-.03.26-.09.52-.18.78-.27.06-.07.12-.14.18-.21-.47.17-.94.34-1.41.51Z"/><path class="cls-16" d="M59.1,113.67c-.36.13-.72.26-1.07.38.09.03.18.06.26.09.13-.04.26-.08.4-.12.48-.15.96-.32,1.44-.49l-.21-.15c-.27.1-.53.2-.8.29Z"/><path class="cls-16" d="M71.47,108.62c-.11,0-.21,0-.31-.01,0,0-.01,0-.03,0l.18-.09c.8-.33,1.64-.7,2.44-1.05,1.4-.59,2.79-1.19,4.18-1.8.69-.3,1.44-.64,2.07-.92.7-.31,1.4-.61,2.1-.93.16-.07,1.49-.63,3.2-1.35-.06.1-.12.2-.19.3-2.14.9-3.91,1.65-4.16,1.76-.69.3-1.34.59-1.98.87-1.28.56-2.56,1.1-3.85,1.64-.4.17-.8.33-1.2.5-.1.03-.2.06-.3.1.02,0,.04,0,.06,0h0s-.75.32-.75.32c-.49.22-.98.45-1.46.67Z"/><path class="cls-16" d="M48.65,117.38c.11,0,.23,0,.34,0,.08,0,.16,0,.24,0,.7-.28,1.39-.55,2.09-.81-.12,0-.24-.02-.36-.03-.77.28-1.54.56-2.31.85Z"/><path class="cls-16" d="M82.5,104.91h-.01s-.04.02-.05.02c.25-.11.49-.22.74-.33-.23.11-.46.21-.68.31Z"/><path class="cls-16" d="M75.09,107.77c-.1,0-.19-.02-.29-.03-.66.29-1.32.57-2.02.89.15,0,.29,0,.44,0,.04,0,.07,0,.11,0,.36-.18.72-.37,1.08-.56.23-.1.46-.2.68-.3Z"/><path class="cls-16" d="M59.88,114.41c-.19.06-.38.13-.57.19.12.06.23.12.32.17.14-.04.28-.09.42-.13.35-.12.71-.26,1.06-.39l-.27-.19c-.32.12-.64.24-.97.35Z"/><path class="cls-16" d="M76.89,108s.05-.07.07-.1c-.03,0-.07,0-.1,0-.45.21-.92.42-1.35.62.12,0,.25-.02.37-.03.34-.16.68-.32,1.02-.49Z"/><path class="cls-16" d="M83.25,104.57s.16-.07.36-.15c-.2.09-.32.14-.36.15Z"/><path class="cls-16" d="M69.69,108.4c.33-.17.62-.36.9-.56-1.05.42-2.09.84-3.14,1.25-.25.11-.51.22-.76.33,1.09-.41,2.02-.55,3.01-1.02Z"/><path class="cls-16" d="M58.65,106c-.66.3-1.33.6-2,.89-.16.14-.33.28-.49.41.82-.34,1.64-.7,2.46-1.06,0-.08.02-.16.03-.24Z"/><path class="cls-16" d="M41.72,113.45c-.78.33-1.56.66-2.34.99-.07.03-.14.06-.22.09-.14.13-.27.25-.4.37-.07.06-.13.12-.19.18.94-.45,1.89-.89,2.85-1.32.1-.11.19-.22.29-.32Z"/><path class="cls-16" d="M70.59,107.84c.42-.29.82-.59,1.35-.77,2.19-.87,4.36-1.79,6.5-2.75.73-.33,1.49-.67,2.22-1,.3-.12,2.57-1.07,5.1-2.13,0,.08-.02.15-.04.23-2.63,1.11-5.01,2.11-5.38,2.26-.62.29-1.46.65-2.18.97-2.52,1.11-5.04,2.16-7.57,3.19Z"/><path class="cls-16" d="M40.67,113.24c-.09.08-.19.15-.28.23-.05.05-.11.09-.16.14.73-.31,1.47-.61,2.2-.91.09-.09.17-.18.26-.27-.68.27-1.35.54-2.03.81Z"/><path class="cls-16" d="M60.66,105.66l1.06-.57c.15-.07.29-.13.44-.19.75-.33,1.5-.66,2.25-1l.06-.02c.73-.33,1.46-.66,2.18-.99.88-.39,1.67-.74,2.47-1.09,1.59-.7,3.17-1.4,4.73-2.11.48-.22,4.91-2.08,8.46-3.58.11.02.22.04.32.07-3.58,1.51-8.12,3.42-8.6,3.63-1.57.69-3.14,1.38-4.7,2.06-.78.34-1.62.71-2.44,1.07-.78.36-1.56.71-2.34,1.05-.78.35-1.56.69-2.35,1.02l-.14.06c-.46.2-.93.4-1.39.59Z"/><path class="cls-16" d="M55.5,107.81c1.03-.42,2.06-.85,3.09-1.28,0-.03,0-.07.01-.1-.96.41-1.92.81-2.88,1.21-.07.06-.15.11-.22.16Z"/><path class="cls-16" d="M64.4,110.23c-.82.33-1.64.66-2.46.99-.84.33-1.68.67-2.58,1.02-.59.22-1.18.43-1.76.66-.6.22-1.18.45-1.78.68-6.49,2.66-13.27,5.02-19.66,7.98.47-.18.93-.35,1.38-.52,5.11-2.36,10.43-4.28,15.64-6.26.85-.34,1.41-.56,1.77-.72.2-.09.41-.15.62-.2.49-.19.97-.38,1.46-.57.56-.22,1.13-.43,1.69-.64.65-.23,1.31-.46,1.95-.69,1.65-.59,2.99-1.22,4.56-1.9.48-.21.97-.41,1.45-.62-.02,0-.04.01-.06.02-.74.25-1.49.51-2.23.79Z"/></g></svg>