<?xml version="1.0" encoding="UTF-8"?><svg xmlns="http://www.w3.org/2000/svg" xmlns:xlink="http://www.w3.org/1999/xlink" viewBox="0 0 102.24 150.24"><defs><style>.cls-1{fill:none;stroke:#1e1e1c;stroke-miterlimit:10;stroke-width:.25px;}.cls-2{fill:url(#linear-gradient-8);}.cls-3{fill:url(#linear-gradient-7);}.cls-4{fill:url(#linear-gradient-5);}.cls-5{fill:url(#linear-gradient-6);}.cls-6{fill:url(#linear-gradient-9);}.cls-7{fill:url(#linear-gradient-4);}.cls-8{fill:url(#linear-gradient-3);}.cls-9{fill:url(#linear-gradient-2);}.cls-10{fill:url(#linear-gradient);}.cls-11{fill:#356d55;}.cls-12{fill:#a9401a;}.cls-13{fill:url(#linear-gradient-10);}.cls-14{fill:url(#linear-gradient-11);}.cls-15{fill:url(#linear-gradient-12);}.cls-16{fill:url(#linear-gradient-13);}.cls-17{fill:url(#linear-gradient-14);}.cls-18{fill:url(#linear-gradient-15);}.cls-19{fill:url(#linear-gradient-16);}</style><linearGradient id="linear-gradient" x1="832.77" y1="30.84" x2="833.13" y2="31.42" gradientTransform="translate(855.37 0) rotate(-180) scale(1 -1)" gradientUnits="userSpaceOnUse"><stop offset="0" stop-color="#658e4c"/><stop offset="1" stop-color="#a0b37a"/></linearGradient><linearGradient id="linear-gradient-2" x1="810.94" y1="22.07" x2="844.87" y2="75.11" xlink:href="#linear-gradient"/><linearGradient id="linear-gradient-3" x1="832.77" y1="81.47" x2="833.13" y2="82.04" xlink:href="#linear-gradient"/><linearGradient id="linear-gradient-4" x1="810.94" y1="72.69" x2="844.87" y2="125.73" xlink:href="#linear-gradient"/><linearGradient id="linear-gradient-5" x1="816.1" y1="30.84" x2="816.46" y2="31.42" gradientTransform="translate(855.37 150.24) rotate(-180)" gradientUnits="userSpaceOnUse"><stop offset="0" stop-color="#933c20"/><stop offset="1" stop-color="#cd8572"/></linearGradient><linearGradient id="linear-gradient-6" x1="794.26" y1="22.07" x2="828.2" y2="75.11" xlink:href="#linear-gradient-5"/><linearGradient id="linear-gradient-7" x1="816.1" y1="81.47" x2="816.46" y2="82.04" xlink:href="#linear-gradient-5"/><linearGradient id="linear-gradient-8" x1="794.26" y1="72.69" x2="828.2" y2="125.73" xlink:href="#linear-gradient-5"/><linearGradient id="linear-gradient-9" x1="799.42" x2="799.79" y2="31.42" xlink:href="#linear-gradient"/><linearGradient id="linear-gradient-10" x1="777.59" y1="22.07" x2="811.53" y2="75.11" xlink:href="#linear-gradient"/><linearGradient id="linear-gradient-11" x1="799.42" y1="81.47" x2="799.79" y2="82.04" xlink:href="#linear-gradient"/><linearGradient id="linear-gradient-12" x1="777.59" y1="72.69" x2="811.53" y2="125.73" xlink:href="#linear-gradient"/><linearGradient id="linear-gradient-13" x1="782.75" y1="30.84" x2="783.12" y2="31.42" xlink:href="#linear-gradient-5"/><linearGradient id="linear-gradient-14" x1="760.92" y1="22.07" x2="794.86" y2="75.11" xlink:href="#linear-gradient-5"/><linearGradient id="linear-gradient-15" x1="782.75" y1="81.47" x2="783.12" y2="82.04" xlink:href="#linear-gradient-5"/><linearGradient id="linear-gradient-16" x1="760.92" y1="72.69" x2="794.86" y2="125.73" xlink:href="#linear-gradient-5"/></defs><g id="NOOOOO"><g id="margem"><polyline class="cls-1" points="21.32 141.14 10.38 141.14 10.38 75.95 10.38 9.1 21.32 9.1"/><line class="cls-1" x1="31.32" y1="9.1" x2="45.53" y2="9.1"/><polyline class="cls-1" points="80.92 9.1 91.86 9.1 91.86 141.14 80.92 141.14"/><line class="cls-1" x1="31.32" y1="9.1" x2="45.53" y2="9.1"/><line class="cls-1" x1="70.92" y1="141.14" x2="56.71" y2="141.14"/><line class="cls-1" x1="56.71" y1="9.1" x2="70.92" y2="9.1"/><line class="cls-1" x1="45.53" y1="141.14" x2="31.32" y2="141.14"/></g></g><g id="BASTOS"><path class="cls-10" d="M22.36,31.59c0-.24.01-.48.02-.73-.01.23-.02.45-.03.67h0s0,.04,0,.06Z"/><path class="cls-9" d="M21.86,38.86c.11.28.21.55.32.83.05.13.11.27.16.4.06.13.11.26.17.39.11.26.22.51.32.74.1.23.21.46.31.66,0,.01.01.03.02.04.04.09.08.17.13.25,0,0,0,.01.01.02h0c.04.09.09.17.13.24,0,.01.01.02.02.04.17,2.94.8,11.22.8,11.22l-2.3-1.32-.25,1.17s2.83,1.66,2.79,3.88c-.01.74.05,2.2.04,5.46-.03-.05-.06-.1-.09-.15-.07-.12-.14-.24-.22-.37-.15-.25-.29-.51-.44-.76-.15-.25-.29-.51-.43-.77-.14-.26-.27-.51-.4-.75-.06-.12-.12-.23-.18-.35-.08.17-.17.33-.26.5,0,0,0,.01,0,.01.09.26.19.53.28.8.1.27.19.55.3.83.1.28.21.55.32.82.05.14.11.27.16.4.06.13.11.27.17.39.11.26.22.5.32.74.1.24.21.46.32.66.04.09.08.17.12.26,0,1.36.07,4.13.2,7.43h4.38s0-.1,0-.14c.03-.06.1-.18.19-.35.07-.12.14-.27.22-.44.04-.08.08-.17.13-.27.04-.1.08-.2.13-.3.08-.21.18-.44.27-.68.09-.24.19-.5.28-.76.04-.13.09-.27.14-.4.04-.14.08-.27.13-.41.09-.28.18-.56.26-.84.09-.28.17-.56.25-.84.07-.24.13-.47.19-.7-.09-.18-.18-.36-.28-.54-.04.1-.09.19-.13.29-.11.25-.23.51-.35.77-.12.26-.25.53-.37.79-.13.27-.25.53-.39.79-.07.13-.13.26-.19.38-.07.12-.13.25-.19.37-.05.1-.1.18-.15.27.35-7.72-.66-11.8,1.23-16.57.03-.08.05-.15.07-.22.03-.03.06-.07.09-.1.14-.16.28-.31.43-.47.15-.16.3-.32.46-.48.01-.01.02-.02.04-.04-.06-.23-.13-.46-.21-.69-.11.07-.22.15-.33.22-.11.07-1.28.66-1.39.74l.24-3.49.16-2.4.35-5.06.28-4.18.17-2.52v-.03l.15-2.22.09-1.34c-.02-.12-.05-.24-.07-.36-.04-.16-.08-.31-.12-.46-.05-.16-.1-.31-.17-.46-.06-.14-.12-.28-.19-.41-.07-.13-.14-.25-.22-.37-.06-.08-.12-.17-.18-.24-.24-.3-.52-.55-.85-.76-.01-.01-.03-.02-.04-.02-.14-.09-.3-.17-.46-.24-.07-.03-.13-.05-.2-.08-.09-.03-.18-.06-.28-.09-.1-.03-.2-.05-.31-.07-.2-.04-.42-.08-.65-.1-.06,0-.11-.01-.16-.01-.12-.01-.26-.01-.39-.01-.06,0-.11,0-.16,0-.03,0-.05,0-.08,0-.17,0-.33.02-.49.04-.03,0-.06,0-.09.01-.05,0-.1.01-.14.02-.11.02-.21.04-.31.06-.19.04-.37.1-.54.16-.06.02-.12.05-.19.08-.1.04-.2.09-.3.15-.07.03-.13.07-.19.11-.3.19-.56.43-.78.7-.07.08-.13.17-.19.26-.19.28-.35.59-.48.93-.04.11-.08.22-.11.34-.18.56-.28,1.2-.31,1.87.08.68.17,1.48.26,2.34.03.28.06.56.09.85h0c.17,1.54.34,3.18.48,4.55,0,.1.02.19.03.29,0-.01-.02-.03-.03-.04,0-.01-.01-.02-.02-.03-.07-.12-.14-.24-.22-.37-.15-.25-.29-.5-.44-.76-.15-.26-.29-.52-.43-.77-.12-.23-.25-.46-.37-.68-.11.17-.22.34-.32.51.04.13.09.26.14.39.1.27.2.55.3.82Z"/><path class="cls-11" d="M28.94,46.33c0,.77,0,1.53.02,2.3.27,6.33.39,12.7-.12,18.91.33-6.1.47-12.23.1-18.51,0-.78-.02-1.63-.02-2.42-.06-1.65,0-3.14.07-4.73.03-.79.05-1.58.08-2.36-.02.74-.04,1.47-.06,2.21-.05,1.54-.07,3.08-.06,4.61Z"/><path class="cls-11" d="M28.04,72.59h.17s0-.05,0-.07c-.02-.69-.03-1.48-.04-2.19.41-6.86.75-13.63.27-20.77,0-.8-.02-1.68-.03-2.48,0-1.6,0-3.2.03-4.8.04-.83.08-1.66.11-2.49.03-.63.05-1.25.07-1.87.02-.63.04-1.25.06-1.88.02-.5.03-5.14.05-8.64-.07-.03-.13-.05-.2-.08-.01,3.4-.03,7.81-.05,8.22-.03.74-.06,1.53-.08,2.28-.06,1.48-.11,2.97-.18,4.45-.03.86-.07,1.74-.09,2.69.05.71.08,1.42.12,2.13.03.71.06,1.42.08,2.13.41,6.51.24,12.79-.22,19.4-.12,1.16-.06,2.31-.08,3.44,0,.18,0,.37,0,.55Z"/><path class="cls-11" d="M27.54,71.5c0,.36.03.72.04,1.08h.17c0-.38,0-.75-.01-1.13-.03-4.02.32-7.66.49-11.62.17-3.8-.23-7.44-.28-11.02-.01-.8-.03-1.6-.05-2.4-.02-.8-.04-1.61-.05-2.41.07-.73.1-1.67.14-2.51.04-.73.07-1.46.11-2.19.03-.73.06-1.47.08-2.2.03-.82.06-6.04.08-9.88-.1-.03-.2-.05-.31-.07-.01,3.42-.03,7.76-.03,8.21-.03.78-.06,1.62-.09,2.4-.07,1.56-.15,3.13-.26,4.69-.03.83-.05,1.65-.06,2.5,0,.67.02,1.34.03,2.02.01.67.03,1.34.04,2.02.47,6.72.36,13.33-.08,20.06,0,.84.01,1.65.04,2.46Z"/><path class="cls-11" d="M30.91,67.74c-.03.08-.05.17-.08.25-.01.04-.02.08-.04.12-.01-.17-.02-.34-.04-.52-.02-.34-.04-.69-.06-1.03.04-.09.08-.18.13-.27.03.48.06.96.09,1.44Z"/><path class="cls-11" d="M30.25,45.95l.29-2.69c.01-.57.03-1.16.04-1.71.02-.71.03-2.53.05-4.74.02-2.33.03-5.08.05-7.38-.06-.14-.12-.28-.19-.41-.01,3.21-.02,6.91-.03,7.26-.04,1.28-.07,2.57-.1,3.86,0,.29,0,.57-.01.86,0,.45-.01.9-.02,1.36-.02,1.2-.05,2.39-.08,3.59Z"/><path class="cls-11" d="M26.94,52.6c.36,5.09-.1,10.21-.1,15.31.02.78.03,1.59.05,2.38.02.76.04,1.53.06,2.29h.11c-.02-.74-.03-1.49-.05-2.23-.01-.78-.03-1.58-.04-2.36.09-5.84.43-11.46.14-17.3,0-.64-.01-1.27-.03-1.91-.03-1.27-.07-2.55-.13-3.82.02-.81.02-1.73.03-2.58.07-1.95.14-3.86.2-5.76.02-.64.04-1.32.06-1.95.01-.39.03-4.32.04-7.61-.06,0-.11-.01-.16-.01-.02,3.46-.04,7.99-.06,8.46-.02.66-.04,1.32-.07,1.97-.04,1.3-.09,2.6-.14,3.89-.02.64-.03,1.27-.04,1.89-.01.63-.01,1.28-.03,1.88.03,1.85.06,3.71.09,5.57.01.62.02,1.25.04,1.89Z"/><path class="cls-11" d="M29.13,37.24c-.02.7-.04,1.39-.06,2.09.02-.65.05-1.29.07-1.94.03-.71.05-1.47.07-2.17.01-.26.02-4.34.03-7.57-.01-.01-.03-.02-.04-.02,0,3.19,0,7.2-.01,7.43-.02.69-.04,1.47-.06,2.18Z"/><path class="cls-11" d="M29.06,39.51s0-.02,0-.03c0-.05,0-.11,0-.16,0,.06,0,.12,0,.18Z"/><path class="cls-11" d="M30.73,41.58l.12-1.14c.03-.96.07-4.75.11-8.39,0-.57.01-1.14.02-1.69-.04-.16-.08-.31-.12-.46-.02,1.38-.03,2.9-.05,4.37v.03c-.03,3.26-.06,6.31-.08,7.28Z"/><path class="cls-11" d="M30.48,52.89s-.02.07-.04.11c-.02.05-.03.09-.05.14,0-.54.02-1.07.04-1.61.03-.02.07-.03.1-.05-.02.47-.03.94-.04,1.42Z"/><path class="cls-11" d="M31.31,51c.02.06.04.13.06.19-.02.24-.04.49-.07.73-.06.06-.11.12-.17.18.03-.35.07-.7.11-1.05.02-.01.04-.03.07-.05Z"/><path class="cls-11" d="M25.84,36.8c.01-.58.04-1.16.06-1.73.03-.74.07-1.52.11-2.26,0-.2.01-2.98.02-5.74-.03,0-.06,0-.09.01-.02,3.36-.04,7.37-.05,7.8-.02.64-.03,1.28-.04,1.92Z"/><path class="cls-11" d="M25.83,44.11c-.08-2.46-.06-4.89,0-7.31-.04,2.32-.03,4.63.05,6.94,0,.75.01,1.5.03,2.25.01.75.03,1.51.06,2.28,0,.04-.01.08-.02.12-.04-.67-.07-1.33-.09-1.97-.02-.77-.04-1.54-.05-2.31Z"/><path class="cls-11" d="M24.71,46.45c0,.8-.01,1.61-.01,2.41,0,.77,0,1.57,0,2.34.03.58.06,1.16.08,1.74.03.58.05,1.18.07,1.75,0,.79.01,1.58.02,2.41.08,5.23.42,10.34.35,15.49h.15c.03-5.48-.35-11.02-.4-16.56-.01-.68-.03-1.38-.04-2.06-.03-.7-.07-1.39-.12-2.09-.01-.83-.01-1.61,0-2.38,0-.51,0-1.08.01-1.6,0-.64.01-1.27.02-1.91,0-.65,0-1.32.01-1.97-.11-3.3-.1-6.59,0-9.87.02-.67.04-1.37.06-2.04,0-.19,0-2.37,0-4.78-.06.02-.12.05-.19.08,0,2.8-.02,5.46-.04,5.86-.04.82-.08,1.63-.11,2.45-.14,3.25-.22,6.48-.16,9.55.13.39.28.77.28,1.18Z"/><path class="cls-11" d="M22.1,39.48c.02-.22.04-.44.06-.66,0,.25-.02.49-.03.74-.01-.03-.02-.05-.03-.08Z"/><path class="cls-11" d="M22.16,38.82c.01-.29.02-.58.02-.87,0,0,0,0,0,.01,0,.25-.01.5-.02.75,0,.04,0,.07-.01.11Z"/><path class="cls-11" d="M26.4,66.43c-.05-1.39-.05-2.8-.04-4.22.01,1.13.02,2.27.02,3.4,0,.28,0,.55.02.83Z"/><path class="cls-11" d="M26.26,40.39c0,.73,0,1.46,0,2.19,0,.72,0,1.45,0,2.18,0,.73.04,1.52.06,2.25.09,1.35.11,2.71.1,4.08,0,.68-.01,1.37-.03,2.06-.09,3.05-.05,6.06-.02,9.06.04-3.04.18-6.12.16-9.12.01-.68.01-1.37.01-2.05,0-1.36-.04-2.72-.14-4.09-.02-.88-.03-1.75-.03-2.61s0-1.71.02-2.56c.01-.71.02-1.43.03-2.14,0-1.15.03-2.32.06-3.49.02-.59.04-1.18.06-1.77.01-.39.03-4.1.05-7.35-.03,0-.05,0-.08,0-.02,3.11-.04,6.52-.05,6.86-.02.69-.05,1.44-.08,2.16-.03.72-.06,1.44-.1,2.15-.02.72-.03,1.45-.04,2.18Z"/><path class="cls-11" d="M26.52,72.59h.1c-.03-1.03-.06-2.07-.1-3.1-.03-.82-.06-1.64-.09-2.46,0-.2-.02-.4-.02-.6,0,.42.02.83.03,1.25.04,1.63.08,3.27.09,4.9Z"/><path class="cls-11" d="M25.5,56.52c-.11,5.41.36,10.72.43,16.07h.41c-.02-1.64-.06-3.28-.12-4.93-.03-.71-.05-1.42-.08-2.13-.16-2.88-.22-5.69-.23-8.58-.03-.49-.05-.98-.08-1.48,0-.14,0-.28,0-.41-.03-2.12-.01-4.22.17-6.28,0-.13-.02-.26-.02-.39-.18,1.26-.24,2.51-.24,3.78-.01-1.15-.03-2.31-.05-3.48,0-.7,0-1.41.01-2.11,0,.01,0,.02,0,.03-.07.62-.13,1.23-.17,1.85-.04.63-.07,1.31-.1,1.91.05,1.51.08,3.05.09,4.59,0,.52,0,1.04,0,1.56Z"/><path class="cls-11" d="M25.69,46.58c0-.14,0-.27,0-.41.01.13.01.26,0,.41Z"/><path class="cls-11" d="M25.7,46.18v-.05c0-.77.01-1.54.03-2.31.01-.77.02-1.55.02-2.36-.06-2.3-.05-4.6,0-6.9.01-.44.03-4.16.05-7.44-.11.02-.21.04-.31.06-.01,3.01-.02,6.18-.03,6.49-.02.6-.03,1.19-.04,1.79-.06,2.99-.04,6-.07,9.01-.04.67.29,1.13.35,1.71Z"/><path class="cls-11" d="M28.62,72.59c0-.52,0-1.08,0-1.52.07-1.17.14-2.35.21-3.52-.07.88-.16,1.76-.26,2.63-.02.62-.03,1.21-.03,1.79,0,.21.01.41.02.62h.06Z"/><path class="cls-11" d="M22.64,34.1c.03.28.06.56.09.85,0-.16,0-.32,0-.48,0-.68.01-1.38.03-2.13.01-.24.03-1.33.03-2.79-.04.11-.08.22-.11.34,0,1.07,0,1.83,0,2-.02.78-.03,1.51-.04,2.21Z"/><path class="cls-11" d="M22.82,61.11s-.01-.04-.02-.06c-.04-.11-.07-.21-.11-.32-.01-.25-.03-.49-.05-.74.04-.07.08-.15.11-.22.03.45.05.89.07,1.34Z"/><path class="cls-11" d="M23.27,53.87c.02.34.04.68.06,1.02-.06-.06-.12-.12-.18-.18-.01-.12-.03-.25-.04-.37-.04-.45-.07-.9-.1-1.35l.22.12c.01.25.02.51.04.76Z"/><path class="cls-11" d="M23.16,41.92c.04.09.08.17.13.26,0,0,0,.01.01.02v-.18c0-.77.03-1.59.03-2.37,0-1.36.02-2.72.05-4.07.01-.68.03-1.41.05-2.03.01-.69.02-1.37.04-2.05,0-.16,0-1.45,0-3.11-.07.08-.13.17-.19.26,0,2.07-.01,3.8-.01,4.04-.01.67-.03,1.31-.03,1.94-.02,1.25-.02,2.5-.03,3.74,0,.39,0,.77,0,1.16,0,.1.02.19.03.29,0-.02-.02-.03-.03-.05h0s0,.74,0,.74c-.01.48-.03.96-.05,1.44Z"/><path class="cls-11" d="M23.86,63.78c-.04-.09-.08-.19-.12-.28-.03-.06-.05-.13-.08-.2-.01-.67-.03-1.34-.06-2,.05.1.11.19.16.29.04.73.07,1.46.1,2.2Z"/><path class="cls-11" d="M22.35,31.53h0s0,.04,0,.06c0-.24.01-.48.02-.73-.01.23-.02.45-.03.67Z"/><path class="cls-11" d="M22.57,38.64c.04.08.09.16.13.23,0,.64-.02,1.29-.04,1.97-.05-.12-.11-.24-.16-.37-.01-.03-.03-.06-.04-.09.03-.36.06-.72.09-1.08,0-.22,0-.45.01-.67Z"/><path class="cls-11" d="M22.33,53.48c.02.18.03.36.05.53-.1-.08-.19-.15-.28-.2-.01-.13-.03-.26-.04-.39-.02-.33-.04-.67-.05-1.01l.27.16c.01.31.03.61.05.92Z"/><path class="cls-11" d="M21.69,37.23s.04-.06.06-.09c.01.03.03.06.04.08-.01.44-.03.9-.04,1.33-.04-.1-.08-.21-.11-.31.02-.33.04-.67.05-1.01Z"/><path class="cls-11" d="M22.38,30.79s0-.16,0-.35c0,.2,0,.32,0,.35Z"/><path class="cls-11" d="M24.02,43.31c.02-.33.09-.64.16-.94.01,1.01.03,2.02.05,3.03,0,.25,0,.5,0,.74-.05-1.04-.27-1.86-.21-2.84Z"/><path class="cls-11" d="M30.28,51.6c-.02.65-.03,1.3-.05,1.95-.06.18-.12.37-.18.55,0-.8,0-1.6.03-2.4.07-.03.13-.07.2-.1Z"/><path class="cls-11" d="M29.96,68.14c0,.76,0,1.52-.01,2.28,0,.07,0,.14,0,.21-.06.16-.13.31-.19.46-.03.08-.06.15-.09.22.05-.93.09-1.87.12-2.81.06-.12.12-.24.18-.35Z"/><path class="cls-11" d="M24.18,42.37c.11-.45.22-.88.18-1.38-.04-2.11-.03-4.21.02-6.32.02-.71.04-1.47.07-2.18,0-.29,0-2.49,0-4.95-.07.03-.13.07-.19.11,0,2.55,0,4.87,0,5.22-.03.61-.04,1.43-.05,2.14-.05,2.46-.05,4.91-.02,7.35Z"/><path class="cls-11" d="M30.54,68.94c-.03.1-.07.21-.1.31-.02.06-.04.12-.06.18,0-.71,0-1.42-.01-2.13.05-.1.1-.21.14-.31.02.65.02,1.3.03,1.95Z"/><path class="cls-11" d="M29.83,49.82l.11-1.07c0-.14,0-.29,0-.43.01-.73.03-1.47.05-2.2v-.06c.02-.71.04-1.43.07-2.14.02-.86.03-1.64.05-2.41.03-1.55.07-3.1.11-4.64.01-.47.03-4.77.04-8.22-.06-.09-.12-.17-.18-.24-.01,3.47-.02,7.88-.03,8.36-.03,1.53-.06,3.06-.08,4.59-.01.77-.03,1.58-.04,2.38-.03.77-.05,1.53-.06,2.3-.02.77-.03,1.53-.04,2.29v.13c0,.45,0,.9,0,1.35Z"/><path class="cls-11" d="M29.85,54.82c0-1-.01-2-.01-2.99.03-.01.06-.03.09-.05,0,.93,0,1.87,0,2.8-.02.08-.04.16-.06.24Z"/><path class="cls-8" d="M22.36,82.21c0-.24.01-.48.02-.73-.01.23-.02.45-.03.67h0s0,.04,0,.06Z"/><path class="cls-7" d="M21.86,89.48c.11.28.21.55.32.83.05.13.11.27.16.4.06.13.11.26.17.39.11.26.22.51.32.74.1.23.21.46.31.66,0,.01.01.03.02.04.04.09.08.17.13.25,0,0,0,.01.01.02h0c.04.09.09.17.13.24,0,.01.01.02.02.04.17,2.94.8,11.22.8,11.22l-2.3-1.32-.25,1.17s2.83,1.66,2.79,3.88c-.01.74.05,2.2.04,5.46-.03-.05-.06-.1-.09-.15-.07-.12-.14-.24-.22-.37-.15-.25-.29-.51-.44-.76-.15-.25-.29-.51-.43-.77-.14-.26-.27-.51-.4-.75-.06-.12-.12-.23-.18-.35-.08.17-.17.33-.26.5,0,0,0,.01,0,.01.09.26.19.53.28.8.1.27.19.55.3.83.1.28.21.55.32.82.05.14.11.27.16.4.06.13.11.27.17.39.11.26.22.5.32.74.1.24.21.46.32.66.04.09.08.17.12.26,0,1.36.07,4.13.2,7.43h4.38s0-.1,0-.14c.03-.06.1-.18.19-.35.07-.12.14-.27.22-.44.04-.08.08-.17.13-.27.04-.1.08-.2.13-.3.08-.21.18-.44.27-.68.09-.24.19-.5.28-.76.04-.13.09-.27.14-.4.04-.14.08-.27.13-.41.09-.28.18-.56.26-.84.09-.28.17-.56.25-.84.07-.24.13-.47.19-.7-.09-.18-.18-.36-.28-.54-.04.1-.09.19-.13.29-.11.25-.23.51-.35.77-.12.26-.25.53-.37.79-.13.27-.25.53-.39.79-.07.13-.13.26-.19.38-.07.12-.13.25-.19.37-.05.1-.1.18-.15.27.35-7.72-.66-11.8,1.23-16.57.03-.08.05-.15.07-.22.03-.03.06-.07.09-.1.14-.16.28-.31.43-.47.15-.16.3-.32.46-.48.01-.01.02-.02.04-.04-.06-.23-.13-.46-.21-.69-.11.07-.22.15-.33.22-.11.07-1.28.66-1.39.74l.24-3.49.16-2.4.35-5.06.28-4.18.17-2.52v-.03l.15-2.22.09-1.34c-.02-.12-.05-.24-.07-.36-.04-.16-.08-.31-.12-.46-.05-.16-.1-.31-.17-.46-.06-.14-.12-.28-.19-.41-.07-.13-.14-.25-.22-.37-.06-.08-.12-.17-.18-.24-.24-.3-.52-.55-.85-.76-.01-.01-.03-.02-.04-.02-.14-.09-.3-.17-.46-.24-.07-.03-.13-.05-.2-.08-.09-.03-.18-.06-.28-.09-.1-.03-.2-.05-.31-.07-.2-.04-.42-.08-.65-.1-.06,0-.11-.01-.16-.01-.12-.01-.26-.01-.39-.01-.06,0-.11,0-.16,0-.03,0-.05,0-.08,0-.17,0-.33.02-.49.04-.03,0-.06,0-.09.01-.05,0-.1.01-.14.02-.11.02-.21.04-.31.06-.19.04-.37.1-.54.16-.06.02-.12.05-.19.08-.1.04-.2.09-.3.15-.07.03-.13.07-.19.11-.3.19-.56.43-.78.7-.07.08-.13.17-.19.26-.19.28-.35.59-.48.93-.04.11-.08.22-.11.34-.18.56-.28,1.2-.31,1.87.08.68.17,1.48.26,2.34.03.28.06.56.09.85h0c.17,1.54.34,3.18.48,4.55,0,.1.02.19.03.29,0-.01-.02-.03-.03-.04,0-.01-.01-.02-.02-.03-.07-.12-.14-.24-.22-.37-.15-.25-.29-.5-.44-.76-.15-.26-.29-.52-.43-.77-.12-.23-.25-.46-.37-.68-.11.17-.22.34-.32.51.04.13.09.26.14.39.1.27.2.55.3.82Z"/><path class="cls-11" d="M28.94,96.96c0,.77,0,1.53.02,2.3.27,6.33.39,12.7-.12,18.91.33-6.1.47-12.23.1-18.51,0-.78-.02-1.63-.02-2.42-.06-1.65,0-3.14.07-4.73.03-.79.05-1.58.08-2.36-.02.74-.04,1.47-.06,2.21-.05,1.54-.07,3.08-.06,4.61Z"/><path class="cls-11" d="M28.04,123.21h.17s0-.05,0-.07c-.02-.69-.03-1.48-.04-2.19.41-6.86.75-13.63.27-20.77,0-.8-.02-1.68-.03-2.48,0-1.6,0-3.2.03-4.8.04-.83.08-1.66.11-2.49.03-.63.05-1.25.07-1.87.02-.63.04-1.25.06-1.88.02-.5.03-5.14.05-8.64-.07-.03-.13-.05-.2-.08-.01,3.4-.03,7.81-.05,8.22-.03.74-.06,1.53-.08,2.28-.06,1.48-.11,2.97-.18,4.45-.03.86-.07,1.74-.09,2.69.05.71.08,1.42.12,2.13.03.71.06,1.42.08,2.13.41,6.51.24,12.79-.22,19.4-.12,1.16-.06,2.31-.08,3.44,0,.18,0,.37,0,.55Z"/><path class="cls-11" d="M27.54,122.13c0,.36.03.72.04,1.08h.17c0-.38,0-.75-.01-1.13-.03-4.02.32-7.66.49-11.62.17-3.8-.23-7.44-.28-11.02-.01-.8-.03-1.6-.05-2.4-.02-.8-.04-1.61-.05-2.41.07-.73.1-1.67.14-2.51.04-.73.07-1.46.11-2.19.03-.73.06-1.47.08-2.2.03-.82.06-6.04.08-9.88-.1-.03-.2-.05-.31-.07-.01,3.42-.03,7.76-.03,8.21-.03.78-.06,1.62-.09,2.4-.07,1.56-.15,3.13-.26,4.69-.03.83-.05,1.65-.06,2.5,0,.67.02,1.34.03,2.02.01.67.03,1.34.04,2.02.47,6.72.36,13.33-.08,20.06,0,.84.01,1.65.04,2.46Z"/><path class="cls-11" d="M30.91,118.37c-.03.08-.05.17-.08.25-.01.04-.02.08-.04.12-.01-.17-.02-.34-.04-.52-.02-.34-.04-.69-.06-1.03.04-.09.08-.18.13-.27.03.48.06.96.09,1.44Z"/><path class="cls-11" d="M30.25,96.57l.29-2.69c.01-.57.03-1.16.04-1.71.02-.71.03-2.53.05-4.74.02-2.33.03-5.08.05-7.38-.06-.14-.12-.28-.19-.41-.01,3.21-.02,6.91-.03,7.26-.04,1.28-.07,2.57-.1,3.86,0,.29,0,.57-.01.86,0,.45-.01.9-.02,1.36-.02,1.2-.05,2.39-.08,3.59Z"/><path class="cls-11" d="M26.94,103.22c.36,5.09-.1,10.21-.1,15.31.02.78.03,1.59.05,2.38.02.76.04,1.53.06,2.29h.11c-.02-.74-.03-1.49-.05-2.23-.01-.78-.03-1.58-.04-2.36.09-5.84.43-11.46.14-17.3,0-.64-.01-1.27-.03-1.91-.03-1.27-.07-2.55-.13-3.82.02-.81.02-1.73.03-2.58.07-1.95.14-3.86.2-5.76.02-.64.04-1.32.06-1.95.01-.39.03-4.32.04-7.61-.06,0-.11-.01-.16-.01-.02,3.46-.04,7.99-.06,8.46-.02.66-.04,1.32-.07,1.97-.04,1.3-.09,2.6-.14,3.89-.02.64-.03,1.27-.04,1.89-.01.63-.01,1.28-.03,1.88.03,1.85.06,3.71.09,5.57.01.62.02,1.25.04,1.89Z"/><path class="cls-11" d="M29.13,87.86c-.02.7-.04,1.39-.06,2.09.02-.65.05-1.29.07-1.94.03-.71.05-1.47.07-2.17.01-.26.02-4.34.03-7.57-.01-.01-.03-.02-.04-.02,0,3.19,0,7.2-.01,7.43-.02.69-.04,1.47-.06,2.18Z"/><path class="cls-11" d="M29.06,90.14s0-.02,0-.03c0-.05,0-.11,0-.16,0,.06,0,.12,0,.18Z"/><path class="cls-11" d="M30.73,92.2l.12-1.14c.03-.96.07-4.75.11-8.39,0-.57.01-1.14.02-1.69-.04-.16-.08-.31-.12-.46-.02,1.38-.03,2.9-.05,4.37v.03c-.03,3.26-.06,6.31-.08,7.28Z"/><path class="cls-11" d="M30.48,103.51s-.02.07-.04.11c-.02.05-.03.09-.05.14,0-.54.02-1.07.04-1.61.03-.02.07-.03.1-.05-.02.47-.03.94-.04,1.42Z"/><path class="cls-11" d="M31.31,101.62c.02.06.04.13.06.19-.02.24-.04.49-.07.73-.06.06-.11.12-.17.18.03-.35.07-.7.11-1.05.02-.01.04-.03.07-.05Z"/><path class="cls-11" d="M25.84,87.43c.01-.58.04-1.16.06-1.73.03-.74.07-1.52.11-2.26,0-.2.01-2.98.02-5.74-.03,0-.06,0-.09.01-.02,3.36-.04,7.37-.05,7.8-.02.64-.03,1.28-.04,1.92Z"/><path class="cls-11" d="M25.83,94.74c-.08-2.46-.06-4.89,0-7.31-.04,2.32-.03,4.63.05,6.94,0,.75.01,1.5.03,2.25.01.75.03,1.51.06,2.28,0,.04-.01.08-.02.12-.04-.67-.07-1.33-.09-1.97-.02-.77-.04-1.54-.05-2.31Z"/><path class="cls-11" d="M24.71,97.07c0,.8-.01,1.61-.01,2.41,0,.77,0,1.57,0,2.34.03.58.06,1.16.08,1.74.03.58.05,1.18.07,1.75,0,.79.01,1.58.02,2.41.08,5.23.42,10.34.35,15.49h.15c.03-5.48-.35-11.02-.4-16.56-.01-.68-.03-1.38-.04-2.06-.03-.7-.07-1.39-.12-2.09-.01-.83-.01-1.61,0-2.38,0-.51,0-1.08.01-1.6,0-.64.01-1.27.02-1.91,0-.65,0-1.32.01-1.97-.11-3.3-.1-6.59,0-9.87.02-.67.04-1.37.06-2.04,0-.19,0-2.37,0-4.78-.06.02-.12.05-.19.08,0,2.8-.02,5.46-.04,5.86-.04.82-.08,1.63-.11,2.45-.14,3.25-.22,6.48-.16,9.55.13.39.28.77.28,1.18Z"/><path class="cls-11" d="M22.1,90.1c.02-.22.04-.44.06-.66,0,.25-.02.49-.03.74-.01-.03-.02-.05-.03-.08Z"/><path class="cls-11" d="M22.16,89.44c.01-.29.02-.58.02-.87,0,0,0,0,0,.01,0,.25-.01.5-.02.75,0,.04,0,.07-.01.11Z"/><path class="cls-11" d="M26.4,117.06c-.05-1.39-.05-2.8-.04-4.22.01,1.13.02,2.27.02,3.4,0,.28,0,.55.02.83Z"/><path class="cls-11" d="M26.26,91.01c0,.73,0,1.46,0,2.19,0,.72,0,1.45,0,2.18,0,.73.04,1.52.06,2.25.09,1.35.11,2.71.1,4.08,0,.68-.01,1.37-.03,2.06-.09,3.05-.05,6.06-.02,9.06.04-3.04.18-6.12.16-9.12.01-.68.01-1.37.01-2.05,0-1.36-.04-2.72-.14-4.09-.02-.88-.03-1.75-.03-2.61s0-1.71.02-2.56c.01-.71.02-1.43.03-2.14,0-1.15.03-2.32.06-3.49.02-.59.04-1.18.06-1.77.01-.39.03-4.1.05-7.35-.03,0-.05,0-.08,0-.02,3.11-.04,6.52-.05,6.86-.02.69-.05,1.44-.08,2.16-.03.72-.06,1.44-.1,2.15-.02.72-.03,1.45-.04,2.18Z"/><path class="cls-11" d="M26.52,123.21h.1c-.03-1.03-.06-2.07-.1-3.1-.03-.82-.06-1.64-.09-2.46,0-.2-.02-.4-.02-.6,0,.42.02.83.03,1.25.04,1.63.08,3.27.09,4.9Z"/><path class="cls-11" d="M25.5,107.14c-.11,5.41.36,10.72.43,16.07h.41c-.02-1.64-.06-3.28-.12-4.93-.03-.71-.05-1.42-.08-2.13-.16-2.88-.22-5.69-.23-8.58-.03-.49-.05-.98-.08-1.48,0-.14,0-.28,0-.41-.03-2.12-.01-4.22.17-6.28,0-.13-.02-.26-.02-.39-.18,1.26-.24,2.51-.24,3.78-.01-1.15-.03-2.31-.05-3.48,0-.7,0-1.41.01-2.11,0,.01,0,.02,0,.03-.07.62-.13,1.23-.17,1.85-.04.63-.07,1.31-.1,1.91.05,1.51.08,3.05.09,4.59,0,.52,0,1.04,0,1.56Z"/><path class="cls-11" d="M25.69,97.21c0-.14,0-.27,0-.41.01.13.01.26,0,.41Z"/><path class="cls-11" d="M25.7,96.8v-.05c0-.77.01-1.54.03-2.31.01-.77.02-1.55.02-2.36-.06-2.3-.05-4.6,0-6.9.01-.44.03-4.16.05-7.44-.11.02-.21.04-.31.06-.01,3.01-.02,6.18-.03,6.49-.02.6-.03,1.19-.04,1.79-.06,2.99-.04,6-.07,9.01-.04.67.29,1.13.35,1.71Z"/><path class="cls-11" d="M28.62,123.21c0-.52,0-1.08,0-1.52.07-1.17.14-2.35.21-3.52-.07.88-.16,1.76-.26,2.63-.02.62-.03,1.21-.03,1.79,0,.21.01.41.02.62h.06Z"/><path class="cls-11" d="M22.64,84.72c.03.28.06.56.09.85,0-.16,0-.32,0-.48,0-.68.01-1.38.03-2.13.01-.24.03-1.33.03-2.79-.04.11-.08.22-.11.34,0,1.07,0,1.83,0,2-.02.78-.03,1.51-.04,2.21Z"/><path class="cls-11" d="M22.82,111.73s-.01-.04-.02-.06c-.04-.11-.07-.21-.11-.32-.01-.25-.03-.49-.05-.74.04-.07.08-.15.11-.22.03.45.05.89.07,1.34Z"/><path class="cls-11" d="M23.27,104.5c.02.34.04.68.06,1.02-.06-.06-.12-.12-.18-.18-.01-.12-.03-.25-.04-.37-.04-.45-.07-.9-.1-1.35l.22.12c.01.25.02.51.04.76Z"/><path class="cls-11" d="M23.16,92.54c.04.09.08.17.13.26,0,0,0,.01.01.02v-.18c0-.77.03-1.59.03-2.37,0-1.36.02-2.72.05-4.07.01-.68.03-1.41.05-2.03.01-.69.02-1.37.04-2.05,0-.16,0-1.45,0-3.11-.07.08-.13.17-.19.26,0,2.07-.01,3.8-.01,4.04-.01.67-.03,1.31-.03,1.94-.02,1.25-.02,2.5-.03,3.74,0,.39,0,.77,0,1.16,0,.1.02.19.03.29,0-.02-.02-.03-.03-.05h0s0,.74,0,.74c-.01.48-.03.96-.05,1.44Z"/><path class="cls-11" d="M23.86,114.4c-.04-.09-.08-.19-.12-.28-.03-.06-.05-.13-.08-.2-.01-.67-.03-1.34-.06-2,.05.1.11.19.16.29.04.73.07,1.46.1,2.2Z"/><path class="cls-11" d="M22.35,82.15h0s0,.04,0,.06c0-.24.01-.48.02-.73-.01.23-.02.45-.03.67Z"/><path class="cls-11" d="M22.57,89.26c.04.08.09.16.13.23,0,.64-.02,1.29-.04,1.97-.05-.12-.11-.24-.16-.37-.01-.03-.03-.06-.04-.09.03-.36.06-.72.09-1.08,0-.22,0-.45.01-.67Z"/><path class="cls-11" d="M22.33,104.11c.02.18.03.36.05.53-.1-.08-.19-.15-.28-.2-.01-.13-.03-.26-.04-.39-.02-.33-.04-.67-.05-1.01l.27.16c.01.31.03.61.05.92Z"/><path class="cls-11" d="M21.69,87.85s.04-.06.06-.09c.01.03.03.06.04.08-.01.44-.03.9-.04,1.33-.04-.1-.08-.21-.11-.31.02-.33.04-.67.05-1.01Z"/><path class="cls-11" d="M22.38,81.41s0-.16,0-.35c0,.2,0,.32,0,.35Z"/><path class="cls-11" d="M24.02,93.93c.02-.33.09-.64.16-.94.01,1.01.03,2.02.05,3.03,0,.25,0,.5,0,.74-.05-1.04-.27-1.86-.21-2.84Z"/><path class="cls-11" d="M30.28,102.22c-.02.65-.03,1.3-.05,1.95-.06.18-.12.37-.18.55,0-.8,0-1.6.03-2.4.07-.03.13-.07.2-.1Z"/><path class="cls-11" d="M29.96,118.76c0,.76,0,1.52-.01,2.28,0,.07,0,.14,0,.21-.06.16-.13.31-.19.46-.03.08-.06.15-.09.22.05-.93.09-1.87.12-2.81.06-.12.12-.24.18-.35Z"/><path class="cls-11" d="M24.18,92.99c.11-.45.22-.88.18-1.38-.04-2.11-.03-4.21.02-6.32.02-.71.04-1.47.07-2.18,0-.29,0-2.49,0-4.95-.07.03-.13.07-.19.11,0,2.55,0,4.87,0,5.22-.03.61-.04,1.43-.05,2.14-.05,2.46-.05,4.91-.02,7.35Z"/><path class="cls-11" d="M30.54,119.56c-.03.1-.07.21-.1.31-.02.06-.04.12-.06.18,0-.71,0-1.42-.01-2.13.05-.1.1-.21.14-.31.02.65.02,1.3.03,1.95Z"/><path class="cls-11" d="M29.83,100.44l.11-1.07c0-.14,0-.29,0-.43.01-.73.03-1.47.05-2.2v-.06c.02-.71.04-1.43.07-2.14.02-.86.03-1.64.05-2.41.03-1.55.07-3.1.11-4.64.01-.47.03-4.77.04-8.22-.06-.09-.12-.17-.18-.24-.01,3.47-.02,7.88-.03,8.36-.03,1.53-.06,3.06-.08,4.59-.01.77-.03,1.58-.04,2.38-.03.77-.05,1.53-.06,2.3-.02.77-.03,1.53-.04,2.29v.13c0,.45,0,.9,0,1.35Z"/><path class="cls-11" d="M29.85,105.44c0-1-.01-2-.01-2.99.03-.01.06-.03.09-.05,0,.93,0,1.87,0,2.8-.02.08-.04.16-.06.24Z"/><path class="cls-4" d="M39.03,118.65c0,.24.01.48.02.73-.01-.23-.02-.45-.03-.67h0s0-.04,0-.06Z"/><path class="cls-5" d="M38.53,111.39c.11-.28.21-.55.32-.83.05-.13.11-.27.16-.4.06-.13.11-.26.17-.39.11-.26.22-.51.32-.74.1-.23.21-.46.31-.66,0-.01.01-.03.02-.04.04-.09.08-.17.13-.25,0,0,0-.01.01-.02h0c.04-.09.09-.17.13-.24,0-.01.01-.02.02-.04.17-2.94.8-11.22.8-11.22l-2.3,1.32-.25-1.17s2.83-1.66,2.79-3.88c-.01-.74.05-2.2.04-5.46-.03.05-.06.1-.09.15-.07.12-.14.24-.22.37-.15.25-.29.51-.44.76-.15.25-.29.51-.43.77-.14.26-.27.51-.4.75-.06.12-.12.23-.18.35-.08-.17-.17-.33-.26-.5,0,0,0-.01,0-.01.09-.26.19-.53.28-.8.1-.27.19-.55.3-.83.1-.28.21-.55.32-.82.05-.14.11-.27.16-.4.06-.13.11-.27.17-.39.11-.26.22-.5.32-.74.1-.24.21-.46.32-.66.04-.09.08-.17.12-.26,0-1.36.07-4.13.2-7.43h4.38s0,.1,0,.14c.03.06.1.18.19.35.07.12.14.27.22.44.04.08.08.17.13.27.04.1.08.2.13.3.08.21.18.44.27.68.09.24.19.5.28.76.04.13.09.27.14.4.04.14.08.27.13.41.09.28.18.56.26.84.09.28.17.56.25.84.07.24.13.47.19.7-.09.18-.18.36-.28.54-.04-.1-.09-.19-.13-.29-.11-.25-.23-.51-.35-.77-.12-.26-.25-.53-.37-.79-.13-.27-.25-.53-.39-.79-.07-.13-.13-.26-.19-.38-.07-.12-.13-.25-.19-.37-.05-.1-.1-.18-.15-.27.35,7.72-.66,11.8,1.23,16.57.03.08.05.15.07.22.03.03.06.07.09.1.14.16.28.31.43.47.15.16.3.32.46.48.01.01.02.02.04.04-.06.23-.13.46-.21.69-.11-.07-.22-.15-.33-.22-.11-.07-1.28-.66-1.39-.74l.24,3.49.16,2.4.35,5.06.28,4.18.17,2.52v.03l.15,2.22.09,1.34c-.02.12-.05.24-.07.36-.04.16-.08.31-.12.46-.05.16-.1.31-.17.46-.06.14-.12.28-.19.41-.07.13-.14.25-.22.37-.06.08-.12.17-.18.24-.24.3-.52.55-.85.76-.01.01-.03.02-.04.02-.14.09-.3.17-.46.24-.07.03-.13.05-.2.08-.09.03-.18.06-.28.09-.1.03-.2.05-.31.07-.2.04-.42.08-.65.1-.06,0-.11.01-.16.01-.12.01-.26.01-.39.01-.06,0-.11,0-.16,0-.03,0-.05,0-.08,0-.17,0-.33-.02-.49-.04-.03,0-.06,0-.09-.01-.05,0-.1-.01-.14-.02-.11-.02-.21-.04-.31-.06-.19-.04-.37-.1-.54-.16-.06-.02-.12-.05-.19-.08-.1-.04-.2-.09-.3-.15-.07-.03-.13-.07-.19-.11-.3-.19-.56-.43-.78-.7-.07-.08-.13-.17-.19-.26-.19-.28-.35-.59-.48-.93-.04-.11-.08-.22-.11-.34-.18-.56-.28-1.2-.31-1.87.08-.68.17-1.48.26-2.34.03-.28.06-.56.09-.85h0c.17-1.54.34-3.18.48-4.55,0-.1.02-.19.03-.29,0,.01-.02.03-.03.04,0,.01-.01.02-.02.03-.07.12-.14.24-.22.37-.15.25-.29.5-.44.76-.15.26-.29.52-.43.77-.12.23-.25.46-.37.68-.11-.17-.22-.34-.32-.51.04-.13.09-.26.14-.39.1-.27.2-.55.3-.82Z"/><path class="cls-12" d="M45.61,103.91c0-.77,0-1.53.02-2.3.27-6.33.39-12.7-.12-18.91.33,6.1.47,12.23.1,18.51,0,.78-.02,1.63-.02,2.42-.06,1.65,0,3.14.07,4.73.03.79.05,1.58.08,2.36-.02-.74-.04-1.47-.06-2.21-.05-1.54-.07-3.08-.06-4.61Z"/><path class="cls-12" d="M44.71,77.65h.17s0,.05,0,.07c-.02.69-.03,1.48-.04,2.19.41,6.86.75,13.63.27,20.77,0,.8-.02,1.68-.03,2.48,0,1.6,0,3.2.03,4.8.04.83.08,1.66.11,2.49.03.63.05,1.25.07,1.87.02.63.04,1.25.06,1.88.02.5.03,5.14.05,8.64-.07.03-.13.05-.2.08-.01-3.4-.03-7.81-.05-8.22-.03-.74-.06-1.53-.08-2.28-.06-1.48-.11-2.97-.18-4.45-.03-.86-.07-1.74-.09-2.69.05-.71.08-1.42.12-2.13.03-.71.06-1.42.08-2.13.41-6.51.24-12.79-.22-19.4-.12-1.16-.06-2.31-.08-3.44,0-.18,0-.37,0-.55Z"/><path class="cls-12" d="M44.21,78.74c0-.36.03-.72.04-1.08h.17c0,.38,0,.75-.01,1.13-.03,4.02.32,7.66.49,11.62.17,3.8-.23,7.44-.28,11.02-.01.8-.03,1.6-.05,2.4-.02.8-.04,1.61-.05,2.41.07.73.1,1.67.14,2.51.04.73.07,1.46.11,2.19.03.73.06,1.47.08,2.2.03.82.06,6.04.08,9.88-.1.03-.2.05-.31.07-.01-3.42-.03-7.76-.03-8.21-.03-.78-.06-1.62-.09-2.4-.07-1.56-.15-3.13-.26-4.69-.03-.83-.05-1.65-.06-2.5,0-.67.02-1.34.03-2.02.01-.67.03-1.34.04-2.02.47-6.72.36-13.33-.08-20.06,0-.84.01-1.65.04-2.46Z"/><path class="cls-12" d="M47.58,82.5c-.03-.08-.05-.17-.08-.25-.01-.04-.02-.08-.04-.12-.01.17-.02.34-.04.52-.02.34-.04.69-.06,1.03.04.09.08.18.13.27.03-.48.06-.96.09-1.44Z"/><path class="cls-12" d="M46.92,104.29l.29,2.69c.01.57.03,1.16.04,1.71.02.71.03,2.53.05,4.74.02,2.33.03,5.08.05,7.38-.06.14-.12.28-.19.41-.01-3.21-.02-6.91-.03-7.26-.04-1.28-.07-2.57-.1-3.86,0-.29,0-.57-.01-.86,0-.45-.01-.9-.02-1.36-.02-1.2-.05-2.39-.08-3.59Z"/><path class="cls-12" d="M43.61,97.64c.36-5.09-.1-10.21-.1-15.31.02-.78.03-1.59.05-2.38.02-.76.04-1.53.06-2.29h.11c-.02.74-.03,1.49-.05,2.23-.01.78-.03,1.58-.04,2.36.09,5.84.43,11.46.14,17.3,0,.64-.01,1.27-.03,1.91-.03,1.27-.07,2.55-.13,3.82.02.81.02,1.73.03,2.58.07,1.95.14,3.86.2,5.76.02.64.04,1.32.06,1.95.01.39.03,4.32.04,7.61-.06,0-.11.01-.16.01-.02-3.46-.04-7.99-.06-8.46-.02-.66-.04-1.32-.07-1.97-.04-1.3-.09-2.6-.14-3.89-.02-.64-.03-1.27-.04-1.89-.01-.63-.01-1.28-.03-1.88.03-1.85.06-3.71.09-5.57.01-.62.02-1.25.04-1.89Z"/><path class="cls-12" d="M45.8,113c-.02-.7-.04-1.39-.06-2.09.02.65.05,1.29.07,1.94.03.71.05,1.47.07,2.17.01.26.02,4.34.03,7.57-.01.01-.03.02-.04.02,0-3.19,0-7.2-.01-7.43-.02-.69-.04-1.47-.06-2.18Z"/><path class="cls-12" d="M45.73,110.73s0,.02,0,.03c0,.05,0,.11,0,.16,0-.06,0-.12,0-.18Z"/><path class="cls-12" d="M47.4,108.66l.12,1.14c.03.96.07,4.75.11,8.39,0,.57.01,1.14.02,1.69-.04.16-.08.31-.12.46-.02-1.38-.03-2.9-.05-4.37v-.03c-.03-3.26-.06-6.31-.08-7.28Z"/><path class="cls-12" d="M47.15,97.35s-.02-.07-.04-.11c-.02-.05-.03-.09-.05-.14,0,.54.02,1.07.04,1.61.03.02.07.03.1.05-.02-.47-.03-.94-.04-1.42Z"/><path class="cls-12" d="M47.98,99.24c.02-.06.04-.13.06-.19-.02-.24-.04-.49-.07-.73-.06-.06-.11-.12-.17-.18.03.35.07.7.11,1.05.02.01.04.03.07.05Z"/><path class="cls-12" d="M42.51,113.44c.01.58.04,1.16.06,1.73.03.74.07,1.52.11,2.26,0,.2.01,2.98.02,5.74-.03,0-.06,0-.09-.01-.02-3.36-.04-7.37-.05-7.8-.02-.64-.03-1.28-.04-1.92Z"/><path class="cls-12" d="M42.5,106.13c-.08,2.46-.06,4.89,0,7.31-.04-2.32-.03-4.63.05-6.94,0-.75.01-1.5.03-2.25.01-.75.03-1.51.06-2.28,0-.04-.01-.08-.02-.12-.04.67-.07,1.33-.09,1.97-.02.77-.04,1.54-.05,2.31Z"/><path class="cls-12" d="M41.38,103.79c0-.8-.01-1.61-.01-2.41,0-.77,0-1.57,0-2.34.03-.58.06-1.16.08-1.74.03-.58.05-1.18.07-1.75,0-.79.01-1.58.02-2.41.08-5.23.42-10.34.35-15.49h.15c.03,5.48-.35,11.02-.4,16.56-.01.68-.03,1.38-.04,2.06-.03.7-.07,1.39-.12,2.09-.01.83-.01,1.61,0,2.38,0,.51,0,1.08.01,1.6,0,.64.01,1.27.02,1.91,0,.65,0,1.32.01,1.97-.11,3.3-.1,6.59,0,9.87.02.67.04,1.37.06,2.04,0,.19,0,2.37,0,4.78-.06-.02-.12-.05-.19-.08,0-2.8-.02-5.46-.04-5.86-.04-.82-.08-1.63-.11-2.45-.14-3.25-.22-6.48-.16-9.55.13-.39.28-.77.28-1.18Z"/><path class="cls-12" d="M38.77,110.76c.02.22.04.44.06.66,0-.25-.02-.49-.03-.74-.01.03-.02.05-.03.08Z"/><path class="cls-12" d="M38.84,111.42c.01.29.02.58.02.87,0,0,0,0,0-.01,0-.25-.01-.5-.02-.75,0-.04,0-.07-.01-.11Z"/><path class="cls-12" d="M43.07,83.81c-.05,1.39-.05,2.8-.04,4.22.01-1.13.02-2.27.02-3.4,0-.28,0-.55.02-.83Z"/><path class="cls-12" d="M42.93,109.85c0-.73,0-1.46,0-2.19,0-.72,0-1.45,0-2.18,0-.73.04-1.52.06-2.25.09-1.35.11-2.71.1-4.08,0-.68-.01-1.37-.03-2.06-.09-3.05-.05-6.06-.02-9.06.04,3.04.18,6.12.16,9.12.01.68.01,1.37.01,2.05,0,1.36-.04,2.72-.14,4.09-.02.88-.03,1.75-.03,2.61s0,1.71.02,2.56c.01.71.02,1.43.03,2.14,0,1.15.03,2.32.06,3.49.02.59.04,1.18.06,1.77.01.39.03,4.1.05,7.35-.03,0-.05,0-.08,0-.02-3.11-.04-6.52-.05-6.86-.02-.69-.05-1.44-.08-2.16-.03-.72-.06-1.44-.1-2.15-.02-.72-.03-1.45-.04-2.18Z"/><path class="cls-12" d="M43.19,77.65h.1c-.03,1.03-.06,2.07-.1,3.1-.03.82-.06,1.64-.09,2.46,0,.2-.02.4-.02.6,0-.42.02-.83.03-1.25.04-1.63.08-3.27.09-4.9Z"/><path class="cls-12" d="M42.17,93.72c-.11-5.41.36-10.72.43-16.07h.41c-.02,1.64-.06,3.28-.12,4.93-.03.71-.05,1.42-.08,2.13-.16,2.88-.22,5.69-.23,8.58-.03.49-.05.98-.08,1.48,0,.14,0,.28,0,.41-.03,2.12-.01,4.22.17,6.28,0,.13-.02.26-.02.39-.18-1.26-.24-2.51-.24-3.78-.01,1.15-.03,2.31-.05,3.48,0,.7,0,1.41.01,2.11,0-.01,0-.02,0-.03-.07-.62-.13-1.23-.17-1.85-.04-.63-.07-1.31-.1-1.91.05-1.51.08-3.05.09-4.59,0-.52,0-1.04,0-1.56Z"/><path class="cls-12" d="M42.36,103.66c0,.14,0,.27,0,.41.01-.13.01-.26,0-.41Z"/><path class="cls-12" d="M42.37,104.06v.05c0,.77.01,1.54.03,2.31.01.77.02,1.55.02,2.36-.06,2.3-.05,4.6,0,6.9.01.44.03,4.16.05,7.44-.11-.02-.21-.04-.31-.06-.01-3.01-.02-6.18-.03-6.49-.02-.6-.03-1.19-.04-1.79-.06-2.99-.04-6-.07-9.01-.04-.67.29-1.13.35-1.71Z"/><path class="cls-12" d="M45.29,77.65c0,.52,0,1.08,0,1.52.07,1.17.14,2.35.21,3.52-.07-.88-.16-1.76-.26-2.63-.02-.62-.03-1.21-.03-1.79,0-.21.01-.41.02-.62h.06Z"/><path class="cls-12" d="M39.31,116.14c.03-.28.06-.56.09-.85,0,.16,0,.32,0,.48,0,.68.01,1.38.03,2.13.01.24.03,1.33.03,2.79-.04-.11-.08-.22-.11-.34,0-1.07,0-1.83,0-2-.02-.78-.03-1.51-.04-2.21Z"/><path class="cls-12" d="M39.49,89.13s-.01.04-.02.06c-.04.11-.07.21-.11.32-.01.25-.03.49-.05.74.04.07.08.15.11.22.03-.45.05-.89.07-1.34Z"/><path class="cls-12" d="M39.94,96.37c.02-.34.04-.68.06-1.02-.06.06-.12.12-.18.18-.01.12-.03.25-.04.37-.04.45-.07.9-.1,1.35l.22-.12c.01-.25.02-.51.04-.76Z"/><path class="cls-12" d="M39.83,108.32c.04-.09.08-.17.13-.26,0,0,0-.01.01-.02v.18c0,.77.03,1.59.03,2.37,0,1.36.02,2.72.05,4.07.01.68.03,1.41.05,2.03.01.69.02,1.37.04,2.05,0,.16,0,1.45,0,3.11-.07-.08-.13-.17-.19-.26,0-2.07-.01-3.8-.01-4.04-.01-.67-.03-1.31-.03-1.94-.02-1.25-.02-2.5-.03-3.74,0-.39,0-.77,0-1.16,0-.1.02-.19.03-.29,0,.02-.02.03-.03.05h0s0-.74,0-.74c-.01-.48-.03-.96-.05-1.44Z"/><path class="cls-12" d="M40.53,86.46c-.04.09-.08.19-.12.28-.03.06-.05.13-.08.2-.01.67-.03,1.34-.06,2,.05-.1.11-.19.16-.29.04-.73.07-1.46.1-2.2Z"/><path class="cls-12" d="M39.02,118.71h0s0-.04,0-.06c0,.24.01.48.02.73-.01-.23-.02-.45-.03-.67Z"/><path class="cls-12" d="M39.24,111.6c.04-.08.09-.16.13-.23,0-.64-.02-1.29-.04-1.97-.05.12-.11.24-.16.37-.01.03-.03.06-.04.09.03.36.06.72.09,1.08,0,.22,0,.45.01.67Z"/><path class="cls-12" d="M39,96.76c.02-.18.03-.36.05-.53-.1.08-.19.15-.28.2-.01.13-.03.26-.04.39-.02.33-.04.67-.05,1.01l.27-.16c.01-.31.03-.61.05-.92Z"/><path class="cls-12" d="M38.36,113.01s.04.06.06.09c.01-.03.03-.06.04-.08-.01-.44-.03-.9-.04-1.33-.04.1-.08.21-.11.31.02.33.04.67.05,1.01Z"/><path class="cls-12" d="M39.05,119.45s0,.16,0,.35c0-.2,0-.32,0-.35Z"/><path class="cls-12" d="M40.69,106.93c.02.33.09.64.16.94.01-1.01.03-2.02.05-3.03,0-.25,0-.5,0-.74-.05,1.04-.27,1.86-.21,2.84Z"/><path class="cls-12" d="M46.96,98.64c-.02-.65-.03-1.3-.05-1.95-.06-.18-.12-.37-.18-.55,0,.8,0,1.6.03,2.4.07.03.13.07.2.1Z"/><path class="cls-12" d="M46.63,82.1c0-.76,0-1.52-.01-2.28,0-.07,0-.14,0-.21-.06-.16-.13-.31-.19-.46-.03-.08-.06-.15-.09-.22.05.93.09,1.87.12,2.81.06.12.12.24.18.35Z"/><path class="cls-12" d="M40.85,107.87c.11.45.22.88.18,1.38-.04,2.11-.03,4.21.02,6.32.02.71.04,1.47.07,2.18,0,.29,0,2.49,0,4.95-.07-.03-.13-.07-.19-.11,0-2.55,0-4.87,0-5.22-.03-.61-.04-1.43-.05-2.14-.05-2.46-.05-4.91-.02-7.35Z"/><path class="cls-12" d="M47.21,81.3c-.03-.1-.07-.21-.1-.31-.02-.06-.04-.12-.06-.18,0,.71,0,1.42-.01,2.13.05.1.1.21.14.31.02-.65.02-1.3.03-1.95Z"/><path class="cls-12" d="M46.5,100.42l.11,1.07c0,.14,0,.29,0,.43.01.73.03,1.47.05,2.2v.06c.02.71.04,1.43.07,2.14.02.86.03,1.64.05,2.41.03,1.55.07,3.1.11,4.64.01.47.03,4.77.04,8.22-.06.09-.12.17-.18.24-.01-3.47-.02-7.88-.03-8.36-.03-1.53-.06-3.06-.08-4.59-.01-.77-.03-1.58-.04-2.38-.03-.77-.05-1.53-.06-2.3-.02-.77-.03-1.53-.04-2.29v-.13c0-.45,0-.9,0-1.35Z"/><path class="cls-12" d="M46.52,95.42c0,1-.01,2-.01,2.99.03.01.06.03.09.05,0-.93,0-1.87,0-2.8-.02-.08-.04-.16-.06-.24Z"/><path class="cls-3" d="M39.03,68.03c0,.24.01.48.02.73-.01-.23-.02-.45-.03-.67h0s0-.04,0-.06Z"/><path class="cls-2" d="M38.53,60.76c.11-.28.21-.55.32-.83.05-.13.11-.27.16-.4.06-.13.11-.26.17-.39.11-.26.22-.51.32-.74.1-.23.21-.46.31-.66,0-.01.01-.03.02-.04.04-.09.08-.17.13-.25,0,0,0-.01.01-.02h0c.04-.09.09-.17.13-.24,0-.01.01-.02.02-.04.17-2.94.8-11.22.8-11.22l-2.3,1.32-.25-1.17s2.83-1.66,2.79-3.88c-.01-.74.05-2.2.04-5.46-.03.05-.06.1-.09.15-.07.12-.14.24-.22.37-.15.25-.29.51-.44.76-.15.25-.29.51-.43.77-.14.26-.27.51-.4.75-.06.12-.12.23-.18.35-.08-.17-.17-.33-.26-.5,0,0,0-.01,0-.01.09-.26.19-.53.28-.8.1-.27.19-.55.3-.83.1-.28.21-.55.32-.82.05-.14.11-.27.16-.4.06-.13.11-.27.17-.39.11-.26.22-.5.32-.74.1-.24.21-.46.32-.66.04-.09.08-.17.12-.26,0-1.36.07-4.13.2-7.43h4.38s0,.1,0,.14c.03.06.1.18.19.35.07.12.14.27.22.44.04.08.08.17.13.27.04.1.08.2.13.3.08.21.18.44.27.68.09.24.19.5.28.76.04.13.09.27.14.4.04.14.08.27.13.41.09.28.18.56.26.84.09.28.17.56.25.84.07.24.13.47.19.7-.09.18-.18.36-.28.54-.04-.1-.09-.19-.13-.29-.11-.25-.23-.51-.35-.77-.12-.26-.25-.53-.37-.79-.13-.27-.25-.53-.39-.79-.07-.13-.13-.26-.19-.38-.07-.12-.13-.25-.19-.37-.05-.1-.1-.18-.15-.27.35,7.72-.66,11.8,1.23,16.57.03.08.05.15.07.22.03.03.06.07.09.1.14.16.28.31.43.47.15.16.3.32.46.48.01.01.02.02.04.04-.06.23-.13.46-.21.69-.11-.07-.22-.15-.33-.22-.11-.07-1.28-.66-1.39-.74l.24,3.49.16,2.4.35,5.06.28,4.18.17,2.52v.03l.15,2.22.09,1.34c-.02.12-.05.24-.07.36-.04.16-.08.31-.12.46-.05.16-.1.31-.17.46-.06.14-.12.28-.19.41-.07.13-.14.25-.22.37-.06.08-.12.17-.18.24-.24.3-.52.55-.85.76-.01.01-.03.02-.04.02-.14.09-.3.17-.46.24-.07.03-.13.05-.2.08-.09.03-.18.06-.28.09-.1.03-.2.05-.31.07-.2.04-.42.08-.65.1-.06,0-.11.01-.16.01-.12.01-.26.01-.39.01-.06,0-.11,0-.16,0-.03,0-.05,0-.08,0-.17,0-.33-.02-.49-.04-.03,0-.06,0-.09-.01-.05,0-.1-.01-.14-.02-.11-.02-.21-.04-.31-.06-.19-.04-.37-.1-.54-.16-.06-.02-.12-.05-.19-.08-.1-.04-.2-.09-.3-.15-.07-.03-.13-.07-.19-.11-.3-.19-.56-.43-.78-.7-.07-.08-.13-.17-.19-.26-.19-.28-.35-.59-.48-.93-.04-.11-.08-.22-.11-.34-.18-.56-.28-1.2-.31-1.87.08-.68.17-1.48.26-2.34.03-.28.06-.56.09-.85h0c.17-1.54.34-3.18.48-4.55,0-.1.02-.19.03-.29,0,.01-.02.03-.03.04,0,.01-.01.02-.02.03-.07.12-.14.24-.22.37-.15.25-.29.5-.44.76-.15.26-.29.52-.43.77-.12.23-.25.46-.37.68-.11-.17-.22-.34-.32-.51.04-.13.09-.26.14-.39.1-.27.2-.55.3-.82Z"/><path class="cls-12" d="M45.61,53.28c0-.77,0-1.53.02-2.3.27-6.33.39-12.7-.12-18.91.33,6.1.47,12.23.1,18.51,0,.78-.02,1.63-.02,2.42-.06,1.65,0,3.14.07,4.73.03.79.05,1.58.08,2.36-.02-.74-.04-1.47-.06-2.21-.05-1.54-.07-3.08-.06-4.61Z"/><path class="cls-12" d="M44.71,27.03h.17s0,.05,0,.07c-.02.69-.03,1.48-.04,2.19.41,6.86.75,13.63.27,20.77,0,.8-.02,1.68-.03,2.48,0,1.6,0,3.2.03,4.8.04.83.08,1.66.11,2.49.03.63.05,1.25.07,1.87.02.63.04,1.25.06,1.88.02.5.03,5.14.05,8.64-.07.03-.13.05-.2.08-.01-3.4-.03-7.81-.05-8.22-.03-.74-.06-1.53-.08-2.28-.06-1.48-.11-2.97-.18-4.45-.03-.86-.07-1.74-.09-2.69.05-.71.08-1.42.12-2.13.03-.71.06-1.42.08-2.13.41-6.51.24-12.79-.22-19.4-.12-1.16-.06-2.31-.08-3.44,0-.18,0-.37,0-.55Z"/><path class="cls-12" d="M44.21,28.11c0-.36.03-.72.04-1.08h.17c0,.38,0,.75-.01,1.13-.03,4.02.32,7.66.49,11.62.17,3.8-.23,7.44-.28,11.02-.01.8-.03,1.6-.05,2.4-.02.8-.04,1.61-.05,2.41.07.73.1,1.67.14,2.51.04.73.07,1.46.11,2.19.03.73.06,1.47.08,2.2.03.82.06,6.04.08,9.88-.1.03-.2.05-.31.07-.01-3.42-.03-7.76-.03-8.21-.03-.78-.06-1.62-.09-2.4-.07-1.56-.15-3.13-.26-4.69-.03-.83-.05-1.65-.06-2.5,0-.67.02-1.34.03-2.02.01-.67.03-1.34.04-2.02.47-6.72.36-13.33-.08-20.06,0-.84.01-1.65.04-2.46Z"/><path class="cls-12" d="M47.58,31.87c-.03-.08-.05-.17-.08-.25-.01-.04-.02-.08-.04-.12-.01.17-.02.34-.04.52-.02.34-.04.69-.06,1.03.04.09.08.18.13.27.03-.48.06-.96.09-1.44Z"/><path class="cls-12" d="M46.92,53.67l.29,2.69c.01.57.03,1.16.04,1.71.02.71.03,2.53.05,4.74.02,2.33.03,5.08.05,7.38-.06.14-.12.28-.19.41-.01-3.21-.02-6.91-.03-7.26-.04-1.28-.07-2.57-.1-3.86,0-.29,0-.57-.01-.86,0-.45-.01-.9-.02-1.36-.02-1.2-.05-2.39-.08-3.59Z"/><path class="cls-12" d="M43.61,47.02c.36-5.09-.1-10.21-.1-15.31.02-.78.03-1.59.05-2.38.02-.76.04-1.53.06-2.29h.11c-.02.74-.03,1.49-.05,2.23-.01.78-.03,1.58-.04,2.36.09,5.84.43,11.46.14,17.3,0,.64-.01,1.27-.03,1.91-.03,1.27-.07,2.55-.13,3.82.02.81.02,1.73.03,2.58.07,1.95.14,3.86.2,5.76.02.64.04,1.32.06,1.95.01.39.03,4.32.04,7.61-.06,0-.11.01-.16.01-.02-3.46-.04-7.99-.06-8.46-.02-.66-.04-1.32-.07-1.97-.04-1.3-.09-2.6-.14-3.89-.02-.64-.03-1.27-.04-1.89-.01-.63-.01-1.28-.03-1.88.03-1.85.06-3.71.09-5.57.01-.62.02-1.25.04-1.89Z"/><path class="cls-12" d="M45.8,62.38c-.02-.7-.04-1.39-.06-2.09.02.65.05,1.29.07,1.94.03.71.05,1.47.07,2.17.01.26.02,4.34.03,7.57-.01.01-.03.02-.04.02,0-3.19,0-7.2-.01-7.43-.02-.69-.04-1.47-.06-2.18Z"/><path class="cls-12" d="M45.73,60.1s0,.02,0,.03c0,.05,0,.11,0,.16,0-.06,0-.12,0-.18Z"/><path class="cls-12" d="M47.4,58.04l.12,1.14c.03.96.07,4.75.11,8.39,0,.57.01,1.14.02,1.69-.04.16-.08.31-.12.46-.02-1.38-.03-2.9-.05-4.37v-.03c-.03-3.26-.06-6.31-.08-7.28Z"/><path class="cls-12" d="M47.15,46.73s-.02-.07-.04-.11c-.02-.05-.03-.09-.05-.14,0,.54.02,1.07.04,1.61.03.02.07.03.1.05-.02-.47-.03-.94-.04-1.42Z"/><path class="cls-12" d="M47.98,48.62c.02-.06.04-.13.06-.19-.02-.24-.04-.49-.07-.73-.06-.06-.11-.12-.17-.18.03.35.07.7.11,1.05.02.01.04.03.07.05Z"/><path class="cls-12" d="M42.51,62.81c.01.58.04,1.16.06,1.73.03.74.07,1.52.11,2.26,0,.2.01,2.98.02,5.74-.03,0-.06,0-.09-.01-.02-3.36-.04-7.37-.05-7.8-.02-.64-.03-1.28-.04-1.92Z"/><path class="cls-12" d="M42.5,55.5c-.08,2.46-.06,4.89,0,7.31-.04-2.32-.03-4.63.05-6.94,0-.75.01-1.5.03-2.25.01-.75.03-1.51.06-2.28,0-.04-.01-.08-.02-.12-.04.67-.07,1.33-.09,1.97-.02.77-.04,1.54-.05,2.31Z"/><path class="cls-12" d="M41.38,53.17c0-.8-.01-1.61-.01-2.41,0-.77,0-1.57,0-2.34.03-.58.06-1.16.08-1.74.03-.58.05-1.18.07-1.75,0-.79.01-1.58.02-2.41.08-5.23.42-10.34.35-15.49h.15c.03,5.48-.35,11.02-.4,16.56-.01.68-.03,1.38-.04,2.06-.03.7-.07,1.39-.12,2.09-.01.83-.01,1.61,0,2.38,0,.51,0,1.08.01,1.6,0,.64.01,1.27.02,1.91,0,.65,0,1.32.01,1.97-.11,3.3-.1,6.59,0,9.87.02.67.04,1.37.06,2.04,0,.19,0,2.37,0,4.78-.06-.02-.12-.05-.19-.08,0-2.8-.02-5.46-.04-5.86-.04-.82-.08-1.63-.11-2.45-.14-3.25-.22-6.48-.16-9.55.13-.39.28-.77.28-1.18Z"/><path class="cls-12" d="M38.77,60.14c.02.22.04.44.06.66,0-.25-.02-.49-.03-.74-.01.03-.02.05-.03.08Z"/><path class="cls-12" d="M38.84,60.8c.01.29.02.58.02.87,0,0,0,0,0-.01,0-.25-.01-.5-.02-.75,0-.04,0-.07-.01-.11Z"/><path class="cls-12" d="M43.07,33.18c-.05,1.39-.05,2.8-.04,4.22.01-1.13.02-2.27.02-3.4,0-.28,0-.55.02-.83Z"/><path class="cls-12" d="M42.93,59.23c0-.73,0-1.46,0-2.19,0-.72,0-1.45,0-2.18,0-.73.04-1.52.06-2.25.09-1.35.11-2.71.1-4.08,0-.68-.01-1.37-.03-2.06-.09-3.05-.05-6.06-.02-9.06.04,3.04.18,6.12.16,9.12.01.68.01,1.37.01,2.05,0,1.36-.04,2.72-.14,4.09-.02.88-.03,1.75-.03,2.61s0,1.71.02,2.56c.01.71.02,1.43.03,2.14,0,1.15.03,2.32.06,3.49.02.59.04,1.18.06,1.77.01.39.03,4.1.05,7.35-.03,0-.05,0-.08,0-.02-3.11-.04-6.52-.05-6.86-.02-.69-.05-1.44-.08-2.16-.03-.72-.06-1.44-.1-2.15-.02-.72-.03-1.45-.04-2.18Z"/><path class="cls-12" d="M43.19,27.03h.1c-.03,1.03-.06,2.07-.1,3.1-.03.82-.06,1.64-.09,2.46,0,.2-.02.4-.02.6,0-.42.02-.83.03-1.25.04-1.63.08-3.27.09-4.9Z"/><path class="cls-12" d="M42.17,43.1c-.11-5.41.36-10.72.43-16.07h.41c-.02,1.64-.06,3.28-.12,4.93-.03.71-.05,1.42-.08,2.13-.16,2.88-.22,5.69-.23,8.58-.03.49-.05.98-.08,1.48,0,.14,0,.28,0,.41-.03,2.12-.01,4.22.17,6.28,0,.13-.02.26-.02.39-.18-1.26-.24-2.51-.24-3.78-.01,1.15-.03,2.31-.05,3.48,0,.7,0,1.41.01,2.11,0-.01,0-.02,0-.03-.07-.62-.13-1.23-.17-1.85-.04-.63-.07-1.31-.1-1.91.05-1.51.08-3.05.09-4.59,0-.52,0-1.04,0-1.56Z"/><path class="cls-12" d="M42.36,53.03c0,.14,0,.27,0,.41.01-.13.01-.26,0-.41Z"/><path class="cls-12" d="M42.37,53.44v.05c0,.77.01,1.54.03,2.31.01.77.02,1.55.02,2.36-.06,2.3-.05,4.6,0,6.9.01.44.03,4.16.05,7.44-.11-.02-.21-.04-.31-.06-.01-3.01-.02-6.18-.03-6.49-.02-.6-.03-1.19-.04-1.79-.06-2.99-.04-6-.07-9.01-.04-.67.29-1.13.35-1.71Z"/><path class="cls-12" d="M45.29,27.03c0,.52,0,1.08,0,1.52.07,1.17.14,2.35.21,3.52-.07-.88-.16-1.76-.26-2.63-.02-.62-.03-1.21-.03-1.79,0-.21.01-.41.02-.62h.06Z"/><path class="cls-12" d="M39.31,65.52c.03-.28.06-.56.09-.85,0,.16,0,.32,0,.48,0,.68.01,1.38.03,2.13.01.24.03,1.33.03,2.79-.04-.11-.08-.22-.11-.34,0-1.07,0-1.83,0-2-.02-.78-.03-1.51-.04-2.21Z"/><path class="cls-12" d="M39.49,38.51s-.01.04-.02.06c-.04.11-.07.21-.11.32-.01.25-.03.49-.05.74.04.07.08.15.11.22.03-.45.05-.89.07-1.34Z"/><path class="cls-12" d="M39.94,45.74c.02-.34.04-.68.06-1.02-.06.06-.12.12-.18.18-.01.12-.03.25-.04.37-.04.45-.07.9-.1,1.35l.22-.12c.01-.25.02-.51.04-.76Z"/><path class="cls-12" d="M39.83,57.7c.04-.09.08-.17.13-.26,0,0,0-.01.01-.02v.18c0,.77.03,1.59.03,2.37,0,1.36.02,2.72.05,4.07.01.68.03,1.41.05,2.03.01.69.02,1.37.04,2.05,0,.16,0,1.45,0,3.11-.07-.08-.13-.17-.19-.26,0-2.07-.01-3.8-.01-4.04-.01-.67-.03-1.31-.03-1.94-.02-1.25-.02-2.5-.03-3.74,0-.39,0-.77,0-1.16,0-.1.02-.19.03-.29,0,.02-.02.03-.03.05h0s0-.74,0-.74c-.01-.48-.03-.96-.05-1.44Z"/><path class="cls-12" d="M40.53,35.84c-.04.09-.08.19-.12.28-.03.06-.05.13-.08.2-.01.67-.03,1.34-.06,2,.05-.1.11-.19.16-.29.04-.73.07-1.46.1-2.2Z"/><path class="cls-12" d="M39.02,68.09h0s0-.04,0-.06c0,.24.01.48.02.73-.01-.23-.02-.45-.03-.67Z"/><path class="cls-12" d="M39.24,60.98c.04-.08.09-.16.13-.23,0-.64-.02-1.29-.04-1.97-.05.12-.11.24-.16.37-.01.03-.03.06-.04.09.03.36.06.72.09,1.08,0,.22,0,.45.01.67Z"/><path class="cls-12" d="M39,46.13c.02-.18.03-.36.05-.53-.1.08-.19.15-.28.2-.01.13-.03.26-.04.39-.02.33-.04.67-.05,1.01l.27-.16c.01-.31.03-.61.05-.92Z"/><path class="cls-12" d="M38.36,62.39s.04.06.06.09c.01-.03.03-.06.04-.08-.01-.44-.03-.9-.04-1.33-.04.1-.08.21-.11.31.02.33.04.67.05,1.01Z"/><path class="cls-12" d="M39.05,68.83s0,.16,0,.35c0-.2,0-.32,0-.35Z"/><path class="cls-12" d="M40.69,56.31c.02.33.09.64.16.94.01-1.01.03-2.02.05-3.03,0-.25,0-.5,0-.74-.05,1.04-.27,1.86-.21,2.84Z"/><path class="cls-12" d="M46.96,48.02c-.02-.65-.03-1.3-.05-1.95-.06-.18-.12-.37-.18-.55,0,.8,0,1.6.03,2.4.07.03.13.07.2.1Z"/><path class="cls-12" d="M46.63,31.48c0-.76,0-1.52-.01-2.28,0-.07,0-.14,0-.21-.06-.16-.13-.31-.19-.46-.03-.08-.06-.15-.09-.22.05.93.09,1.87.12,2.81.06.12.12.24.18.35Z"/><path class="cls-12" d="M40.85,57.25c.11.45.22.88.18,1.38-.04,2.11-.03,4.21.02,6.32.02.71.04,1.47.07,2.18,0,.29,0,2.49,0,4.95-.07-.03-.13-.07-.19-.11,0-2.55,0-4.87,0-5.22-.03-.61-.04-1.43-.05-2.14-.05-2.46-.05-4.91-.02-7.35Z"/><path class="cls-12" d="M47.21,30.68c-.03-.1-.07-.21-.1-.31-.02-.06-.04-.12-.06-.18,0,.71,0,1.42-.01,2.13.05.1.1.21.14.31.02-.65.02-1.3.03-1.95Z"/><path class="cls-12" d="M46.5,49.8l.11,1.07c0,.14,0,.29,0,.43.01.73.03,1.47.05,2.2v.06c.02.71.04,1.43.07,2.14.02.86.03,1.64.05,2.41.03,1.55.07,3.1.11,4.64.01.47.03,4.77.04,8.22-.06.09-.12.17-.18.24-.01-3.47-.02-7.88-.03-8.36-.03-1.53-.06-3.06-.08-4.59-.01-.77-.03-1.58-.04-2.38-.03-.77-.05-1.53-.06-2.3-.02-.77-.03-1.53-.04-2.29v-.13c0-.45,0-.9,0-1.35Z"/><path class="cls-12" d="M46.52,44.8c0,1-.01,2-.01,2.99.03.01.06.03.09.05,0-.93,0-1.87,0-2.8-.02-.08-.04-.16-.06-.24Z"/><path class="cls-6" d="M55.7,31.59c0-.24.01-.48.02-.73-.01.23-.02.45-.03.67h0s0,.04,0,.06Z"/><path class="cls-13" d="M55.2,38.86c.11.28.21.55.32.83.05.13.11.27.16.4.06.13.11.26.17.39.11.26.22.51.32.74.1.23.21.46.31.66,0,.01.01.03.02.04.04.09.08.17.13.25,0,0,0,.01.01.02h0c.04.09.09.17.13.24,0,.01.01.02.02.04.17,2.94.8,11.22.8,11.22l-2.3-1.32-.25,1.17s2.83,1.66,2.79,3.88c-.01.74.05,2.2.04,5.46-.03-.05-.06-.1-.09-.15-.07-.12-.14-.24-.22-.37-.15-.25-.29-.51-.44-.76-.15-.25-.29-.51-.43-.77-.14-.26-.27-.51-.4-.75-.06-.12-.12-.23-.18-.35-.08.17-.17.33-.26.5,0,0,0,.01,0,.01.09.26.19.53.28.8.1.27.19.55.3.83.1.28.21.55.32.82.05.14.11.27.16.4.06.13.11.27.17.39.11.26.22.5.32.74.1.24.21.46.32.66.04.09.08.17.12.26,0,1.36.07,4.13.2,7.43h4.38s0-.1,0-.14c.03-.06.1-.18.19-.35.07-.12.14-.27.22-.44.04-.08.08-.17.13-.27.04-.1.08-.2.13-.3.08-.21.18-.44.27-.68.09-.24.19-.5.28-.76.04-.13.09-.27.14-.4.04-.14.08-.27.13-.41.09-.28.18-.56.26-.84.09-.28.17-.56.25-.84.07-.24.13-.47.19-.7-.09-.18-.18-.36-.28-.54-.04.1-.09.19-.13.29-.11.25-.23.51-.35.77-.12.26-.25.53-.37.79-.13.27-.25.53-.39.79-.07.13-.13.26-.19.38-.07.12-.13.25-.19.37-.05.1-.1.18-.15.27.35-7.72-.66-11.8,1.23-16.57.03-.08.05-.15.07-.22.03-.03.06-.07.09-.1.14-.16.28-.31.43-.47.15-.16.3-.32.46-.48.01-.01.02-.02.04-.04-.06-.23-.13-.46-.21-.69-.11.07-.22.15-.33.22-.11.07-1.28.66-1.39.74l.24-3.49.16-2.4.35-5.06.28-4.18.17-2.52v-.03l.15-2.22.09-1.34c-.02-.12-.05-.24-.07-.36-.04-.16-.08-.31-.12-.46-.05-.16-.1-.31-.17-.46-.06-.14-.12-.28-.19-.41-.07-.13-.14-.25-.22-.37-.06-.08-.12-.17-.18-.24-.24-.3-.52-.55-.85-.76-.01-.01-.03-.02-.04-.02-.14-.09-.3-.17-.46-.24-.07-.03-.13-.05-.2-.08-.09-.03-.18-.06-.28-.09-.1-.03-.2-.05-.31-.07-.2-.04-.42-.08-.65-.1-.06,0-.11-.01-.16-.01-.12-.01-.26-.01-.39-.01-.06,0-.11,0-.16,0-.03,0-.05,0-.08,0-.17,0-.33.02-.49.04-.03,0-.06,0-.09.01-.05,0-.1.01-.14.02-.11.02-.21.04-.31.06-.19.04-.37.1-.54.16-.06.02-.12.05-.19.08-.1.04-.2.09-.3.15-.07.03-.13.07-.19.11-.3.19-.56.43-.78.7-.07.08-.13.17-.19.26-.19.28-.35.59-.48.93-.04.11-.08.22-.11.34-.18.56-.28,1.2-.31,1.87.08.68.17,1.48.26,2.34.03.28.06.56.09.85h0c.17,1.54.34,3.18.48,4.55,0,.1.02.19.03.29,0-.01-.02-.03-.03-.04,0-.01-.01-.02-.02-.03-.07-.12-.14-.24-.22-.37-.15-.25-.29-.5-.44-.76-.15-.26-.29-.52-.43-.77-.12-.23-.25-.46-.37-.68-.11.17-.22.34-.32.51.04.13.09.26.14.39.1.27.2.55.3.82Z"/><path class="cls-11" d="M62.28,46.33c0,.77,0,1.53.02,2.3.27,6.33.39,12.7-.12,18.91.33-6.1.47-12.23.1-18.51,0-.78-.02-1.63-.02-2.42-.06-1.65,0-3.14.07-4.73.03-.79.05-1.58.08-2.36-.02.74-.04,1.47-.06,2.21-.05,1.54-.07,3.08-.06,4.61Z"/><path class="cls-11" d="M61.38,72.59h.17s0-.05,0-.07c-.02-.69-.03-1.48-.04-2.19.41-6.86.75-13.63.27-20.77,0-.8-.02-1.68-.03-2.48,0-1.6,0-3.2.03-4.8.04-.83.08-1.66.11-2.49.03-.63.05-1.25.07-1.87.02-.63.04-1.25.06-1.88.02-.5.03-5.14.05-8.64-.07-.03-.13-.05-.2-.08-.01,3.4-.03,7.81-.05,8.22-.03.74-.06,1.53-.08,2.28-.06,1.48-.11,2.97-.18,4.45-.03.86-.07,1.74-.09,2.69.05.71.08,1.42.12,2.13.03.71.06,1.42.08,2.13.41,6.51.24,12.79-.22,19.4-.12,1.16-.06,2.31-.08,3.44,0,.18,0,.37,0,.55Z"/><path class="cls-11" d="M60.88,71.5c0,.36.03.72.04,1.08h.17c0-.38,0-.75-.01-1.13-.03-4.02.32-7.66.49-11.62.17-3.8-.23-7.44-.28-11.02-.01-.8-.03-1.6-.05-2.4-.02-.8-.04-1.61-.05-2.41.07-.73.1-1.67.14-2.51.04-.73.07-1.46.11-2.19.03-.73.06-1.47.08-2.2.03-.82.06-6.04.08-9.88-.1-.03-.2-.05-.31-.07-.01,3.42-.03,7.76-.03,8.21-.03.78-.06,1.62-.09,2.4-.07,1.56-.15,3.13-.26,4.69-.03.83-.05,1.65-.06,2.5,0,.67.02,1.34.03,2.02.01.67.03,1.34.04,2.02.47,6.72.36,13.33-.08,20.06,0,.84.01,1.65.04,2.46Z"/><path class="cls-11" d="M64.25,67.74c-.03.08-.05.17-.08.25-.01.04-.02.08-.04.12-.01-.17-.02-.34-.04-.52-.02-.34-.04-.69-.06-1.03.04-.09.08-.18.13-.27.03.48.06.96.09,1.44Z"/><path class="cls-11" d="M63.59,45.95l.29-2.69c.01-.57.03-1.16.04-1.71.02-.71.03-2.53.05-4.74.02-2.33.03-5.08.05-7.38-.06-.14-.12-.28-.19-.41-.01,3.21-.02,6.91-.03,7.26-.04,1.28-.07,2.57-.1,3.86,0,.29,0,.57-.01.86,0,.45-.01.9-.02,1.36-.02,1.2-.05,2.39-.08,3.59Z"/><path class="cls-11" d="M60.28,52.6c.36,5.09-.1,10.21-.1,15.31.02.78.03,1.59.05,2.38.02.76.04,1.53.06,2.29h.11c-.02-.74-.03-1.49-.05-2.23-.01-.78-.03-1.58-.04-2.36.09-5.84.43-11.46.14-17.3,0-.64-.01-1.27-.03-1.91-.03-1.27-.07-2.55-.13-3.82.02-.81.02-1.73.03-2.58.07-1.95.14-3.86.2-5.76.02-.64.04-1.32.06-1.95.01-.39.03-4.32.04-7.61-.06,0-.11-.01-.16-.01-.02,3.46-.04,7.99-.06,8.46-.02.66-.04,1.32-.07,1.97-.04,1.3-.09,2.6-.14,3.89-.02.64-.03,1.27-.04,1.89-.01.63-.01,1.28-.03,1.88.03,1.85.06,3.71.09,5.57.01.62.02,1.25.04,1.89Z"/><path class="cls-11" d="M62.47,37.24c-.02.7-.04,1.39-.06,2.09.02-.65.05-1.29.07-1.94.03-.71.05-1.47.07-2.17.01-.26.02-4.34.03-7.57-.01-.01-.03-.02-.04-.02,0,3.19,0,7.2-.01,7.43-.02.69-.04,1.47-.06,2.18Z"/><path class="cls-11" d="M62.4,39.51s0-.02,0-.03c0-.05,0-.11,0-.16,0,.06,0,.12,0,.18Z"/><path class="cls-11" d="M64.07,41.58l.12-1.14c.03-.96.07-4.75.11-8.39,0-.57.01-1.14.02-1.69-.04-.16-.08-.31-.12-.46-.02,1.38-.03,2.9-.05,4.37v.03c-.03,3.26-.06,6.31-.08,7.28Z"/><path class="cls-11" d="M63.82,52.89s-.02.07-.04.11c-.02.05-.03.09-.05.14,0-.54.02-1.07.04-1.61.03-.02.07-.03.1-.05-.02.47-.03.94-.04,1.42Z"/><path class="cls-11" d="M64.65,51c.02.06.04.13.06.19-.02.24-.04.49-.07.73-.06.06-.11.12-.17.18.03-.35.07-.7.11-1.05.02-.01.04-.03.07-.05Z"/><path class="cls-11" d="M59.19,36.8c.01-.58.04-1.16.06-1.73.03-.74.07-1.52.11-2.26,0-.2.01-2.98.02-5.74-.03,0-.06,0-.09.01-.02,3.36-.04,7.37-.05,7.8-.02.64-.03,1.28-.04,1.92Z"/><path class="cls-11" d="M59.17,44.11c-.08-2.46-.06-4.89,0-7.31-.04,2.32-.03,4.63.05,6.94,0,.75.01,1.5.03,2.25.01.75.03,1.51.06,2.28,0,.04-.01.08-.02.12-.04-.67-.07-1.33-.09-1.97-.02-.77-.04-1.54-.05-2.31Z"/><path class="cls-11" d="M58.05,46.45c0,.8-.01,1.61-.01,2.41,0,.77,0,1.57,0,2.34.03.58.06,1.16.08,1.74.03.58.05,1.18.07,1.75,0,.79.01,1.58.02,2.41.08,5.23.42,10.34.35,15.49h.15c.03-5.48-.35-11.02-.4-16.56-.01-.68-.03-1.38-.04-2.06-.03-.7-.07-1.39-.12-2.09-.01-.83-.01-1.61,0-2.38,0-.51,0-1.08.01-1.6,0-.64.01-1.27.02-1.91,0-.65,0-1.32.01-1.97-.11-3.3-.1-6.59,0-9.87.02-.67.04-1.37.06-2.04,0-.19,0-2.37,0-4.78-.06.02-.12.05-.19.08,0,2.8-.02,5.46-.04,5.86-.04.82-.08,1.63-.11,2.45-.14,3.25-.22,6.48-.16,9.55.13.39.28.77.28,1.18Z"/><path class="cls-11" d="M55.44,39.48c.02-.22.04-.44.06-.66,0,.25-.02.49-.03.74-.01-.03-.02-.05-.03-.08Z"/><path class="cls-11" d="M55.51,38.82c.01-.29.02-.58.02-.87,0,0,0,0,0,.01,0,.25-.01.5-.02.75,0,.04,0,.07-.01.11Z"/><path class="cls-11" d="M59.74,66.43c-.05-1.39-.05-2.8-.04-4.22.01,1.13.02,2.27.02,3.4,0,.28,0,.55.02.83Z"/><path class="cls-11" d="M59.6,40.39c0,.73,0,1.46,0,2.19,0,.72,0,1.45,0,2.18,0,.73.04,1.52.06,2.25.09,1.35.11,2.71.1,4.08,0,.68-.01,1.37-.03,2.06-.09,3.05-.05,6.06-.02,9.06.04-3.04.18-6.12.16-9.12.01-.68.01-1.37.01-2.05,0-1.36-.04-2.72-.14-4.09-.02-.88-.03-1.75-.03-2.61s0-1.71.02-2.56c.01-.71.02-1.43.03-2.14,0-1.15.03-2.32.06-3.49.02-.59.04-1.18.06-1.77.01-.39.03-4.1.05-7.35-.03,0-.05,0-.08,0-.02,3.11-.04,6.52-.05,6.86-.02.69-.05,1.44-.08,2.16-.03.72-.06,1.44-.1,2.15-.02.72-.03,1.45-.04,2.18Z"/><path class="cls-11" d="M59.86,72.59h.1c-.03-1.03-.06-2.07-.1-3.1-.03-.82-.06-1.64-.09-2.46,0-.2-.02-.4-.02-.6,0,.42.02.83.03,1.25.04,1.63.08,3.27.09,4.9Z"/><path class="cls-11" d="M58.84,56.52c-.11,5.41.36,10.72.43,16.07h.41c-.02-1.64-.06-3.28-.12-4.93-.03-.71-.05-1.42-.08-2.13-.16-2.88-.22-5.69-.23-8.58-.03-.49-.05-.98-.08-1.48,0-.14,0-.28,0-.41-.03-2.12-.01-4.22.17-6.28,0-.13-.02-.26-.02-.39-.18,1.26-.24,2.51-.24,3.78-.01-1.15-.03-2.31-.05-3.48,0-.7,0-1.41.01-2.11,0,.01,0,.02,0,.03-.07.62-.13,1.23-.17,1.85-.04.63-.07,1.31-.1,1.91.05,1.51.08,3.05.09,4.59,0,.52,0,1.04,0,1.56Z"/><path class="cls-11" d="M59.03,46.58c0-.14,0-.27,0-.41.01.13.01.26,0,.41Z"/><path class="cls-11" d="M59.04,46.18v-.05c0-.77.01-1.54.03-2.31.01-.77.02-1.55.02-2.36-.06-2.3-.05-4.6,0-6.9.01-.44.03-4.16.05-7.44-.11.02-.21.04-.31.06-.01,3.01-.02,6.18-.03,6.49-.02.6-.03,1.19-.04,1.79-.06,2.99-.04,6-.07,9.01-.04.67.29,1.13.35,1.71Z"/><path class="cls-11" d="M61.96,72.59c0-.52,0-1.08,0-1.52.07-1.17.14-2.35.21-3.52-.07.88-.16,1.76-.26,2.63-.02.62-.03,1.21-.03,1.79,0,.21.01.41.02.62h.06Z"/><path class="cls-11" d="M55.98,34.1c.03.28.06.56.09.85,0-.16,0-.32,0-.48,0-.68.01-1.38.03-2.13.01-.24.03-1.33.03-2.79-.04.11-.08.22-.11.34,0,1.07,0,1.83,0,2-.02.78-.03,1.51-.04,2.21Z"/><path class="cls-11" d="M56.16,61.11s-.01-.04-.02-.06c-.04-.11-.07-.21-.11-.32-.01-.25-.03-.49-.05-.74.04-.07.08-.15.11-.22.03.45.05.89.07,1.34Z"/><path class="cls-11" d="M56.61,53.87c.02.34.04.68.06,1.02-.06-.06-.12-.12-.18-.18-.01-.12-.03-.25-.04-.37-.04-.45-.07-.9-.1-1.35l.22.12c.01.25.02.51.04.76Z"/><path class="cls-11" d="M56.5,41.92c.04.09.08.17.13.26,0,0,0,.01.01.02v-.18c0-.77.03-1.59.03-2.37,0-1.36.02-2.72.05-4.07.01-.68.03-1.41.05-2.03.01-.69.02-1.37.04-2.05,0-.16,0-1.45,0-3.11-.07.08-.13.17-.19.26,0,2.07-.01,3.8-.01,4.04-.01.67-.03,1.31-.03,1.94-.02,1.25-.02,2.5-.03,3.74,0,.39,0,.77,0,1.16,0,.1.02.19.03.29,0-.02-.02-.03-.03-.05h0s0,.74,0,.74c-.01.48-.03.96-.05,1.44Z"/><path class="cls-11" d="M57.2,63.78c-.04-.09-.08-.19-.12-.28-.03-.06-.05-.13-.08-.2-.01-.67-.03-1.34-.06-2,.05.1.11.19.16.29.04.73.07,1.46.1,2.2Z"/><path class="cls-11" d="M55.69,31.53h0s0,.04,0,.06c0-.24.01-.48.02-.73-.01.23-.02.45-.03.67Z"/><path class="cls-11" d="M55.91,38.64c.04.08.09.16.13.23,0,.64-.02,1.29-.04,1.97-.05-.12-.11-.24-.16-.37-.01-.03-.03-.06-.04-.09.03-.36.06-.72.09-1.08,0-.22,0-.45.01-.67Z"/><path class="cls-11" d="M55.67,53.48c.02.18.03.36.05.53-.1-.08-.19-.15-.28-.2-.01-.13-.03-.26-.04-.39-.02-.33-.04-.67-.05-1.01l.27.16c.01.31.03.61.05.92Z"/><path class="cls-11" d="M55.03,37.23s.04-.06.06-.09c.01.03.03.06.04.08-.01.44-.03.9-.04,1.33-.04-.1-.08-.21-.11-.31.02-.33.04-.67.05-1.01Z"/><path class="cls-11" d="M55.72,30.79s0-.16,0-.35c0,.2,0,.32,0,.35Z"/><path class="cls-11" d="M57.36,43.31c.02-.33.09-.64.16-.94.01,1.01.03,2.02.05,3.03,0,.25,0,.5,0,.74-.05-1.04-.27-1.86-.21-2.84Z"/><path class="cls-11" d="M63.63,51.6c-.02.65-.03,1.3-.05,1.95-.06.18-.12.37-.18.55,0-.8,0-1.6.03-2.4.07-.03.13-.07.2-.1Z"/><path class="cls-11" d="M63.3,68.14c0,.76,0,1.52-.01,2.28,0,.07,0,.14,0,.21-.06.16-.13.31-.19.46-.03.08-.06.15-.09.22.05-.93.09-1.87.12-2.81.06-.12.12-.24.18-.35Z"/><path class="cls-11" d="M57.52,42.37c.11-.45.22-.88.18-1.38-.04-2.11-.03-4.21.02-6.32.02-.71.04-1.47.07-2.18,0-.29,0-2.49,0-4.95-.07.03-.13.07-.19.11,0,2.55,0,4.87,0,5.22-.03.61-.04,1.43-.05,2.14-.05,2.46-.05,4.91-.02,7.35Z"/><path class="cls-11" d="M63.88,68.94c-.03.1-.07.21-.1.31-.02.06-.04.12-.06.18,0-.71,0-1.42-.01-2.13.05-.1.1-.21.14-.31.02.65.02,1.3.03,1.95Z"/><path class="cls-11" d="M63.18,49.82l.11-1.07c0-.14,0-.29,0-.43.01-.73.03-1.47.05-2.2v-.06c.02-.71.04-1.43.07-2.14.02-.86.03-1.64.05-2.41.03-1.55.07-3.1.11-4.64.01-.47.03-4.77.04-8.22-.06-.09-.12-.17-.18-.24-.01,3.47-.02,7.88-.03,8.36-.03,1.53-.06,3.06-.08,4.59-.01.77-.03,1.58-.04,2.38-.03.77-.05,1.53-.06,2.3-.02.77-.03,1.53-.04,2.29v.13c0,.45,0,.9,0,1.35Z"/><path class="cls-11" d="M63.19,54.82c0-1-.01-2-.01-2.99.03-.01.06-.03.09-.05,0,.93,0,1.87,0,2.8-.02.08-.04.16-.06.24Z"/><path class="cls-14" d="M55.7,82.21c0-.24.01-.48.02-.73-.01.23-.02.45-.03.67h0s0,.04,0,.06Z"/><path class="cls-15" d="M55.2,89.48c.11.28.21.55.32.83.05.13.11.27.16.4.06.13.11.26.17.39.11.26.22.51.32.74.1.23.21.46.31.66,0,.01.01.03.02.04.04.09.08.17.13.25,0,0,0,.01.01.02h0c.04.09.09.17.13.24,0,.01.01.02.02.04.17,2.94.8,11.22.8,11.22l-2.3-1.32-.25,1.17s2.83,1.66,2.79,3.88c-.01.74.05,2.2.04,5.46-.03-.05-.06-.1-.09-.15-.07-.12-.14-.24-.22-.37-.15-.25-.29-.51-.44-.76-.15-.25-.29-.51-.43-.77-.14-.26-.27-.51-.4-.75-.06-.12-.12-.23-.18-.35-.08.17-.17.33-.26.5,0,0,0,.01,0,.01.09.26.19.53.28.8.1.27.19.55.3.83.1.28.21.55.32.82.05.14.11.27.16.4.06.13.11.27.17.39.11.26.22.5.32.74.1.24.21.46.32.66.04.09.08.17.12.26,0,1.36.07,4.13.2,7.43h4.38s0-.1,0-.14c.03-.06.1-.18.19-.35.07-.12.14-.27.22-.44.04-.08.08-.17.13-.27.04-.1.08-.2.13-.3.08-.21.18-.44.27-.68.09-.24.19-.5.28-.76.04-.13.09-.27.14-.4.04-.14.08-.27.13-.41.09-.28.18-.56.26-.84.09-.28.17-.56.25-.84.07-.24.13-.47.19-.7-.09-.18-.18-.36-.28-.54-.04.1-.09.19-.13.29-.11.25-.23.51-.35.77-.12.26-.25.53-.37.79-.13.27-.25.53-.39.79-.07.13-.13.26-.19.38-.07.12-.13.25-.19.37-.05.1-.1.18-.15.27.35-7.72-.66-11.8,1.23-16.57.03-.08.05-.15.07-.22.03-.03.06-.07.09-.1.14-.16.28-.31.43-.47.15-.16.3-.32.46-.48.01-.01.02-.02.04-.04-.06-.23-.13-.46-.21-.69-.11.07-.22.15-.33.22-.11.07-1.28.66-1.39.74l.24-3.49.16-2.4.35-5.06.28-4.18.17-2.52v-.03l.15-2.22.09-1.34c-.02-.12-.05-.24-.07-.36-.04-.16-.08-.31-.12-.46-.05-.16-.1-.31-.17-.46-.06-.14-.12-.28-.19-.41-.07-.13-.14-.25-.22-.37-.06-.08-.12-.17-.18-.24-.24-.3-.52-.55-.85-.76-.01-.01-.03-.02-.04-.02-.14-.09-.3-.17-.46-.24-.07-.03-.13-.05-.2-.08-.09-.03-.18-.06-.28-.09-.1-.03-.2-.05-.31-.07-.2-.04-.42-.08-.65-.1-.06,0-.11-.01-.16-.01-.12-.01-.26-.01-.39-.01-.06,0-.11,0-.16,0-.03,0-.05,0-.08,0-.17,0-.33.02-.49.04-.03,0-.06,0-.09.01-.05,0-.1.01-.14.02-.11.02-.21.04-.31.06-.19.04-.37.1-.54.16-.06.02-.12.05-.19.08-.1.04-.2.09-.3.15-.07.03-.13.07-.19.11-.3.19-.56.43-.78.7-.07.08-.13.17-.19.26-.19.28-.35.59-.48.93-.04.11-.08.22-.11.34-.18.56-.28,1.2-.31,1.87.08.68.17,1.48.26,2.34.03.28.06.56.09.85h0c.17,1.54.34,3.18.48,4.55,0,.1.02.19.03.29,0-.01-.02-.03-.03-.04,0-.01-.01-.02-.02-.03-.07-.12-.14-.24-.22-.37-.15-.25-.29-.5-.44-.76-.15-.26-.29-.52-.43-.77-.12-.23-.25-.46-.37-.68-.11.17-.22.34-.32.51.04.13.09.26.14.39.1.27.2.55.3.82Z"/><path class="cls-11" d="M62.28,96.96c0,.77,0,1.53.02,2.3.27,6.33.39,12.7-.12,18.91.33-6.1.47-12.23.1-18.51,0-.78-.02-1.63-.02-2.42-.06-1.65,0-3.14.07-4.73.03-.79.05-1.58.08-2.36-.02.74-.04,1.47-.06,2.21-.05,1.54-.07,3.08-.06,4.61Z"/><path class="cls-11" d="M61.38,123.21h.17s0-.05,0-.07c-.02-.69-.03-1.48-.04-2.19.41-6.86.75-13.63.27-20.77,0-.8-.02-1.68-.03-2.48,0-1.6,0-3.2.03-4.8.04-.83.08-1.66.11-2.49.03-.63.05-1.25.07-1.87.02-.63.04-1.25.06-1.88.02-.5.03-5.14.05-8.64-.07-.03-.13-.05-.2-.08-.01,3.4-.03,7.81-.05,8.22-.03.74-.06,1.53-.08,2.28-.06,1.48-.11,2.97-.18,4.45-.03.86-.07,1.74-.09,2.69.05.71.08,1.42.12,2.13.03.71.06,1.42.08,2.13.41,6.51.24,12.79-.22,19.4-.12,1.16-.06,2.31-.08,3.44,0,.18,0,.37,0,.55Z"/><path class="cls-11" d="M60.88,122.13c0,.36.03.72.04,1.08h.17c0-.38,0-.75-.01-1.13-.03-4.02.32-7.66.49-11.62.17-3.8-.23-7.44-.28-11.02-.01-.8-.03-1.6-.05-2.4-.02-.8-.04-1.61-.05-2.41.07-.73.1-1.67.14-2.51.04-.73.07-1.46.11-2.19.03-.73.06-1.47.08-2.2.03-.82.06-6.04.08-9.88-.1-.03-.2-.05-.31-.07-.01,3.42-.03,7.76-.03,8.21-.03.78-.06,1.62-.09,2.4-.07,1.56-.15,3.13-.26,4.69-.03.83-.05,1.65-.06,2.5,0,.67.02,1.34.03,2.02.01.67.03,1.34.04,2.02.47,6.72.36,13.33-.08,20.06,0,.84.01,1.65.04,2.46Z"/><path class="cls-11" d="M64.25,118.37c-.03.08-.05.17-.08.25-.01.04-.02.08-.04.12-.01-.17-.02-.34-.04-.52-.02-.34-.04-.69-.06-1.03.04-.09.08-.18.13-.27.03.48.06.96.09,1.44Z"/><path class="cls-11" d="M63.59,96.57l.29-2.69c.01-.57.03-1.16.04-1.71.02-.71.03-2.53.05-4.74.02-2.33.03-5.08.05-7.38-.06-.14-.12-.28-.19-.41-.01,3.21-.02,6.91-.03,7.26-.04,1.28-.07,2.57-.1,3.86,0,.29,0,.57-.01.86,0,.45-.01.9-.02,1.36-.02,1.2-.05,2.39-.08,3.59Z"/><path class="cls-11" d="M60.28,103.22c.36,5.09-.1,10.21-.1,15.31.02.78.03,1.59.05,2.38.02.76.04,1.53.06,2.29h.11c-.02-.74-.03-1.49-.05-2.23-.01-.78-.03-1.58-.04-2.36.09-5.84.43-11.46.14-17.3,0-.64-.01-1.27-.03-1.91-.03-1.27-.07-2.55-.13-3.82.02-.81.02-1.73.03-2.58.07-1.95.14-3.86.2-5.76.02-.64.04-1.32.06-1.95.01-.39.03-4.32.04-7.61-.06,0-.11-.01-.16-.01-.02,3.46-.04,7.99-.06,8.46-.02.66-.04,1.32-.07,1.97-.04,1.3-.09,2.6-.14,3.89-.02.64-.03,1.27-.04,1.89-.01.63-.01,1.28-.03,1.88.03,1.85.06,3.71.09,5.57.01.62.02,1.25.04,1.89Z"/><path class="cls-11" d="M62.47,87.86c-.02.7-.04,1.39-.06,2.09.02-.65.05-1.29.07-1.94.03-.71.05-1.47.07-2.17.01-.26.02-4.34.03-7.57-.01-.01-.03-.02-.04-.02,0,3.19,0,7.2-.01,7.43-.02.69-.04,1.47-.06,2.18Z"/><path class="cls-11" d="M62.4,90.14s0-.02,0-.03c0-.05,0-.11,0-.16,0,.06,0,.12,0,.18Z"/><path class="cls-11" d="M64.07,92.2l.12-1.14c.03-.96.07-4.75.11-8.39,0-.57.01-1.14.02-1.69-.04-.16-.08-.31-.12-.46-.02,1.38-.03,2.9-.05,4.37v.03c-.03,3.26-.06,6.31-.08,7.28Z"/><path class="cls-11" d="M63.82,103.51s-.02.07-.04.11c-.02.05-.03.09-.05.14,0-.54.02-1.07.04-1.61.03-.02.07-.03.1-.05-.02.47-.03.94-.04,1.42Z"/><path class="cls-11" d="M64.65,101.62c.02.06.04.13.06.19-.02.24-.04.49-.07.73-.06.06-.11.12-.17.18.03-.35.07-.7.11-1.05.02-.01.04-.03.07-.05Z"/><path class="cls-11" d="M59.19,87.43c.01-.58.04-1.16.06-1.73.03-.74.07-1.52.11-2.26,0-.2.01-2.98.02-5.74-.03,0-.06,0-.09.01-.02,3.36-.04,7.37-.05,7.8-.02.64-.03,1.28-.04,1.92Z"/><path class="cls-11" d="M59.17,94.74c-.08-2.46-.06-4.89,0-7.31-.04,2.32-.03,4.63.05,6.94,0,.75.01,1.5.03,2.25.01.75.03,1.51.06,2.28,0,.04-.01.08-.02.12-.04-.67-.07-1.33-.09-1.97-.02-.77-.04-1.54-.05-2.31Z"/><path class="cls-11" d="M58.05,97.07c0,.8-.01,1.61-.01,2.41,0,.77,0,1.57,0,2.34.03.58.06,1.16.08,1.74.03.58.05,1.18.07,1.75,0,.79.01,1.58.02,2.41.08,5.23.42,10.34.35,15.49h.15c.03-5.48-.35-11.02-.4-16.56-.01-.68-.03-1.38-.04-2.06-.03-.7-.07-1.39-.12-2.09-.01-.83-.01-1.61,0-2.38,0-.51,0-1.08.01-1.6,0-.64.01-1.27.02-1.91,0-.65,0-1.32.01-1.97-.11-3.3-.1-6.59,0-9.87.02-.67.04-1.37.06-2.04,0-.19,0-2.37,0-4.78-.06.02-.12.05-.19.08,0,2.8-.02,5.46-.04,5.86-.04.82-.08,1.63-.11,2.45-.14,3.25-.22,6.48-.16,9.55.13.39.28.77.28,1.18Z"/><path class="cls-11" d="M55.44,90.1c.02-.22.04-.44.06-.66,0,.25-.02.49-.03.74-.01-.03-.02-.05-.03-.08Z"/><path class="cls-11" d="M55.51,89.44c.01-.29.02-.58.02-.87,0,0,0,0,0,.01,0,.25-.01.5-.02.75,0,.04,0,.07-.01.11Z"/><path class="cls-11" d="M59.74,117.06c-.05-1.39-.05-2.8-.04-4.22.01,1.13.02,2.27.02,3.4,0,.28,0,.55.02.83Z"/><path class="cls-11" d="M59.6,91.01c0,.73,0,1.46,0,2.19,0,.72,0,1.45,0,2.18,0,.73.04,1.52.06,2.25.09,1.35.11,2.71.1,4.08,0,.68-.01,1.37-.03,2.06-.09,3.05-.05,6.06-.02,9.06.04-3.04.18-6.12.16-9.12.01-.68.01-1.37.01-2.05,0-1.36-.04-2.72-.14-4.09-.02-.88-.03-1.75-.03-2.61s0-1.71.02-2.56c.01-.71.02-1.43.03-2.14,0-1.15.03-2.32.06-3.49.02-.59.04-1.18.06-1.77.01-.39.03-4.1.05-7.35-.03,0-.05,0-.08,0-.02,3.11-.04,6.52-.05,6.86-.02.69-.05,1.44-.08,2.16-.03.72-.06,1.44-.1,2.15-.02.72-.03,1.45-.04,2.18Z"/><path class="cls-11" d="M59.86,123.21h.1c-.03-1.03-.06-2.07-.1-3.1-.03-.82-.06-1.64-.09-2.46,0-.2-.02-.4-.02-.6,0,.42.02.83.03,1.25.04,1.63.08,3.27.09,4.9Z"/><path class="cls-11" d="M58.84,107.14c-.11,5.41.36,10.72.43,16.07h.41c-.02-1.64-.06-3.28-.12-4.93-.03-.71-.05-1.42-.08-2.13-.16-2.88-.22-5.69-.23-8.58-.03-.49-.05-.98-.08-1.48,0-.14,0-.28,0-.41-.03-2.12-.01-4.22.17-6.28,0-.13-.02-.26-.02-.39-.18,1.26-.24,2.51-.24,3.78-.01-1.15-.03-2.31-.05-3.48,0-.7,0-1.41.01-2.11,0,.01,0,.02,0,.03-.07.62-.13,1.23-.17,1.85-.04.63-.07,1.31-.1,1.91.05,1.51.08,3.05.09,4.59,0,.52,0,1.04,0,1.56Z"/><path class="cls-11" d="M59.03,97.21c0-.14,0-.27,0-.41.01.13.01.26,0,.41Z"/><path class="cls-11" d="M59.04,96.8v-.05c0-.77.01-1.54.03-2.31.01-.77.02-1.55.02-2.36-.06-2.3-.05-4.6,0-6.9.01-.44.03-4.16.05-7.44-.11.02-.21.04-.31.06-.01,3.01-.02,6.18-.03,6.49-.02.6-.03,1.19-.04,1.79-.06,2.99-.04,6-.07,9.01-.04.67.29,1.13.35,1.71Z"/><path class="cls-11" d="M61.96,123.21c0-.52,0-1.08,0-1.52.07-1.17.14-2.35.21-3.52-.07.88-.16,1.76-.26,2.63-.02.62-.03,1.21-.03,1.79,0,.21.01.41.02.62h.06Z"/><path class="cls-11" d="M55.98,84.72c.03.28.06.56.09.85,0-.16,0-.32,0-.48,0-.68.01-1.38.03-2.13.01-.24.03-1.33.03-2.79-.04.11-.08.22-.11.34,0,1.07,0,1.83,0,2-.02.78-.03,1.51-.04,2.21Z"/><path class="cls-11" d="M56.16,111.73s-.01-.04-.02-.06c-.04-.11-.07-.21-.11-.32-.01-.25-.03-.49-.05-.74.04-.07.08-.15.11-.22.03.45.05.89.07,1.34Z"/><path class="cls-11" d="M56.61,104.5c.02.34.04.68.06,1.02-.06-.06-.12-.12-.18-.18-.01-.12-.03-.25-.04-.37-.04-.45-.07-.9-.1-1.35l.22.12c.01.25.02.51.04.76Z"/><path class="cls-11" d="M56.5,92.54c.04.09.08.17.13.26,0,0,0,.01.01.02v-.18c0-.77.03-1.59.03-2.37,0-1.36.02-2.72.05-4.07.01-.68.03-1.41.05-2.03.01-.69.02-1.37.04-2.05,0-.16,0-1.45,0-3.11-.07.08-.13.17-.19.26,0,2.07-.01,3.8-.01,4.04-.01.67-.03,1.31-.03,1.94-.02,1.25-.02,2.5-.03,3.74,0,.39,0,.77,0,1.16,0,.1.02.19.03.29,0-.02-.02-.03-.03-.05h0s0,.74,0,.74c-.01.48-.03.96-.05,1.44Z"/><path class="cls-11" d="M57.2,114.4c-.04-.09-.08-.19-.12-.28-.03-.06-.05-.13-.08-.2-.01-.67-.03-1.34-.06-2,.05.1.11.19.16.29.04.73.07,1.46.1,2.2Z"/><path class="cls-11" d="M55.69,82.15h0s0,.04,0,.06c0-.24.01-.48.02-.73-.01.23-.02.45-.03.67Z"/><path class="cls-11" d="M55.91,89.26c.04.08.09.16.13.23,0,.64-.02,1.29-.04,1.97-.05-.12-.11-.24-.16-.37-.01-.03-.03-.06-.04-.09.03-.36.06-.72.09-1.08,0-.22,0-.45.01-.67Z"/><path class="cls-11" d="M55.67,104.11c.02.18.03.36.05.53-.1-.08-.19-.15-.28-.2-.01-.13-.03-.26-.04-.39-.02-.33-.04-.67-.05-1.01l.27.16c.01.31.03.61.05.92Z"/><path class="cls-11" d="M55.03,87.85s.04-.06.06-.09c.01.03.03.06.04.08-.01.44-.03.9-.04,1.33-.04-.1-.08-.21-.11-.31.02-.33.04-.67.05-1.01Z"/><path class="cls-11" d="M55.72,81.41s0-.16,0-.35c0,.2,0,.32,0,.35Z"/><path class="cls-11" d="M57.36,93.93c.02-.33.09-.64.16-.94.01,1.01.03,2.02.05,3.03,0,.25,0,.5,0,.74-.05-1.04-.27-1.86-.21-2.84Z"/><path class="cls-11" d="M63.63,102.22c-.02.65-.03,1.3-.05,1.95-.06.18-.12.37-.18.55,0-.8,0-1.6.03-2.4.07-.03.13-.07.2-.1Z"/><path class="cls-11" d="M63.3,118.76c0,.76,0,1.52-.01,2.28,0,.07,0,.14,0,.21-.06.16-.13.31-.19.46-.03.08-.06.15-.09.22.05-.93.09-1.87.12-2.81.06-.12.12-.24.18-.35Z"/><path class="cls-11" d="M57.52,92.99c.11-.45.22-.88.18-1.38-.04-2.11-.03-4.21.02-6.32.02-.71.04-1.47.07-2.18,0-.29,0-2.49,0-4.95-.07.03-.13.07-.19.11,0,2.55,0,4.87,0,5.22-.03.61-.04,1.43-.05,2.14-.05,2.46-.05,4.91-.02,7.35Z"/><path class="cls-11" d="M63.88,119.56c-.03.1-.07.21-.1.31-.02.06-.04.12-.06.18,0-.71,0-1.42-.01-2.13.05-.1.1-.21.14-.31.02.65.02,1.3.03,1.95Z"/><path class="cls-11" d="M63.18,100.44l.11-1.07c0-.14,0-.29,0-.43.01-.73.03-1.47.05-2.2v-.06c.02-.71.04-1.43.07-2.14.02-.86.03-1.64.05-2.41.03-1.55.07-3.1.11-4.64.01-.47.03-4.77.04-8.22-.06-.09-.12-.17-.18-.24-.01,3.47-.02,7.88-.03,8.36-.03,1.53-.06,3.06-.08,4.59-.01.77-.03,1.58-.04,2.38-.03.77-.05,1.53-.06,2.3-.02.77-.03,1.53-.04,2.29v.13c0,.45,0,.9,0,1.35Z"/><path class="cls-11" d="M63.19,105.44c0-1-.01-2-.01-2.99.03-.01.06-.03.09-.05,0,.93,0,1.87,0,2.8-.02.08-.04.16-.06.24Z"/><path class="cls-16" d="M72.37,118.65c0,.24.01.48.02.73-.01-.23-.02-.45-.03-.67h0s0-.04,0-.06Z"/><path class="cls-17" d="M71.87,111.39c.11-.28.21-.55.32-.83.05-.13.11-.27.16-.4.06-.13.11-.26.17-.39.11-.26.22-.51.32-.74.1-.23.21-.46.31-.66,0-.01.01-.03.02-.04.04-.09.08-.17.13-.25,0,0,0-.01.01-.02h0c.04-.09.09-.17.13-.24,0-.01.01-.02.02-.04.17-2.94.8-11.22.8-11.22l-2.3,1.32-.25-1.17s2.83-1.66,2.79-3.88c-.01-.74.05-2.2.04-5.46-.03.05-.06.1-.09.15-.07.12-.14.24-.22.37-.15.25-.29.51-.44.76-.15.25-.29.51-.43.77-.14.26-.27.51-.4.75-.06.12-.12.23-.18.35-.08-.17-.17-.33-.26-.5,0,0,0-.01,0-.01.09-.26.19-.53.28-.8.1-.27.19-.55.3-.83.1-.28.21-.55.32-.82.05-.14.11-.27.16-.4.06-.13.11-.27.17-.39.11-.26.22-.5.32-.74.1-.24.21-.46.32-.66.04-.09.08-.17.12-.26,0-1.36.07-4.13.2-7.43h4.38s0,.1,0,.14c.03.06.1.18.19.35.07.12.14.27.22.44.04.08.08.17.13.27.04.1.08.2.13.3.08.21.18.44.27.68.09.24.19.5.28.76.04.13.09.27.14.4.04.14.08.27.13.41.09.28.18.56.26.84.09.28.17.56.25.84.07.24.13.47.19.7-.09.18-.18.36-.28.54-.04-.1-.09-.19-.13-.29-.11-.25-.23-.51-.35-.77-.12-.26-.25-.53-.37-.79-.13-.27-.25-.53-.39-.79-.07-.13-.13-.26-.19-.38-.07-.12-.13-.25-.19-.37-.05-.1-.1-.18-.15-.27.35,7.72-.66,11.8,1.23,16.57.03.08.05.15.07.22.03.03.06.07.09.1.14.16.28.31.43.47.15.16.3.32.46.48.01.01.02.02.04.04-.06.23-.13.46-.21.69-.11-.07-.22-.15-.33-.22-.11-.07-1.28-.66-1.39-.74l.24,3.49.16,2.4.35,5.06.28,4.18.17,2.52v.03l.15,2.22.09,1.34c-.02.12-.05.24-.07.36-.04.16-.08.31-.12.46-.05.16-.1.31-.17.46-.06.14-.12.28-.19.41-.07.13-.14.25-.22.37-.06.08-.12.17-.18.24-.24.3-.52.55-.85.76-.01.01-.03.02-.04.02-.14.09-.3.17-.46.24-.07.03-.13.05-.2.08-.09.03-.18.06-.28.09-.1.03-.2.05-.31.07-.2.04-.42.08-.65.1-.06,0-.11.01-.16.01-.12.01-.26.01-.39.01-.06,0-.11,0-.16,0-.03,0-.05,0-.08,0-.17,0-.33-.02-.49-.04-.03,0-.06,0-.09-.01-.05,0-.1-.01-.14-.02-.11-.02-.21-.04-.31-.06-.19-.04-.37-.1-.54-.16-.06-.02-.12-.05-.19-.08-.1-.04-.2-.09-.3-.15-.07-.03-.13-.07-.19-.11-.3-.19-.56-.43-.78-.7-.07-.08-.13-.17-.19-.26-.19-.28-.35-.59-.48-.93-.04-.11-.08-.22-.11-.34-.18-.56-.28-1.2-.31-1.87.08-.68.17-1.48.26-2.34.03-.28.06-.56.09-.85h0c.17-1.54.34-3.18.48-4.55,0-.1.02-.19.03-.29,0,.01-.02.03-.03.04,0,.01-.01.02-.02.03-.07.12-.14.24-.22.37-.15.25-.29.5-.44.76-.15.26-.29.52-.43.77-.12.23-.25.46-.37.68-.11-.17-.22-.34-.32-.51.04-.13.09-.26.14-.39.1-.27.2-.55.3-.82Z"/><path class="cls-12" d="M78.95,103.91c0-.77,0-1.53.02-2.3.27-6.33.39-12.7-.12-18.91.33,6.1.47,12.23.1,18.51,0,.78-.02,1.63-.02,2.42-.06,1.65,0,3.14.07,4.73.03.79.05,1.58.08,2.36-.02-.74-.04-1.47-.06-2.21-.05-1.54-.07-3.08-.06-4.61Z"/><path class="cls-12" d="M78.05,77.65h.17s0,.05,0,.07c-.02.69-.03,1.48-.04,2.19.41,6.86.75,13.63.27,20.77,0,.8-.02,1.68-.03,2.48,0,1.6,0,3.2.03,4.8.04.83.08,1.66.11,2.49.03.63.05,1.25.07,1.87.02.63.04,1.25.06,1.88.02.5.03,5.14.05,8.64-.07.03-.13.05-.2.08-.01-3.4-.03-7.81-.05-8.22-.03-.74-.06-1.53-.08-2.28-.06-1.48-.11-2.97-.18-4.45-.03-.86-.07-1.74-.09-2.69.05-.71.08-1.42.12-2.13.03-.71.06-1.42.08-2.13.41-6.51.24-12.79-.22-19.4-.12-1.16-.06-2.31-.08-3.44,0-.18,0-.37,0-.55Z"/><path class="cls-12" d="M77.55,78.74c0-.36.03-.72.04-1.08h.17c0,.38,0,.75-.01,1.13-.03,4.02.32,7.66.49,11.62.17,3.8-.23,7.44-.28,11.02-.01.8-.03,1.6-.05,2.4-.02.8-.04,1.61-.05,2.41.07.73.1,1.67.14,2.51.04.73.07,1.46.11,2.19.03.73.06,1.47.08,2.2.03.82.06,6.04.08,9.88-.1.03-.2.05-.31.07-.01-3.42-.03-7.76-.03-8.21-.03-.78-.06-1.62-.09-2.4-.07-1.56-.15-3.13-.26-4.69-.03-.83-.05-1.65-.06-2.5,0-.67.02-1.34.03-2.02.01-.67.03-1.34.04-2.02.47-6.72.36-13.33-.08-20.06,0-.84.01-1.65.04-2.46Z"/><path class="cls-12" d="M80.92,82.5c-.03-.08-.05-.17-.08-.25-.01-.04-.02-.08-.04-.12-.01.17-.02.34-.04.52-.02.34-.04.69-.06,1.03.04.09.08.18.13.27.03-.48.06-.96.09-1.44Z"/><path class="cls-12" d="M80.26,104.29l.29,2.69c.01.57.03,1.16.04,1.71.02.71.03,2.53.05,4.74.02,2.33.03,5.08.05,7.38-.06.14-.12.28-.19.41-.01-3.21-.02-6.91-.03-7.26-.04-1.28-.07-2.57-.1-3.86,0-.29,0-.57-.01-.86,0-.45-.01-.9-.02-1.36-.02-1.2-.05-2.39-.08-3.59Z"/><path class="cls-12" d="M76.95,97.64c.36-5.09-.1-10.21-.1-15.31.02-.78.03-1.59.05-2.38.02-.76.04-1.53.06-2.29h.11c-.02.74-.03,1.49-.05,2.23-.01.78-.03,1.58-.04,2.36.09,5.84.43,11.46.14,17.3,0,.64-.01,1.27-.03,1.91-.03,1.27-.07,2.55-.13,3.82.02.81.02,1.73.03,2.58.07,1.95.14,3.86.2,5.76.02.64.04,1.32.06,1.95.01.39.03,4.32.04,7.61-.06,0-.11.01-.16.01-.02-3.46-.04-7.99-.06-8.46-.02-.66-.04-1.32-.07-1.97-.04-1.3-.09-2.6-.14-3.89-.02-.64-.03-1.27-.04-1.89-.01-.63-.01-1.28-.03-1.88.03-1.85.06-3.71.09-5.57.01-.62.02-1.25.04-1.89Z"/><path class="cls-12" d="M79.14,113c-.02-.7-.04-1.39-.06-2.09.02.65.05,1.29.07,1.94.03.71.05,1.47.07,2.17.01.26.02,4.34.03,7.57-.01.01-.03.02-.04.02,0-3.19,0-7.2-.01-7.43-.02-.69-.04-1.47-.06-2.18Z"/><path class="cls-12" d="M79.07,110.73s0,.02,0,.03c0,.05,0,.11,0,.16,0-.06,0-.12,0-.18Z"/><path class="cls-12" d="M80.74,108.66l.12,1.14c.03.96.07,4.75.11,8.39,0,.57.01,1.14.02,1.69-.04.16-.08.31-.12.46-.02-1.38-.03-2.9-.05-4.37v-.03c-.03-3.26-.06-6.31-.08-7.28Z"/><path class="cls-12" d="M80.49,97.35s-.02-.07-.04-.11c-.02-.05-.03-.09-.05-.14,0,.54.02,1.07.04,1.61.03.02.07.03.1.05-.02-.47-.03-.94-.04-1.42Z"/><path class="cls-12" d="M81.32,99.24c.02-.06.04-.13.06-.19-.02-.24-.04-.49-.07-.73-.06-.06-.11-.12-.17-.18.03.35.07.7.11,1.05.02.01.04.03.07.05Z"/><path class="cls-12" d="M75.86,113.44c.01.58.04,1.16.06,1.73.03.74.07,1.52.11,2.26,0,.2.01,2.98.02,5.74-.03,0-.06,0-.09-.01-.02-3.36-.04-7.37-.05-7.8-.02-.64-.03-1.28-.04-1.92Z"/><path class="cls-12" d="M75.85,106.13c-.08,2.46-.06,4.89,0,7.31-.04-2.32-.03-4.63.05-6.94,0-.75.01-1.5.03-2.25.01-.75.03-1.51.06-2.28,0-.04-.01-.08-.02-.12-.04.67-.07,1.33-.09,1.97-.02.77-.04,1.54-.05,2.31Z"/><path class="cls-12" d="M74.72,103.79c0-.8-.01-1.61-.01-2.41,0-.77,0-1.57,0-2.34.03-.58.06-1.16.08-1.74.03-.58.05-1.18.07-1.75,0-.79.01-1.58.02-2.41.08-5.23.42-10.34.35-15.49h.15c.03,5.48-.35,11.02-.4,16.56-.01.68-.03,1.38-.04,2.06-.03.7-.07,1.39-.12,2.09-.01.83-.01,1.61,0,2.38,0,.51,0,1.08.01,1.6,0,.64.01,1.27.02,1.91,0,.65,0,1.32.01,1.97-.11,3.3-.1,6.59,0,9.87.02.67.04,1.37.06,2.04,0,.19,0,2.37,0,4.78-.06-.02-.12-.05-.19-.08,0-2.8-.02-5.46-.04-5.86-.04-.82-.08-1.63-.11-2.45-.14-3.25-.22-6.48-.16-9.55.13-.39.28-.77.28-1.18Z"/><path class="cls-12" d="M72.11,110.76c.02.22.04.44.06.66,0-.25-.02-.49-.03-.74-.01.03-.02.05-.03.08Z"/><path class="cls-12" d="M72.18,111.42c.01.29.02.58.02.87,0,0,0,0,0-.01,0-.25-.01-.5-.02-.75,0-.04,0-.07-.01-.11Z"/><path class="cls-12" d="M76.41,83.81c-.05,1.39-.05,2.8-.04,4.22.01-1.13.02-2.27.02-3.4,0-.28,0-.55.02-.83Z"/><path class="cls-12" d="M76.27,109.85c0-.73,0-1.46,0-2.19,0-.72,0-1.45,0-2.18,0-.73.04-1.52.06-2.25.09-1.35.11-2.71.1-4.08,0-.68-.01-1.37-.03-2.06-.09-3.05-.05-6.06-.02-9.06.04,3.04.18,6.12.16,9.12.01.68.01,1.37.01,2.05,0,1.36-.04,2.72-.14,4.09-.02.88-.03,1.75-.03,2.61s0,1.71.02,2.56c.01.71.02,1.43.03,2.14,0,1.15.03,2.32.06,3.49.02.59.04,1.18.06,1.77.01.39.03,4.1.05,7.35-.03,0-.05,0-.08,0-.02-3.11-.04-6.52-.05-6.86-.02-.69-.05-1.44-.08-2.16-.03-.72-.06-1.44-.1-2.15-.02-.72-.03-1.45-.04-2.18Z"/><path class="cls-12" d="M76.53,77.65h.1c-.03,1.03-.06,2.07-.1,3.1-.03.82-.06,1.64-.09,2.46,0,.2-.02.4-.02.6,0-.42.02-.83.03-1.25.04-1.63.08-3.27.09-4.9Z"/><path class="cls-12" d="M75.52,93.72c-.11-5.41.36-10.72.43-16.07h.41c-.02,1.64-.06,3.28-.12,4.93-.03.71-.05,1.42-.08,2.13-.16,2.88-.22,5.69-.23,8.58-.03.49-.05.98-.08,1.48,0,.14,0,.28,0,.41-.03,2.12-.01,4.22.17,6.28,0,.13-.02.26-.02.39-.18-1.26-.24-2.51-.24-3.78-.01,1.15-.03,2.31-.05,3.48,0,.7,0,1.41.01,2.11,0-.01,0-.02,0-.03-.07-.62-.13-1.23-.17-1.85-.04-.63-.07-1.31-.1-1.91.05-1.51.08-3.05.09-4.59,0-.52,0-1.04,0-1.56Z"/><path class="cls-12" d="M75.71,103.66c0,.14,0,.27,0,.41.01-.13.01-.26,0-.41Z"/><path class="cls-12" d="M75.71,104.06v.05c0,.77.01,1.54.03,2.31.01.77.02,1.55.02,2.36-.06,2.3-.05,4.6,0,6.9.01.44.03,4.16.05,7.44-.11-.02-.21-.04-.31-.06-.01-3.01-.02-6.18-.03-6.49-.02-.6-.03-1.19-.04-1.79-.06-2.99-.04-6-.07-9.01-.04-.67.29-1.13.35-1.71Z"/><path class="cls-12" d="M78.63,77.65c0,.52,0,1.08,0,1.52.07,1.17.14,2.35.21,3.52-.07-.88-.16-1.76-.26-2.63-.02-.62-.03-1.21-.03-1.79,0-.21.01-.41.02-.62h.06Z"/><path class="cls-12" d="M72.65,116.14c.03-.28.06-.56.09-.85,0,.16,0,.32,0,.48,0,.68.01,1.38.03,2.13.01.24.03,1.33.03,2.79-.04-.11-.08-.22-.11-.34,0-1.07,0-1.83,0-2-.02-.78-.03-1.51-.04-2.21Z"/><path class="cls-12" d="M72.83,89.13s-.01.04-.02.06c-.04.11-.07.21-.11.32-.01.25-.03.49-.05.74.04.07.08.15.11.22.03-.45.05-.89.07-1.34Z"/><path class="cls-12" d="M73.28,96.37c.02-.34.04-.68.06-1.02-.06.06-.12.12-.18.18-.01.12-.03.25-.04.37-.04.45-.07.9-.1,1.35l.22-.12c.01-.25.02-.51.04-.76Z"/><path class="cls-12" d="M73.17,108.32c.04-.09.08-.17.13-.26,0,0,0-.01.01-.02v.18c0,.77.03,1.59.03,2.37,0,1.36.02,2.72.05,4.07.01.68.03,1.41.05,2.03.01.69.02,1.37.04,2.05,0,.16,0,1.45,0,3.11-.07-.08-.13-.17-.19-.26,0-2.07-.01-3.8-.01-4.04-.01-.67-.03-1.31-.03-1.94-.02-1.25-.02-2.5-.03-3.74,0-.39,0-.77,0-1.16,0-.1.02-.19.03-.29,0,.02-.02.03-.03.05h0s0-.74,0-.74c-.01-.48-.03-.96-.05-1.44Z"/><path class="cls-12" d="M73.88,86.46c-.04.09-.08.19-.12.28-.03.06-.05.13-.08.2-.01.67-.03,1.34-.06,2,.05-.1.11-.19.16-.29.04-.73.07-1.46.1-2.2Z"/><path class="cls-12" d="M72.36,118.71h0s0-.04,0-.06c0,.24.01.48.02.73-.01-.23-.02-.45-.03-.67Z"/><path class="cls-12" d="M72.58,111.6c.04-.08.09-.16.13-.23,0-.64-.02-1.29-.04-1.97-.05.12-.11.24-.16.37-.01.03-.03.06-.04.09.03.36.06.72.09,1.08,0,.22,0,.45.01.67Z"/><path class="cls-12" d="M72.34,96.76c.02-.18.03-.36.05-.53-.1.08-.19.15-.28.2-.01.13-.03.26-.04.39-.02.33-.04.67-.05,1.01l.27-.16c.01-.31.03-.61.05-.92Z"/><path class="cls-12" d="M71.7,113.01s.04.06.06.09c.01-.03.03-.06.04-.08-.01-.44-.03-.9-.04-1.33-.04.1-.08.21-.11.31.02.33.04.67.05,1.01Z"/><path class="cls-12" d="M72.39,119.45s0,.16,0,.35c0-.2,0-.32,0-.35Z"/><path class="cls-12" d="M74.03,106.93c.02.33.09.64.16.94.01-1.01.03-2.02.05-3.03,0-.25,0-.5,0-.74-.05,1.04-.27,1.86-.21,2.84Z"/><path class="cls-12" d="M80.3,98.64c-.02-.65-.03-1.3-.05-1.95-.06-.18-.12-.37-.18-.55,0,.8,0,1.6.03,2.4.07.03.13.07.2.1Z"/><path class="cls-12" d="M79.97,82.1c0-.76,0-1.52-.01-2.28,0-.07,0-.14,0-.21-.06-.16-.13-.31-.19-.46-.03-.08-.06-.15-.09-.22.05.93.09,1.87.12,2.81.06.12.12.24.18.35Z"/><path class="cls-12" d="M74.19,107.87c.11.45.22.88.18,1.38-.04,2.11-.03,4.21.02,6.32.02.71.04,1.47.07,2.18,0,.29,0,2.49,0,4.95-.07-.03-.13-.07-.19-.11,0-2.55,0-4.87,0-5.22-.03-.61-.04-1.43-.05-2.14-.05-2.46-.05-4.91-.02-7.35Z"/><path class="cls-12" d="M80.55,81.3c-.03-.1-.07-.21-.1-.31-.02-.06-.04-.12-.06-.18,0,.71,0,1.42-.01,2.13.05.1.1.21.14.31.02-.65.02-1.3.03-1.95Z"/><path class="cls-12" d="M79.85,100.42l.11,1.07c0,.14,0,.29,0,.43.01.73.03,1.47.05,2.2v.06c.02.71.04,1.43.07,2.14.02.86.03,1.64.05,2.41.03,1.55.07,3.1.11,4.64.01.47.03,4.77.04,8.22-.06.09-.12.17-.18.24-.01-3.47-.02-7.88-.03-8.36-.03-1.53-.06-3.06-.08-4.59-.01-.77-.03-1.58-.04-2.38-.03-.77-.05-1.53-.06-2.3-.02-.77-.03-1.53-.04-2.29v-.13c0-.45,0-.9,0-1.35Z"/><path class="cls-12" d="M79.86,95.42c0,1-.01,2-.01,2.99.03.01.06.03.09.05,0-.93,0-1.87,0-2.8-.02-.08-.04-.16-.06-.24Z"/><path class="cls-18" d="M72.37,68.03c0,.24.01.48.02.73-.01-.23-.02-.45-.03-.67h0s0-.04,0-.06Z"/><path class="cls-19" d="M71.87,60.76c.11-.28.21-.55.32-.83.05-.13.11-.27.16-.4.06-.13.11-.26.17-.39.11-.26.22-.51.32-.74.1-.23.21-.46.31-.66,0-.01.01-.03.02-.04.04-.09.08-.17.13-.25,0,0,0-.01.01-.02h0c.04-.09.09-.17.13-.24,0-.01.01-.02.02-.04.17-2.94.8-11.22.8-11.22l-2.3,1.32-.25-1.17s2.83-1.66,2.79-3.88c-.01-.74.05-2.2.04-5.46-.03.05-.06.1-.09.15-.07.12-.14.24-.22.37-.15.25-.29.51-.44.76-.15.25-.29.51-.43.77-.14.26-.27.51-.4.75-.06.12-.12.23-.18.35-.08-.17-.17-.33-.26-.5,0,0,0-.01,0-.01.09-.26.19-.53.28-.8.1-.27.19-.55.3-.83.1-.28.21-.55.32-.82.05-.14.11-.27.16-.4.06-.13.11-.27.17-.39.11-.26.22-.5.32-.74.1-.24.21-.46.32-.66.04-.09.08-.17.12-.26,0-1.36.07-4.13.2-7.43h4.38s0,.1,0,.14c.03.06.1.18.19.35.07.12.14.27.22.44.04.08.08.17.13.27.04.1.08.2.13.3.08.21.18.44.27.68.09.24.19.5.28.76.04.13.09.27.14.4.04.14.08.27.13.41.09.28.18.56.26.84.09.28.17.56.25.84.07.24.13.47.19.7-.09.18-.18.36-.28.54-.04-.1-.09-.19-.13-.29-.11-.25-.23-.51-.35-.77-.12-.26-.25-.53-.37-.79-.13-.27-.25-.53-.39-.79-.07-.13-.13-.26-.19-.38-.07-.12-.13-.25-.19-.37-.05-.1-.1-.18-.15-.27.35,7.72-.66,11.8,1.23,16.57.03.08.05.15.07.22.03.03.06.07.09.1.14.16.28.31.43.47.15.16.3.32.46.48.01.01.02.02.04.04-.06.23-.13.46-.21.69-.11-.07-.22-.15-.33-.22-.11-.07-1.28-.66-1.39-.74l.24,3.49.16,2.4.35,5.06.28,4.18.17,2.52v.03l.15,2.22.09,1.34c-.02.12-.05.24-.07.36-.04.16-.08.31-.12.46-.05.16-.1.31-.17.46-.06.14-.12.28-.19.41-.07.13-.14.25-.22.37-.06.08-.12.17-.18.24-.24.3-.52.55-.85.76-.01.01-.03.02-.04.02-.14.09-.3.17-.46.24-.07.03-.13.05-.2.08-.09.03-.18.06-.28.09-.1.03-.2.05-.31.07-.2.04-.42.08-.65.1-.06,0-.11.01-.16.01-.12.01-.26.01-.39.01-.06,0-.11,0-.16,0-.03,0-.05,0-.08,0-.17,0-.33-.02-.49-.04-.03,0-.06,0-.09-.01-.05,0-.1-.01-.14-.02-.11-.02-.21-.04-.31-.06-.19-.04-.37-.1-.54-.16-.06-.02-.12-.05-.19-.08-.1-.04-.2-.09-.3-.15-.07-.03-.13-.07-.19-.11-.3-.19-.56-.43-.78-.7-.07-.08-.13-.17-.19-.26-.19-.28-.35-.59-.48-.93-.04-.11-.08-.22-.11-.34-.18-.56-.28-1.2-.31-1.87.08-.68.17-1.48.26-2.34.03-.28.06-.56.09-.85h0c.17-1.54.34-3.18.48-4.55,0-.1.02-.19.03-.29,0,.01-.02.03-.03.04,0,.01-.01.02-.02.03-.07.12-.14.24-.22.37-.15.25-.29.5-.44.76-.15.26-.29.52-.43.77-.12.23-.25.46-.37.68-.11-.17-.22-.34-.32-.51.04-.13.09-.26.14-.39.1-.27.2-.55.3-.82Z"/><path class="cls-12" d="M78.95,53.28c0-.77,0-1.53.02-2.3.27-6.33.39-12.7-.12-18.91.33,6.1.47,12.23.1,18.51,0,.78-.02,1.63-.02,2.42-.06,1.65,0,3.14.07,4.73.03.79.05,1.58.08,2.36-.02-.74-.04-1.47-.06-2.21-.05-1.54-.07-3.08-.06-4.61Z"/><path class="cls-12" d="M78.05,27.03h.17s0,.05,0,.07c-.02.69-.03,1.48-.04,2.19.41,6.86.75,13.63.27,20.77,0,.8-.02,1.68-.03,2.48,0,1.6,0,3.2.03,4.8.04.83.08,1.66.11,2.49.03.63.05,1.25.07,1.87.02.63.04,1.25.06,1.88.02.5.03,5.14.05,8.64-.07.03-.13.05-.2.08-.01-3.4-.03-7.81-.05-8.22-.03-.74-.06-1.53-.08-2.28-.06-1.48-.11-2.97-.18-4.45-.03-.86-.07-1.74-.09-2.69.05-.71.08-1.42.12-2.13.03-.71.06-1.42.08-2.13.41-6.51.24-12.79-.22-19.4-.12-1.16-.06-2.31-.08-3.44,0-.18,0-.37,0-.55Z"/><path class="cls-12" d="M77.55,28.11c0-.36.03-.72.04-1.08h.17c0,.38,0,.75-.01,1.13-.03,4.02.32,7.66.49,11.62.17,3.8-.23,7.44-.28,11.02-.01.8-.03,1.6-.05,2.4-.02.8-.04,1.61-.05,2.41.07.73.1,1.67.14,2.51.04.73.07,1.46.11,2.19.03.73.06,1.47.08,2.2.03.82.06,6.04.08,9.88-.1.03-.2.05-.31.07-.01-3.42-.03-7.76-.03-8.21-.03-.78-.06-1.62-.09-2.4-.07-1.56-.15-3.13-.26-4.69-.03-.83-.05-1.65-.06-2.5,0-.67.02-1.34.03-2.02.01-.67.03-1.34.04-2.02.47-6.72.36-13.33-.08-20.06,0-.84.01-1.65.04-2.46Z"/><path class="cls-12" d="M80.92,31.87c-.03-.08-.05-.17-.08-.25-.01-.04-.02-.08-.04-.12-.01.17-.02.34-.04.52-.02.34-.04.69-.06,1.03.04.09.08.18.13.27.03-.48.06-.96.09-1.44Z"/><path class="cls-12" d="M80.26,53.67l.29,2.69c.01.57.03,1.16.04,1.71.02.71.03,2.53.05,4.74.02,2.33.03,5.08.05,7.38-.06.14-.12.28-.19.41-.01-3.21-.02-6.91-.03-7.26-.04-1.28-.07-2.57-.1-3.86,0-.29,0-.57-.01-.86,0-.45-.01-.9-.02-1.36-.02-1.2-.05-2.39-.08-3.59Z"/><path class="cls-12" d="M76.95,47.02c.36-5.09-.1-10.21-.1-15.31.02-.78.03-1.59.05-2.38.02-.76.04-1.53.06-2.29h.11c-.02.74-.03,1.49-.05,2.23-.01.78-.03,1.58-.04,2.36.09,5.84.43,11.46.14,17.3,0,.64-.01,1.27-.03,1.91-.03,1.27-.07,2.55-.13,3.82.02.81.02,1.73.03,2.58.07,1.95.14,3.86.2,5.76.02.64.04,1.32.06,1.95.01.39.03,4.32.04,7.61-.06,0-.11.01-.16.01-.02-3.46-.04-7.99-.06-8.46-.02-.66-.04-1.32-.07-1.97-.04-1.3-.09-2.6-.14-3.89-.02-.64-.03-1.27-.04-1.89-.01-.63-.01-1.28-.03-1.88.03-1.85.06-3.71.09-5.57.01-.62.02-1.25.04-1.89Z"/><path class="cls-12" d="M79.14,62.38c-.02-.7-.04-1.39-.06-2.09.02.65.05,1.29.07,1.94.03.71.05,1.47.07,2.17.01.26.02,4.34.03,7.57-.01.01-.03.02-.04.02,0-3.19,0-7.2-.01-7.43-.02-.69-.04-1.47-.06-2.18Z"/><path class="cls-12" d="M79.07,60.1s0,.02,0,.03c0,.05,0,.11,0,.16,0-.06,0-.12,0-.18Z"/><path class="cls-12" d="M80.74,58.04l.12,1.14c.03.96.07,4.75.11,8.39,0,.57.01,1.14.02,1.69-.04.16-.08.31-.12.46-.02-1.38-.03-2.9-.05-4.37v-.03c-.03-3.26-.06-6.31-.08-7.28Z"/><path class="cls-12" d="M80.49,46.73s-.02-.07-.04-.11c-.02-.05-.03-.09-.05-.14,0,.54.02,1.07.04,1.61.03.02.07.03.1.05-.02-.47-.03-.94-.04-1.42Z"/><path class="cls-12" d="M81.32,48.62c.02-.06.04-.13.06-.19-.02-.24-.04-.49-.07-.73-.06-.06-.11-.12-.17-.18.03.35.07.7.11,1.05.02.01.04.03.07.05Z"/><path class="cls-12" d="M75.86,62.81c.01.58.04,1.16.06,1.73.03.74.07,1.52.11,2.26,0,.2.01,2.98.02,5.74-.03,0-.06,0-.09-.01-.02-3.36-.04-7.37-.05-7.8-.02-.64-.03-1.28-.04-1.92Z"/><path class="cls-12" d="M75.85,55.5c-.08,2.46-.06,4.89,0,7.31-.04-2.32-.03-4.63.05-6.94,0-.75.01-1.5.03-2.25.01-.75.03-1.51.06-2.28,0-.04-.01-.08-.02-.12-.04.67-.07,1.33-.09,1.97-.02.77-.04,1.54-.05,2.31Z"/><path class="cls-12" d="M74.72,53.17c0-.8-.01-1.61-.01-2.41,0-.77,0-1.57,0-2.34.03-.58.06-1.16.08-1.74.03-.58.05-1.18.07-1.75,0-.79.01-1.58.02-2.41.08-5.23.42-10.34.35-15.49h.15c.03,5.48-.35,11.02-.4,16.56-.01.68-.03,1.38-.04,2.06-.03.7-.07,1.39-.12,2.09-.01.83-.01,1.61,0,2.38,0,.51,0,1.08.01,1.6,0,.64.01,1.27.02,1.91,0,.65,0,1.32.01,1.97-.11,3.3-.1,6.59,0,9.87.02.67.04,1.37.06,2.04,0,.19,0,2.37,0,4.78-.06-.02-.12-.05-.19-.08,0-2.8-.02-5.46-.04-5.86-.04-.82-.08-1.63-.11-2.45-.14-3.25-.22-6.48-.16-9.55.13-.39.28-.77.28-1.18Z"/><path class="cls-12" d="M72.11,60.14c.02.22.04.44.06.66,0-.25-.02-.49-.03-.74-.01.03-.02.05-.03.08Z"/><path class="cls-12" d="M72.18,60.8c.01.29.02.58.02.87,0,0,0,0,0-.01,0-.25-.01-.5-.02-.75,0-.04,0-.07-.01-.11Z"/><path class="cls-12" d="M76.41,33.18c-.05,1.39-.05,2.8-.04,4.22.01-1.13.02-2.27.02-3.4,0-.28,0-.55.02-.83Z"/><path class="cls-12" d="M76.27,59.23c0-.73,0-1.46,0-2.19,0-.72,0-1.45,0-2.18,0-.73.04-1.52.06-2.25.09-1.35.11-2.71.1-4.08,0-.68-.01-1.37-.03-2.06-.09-3.05-.05-6.06-.02-9.06.04,3.04.18,6.12.16,9.12.01.68.01,1.37.01,2.05,0,1.36-.04,2.72-.14,4.09-.02.88-.03,1.75-.03,2.61s0,1.71.02,2.56c.01.71.02,1.43.03,2.14,0,1.15.03,2.32.06,3.49.02.59.04,1.18.06,1.77.01.39.03,4.1.05,7.35-.03,0-.05,0-.08,0-.02-3.11-.04-6.52-.05-6.86-.02-.69-.05-1.44-.08-2.16-.03-.72-.06-1.44-.1-2.15-.02-.72-.03-1.45-.04-2.18Z"/><path class="cls-12" d="M76.53,27.03h.1c-.03,1.03-.06,2.07-.1,3.1-.03.82-.06,1.64-.09,2.46,0,.2-.02.4-.02.6,0-.42.02-.83.03-1.25.04-1.63.08-3.27.09-4.9Z"/><path class="cls-12" d="M75.52,43.1c-.11-5.41.36-10.72.43-16.07h.41c-.02,1.64-.06,3.28-.12,4.93-.03.71-.05,1.42-.08,2.13-.16,2.88-.22,5.69-.23,8.58-.03.49-.05.98-.08,1.48,0,.14,0,.28,0,.41-.03,2.12-.01,4.22.17,6.28,0,.13-.02.26-.02.39-.18-1.26-.24-2.51-.24-3.78-.01,1.15-.03,2.31-.05,3.48,0,.7,0,1.41.01,2.11,0-.01,0-.02,0-.03-.07-.62-.13-1.23-.17-1.85-.04-.63-.07-1.31-.1-1.91.05-1.51.08-3.05.09-4.59,0-.52,0-1.04,0-1.56Z"/><path class="cls-12" d="M75.71,53.03c0,.14,0,.27,0,.41.01-.13.01-.26,0-.41Z"/><path class="cls-12" d="M75.71,53.44v.05c0,.77.01,1.54.03,2.31.01.77.02,1.55.02,2.36-.06,2.3-.05,4.6,0,6.9.01.44.03,4.16.05,7.44-.11-.02-.21-.04-.31-.06-.01-3.01-.02-6.18-.03-6.49-.02-.6-.03-1.19-.04-1.79-.06-2.99-.04-6-.07-9.01-.04-.67.29-1.13.35-1.71Z"/><path class="cls-12" d="M78.63,27.03c0,.52,0,1.08,0,1.52.07,1.17.14,2.35.21,3.52-.07-.88-.16-1.76-.26-2.63-.02-.62-.03-1.21-.03-1.79,0-.21.01-.41.02-.62h.06Z"/><path class="cls-12" d="M72.65,65.52c.03-.28.06-.56.09-.85,0,.16,0,.32,0,.48,0,.68.01,1.38.03,2.13.01.24.03,1.33.03,2.79-.04-.11-.08-.22-.11-.34,0-1.07,0-1.83,0-2-.02-.78-.03-1.51-.04-2.21Z"/><path class="cls-12" d="M72.83,38.51s-.01.04-.02.06c-.04.11-.07.21-.11.32-.01.25-.03.49-.05.74.04.07.08.15.11.22.03-.45.05-.89.07-1.34Z"/><path class="cls-12" d="M73.28,45.74c.02-.34.04-.68.06-1.02-.06.06-.12.12-.18.18-.01.12-.03.25-.04.37-.04.45-.07.9-.1,1.35l.22-.12c.01-.25.02-.51.04-.76Z"/><path class="cls-12" d="M73.17,57.7c.04-.09.08-.17.13-.26,0,0,0-.01.01-.02v.18c0,.77.03,1.59.03,2.37,0,1.36.02,2.72.05,4.07.01.68.03,1.41.05,2.03.01.69.02,1.37.04,2.05,0,.16,0,1.45,0,3.11-.07-.08-.13-.17-.19-.26,0-2.07-.01-3.8-.01-4.04-.01-.67-.03-1.31-.03-1.94-.02-1.25-.02-2.5-.03-3.74,0-.39,0-.77,0-1.16,0-.1.02-.19.03-.29,0,.02-.02.03-.03.05h0s0-.74,0-.74c-.01-.48-.03-.96-.05-1.44Z"/><path class="cls-12" d="M73.88,35.84c-.04.09-.08.19-.12.28-.03.06-.05.13-.08.2-.01.67-.03,1.34-.06,2,.05-.1.11-.19.16-.29.04-.73.07-1.46.1-2.2Z"/><path class="cls-12" d="M72.36,68.09h0s0-.04,0-.06c0,.24.01.48.02.73-.01-.23-.02-.45-.03-.67Z"/><path class="cls-12" d="M72.58,60.98c.04-.08.09-.16.13-.23,0-.64-.02-1.29-.04-1.97-.05.12-.11.24-.16.37-.01.03-.03.06-.04.09.03.36.06.72.09,1.08,0,.22,0,.45.01.67Z"/><path class="cls-12" d="M72.34,46.13c.02-.18.03-.36.05-.53-.1.08-.19.15-.28.2-.01.13-.03.26-.04.39-.02.33-.04.67-.05,1.01l.27-.16c.01-.31.03-.61.05-.92Z"/><path class="cls-12" d="M71.7,62.39s.04.06.06.09c.01-.03.03-.06.04-.08-.01-.44-.03-.9-.04-1.33-.04.1-.08.21-.11.31.02.33.04.67.05,1.01Z"/><path class="cls-12" d="M72.39,68.83s0,.16,0,.35c0-.2,0-.32,0-.35Z"/><path class="cls-12" d="M74.03,56.31c.02.33.09.64.16.94.01-1.01.03-2.02.05-3.03,0-.25,0-.5,0-.74-.05,1.04-.27,1.86-.21,2.84Z"/><path class="cls-12" d="M80.3,48.02c-.02-.65-.03-1.3-.05-1.95-.06-.18-.12-.37-.18-.55,0,.8,0,1.6.03,2.4.07.03.13.07.2.1Z"/><path class="cls-12" d="M79.97,31.48c0-.76,0-1.52-.01-2.28,0-.07,0-.14,0-.21-.06-.16-.13-.31-.19-.46-.03-.08-.06-.15-.09-.22.05.93.09,1.87.12,2.81.06.12.12.24.18.35Z"/><path class="cls-12" d="M74.19,57.25c.11.45.22.88.18,1.38-.04,2.11-.03,4.21.02,6.32.02.71.04,1.47.07,2.18,0,.29,0,2.49,0,4.95-.07-.03-.13-.07-.19-.11,0-2.55,0-4.87,0-5.22-.03-.61-.04-1.43-.05-2.14-.05-2.46-.05-4.91-.02-7.35Z"/><path class="cls-12" d="M80.55,30.68c-.03-.1-.07-.21-.1-.31-.02-.06-.04-.12-.06-.18,0,.71,0,1.42-.01,2.13.05.1.1.21.14.31.02-.65.02-1.3.03-1.95Z"/><path class="cls-12" d="M79.85,49.8l.11,1.07c0,.14,0,.29,0,.43.01.73.03,1.47.05,2.2v.06c.02.71.04,1.43.07,2.14.02.86.03,1.64.05,2.41.03,1.55.07,3.1.11,4.64.01.47.03,4.77.04,8.22-.06.09-.12.17-.18.24-.01-3.47-.02-7.88-.03-8.36-.03-1.53-.06-3.06-.08-4.59-.01-.77-.03-1.58-.04-2.38-.03-.77-.05-1.53-.06-2.3-.02-.77-.03-1.53-.04-2.29v-.13c0-.45,0-.9,0-1.35Z"/><path class="cls-12" d="M79.86,44.8c0,1-.01,2-.01,2.99.03.01.06.03.09.05,0-.93,0-1.87,0-2.8-.02-.08-.04-.16-.06-.24Z"/></g></svg>