<?xml version="1.0" encoding="UTF-8"?><svg xmlns="http://www.w3.org/2000/svg" xmlns:xlink="http://www.w3.org/1999/xlink" viewBox="0 0 102.24 150.24"><defs><style>.cls-1{fill:none;stroke:#1e1e1c;stroke-miterlimit:10;stroke-width:.25px;}.cls-2{fill:url(#linear-gradient-8);}.cls-3{fill:url(#linear-gradient-7);}.cls-4{fill:url(#linear-gradient-5);}.cls-5{fill:url(#linear-gradient-6);}.cls-6{fill:url(#linear-gradient-9);}.cls-7{fill:url(#linear-gradient-4);}.cls-8{fill:url(#linear-gradient-3);}.cls-9{fill:url(#linear-gradient-2);}.cls-10{fill:url(#linear-gradient);}.cls-11{fill:#356d55;}.cls-12{fill:#ae4c3b;}.cls-13{fill:url(#linear-gradient-10);}.cls-14{fill:#c0683b;}</style><linearGradient id="linear-gradient" x1="1596.99" y1="36.21" x2="1597.47" y2="36.95" gradientTransform="translate(1638.89 0) rotate(-180) scale(1 -1)" gradientUnits="userSpaceOnUse"><stop offset="0" stop-color="#658e4c"/><stop offset="1" stop-color="#a0b37a"/></linearGradient><linearGradient id="linear-gradient-2" x1="1563.7" y1="28.18" x2="1608.05" y2="97.51" xlink:href="#linear-gradient"/><linearGradient id="linear-gradient-3" x1="1569.12" y1="36.21" x2="1569.6" y2="36.95" xlink:href="#linear-gradient"/><linearGradient id="linear-gradient-4" x1="1535.83" y1="28.18" x2="1580.18" y2="97.51" xlink:href="#linear-gradient"/><linearGradient id="linear-gradient-5" x1="1807.16" y1="35.88" x2="1807.63" y2="36.63" gradientTransform="translate(-1741.89 150.05) scale(1 -1)" gradientUnits="userSpaceOnUse"><stop offset="0" stop-color="#935537"/><stop offset="1" stop-color="#cc7e62"/></linearGradient><linearGradient id="linear-gradient-6" x1="1773.93" y1="27.87" x2="1818.19" y2="97.07" xlink:href="#linear-gradient-5"/><linearGradient id="linear-gradient-7" x1="1779.28" y1="35.88" x2="1779.76" y2="36.63" xlink:href="#linear-gradient-5"/><linearGradient id="linear-gradient-8" x1="1746.05" y1="27.87" x2="1790.32" y2="97.07" xlink:href="#linear-gradient-5"/><linearGradient id="linear-gradient-9" x1="1900.39" y1="131.96" x2="1900.9" y2="132.77" gradientTransform="translate(-1534.04 1130.77) rotate(-38.81)" gradientUnits="userSpaceOnUse"><stop offset="0" stop-color="#cd9a5a"/><stop offset="1" stop-color="#db9d61"/></linearGradient><linearGradient id="linear-gradient-10" x1="1864.49" y1="123.31" x2="1912.31" y2="198.05" xlink:href="#linear-gradient-9"/></defs><g id="NOOOOO"><g id="margem"><polyline class="cls-1" points="21.32 141.14 10.38 141.14 10.38 75.95 10.38 9.1 21.32 9.1"/><line class="cls-1" x1="31.32" y1="9.1" x2="45.53" y2="9.1"/><polyline class="cls-1" points="80.92 9.1 91.86 9.1 91.86 141.14 80.92 141.14"/><line class="cls-1" x1="31.32" y1="9.1" x2="45.53" y2="9.1"/><line class="cls-1" x1="70.92" y1="141.14" x2="56.71" y2="141.14"/><line class="cls-1" x1="56.71" y1="9.1" x2="70.92" y2="9.1"/><line class="cls-1" x1="45.53" y1="141.14" x2="31.32" y2="141.14"/></g></g><g id="BASTOS"><path class="cls-10" d="M41.57,37.18c0-.32.01-.63.02-.95-.01.3-.02.59-.03.88h0s0,.06,0,.08Z"/><path class="cls-9" d="M42.9,51.44c.21,3.85.97,14.7.97,14.7l-2.79-1.72-.31,1.54s3.43,2.18,3.38,5.08c-.02.97.06,2.88.05,7.15-.04-.06-.07-.12-.11-.19-.08-.16-.17-.32-.26-.48-.18-.33-.36-.66-.53-1-.18-.33-.35-.67-.52-1.01-.16-.33-.33-.66-.49-.98-.08-.16-.15-.31-.22-.46-.1.22-.21.43-.31.65,0,0,0,.01,0,.02.11.34.23.7.34,1.05.12.36.24.72.37,1.08.12.36.25.72.39,1.08.06.18.13.35.19.53.07.17.13.35.2.52.13.33.26.66.39.97.12.31.26.6.38.87.05.11.1.22.15.33-.01,2.76.23,9.97.52,17.37v.02c.01.37.03.73.04,1.09,0,.36.02.71.04,1.07h0c.37,9.35.78,18.33.78,18.33h.12c.45-.43.92-.84,1.34-1.28.03-.02.05-.04.07-.07.03-.02.05-.05.07-.07h0s.03-.03.04-.04c.36-.4.54-.9.74-1.39.07-.18.15-.36.24-.53.03-.06.06-.12.09-.18.04-.08.09-.16.15-.24.13-.19.29-.34.44-.48.07-.07.14-.13.21-.19.03-1.29.07-2.79.1-4.43,0-.27.01-.55.02-.83,0-.06,0-.12,0-.18.14-5.85.34-13.12.54-18.41.04-.08.12-.23.23-.45.08-.16.17-.36.26-.58.05-.11.1-.23.16-.35.05-.12.1-.26.16-.4.1-.28.22-.57.33-.89.11-.32.23-.65.33-.99.05-.17.11-.35.17-.53.05-.18.1-.36.16-.54.11-.36.21-.73.32-1.1.11-.37.2-.74.3-1.1.08-.31.16-.62.24-.92-.11-.24-.22-.47-.34-.71-.05.12-.11.25-.16.38-.14.33-.28.67-.43,1.01-.15.34-.3.69-.45,1.03-.16.35-.31.69-.47,1.03-.08.16-.16.33-.24.5-.08.16-.16.33-.24.48-.06.12-.12.24-.18.36.42-10.11-.8-15.46,1.49-21.71.04-.1.06-.2.09-.29.04-.04.07-.09.11-.13.16-.2.34-.41.52-.61.18-.21.37-.42.55-.63.01-.01.03-.03.04-.05-.08-.3-.16-.61-.26-.9-.13.09-.26.19-.4.29-.13.1-1.55.87-1.68.97l.29-4.58.2-3.15.42-6.64.34-5.48.21-3.3v-.04s.19-2.91.19-2.91l.11-1.75c-.03-.16-.06-.32-.09-.47-.04-.2-.09-.41-.15-.6-.06-.21-.12-.41-.21-.6-.07-.19-.15-.37-.24-.54-.08-.17-.17-.33-.27-.48-.07-.11-.14-.22-.22-.32-.29-.39-.63-.72-1.03-.99-.02-.01-.04-.02-.05-.03-.17-.12-.36-.22-.56-.31-.08-.04-.16-.07-.25-.1-.11-.04-.22-.08-.33-.12-.12-.04-.24-.07-.37-.1-.25-.06-.51-.1-.78-.12-.07,0-.13-.01-.2-.01-.15-.01-.31-.02-.47-.02-.07,0-.13,0-.2,0-.03,0-.06,0-.09,0-.2,0-.4.02-.59.05-.04,0-.08,0-.11.01-.06,0-.12.01-.17.03-.13.02-.26.05-.38.08-.23.05-.45.12-.66.21-.08.03-.15.06-.23.1-.12.06-.25.12-.36.19-.08.04-.16.09-.23.15-.37.25-.68.56-.95.91-.08.11-.16.22-.24.34-.24.37-.43.78-.58,1.22-.05.14-.1.29-.14.44-.21.74-.33,1.57-.38,2.45.09.89.2,1.93.32,3.06.04.37.08.74.11,1.11h0c.2,2.01.41,4.16.58,5.97,0,.12.02.25.03.37,0-.02-.02-.04-.03-.05,0-.01-.01-.03-.02-.04-.08-.16-.17-.32-.26-.49-.18-.33-.36-.66-.53-.99-.18-.33-.35-.68-.52-1.01-.15-.3-.3-.6-.45-.89-.13.22-.26.44-.39.66.05.16.11.33.16.51.12.36.24.72.37,1.08.13.37.25.73.39,1.08.06.17.13.35.19.53.07.17.13.34.2.51.13.34.26.66.39.97.12.31.26.6.38.86,0,.02.02.04.03.05.05.12.1.23.16.33,0,0,0,.01.01.03h0c.05.12.11.22.16.32,0,.02.01.03.02.05Z"/><path class="cls-11" d="M49.44,99.73c-.03-.84-.06-1.69-.1-2.55.04.74.07,1.47.11,2.21,0,.11,0,.22,0,.34Z"/><path class="cls-11" d="M49.55,56.5c0,1,.01,2.01.02,3.02.32,8.3.47,16.64-.15,24.78.4-7.99.57-16.02.12-24.26,0-1.02-.02-2.14-.02-3.17-.07-2.17,0-4.11.08-6.2.03-1.03.07-2.06.1-3.1-.02.96-.05,1.93-.07,2.89-.06,2.02-.08,4.03-.08,6.04Z"/><path class="cls-11" d="M48.47,92.65c.04,4.1.16,8.18.41,12.25,0,1.06,0,2.26,0,3.32,0,2.18-.01,4.35-.02,6.53.07-.07.14-.13.21-.19.03-1.29.07-2.79.1-4.43,0-.24.01-.47.02-.71v-.12c0-.06,0-.12,0-.18.02-.82.03-1.63.04-2.44,0-.91-.03-1.82-.04-2.74-.02-.94-.04-1.87-.08-2.91-.2-2.55-.33-5.11-.4-7.66-.03-.85-.04-1.7-.06-2.55-.03-.91-.03-1.93-.04-2.87.49-8.99.91-17.87.33-27.22,0-1.05-.03-2.21-.03-3.25,0-2.1,0-4.19.04-6.28.05-1.09.1-2.18.14-3.27.03-.82.06-1.64.09-2.46.03-.82.05-1.64.08-2.46.02-.65.04-6.73.06-11.32-.08-.04-.16-.07-.25-.1-.02,4.46-.04,10.23-.06,10.77-.03.97-.07,2.01-.1,2.98-.07,1.94-.14,3.89-.21,5.83-.04,1.13-.08,2.29-.11,3.52.06.94.1,1.87.14,2.79.04.93.08,1.86.1,2.79.5,8.52.29,16.76-.27,25.42-.14,1.52-.07,3.03-.1,4.51,0,.82,0,1.64.02,2.46Z"/><path class="cls-11" d="M48.01,95.09c.05,2.44.1,4.9.14,7.37,0,.95,0,2.08-.01,3.04-.02.92-.04,1.8-.06,2.68-.07,2.66-.1,5.33-.12,7.99.07-.18.15-.36.24-.53.03-.06.06-.11.09-.17h0c.02-2.57.06-5.13.12-7.7.02-.96.04-1.93.05-2.95-.12-2.64-.21-5.29-.26-7.95-.02-.88-.04-1.77-.05-2.65,0-.8-.02-1.6-.03-2.4s-.02-1.6-.02-2.41c-.03-5.27.39-10.03.6-15.23.21-4.98-.28-9.75-.34-14.43-.02-1.05-.04-2.1-.06-3.15-.02-1.05-.04-2.11-.06-3.16.08-.96.12-2.19.17-3.29.05-.95.09-1.91.13-2.87.04-.96.07-1.92.1-2.88.04-1.08.07-7.92.1-12.94-.12-.04-.24-.07-.37-.1-.02,4.49-.03,10.17-.04,10.75-.03,1.02-.07,2.12-.11,3.15-.08,2.05-.19,4.1-.32,6.15-.04,1.09-.06,2.16-.07,3.28,0,.88.02,1.76.04,2.64.02.88.03,1.76.05,2.64.57,8.81.43,17.47-.1,26.29,0,1.1.02,2.16.04,3.22.03,1.05.06,2.1.1,3.16.02.82.03,1.64.05,2.46Z"/><path class="cls-11" d="M51.94,84.55c-.03.11-.06.22-.09.33-.02.05-.03.11-.05.16-.01-.22-.03-.45-.04-.68-.03-.45-.05-.9-.08-1.35.05-.12.1-.24.15-.36.04.63.07,1.26.11,1.89Z"/><path class="cls-11" d="M51.15,55.99l.35-3.52c.02-.74.04-1.52.05-2.24.02-.93.04-3.32.06-6.21.02-3.05.04-6.66.06-9.67-.07-.19-.15-.37-.24-.54-.01,4.21-.02,9.05-.04,9.51-.05,1.68-.09,3.36-.12,5.05,0,.37,0,.75-.01,1.13,0,.59-.02,1.19-.03,1.78-.03,1.57-.06,3.14-.09,4.71Z"/><path class="cls-11" d="M46.96,110.89c-.02,2.25.06,4.56.06,6.86h0s.1-.09.14-.14h0c-.02-2.03-.08-4.04-.08-6.15.04-1.09.08-2.17.12-3.26.03-.94.05-1.89.06-2.84.02-.97.03-2.05.04-3.01.01-.85.03-1.71.04-2.56,0-.86.02-1.72.02-2.58,0-3.11-.08-6.18-.14-9.24-.02-1.02-.03-2.07-.04-3.1.11-7.66.53-15.02.16-22.67,0-.83-.02-1.67-.04-2.5-.03-1.67-.08-3.34-.16-5.01.02-1.06.03-2.26.04-3.38.09-2.55.17-5.05.25-7.54.02-.84.05-1.73.08-2.56.02-.51.04-5.66.05-9.98-.07,0-.13-.01-.2-.01-.03,4.54-.05,10.47-.07,11.08-.03.86-.05,1.72-.08,2.58-.05,1.71-.11,3.41-.17,5.1-.02.83-.04,1.66-.04,2.48-.01.82-.02,1.67-.04,2.47.04,2.43.08,4.87.11,7.3.01.82.03,1.64.04,2.47.44,6.67-.12,13.38-.12,20.07.02,1.02.04,2.09.06,3.12.08,3.09.16,6.18.17,9.26,0,.88,0,1.76,0,2.63,0,.88-.01,1.76-.03,2.63,0,.87-.03,1.9-.04,2.79-.02.88-.05,1.76-.09,2.63-.04,1.01-.08,2.02-.12,3.03Z"/><path class="cls-11" d="M49.78,44.59c-.02.91-.05,1.83-.07,2.74.03-.85.06-1.69.08-2.54.03-.93.06-1.93.08-2.84.01-.34.02-5.69.04-9.92-.02-.01-.04-.02-.05-.03,0,4.18,0,9.43-.01,9.74-.03.9-.04,1.93-.07,2.86Z"/><path class="cls-11" d="M49.7,47.57s0-.02,0-.04c0-.07,0-.14,0-.2,0,.08,0,.16,0,.24Z"/><path class="cls-11" d="M51.72,50.27l.15-1.5c.04-1.26.08-6.23.14-10.99,0-.75.01-1.49.02-2.22-.04-.2-.09-.41-.15-.6-.02,1.81-.04,3.8-.06,5.73v.04c-.04,4.27-.08,8.27-.1,9.54Z"/><path class="cls-11" d="M51.43,65.09s-.03.1-.05.15c-.02.06-.04.12-.06.18.01-.7.03-1.41.04-2.11.04-.02.08-.05.12-.07-.02.62-.04,1.24-.05,1.86Z"/><path class="cls-11" d="M52.43,62.61c.03.08.05.16.08.25-.03.32-.05.64-.08.96-.07.08-.14.16-.2.23.04-.46.08-.92.13-1.38.03-.02.05-.04.08-.06Z"/><path class="cls-11" d="M45.8,44.02c.02-.76.04-1.52.07-2.27.04-.98.08-1.99.13-2.96,0-.26.01-3.9.02-7.52-.04,0-.08,0-.11.01-.02,4.4-.04,9.65-.06,10.22-.03.84-.04,1.68-.05,2.51Z"/><path class="cls-11" d="M45.79,53.59c-.1-3.22-.08-6.41.01-9.58-.05,3.03-.03,6.07.07,9.1,0,.98.01,1.97.03,2.95.02.99.04,1.98.07,2.98,0,.05-.01.11-.02.16-.05-.88-.08-1.74-.11-2.59-.03-1.01-.05-2.02-.06-3.02Z"/><path class="cls-11" d="M44.09,55.1c.16.52.33,1.01.33,1.55,0,1.05-.01,2.11-.02,3.16,0,1.01,0,2.05,0,3.06.04.76.07,1.52.1,2.29.03.76.06,1.54.09,2.29,0,1.03.01,2.07.02,3.16.14,9.42.88,18.56.07,27.92v.02c.01.37.03.73.04,1.09,0,.36.02.71.04,1.07,1.03-10.34.06-20.92-.03-31.5-.02-.89-.03-1.81-.04-2.7-.04-.91-.09-1.83-.15-2.74-.01-1.09-.01-2.11,0-3.11,0-.66,0-1.42.01-2.09,0-.84.01-1.67.02-2.5,0-.85,0-1.73.02-2.58-.13-4.33-.12-8.63,0-12.94.02-.88.04-1.79.08-2.67,0-.25,0-3.11,0-6.27-.08.03-.15.06-.23.1,0,3.66-.03,7.15-.05,7.68-.05,1.07-.09,2.14-.13,3.2-.16,4.26-.26,8.48-.19,12.51Z"/><path class="cls-11" d="M41.26,47.52c.03-.29.05-.58.08-.86-.01.32-.02.64-.04.96-.01-.03-.02-.07-.04-.1Z"/><path class="cls-11" d="M41.34,46.66c.01-.38.02-.76.03-1.14,0,0,0,0,0,.01,0,.33-.02.65-.02.98,0,.05,0,.1-.01.14Z"/><path class="cls-11" d="M46.48,82.84c-.06-1.82-.07-3.67-.04-5.54.01,1.49.02,2.97.03,4.45,0,.36.01.73.02,1.09Z"/><path class="cls-11" d="M46.3,48.71c0,.95,0,1.91,0,2.87,0,.95,0,1.9,0,2.86,0,.96.04,1.99.07,2.95.11,1.77.13,3.55.12,5.35,0,.9-.02,1.8-.04,2.7-.11,4-.06,7.95-.03,11.87.05-3.99.21-8.03.19-11.96.01-.89.02-1.79.02-2.69,0-1.78-.05-3.57-.16-5.36-.03-1.15-.04-2.29-.04-3.41s0-2.24.02-3.35c.01-.93.03-1.87.04-2.8,0-1.5.04-3.03.08-4.58.02-.77.05-1.54.08-2.32.01-.52.04-5.38.06-9.63-.03,0-.06,0-.09,0-.03,4.08-.04,8.55-.06,8.99-.02.91-.06,1.89-.09,2.83-.04.94-.07,1.88-.12,2.82-.02.95-.04,1.9-.05,2.85Z"/><path class="cls-11" d="M46.62,86.84c.11,3.23.22,6.47.19,9.76-.01.84-.03,1.71-.05,2.57-.03.85-.06,1.7-.11,2.55-.02.97-.04,1.85-.07,2.73-.02.86-.05,1.72-.09,2.58-.02.9-.04,1.88-.05,2.79,0,.83,0,1.66,0,2.49-.07,1.52-.21,3.03-.21,4.55.01.54.02,1.08.03,1.62-.03.03-.06.06-.09.08,0-1.15-.01-2.29-.01-3.44-.07-1.3.21-2.38.14-3.68-.01-.84-.02-1.68-.03-2.52.02-.93.04-1.85.06-2.78.02-.92.03-1.85.05-2.77.04-.89.08-1.77.12-2.66.03-.89.06-1.78.09-2.66.11-4.57.02-9.08-.08-13.58-.01-.54-.02-1.09-.03-1.64,0,.26.02.52.03.78.04,1.07.07,2.15.11,3.22Z"/><path class="cls-11" d="M46.27,98.3c-.06.91-.12,1.83-.2,2.73-.03.92-.06,1.76-.09,2.6-.03.82-.06,1.63-.09,2.45,0,.87,0,1.68,0,2.49,0,.81,0,1.62.01,2.43.07,2.38-.28,4.55-.21,6.93.01.36.02.71.03,1.07-.01,0-.02.02-.03.03h0c-.02-1.31-.04-2.61-.06-3.91-.07-1.95.28-3.9.21-5.85,0-.72,0-1.49-.02-2.16.02-.83.04-1.66.05-2.49.02-.84.04-1.75.06-2.57.07-.95.14-1.89.19-2.84.09-2.07.12-4.15.12-6.23-.03,1.88-.1,3.75-.24,5.6-.07.92-.15,1.84-.24,2.76-.04.82-.09,1.67-.13,2.47-.04.79-.08,1.58-.13,2.37,0,.77-.02,1.78-.02,2.66,0,3.14.02,6.3.06,9.46-.05-1.03-.14-3.07-.25-5.71.03-.33.06-.65.06-.94,0-.93-.01-1.87-.02-2.8,0-.93,0-1.99,0-2.91.03-.64.06-1.29.08-1.93.03-.64.05-1.29.07-1.93.09-1.07.17-2.13.24-3.2.67-9.75-.52-19.28-.33-29.05,0-.67,0-1.36,0-2.04-.01-2.02-.04-4.04-.1-6.02.04-.79.07-1.68.12-2.5.05-.8.12-1.61.21-2.42,0-.01,0-.03,0-.04,0,.92-.01,1.85-.02,2.77.02,1.53.04,3.04.05,4.56,0-1.65.08-3.3.29-4.95,0,.17.02.34.03.51-.22,2.69-.24,5.45-.2,8.22,0,.18,0,.36,0,.54.03.65.06,1.3.1,1.93.01,3.78.08,7.46.28,11.24.03.93.07,1.87.1,2.8.15,4.65.25,9.27.02,13.85Z"/><path class="cls-11" d="M45.62,56.83c0-.18,0-.35,0-.53.02.17.02.34,0,.53Z"/><path class="cls-11" d="M45.62,56.3v-.07c0-1.01.02-2.02.03-3.03.01-1.01.02-2.04.02-3.09-.07-3.01-.06-6.03,0-9.05.01-.57.03-5.45.06-9.75-.13.02-.26.05-.38.08-.01,3.94-.02,8.09-.03,8.5-.02.78-.04,1.56-.05,2.35-.07,3.92-.04,7.86-.08,11.81-.05.88.35,1.48.43,2.25Z"/><path class="cls-11" d="M49.17,90.99c.02,2.05.1,4.13.18,6.2-.12-2.35-.25-4.7-.27-7.09,0-.76,0-1.53.04-2.35.12-1.15.22-2.3.31-3.45-.08,1.54-.16,3.08-.25,4.61,0,.6-.01,1.38,0,2.08Z"/><path class="cls-11" d="M41.91,40.47c.04.37.08.74.11,1.11,0-.21,0-.41,0-.62,0-.9.02-1.8.04-2.79.01-.32.03-1.75.04-3.65-.05.14-.1.29-.14.44,0,1.4,0,2.4,0,2.62-.02,1.02-.04,1.97-.05,2.9Z"/><path class="cls-11" d="M42.13,75.86s-.02-.05-.03-.08c-.05-.14-.09-.28-.14-.42-.02-.32-.04-.65-.06-.97.05-.1.09-.19.14-.29.03.58.06,1.17.08,1.75Z"/><path class="cls-11" d="M42.68,66.38c.02.44.05.89.07,1.33-.07-.08-.14-.16-.21-.24-.02-.16-.03-.32-.05-.48-.05-.59-.09-1.18-.12-1.77l.26.16c.01.33.03.67.05,1Z"/><path class="cls-11" d="M42.55,50.71c.05.12.1.23.16.33,0,0,0,.01.01.03v-.24c0-1.01.03-2.09.04-3.11,0-1.78.02-3.56.06-5.34.01-.89.04-1.84.06-2.66.01-.9.03-1.8.05-2.69,0-.2,0-1.89,0-4.08-.08.11-.16.22-.24.34,0,2.72-.01,4.97-.02,5.29-.02.88-.03,1.72-.04,2.54-.02,1.64-.03,3.27-.03,4.91,0,.51,0,1.01,0,1.52,0,.12.02.25.03.37,0-.02-.02-.04-.03-.06h0s0,.97,0,.97c-.02.63-.04,1.26-.06,1.88Z"/><path class="cls-11" d="M43.4,79.36c-.05-.12-.1-.25-.15-.37-.03-.08-.07-.17-.1-.26-.02-.88-.04-1.75-.07-2.63.06.13.13.25.19.37.05.96.09,1.92.12,2.88Z"/><path class="cls-11" d="M41.56,37.1h0s0,.06,0,.08c0-.32.01-.63.02-.95-.01.3-.02.59-.03.88Z"/><path class="cls-11" d="M41.83,46.42c.05.1.11.2.16.3,0,.84-.02,1.69-.05,2.59-.06-.16-.13-.32-.19-.49-.02-.04-.03-.08-.05-.12.04-.47.08-.94.11-1.41,0-.29,0-.58.01-.87Z"/><path class="cls-11" d="M41.54,65.87c.02.23.04.47.05.7-.12-.1-.23-.19-.33-.27-.02-.17-.03-.34-.05-.51-.02-.44-.04-.88-.06-1.32l.33.2c.02.4.03.8.05,1.2Z"/><path class="cls-11" d="M40.76,44.58s.05-.08.07-.12c.02.04.04.07.05.11-.02.58-.04,1.18-.05,1.74-.05-.14-.09-.27-.14-.41.02-.44.04-.88.07-1.32Z"/><path class="cls-11" d="M41.59,36.14s0-.2,0-.46c0,.26,0,.41,0,.46Z"/><path class="cls-11" d="M43.59,52.54c.03-.43.11-.83.2-1.23.02,1.32.04,2.65.07,3.97,0,.32,0,.65,0,.97-.05-1.37-.32-2.44-.26-3.71Z"/><path class="cls-11" d="M51.19,63.4c-.02.85-.04,1.71-.06,2.56-.08.24-.15.48-.22.72,0-1.05,0-2.09.03-3.14.08-.04.16-.09.24-.14Z"/><path class="cls-11" d="M50.79,85.08c0,.99,0,1.99-.02,2.98,0,.09,0,.18,0,.27-.08.21-.15.41-.23.6-.04.1-.08.2-.11.29.06-1.23.1-2.45.14-3.68.07-.15.14-.31.22-.46Z"/><path class="cls-11" d="M43.79,51.31c.13-.58.26-1.16.22-1.8-.05-2.76-.04-5.52.03-8.28.02-.94.05-1.92.08-2.85,0-.38,0-3.26,0-6.48-.08.04-.16.09-.23.15,0,3.35,0,6.38,0,6.84-.03.8-.04,1.88-.06,2.8-.06,3.22-.06,6.43-.02,9.63Z"/><path class="cls-11" d="M51.49,86.12c-.04.13-.08.27-.12.4-.03.08-.05.16-.08.23,0-.93,0-1.86-.01-2.79.06-.13.12-.27.17-.4.02.85.03,1.71.04,2.56Z"/><path class="cls-11" d="M50.64,61.07l.14-1.4c0-.19,0-.37,0-.56.01-.96.03-1.93.06-2.89v-.08c.02-.94.05-1.88.09-2.81.02-1.12.04-2.14.06-3.16.04-2.03.08-4.06.13-6.07.02-.62.03-6.25.04-10.77-.07-.11-.14-.22-.22-.32-.01,4.55-.02,10.33-.03,10.95-.04,2.01-.07,4.02-.1,6.02-.02,1-.04,2.07-.05,3.12-.03,1.01-.06,2.01-.08,3.01-.02,1-.04,2-.04,3v.17c0,.59,0,1.18,0,1.77Z"/><path class="cls-11" d="M50.66,67.62c0-1.31-.01-2.62-.02-3.92.03-.02.07-.04.1-.06,0,1.22,0,2.44,0,3.67-.03.1-.05.21-.08.31Z"/><path class="cls-11" d="M44.01,59.09c.01,1.03.03,2.07.04,3.11.02,1.06.03,2.12.07,3.26.03.74.06,1.47.09,2.21.03.74.05,1.48.07,2.23.07,8.23.58,16.63.27,24.87-.02-.58-.04-1.16-.06-1.73.24-6.6-.1-13.22-.32-19.75-.02-1.08-.03-1.78-.02-2.24,0-.26-.02-.52-.07-.76-.02-.61-.03-1.23-.04-1.84-.02-.71-.05-1.42-.07-2.12-.04-.8-.09-1.62-.14-2.42-.11-2.05-.04-3.78,0-5.79,0-.62.01-1.23.02-1.85,0,.02,0,.05,0,.07.07.91.12,1.84.16,2.77Z"/><path class="cls-8" d="M69.44,37.18c0-.32.01-.63.02-.95-.01.3-.02.59-.03.88h0s0,.06,0,.08Z"/><path class="cls-7" d="M70.77,51.44c.21,3.85.97,14.7.97,14.7l-2.79-1.72-.31,1.54s3.43,2.18,3.38,5.08c-.02.97.06,2.88.05,7.15-.04-.06-.07-.12-.11-.19-.08-.16-.17-.32-.26-.48-.18-.33-.36-.66-.53-1-.18-.33-.35-.67-.52-1.01-.16-.33-.33-.66-.49-.98-.08-.16-.15-.31-.22-.46-.1.22-.21.43-.31.65,0,0,0,.01,0,.02.11.34.23.7.34,1.05.12.36.24.72.37,1.08.12.36.25.72.39,1.08.06.18.13.35.19.53.07.17.13.35.2.52.13.33.26.66.39.97.12.31.26.6.38.87.05.11.1.22.15.33-.01,2.76.23,9.97.52,17.37v.02c.01.37.03.73.04,1.09,0,.36.02.71.04,1.07h0c.37,9.35.78,18.33.78,18.33h.12c.45-.43.92-.84,1.34-1.28.03-.02.05-.04.07-.07.03-.02.05-.05.07-.07h0s.03-.03.04-.04c.36-.4.54-.9.74-1.39.07-.18.15-.36.24-.53.03-.06.06-.12.09-.18.04-.08.09-.16.15-.24.13-.19.29-.34.44-.48.07-.07.14-.13.21-.19.03-1.29.07-2.79.1-4.43,0-.27.01-.55.02-.83,0-.06,0-.12,0-.18.14-5.85.34-13.12.54-18.41.04-.08.12-.23.23-.45.08-.16.17-.36.26-.58.05-.11.1-.23.16-.35.05-.12.1-.26.16-.4.1-.28.22-.57.33-.89.11-.32.23-.65.33-.99.05-.17.11-.35.17-.53.05-.18.1-.36.16-.54.11-.36.21-.73.32-1.1.11-.37.2-.74.3-1.1.08-.31.16-.62.24-.92-.11-.24-.22-.47-.34-.71-.05.12-.11.25-.16.38-.14.33-.28.67-.43,1.01-.15.34-.3.69-.45,1.03-.16.35-.31.69-.47,1.03-.08.16-.16.33-.24.5-.08.16-.16.33-.24.48-.06.12-.12.24-.18.36.42-10.11-.8-15.46,1.49-21.71.04-.1.06-.2.09-.29.04-.04.07-.09.11-.13.16-.2.34-.41.52-.61.18-.21.37-.42.55-.63.01-.01.03-.03.04-.05-.08-.3-.16-.61-.26-.9-.13.09-.26.19-.4.29-.13.1-1.55.87-1.68.97l.29-4.58.2-3.15.42-6.64.34-5.48.21-3.3v-.04s.19-2.91.19-2.91l.11-1.75c-.03-.16-.06-.32-.09-.47-.04-.2-.09-.41-.15-.6-.06-.21-.12-.41-.21-.6-.07-.19-.15-.37-.24-.54-.08-.17-.17-.33-.27-.48-.07-.11-.14-.22-.22-.32-.29-.39-.63-.72-1.03-.99-.02-.01-.04-.02-.05-.03-.17-.12-.36-.22-.56-.31-.08-.04-.16-.07-.25-.1-.11-.04-.22-.08-.33-.12-.12-.04-.24-.07-.37-.1-.25-.06-.51-.1-.78-.12-.07,0-.13-.01-.2-.01-.15-.01-.31-.02-.47-.02-.07,0-.13,0-.2,0-.03,0-.06,0-.09,0-.2,0-.4.02-.59.05-.04,0-.08,0-.11.01-.06,0-.12.01-.17.03-.13.02-.26.05-.38.08-.23.05-.45.12-.66.21-.08.03-.15.06-.23.1-.12.06-.25.12-.36.19-.08.04-.16.09-.23.15-.37.25-.68.56-.95.91-.08.11-.16.22-.24.34-.24.37-.43.78-.58,1.22-.05.14-.1.29-.14.44-.21.74-.33,1.57-.38,2.45.09.89.2,1.93.32,3.06.04.37.08.74.11,1.11h0c.2,2.01.41,4.16.58,5.97,0,.12.02.25.03.37,0-.02-.02-.04-.03-.05,0-.01-.01-.03-.02-.04-.08-.16-.17-.32-.26-.49-.18-.33-.36-.66-.53-.99-.18-.33-.35-.68-.52-1.01-.15-.3-.3-.6-.45-.89-.13.22-.26.44-.39.66.05.16.11.33.16.51.12.36.24.72.37,1.08.13.37.25.73.39,1.08.06.17.13.35.19.53.07.17.13.34.2.51.13.34.26.66.39.97.12.31.26.6.38.86,0,.02.02.04.03.05.05.12.1.23.16.33,0,0,0,.01.01.03h0c.05.12.11.22.16.32,0,.02.01.03.02.05Z"/><path class="cls-11" d="M77.31,99.73c-.03-.84-.06-1.69-.1-2.55.04.74.07,1.47.11,2.21,0,.11,0,.22,0,.34Z"/><path class="cls-11" d="M77.42,56.5c0,1,.01,2.01.02,3.02.32,8.3.47,16.64-.15,24.78.4-7.99.57-16.02.12-24.26,0-1.02-.02-2.14-.02-3.17-.07-2.17,0-4.11.08-6.2.03-1.03.07-2.06.1-3.1-.02.96-.05,1.93-.07,2.89-.06,2.02-.08,4.03-.08,6.04Z"/><path class="cls-11" d="M76.34,92.65c.04,4.1.16,8.18.41,12.25,0,1.06,0,2.26,0,3.32,0,2.18-.01,4.35-.02,6.53.07-.07.14-.13.21-.19.03-1.29.07-2.79.1-4.43,0-.24.01-.47.02-.71v-.12c0-.06,0-.12,0-.18.02-.82.03-1.63.04-2.44,0-.91-.03-1.82-.04-2.74-.02-.94-.04-1.87-.08-2.91-.2-2.55-.33-5.11-.4-7.66-.03-.85-.04-1.7-.06-2.55-.03-.91-.03-1.93-.04-2.87.49-8.99.91-17.87.33-27.22,0-1.05-.03-2.21-.03-3.25,0-2.1,0-4.19.04-6.28.05-1.09.1-2.18.14-3.27.03-.82.06-1.64.09-2.46.03-.82.05-1.64.08-2.46.02-.65.04-6.73.06-11.32-.08-.04-.16-.07-.25-.1-.02,4.46-.04,10.23-.06,10.77-.03.97-.07,2.01-.1,2.98-.07,1.94-.14,3.89-.21,5.83-.04,1.13-.08,2.29-.11,3.52.06.94.1,1.87.14,2.79.04.93.08,1.86.1,2.79.5,8.52.29,16.76-.27,25.42-.14,1.52-.07,3.03-.1,4.51,0,.82,0,1.64.02,2.46Z"/><path class="cls-11" d="M75.88,95.09c.05,2.44.1,4.9.14,7.37,0,.95,0,2.08-.01,3.04-.02.92-.04,1.8-.06,2.68-.07,2.66-.1,5.33-.12,7.99.07-.18.15-.36.24-.53.03-.06.06-.11.09-.17h0c.02-2.57.06-5.13.12-7.7.02-.96.04-1.93.05-2.95-.12-2.64-.21-5.29-.26-7.95-.02-.88-.04-1.77-.05-2.65,0-.8-.02-1.6-.03-2.4s-.02-1.6-.02-2.41c-.03-5.27.39-10.03.6-15.23.21-4.98-.28-9.75-.34-14.43-.02-1.05-.04-2.1-.06-3.15-.02-1.05-.04-2.11-.06-3.16.08-.96.12-2.19.17-3.29.05-.95.09-1.91.13-2.87.04-.96.07-1.92.1-2.88.04-1.08.07-7.92.1-12.94-.12-.04-.24-.07-.37-.1-.02,4.49-.03,10.17-.04,10.75-.03,1.02-.07,2.12-.11,3.15-.08,2.05-.19,4.1-.32,6.15-.04,1.09-.06,2.16-.07,3.28,0,.88.02,1.76.04,2.64.02.88.03,1.76.05,2.64.57,8.81.43,17.47-.1,26.29,0,1.1.02,2.16.04,3.22.03,1.05.06,2.1.1,3.16.02.82.03,1.64.05,2.46Z"/><path class="cls-11" d="M79.81,84.55c-.03.11-.06.22-.09.33-.02.05-.03.11-.05.16-.01-.22-.03-.45-.04-.68-.03-.45-.05-.9-.08-1.35.05-.12.1-.24.15-.36.04.63.07,1.26.11,1.89Z"/><path class="cls-11" d="M79.02,55.99l.35-3.52c.02-.74.04-1.52.05-2.24.02-.93.04-3.32.06-6.21.02-3.05.04-6.66.06-9.67-.07-.19-.15-.37-.24-.54-.01,4.21-.02,9.05-.04,9.51-.05,1.68-.09,3.36-.12,5.05,0,.37,0,.75-.01,1.13,0,.59-.02,1.19-.03,1.78-.03,1.57-.06,3.14-.09,4.71Z"/><path class="cls-11" d="M74.83,110.89c-.02,2.25.06,4.56.06,6.86h0s.1-.09.14-.14h0c-.02-2.03-.08-4.04-.08-6.15.04-1.09.08-2.17.12-3.26.03-.94.05-1.89.06-2.84.02-.97.03-2.05.04-3.01.01-.85.03-1.71.04-2.56,0-.86.02-1.72.02-2.58,0-3.11-.08-6.18-.14-9.24-.02-1.02-.03-2.07-.04-3.1.11-7.66.53-15.02.16-22.67,0-.83-.02-1.67-.04-2.5-.03-1.67-.08-3.34-.16-5.01.02-1.06.03-2.26.04-3.38.09-2.55.17-5.05.25-7.54.02-.84.05-1.73.08-2.56.02-.51.04-5.66.05-9.98-.07,0-.13-.01-.2-.01-.03,4.54-.05,10.47-.07,11.08-.03.86-.05,1.72-.08,2.58-.05,1.71-.11,3.41-.17,5.1-.02.83-.04,1.66-.04,2.48-.01.82-.02,1.67-.04,2.47.04,2.43.08,4.87.11,7.3.01.82.03,1.64.04,2.47.44,6.67-.12,13.38-.12,20.07.02,1.02.04,2.09.06,3.12.08,3.09.16,6.18.17,9.26,0,.88,0,1.76,0,2.63,0,.88-.01,1.76-.03,2.63,0,.87-.03,1.9-.04,2.79-.02.88-.05,1.76-.09,2.63-.04,1.01-.08,2.02-.12,3.03Z"/><path class="cls-11" d="M77.65,44.59c-.02.91-.05,1.83-.07,2.74.03-.85.06-1.69.08-2.54.03-.93.06-1.93.08-2.84.01-.34.02-5.69.04-9.92-.02-.01-.04-.02-.05-.03,0,4.18,0,9.43-.01,9.74-.03.9-.04,1.93-.07,2.86Z"/><path class="cls-11" d="M77.57,47.57s0-.02,0-.04c0-.07,0-.14,0-.2,0,.08,0,.16,0,.24Z"/><path class="cls-11" d="M79.59,50.27l.15-1.5c.04-1.26.08-6.23.14-10.99,0-.75.01-1.49.02-2.22-.04-.2-.09-.41-.15-.6-.02,1.81-.04,3.8-.06,5.73v.04c-.04,4.27-.08,8.27-.1,9.54Z"/><path class="cls-11" d="M79.3,65.09s-.03.1-.05.15c-.02.06-.04.12-.06.18.01-.7.03-1.41.04-2.11.04-.02.08-.05.12-.07-.02.62-.04,1.24-.05,1.86Z"/><path class="cls-11" d="M80.3,62.61c.03.08.05.16.08.25-.03.32-.05.64-.08.96-.07.08-.14.16-.2.23.04-.46.08-.92.13-1.38.03-.02.05-.04.08-.06Z"/><path class="cls-11" d="M73.67,44.02c.02-.76.04-1.52.07-2.27.04-.98.08-1.99.13-2.96,0-.26.01-3.9.02-7.52-.04,0-.08,0-.11.01-.02,4.4-.04,9.65-.06,10.22-.03.84-.04,1.68-.05,2.51Z"/><path class="cls-11" d="M73.66,53.59c-.1-3.22-.08-6.41.01-9.58-.05,3.03-.03,6.07.07,9.1,0,.98.01,1.97.03,2.95.02.99.04,1.98.07,2.98,0,.05-.01.11-.02.16-.05-.88-.08-1.74-.11-2.59-.03-1.01-.05-2.02-.06-3.02Z"/><path class="cls-11" d="M71.96,55.1c.16.52.33,1.01.33,1.55,0,1.05-.01,2.11-.02,3.16,0,1.01,0,2.05,0,3.06.04.76.07,1.52.1,2.29.03.76.06,1.54.09,2.29,0,1.03.01,2.07.02,3.16.14,9.42.88,18.56.07,27.92v.02c.01.37.03.73.04,1.09,0,.36.02.71.04,1.07,1.03-10.34.06-20.92-.03-31.5-.02-.89-.03-1.81-.04-2.7-.04-.91-.09-1.83-.15-2.74-.01-1.09-.01-2.11,0-3.11,0-.66,0-1.42.01-2.09,0-.84.01-1.67.02-2.5,0-.85,0-1.73.02-2.58-.13-4.33-.12-8.63,0-12.94.02-.88.04-1.79.08-2.67,0-.25,0-3.11,0-6.27-.08.03-.15.06-.23.1,0,3.66-.03,7.15-.05,7.68-.05,1.07-.09,2.14-.13,3.2-.16,4.26-.26,8.48-.19,12.51Z"/><path class="cls-11" d="M69.13,47.52c.03-.29.05-.58.08-.86-.01.32-.02.64-.04.96-.01-.03-.02-.07-.04-.1Z"/><path class="cls-11" d="M69.21,46.66c.01-.38.02-.76.03-1.14,0,0,0,0,0,.01,0,.33-.02.65-.02.98,0,.05,0,.1-.01.14Z"/><path class="cls-11" d="M74.35,82.84c-.06-1.82-.07-3.67-.04-5.54.01,1.49.02,2.97.03,4.45,0,.36.01.73.02,1.09Z"/><path class="cls-11" d="M74.17,48.71c0,.95,0,1.91,0,2.87,0,.95,0,1.9,0,2.86,0,.96.04,1.99.07,2.95.11,1.77.13,3.55.12,5.35,0,.9-.02,1.8-.04,2.7-.11,4-.06,7.95-.03,11.87.05-3.99.21-8.03.19-11.96.01-.89.02-1.79.02-2.69,0-1.78-.05-3.57-.16-5.36-.03-1.15-.04-2.29-.04-3.41s0-2.24.02-3.35c.01-.93.03-1.87.04-2.8,0-1.5.04-3.03.08-4.58.02-.77.05-1.54.08-2.32.01-.52.04-5.38.06-9.63-.03,0-.06,0-.09,0-.03,4.08-.04,8.55-.06,8.99-.02.91-.06,1.89-.09,2.83-.04.94-.07,1.88-.12,2.82-.02.95-.04,1.9-.05,2.85Z"/><path class="cls-11" d="M74.49,86.84c.11,3.23.22,6.47.19,9.76-.01.84-.03,1.71-.05,2.57-.03.85-.06,1.7-.11,2.55-.02.97-.04,1.85-.07,2.73-.02.86-.05,1.72-.09,2.58-.02.9-.04,1.88-.05,2.79,0,.83,0,1.66,0,2.49-.07,1.52-.21,3.03-.21,4.55.01.54.02,1.08.03,1.62-.03.03-.06.06-.09.08,0-1.15-.01-2.29-.01-3.44-.07-1.3.21-2.38.14-3.68-.01-.84-.02-1.68-.03-2.52.02-.93.04-1.85.06-2.78.02-.92.03-1.85.05-2.77.04-.89.08-1.77.12-2.66.03-.89.06-1.78.09-2.66.11-4.57.02-9.08-.08-13.58-.01-.54-.02-1.09-.03-1.64,0,.26.02.52.03.78.04,1.07.07,2.15.11,3.22Z"/><path class="cls-11" d="M74.14,98.3c-.06.91-.12,1.83-.2,2.73-.03.92-.06,1.76-.09,2.6-.03.82-.06,1.63-.09,2.45,0,.87,0,1.68,0,2.49,0,.81,0,1.62.01,2.43.07,2.38-.28,4.55-.21,6.93.01.36.02.71.03,1.07-.01,0-.02.02-.03.03h0c-.02-1.31-.04-2.61-.06-3.91-.07-1.95.28-3.9.21-5.85,0-.72,0-1.49-.02-2.16.02-.83.04-1.66.05-2.49.02-.84.04-1.75.06-2.57.07-.95.14-1.89.19-2.84.09-2.07.12-4.15.12-6.23-.03,1.88-.1,3.75-.24,5.6-.07.92-.15,1.84-.24,2.76-.04.82-.09,1.67-.13,2.47-.04.79-.08,1.58-.13,2.37,0,.77-.02,1.78-.02,2.66,0,3.14.02,6.3.06,9.46-.05-1.03-.14-3.07-.25-5.71.03-.33.06-.65.06-.94,0-.93-.01-1.87-.02-2.8,0-.93,0-1.99,0-2.91.03-.64.06-1.29.08-1.93.03-.64.05-1.29.07-1.93.09-1.07.17-2.13.24-3.2.67-9.75-.52-19.28-.33-29.05,0-.67,0-1.36,0-2.04-.01-2.02-.04-4.04-.1-6.02.04-.79.07-1.68.12-2.5.05-.8.12-1.61.21-2.42,0-.01,0-.03,0-.04,0,.92-.01,1.85-.02,2.77.02,1.53.04,3.04.05,4.56,0-1.65.08-3.3.29-4.95,0,.17.02.34.03.51-.22,2.69-.24,5.45-.2,8.22,0,.18,0,.36,0,.54.03.65.06,1.3.1,1.93.01,3.78.08,7.46.28,11.24.03.93.07,1.87.1,2.8.15,4.65.25,9.27.02,13.85Z"/><path class="cls-11" d="M73.49,56.83c0-.18,0-.35,0-.53.02.17.02.34,0,.53Z"/><path class="cls-11" d="M73.49,56.3v-.07c0-1.01.02-2.02.03-3.03.01-1.01.02-2.04.02-3.09-.07-3.01-.06-6.03,0-9.05.01-.57.03-5.45.06-9.75-.13.02-.26.05-.38.08-.01,3.94-.02,8.09-.03,8.5-.02.78-.04,1.56-.05,2.35-.07,3.92-.04,7.86-.08,11.81-.05.88.35,1.48.43,2.25Z"/><path class="cls-11" d="M77.04,90.99c.02,2.05.1,4.13.18,6.2-.12-2.35-.25-4.7-.27-7.09,0-.76,0-1.53.04-2.35.12-1.15.22-2.3.31-3.45-.08,1.54-.16,3.08-.25,4.61,0,.6-.01,1.38,0,2.08Z"/><path class="cls-11" d="M69.78,40.47c.04.37.08.74.11,1.11,0-.21,0-.41,0-.62,0-.9.02-1.8.04-2.79.01-.32.03-1.75.04-3.65-.05.14-.1.29-.14.44,0,1.4,0,2.4,0,2.62-.02,1.02-.04,1.97-.05,2.9Z"/><path class="cls-11" d="M70,75.86s-.02-.05-.03-.08c-.05-.14-.09-.28-.14-.42-.02-.32-.04-.65-.06-.97.05-.1.09-.19.14-.29.03.58.06,1.17.08,1.75Z"/><path class="cls-11" d="M70.55,66.38c.02.44.05.89.07,1.33-.07-.08-.14-.16-.21-.24-.02-.16-.03-.32-.05-.48-.05-.59-.09-1.18-.12-1.77l.26.16c.01.33.03.67.05,1Z"/><path class="cls-11" d="M70.42,50.71c.05.12.1.23.16.33,0,0,0,.01.01.03v-.24c0-1.01.03-2.09.04-3.11,0-1.78.02-3.56.06-5.34.01-.89.04-1.84.06-2.66.01-.9.03-1.8.05-2.69,0-.2,0-1.89,0-4.08-.08.11-.16.22-.24.34,0,2.72-.01,4.97-.02,5.29-.02.88-.03,1.72-.04,2.54-.02,1.64-.03,3.27-.03,4.91,0,.51,0,1.01,0,1.52,0,.12.02.25.03.37,0-.02-.02-.04-.03-.06h0s0,.97,0,.97c-.02.63-.04,1.26-.06,1.88Z"/><path class="cls-11" d="M71.27,79.36c-.05-.12-.1-.25-.15-.37-.03-.08-.07-.17-.1-.26-.02-.88-.04-1.75-.07-2.63.06.13.13.25.19.37.05.96.09,1.92.12,2.88Z"/><path class="cls-11" d="M69.43,37.1h0s0,.06,0,.08c0-.32.01-.63.02-.95-.01.3-.02.59-.03.88Z"/><path class="cls-11" d="M69.7,46.42c.05.1.11.2.16.3,0,.84-.02,1.69-.05,2.59-.06-.16-.13-.32-.19-.49-.02-.04-.03-.08-.05-.12.04-.47.08-.94.11-1.41,0-.29,0-.58.01-.87Z"/><path class="cls-11" d="M69.41,65.87c.02.23.04.47.05.7-.12-.1-.23-.19-.33-.27-.02-.17-.03-.34-.05-.51-.02-.44-.04-.88-.06-1.32l.33.2c.02.4.03.8.05,1.2Z"/><path class="cls-11" d="M68.63,44.58s.05-.08.07-.12c.02.04.04.07.05.11-.02.58-.04,1.18-.05,1.74-.05-.14-.09-.27-.14-.41.02-.44.04-.88.07-1.32Z"/><path class="cls-11" d="M69.46,36.14s0-.2,0-.46c0,.26,0,.41,0,.46Z"/><path class="cls-11" d="M71.46,52.54c.03-.43.11-.83.2-1.23.02,1.32.04,2.65.07,3.97,0,.32,0,.65,0,.97-.05-1.37-.32-2.44-.26-3.71Z"/><path class="cls-11" d="M79.06,63.4c-.02.85-.04,1.71-.06,2.56-.08.24-.15.48-.22.72,0-1.05,0-2.09.03-3.14.08-.04.16-.09.24-.14Z"/><path class="cls-11" d="M78.66,85.08c0,.99,0,1.99-.02,2.98,0,.09,0,.18,0,.27-.08.21-.15.41-.23.6-.04.1-.08.2-.11.29.06-1.23.1-2.45.14-3.68.07-.15.14-.31.22-.46Z"/><path class="cls-11" d="M71.66,51.31c.13-.58.26-1.16.22-1.8-.05-2.76-.04-5.52.03-8.28.02-.94.05-1.92.08-2.85,0-.38,0-3.26,0-6.48-.08.04-.16.09-.23.15,0,3.35,0,6.38,0,6.84-.03.8-.04,1.88-.06,2.8-.06,3.22-.06,6.43-.02,9.63Z"/><path class="cls-11" d="M79.36,86.12c-.04.13-.08.27-.12.4-.03.08-.05.16-.08.23,0-.93,0-1.86-.01-2.79.06-.13.12-.27.17-.4.02.85.03,1.71.04,2.56Z"/><path class="cls-11" d="M78.51,61.07l.14-1.4c0-.19,0-.37,0-.56.01-.96.03-1.93.06-2.89v-.08c.02-.94.05-1.88.09-2.81.02-1.12.04-2.14.06-3.16.04-2.03.08-4.06.13-6.07.02-.62.03-6.25.04-10.77-.07-.11-.14-.22-.22-.32-.01,4.55-.02,10.33-.03,10.95-.04,2.01-.07,4.02-.1,6.02-.02,1-.04,2.07-.05,3.12-.03,1.01-.06,2.01-.08,3.01-.02,1-.04,2-.04,3v.17c0,.59,0,1.18,0,1.77Z"/><path class="cls-11" d="M78.53,67.62c0-1.31-.01-2.62-.02-3.92.03-.02.07-.04.1-.06,0,1.22,0,2.44,0,3.67-.03.1-.05.21-.08.31Z"/><path class="cls-11" d="M71.88,59.09c.01,1.03.03,2.07.04,3.11.02,1.06.03,2.12.07,3.26.03.74.06,1.47.09,2.21.03.74.05,1.48.07,2.23.07,8.23.58,16.63.27,24.87-.02-.58-.04-1.16-.06-1.73.24-6.6-.1-13.22-.32-19.75-.02-1.08-.03-1.78-.02-2.24,0-.26-.02-.52-.07-.76-.02-.61-.03-1.23-.04-1.84-.02-.71-.05-1.42-.07-2.12-.04-.8-.09-1.62-.14-2.42-.11-2.05-.04-3.78,0-5.79,0-.62.01-1.23.02-1.85,0,.02,0,.05,0,.07.07.91.12,1.84.16,2.77Z"/><path class="cls-4" d="M65.49,112.99c0,.32-.01.63-.02.95.01-.3.02-.59.03-.88h0s0-.06,0-.08Z"/><path class="cls-5" d="M64.16,98.75c-.21-3.84-.96-14.67-.96-14.67l2.78,1.72.31-1.53s-3.42-2.17-3.38-5.07c.02-.97-.06-2.88-.05-7.13.04.06.07.12.11.19.08.16.17.32.26.48.18.32.36.66.53,1,.18.33.35.67.52,1.01.16.33.33.66.49.98.08.16.15.31.22.46.1-.22.2-.43.31-.65,0,0,0-.01,0-.02-.11-.34-.23-.69-.34-1.05-.12-.36-.24-.72-.36-1.08-.12-.36-.25-.72-.39-1.08-.06-.18-.13-.35-.19-.52-.07-.17-.13-.35-.2-.52-.13-.33-.26-.66-.39-.97-.12-.31-.26-.6-.38-.87-.05-.11-.1-.22-.15-.33.01-2.75-.23-9.95-.52-17.33v-.02c-.01-.36-.03-.72-.04-1.09,0-.36-.02-.71-.04-1.06h0c-.37-9.34-.78-18.29-.78-18.29h-.12c-.44.43-.92.84-1.34,1.28-.03.02-.05.04-.07.07-.03.02-.05.05-.07.07h0s-.03.03-.04.04c-.36.4-.54.89-.74,1.39-.07.18-.15.36-.24.53-.03.06-.06.12-.09.18-.04.08-.09.16-.15.24-.13.19-.28.34-.44.48-.07.07-.14.13-.21.19-.03,1.29-.07,2.79-.1,4.42,0,.27-.01.55-.02.83,0,.06,0,.12,0,.18-.14,5.84-.34,13.1-.54,18.37-.04.08-.12.23-.23.45-.08.16-.17.36-.26.58-.05.11-.1.23-.16.35-.05.12-.1.26-.16.4-.1.28-.22.57-.32.89-.11.32-.23.65-.33.99-.05.17-.11.35-.17.52-.05.18-.1.36-.16.54-.11.36-.21.73-.32,1.1-.11.36-.2.73-.3,1.1-.08.31-.16.62-.24.92.11.24.22.47.34.71.05-.12.11-.25.16-.38.14-.32.28-.67.43-1.01.15-.34.3-.69.45-1.03.16-.35.31-.69.47-1.03.08-.16.16-.33.24-.5.08-.16.16-.32.24-.48.06-.12.12-.24.18-.36-.42,10.09.8,15.43-1.49,21.67-.04.1-.06.2-.09.29-.04.04-.07.09-.11.13-.16.2-.34.41-.52.61-.18.21-.36.42-.55.63-.01.01-.03.03-.04.05.08.3.16.6.26.9.13-.09.26-.19.4-.29.13-.1,1.55-.87,1.68-.97l-.29,4.57-.2,3.14-.42,6.62-.34,5.47-.21,3.29v.04s-.19,2.9-.19,2.9l-.11,1.75c.03.16.06.32.09.47.04.2.09.4.15.6.06.21.12.41.2.6.07.19.15.36.24.54.08.17.17.33.27.48.07.11.14.22.22.32.29.39.63.72,1.03.99.02.01.04.02.05.03.17.12.36.22.56.31.08.04.16.07.24.1.11.04.22.08.33.12.12.04.24.07.37.1.24.06.51.1.78.12.07,0,.13.01.2.01.15.01.31.02.47.02.07,0,.13,0,.2,0,.03,0,.06,0,.09,0,.2,0,.4-.02.59-.05.04,0,.08,0,.11-.01.06,0,.12-.01.17-.03.13-.02.26-.05.38-.08.23-.05.45-.12.66-.21.08-.03.15-.06.23-.1.12-.06.24-.12.36-.19.08-.04.16-.09.23-.15.36-.25.68-.56.95-.91.08-.11.16-.22.24-.34.24-.36.43-.77.58-1.22.05-.14.1-.29.14-.44.21-.74.33-1.57.38-2.45-.09-.89-.2-1.93-.32-3.06-.04-.36-.08-.73-.11-1.11h0c-.2-2.01-.41-4.15-.58-5.96,0-.12-.02-.25-.03-.37,0,.02.02.04.03.05,0,.01.01.03.02.04.08.16.17.32.26.48.18.32.36.66.53.99.18.33.35.68.52,1.01.15.3.3.6.44.89.13-.22.26-.44.39-.66-.05-.16-.11-.33-.16-.51-.12-.36-.24-.72-.36-1.08-.13-.36-.25-.72-.39-1.08-.06-.17-.13-.35-.19-.52-.07-.17-.13-.34-.2-.51-.13-.34-.26-.66-.39-.97-.12-.31-.26-.6-.38-.86,0-.02-.02-.04-.03-.05-.05-.12-.1-.23-.16-.33,0,0,0-.01-.01-.03h0c-.05-.12-.11-.22-.16-.32,0-.02-.01-.03-.02-.05Z"/><path class="cls-12" d="M57.63,50.55c.03.84.06,1.69.1,2.54-.04-.73-.07-1.47-.11-2.21,0-.11,0-.22,0-.33Z"/><path class="cls-12" d="M57.52,93.7c0-1-.01-2.01-.02-3.01-.32-8.28-.47-16.61.15-24.73-.4,7.97-.57,15.99-.12,24.21,0,1.02.02,2.14.02,3.16.07,2.16,0,4.11-.08,6.19-.03,1.03-.07,2.06-.1,3.09.02-.96.05-1.92.07-2.89.06-2.01.08-4.02.08-6.03Z"/><path class="cls-12" d="M58.6,57.63c-.04-4.09-.16-8.16-.4-12.23,0-1.05,0-2.26,0-3.32,0-2.17.01-4.35.02-6.52-.07.07-.14.13-.21.19-.03,1.29-.07,2.79-.1,4.42,0,.24-.01.47-.02.71v.12c0,.06,0,.12,0,.18-.02.81-.03,1.62-.04,2.44,0,.91.03,1.82.04,2.73.02.93.04,1.87.08,2.91.2,2.55.32,5.1.4,7.65.03.85.04,1.7.06,2.55.03.91.03,1.93.04,2.86-.49,8.97-.91,17.83-.33,27.17,0,1.05.03,2.2.03,3.25,0,2.09,0,4.19-.04,6.27-.05,1.09-.1,2.17-.14,3.26-.03.82-.06,1.63-.09,2.45-.03.82-.05,1.64-.08,2.46-.02.65-.04,6.72-.06,11.3.08.04.16.07.24.1.02-4.45.04-10.21.06-10.75.03-.97.07-2.01.1-2.98.07-1.94.14-3.88.21-5.82.04-1.13.08-2.28.11-3.51-.06-.93-.1-1.86-.14-2.79-.04-.93-.08-1.85-.1-2.78-.5-8.51-.29-16.72.27-25.37.14-1.51.07-3.02.1-4.5,0-.82,0-1.64-.02-2.46Z"/><path class="cls-12" d="M59.07,55.19c-.05-2.44-.1-4.89-.14-7.36,0-.95,0-2.08.01-3.03.02-.92.04-1.8.06-2.67.07-2.66.1-5.32.12-7.98-.07.18-.15.36-.24.53-.03.06-.06.11-.09.17h0c-.02,2.56-.06,5.12-.12,7.68-.02.96-.04,1.93-.05,2.94.12,2.64.2,5.28.26,7.93.02.88.04,1.77.05,2.65,0,.8.02,1.6.03,2.4s.02,1.6.02,2.41c.03,5.26-.39,10.01-.6,15.2-.21,4.97.28,9.73.34,14.41.02,1.05.04,2.09.06,3.14.02,1.05.04,2.1.06,3.16-.08.96-.12,2.19-.17,3.28-.05.95-.09,1.91-.13,2.86-.04.96-.07,1.92-.1,2.88-.04,1.08-.07,7.9-.1,12.92.12.04.24.07.37.1.02-4.48.03-10.15.04-10.73.03-1.02.07-2.12.11-3.14.08-2.05.19-4.09.32-6.13.04-1.09.06-2.15.07-3.27,0-.88-.02-1.76-.04-2.64-.02-.88-.03-1.76-.05-2.64-.57-8.79-.43-17.43.1-26.24,0-1.1-.02-2.15-.04-3.22-.03-1.05-.06-2.1-.1-3.15-.02-.82-.03-1.63-.05-2.45Z"/><path class="cls-12" d="M55.13,65.7c.03-.11.06-.22.09-.33.02-.05.03-.11.05-.16.01.22.03.45.04.67.03.45.05.9.08,1.35-.05.12-.1.24-.15.36-.04-.63-.07-1.26-.11-1.89Z"/><path class="cls-12" d="M55.93,94.21l-.35,3.51c-.02.74-.04,1.52-.05,2.23-.02.93-.04,3.31-.06,6.2-.02,3.05-.04,6.64-.06,9.65.07.19.15.36.24.54.01-4.2.02-9.03.04-9.49.05-1.68.09-3.36.12-5.04,0-.37,0-.75.01-1.13,0-.59.02-1.18.03-1.77.03-1.57.06-3.13.09-4.7Z"/><path class="cls-12" d="M60.11,39.42c.02-2.25-.06-4.55-.06-6.85h0s-.1.09-.14.14h0c.02,2.02.08,4.03.08,6.13-.04,1.09-.08,2.17-.12,3.25-.03.94-.05,1.89-.06,2.83-.02.97-.03,2.04-.04,3.01-.01.85-.03,1.7-.04,2.56,0,.85-.02,1.71-.02,2.57,0,3.1.08,6.17.14,9.22.02,1.02.03,2.06.04,3.09-.11,7.64-.53,14.99-.16,22.62,0,.83.02,1.66.04,2.5.03,1.66.08,3.33.16,5-.02,1.05-.03,2.26-.04,3.37-.09,2.54-.17,5.04-.24,7.53-.02.84-.05,1.73-.08,2.55-.02.51-.04,5.65-.05,9.96.07,0,.13.01.2.01.03-4.53.05-10.45.07-11.06.03-.86.05-1.72.08-2.58.05-1.7.11-3.4.17-5.09.02-.83.04-1.65.04-2.47.01-.82.02-1.67.04-2.46-.04-2.42-.08-4.86-.11-7.29-.01-.81-.03-1.63-.04-2.47-.44-6.65.12-13.36.12-20.03-.02-1.02-.04-2.08-.06-3.11-.08-3.08-.16-6.16-.17-9.25,0-.88,0-1.75,0-2.63,0-.88.01-1.75.03-2.63,0-.87.03-1.89.04-2.78.02-.88.05-1.75.09-2.63.04-1.01.08-2.02.12-3.03Z"/><path class="cls-12" d="M57.29,105.6c.02-.91.05-1.82.07-2.74-.03.85-.06,1.69-.08,2.54-.03.93-.06,1.92-.08,2.83-.01.34-.02,5.68-.04,9.9.02.01.04.02.05.03,0-4.18,0-9.42.01-9.72.03-.9.04-1.93.07-2.85Z"/><path class="cls-12" d="M57.37,102.62s0,.02,0,.04c0,.07,0,.14,0,.2,0-.08,0-.16,0-.24Z"/><path class="cls-12" d="M55.36,99.92l-.15,1.49c-.04,1.26-.08,6.21-.14,10.97,0,.75-.01,1.49-.02,2.21.04.2.09.4.15.6.02-1.81.04-3.79.06-5.72v-.04c.04-4.26.08-8.25.1-9.52Z"/><path class="cls-12" d="M55.65,85.13s.03-.1.05-.15c.02-.06.04-.12.06-.18-.01.7-.03,1.41-.04,2.11-.04.02-.08.05-.12.07.02-.62.04-1.23.05-1.85Z"/><path class="cls-12" d="M54.65,87.6c-.03-.08-.05-.16-.08-.25.03-.32.05-.64.08-.95.07-.08.14-.16.2-.23-.04.46-.08.92-.13,1.37-.03.02-.05.04-.08.06Z"/><path class="cls-12" d="M61.27,106.16c-.02.76-.04,1.51-.07,2.27-.04.97-.08,1.98-.13,2.95,0,.26-.01,3.89-.02,7.5.04,0,.08,0,.11-.01.02-4.39.04-9.63.06-10.2.03-.84.04-1.67.05-2.51Z"/><path class="cls-12" d="M61.28,96.6c.1,3.22.08,6.4-.01,9.56.05-3.03.03-6.06-.07-9.08,0-.98-.01-1.96-.03-2.95-.02-.99-.04-1.98-.07-2.98,0-.05.01-.11.02-.16.05.88.08,1.73.11,2.58.03,1.01.05,2.02.06,3.02Z"/><path class="cls-12" d="M62.97,95.1c-.16-.52-.33-1.01-.33-1.55,0-1.05.01-2.1.02-3.15,0-1.01,0-2.05,0-3.06-.04-.76-.07-1.52-.1-2.28-.03-.76-.06-1.54-.09-2.29,0-1.03-.01-2.07-.02-3.15-.14-9.41-.88-18.53-.07-27.86v-.02c-.01-.36-.03-.72-.04-1.09,0-.36-.02-.71-.04-1.06-1.03,10.32-.06,20.88.03,31.44.02.89.03,1.81.04,2.7.04.91.09,1.82.15,2.74.01,1.09.01,2.1,0,3.11,0,.66,0,1.42-.01,2.09,0,.84-.01,1.66-.02,2.5,0,.85,0,1.73-.02,2.57.13,4.32.12,8.61,0,12.91-.02.88-.04,1.79-.08,2.67,0,.25,0,3.1,0,6.26.08-.03.15-.06.23-.1,0-3.66.03-7.14.05-7.67.05-1.07.09-2.13.13-3.2.16-4.25.26-8.47.19-12.49Z"/><path class="cls-12" d="M65.8,102.66c-.03.29-.05.57-.08.86.01-.32.02-.64.04-.96.01.03.02.07.04.1Z"/><path class="cls-12" d="M65.72,103.53c-.01.38-.02.76-.03,1.14,0,0,0,0,0-.01,0-.33.02-.65.02-.98,0-.05,0-.1.01-.14Z"/><path class="cls-12" d="M60.59,67.42c.06,1.82.07,3.67.04,5.52-.01-1.48-.02-2.96-.03-4.44,0-.36-.01-.72-.02-1.08Z"/><path class="cls-12" d="M60.77,101.48c0-.95,0-1.91,0-2.86,0-.95,0-1.9,0-2.85,0-.96-.04-1.99-.07-2.94-.11-1.77-.13-3.54-.12-5.34,0-.89.02-1.79.04-2.7.11-3.99.06-7.93.03-11.85-.05,3.98-.21,8.01-.19,11.93-.01.89-.02,1.79-.02,2.68,0,1.78.05,3.56.16,5.35.03,1.15.04,2.29.04,3.41s0,2.23-.02,3.34c-.01.93-.03,1.87-.04,2.8,0,1.5-.04,3.03-.08,4.57-.02.77-.05,1.54-.08,2.31-.01.52-.04,5.37-.06,9.61.03,0,.06,0,.09,0,.03-4.07.04-8.53.06-8.98.02-.91.06-1.89.09-2.83.04-.94.07-1.88.12-2.81.02-.95.04-1.89.05-2.85Z"/><path class="cls-12" d="M60.45,63.42c-.11-3.22-.22-6.46-.19-9.74.01-.84.03-1.71.05-2.56.03-.85.06-1.7.11-2.55.02-.97.04-1.84.07-2.72.02-.86.05-1.72.09-2.58.02-.89.04-1.87.05-2.78,0-.83,0-1.66,0-2.49.07-1.51.21-3.03.21-4.54-.01-.54-.02-1.08-.03-1.62.03-.03.06-.06.09-.08,0,1.14.01,2.29.01,3.43.07,1.3-.21,2.38-.14,3.67.01.84.02,1.67.03,2.51-.02.93-.04,1.85-.06,2.77-.02.92-.03,1.84-.05,2.76-.04.88-.08,1.77-.12,2.66-.03.89-.06,1.77-.09,2.66-.11,4.56-.02,9.06.08,13.56.01.54.02,1.09.03,1.63,0-.26-.02-.52-.03-.78-.04-1.07-.07-2.14-.11-3.22Z"/><path class="cls-12" d="M60.8,51.98c.06-.91.12-1.82.2-2.73.03-.92.06-1.76.09-2.59.03-.81.06-1.63.09-2.44,0-.87,0-1.68,0-2.49,0-.81,0-1.62-.01-2.43-.07-2.38.28-4.54.21-6.92,0-.35-.02-.71-.03-1.06.01,0,.02-.02.03-.03h0c.02,1.3.04,2.61.06,3.9.07,1.95-.28,3.89-.21,5.84,0,.72,0,1.49.02,2.16-.02.83-.04,1.66-.05,2.49-.02.84-.04,1.75-.06,2.57-.07.94-.14,1.89-.19,2.83-.09,2.07-.12,4.14-.12,6.22.03-1.87.1-3.74.24-5.59.07-.92.15-1.84.24-2.75.04-.82.09-1.67.13-2.47.04-.79.08-1.58.13-2.36,0-.77.02-1.78.02-2.66,0-3.13-.02-6.28-.06-9.44.05,1.02.14,3.07.25,5.7-.03.33-.06.64-.06.94,0,.93.01,1.86.02,2.79,0,.93,0,1.98,0,2.9-.03.64-.06,1.29-.08,1.93-.03.64-.05,1.28-.07,1.93-.09,1.07-.17,2.13-.24,3.19-.67,9.74.52,19.25.33,28.99,0,.67,0,1.36,0,2.04.01,2.01.04,4.03.1,6-.04.79-.07,1.68-.12,2.5-.05.8-.12,1.6-.21,2.41,0,.01,0,.02,0,.04,0-.92.01-1.85.02-2.76-.02-1.52-.04-3.04-.05-4.55,0,1.65-.08,3.3-.29,4.94,0-.17-.02-.34-.03-.51.22-2.69.24-5.44.2-8.21,0-.18,0-.36,0-.54-.03-.65-.06-1.29-.1-1.93-.01-3.77-.08-7.45-.28-11.22-.03-.93-.07-1.86-.1-2.79-.15-4.64-.25-9.25-.02-13.83Z"/><path class="cls-12" d="M61.45,93.38c0,.18,0,.35,0,.53-.02-.17-.02-.34,0-.53Z"/><path class="cls-12" d="M61.44,93.91v.07c0,1.01-.02,2.01-.03,3.02-.01,1.01-.02,2.03-.02,3.09.07,3,.06,6.02,0,9.03-.01.57-.03,5.44-.06,9.74.13-.02.26-.05.38-.08.01-3.93.02-8.08.03-8.49.02-.78.04-1.56.05-2.34.07-3.91.04-7.85.08-11.79.05-.88-.35-1.47-.43-2.24Z"/><path class="cls-12" d="M57.9,59.28c-.02-2.04-.1-4.12-.18-6.18.12,2.35.25,4.69.27,7.08,0,.76,0,1.53-.04,2.35-.12,1.14-.22,2.29-.31,3.44.08-1.54.16-3.07.25-4.61,0-.6.01-1.38,0-2.08Z"/><path class="cls-12" d="M65.14,109.7c-.04-.36-.08-.73-.11-1.11,0,.21,0,.41,0,.62,0,.89-.02,1.8-.04,2.79-.01.32-.03,1.74-.04,3.64.05-.14.1-.29.14-.44,0-1.4,0-2.39,0-2.61.02-1.01.04-1.97.05-2.89Z"/><path class="cls-12" d="M64.93,74.38s.02.05.03.07c.05.14.09.28.14.42.02.32.04.65.06.97-.05.1-.09.19-.14.29-.03-.58-.06-1.17-.08-1.75Z"/><path class="cls-12" d="M64.38,83.84c-.02-.44-.05-.89-.07-1.33.07.08.14.16.21.24.02.16.03.32.05.48.05.59.09,1.18.12,1.77l-.26-.16c-.01-.33-.03-.67-.05-1Z"/><path class="cls-12" d="M64.51,99.48c-.05-.12-.1-.23-.16-.33,0,0,0-.01-.01-.03v.24c0,1.01-.03,2.09-.04,3.1,0,1.78-.02,3.55-.06,5.33-.01.89-.04,1.84-.06,2.66-.01.9-.03,1.79-.05,2.69,0,.2,0,1.89,0,4.07.08-.11.16-.22.24-.34,0-2.71.01-4.96.02-5.28.02-.88.03-1.71.04-2.53.02-1.63.03-3.26.03-4.9,0-.51,0-1.01,0-1.52,0-.12-.02-.25-.03-.37,0,.02.02.04.03.06h0s0-.97,0-.97c.02-.63.04-1.26.06-1.88Z"/><path class="cls-12" d="M63.66,70.89c.05.12.1.24.15.37.03.08.07.17.1.26.02.87.04,1.75.07,2.62-.06-.13-.13-.25-.19-.37-.05-.96-.09-1.92-.12-2.88Z"/><path class="cls-12" d="M65.5,113.06h0s0-.06,0-.08c0,.32-.01.63-.02.95.01-.3.02-.59.03-.88Z"/><path class="cls-12" d="M65.23,103.77c-.05-.1-.11-.2-.16-.3,0-.84.02-1.69.05-2.58.06.16.13.32.19.48.02.04.03.08.05.12-.04.47-.08.94-.11,1.41,0,.29,0,.58-.01.87Z"/><path class="cls-12" d="M65.52,84.35c-.02-.23-.04-.46-.05-.7.12.1.23.19.33.27.02.17.03.34.05.51.02.44.04.88.06,1.32l-.33-.2c-.02-.4-.03-.8-.05-1.2Z"/><path class="cls-12" d="M66.3,105.6s-.05.08-.07.12c-.02-.04-.04-.07-.05-.11.02-.58.04-1.18.05-1.74.05.14.09.27.14.41-.02.44-.04.88-.07,1.32Z"/><path class="cls-12" d="M65.46,114.03s0,.2,0,.46c0-.26,0-.41,0-.46Z"/><path class="cls-12" d="M63.47,97.66c-.03.43-.11.83-.2,1.22-.02-1.32-.04-2.64-.07-3.96,0-.32,0-.65,0-.97.05,1.37.32,2.43.25,3.71Z"/><path class="cls-12" d="M55.89,86.82c.02-.85.04-1.7.06-2.56.08-.24.15-.48.22-.72,0,1.04,0,2.09-.03,3.14-.08.04-.16.09-.24.14Z"/><path class="cls-12" d="M56.29,65.18c0-.99,0-1.98.02-2.98,0-.09,0-.18,0-.27.08-.21.15-.41.23-.6.04-.1.08-.2.11-.29-.06,1.22-.1,2.45-.14,3.67-.07.15-.14.31-.22.46Z"/><path class="cls-12" d="M63.28,98.88c-.13.58-.26,1.16-.22,1.8.05,2.76.04,5.51-.03,8.26-.02.93-.05,1.92-.08,2.85,0,.38,0,3.26,0,6.47.08-.04.16-.09.23-.15,0-3.34,0-6.36,0-6.83.03-.8.04-1.87.06-2.79.06-3.22.06-6.42.02-9.61Z"/><path class="cls-12" d="M55.58,64.14c.04-.13.08-.27.12-.4.03-.08.05-.16.08-.23,0,.93,0,1.86.01,2.79-.06.13-.12.27-.17.4-.02-.85-.03-1.7-.04-2.56Z"/><path class="cls-12" d="M56.44,89.14l-.14,1.4c0,.19,0,.37,0,.56-.01.96-.03,1.92-.06,2.88v.08c-.02.93-.05,1.87-.09,2.8-.02,1.12-.04,2.14-.06,3.15-.04,2.03-.08,4.05-.13,6.06-.02.62-.03,6.24-.04,10.75.07.11.14.22.22.32.01-4.54.02-10.3.03-10.93.04-2.01.07-4.01.1-6,.02-1,.04-2.07.05-3.12.03-1.01.06-2.01.08-3.01.02-1,.04-2,.04-3v-.17c0-.59,0-1.18,0-1.77Z"/><path class="cls-12" d="M56.42,82.6c0,1.31.01,2.61.02,3.91-.03.02-.07.04-.1.06,0-1.22,0-2.44,0-3.66.03-.1.05-.21.08-.31Z"/><path class="cls-12" d="M63.05,91.12c-.01-1.03-.03-2.07-.04-3.1-.02-1.05-.03-2.12-.07-3.25-.03-.74-.06-1.47-.09-2.2-.03-.74-.05-1.48-.07-2.23-.07-8.21-.58-16.6-.27-24.82.02.58.04,1.16.06,1.73-.24,6.58.1,13.19.32,19.71.02,1.08.03,1.77.02,2.24,0,.26.02.51.07.76.02.61.03,1.22.04,1.83.02.71.05,1.41.07,2.12.04.8.09,1.62.14,2.42.11,2.04.04,3.77,0,5.78,0,.61-.01,1.23-.02,1.85,0-.02,0-.04,0-.07-.07-.91-.12-1.83-.16-2.76Z"/><path class="cls-3" d="M37.62,112.99c0,.32-.01.63-.02.95.01-.3.02-.59.03-.88h0s0-.06,0-.08Z"/><path class="cls-2" d="M36.29,98.75c-.21-3.84-.96-14.67-.96-14.67l2.78,1.72.31-1.53s-3.42-2.17-3.38-5.07c.02-.97-.06-2.88-.05-7.13.04.06.07.12.11.19.08.16.17.32.26.48.18.32.36.66.53,1,.18.33.35.67.52,1.01.16.33.33.66.49.98.08.16.15.31.22.46.1-.22.2-.43.31-.65,0,0,0-.01,0-.02-.11-.34-.23-.69-.34-1.05-.12-.36-.24-.72-.36-1.08-.12-.36-.25-.72-.39-1.08-.06-.18-.13-.35-.19-.52-.07-.17-.13-.35-.2-.52-.13-.33-.26-.66-.39-.97-.12-.31-.26-.6-.38-.87-.05-.11-.1-.22-.15-.33.01-2.75-.23-9.95-.52-17.33v-.02c-.01-.36-.03-.72-.04-1.09,0-.36-.02-.71-.04-1.06h0c-.37-9.34-.78-18.29-.78-18.29h-.12c-.44.43-.92.84-1.34,1.28-.03.02-.05.04-.07.07-.03.02-.05.05-.07.07h0s-.03.03-.04.04c-.36.4-.54.89-.74,1.39-.07.18-.15.36-.24.53-.03.06-.06.12-.09.18-.04.08-.09.16-.15.24-.13.19-.28.34-.44.48-.07.07-.14.13-.21.19-.03,1.29-.07,2.79-.1,4.42,0,.27-.01.55-.02.83,0,.06,0,.12,0,.18-.14,5.84-.34,13.1-.54,18.37-.04.08-.12.23-.23.45-.08.16-.17.36-.26.58-.05.11-.1.23-.16.35-.05.12-.1.26-.16.4-.1.28-.22.57-.32.89-.11.32-.23.65-.33.99-.05.17-.11.35-.17.52-.05.18-.1.36-.16.54-.11.36-.21.73-.32,1.1-.11.36-.2.73-.3,1.1-.08.31-.16.62-.24.92.11.24.22.47.34.71.05-.12.11-.25.16-.38.14-.32.28-.67.43-1.01.15-.34.3-.69.45-1.03.16-.35.31-.69.47-1.03.08-.16.16-.33.24-.5.08-.16.16-.32.24-.48.06-.12.12-.24.18-.36-.42,10.09.8,15.43-1.49,21.67-.04.1-.06.2-.09.29-.04.04-.07.09-.11.13-.16.2-.34.41-.52.61-.18.21-.36.42-.55.63-.01.01-.03.03-.04.05.08.3.16.6.26.9.13-.09.26-.19.4-.29.13-.1,1.55-.87,1.68-.97l-.29,4.57-.2,3.14-.42,6.62-.34,5.47-.21,3.29v.04s-.19,2.9-.19,2.9l-.11,1.75c.03.16.06.32.09.47.04.2.09.4.15.6.06.21.12.41.2.6.07.19.15.36.24.54.08.17.17.33.27.48.07.11.14.22.22.32.29.39.63.72,1.03.99.02.01.04.02.05.03.17.12.36.22.56.31.08.04.16.07.24.1.11.04.22.08.33.12.12.04.24.07.37.1.24.06.51.1.78.12.07,0,.13.01.2.01.15.01.31.02.47.02.07,0,.13,0,.2,0,.03,0,.06,0,.09,0,.2,0,.4-.02.59-.05.04,0,.08,0,.11-.01.06,0,.12-.01.17-.03.13-.02.26-.05.38-.08.23-.05.45-.12.66-.21.08-.03.15-.06.23-.1.12-.06.24-.12.36-.19.08-.04.16-.09.23-.15.36-.25.68-.56.95-.91.08-.11.16-.22.24-.34.24-.36.43-.77.58-1.22.05-.14.1-.29.14-.44.21-.74.33-1.57.38-2.45-.09-.89-.2-1.93-.32-3.06-.04-.36-.08-.73-.11-1.11h0c-.2-2.01-.41-4.15-.58-5.96,0-.12-.02-.25-.03-.37,0,.02.02.04.03.05,0,.01.01.03.02.04.08.16.17.32.26.48.18.32.36.66.53.99.18.33.35.68.52,1.01.15.3.3.6.44.89.13-.22.26-.44.39-.66-.05-.16-.11-.33-.16-.51-.12-.36-.24-.72-.36-1.08-.13-.36-.25-.72-.39-1.08-.06-.17-.13-.35-.19-.52-.07-.17-.13-.34-.2-.51-.13-.34-.26-.66-.39-.97-.12-.31-.26-.6-.38-.86,0-.02-.02-.04-.03-.05-.05-.12-.1-.23-.16-.33,0,0,0-.01-.01-.03h0c-.05-.12-.11-.22-.16-.32,0-.02-.01-.03-.02-.05Z"/><path class="cls-12" d="M29.76,50.55c.03.84.06,1.69.1,2.54-.04-.73-.07-1.47-.11-2.21,0-.11,0-.22,0-.33Z"/><path class="cls-12" d="M29.65,93.7c0-1-.01-2.01-.02-3.01-.32-8.28-.47-16.61.15-24.73-.4,7.97-.57,15.99-.12,24.21,0,1.02.02,2.14.02,3.16.07,2.16,0,4.11-.08,6.19-.03,1.03-.07,2.06-.1,3.09.02-.96.05-1.92.07-2.89.06-2.01.08-4.02.08-6.03Z"/><path class="cls-12" d="M30.73,57.63c-.04-4.09-.16-8.16-.4-12.23,0-1.05,0-2.26,0-3.32,0-2.17.01-4.35.02-6.52-.07.07-.14.13-.21.19-.03,1.29-.07,2.79-.1,4.42,0,.24-.01.47-.02.71v.12c0,.06,0,.12,0,.18-.02.81-.03,1.62-.04,2.44,0,.91.03,1.82.04,2.73.02.93.04,1.87.08,2.91.2,2.55.32,5.1.4,7.65.03.85.04,1.7.06,2.55.03.91.03,1.93.04,2.86-.49,8.97-.91,17.83-.33,27.17,0,1.05.03,2.2.03,3.25,0,2.09,0,4.19-.04,6.27-.05,1.09-.1,2.17-.14,3.26-.03.82-.06,1.63-.09,2.45-.03.82-.05,1.64-.08,2.46-.02.65-.04,6.72-.06,11.3.08.04.16.07.24.1.02-4.45.04-10.21.06-10.75.03-.97.07-2.01.1-2.98.07-1.94.14-3.88.21-5.82.04-1.13.08-2.28.11-3.51-.06-.93-.1-1.86-.14-2.79-.04-.93-.08-1.85-.1-2.78-.5-8.51-.29-16.72.27-25.37.14-1.51.07-3.02.1-4.5,0-.82,0-1.64-.02-2.46Z"/><path class="cls-12" d="M31.19,55.19c-.05-2.44-.1-4.89-.14-7.36,0-.95,0-2.08.01-3.03.02-.92.04-1.8.06-2.67.07-2.66.1-5.32.12-7.98-.07.18-.15.36-.24.53-.03.06-.06.11-.09.17h0c-.02,2.56-.06,5.12-.12,7.68-.02.96-.04,1.93-.05,2.94.12,2.64.2,5.28.26,7.93.02.88.04,1.77.05,2.65,0,.8.02,1.6.03,2.4s.02,1.6.02,2.41c.03,5.26-.39,10.01-.6,15.2-.21,4.97.28,9.73.34,14.41.02,1.05.04,2.09.06,3.14.02,1.05.04,2.1.06,3.16-.08.96-.12,2.19-.17,3.28-.05.95-.09,1.91-.13,2.86-.04.96-.07,1.92-.1,2.88-.04,1.08-.07,7.9-.1,12.92.12.04.24.07.37.1.02-4.48.03-10.15.04-10.73.03-1.02.07-2.12.11-3.14.08-2.05.19-4.09.32-6.13.04-1.09.06-2.15.07-3.27,0-.88-.02-1.76-.04-2.64-.02-.88-.03-1.76-.05-2.64-.57-8.79-.43-17.43.1-26.24,0-1.1-.02-2.15-.04-3.22-.03-1.05-.06-2.1-.1-3.15-.02-.82-.03-1.63-.05-2.45Z"/><path class="cls-12" d="M27.26,65.7c.03-.11.06-.22.09-.33.02-.05.03-.11.05-.16.01.22.03.45.04.67.03.45.05.9.08,1.35-.05.12-.1.24-.15.36-.04-.63-.07-1.26-.11-1.89Z"/><path class="cls-12" d="M28.06,94.21l-.35,3.51c-.02.74-.04,1.52-.05,2.23-.02.93-.04,3.31-.06,6.2-.02,3.05-.04,6.64-.06,9.65.07.19.15.36.24.54.01-4.2.02-9.03.04-9.49.05-1.68.09-3.36.12-5.04,0-.37,0-.75.01-1.13,0-.59.02-1.18.03-1.77.03-1.57.06-3.13.09-4.7Z"/><path class="cls-12" d="M32.24,39.42c.02-2.25-.06-4.55-.06-6.85h0s-.1.09-.14.14h0c.02,2.02.08,4.03.08,6.13-.04,1.09-.08,2.17-.12,3.25-.03.94-.05,1.89-.06,2.83-.02.97-.03,2.04-.04,3.01-.01.85-.03,1.7-.04,2.56,0,.85-.02,1.71-.02,2.57,0,3.1.08,6.17.14,9.22.02,1.02.03,2.06.04,3.09-.11,7.64-.53,14.99-.16,22.62,0,.83.02,1.66.04,2.5.03,1.66.08,3.33.16,5-.02,1.05-.03,2.26-.04,3.37-.09,2.54-.17,5.04-.24,7.53-.02.84-.05,1.73-.08,2.55-.02.51-.04,5.65-.05,9.96.07,0,.13.01.2.01.03-4.53.05-10.45.07-11.06.03-.86.05-1.72.08-2.58.05-1.7.11-3.4.17-5.09.02-.83.04-1.65.04-2.47.01-.82.02-1.67.04-2.46-.04-2.42-.08-4.86-.11-7.29-.01-.81-.03-1.63-.04-2.47-.44-6.65.12-13.36.12-20.03-.02-1.02-.04-2.08-.06-3.11-.08-3.08-.16-6.16-.17-9.25,0-.88,0-1.75,0-2.63,0-.88.01-1.75.03-2.63,0-.87.03-1.89.04-2.78.02-.88.05-1.75.09-2.63.04-1.01.08-2.02.12-3.03Z"/><path class="cls-12" d="M29.42,105.6c.02-.91.05-1.82.07-2.74-.03.85-.06,1.69-.08,2.54-.03.93-.06,1.92-.08,2.83-.01.34-.02,5.68-.04,9.9.02.01.04.02.05.03,0-4.18,0-9.42.01-9.72.03-.9.04-1.93.07-2.85Z"/><path class="cls-12" d="M29.5,102.62s0,.02,0,.04c0,.07,0,.14,0,.2,0-.08,0-.16,0-.24Z"/><path class="cls-12" d="M27.48,99.92l-.15,1.49c-.04,1.26-.08,6.21-.14,10.97,0,.75-.01,1.49-.02,2.21.04.2.09.4.15.6.02-1.81.04-3.79.06-5.72v-.04c.04-4.26.08-8.25.1-9.52Z"/><path class="cls-12" d="M27.78,85.13s.03-.1.05-.15c.02-.06.04-.12.06-.18-.01.7-.03,1.41-.04,2.11-.04.02-.08.05-.12.07.02-.62.04-1.23.05-1.85Z"/><path class="cls-12" d="M26.78,87.6c-.03-.08-.05-.16-.08-.25.03-.32.05-.64.08-.95.07-.08.14-.16.2-.23-.04.46-.08.92-.13,1.37-.03.02-.05.04-.08.06Z"/><path class="cls-12" d="M33.4,106.16c-.02.76-.04,1.51-.07,2.27-.04.97-.08,1.98-.13,2.95,0,.26-.01,3.89-.02,7.5.04,0,.08,0,.11-.01.02-4.39.04-9.63.06-10.2.03-.84.04-1.67.05-2.51Z"/><path class="cls-12" d="M33.41,96.6c.1,3.22.08,6.4-.01,9.56.05-3.03.03-6.06-.07-9.08,0-.98-.01-1.96-.03-2.95-.02-.99-.04-1.98-.07-2.98,0-.05.01-.11.02-.16.05.88.08,1.73.11,2.58.03,1.01.05,2.02.06,3.02Z"/><path class="cls-12" d="M35.1,95.1c-.16-.52-.33-1.01-.33-1.55,0-1.05.01-2.1.02-3.15,0-1.01,0-2.05,0-3.06-.04-.76-.07-1.52-.1-2.28-.03-.76-.06-1.54-.09-2.29,0-1.03-.01-2.07-.02-3.15-.14-9.41-.88-18.53-.07-27.86v-.02c-.01-.36-.03-.72-.04-1.09,0-.36-.02-.71-.04-1.06-1.03,10.32-.06,20.88.03,31.44.02.89.03,1.81.04,2.7.04.91.09,1.82.15,2.74.01,1.09.01,2.1,0,3.11,0,.66,0,1.42-.01,2.09,0,.84-.01,1.66-.02,2.5,0,.85,0,1.73-.02,2.57.13,4.32.12,8.61,0,12.91-.02.88-.04,1.79-.08,2.67,0,.25,0,3.1,0,6.26.08-.03.15-.06.23-.1,0-3.66.03-7.14.05-7.67.05-1.07.09-2.13.13-3.2.16-4.25.26-8.47.19-12.49Z"/><path class="cls-12" d="M37.93,102.66c-.03.29-.05.57-.08.86.01-.32.02-.64.04-.96.01.03.02.07.04.1Z"/><path class="cls-12" d="M37.85,103.53c-.01.38-.02.76-.03,1.14,0,0,0,0,0-.01,0-.33.02-.65.02-.98,0-.05,0-.1.01-.14Z"/><path class="cls-12" d="M32.72,67.42c.06,1.82.07,3.67.04,5.52-.01-1.48-.02-2.96-.03-4.44,0-.36-.01-.72-.02-1.08Z"/><path class="cls-12" d="M32.9,101.48c0-.95,0-1.91,0-2.86,0-.95,0-1.9,0-2.85,0-.96-.04-1.99-.07-2.94-.11-1.77-.13-3.54-.12-5.34,0-.89.02-1.79.04-2.7.11-3.99.06-7.93.03-11.85-.05,3.98-.21,8.01-.19,11.93-.01.89-.02,1.79-.02,2.68,0,1.78.05,3.56.16,5.35.03,1.15.04,2.29.04,3.41s0,2.23-.02,3.34c-.01.93-.03,1.87-.04,2.8,0,1.5-.04,3.03-.08,4.57-.02.77-.05,1.54-.08,2.31-.01.52-.04,5.37-.06,9.61.03,0,.06,0,.09,0,.03-4.07.04-8.53.06-8.98.02-.91.06-1.89.09-2.83.04-.94.07-1.88.12-2.81.02-.95.04-1.89.05-2.85Z"/><path class="cls-12" d="M32.58,63.42c-.11-3.22-.22-6.46-.19-9.74.01-.84.03-1.71.05-2.56.03-.85.06-1.7.11-2.55.02-.97.04-1.84.07-2.72.02-.86.05-1.72.09-2.58.02-.89.04-1.87.05-2.78,0-.83,0-1.66,0-2.49.07-1.51.21-3.03.21-4.54-.01-.54-.02-1.08-.03-1.62.03-.03.06-.06.09-.08,0,1.14.01,2.29.01,3.43.07,1.3-.21,2.38-.14,3.67.01.84.02,1.67.03,2.51-.02.93-.04,1.85-.06,2.77-.02.92-.03,1.84-.05,2.76-.04.88-.08,1.77-.12,2.66-.03.89-.06,1.77-.09,2.66-.11,4.56-.02,9.06.08,13.56.01.54.02,1.09.03,1.63,0-.26-.02-.52-.03-.78-.04-1.07-.07-2.14-.11-3.22Z"/><path class="cls-12" d="M32.93,51.98c.06-.91.12-1.82.2-2.73.03-.92.06-1.76.09-2.59.03-.81.06-1.63.09-2.44,0-.87,0-1.68,0-2.49,0-.81,0-1.62-.01-2.43-.07-2.38.28-4.54.21-6.92,0-.35-.02-.71-.03-1.06.01,0,.02-.02.03-.03h0c.02,1.3.04,2.61.06,3.9.07,1.95-.28,3.89-.21,5.84,0,.72,0,1.49.02,2.16-.02.83-.04,1.66-.05,2.49-.02.84-.04,1.75-.06,2.57-.07.94-.14,1.89-.19,2.83-.09,2.07-.12,4.14-.12,6.22.03-1.87.1-3.74.24-5.59.07-.92.15-1.84.24-2.75.04-.82.09-1.67.13-2.47.04-.79.08-1.58.13-2.36,0-.77.02-1.78.02-2.66,0-3.13-.02-6.28-.06-9.44.05,1.02.14,3.07.25,5.7-.03.33-.06.64-.06.94,0,.93.01,1.86.02,2.79,0,.93,0,1.98,0,2.9-.03.64-.06,1.29-.08,1.93-.03.64-.05,1.28-.07,1.93-.09,1.07-.17,2.13-.24,3.19-.67,9.74.52,19.25.33,28.99,0,.67,0,1.36,0,2.04.01,2.01.04,4.03.1,6-.04.79-.07,1.68-.12,2.5-.05.8-.12,1.6-.21,2.41,0,.01,0,.02,0,.04,0-.92.01-1.85.02-2.76-.02-1.52-.04-3.04-.05-4.55,0,1.65-.08,3.3-.29,4.94,0-.17-.02-.34-.03-.51.22-2.69.24-5.44.2-8.21,0-.18,0-.36,0-.54-.03-.65-.06-1.29-.1-1.93-.01-3.77-.08-7.45-.28-11.22-.03-.93-.07-1.86-.1-2.79-.15-4.64-.25-9.25-.02-13.83Z"/><path class="cls-12" d="M33.58,93.38c0,.18,0,.35,0,.53-.02-.17-.02-.34,0-.53Z"/><path class="cls-12" d="M33.57,93.91v.07c0,1.01-.02,2.01-.03,3.02-.01,1.01-.02,2.03-.02,3.09.07,3,.06,6.02,0,9.03-.01.57-.03,5.44-.06,9.74.13-.02.26-.05.38-.08.01-3.93.02-8.08.03-8.49.02-.78.04-1.56.05-2.34.07-3.91.04-7.85.08-11.79.05-.88-.35-1.47-.43-2.24Z"/><path class="cls-12" d="M30.03,59.28c-.02-2.04-.1-4.12-.18-6.18.12,2.35.25,4.69.27,7.08,0,.76,0,1.53-.04,2.35-.12,1.14-.22,2.29-.31,3.44.08-1.54.16-3.07.25-4.61,0-.6.01-1.38,0-2.08Z"/><path class="cls-12" d="M37.27,109.7c-.04-.36-.08-.73-.11-1.11,0,.21,0,.41,0,.62,0,.89-.02,1.8-.04,2.79-.01.32-.03,1.74-.04,3.64.05-.14.1-.29.14-.44,0-1.4,0-2.39,0-2.61.02-1.01.04-1.97.05-2.89Z"/><path class="cls-12" d="M37.06,74.38s.02.05.03.07c.05.14.09.28.14.42.02.32.04.65.06.97-.05.1-.09.19-.14.29-.03-.58-.06-1.17-.08-1.75Z"/><path class="cls-12" d="M36.51,83.84c-.02-.44-.05-.89-.07-1.33.07.08.14.16.21.24.02.16.03.32.05.48.05.59.09,1.18.12,1.77l-.26-.16c-.01-.33-.03-.67-.05-1Z"/><path class="cls-12" d="M36.64,99.48c-.05-.12-.1-.23-.16-.33,0,0,0-.01-.01-.03v.24c0,1.01-.03,2.09-.04,3.1,0,1.78-.02,3.55-.06,5.33-.01.89-.04,1.84-.06,2.66-.01.9-.03,1.79-.05,2.69,0,.2,0,1.89,0,4.07.08-.11.16-.22.24-.34,0-2.71.01-4.96.02-5.28.02-.88.03-1.71.04-2.53.02-1.63.03-3.26.03-4.9,0-.51,0-1.01,0-1.52,0-.12-.02-.25-.03-.37,0,.02.02.04.03.06h0s0-.97,0-.97c.02-.63.04-1.26.06-1.88Z"/><path class="cls-12" d="M35.79,70.89c.05.12.1.24.15.37.03.08.07.17.1.26.02.87.04,1.75.07,2.62-.06-.13-.13-.25-.19-.37-.05-.96-.09-1.92-.12-2.88Z"/><path class="cls-12" d="M37.62,113.06h0s0-.06,0-.08c0,.32-.01.63-.02.95.01-.3.02-.59.03-.88Z"/><path class="cls-12" d="M37.36,103.77c-.05-.1-.11-.2-.16-.3,0-.84.02-1.69.05-2.58.06.16.13.32.19.48.02.04.03.08.05.12-.04.47-.08.94-.11,1.41,0,.29,0,.58-.01.87Z"/><path class="cls-12" d="M37.65,84.35c-.02-.23-.04-.46-.05-.7.12.1.23.19.33.27.02.17.03.34.05.51.02.44.04.88.06,1.32l-.33-.2c-.02-.4-.03-.8-.05-1.2Z"/><path class="cls-12" d="M38.43,105.6s-.05.08-.07.12c-.02-.04-.04-.07-.05-.11.02-.58.04-1.18.05-1.74.05.14.09.27.14.41-.02.44-.04.88-.07,1.32Z"/><path class="cls-12" d="M37.59,114.03s0,.2,0,.46c0-.26,0-.41,0-.46Z"/><path class="cls-12" d="M35.6,97.66c-.03.43-.11.83-.2,1.22-.02-1.32-.04-2.64-.07-3.96,0-.32,0-.65,0-.97.05,1.37.32,2.43.25,3.71Z"/><path class="cls-12" d="M28.02,86.82c.02-.85.04-1.7.06-2.56.08-.24.15-.48.22-.72,0,1.04,0,2.09-.03,3.14-.08.04-.16.09-.24.14Z"/><path class="cls-12" d="M28.42,65.18c0-.99,0-1.98.02-2.98,0-.09,0-.18,0-.27.08-.21.15-.41.23-.6.04-.1.08-.2.11-.29-.06,1.22-.1,2.45-.14,3.67-.07.15-.14.31-.22.46Z"/><path class="cls-12" d="M35.41,98.88c-.13.58-.26,1.16-.22,1.8.05,2.76.04,5.51-.03,8.26-.02.93-.05,1.92-.08,2.85,0,.38,0,3.26,0,6.47.08-.04.16-.09.23-.15,0-3.34,0-6.36,0-6.83.03-.8.04-1.87.06-2.79.06-3.22.06-6.42.02-9.61Z"/><path class="cls-12" d="M27.71,64.14c.04-.13.08-.27.12-.4.03-.08.05-.16.08-.23,0,.93,0,1.86.01,2.79-.06.13-.12.27-.17.4-.02-.85-.03-1.7-.04-2.56Z"/><path class="cls-12" d="M28.57,89.14l-.14,1.4c0,.19,0,.37,0,.56-.01.96-.03,1.92-.06,2.88v.08c-.02.93-.05,1.87-.09,2.8-.02,1.12-.04,2.14-.06,3.15-.04,2.03-.08,4.05-.13,6.06-.02.62-.03,6.24-.04,10.75.07.11.14.22.22.32.01-4.54.02-10.3.03-10.93.04-2.01.07-4.01.1-6,.02-1,.04-2.07.05-3.12.03-1.01.06-2.01.08-3.01.02-1,.04-2,.04-3v-.17c0-.59,0-1.18,0-1.77Z"/><path class="cls-12" d="M28.55,82.6c0,1.31.01,2.61.02,3.91-.03.02-.07.04-.1.06,0-1.22,0-2.44,0-3.66.03-.1.05-.21.08-.31Z"/><path class="cls-12" d="M35.18,91.12c-.01-1.03-.03-2.07-.04-3.1-.02-1.05-.03-2.12-.07-3.25-.03-.74-.06-1.47-.09-2.2-.03-.74-.05-1.48-.07-2.23-.07-8.21-.58-16.6-.27-24.82.02.58.04,1.16.06,1.73-.24,6.58.1,13.19.32,19.71.02,1.08.03,1.77.02,2.24,0,.26.02.51.07.76.02.61.03,1.22.04,1.83.02.71.05,1.41.07,2.12.04.8.09,1.62.14,2.42.11,2.04.04,3.77,0,5.78,0,.61-.01,1.23-.02,1.85,0-.02,0-.04,0-.07-.07-.91-.12-1.83-.16-2.76Z"/><path class="cls-6" d="M30.5,43.23c-.22-.26-.44-.52-.66-.79.21.24.42.48.62.72h0s.03.05.03.07Z"/><path class="cls-13" d="M39.01,56.11c2.43,3.38,9.12,13,9.12,13l1.18-3.33,1.3,1.08s-1.41,4.15.59,6.56c.67.8,1.9,2.46,4.79,6.04-.01-.08-.02-.15-.04-.24-.04-.19-.07-.39-.1-.58-.07-.39-.15-.8-.23-1.2-.08-.4-.16-.8-.25-1.2-.09-.39-.17-.78-.25-1.15-.04-.18-.08-.36-.13-.53.23.11.46.22.7.34,0,0,0,.01,0,.02.14.36.28.74.42,1.12.14.38.29.77.42,1.16.14.39.27.78.4,1.17.07.19.13.38.19.57.06.19.12.38.18.57.12.37.22.73.32,1.08.11.35.19.68.27.99.03.13.06.26.1.38,1.87,2.31,6.54,8.53,11.29,14.94l.02.02c.24.32.47.63.7.94.23.31.46.61.69.92h0c6,8.11,11.72,15.92,11.72,15.92l-.1.08c-.67-.06-1.34-.08-1.99-.17-.04,0-.07,0-.11-.01-.04,0-.07,0-.11-.01h0s-.04,0-.05,0c-.57-.09-1.06-.39-1.56-.67-.18-.1-.37-.2-.56-.29-.06-.03-.13-.06-.2-.09-.09-.04-.19-.07-.28-.1-.24-.07-.47-.09-.69-.11-.1-.01-.2-.02-.31-.02-.9-1.06-1.94-2.3-3.08-3.65-.19-.23-.38-.45-.57-.68-.04-.05-.09-.1-.12-.15-4.07-4.82-9.15-10.8-12.89-15.1-.08-.04-.26-.11-.5-.23-.18-.08-.38-.19-.61-.31-.12-.06-.24-.12-.37-.19-.13-.07-.26-.15-.4-.23-.27-.16-.57-.33-.87-.53-.31-.19-.63-.39-.95-.61-.16-.11-.33-.22-.5-.33-.16-.12-.33-.23-.5-.34-.34-.23-.67-.47-1.01-.71-.34-.23-.67-.48-1-.72-.28-.21-.55-.41-.82-.62-.07-.27-.13-.55-.19-.82.13.07.26.14.39.21.34.18.69.37,1.04.56.36.19.72.38,1.08.56.37.19.72.37,1.09.55.18.08.36.18.54.26.18.08.35.16.52.24.13.07.26.12.39.18-7.18-8.21-9.78-13.53-15.92-17.23-.1-.06-.18-.12-.27-.18-.06-.01-.12-.03-.18-.04-.28-.06-.56-.12-.85-.17-.29-.06-.59-.11-.89-.16-.02,0-.04,0-.07-.01-.14-.31-.27-.62-.39-.93.18-.01.35-.02.53-.02.17,0,1.89-.32,2.06-.32l-3.34-3.65-2.29-2.51-4.84-5.29-3.99-4.37-2.4-2.63-.03-.04-2.12-2.31-1.28-1.4c-.09-.15-.17-.3-.24-.45-.1-.2-.2-.4-.28-.61-.09-.22-.17-.43-.23-.64-.07-.2-.12-.41-.17-.61-.05-.2-.08-.39-.1-.58-.02-.14-.03-.28-.03-.42-.02-.52.04-1.03.2-1.53,0-.02.01-.04.02-.06.06-.22.15-.43.26-.64.04-.08.09-.17.14-.25.06-.11.13-.21.2-.32.07-.11.15-.22.24-.33.17-.21.36-.43.57-.63.05-.05.1-.1.16-.14.12-.11.25-.23.38-.33.06-.05.11-.09.17-.13.03-.02.05-.04.08-.06.18-.13.35-.25.53-.36.03-.02.07-.05.1-.06.05-.04.11-.07.16-.09.12-.07.25-.13.38-.18.23-.11.47-.2.7-.27.08-.02.17-.05.26-.07.14-.04.29-.06.43-.08.1-.02.19-.03.29-.03.48-.03.95.01,1.41.13.14.03.28.08.43.12.45.15.88.36,1.32.63.14.09.28.18.41.28.68.48,1.34,1.09,1.97,1.8.52.81,1.14,1.76,1.8,2.79.22.33.43.67.66,1.01h0c1.19,1.83,2.46,3.78,3.54,5.41.08.11.15.22.23.34,0-.02,0-.04,0-.07,0-.02,0-.03,0-.05-.04-.19-.07-.39-.11-.59-.07-.39-.15-.79-.23-1.19-.08-.4-.17-.8-.25-1.2-.08-.36-.16-.71-.23-1.05.26.1.52.19.78.29.07.17.14.35.2.54.14.38.28.77.42,1.15.14.39.28.78.41,1.17.07.19.13.38.19.57.06.19.12.38.18.57.12.37.23.74.33,1.08.1.34.19.68.27.98,0,.02,0,.04.01.06.03.13.07.26.09.39,0,.01,0,.02,0,.03h0c.03.13.05.26.08.37,0,.02,0,.04.01.06Z"/><path class="cls-14" d="M66.14,101.1c-.54-.73-1.09-1.47-1.64-2.21.47.64.93,1.29,1.4,1.93.08.09.16.18.23.28Z"/><path class="cls-14" d="M36.84,64.85c.68.84,1.35,1.7,2.02,2.55,5.34,7.19,10.85,14.3,16.86,20.71-5.73-6.44-11.3-13.07-16.49-20.3-.68-.86-1.43-1.81-2.12-2.68-1.4-1.87-2.78-3.46-4.26-5.16-.72-.84-1.45-1.69-2.18-2.53.67.79,1.34,1.59,2.02,2.38,1.42,1.65,2.79,3.33,4.15,5.02Z"/><path class="cls-14" d="M62.17,94.49c2.73,3.47,5.39,6.98,7.94,10.57.72.88,1.52,1.91,2.25,2.79,1.48,1.82,2.95,3.65,4.43,5.47-.1-.01-.2-.02-.31-.02-.9-1.06-1.94-2.3-3.08-3.65-.17-.19-.33-.39-.5-.59l-.08-.1s-.09-.1-.12-.15c-.57-.67-1.12-1.35-1.68-2.03-.61-.77-1.21-1.55-1.81-2.33-.61-.8-1.23-1.6-1.91-2.5-1.56-2.28-3.18-4.51-4.85-6.71-.55-.73-1.11-1.46-1.67-2.19-.59-.78-1.28-1.65-1.9-2.44-6.49-7.22-12.84-14.39-18.66-22.65-.7-.89-1.47-1.87-2.17-2.75-1.41-1.77-2.84-3.52-4.28-5.25-.78-.88-1.55-1.76-2.32-2.65-.58-.67-1.16-1.33-1.73-2-.58-.67-1.15-1.34-1.73-2.02-.46-.53-4.58-5.63-7.7-9.47.04-.08.09-.17.14-.25,3.03,3.74,6.95,8.57,7.33,9,.68.8,1.41,1.64,2.1,2.44,1.37,1.59,2.74,3.17,4.12,4.75.8.92,1.61,1.87,2.47,2.88.58.83,1.18,1.64,1.77,2.44.6.81,1.19,1.61,1.8,2.41,5.34,7.5,11.08,14.27,17.4,21.17,1.14,1.18,2.11,2.5,3.13,3.72.55.69,1.1,1.38,1.65,2.09Z"/><path class="cls-14" d="M64.22,96.23c1.61,2.08,3.23,4.18,4.86,6.29.64.8,1.41,1.75,2.06,2.54.64.76,1.25,1.49,1.86,2.21,1.86,2.19,3.69,4.41,5.5,6.63-.18-.1-.37-.2-.56-.29-.07-.03-.13-.05-.19-.08h0c-1.75-2.14-3.51-4.27-5.29-6.38-.67-.8-1.33-1.6-2.04-2.44-1.68-2.3-3.4-4.59-5.15-6.85-.58-.75-1.17-1.51-1.75-2.26-.53-.68-1.07-1.36-1.6-2.04s-1.07-1.36-1.61-2.04c-3.53-4.45-7.1-8.16-10.79-12.39-3.54-4.04-6.35-8.38-9.47-12.35-.69-.89-1.39-1.79-2.08-2.69-.69-.9-1.39-1.8-2.09-2.7-.72-.75-1.58-1.76-2.37-2.65-.69-.77-1.37-1.55-2.05-2.32-.68-.78-1.35-1.57-2.03-2.36-.76-.88-5.41-6.61-8.83-10.81.07-.11.15-.22.24-.33,3.05,3.76,6.9,8.53,7.3,9.01.72.84,1.49,1.73,2.22,2.57,1.46,1.66,2.93,3.32,4.42,4.95.77.89,1.51,1.77,2.27,2.71.59.74,1.17,1.49,1.76,2.24.58.75,1.16,1.5,1.74,2.25,5.47,7.78,11.44,14.97,17.84,22.02.74.92,1.44,1.82,2.14,2.74.69.9,1.37,1.81,2.05,2.72.54.7,1.08,1.39,1.62,2.1Z"/><path class="cls-14" d="M53.79,90.04c.1.07.2.14.3.22.05.04.1.07.15.1-.14-.2-.28-.4-.42-.6-.28-.4-.57-.79-.85-1.19-.13-.07-.25-.13-.37-.2.39.55.79,1.11,1.19,1.66Z"/><path class="cls-14" d="M35.16,65.51l-2.67-2.72c-.52-.61-1.06-1.25-1.56-1.84-.64-.76-2.28-2.76-4.24-5.18-2.08-2.55-4.53-5.57-6.59-8.08-.07-.2-.12-.41-.17-.61,2.86,3.53,6.13,7.59,6.45,7.96,1.18,1.38,2.35,2.77,3.52,4.16.26.31.51.62.77.94.41.49.82.98,1.22,1.48,1.08,1.3,2.17,2.59,3.26,3.89Z"/><path class="cls-14" d="M75.76,108.79c1.54,1.88,3.03,3.87,4.58,5.81h0c-.07,0-.15-.01-.22-.02h0c-1.35-1.72-2.65-3.45-4.08-5.22-.77-.89-1.54-1.77-2.3-2.66-.66-.78-1.32-1.56-1.97-2.34-.67-.8-1.41-1.7-2.07-2.5-.59-.71-1.18-1.42-1.76-2.13-.59-.71-1.17-1.43-1.76-2.15-2.1-2.62-4.11-5.24-6.13-7.85-.68-.87-1.37-1.76-2.05-2.63-5.26-6.36-10.59-12.26-15.45-18.93-.56-.7-1.11-1.41-1.66-2.13-1.1-1.42-2.18-2.86-3.25-4.31-.73-.87-1.55-1.88-2.32-2.81-1.8-2.08-3.56-4.13-5.3-6.17-.58-.69-1.22-1.42-1.79-2.1-.36-.41-3.85-4.73-6.79-8.35.05-.05.1-.1.16-.14,3.09,3.79,7.12,8.76,7.55,9.26.61.71,1.21,1.41,1.81,2.11,1.2,1.4,2.4,2.79,3.59,4.17.58.68,1.15,1.37,1.71,2.05.57.68,1.14,1.39,1.7,2.05,1.61,2.06,3.22,4.14,4.84,6.21.54.69,1.08,1.39,1.63,2.11,4.14,5.9,9.14,11.16,13.65,16.78.67.87,1.38,1.78,2.05,2.66,2.02,2.65,4.04,5.3,6.12,7.9.59.74,1.19,1.47,1.79,2.21.6.73,1.2,1.47,1.8,2.19.6.73,1.3,1.58,1.92,2.31.61.72,1.23,1.44,1.85,2.15.71.83,1.43,1.65,2.15,2.47Z"/><path class="cls-14" d="M28.6,55c.64.75,1.28,1.5,1.91,2.25-.6-.7-1.19-1.38-1.79-2.08-.65-.76-1.35-1.58-1.99-2.33-.24-.28-3.86-4.77-6.73-8.31,0-.02.01-.04.02-.06,2.83,3.51,6.38,7.92,6.59,8.17.63.74,1.34,1.59,1.99,2.35Z"/><path class="cls-14" d="M30.68,57.45s-.02-.02-.03-.03c-.05-.06-.1-.11-.14-.17.06.06.11.13.17.2Z"/><path class="cls-14" d="M30.81,61.09l-1.14-1.16c-.89-1.03-4.28-5.17-7.54-9.14-.51-.63-1.02-1.25-1.52-1.85-.1-.2-.2-.4-.28-.61,1.24,1.5,2.6,3.16,3.92,4.77l.03.04c2.92,3.56,5.65,6.89,6.53,7.95Z"/><path class="cls-14" d="M41.07,73.33s.09.06.14.09c.06.04.12.07.17.11-.48-.58-.97-1.17-1.46-1.75-.05,0-.1.02-.15.02.43.51.87,1.01,1.3,1.52Z"/><path class="cls-14" d="M38.55,71.94c.03.09.07.17.1.26.24.25.48.5.72.75.11.02.22.04.33.06-.34-.36-.69-.72-1.04-1.07-.04,0-.07,0-.11,0Z"/><path class="cls-14" d="M31.56,51.83c-.53-.62-1.06-1.24-1.6-1.86-.69-.8-1.41-1.61-2.11-2.4-.19-.21-2.65-3.27-5.1-6.3.03-.02.07-.05.1-.06,2.99,3.68,6.56,8.08,6.96,8.55.59.69,1.17,1.38,1.74,2.08Z"/><path class="cls-14" d="M38.04,59.87c-2.09-2.77-4.27-5.44-6.48-8.04,2.09,2.52,4.13,5.08,6.09,7.69.66.83,1.32,1.66,1.97,2.5.65.84,1.3,1.69,1.95,2.56.04.04.08.08.12.12-.55-.77-1.1-1.51-1.66-2.25-.66-.87-1.33-1.73-2-2.58Z"/><path class="cls-14" d="M40.49,59.99c.21.54.4,1.07.77,1.53.72.88,1.44,1.76,2.15,2.64.68.84,1.38,1.73,2.06,2.57.48.66.97,1.33,1.46,1.99.49.66.99,1.33,1.48,1.99.69.87,1.39,1.75,2.12,2.67,6.25,8.01,11.8,16.19,18.8,23.5l.02.02c.24.32.47.63.7.94.23.31.46.61.69.92-7.86-7.99-14.19-17.53-21.26-26.48-.58-.76-1.2-1.54-1.79-2.3-.58-.79-1.16-1.6-1.73-2.4-.73-.93-1.41-1.78-2.1-2.62-.45-.56-.96-1.19-1.42-1.75-.57-.7-1.14-1.39-1.71-2.09-.58-.71-1.18-1.45-1.76-2.15-2.81-3.73-5.73-7.33-8.74-10.87-.61-.72-1.25-1.47-1.87-2.19-.18-.21-2.11-2.61-4.24-5.26.08-.02.17-.05.26-.07,2.48,3.07,4.85,5.99,5.24,6.42.76.87,1.52,1.73,2.28,2.6,3.02,3.47,5.95,6.95,8.61,10.38Z"/><path class="cls-14" d="M37.74,51.71c-.22-.22-.43-.45-.65-.67.23.26.45.52.68.78-.01-.04-.02-.07-.04-.11Z"/><path class="cls-14" d="M37.1,51.04c-.27-.31-.53-.62-.79-.94,0,0,0,.01,0,.02.23.27.45.54.68.81.04.04.07.08.11.11Z"/><path class="cls-14" d="M57.22,84.9c-1.18-1.57-2.43-3.13-3.7-4.68.99,1.26,1.99,2.51,2.98,3.75.24.31.48.62.72.93Z"/><path class="cls-14" d="M34.31,56.11c.65.8,1.3,1.6,1.93,2.42.65.79,1.29,1.6,1.93,2.4.64.81,1.31,1.7,1.93,2.52,1.11,1.56,2.29,3.07,3.51,4.57.61.75,1.23,1.5,1.86,2.24,2.79,3.29,5.42,6.63,8.04,9.95-2.74-3.32-5.6-6.6-8.24-9.91-.61-.74-1.23-1.49-1.83-2.25-1.2-1.5-2.37-3.03-3.48-4.61-.75-.98-1.52-1.96-2.27-2.89s-1.52-1.87-2.28-2.8c-.64-.77-1.29-1.55-1.93-2.33-1.02-1.26-2.08-2.53-3.16-3.79-.54-.63-1.08-1.26-1.63-1.9-.36-.43-3.66-4.49-6.55-8.05.03-.02.05-.04.08-.06,2.78,3.41,5.81,7.15,6.12,7.52.63.75,1.33,1.55,1.99,2.32.67.77,1.33,1.54,2,2.29.66.78,1.32,1.57,1.97,2.36Z"/><path class="cls-14" d="M59.81,88.36c2.08,2.79,4.19,5.58,6.43,8.33.58.7,1.18,1.42,1.78,2.12.6.69,1.2,1.39,1.82,2.07.68.8,1.28,1.52,1.9,2.25.6.71,1.21,1.41,1.82,2.11.62.74,1.3,1.55,1.92,2.31.56.7,1.12,1.4,1.68,2.1,1.08,1.23,2.22,2.41,3.25,3.68.35.46.71.92,1.07,1.38.04,0,.09,0,.13,0-.77-.97-1.54-1.93-2.31-2.9-.82-1.14-1.79-1.86-2.61-3-.56-.71-1.11-1.43-1.67-2.14-.64-.77-1.28-1.53-1.92-2.29-.64-.77-1.27-1.53-1.91-2.29-.63-.72-1.27-1.44-1.9-2.16-.63-.72-1.25-1.45-1.87-2.18-3.18-3.77-6.15-7.61-9.11-11.47-.36-.46-.72-.93-1.08-1.4.17.23.34.45.5.68.69.93,1.39,1.85,2.08,2.78Z"/><path class="cls-14" d="M67.84,97.75c.67.73,1.34,1.45,2.02,2.16.65.75,1.24,1.44,1.83,2.12.57.67,1.15,1.33,1.73,1.99.59.73,1.14,1.41,1.69,2.09.54.68,1.09,1.37,1.63,2.05,1.55,2.05,3.31,3.63,4.86,5.68.23.31.46.61.7.92.01,0,.03,0,.04,0h0c-.87-1.12-1.73-2.23-2.59-3.33-1.26-1.69-2.87-3.09-4.13-4.77-.48-.61-1-1.26-1.45-1.83-.58-.69-1.15-1.37-1.73-2.06-.58-.69-1.22-1.44-1.79-2.12-.7-.74-1.39-1.5-2.08-2.26-1.48-1.68-2.91-3.4-4.31-5.15,1.29,1.56,2.62,3.08,3.99,4.54.68.73,1.37,1.45,2.06,2.16.59.66,1.2,1.34,1.78,1.99.57.64,1.14,1.27,1.71,1.9.52.65,1.22,1.49,1.81,2.23,2.12,2.63,4.23,5.3,6.35,7.99-.65-.89-1.96-2.67-3.64-4.96-.25-.25-.48-.5-.68-.75-.62-.79-1.25-1.58-1.87-2.36-.63-.78-1.35-1.66-1.97-2.44-.46-.52-.92-1.05-1.37-1.57-.46-.52-.91-1.05-1.36-1.57-.8-.83-1.59-1.68-2.36-2.53-7.15-7.74-12.59-16.55-19.35-24.62-.45-.56-.92-1.14-1.38-1.71-1.35-1.7-2.69-3.42-3.98-5.12-.57-.64-1.2-1.37-1.8-2.02-.59-.64-1.19-1.27-1.81-1.89,0-.01-.02-.02-.03-.03.63.77,1.26,1.55,1.88,2.32,1.01,1.3,2.02,2.58,3.03,3.86-1.12-1.39-2.29-2.72-3.59-3.96.11.15.21.3.32.45,2,2.11,3.88,4.41,5.72,6.77.12.15.24.31.36.46.41.56.82,1.13,1.23,1.69,2.54,3.19,4.97,6.33,7.36,9.63.6.81,1.21,1.61,1.81,2.41,3.01,4.01,6.05,7.95,9.34,11.65Z"/><path class="cls-14" d="M40.37,62.47c-.12-.15-.24-.3-.36-.44.1.15.22.3.36.44Z"/><path class="cls-14" d="M40.01,62.03l-.05-.06c-.69-.84-1.38-1.68-2.07-2.52-.69-.84-1.39-1.7-2.11-2.58-1.98-2.57-4.02-5.11-6.12-7.6-.4-.47-3.71-4.56-6.64-8.16.12-.07.25-.13.38-.18,2.67,3.3,5.49,6.78,5.77,7.12.55.64,1.09,1.29,1.63,1.94,2.7,3.25,5.35,6.57,8.05,9.86.64.71.7,1.47,1.16,2.18Z"/><path class="cls-14" d="M60.47,93.57c1.37,1.73,2.71,3.53,4.04,5.33-1.49-2.06-2.96-4.12-4.57-6.14-.51-.64-1.04-1.28-1.62-1.95-.87-.88-1.74-1.78-2.59-2.69,1.1,1.24,2.21,2.48,3.33,3.71.41.5.95,1.15,1.42,1.74Z"/><path class="cls-14" d="M32.43,46.22c.22.33.43.67.66,1.01-.15-.17-.28-.35-.43-.52-.61-.75-1.23-1.5-1.92-2.32-.22-.26-1.21-1.45-2.5-3.04.14.09.28.18.41.28.95,1.17,1.62,2.01,1.77,2.19.71.84,1.37,1.63,2,2.4Z"/><path class="cls-14" d="M56.16,76.11s-.02-.05-.03-.08c-.06-.15-.11-.3-.17-.44-.2-.28-.4-.57-.61-.85-.1-.05-.21-.1-.31-.15.37.51.74,1.02,1.12,1.53Z"/><path class="cls-14" d="M49.29,68.51c.28.39.56.78.84,1.17,0-.12,0-.23.02-.35-.1-.15-.19-.29-.29-.44-.36-.53-.72-1.05-1.09-1.57l-.11.31c.21.29.43.58.64.87Z"/><path class="cls-14" d="M38.82,55.26c.03.13.07.26.09.39,0,.01,0,.02,0,.03l-.17-.19c-.68-.85-1.43-1.74-2.12-2.59-1.21-1.49-2.42-2.98-3.66-4.45-.61-.74-1.28-1.53-1.85-2.2-.62-.75-1.24-1.49-1.86-2.23-.14-.17-1.28-1.59-2.76-3.42.14.03.28.08.43.12,1.84,2.28,3.37,4.17,3.59,4.44.61.73,1.19,1.42,1.75,2.1,1.12,1.36,2.23,2.73,3.34,4.1.34.43.68.85,1.02,1.28.08.11.15.22.23.34,0-.02,0-.05-.02-.07h0s.65.81.65.81c.44.52.89,1.03,1.33,1.54Z"/><path class="cls-14" d="M57.46,79.9c-.04-.14-.08-.27-.13-.41-.03-.09-.06-.19-.09-.28-.58-.75-1.15-1.5-1.72-2.25.03.15.06.3.09.45.61.84,1.22,1.67,1.85,2.5Z"/><path class="cls-14" d="M30.45,43.16h0s.03.05.03.07c-.22-.26-.44-.52-.66-.79.21.24.42.48.62.72Z"/><path class="cls-14" d="M36.52,51.16c.02.12.05.24.07.36.58.7,1.16,1.41,1.79,2.14-.05-.18-.11-.36-.17-.54-.01-.04-.03-.09-.04-.13-.35-.37-.7-.74-1.05-1.11-.2-.24-.4-.49-.6-.73Z"/><path class="cls-14" d="M49.91,67.31c.14.21.28.41.43.62.03-.17.07-.32.1-.45-.1-.16-.2-.31-.31-.46-.28-.38-.56-.77-.85-1.15l-.14.4c.26.35.51.7.77,1.05Z"/><path class="cls-14" d="M36.17,48.9s-.1-.04-.15-.05c0,.04.02.08.03.13.41.48.83.97,1.22,1.43-.05-.15-.11-.29-.16-.44-.31-.35-.63-.71-.95-1.06Z"/><path class="cls-14" d="M29.77,42.37s-.14-.17-.31-.38c.18.21.28.35.31.38Z"/><path class="cls-14" d="M39.18,57.49c-.32-.35-.66-.62-.99-.9.88,1.12,1.76,2.25,2.62,3.38.22.27.44.54.67.81-.88-1.19-1.37-2.27-2.3-3.29Z"/><path class="cls-14" d="M40.13,71.75c.59.7,1.19,1.4,1.78,2.11.23.15.45.3.67.46-.71-.88-1.42-1.75-2.15-2.62-.1.02-.2.03-.3.05Z"/><path class="cls-14" d="M55.11,89.69c.67.83,1.35,1.66,2.03,2.49.06.08.13.15.19.23.2.12.4.24.59.35.1.06.2.11.29.17-.88-.99-1.74-1.99-2.6-3-.17-.08-.33-.16-.5-.24Z"/><path class="cls-14" d="M38.18,56.6c-.5-.4-1-.8-1.41-1.37-1.82-2.36-3.7-4.66-5.61-6.93-.65-.77-1.34-1.58-1.99-2.34-.25-.32-2.2-2.74-4.38-5.45.1-.02.19-.03.29-.03,2.26,2.81,4.32,5.35,4.63,5.74.57.65,1.3,1.55,1.94,2.31,2.23,2.67,4.39,5.36,6.52,8.07Z"/><path class="cls-14" d="M55.23,91.05c.13.09.25.17.37.26.08.05.15.1.22.15-.63-.78-1.26-1.57-1.88-2.36-.14-.07-.28-.15-.42-.22.56.73,1.13,1.45,1.7,2.18Z"/><path class="cls-14" d="M39.02,69.43l-1.06-1.08c-.13-.15-.26-.31-.39-.47-.66-.8-1.33-1.6-2-2.39l-.05-.06c-.65-.77-1.31-1.54-1.97-2.3-.78-.93-1.48-1.77-2.18-2.62-1.41-1.68-2.81-3.35-4.22-5.01-.43-.51-4.25-5.23-7.31-9.01-.02-.14-.03-.28-.03-.42,3.09,3.81,6.99,8.66,7.42,9.18,1.39,1.66,2.77,3.32,4.15,4.99.69.83,1.43,1.72,2.16,2.59.71.82,1.41,1.65,2.1,2.48.7.83,1.38,1.66,2.07,2.49l.12.15c.4.49.81.99,1.21,1.48Z"/><path class="cls-14" d="M43.43,74.94c-.88-1.11-1.76-2.21-2.63-3.3-.04,0-.08.01-.13.02.83,1.02,1.66,2.05,2.48,3.07.09.07.19.14.28.21Z"/><path class="cls-14" d="M43.25,63.28c.69.88,1.38,1.76,2.07,2.64.7.9,1.41,1.81,2.14,2.78.47.64.94,1.28,1.41,1.91.48.64.96,1.28,1.45,1.92,5.5,6.96,10.75,14.36,16.57,21.08-.38-.5-.75-1-1.12-1.5-4.66-5.38-8.85-11.17-13.07-16.8-.72-.92-1.17-1.51-1.5-1.9-.18-.22-.33-.45-.46-.69-.4-.53-.8-1.05-1.21-1.57-.46-.61-.92-1.22-1.37-1.83-.5-.7-1.02-1.43-1.52-2.13-1.29-1.79-2.52-3.2-3.91-4.87-.42-.51-.84-1.03-1.26-1.54.01.02.03.04.04.06.56.81,1.14,1.62,1.74,2.43Z"/></g></svg>