<?xml version="1.0" encoding="UTF-8"?><svg xmlns="http://www.w3.org/2000/svg" xmlns:xlink="http://www.w3.org/1999/xlink" viewBox="0 0 102.24 150.24"><defs><style>.cls-1{fill:#e69563;}.cls-2{fill:url(#linear-gradient-3);}.cls-2,.cls-3,.cls-4,.cls-5,.cls-6,.cls-7,.cls-8,.cls-9{fill-rule:evenodd;}.cls-10{fill:none;stroke:#1e1e1c;stroke-miterlimit:10;stroke-width:.25px;}.cls-3{fill:#e4a36d;}.cls-4{fill:#cb1525;}.cls-11{fill:url(#linear-gradient-8);}.cls-12{fill:url(#linear-gradient-7);}.cls-13{fill:url(#linear-gradient-5);}.cls-14{fill:url(#linear-gradient-6);}.cls-15{fill:url(#linear-gradient-9);}.cls-16{fill:url(#linear-gradient-4);}.cls-17{fill:url(#linear-gradient-2);}.cls-18{fill:#472212;}.cls-19{fill:#e6e6e6;}.cls-20{fill:url(#linear-gradient);}.cls-21,.cls-8{fill:#356d55;}.cls-22{fill:url(#linear-gradient-10);}.cls-23{fill:url(#linear-gradient-13);}.cls-24{fill:url(#linear-gradient-14);}.cls-25{fill:url(#linear-gradient-16);}.cls-26{fill:url(#linear-gradient-17);}.cls-5{fill:url(#linear-gradient-15);}.cls-6{fill:url(#linear-gradient-11);}.cls-7{fill:url(#linear-gradient-12);}.cls-9{fill:#d4884b;}</style><linearGradient id="linear-gradient" x1="59.41" y1="123.25" x2="58.58" y2="129.93" gradientUnits="userSpaceOnUse"><stop offset="0" stop-color="#356d55"/><stop offset=".21" stop-color="#46785b"/><stop offset=".64" stop-color="#74966a"/><stop offset="1" stop-color="#a0b37a"/></linearGradient><linearGradient id="linear-gradient-2" x1="41.43" y1="124.23" x2="39.16" y2="131.77" xlink:href="#linear-gradient"/><linearGradient id="linear-gradient-3" x1="75.41" y1="53.94" x2="45.5" y2="86.1" gradientUnits="userSpaceOnUse"><stop offset="0" stop-color="#cb1525"/><stop offset=".25" stop-color="#d1262d"/><stop offset=".74" stop-color="#e35441"/><stop offset="1" stop-color="#ee6f4e"/></linearGradient><linearGradient id="linear-gradient-4" x1="106.76" y1="-329.49" x2="106.76" y2="-283.66" gradientTransform="translate(-1.95 400.2) rotate(-8.99)" gradientUnits="userSpaceOnUse"><stop offset="0" stop-color="#f6c008"/><stop offset=".16" stop-color="#f4bd10"/><stop offset=".4" stop-color="#efb726"/><stop offset=".7" stop-color="#e8ad4a"/><stop offset="1" stop-color="#e0a275"/></linearGradient><linearGradient id="linear-gradient-5" x1="44.93" y1="41.76" x2="55.76" y2="41.76" gradientTransform="matrix(1,0,0,1,0,0)" xlink:href="#linear-gradient-4"/><linearGradient id="linear-gradient-6" x1="44.98" y1="44.77" x2="55.7" y2="44.77" gradientTransform="matrix(1,0,0,1,0,0)" xlink:href="#linear-gradient-4"/><linearGradient id="linear-gradient-7" x1="44.97" y1="44.56" x2="55.74" y2="44.56" gradientTransform="matrix(1,0,0,1,0,0)" xlink:href="#linear-gradient-4"/><linearGradient id="linear-gradient-8" x1="32.37" y1="74.5" x2="67.18" y2="74.5" gradientTransform="matrix(1,0,0,1,0,0)" xlink:href="#linear-gradient-4"/><linearGradient id="linear-gradient-9" x1="83.5" y1="-5.55" x2="34.07" y2="83.8" gradientUnits="userSpaceOnUse"><stop offset="0" stop-color="#787992"/><stop offset=".28" stop-color="#758190"/><stop offset=".71" stop-color="#6e978b"/><stop offset="1" stop-color="#68aa87"/></linearGradient><linearGradient id="linear-gradient-10" x1="107.94" y1="2.93" x2="62.63" y2="84.84" xlink:href="#linear-gradient-9"/><linearGradient id="linear-gradient-11" x1="5083.69" y1="591.29" x2="5083.01" y2="604.51" gradientTransform="translate(5171.07 306.9) rotate(-170.71) scale(1 -1)" gradientUnits="userSpaceOnUse"><stop offset="0" stop-color="#d4884b"/><stop offset="1" stop-color="#f7d498"/></linearGradient><linearGradient id="linear-gradient-12" x1="49.66" y1="23.2" x2="49.33" y2="29.72" gradientTransform="matrix(1,0,0,1,0,0)" xlink:href="#linear-gradient-11"/><linearGradient id="linear-gradient-13" x1="5969.48" y1="29.15" x2="5969.39" y2="29.57" gradientTransform="translate(6018.96) rotate(-180) scale(1 -1)" gradientUnits="userSpaceOnUse"><stop offset="0" stop-color="#f6caa9"/><stop offset="1" stop-color="#e69563"/></linearGradient><linearGradient id="linear-gradient-14" x1="47.78" y1="12.86" x2="47.21" y2="24.01" gradientTransform="matrix(1,0,0,1,0,0)" xlink:href="#linear-gradient-11"/><linearGradient id="linear-gradient-15" x1="51.46" y1="23.24" x2="51.16" y2="29.2" gradientUnits="userSpaceOnUse"><stop offset="0" stop-color="#d4884b"/><stop offset=".25" stop-color="#d58b4e"/><stop offset=".47" stop-color="#da9659"/><stop offset=".68" stop-color="#e2a86b"/><stop offset=".88" stop-color="#eec185"/><stop offset="1" stop-color="#f7d498"/></linearGradient><linearGradient id="linear-gradient-16" x1="50.28" y1="-229.33" x2="50.67" y2="-228.73" gradientTransform="translate(88.6 243.71) rotate(177.65) scale(1 -1)" gradientUnits="userSpaceOnUse"><stop offset="0" stop-color="#658e4c"/><stop offset="1" stop-color="#a0b37a"/></linearGradient><linearGradient id="linear-gradient-17" x1="23.28" y1="-235.84" x2="59.25" y2="-179.61" xlink:href="#linear-gradient-16"/></defs><g id="NOOOOO"><g id="margem"><polyline class="cls-10" points="21.32 141.14 10.38 141.14 10.38 75.95 10.38 9.1 21.32 9.1"/><line class="cls-10" x1="31.32" y1="9.1" x2="45.53" y2="9.1"/><polyline class="cls-10" points="80.92 9.1 91.86 9.1 91.86 141.14 80.92 141.14"/><line class="cls-10" x1="31.32" y1="9.1" x2="45.53" y2="9.1"/><line class="cls-10" x1="70.92" y1="141.14" x2="56.71" y2="141.14"/><line class="cls-10" x1="56.71" y1="9.1" x2="70.92" y2="9.1"/><line class="cls-10" x1="45.53" y1="141.14" x2="31.32" y2="141.14"/></g></g><g id="BASTOS"><path class="cls-20" d="M65.53,130.39c-.18-.53-5.44-3.25-5.44-3.25,0,0-2.56-2.95-3.23-4.03-1.2.19-2.44.2-3.65.06,0,.05,0,.1,0,.15,0,.14-.02.26-.02.35-.44-.16-.8-.3-.8-.3v5.52h2.54l-.09-.53s1.84,1.58,4.65,2.02c2.81.44,6.22.53,6.05,0Z"/><path class="cls-17" d="M44.66,122.17c-.02-.1-.03-.21-.04-.31-.89-.11-1.78-.26-2.66-.4,0,.03.02.06.02.09.04.14.06.22.06.22l-1.23-.26s-1.31,3.77-1.93,4.65c-.61.88-2.81,1.93-2.98,2.37-.18.44-2.19,4.21-2.02,4.65.18.44.79.44,1.4.35.61-.09,4.65-1.66,5.44-2.81.79-1.14,2.02-2.46,2.02-2.46h.88l1.75-.79-.09-2.72s-.44-1.17-.62-2.57Z"/><path class="cls-2" d="M59.63,107.29c-1.07,12.61-2.37,15.92-1.29,17.94-1.86,1.19-4.69,2.25-8.84,2.11-12.86-.43-13.51-3.32-13.51-3.32l4.19-71.37.59.1.91-15.47c1.28.34,2.52.65,2.52.67.04-.05.09-.11.13-.16.11-.13.22-.27.34-.42.11-.14.23-.3.34-.45.03-.04.06-.09.09-.13-.1.15.07.61.13.75.14.32.38.58.7.72-.01.02-.02.03-.03.05-.03.05-.06.1-.09.15-.1.21-.17.45-.2.71-.03.26,0,.53.06.8.06.27.17.54.34.77.01.02.02.03.03.05l.03.04.06.08c.05.06.1.12.15.17.1.11.21.2.32.29.41.32.87.54,1.29.75.07.07.14.14.21.21.16.16.33.32.49.49.09-.02,2.64-.89,3.35-1.71.18-.35.28-.7.28-1.05.25-.15.51-.28.82-.39.15-.05.3-.1.45-.14.7,3.36,3.06,14.64,4.47,27.44,1.88,15.27,2.4,32.71,1.68,40.33Z"/><path class="cls-16" d="M49.81,71.65c.15-.03.29-.11.39-.23.27-.09.66-.21,1.01-.33.18-.06.49-.13.95-.21.31-.05.63-.1.92-.14.08.03.22.09.25.25.03.18-.23.69-.41,1,0,.01-.01.03,0,.04.03.19.19,1.09.44,2.45l2.52-.4c-.22-1.38-.37-2.29-.4-2.48,0-.01-.01-.03-.02-.04-.27-.23-.69-.63-.72-.81-.03-.16.09-.27.15-.32.29-.06.63-.12.95-.18.45-.08.78-.12.96-.12.41,0,.85-.01,1.1-.02.13.08.29.11.44.09.35-.06.58-.39.52-.73-.06-.34-.39-.58-.73-.52-.17.03-.31.12-.41.26-.18.06-.38.12-.6.15-.11.02-.23.03-.35.04-.42.04-.9.02-1.36.01-.13,0-.27,0-.39-.01.03-.08.04-.17.02-.26-.02-.1-.08-.19-.15-.25.04-.09.06-.2.04-.3-.02-.1-.08-.19-.15-.25.04-.09.06-.2.03-.3-.02-.1-.07-.19-.15-.25.04-.09.06-.2.03-.3-.02-.1-.08-.19-.15-.25.04-.09.05-.2.03-.3-.02-.1-.07-.19-.15-.25.04-.09.05-.2.03-.3-.02-.1-.07-.19-.15-.25.04-.09.05-.2.03-.3-.02-.1-.07-.19-.15-.25.04-.09.05-.2.03-.3-.02-.1-.07-.19-.14-.25.04-.09.05-.2.03-.3-.02-.1-.07-.19-.14-.25.04-.09.05-.2.03-.3-.02-.1-.07-.19-.14-.26.04-.09.05-.2.02-.3-.02-.1-.07-.19-.14-.26.04-.09.04-.19.02-.3-.02-.1-.07-.19-.14-.26.04-.09.04-.19.02-.3-.02-.1-.07-.19-.14-.26.03-.09.04-.19.02-.3-.02-.1-.07-.19-.13-.26.03-.09.04-.19.02-.3-.02-.1-.07-.19-.13-.26.03-.09.04-.19.02-.29,0-.01,0-.02,0-.03.18-.1.31-.28.35-.51.07-.34-.05-.73-.29-.97l-.25-.23c-.31-.29-.95-.89-1.03-.97-.03-.04-.08-.07-.13-.06-.01,0-.02,0-.03.01-.01,0-.02.01-.03.02-.02.01-.03.04-.04.06-.05.1-.49.87-.7,1.25l-.16.28c-.16.3-.16.71,0,1.01.12.22.31.36.53.39,0,.02,0,.03,0,.05.01.1.05.2.11.27-.04.08-.05.18-.04.29.01.1.05.2.11.27-.04.08-.06.18-.04.29.01.1.05.2.12.27-.04.08-.06.18-.04.29.01.1.05.2.12.27-.04.08-.06.18-.05.29.01.1.06.2.12.27-.04.08-.06.19-.05.29.01.1.06.2.12.27-.04.08-.06.18-.05.29.01.1.06.2.12.27-.04.08-.06.18-.05.29.01.1.06.2.12.27-.05.08-.07.18-.05.29.01.1.06.2.12.27-.05.08-.07.19-.05.29.01.1.06.2.13.27-.05.08-.07.19-.06.29.01.1.06.2.13.27-.05.08-.07.19-.06.29.01.1.06.2.13.27-.05.08-.07.19-.06.29.01.1.06.2.13.27-.05.08-.07.18-.06.29.01.1.06.2.13.27-.05.08-.07.19-.06.29.01.1.06.2.13.27-.05.08-.08.19-.06.29.01.09.05.17.1.24-.12.04-.24.09-.37.14-.43.17-.88.34-1.29.44-.12.03-.23.05-.35.07-.21.04-.41.05-.59.05-.14-.1-.31-.14-.47-.11-.34.06-.58.39-.52.73.06.34.39.58.73.52Z"/><path class="cls-8" d="M52.65,71.77s0,.03,0,.05l6,37.94c.13.84.92,1.42,1.77,1.29.84-.13,1.42-.93,1.29-1.77l-6-37.94s0-.03-.01-.05l-3.05.48Z"/><path class="cls-13" d="M45.55,44.3c1.58.01,3.18.06,4.75-.15.88-.12,2.73-.34,3.47-.85.31-.22.63-.35.94-.42-.16-.94-.35-1.87-.54-2.8-.06-.29-.07-.58-.03-.86-2.79.87-5.82,1.08-8.75.63.15,1.48.13,2.96.15,4.44,0,0,0,0,0,.01Z"/><path class="cls-14" d="M49.81,44.76s-.03.02-.05,0c.02,0,.04,0,.05,0Z"/><path class="cls-12" d="M51.98,44.56s-.04.02-.09,0c.03,0,.06,0,.08-.01,0,0,0,.01,0,.02Z"/><path class="cls-11" d="M60,71.37c-5.64,1.73-11.61,2-17.35.8v4.82c5.75,1.05,11.68.82,17.35-.69v-4.92Z"/><path class="cls-15" d="M44,37.89l-.02,1.11-.08,4.75-.33,19.5h.02l-10.13,64.99s-.31,2.64-2.75.22c-5.12-5.08-3.8-21.01-1.96-46.12-1.69-5.12-5.19-14.77-5.77-19.58-.43-3.55,9.87-19.67,11.04-21.29,1.05-1.47,2.26-2.76,3.45-3.82.49-.44.99-.84,1.47-1.2.2.14,1.49.5,2.74.83.98.26,1.94.5,2.33.61Z"/><path class="cls-22" d="M74.28,124.6c-.74,5.02-13.38,2.15-13.38,2.15,0,0,2.24-40.65.77-54.1-.68-6.25-4.19-20.15-6.63-29.39-.43-1.64-.73-2.64-1.08-3.92.09.12.08-.22.18-.05.2-.08.39-.17.57-.28.07-.04.13-.08.2-.13.94-.66,1.04-1.42,1.12-2.3.36-.34,1.44-.83,1.88-1.45.91.42,1.78.98,2.64,1.65,1.24.98,2.43,2.2,3.59,3.61,3.04,3.68,5.9,8.64,9,13.89,3.25,5.5,2.24,62.89,1.15,70.31Z"/><polygon class="cls-18" points="54.3 44.8 54.3 44.8 54.31 44.8 54.3 44.8"/><path class="cls-6" d="M61.96,68.67c-.15-.12-.25-.17-.25-.17,0,0-.46.61-1.14,1.25-.68.64-2.03,1.25-2.22,1.25-.18,0-2.18-.31-2.58-.06-.66.41-1.29,1.63-1.29,1.63l2.05-.11s-.07.89-.09,1.46c-.02.57-1.31,2.27-2.04,2.79-.73.53-1.05.69-1,1.06.05.37.23.33.23.33,0,0-.56.34-.3.71.13.18.27.3.79.02.51-.28,1.27-.3,1.27-.3,0,0-.8.73-.46,1.04.44.39.58-.05.79-.19.2-.15.81-.59,1.51-.87.69-.28,1.09-.97,1.09-.97,0,0-.28.82-.42,1.26-.14.44-1.07,1.05-1.1,1.47-.03.43.2.32.2.32,0,0,1.17-.81,1.47-1.09.3-.27.36-.66.45-1.22.09-.56.77-.95.78-1.06.02-.11.51-2.43.85-2.99.34-.55,1.06-1.01,1.06-1.01l.69-.55c-.17-1.33-.32-2.67-.35-4.01Z"/><path class="cls-3" d="M53.64,78.11s-.19.04-.23-.33c-.05-.37.27-.53,1-1.06.73-.53,2.02-2.22,2.04-2.79,0-.22.06-1.19.08-1.43.17.09.42.64.33,1.29-.1.77,0,2.22.8,1.29-.58.79.16,1.34.76.58-.45.55-.49.92-.22,1.21.33.33.57.11.89-.4-.04.09-.07.18-.09.27-.09.36.09.79.38.81-.19.19-.41.44-.46.74-.09.56-.15.94-.45,1.22-.3.28-1.47,1.09-1.47,1.09,0,0-.23.11-.2-.32.03-.43.96-1.03,1.1-1.47.14-.44.42-1.26.42-1.26,0,0-.4.69-1.09.97-.69.28-1.3.72-1.51.87-.2.15-.35.59-.79.19-.34-.31.46-1.04.46-1.04,0,0-.76.02-1.27.3-.51.27-.65.16-.79-.02-.26-.37.3-.71.3-.71Z"/><path class="cls-1" d="M53.64,78.11s-.19.04-.23-.33c-.05-.37.27-.53,1-1.06.73-.53,2.02-2.22,2.04-2.79,0-.22.06-1.19.08-1.43.17.09.42.64.33,1.29-.1.77,0,2.22.8,1.29-.58.79.16,1.34.76.58-.45.55-.49.92-.22,1.21.33.33.57.11.89-.4-.04.09-.07.18-.09.27-.09.36.09.79.38.81-.19.19-.41.44-.46.74-.09.56-.15.94-.45,1.22-.3.28-1.47,1.09-1.47,1.09,0,0-.23.11-.2-.32.03-.43.96-1.03,1.1-1.47.14-.44.42-1.26.42-1.26,0,0-.4.69-1.09.97-.69.28-1.3.72-1.51.87-.2.15-.35.59-.79.19-.34-.31.46-1.04.46-1.04,0,0-.76.02-1.27.3-.51.27-.65.16-.79-.02-.26-.37.3-.71.3-.71Z"/><path class="cls-4" d="M61.96,67.7c-.68.69-1.83,1.83-2.72,2.5-1.33,1.01-1.49.4-1.49.4,0,0,.35,4.37,1.29,4.94.48.29,1.78-.43,1.78-.43,0,0,.06-.38.57-1.13.15-.23.52-.53.96-.85-.23-1.8-.45-3.6-.4-5.42Z"/><path class="cls-18" d="M48.67,45.44v.02s0,0-.02,0c0-.02,0-.03-.01-.05,0,0,0,0,0,0,0,0,.02.01.02.02Z"/><path class="cls-19" d="M66.48,80.46c-3.65-19.1-9.91-37.03-12.32-41.17-.2.1-.4.11-.68.26.7,3.38,3.05,14.64,4.46,27.42,1.88,15.27,2.4,32.71,1.68,40.33-1.3,15.25-2.71,17.1-.3,19.59,5.97,6.17,14.47,3.02,15.26,1.86.46-.49-3.28-25.96-8.1-48.29Z"/><path class="cls-19" d="M45.6,39.17c-.03.26,0,.53.06.8.05.19.11.37.2.55-.42,18.44-3.24,59.52-4.35,70.48-1.71,16.83-1.95,21.25-10.59,23.28-3.33.78-7.72-.35-8.19-1.6-.47-1.25,5.04-16.99,7.47-23.95,2.23-6.39,12.04-61.86,13.63-70.88.23.06.36.1.36.1.04-.05.09-.11.13-.16.11-.13.22-.27.34-.42.11-.14.23-.3.34-.45.03-.04.06-.09.09-.13-.1.15.07.61.13.75.13.31.36.56.66.71,0,.02,0,.04,0,.07h0c-.03.05-.06.1-.09.15-.1.21-.17.45-.2.71Z"/><path class="cls-19" d="M57.87,34.06c-1.06-1.33-2.85-1.64-2.8-3.41.06-2.23.47-4.71-.83-6.69-.23-.35-.46-.68-.67-1.01-.33-.06-.66-.1-.98-.15.26,1.7.48,3.53.1,5.6-1.14-.67-1.29-.7-1.7-.8-.31-.12-.73.22-1.03.4-.26-.13-.79-.52-1.05-.39-.4.12-1.99.74-2.38,1-.12-1.41-.36-2.82-.31-4.18.02-.49.03-1.01.06-1.54-1.08.2-2.2.49-3.43.89v-.03c-1.49,2.54-.82,5.49-1.86,8.28-.37.99-2.8,3.3-2.09,4.4,0,0,.01.02.02.02.2.14,1.49.5,2.74.83.98.26,1.93.5,2.33.61.12.03.19.05.19.06.04-.05.09-.11.13-.16.11-.13.22-.27.34-.42.11-.14.23-.29.33-.45.03-.04.06-.09.09-.13-.1.15.07.61.13.75.13.32.38.58.7.72-.01.01-.02.03-.03.05-.03.05-.06.09-.09.15-.1.21-.17.46-.2.71-.03.26,0,.53.06.8.06.27.17.54.34.77.01.02.02.03.03.05l.03.04.06.08c.05.05.1.11.14.16.1.11.21.2.32.29.41.32.87.54,1.29.75.07.07.14.14.22.21.16.16.33.32.49.49.09-.02,2.64-.89,3.35-1.71.18-.35.28-.7.28-1.05.25-.15.51-.28.82-.39.15-.05.3-.1.45-.14.22-.07.44-.15.66-.24.2-.08.39-.17.57-.28.07-.04.13-.08.2-.13.94-.66,1.04-1.42,1.12-2.3.36-.34,1.44-.82,1.88-1.45.23-.32.28-.68-.03-1.07Z"/><path class="cls-7" d="M52.72,28.18c-.02.07-.04.15-.06.22-1.11-.65-1.27-.69-1.67-.79-.27-.11-.64.15-.92.33,0,0,0,0,0,0-.03.02-.07.04-.1.06-.26-.13-.79-.52-1.05-.39-.4.12-1.99.74-2.38,1-.12-1.41-.36-2.82-.31-4.18.02-.49.03-1.02.06-1.54,2.06-.37,3.99-.39,6.3-.08.25,1.64.46,3.39.14,5.37Z"/><path class="cls-23" d="M48.28,29.37c.93.08,1.52.09,2.48-.05-.67-.08-.57-.1-1.05-.1-.58,0-.73.03-1.43.15Z"/><path class="cls-24" d="M55.03,15.16c.02.2-.13.38-.33.39-.04,0-.07,0-.11,0-1.38,2.35-1.36,4.83-.94,7.42-.03,0-.06,0-.09-.02-.34-.05-.66-.1-.98-.15-2.3-.31-4.23-.29-6.3.08-1.08.2-2.2.49-3.43.89v-.04c.03-2.64-.33-5.11-2.08-7.23-.04.02-.09.04-.15.05-.2.02-.37-.14-.39-.34-.02-.2.13-.38.33-.4.2-.01.37.14.38.34,0,.1-.02.19-.08.25,1.38,1.48,2.08,2.56,2.71,2.28.53-.26.68-1.7-.05-3.47-.3-.04-.55-.3-.57-.63-.03-.38.24-.7.61-.73.36-.03.68.25.71.63.01.17-.04.32-.12.45.97,1.96,1.65,3.36,2.3,3.21.63-.14.93-1.82.78-4.01-.21-.1-.37-.31-.39-.57-.03-.37.24-.7.61-.73.36-.03.68.26.71.63.02.25-.09.47-.27.6.17,2.2.72,3.82,1.37,3.87.67.04,1.14-1.47,1.82-3.59-.11-.12-.18-.27-.19-.44-.03-.39.25-.73.63-.76.38-.03.7.26.73.65.03.35-.2.66-.52.74-.48,1.88-.12,3.31.45,3.49.65.19,1.18-.95,2.28-2.57-.08-.06-.14-.16-.15-.27-.02-.2.13-.38.33-.4.2-.01.37.14.38.34Z"/><path class="cls-5" d="M49.91,22.6c.01.18.04.35.07.53.14.67.31,1.33.48,1.99.14.56.53,1.68.3,2.25-.11.28-.53.4-.69.58.29-.18.65-.44.92-.33.4.1.56.14,1.67.79.02-.07.04-.14.06-.22.32-1.98.11-3.72-.14-5.37-.94-.13-1.83-.2-2.68-.21Z"/><path class="cls-3" d="M35.16,68.54c-.39.39-.88.32-1.64.52-.32.08-.55.24-.7.39.52-.19,2.18-.31,3.29-.1,1.19.23,1.39.59,1.42,1.04.04.45-.05.82-.05.82,0,0,.39.26.5.59.04.11.05.2.05.28.08.05.14.08.18.1.38.14.66-.32.66-.32,0,0-.17-.89-.16-1.23,0-.33.16-.66.18-1.07.03-.41-.44-.63-.94-.9-.5-.27-.85-.82-1.34-.91-.49-.09-1.07.39-1.46.78Z"/><path class="cls-25" d="M28.8,17.83c0-.26-.01-.51-.01-.77,0,.24,0,.48,0,.71h0s0,.05,0,.06Z"/><path class="cls-26" d="M30.35,29.32c.3,3.11,1.27,11.86,1.27,11.86l-2.31-1.3-.2,1.25s2.85,1.65,2.9,4c.02.78.15,2.33.28,5.78-.03-.05-.06-.1-.1-.15-.07-.13-.15-.25-.23-.38-.16-.26-.31-.53-.46-.79-.16-.26-.3-.53-.45-.8-.14-.26-.29-.53-.43-.78-.07-.12-.13-.24-.19-.36-.08.18-.15.36-.23.54,0,0,0,.01,0,.01.1.27.21.55.31.84.11.28.22.58.33.86.11.29.23.58.35.86.06.14.12.28.17.42.06.14.12.28.18.41.12.27.23.52.35.77.11.25.23.47.34.69.05.09.09.18.13.27.08,2.23.52,8.06,1,14.03v.02c.02.3.05.59.07.88.02.29.04.57.07.86h0c.61,7.55,1.24,14.8,1.24,14.8h.1c.35-.37.72-.71,1.04-1.09.02-.02.04-.04.06-.06.02-.02.04-.04.06-.06h0s.02-.02.03-.03c.28-.33.41-.74.56-1.15.05-.15.11-.29.17-.44.02-.05.04-.1.07-.15.03-.07.07-.13.11-.2.1-.16.22-.28.34-.4.05-.06.11-.11.16-.16-.02-1.04-.04-2.26-.06-3.59,0-.22,0-.44-.01-.67,0-.05,0-.1,0-.14-.08-4.74-.16-10.63-.17-14.91.03-.06.09-.19.17-.38.06-.13.13-.29.19-.48.04-.09.08-.19.11-.29.04-.1.07-.21.11-.33.07-.23.16-.47.23-.73.08-.26.16-.53.24-.81.04-.14.08-.28.12-.43.03-.15.07-.29.11-.44.08-.3.15-.6.22-.9.07-.3.14-.6.21-.9.05-.26.11-.51.16-.75-.09-.19-.2-.37-.3-.56-.04.1-.08.21-.12.32-.1.27-.2.55-.31.83-.11.28-.22.57-.33.85-.11.29-.23.57-.34.85-.06.14-.12.28-.17.41-.06.13-.12.27-.17.4-.04.1-.09.2-.13.29,0-8.19-1.16-12.48.48-17.61.03-.08.04-.16.06-.24.03-.04.05-.07.09-.11.13-.17.26-.34.4-.51.14-.18.28-.35.43-.53.01-.01.02-.03.03-.04-.07-.24-.15-.48-.24-.72-.11.08-.21.16-.31.25-.1.08-1.23.75-1.33.84l.08-3.71.05-2.56.12-5.38.09-4.45.06-2.67v-.04s.05-2.36.05-2.36l.03-1.42c-.03-.13-.06-.25-.09-.38-.04-.16-.09-.32-.14-.48-.05-.17-.11-.33-.19-.48-.06-.15-.13-.29-.21-.43-.07-.13-.15-.26-.23-.38-.06-.09-.12-.17-.19-.25-.25-.3-.54-.56-.87-.77-.01-.01-.03-.02-.04-.02-.14-.09-.3-.17-.46-.23-.07-.03-.13-.05-.2-.07-.09-.03-.18-.06-.27-.08-.1-.03-.2-.05-.3-.07-.2-.04-.41-.07-.64-.07-.05,0-.1,0-.16,0-.12,0-.25,0-.38,0-.05,0-.1,0-.16.01-.03,0-.05,0-.08,0-.17.01-.32.03-.48.06-.03,0-.06,0-.09.01-.05,0-.09.01-.14.03-.1.02-.21.05-.3.08-.19.05-.36.12-.53.19-.06.03-.12.06-.18.09-.1.05-.19.11-.29.17-.06.04-.12.08-.18.13-.29.22-.53.48-.74.77-.06.09-.12.18-.18.28-.18.3-.32.64-.43,1.01-.03.12-.07.24-.1.36-.15.61-.22,1.28-.22,2,.11.71.23,1.56.36,2.47.04.29.09.59.13.9h0c.23,1.62.47,3.35.67,4.81.01.1.03.2.04.3,0-.01-.02-.03-.03-.04,0-.01-.01-.02-.02-.03-.07-.13-.15-.25-.23-.38-.16-.26-.31-.52-.46-.79-.16-.26-.3-.54-.45-.8-.13-.24-.26-.48-.39-.71-.1.18-.2.37-.3.55.05.13.1.27.15.41.11.28.22.57.33.86.12.29.23.58.35.86.06.14.12.28.17.42.06.14.12.27.18.41.12.27.23.53.35.77.11.24.23.47.34.69,0,.01.02.03.02.04.05.09.09.18.14.27,0,0,0,.01.01.02h0c.05.09.09.17.14.25,0,.01.01.02.02.04Z"/><path class="cls-21" d="M37.25,68.17c-.05-.68-.11-1.37-.16-2.06.06.59.11,1.19.16,1.79,0,.09,0,.18,0,.27Z"/><path class="cls-21" d="M35.9,33.19c.03.81.08,1.63.12,2.44.54,6.7.94,13.44.71,20.05.05-6.48-.07-12.98-.71-19.63-.04-.83-.09-1.73-.12-2.56-.13-1.75-.14-3.33-.14-5.02,0-.84-.02-1.67-.02-2.51.01.78.02,1.56.04,2.34.02,1.63.07,3.26.14,4.89Z"/><path class="cls-21" d="M36.23,62.47c.17,3.31.41,6.61.74,9.9.03.85.08,1.83.11,2.69.07,1.76.13,3.52.2,5.28.05-.06.11-.11.16-.16-.02-1.04-.04-2.26-.06-3.59,0-.19,0-.38,0-.58v-.09s0-.1,0-.14c-.01-.66-.03-1.32-.05-1.98-.04-.74-.08-1.47-.12-2.21-.05-.76-.09-1.51-.16-2.36-.24-2.06-.43-4.12-.58-6.19-.05-.69-.09-1.38-.14-2.06-.05-.73-.09-1.56-.13-2.32.1-7.29.14-14.48-.64-22.03-.04-.85-.1-1.78-.13-2.63-.07-1.7-.14-3.39-.18-5.08,0-.88,0-1.77,0-2.65,0-.66,0-1.33,0-1.99,0-.66-.01-1.33-.02-2,0-.53-.19-5.44-.33-9.16-.07-.03-.13-.05-.2-.07.13,3.61.31,8.28.31,8.71,0,.79.01,1.63.02,2.42.01,1.57.02,3.15.02,4.72,0,.91.01,1.85.03,2.85.08.76.15,1.51.21,2.26.06.75.12,1.5.18,2.25.69,6.88.79,13.54.63,20.57-.06,1.23.04,2.45.07,3.65.03.66.06,1.33.1,1.99Z"/><path class="cls-21" d="M35.94,64.46c.12,1.97.24,3.96.36,5.96.03.77.07,1.68.09,2.46.02.75.03,1.46.04,2.17.03,2.16.09,4.31.17,6.47.05-.15.11-.29.17-.44.02-.05.05-.09.07-.14h0c-.07-2.08-.12-4.15-.16-6.23-.02-.78-.04-1.56-.06-2.39-.19-2.13-.34-4.28-.48-6.42-.04-.71-.09-1.43-.13-2.14-.03-.65-.07-1.29-.1-1.94s-.07-1.3-.1-1.95c-.2-4.26-.02-8.13-.02-12.34,0-4.04-.55-7.87-.75-11.67-.05-.85-.1-1.7-.15-2.55-.05-.85-.11-1.7-.16-2.56.03-.78.02-1.78.03-2.67,0-.77,0-1.55,0-2.33,0-.78,0-1.56-.02-2.34,0-.87-.21-6.41-.35-10.47-.1-.03-.2-.05-.3-.07.14,3.63.31,8.23.33,8.7,0,.83.01,1.72.01,2.55,0,1.66-.01,3.32-.05,4.98,0,.88.03,1.75.06,2.66.04.71.08,1.42.12,2.14.04.71.08,1.42.13,2.14.75,7.1.93,14.12.8,21.27.04.89.09,1.74.14,2.6.06.85.12,1.7.19,2.55.04.66.08,1.32.12,1.98Z"/><path class="cls-21" d="M38.77,55.81c-.02.09-.04.18-.06.27-.01.04-.02.09-.03.13-.02-.18-.04-.36-.06-.54-.04-.36-.07-.73-.11-1.09.04-.1.07-.2.11-.29.05.51.1,1.02.15,1.53Z"/><path class="cls-21" d="M37.17,32.73l.17-2.86c-.01-.6-.02-1.23-.03-1.81-.01-.75-.08-2.69-.16-5.02-.08-2.47-.19-5.39-.27-7.82-.06-.15-.13-.29-.21-.43.13,3.41.28,7.32.29,7.69.02,1.36.04,2.72.07,4.09,0,.3.02.61.03.91.01.48.03.96.04,1.44.03,1.27.05,2.54.08,3.81Z"/><path class="cls-21" d="M35.62,77.27c.06,1.82.2,3.69.28,5.55h0s.08-.08.11-.12h0c-.08-1.64-.2-3.26-.27-4.97,0-.88,0-1.76-.01-2.64,0-.77-.02-1.53-.04-2.3-.02-.78-.04-1.66-.07-2.44-.02-.69-.04-1.38-.05-2.07-.02-.69-.04-1.39-.07-2.08-.11-2.52-.27-5-.42-7.47-.05-.83-.09-1.67-.14-2.5-.17-6.2-.08-12.17-.62-18.34-.03-.67-.07-1.35-.11-2.02-.08-1.35-.18-2.7-.29-4.05-.02-.86-.05-1.83-.08-2.73-.01-2.06-.03-4.09-.05-6.11,0-.68-.01-1.4-.02-2.07,0-.41-.16-4.58-.29-8.07-.05,0-.1,0-.16,0,.13,3.67.31,8.47.31,8.97,0,.7.01,1.4.02,2.09.01,1.38.02,2.76.03,4.13,0,.67.03,1.34.05,2.01.02.67.04,1.35.05,2,.11,1.96.22,3.93.33,5.9.04.66.08,1.32.12,2,.58,5.38.35,10.83.58,16.24.05.82.1,1.69.15,2.52.16,2.5.34,4.99.45,7.49.03.71.06,1.42.08,2.13.03.71.05,1.42.07,2.13.02.71.04,1.54.06,2.26.01.71.02,1.42.02,2.13,0,.82,0,1.64,0,2.46Z"/><path class="cls-21" d="M35.69,23.55c.01.74.02,1.48.03,2.22,0-.69,0-1.37-.02-2.06,0-.75-.02-1.56-.03-2.3,0-.28-.17-4.6-.3-8.03-.01-.01-.03-.02-.04-.02.14,3.39.31,7.63.31,7.88,0,.73.03,1.56.04,2.31Z"/><path class="cls-21" d="M35.73,25.96s0-.02,0-.03c0-.05,0-.11,0-.17,0,.07,0,.13,0,.19Z"/><path class="cls-21" d="M37.45,28.08l.07-1.22c0-1.02-.14-5.04-.25-8.9-.02-.61-.04-1.21-.06-1.8-.04-.16-.09-.32-.14-.48.04,1.46.09,3.07.14,4.63v.04c.11,3.45.22,6.69.24,7.72Z"/><path class="cls-21" d="M37.7,40.08s-.02.08-.03.12c-.02.05-.03.1-.04.15-.01-.57-.03-1.14-.04-1.71.03-.02.06-.04.1-.06,0,.5.01,1,.02,1.5Z"/><path class="cls-21" d="M38.43,38.04c.03.07.05.13.07.2-.01.26-.02.52-.03.78-.05.07-.1.13-.16.2.02-.37.03-.74.06-1.12.02-.02.04-.03.06-.05Z"/><path class="cls-21" d="M32.45,23.22c-.01-.61-.01-1.23-.02-1.84,0-.79,0-1.61,0-2.4,0-.21-.12-3.15-.23-6.08-.03,0-.06,0-.09.01.13,3.56.29,7.81.29,8.27,0,.68.02,1.36.04,2.03Z"/><path class="cls-21" d="M32.76,30.97c-.19-2.6-.27-5.18-.31-7.75.06,2.46.18,4.91.36,7.36.04.79.08,1.59.12,2.39.05.8.1,1.6.16,2.41,0,.04,0,.09-.01.13-.07-.71-.13-1.4-.17-2.09-.06-.82-.11-1.63-.15-2.45Z"/><path class="cls-21" d="M31.44,32.24c.15.41.3.8.32,1.24.03.85.06,1.71.09,2.55.03.81.07,1.66.11,2.48.05.62.11,1.23.16,1.85.05.62.1,1.25.15,1.85.04.84.08,1.68.12,2.56.43,7.62,1.33,14.99.99,22.58v.02c.02.3.05.59.07.88.02.29.04.57.07.86.49-8.4-.65-16.93-1.07-25.48-.04-.72-.09-1.46-.13-2.19-.06-.74-.13-1.48-.21-2.21-.05-.88-.08-1.7-.11-2.52-.02-.54-.04-1.15-.06-1.69-.02-.68-.04-1.35-.07-2.02-.02-.69-.05-1.4-.07-2.08-.25-3.5-.38-6.98-.43-10.47-.01-.71-.02-1.45-.03-2.17,0-.21-.1-2.52-.2-5.07-.06.03-.12.06-.18.09.11,2.96.22,5.79.21,6.22,0,.87,0,1.73,0,2.6,0,3.45.07,6.87.26,10.13Z"/><path class="cls-21" d="M28.9,26.2c.01-.23.02-.47.03-.7,0,.26,0,.52,0,.78-.01-.03-.02-.05-.03-.08Z"/><path class="cls-21" d="M28.93,25.5c0-.31,0-.61-.01-.92,0,0,0,0,0,.01,0,.27,0,.53.01.79,0,.04,0,.08,0,.12Z"/><path class="cls-21" d="M34.29,54.6c-.11-1.47-.18-2.97-.22-4.48.06,1.2.12,2.4.17,3.6.02.29.03.59.05.88Z"/><path class="cls-21" d="M33.01,27c.03.77.06,1.55.1,2.32.03.77.06,1.54.1,2.31.04.77.1,1.61.15,2.38.15,1.43.23,2.87.28,4.32.03.72.05,1.45.06,2.19.05,3.24.21,6.43.37,9.6-.09-3.23-.09-6.5-.24-9.68-.02-.72-.05-1.45-.08-2.17-.06-1.44-.16-2.89-.31-4.33-.06-.93-.11-1.86-.15-2.76s-.07-1.81-.09-2.71c-.02-.75-.04-1.51-.06-2.27-.04-1.22-.07-2.46-.09-3.7,0-.62-.01-1.25-.02-1.88,0-.42-.15-4.35-.27-7.79-.03,0-.05,0-.08,0,.11,3.3.25,6.92.25,7.28.01.74.01,1.53.02,2.3,0,.77,0,1.53,0,2.28.01.77.03,1.54.06,2.31Z"/><path class="cls-21" d="M34.54,57.84c.2,2.61.39,5.23.48,7.89.02.68.03,1.38.04,2.08,0,.69,0,1.38,0,2.07.01.79.03,1.5.04,2.21,0,.7.01,1.39.01,2.09.01.73.03,1.52.05,2.25.03.67.06,1.34.09,2.02,0,1.23-.07,2.46-.02,3.69.03.44.05.87.08,1.31-.02.02-.05.05-.07.07-.04-.93-.09-1.85-.12-2.78-.1-1.05.09-1.93,0-2.98-.04-.68-.08-1.36-.11-2.03-.01-.75-.03-1.5-.05-2.25-.02-.75-.04-1.49-.06-2.24,0-.72,0-1.44,0-2.16,0-.72,0-1.44-.02-2.16-.07-3.7-.29-7.34-.52-10.99-.03-.44-.05-.88-.08-1.32.02.21.03.42.05.63.06.87.13,1.73.2,2.6Z"/><path class="cls-21" d="M34.64,67.12c-.02.74-.04,1.48-.07,2.22,0,.75.01,1.43.01,2.11,0,.66,0,1.32,0,1.98.02.7.05,1.36.08,2.02.03.65.06,1.31.09,1.97.14,1.92-.07,3.69.06,5.61.02.29.04.57.06.86,0,0-.01.02-.02.02h0c-.06-1.06-.12-2.11-.18-3.16-.12-1.58.1-3.16-.03-4.74-.03-.58-.06-1.21-.08-1.75-.01-.67-.03-1.34-.04-2.02-.01-.68-.02-1.42-.04-2.08.03-.77.05-1.53.06-2.3,0-1.68-.04-3.36-.11-5.05.04,1.52.04,3.03-.01,4.54-.02.75-.06,1.49-.1,2.24,0,.67-.02,1.35-.02,2,0,.64-.01,1.28-.03,1.92.03.62.05,1.44.08,2.15.1,2.54.23,5.09.36,7.65-.07-.83-.21-2.48-.39-4.61.02-.26.02-.52.01-.76-.04-.75-.07-1.51-.11-2.26-.03-.75-.06-1.61-.09-2.35,0-.52,0-1.04,0-1.57,0-.52,0-1.04,0-1.56.04-.87.07-1.73.09-2.6.21-7.91-1.06-15.58-1.23-23.49-.02-.54-.04-1.1-.07-1.65-.08-1.63-.17-3.26-.28-4.86,0-.64,0-1.36.02-2.03.02-.65.05-1.3.09-1.96,0-.01,0-.02,0-.03.03.75.05,1.5.08,2.24.07,1.23.13,2.46.2,3.68-.06-1.34-.05-2.67.07-4.01.01.14.03.27.04.41-.09,2.19-.01,4.41.11,6.66,0,.15.02.29.02.44.05.52.09,1.05.14,1.56.14,3.06.32,6.03.6,9.08.06.75.12,1.51.17,2.26.28,3.76.51,7.49.48,11.21Z"/><path class="cls-21" d="M32.73,33.59c0-.14-.01-.29-.01-.43.02.13.03.28.01.43Z"/><path class="cls-21" d="M32.71,33.16v-.05c-.03-.82-.06-1.63-.08-2.45-.02-.82-.05-1.65-.09-2.5-.15-2.43-.25-4.88-.3-7.32,0-.47-.16-4.41-.28-7.89-.1.02-.21.05-.3.08.12,3.19.25,6.55.26,6.88,0,.64.02,1.27.04,1.9.08,3.17.23,6.36.33,9.56-.01.72.33,1.18.42,1.8Z"/><path class="cls-21" d="M36.74,61.11c.08,1.66.21,3.34.35,5.01-.18-1.9-.36-3.79-.45-5.73-.03-.61-.04-1.24-.05-1.9.06-.93.1-1.86.14-2.8-.01,1.25-.03,2.49-.05,3.74.02.49.03,1.12.06,1.69Z"/><path class="cls-21" d="M29.19,20.48c.04.29.09.59.13.9,0-.17-.01-.34-.02-.5-.02-.72-.05-1.46-.06-2.26,0-.26-.03-1.41-.09-2.95-.03.12-.07.24-.1.36.04,1.13.08,1.94.08,2.12.02.82.03,1.6.05,2.34Z"/><path class="cls-21" d="M30.54,49.1s-.02-.04-.02-.06c-.04-.11-.08-.22-.12-.33-.02-.26-.05-.52-.08-.78.03-.08.07-.16.1-.24.04.47.09.94.12,1.42Z"/><path class="cls-21" d="M30.67,41.41c.03.36.07.72.1,1.08-.06-.06-.12-.13-.18-.19-.02-.13-.04-.26-.05-.39-.06-.48-.11-.95-.16-1.43l.22.12c.02.27.05.54.07.81Z"/><path class="cls-21" d="M30.04,28.74c.05.09.09.18.14.27,0,0,0,.01.01.02v-.2c-.03-.82-.05-1.69-.08-2.52-.06-1.44-.1-2.88-.13-4.32-.02-.72-.03-1.49-.04-2.15-.02-.73-.04-1.45-.05-2.18,0-.17-.06-1.53-.13-3.3-.06.09-.12.18-.18.28.08,2.2.15,4.02.16,4.28.02.71.03,1.39.05,2.05.04,1.32.09,2.65.14,3.97.02.41.03.82.05,1.23.01.1.03.2.04.3,0-.02-.02-.03-.03-.05h0s.03.78.03.78c0,.51,0,1.02.01,1.53Z"/><path class="cls-21" d="M31.69,51.89c-.04-.1-.09-.2-.13-.3-.03-.07-.06-.14-.09-.21-.04-.71-.09-1.42-.14-2.12.06.1.11.2.17.3.07.77.13,1.55.19,2.33Z"/><path class="cls-21" d="M28.79,17.77h0s0,.05,0,.06c0-.26-.01-.51-.01-.77,0,.24,0,.48,0,.71Z"/><path class="cls-21" d="M29.32,25.29c.05.08.09.16.14.24.02.68.04,1.37.05,2.09-.06-.13-.11-.25-.17-.39-.01-.03-.03-.06-.04-.09.01-.38.03-.77.04-1.15,0-.24-.01-.47-.02-.71Z"/><path class="cls-21" d="M29.73,41.04c.02.19.04.38.07.56-.1-.08-.2-.15-.28-.21-.02-.14-.04-.28-.06-.41-.03-.35-.06-.71-.09-1.07l.28.15c.03.32.05.65.08.97Z"/><path class="cls-21" d="M28.39,23.84s.04-.07.06-.1c.02.03.03.06.05.09,0,.47,0,.96.01,1.41-.04-.11-.08-.22-.13-.33,0-.36,0-.71,0-1.07Z"/><path class="cls-21" d="M28.79,16.98s0-.17-.01-.37c0,.21.01.34.01.37Z"/><path class="cls-21" d="M30.95,30.18c0-.35.06-.68.12-1,.06,1.07.12,2.14.19,3.21,0,.26.02.53.02.79-.09-1.1-.34-1.96-.33-3Z"/><path class="cls-21" d="M37.45,38.72c.01.69.02,1.38.04,2.07-.06.2-.11.39-.15.59-.03-.85-.06-1.69-.08-2.54.06-.04.13-.08.19-.12Z"/><path class="cls-21" d="M37.85,56.27c.03.8.06,1.61.09,2.41,0,.07,0,.15,0,.22-.05.17-.11.34-.16.49-.03.08-.05.16-.08.24,0-.99,0-1.99,0-2.98.05-.13.11-.25.16-.38Z"/><path class="cls-21" d="M31.06,29.19c.09-.48.17-.95.12-1.47-.14-2.23-.21-4.47-.25-6.7-.01-.76-.02-1.56-.03-2.31-.02-.31-.11-2.64-.22-5.25-.06.04-.12.08-.18.13.11,2.71.21,5.16.22,5.54,0,.65.03,1.52.04,2.27.06,2.61.17,5.2.3,7.79Z"/><path class="cls-21" d="M38.46,57.09c-.03.11-.06.22-.08.33-.02.06-.04.13-.05.19-.03-.75-.06-1.51-.11-2.26.04-.11.09-.22.13-.33.04.69.08,1.38.11,2.07Z"/><path class="cls-21" d="M36.93,36.85l.07-1.14c0-.15,0-.3-.01-.45-.02-.78-.04-1.56-.05-2.34v-.06c-.02-.76-.02-1.52-.02-2.27-.02-.91-.04-1.74-.06-2.56-.04-1.65-.07-3.29-.09-4.92,0-.5-.18-5.06-.32-8.71-.06-.09-.12-.17-.19-.25.14,3.68.33,8.35.34,8.86.04,1.63.08,3.25.12,4.87.02.81.04,1.68.06,2.53,0,.82.02,1.63.04,2.44.02.81.04,1.62.06,2.43v.14c.02.48.04.96.06,1.44Z"/><path class="cls-21" d="M37.16,42.15c-.05-1.06-.1-2.12-.14-3.17.03-.02.05-.03.08-.05.04.99.07,1.98.12,2.97-.02.09-.04.17-.05.26Z"/><path class="cls-21" d="M31.5,35.47c.05.84.09,1.67.14,2.51.05.85.1,1.72.17,2.63.05.59.1,1.19.15,1.78.05.6.09,1.2.13,1.8.33,6.65,1.02,13.43,1.05,20.11-.04-.47-.07-.94-.11-1.4-.02-5.34-.52-10.69-.91-15.96-.05-.87-.08-1.44-.09-1.81,0-.21-.03-.42-.08-.61-.03-.5-.06-.99-.09-1.49-.04-.57-.08-1.14-.13-1.71-.06-.65-.13-1.31-.19-1.95-.15-1.65-.16-3.06-.2-4.69-.02-.5-.03-1-.05-1.5,0,.02,0,.04,0,.06.09.74.16,1.48.22,2.23Z"/><path class="cls-3" d="M32.66,72.77s.12.22.11.57c0,.35.07.35.23.76.16.4.38.85.39,1.15.01.3.34.41.49.48.15.06.73.26,1.03.28.31.02,1.77-.07,2.18-.25.41-.18.55-.34.59-.48.04-.14.05-.24.02-.45-.03-.21-.16-.37-.16-.37,0,0,.47-.19.51-.39.04-.2.15-.34.08-.56-.07-.22-.3-.54-.3-.54,0,0,.15-.07.21-.29.06-.22.16-.35.09-.69-.07-.34-.44-.64-.44-.64,0,0,.12-.36.13-.81,0-.46-.15-.83-1.31-1.19-1.16-.35-2.99-.38-3.38-.22-.39.17-.61.7-.63.99-.02.29.22.49.18.82-.04.33-.11.36-.18.88-.07.52.13.96.13.96Z"/><path class="cls-9" d="M35.22,74.62c.07-.04.15-.06.23-.06-.08.02-.15.04-.23.06ZM37.13,74.54c-.08-.01-.17-.02-.26-.01.09,0,.18.02.26.01ZM35.44,74.56c.17-.02.34.01.51.03.24.02.6-.05.91-.06-.23-.02-.47-.08-.69-.08-.25,0-.49.04-.73.11ZM36.08,73.12c-.38-.03-.76-.08-1.15-.16.28.14.71.17,1.15.16ZM37.71,70c.02.33-.03.52-.03.77,0,.42-.06.65-.49.68-.29.02-.58.02-.87,0,.16.03.32.05.45.08.38.07,1.42.4,1.11,1.03-.08.17-.35.38-.54.42-.32.06-.8.13-1.27.15.26.02.53.03.8.03.38,0,.83-.02.99.41.15.38-.08.81-.45.94-.09.03-.19.05-.29.05.06,0,.11.02.15.04.36.15.42.55.29.88.06-.07.1-.13.12-.18.04-.14.05-.24.02-.45-.03-.21-.16-.37-.16-.37,0,0,.47-.19.51-.39.04-.2.15-.34.08-.56-.07-.22-.3-.54-.3-.54,0,0,.15-.07.21-.29.06-.22.16-.35.09-.69-.07-.34-.44-.64-.44-.64,0,0,.12-.36.13-.81,0-.19-.02-.36-.13-.53ZM36.32,71.44c-.6-.1-1.31-.2-1.53-.21.5.1,1.02.18,1.53.21Z"/></g></svg>