<?xml version="1.0" encoding="UTF-8"?><svg xmlns="http://www.w3.org/2000/svg" xmlns:xlink="http://www.w3.org/1999/xlink" viewBox="0 0 102.24 150.24"><defs><style>.cls-1{fill:none;stroke:#1e1e1c;stroke-miterlimit:10;stroke-width:.25px;}.cls-2{fill:url(#linear-gradient-5);}.cls-3{fill:url(#linear-gradient-6);}.cls-4{fill:url(#linear-gradient-4);}.cls-5{fill:url(#linear-gradient-3);}.cls-6{fill:url(#linear-gradient-2);}.cls-7{fill:url(#linear-gradient);}.cls-8{fill:#356d55;}.cls-9{fill:#ae4c3b;}.cls-10{fill:#c0683b;}</style><linearGradient id="linear-gradient" x1="2113.69" y1="-12.55" x2="2114.22" y2="-11.71" gradientTransform="translate(1950.13 994.67) rotate(-155)" gradientUnits="userSpaceOnUse"><stop offset="0" stop-color="#cd9a5a"/><stop offset="1" stop-color="#db9d61"/></linearGradient><linearGradient id="linear-gradient-2" x1="2076.25" y1="-21.57" x2="2126.12" y2="56.38" xlink:href="#linear-gradient"/><linearGradient id="linear-gradient-3" x1="2115.37" y1="31.75" x2="2115.9" y2="32.59" gradientTransform="translate(2161.24 0) rotate(-180) scale(1 -1)" gradientUnits="userSpaceOnUse"><stop offset="0" stop-color="#658e4c"/><stop offset="1" stop-color="#a0b37a"/></linearGradient><linearGradient id="linear-gradient-4" x1="2077.93" y1="22.73" x2="2127.8" y2="100.68" xlink:href="#linear-gradient-3"/><linearGradient id="linear-gradient-5" x1="2080.98" y1="-5.2" x2="2081.52" y2="-4.36" gradientTransform="translate(1975.45 -700.18) rotate(157.01)" gradientUnits="userSpaceOnUse"><stop offset="0" stop-color="#935537"/><stop offset="1" stop-color="#cc7e62"/></linearGradient><linearGradient id="linear-gradient-6" x1="2043.54" y1="-14.23" x2="2093.41" y2="63.72" xlink:href="#linear-gradient-5"/></defs><g id="NOOOOO"><g id="margem"><polyline class="cls-1" points="21.32 141.14 10.38 141.14 10.38 75.95 10.38 9.1 21.32 9.1"/><line class="cls-1" x1="31.32" y1="9.1" x2="45.53" y2="9.1"/><polyline class="cls-1" points="80.92 9.1 91.86 9.1 91.86 141.14 80.92 141.14"/><line class="cls-1" x1="31.32" y1="9.1" x2="45.53" y2="9.1"/><line class="cls-1" x1="70.92" y1="141.14" x2="56.71" y2="141.14"/><line class="cls-1" x1="56.71" y1="9.1" x2="70.92" y2="9.1"/><line class="cls-1" x1="45.53" y1="141.14" x2="31.32" y2="141.14"/></g></g><g id="BASTOS"><path class="cls-7" d="M29.29,111.62c-.14.33-.29.65-.43.98.13-.31.26-.61.39-.91h0s.03-.06.04-.07Z"/><path class="cls-6" d="M37.42,97.72c2.04-3.82,7.97-14.52,7.97-14.52l-3.66.43.42-1.71s4.53-.59,5.86-3.57c.44-.99,1.43-2.91,3.45-7.26-.07.05-.13.09-.2.14-.16.12-.33.24-.5.37-.34.25-.68.51-1.01.77-.34.26-.67.52-1.01.78-.33.26-.65.52-.97.77-.15.12-.3.24-.44.36,0-.27,0-.54,0-.81,0,0,.01-.01.01-.02.27-.29.56-.6.85-.91.29-.31.58-.62.89-.93.3-.31.6-.61.91-.91.15-.15.3-.3.45-.44.15-.15.3-.29.45-.43.29-.28.58-.55.86-.8.28-.26.55-.49.8-.7.11-.09.21-.18.31-.27,1.3-2.82,4.97-10.05,8.78-17.45v-.02c.2-.37.38-.73.57-1.09.18-.36.36-.71.55-1.07h0c4.82-9.35,9.5-18.31,9.5-18.31l.12.06c.25.65.54,1.29.76,1.95.02.04.03.07.04.11.02.04.03.07.04.11h0s.02.04.02.06c.17.57.13,1.17.1,1.77-.01.22-.02.44-.01.65,0,.07,0,.15.01.23,0,.1.02.21.04.31.05.25.13.48.22.7.04.1.08.2.12.29-.58,1.33-1.26,2.88-2,4.56-.12.28-.25.56-.38.85-.02.06-.05.12-.08.18-2.63,6.03-5.89,13.53-8.19,19.02,0,.1.01.29.02.57.01.2,0,.44,0,.72,0,.14,0,.28,0,.43,0,.15-.02.31-.03.48-.03.33-.05.69-.09,1.06-.04.38-.08.77-.13,1.17-.03.2-.05.41-.08.62-.03.2-.06.41-.09.63-.06.42-.13.85-.2,1.27-.06.42-.14.85-.21,1.27-.07.36-.13.71-.2,1.05-.22.19-.45.38-.68.56,0-.15.01-.31.02-.47.01-.4.03-.81.04-1.23.01-.42.02-.85.03-1.27,0-.43.01-.85.01-1.27,0-.21,0-.41,0-.62,0-.2,0-.41-.01-.6,0-.15,0-.3-.01-.45-4.38,10.5-8.16,15.38-8.8,22.83-.01.12-.03.23-.05.34.02.06.03.12.05.19.07.29.15.58.23.87.08.3.17.61.26.91,0,.02.01.04.02.07-.22.27-.45.54-.69.79-.09-.16-.18-.32-.27-.48-.09-.16-1.17-1.62-1.25-1.78l-1.88,4.8-1.3,3.3-2.72,6.96-2.25,5.75-1.35,3.46-.02.05-1.19,3.05-.72,1.84c-.1.15-.21.29-.31.43-.14.19-.29.37-.44.54-.16.19-.32.36-.49.52-.16.16-.32.3-.5.44-.16.13-.33.26-.5.36-.12.08-.25.15-.37.22-.48.26-.99.43-1.53.52-.02,0-.05,0-.07,0-.23.04-.47.06-.72.05-.1,0-.2,0-.3-.01-.13,0-.26-.02-.4-.04-.14-.02-.28-.04-.42-.08-.28-.06-.57-.14-.86-.25-.07-.02-.14-.05-.21-.08-.16-.06-.33-.13-.49-.21-.07-.03-.13-.06-.2-.1-.03-.01-.06-.03-.09-.05-.21-.1-.4-.21-.58-.33-.04-.02-.08-.04-.11-.07-.06-.03-.11-.07-.16-.11-.12-.08-.24-.17-.35-.27-.21-.16-.4-.34-.57-.53-.06-.07-.12-.14-.18-.21-.1-.12-.19-.24-.28-.37-.06-.08-.11-.17-.17-.26-.25-.43-.43-.9-.53-1.38-.04-.15-.06-.3-.08-.46-.07-.48-.07-.99-.01-1.52.02-.17.04-.34.07-.52.13-.86.4-1.76.78-2.68.52-.86,1.12-1.88,1.78-2.97.21-.36.43-.71.64-1.08h0c1.16-1.96,2.4-4.04,3.43-5.8.07-.12.14-.24.21-.37-.02.01-.04.03-.06.04-.02,0-.03.02-.04.03-.16.12-.33.24-.5.37-.34.25-.68.5-1.01.76-.34.26-.68.53-1.01.78-.3.24-.59.47-.88.7-.03-.29-.06-.57-.08-.86.13-.14.27-.29.41-.44.29-.31.59-.62.88-.93.31-.31.6-.62.91-.92.15-.15.3-.3.45-.44.15-.15.3-.29.45-.43.29-.28.58-.55.86-.8.27-.25.55-.49.8-.7.02-.01.04-.03.05-.04.11-.09.21-.18.32-.27,0,0,.02,0,.03-.02h0c.11-.09.21-.17.31-.25.02-.01.03-.03.05-.04Z"/><path class="cls-10" d="M67.04,51.62c-.43.85-.87,1.7-1.31,2.55.39-.73.78-1.47,1.16-2.2.05-.12.1-.23.15-.35Z"/><path class="cls-10" d="M46.61,95.72c.48-1.02.97-2.04,1.46-3.06,4.27-8.3,8.39-16.73,11.62-25.32-3.39,8.33-7.03,16.59-11.41,24.77-.49,1.04-1.04,2.17-1.53,3.22-1.1,2.17-1.96,4.19-2.87,6.36-.46,1.07-.91,2.13-1.37,3.2.43-.99.87-1.99,1.3-2.98.89-2.09,1.83-4.15,2.79-6.19Z"/><path class="cls-10" d="M62.68,58.38c1.99-4.15,4.05-8.25,6.23-12.29.49-1.08,1.08-2.3,1.58-3.39,1.03-2.22,2.06-4.44,3.08-6.66.04.1.08.2.12.29-.58,1.33-1.26,2.88-2,4.56-.1.24-.21.49-.32.74l-.06.12c-.02.06-.05.12-.08.18-.37.84-.75,1.67-1.12,2.51-.44.92-.89,1.84-1.34,2.77-.47.94-.93,1.89-1.46,2.93-1.41,2.51-2.76,5.05-4.05,7.62-.43.85-.85,1.71-1.28,2.57-.46.91-.95,1.96-1.41,2.9-3.77,9.39-7.56,18.64-12.6,27.89-.51,1.06-1.08,2.24-1.58,3.3-1,2.14-1.99,4.28-2.94,6.42-.47,1.13-.94,2.27-1.41,3.39-.36.85-.71,1.7-1.08,2.54-.36.85-.72,1.7-1.09,2.55-.29.67-3.16,6.88-5.32,11.57-.1,0-.2,0-.3-.01,2.1-4.55,4.82-10.45,5.05-11,.43-1,.89-2.08,1.31-3.09.86-2.01,1.71-4.03,2.55-6.04.49-1.17,1-2.37,1.56-3.64.5-.93.99-1.85,1.47-2.78.48-.93.96-1.86,1.43-2.79,4.56-8.45,8.26-16.94,11.81-26.03.57-1.61,1.37-3.12,2.04-4.64.39-.83.79-1.67,1.19-2.5Z"/><path class="cls-10" d="M63.37,55.66c1.21-2.47,2.43-4.94,3.64-7.45.45-.97.99-2.12,1.43-3.1.42-.95.81-1.85,1.21-2.76,1.2-2.75,2.43-5.48,3.68-8.2-.01.22-.02.44-.01.65,0,.07.01.14.01.22h0c-1.19,2.63-2.37,5.26-3.53,7.9-.44.99-.88,1.98-1.35,3.03-1.38,2.64-2.72,5.3-4.04,7.97-.44.89-.88,1.79-1.31,2.68-.39.81-.78,1.62-1.17,2.43s-.78,1.63-1.17,2.45c-2.53,5.35-4.37,10.41-6.63,15.8-2.15,5.18-4.92,9.8-7.2,14.55-.52,1.06-1.03,2.12-1.56,3.18-.52,1.06-1.05,2.13-1.57,3.19-.38,1.02-.92,2.29-1.39,3.43-.4,1-.82,1.99-1.23,2.99-.42.99-.84,1.99-1.27,2.98-.48,1.12-3.69,8.1-6.05,13.23-.14-.02-.28-.04-.42-.08,2.11-4.58,4.8-10.38,5.07-10.98.46-1.06.94-2.2,1.38-3.26.89-2.13,1.76-4.27,2.6-6.41.48-1.13.97-2.23,1.49-3.37.43-.89.86-1.78,1.29-2.68.44-.89.87-1.78,1.31-2.67,4.77-8.7,8.74-17.59,12.39-26.83.52-1.12,1.04-2.19,1.58-3.26.53-1.06,1.06-2.12,1.6-3.17.41-.83.81-1.65,1.22-2.48Z"/><path class="cls-10" d="M62.37,68.27c.02-.13.04-.25.06-.38.01-.06.02-.12.03-.19-.12.22-.24.45-.37.67-.24.45-.48.89-.72,1.34,0,.15,0,.29-.01.44.34-.62.67-1.25,1.01-1.88Z"/><path class="cls-10" d="M47.99,97l-1.31,3.75c-.34.77-.68,1.57-1.01,2.3-.42.96-1.54,3.4-2.89,6.35-1.43,3.12-3.12,6.8-4.53,9.88-.16.16-.32.3-.5.44,1.99-4.3,4.28-9.23,4.48-9.71.75-1.74,1.51-3.47,2.28-5.21.17-.38.35-.77.52-1.16.27-.61.55-1.22.82-1.82.72-1.61,1.43-3.23,2.14-4.84Z"/><path class="cls-10" d="M69.81,39.08c1.05-2.3,2.23-4.62,3.32-6.96h0c.03.06.05.14.07.21h0c-.98,2.06-2,4.07-3,6.22-.48,1.13-.94,2.25-1.43,3.38-.42.98-.85,1.95-1.29,2.92-.44.99-.94,2.1-1.39,3.09-.39.87-.78,1.75-1.18,2.63-.4.88-.8,1.76-1.2,2.64-1.48,3.17-3.01,6.26-4.53,9.35-.51,1.04-1.01,2.09-1.52,3.13-3.53,7.85-6.6,15.55-10.6,23.18-.4.85-.81,1.69-1.23,2.54-.82,1.68-1.67,3.36-2.54,5.03-.48,1.09-1.05,2.32-1.56,3.46-1.12,2.64-2.23,5.23-3.34,7.8-.38.86-.77,1.79-1.14,2.64-.22.53-2.65,5.78-4.69,10.19-.07-.02-.14-.05-.21-.08,2.13-4.64,4.92-10.7,5.19-11.33.38-.89.76-1.78,1.14-2.67.76-1.76,1.51-3.53,2.25-5.28.37-.86.75-1.71,1.13-2.55.38-.85.78-1.71,1.14-2.53,1.19-2.46,2.39-4.92,3.58-7.39.4-.82.8-1.65,1.22-2.5,3.61-6.59,6.24-13.69,9.42-20.5.51-1.03,1.03-2.11,1.55-3.15,1.54-3.11,3.1-6.22,4.57-9.36.42-.89.83-1.79,1.24-2.69.41-.9.82-1.8,1.22-2.7.41-.89.87-1.95,1.28-2.86.39-.91.78-1.81,1.16-2.73.44-1.05.88-2.1,1.32-3.15Z"/><path class="cls-10" d="M41.18,107.97c.41-.94.82-1.89,1.23-2.83-.38.88-.75,1.75-1.12,2.63-.41.96-.86,1.99-1.26,2.93-.15.36-2.68,5.81-4.68,10.12-.02,0-.05,0-.07,0,1.98-4.27,4.47-9.62,4.61-9.93.4-.93.87-1.99,1.29-2.94Z"/><path class="cls-10" d="M42.52,104.9s0,.02-.01.04c-.03.07-.06.14-.09.21.03-.08.07-.17.11-.25Z"/><path class="cls-10" d="M45.86,103.1l-.56,1.6c-.56,1.3-2.87,6.38-5.08,11.27-.35.76-.7,1.53-1.03,2.27-.14.19-.29.37-.44.54.84-1.85,1.76-3.89,2.66-5.86l.02-.05c1.99-4.37,3.85-8.46,4.43-9.77Z"/><path class="cls-10" d="M52.6,87.86c0-.06.02-.11.02-.17,0-.07.01-.14.02-.21-.32.72-.64,1.45-.96,2.17.03.04.06.08.09.13.28-.64.55-1.28.83-1.92Z"/><path class="cls-10" d="M52.45,90.86c.07-.07.13-.14.19-.21.13-.34.25-.68.37-1.01-.03-.11-.06-.22-.1-.34-.18.49-.35.97-.52,1.46.02.03.04.07.05.1Z"/><path class="cls-10" d="M36.85,106.66c-.34.78-.67,1.57-1.01,2.35-.43,1.01-.86,2.07-1.27,3.08-.12.27-1.84,3.98-3.55,7.67-.04-.02-.08-.04-.11-.07,2.07-4.49,4.54-9.86,4.8-10.44.37-.87.76-1.73,1.14-2.59Z"/><path class="cls-10" d="M41.39,96.9c-1.63,3.24-3.12,6.5-4.54,9.77,1.39-3.11,2.85-6.2,4.39-9.24.47-1,.95-2,1.43-2.99.49-1,.98-2,1.49-3.01.02-.06.04-.11.05-.17-.47.87-.91,1.73-1.34,2.59-.51,1.02-1.01,2.04-1.49,3.06Z"/><path class="cls-10" d="M40.38,94.55c.41-.45.82-.87,1.08-1.42.49-1.08.99-2.15,1.48-3.22.47-1.03.98-2.09,1.46-3.12.4-.76.8-1.52,1.19-2.28.39-.76.79-1.54,1.18-2.3.5-1.05,1-2.11,1.52-3.21,4.62-9.54,9.72-18.5,13.34-28.41v-.02c.2-.37.38-.73.57-1.09.18-.36.36-.71.55-1.07-3.86,11.03-9.88,21.35-14.99,32.08-.44.9-.89,1.83-1.33,2.74-.47.91-.96,1.82-1.45,2.72-.53,1.11-1.02,2.14-1.48,3.17-.32.68-.67,1.45-.98,2.14-.39.86-.78,1.7-1.17,2.56-.4.86-.81,1.77-1.21,2.63-2.19,4.35-4.22,8.74-6.15,13.18-.39.91-.81,1.85-1.19,2.76-.12.26-1.47,3.17-2.97,6.39-.06-.07-.12-.14-.18-.21,1.73-3.74,3.37-7.3,3.6-7.85.46-1.11.92-2.22,1.39-3.33,1.86-4.42,3.76-8.77,5.75-12.84Z"/><path class="cls-10" d="M33.89,100.93c-.11.31-.22.61-.33.92.14-.33.28-.67.42-1-.03.03-.06.06-.09.09Z"/><path class="cls-10" d="M33.56,101.85c-.17.39-.34.78-.51,1.17,0,0,0,0,.01-.01.15-.34.29-.67.44-1.01.02-.05.04-.1.06-.15Z"/><path class="cls-10" d="M55.99,67.42c-.93,1.83-1.81,3.71-2.67,5.62.72-1.51,1.43-3.01,2.14-4.52.18-.37.36-.73.53-1.1Z"/><path class="cls-10" d="M39.59,102.11c.45-.97.9-1.95,1.37-2.92.45-.97.9-1.94,1.36-2.91.46-.97.99-2.01,1.47-2.97.95-1.75,1.82-3.56,2.66-5.39.42-.91.84-1.84,1.24-2.77,1.79-4.12,3.71-8.13,5.61-12.11-1.85,4.09-3.6,8.28-5.49,12.27-.41.91-.83,1.83-1.26,2.75-.85,1.81-1.75,3.61-2.71,5.38-.57,1.16-1.13,2.32-1.66,3.46s-1.05,2.28-1.57,3.43c-.43.96-.86,1.92-1.29,2.88-.7,1.53-1.41,3.11-2.1,4.7-.34.8-.68,1.59-1.02,2.4-.23.53-2.52,5.5-4.52,9.84-.03-.01-.06-.03-.09-.05,1.91-4.17,4.02-8.73,4.21-9.19.41-.94.83-1.95,1.25-2.93.41-.98.82-1.95,1.22-2.92.43-.98.86-1.95,1.31-2.93Z"/><path class="cls-10" d="M58.03,63.41c1.65-3.23,3.3-6.49,4.83-9.85.39-.86.78-1.76,1.16-2.64.37-.88.74-1.76,1.11-2.65.44-1,.84-1.9,1.23-2.81.38-.89.76-1.78,1.13-2.67.41-.92.85-1.93,1.28-2.86.4-.85.8-1.69,1.19-2.54.65-1.58,1.23-3.19,1.95-4.73.27-.54.54-1.09.8-1.64-.02-.04-.04-.09-.05-.13-.55,1.16-1.1,2.33-1.65,3.5-.69,1.29-.92,2.53-1.61,3.82-.41.85-.82,1.7-1.23,2.55-.42.95-.84,1.91-1.26,2.86-.42.95-.84,1.9-1.27,2.84-.38.92-.76,1.85-1.15,2.77-.39.92-.78,1.84-1.17,2.76-2.06,4.71-4.29,9.26-6.54,13.8-.27.55-.54,1.1-.81,1.65.13-.26.27-.52.4-.78.55-1.08,1.1-2.15,1.65-3.23Z"/><path class="cls-10" d="M63.12,51.57c.38-.96.74-1.92,1.09-2.88.41-.96.78-1.83,1.14-2.69.36-.84.72-1.69,1.07-2.54.41-.89.79-1.72,1.18-2.54.39-.82.78-1.65,1.17-2.47,1.2-2.39,1.88-4.77,3.08-7.16.18-.36.36-.71.54-1.07,0-.01-.01-.03-.02-.04h0c-.64,1.32-1.28,2.64-1.92,3.95-1,1.95-1.57,4.11-2.57,6.06-.35.73-.72,1.52-1.04,2.2-.38.85-.75,1.71-1.13,2.56-.38.86-.79,1.8-1.16,2.65-.37,1-.76,1.99-1.16,2.98-.89,2.16-1.85,4.29-2.84,6.41.86-1.93,1.67-3.87,2.41-5.82.37-.97.72-1.95,1.07-2.92.35-.86.7-1.74,1.04-2.58.33-.82.67-1.65.99-2.47.37-.79.83-1.82,1.25-2.72,1.49-3.2,3.01-6.4,4.55-9.61-.53,1.02-1.6,3.06-2.97,5.7-.12.35-.25.68-.39.98-.45.95-.9,1.89-1.35,2.84-.45.95-.94,2.03-1.37,2.97-.28.67-.56,1.34-.84,2.01-.28.67-.56,1.33-.84,2-.41,1.13-.84,2.26-1.28,3.37-3.95,10.26-9.69,19.4-14.14,29.44-.32.68-.65,1.39-.97,2.08-.97,2.05-1.96,4.09-2.96,6.08-.33.82-.73,1.75-1.06,2.61-.33.84-.64,1.69-.94,2.56,0,.01-.01.03-.02.04.43-.94.87-1.89,1.3-2.83.75-1.54,1.49-3.08,2.22-4.62-.79,1.69-1.49,3.4-2.05,5.18.09-.17.18-.33.27-.5,1.06-2.85,2.34-5.66,3.7-8.47.09-.18.18-.37.27-.55.34-.64.68-1.29,1.02-1.92,1.81-3.85,3.63-7.57,5.62-11.32.48-.93.95-1.87,1.43-2.8,2.37-4.67,4.66-9.33,6.6-14.11Z"/><path class="cls-10" d="M42.75,93.52c-.08.18-.17.36-.25.54.1-.16.18-.34.25-.54Z"/><path class="cls-10" d="M42.5,94.06l-.03.07c-.47,1.04-.94,2.07-1.41,3.1-.47,1.04-.95,2.09-1.45,3.16-1.5,3.03-2.93,6.11-4.29,9.22-.26.59-2.56,5.57-4.58,9.97-.12-.08-.24-.17-.35-.27,1.86-4.02,3.82-8.26,4.01-8.68.35-.81.71-1.61,1.07-2.42,1.79-4.02,3.69-8.03,5.53-12.07.36-.92,1.06-1.34,1.5-2.09Z"/><path class="cls-10" d="M62.6,60.39c.99-2.08,2.06-4.16,3.13-6.23-1.24,2.34-2.49,4.67-3.64,7.1-.36.77-.72,1.57-1.08,2.41-.42,1.22-.86,2.44-1.32,3.66.65-1.6,1.3-3.21,1.94-4.82.28-.62.64-1.42.98-2.13Z"/><path class="cls-10" d="M31.2,108.43c.21-.36.43-.71.64-1.08-.09.22-.19.42-.29.64-.42.92-.84,1.85-1.29,2.87-.14.33-.8,1.79-1.69,3.74.02-.17.04-.34.07-.52.66-1.43,1.13-2.45,1.24-2.67.46-1.05.9-2.03,1.32-2.98Z"/><path class="cls-10" d="M48.24,72.47s-.04.04-.06.06c-.11.12-.23.24-.34.36-.17.32-.35.64-.52.96,0,.12,0,.24,0,.36.31-.58.61-1.16.92-1.75Z"/><path class="cls-10" d="M44.3,82.39c.23-.44.47-.88.71-1.32-.11.05-.22.1-.33.14-.09.16-.18.31-.28.47-.33.58-.65,1.16-.97,1.75l.34-.04c.17-.33.35-.67.52-1Z"/><path class="cls-10" d="M36.72,98.29c.11-.09.21-.18.32-.27,0,0,.02,0,.03-.02l-.1.25c-.49,1.03-.97,2.14-1.45,3.18-.84,1.82-1.67,3.64-2.48,5.47-.41.91-.84,1.9-1.21,2.74-.41.92-.83,1.84-1.23,2.77-.09.21-.9,1.93-1.93,4.16-.04-.15-.06-.3-.08-.46,1.28-2.77,2.35-5.07,2.5-5.4.4-.91.78-1.76,1.16-2.6.75-1.68,1.53-3.35,2.3-5.01.24-.52.48-1.03.73-1.55.07-.12.14-.24.21-.37-.02.02-.04.03-.06.05h0s.46-.99.46-.99c.28-.65.56-1.3.83-1.95Z"/><path class="cls-10" d="M51.2,69.5c-.11.1-.22.2-.33.31-.07.07-.15.14-.22.21-.43.89-.87,1.77-1.32,2.64.13-.1.25-.19.38-.29.5-.96,1-1.92,1.49-2.88Z"/><path class="cls-10" d="M29.25,111.69h0s.03-.06.04-.07c-.14.33-.29.65-.43.98.13-.31.26-.61.39-.91Z"/><path class="cls-10" d="M33.94,102.33c.1-.08.21-.16.31-.23.39-.86.78-1.73,1.18-2.66-.14.13-.28.26-.43.4-.03.03-.07.07-.1.1-.19.5-.37,1-.56,1.5-.13.3-.27.6-.4.9Z"/><path class="cls-10" d="M42.89,82.37c.13-.23.26-.46.39-.68-.17.05-.33.08-.47.11-.1.17-.2.33-.29.5-.23.43-.46.88-.69,1.32l.44-.05c.21-.4.42-.8.63-1.2Z"/><path class="cls-10" d="M31.98,103.7c0,.05.01.11.02.16.03-.03.07-.06.11-.08.26-.6.52-1.22.77-1.8-.11.12-.22.23-.34.35-.19.46-.37.92-.56,1.37Z"/><path class="cls-10" d="M28.82,112.69s-.09.21-.21.47c.12-.27.19-.42.21-.47Z"/><path class="cls-10" d="M38.65,96.93c-.18.46-.28.9-.38,1.34.65-1.34,1.3-2.68,1.95-4.01.15-.33.3-.66.45-1-.71,1.37-1.49,2.33-2.03,3.66Z"/><path class="cls-10" d="M51.55,89.47c.38-.88.77-1.76,1.16-2.64.03-.28.07-.56.12-.84-.5,1.07-.99,2.14-1.46,3.22.06.08.12.17.18.26Z"/><path class="cls-10" d="M61.44,67.19c.47-1.01.94-2.03,1.4-3.05.04-.09.09-.19.13-.28.02-.25.04-.49.05-.72,0-.12.02-.24.02-.35-.52,1.28-1.06,2.55-1.61,3.81,0,.19,0,.38,0,.58Z"/><path class="cls-10" d="M38.26,98.27c-.15.66-.28,1.31-.63,1.94-1.37,2.79-2.66,5.61-3.9,8.45-.42.96-.86,1.98-1.27,2.94-.18.38-1.55,3.32-3.09,6.6-.06-.08-.11-.17-.17-.26,1.59-3.41,3.02-6.5,3.24-6.98.35-.83.85-1.93,1.27-2.88,1.47-3.31,3-6.58,4.55-9.82Z"/><path class="cls-10" d="M62.66,66.46c.02-.16.05-.31.07-.47.01-.09.02-.18.03-.27-.44.95-.89,1.9-1.34,2.84,0,.16,0,.33-.01.49.42-.86.84-1.73,1.25-2.59Z"/><path class="cls-10" d="M49.88,91.58l-.52,1.49c-.08.19-.17.38-.26.58-.44.99-.88,1.98-1.31,2.97l-.04.08c-.42.96-.84,1.94-1.24,2.9-.51,1.15-.98,2.2-1.44,3.25-.92,2.09-1.84,4.18-2.75,6.25-.28.64-2.94,6.39-5.07,10.99-.12.08-.25.15-.37.22,2.15-4.64,4.88-10.53,5.17-11.17.92-2.06,1.84-4.13,2.76-6.18.46-1.03.95-2.13,1.43-3.21.45-1.04.9-2.08,1.35-3.11.45-1.03.91-2.06,1.38-3.08l.08-.18c.28-.61.55-1.21.83-1.81Z"/><path class="cls-10" d="M53.02,84.92c-.63,1.33-1.26,2.66-1.88,3.99.02.03.05.07.08.11.57-1.25,1.15-2.49,1.73-3.74.02-.12.04-.24.07-.36Z"/><path class="cls-10" d="M42.19,90.45c.51-1.05,1.01-2.1,1.52-3.15.52-1.07,1.05-2.15,1.62-3.28.38-.73.76-1.47,1.14-2.2.38-.75.76-1.49,1.13-2.24,3.98-8.35,8.49-16.67,12.1-25.21-.3.58-.59,1.16-.89,1.73-2.89,6.84-6.38,13.42-9.71,19.97-.53,1.09-.87,1.8-1.09,2.28-.12.27-.27.52-.43.75-.31.62-.61,1.24-.91,1.85-.36.71-.72,1.42-1.08,2.13-.43.8-.87,1.61-1.29,2.4-1.08,2.04-1.83,3.83-2.76,5.9-.29.63-.58,1.26-.86,1.89.01-.02.02-.04.04-.07.5-.9,1-1.81,1.48-2.75Z"/><path class="cls-5" d="M45.5,32.85c.01-.36.02-.71.03-1.07-.02.34-.03.66-.04.99v.02s0,.05.01.07Z"/><path class="cls-4" d="M47,48.88c.24,4.33,1.09,16.53,1.09,16.53l-3.14-1.94-.35,1.73s3.86,2.45,3.8,5.72c-.02,1.09.07,3.24.06,8.04-.04-.07-.08-.14-.13-.22-.1-.18-.2-.36-.3-.54-.2-.37-.4-.75-.6-1.12-.2-.38-.39-.76-.58-1.13-.19-.38-.37-.75-.55-1.1-.09-.18-.17-.35-.25-.52-.12.25-.23.49-.35.73,0,0,0,.02,0,.02.13.38.26.78.39,1.18.14.4.27.81.41,1.22.14.41.29.81.44,1.21.07.2.15.4.22.59.08.2.15.39.23.58.15.38.3.74.44,1.09.14.35.29.67.43.98.06.13.12.25.17.38-.02,3.1.26,11.21.59,19.53v.03c.02.41.03.82.05,1.22,0,.4.03.8.05,1.2h0c.42,10.52.88,20.61.88,20.61h.14c.5-.49,1.04-.94,1.51-1.44.03-.03.06-.05.08-.08.03-.03.06-.06.08-.08h0s.03-.03.04-.05c.4-.45.61-1.01.84-1.56.08-.2.17-.4.27-.6.03-.07.07-.14.11-.2.05-.09.11-.18.17-.27.15-.21.32-.38.49-.54.08-.08.16-.15.24-.22.04-1.45.08-3.14.12-4.98,0-.31.02-.62.02-.93,0-.07,0-.14,0-.2.16-6.58.38-14.76.61-20.7.05-.09.14-.26.26-.51.1-.18.19-.4.3-.65.06-.13.12-.26.18-.4.06-.14.11-.29.18-.45.12-.31.25-.64.37-1,.13-.36.26-.73.38-1.12.06-.2.13-.39.19-.59.06-.2.12-.4.18-.61.13-.41.24-.82.36-1.24.12-.41.23-.83.34-1.24.09-.35.18-.7.27-1.04-.12-.27-.25-.53-.38-.8-.06.14-.12.29-.18.43-.16.37-.32.75-.48,1.14-.17.39-.34.78-.51,1.16-.18.39-.35.78-.53,1.16-.09.19-.18.38-.27.56-.09.18-.18.37-.27.54-.07.14-.14.27-.2.4.47-11.37-.9-17.39,1.67-24.41.04-.12.07-.22.1-.33.04-.05.08-.1.13-.15.19-.23.38-.46.58-.69.2-.24.41-.48.62-.71.01-.02.03-.04.05-.06-.09-.34-.18-.68-.29-1.01-.15.11-.3.22-.45.33-.15.11-1.74.98-1.89,1.09l.33-5.15.22-3.54.48-7.46.39-6.16.24-3.71v-.05s.21-3.27.21-3.27l.13-1.97c-.03-.18-.07-.36-.1-.53-.05-.23-.11-.46-.17-.68-.07-.24-.14-.46-.23-.68-.08-.21-.17-.41-.27-.61-.09-.19-.19-.37-.3-.54-.08-.13-.16-.25-.25-.36-.33-.44-.71-.81-1.16-1.12-.02-.02-.04-.03-.06-.04-.2-.14-.41-.25-.63-.35-.09-.04-.18-.08-.28-.12-.12-.05-.25-.09-.38-.13-.14-.05-.27-.08-.42-.11-.28-.07-.57-.12-.88-.14-.08-.01-.15-.02-.22-.02-.17-.02-.35-.02-.53-.02-.08,0-.15,0-.22,0-.04,0-.07,0-.11,0-.23,0-.45.03-.67.06-.04,0-.09,0-.13.02-.07,0-.13.02-.2.03-.15.03-.29.06-.43.1-.26.06-.51.14-.74.24-.09.04-.17.07-.26.12-.14.07-.28.14-.41.22-.09.05-.18.11-.26.17-.41.29-.77.63-1.07,1.03-.1.12-.18.25-.27.38-.27.41-.48.87-.66,1.37-.06.16-.11.33-.16.5-.24.83-.38,1.76-.43,2.76.11,1,.23,2.17.36,3.44.04.41.09.83.13,1.25h0c.23,2.26.47,4.68.66,6.71.01.14.03.28.04.42,0-.02-.03-.04-.04-.06-.01-.02-.02-.03-.03-.05-.1-.18-.2-.36-.3-.55-.2-.37-.4-.74-.6-1.12-.2-.38-.39-.76-.58-1.13-.17-.34-.34-.68-.5-1-.15.25-.3.5-.44.75.06.19.12.38.19.57.14.4.27.81.41,1.21.15.41.29.82.44,1.22.07.2.15.4.22.59.08.2.15.39.23.58.15.38.3.75.44,1.09.14.35.29.67.43.97,0,.02.02.04.03.06.06.13.12.26.18.38,0,.01.01.02.02.03h0c.06.13.12.25.18.36.01.02.01.04.03.06Z"/><path class="cls-8" d="M54.36,103.18c-.03-.95-.07-1.9-.11-2.86.04.83.08,1.66.12,2.49,0,.13,0,.25-.01.38Z"/><path class="cls-8" d="M54.48,54.57c0,1.13.01,2.26.03,3.39.36,9.33.53,18.71-.17,27.86.45-8.98.64-18.01.13-27.27-.01-1.15-.02-2.41-.02-3.56-.08-2.43,0-4.63.09-6.97.04-1.16.07-2.32.11-3.48-.03,1.08-.06,2.17-.08,3.25-.07,2.27-.09,4.53-.09,6.79Z"/><path class="cls-8" d="M53.26,95.21c.05,4.6.19,9.19.46,13.77,0,1.19.01,2.55,0,3.74,0,2.45-.01,4.9-.02,7.34.08-.08.16-.15.24-.22.04-1.45.08-3.14.12-4.98.01-.27.02-.53.02-.8v-.13c0-.07,0-.14,0-.2.02-.92.03-1.83.04-2.75-.01-1.02-.03-2.05-.05-3.08-.03-1.05-.05-2.1-.09-3.28-.22-2.87-.37-5.74-.45-8.62-.03-.96-.05-1.91-.07-2.87-.03-1.02-.04-2.17-.05-3.22.56-10.11,1.03-20.09.37-30.6-.01-1.18-.03-2.48-.04-3.66,0-2.36,0-4.71.05-7.06.06-1.22.11-2.45.16-3.67.04-.92.07-1.84.1-2.76.03-.92.06-1.84.09-2.77.03-.73.05-7.57.07-12.73-.09-.04-.18-.08-.28-.12-.02,5.02-.05,11.5-.07,12.11-.04,1.09-.08,2.26-.12,3.35-.08,2.18-.16,4.37-.24,6.55-.05,1.27-.09,2.57-.13,3.96.07,1.05.12,2.1.16,3.14.05,1.05.09,2.09.12,3.13.56,9.58.33,18.84-.3,28.58-.16,1.7-.08,3.41-.11,5.07,0,.92,0,1.84.03,2.77Z"/><path class="cls-8" d="M52.74,97.96c.06,2.75.11,5.51.16,8.29,0,1.07,0,2.34-.02,3.42-.02,1.04-.05,2.02-.07,3.01-.08,3-.12,5.99-.14,8.99.08-.2.17-.4.27-.6.04-.07.07-.13.11-.19h0c.03-2.89.07-5.77.14-8.65.02-1.08.04-2.17.06-3.32-.14-2.97-.23-5.95-.3-8.93-.02-.99-.04-1.99-.06-2.98-.01-.9-.02-1.8-.03-2.7s-.02-1.8-.03-2.71c-.04-5.92.44-11.28.67-17.12.24-5.6-.32-10.96-.38-16.23-.02-1.18-.04-2.36-.07-3.54-.03-1.18-.05-2.37-.07-3.56.09-1.08.14-2.47.2-3.7.06-1.07.1-2.15.15-3.23.04-1.08.08-2.16.11-3.24.04-1.21.08-8.9.11-14.55-.14-.05-.27-.08-.42-.11-.02,5.05-.04,11.44-.05,12.09-.04,1.15-.08,2.38-.13,3.54-.1,2.3-.21,4.61-.36,6.91-.04,1.23-.07,2.43-.08,3.69.01.99.03,1.98.04,2.97.02.99.04,1.98.06,2.97.64,9.9.49,19.64-.11,29.56,0,1.24.02,2.42.05,3.62.03,1.18.07,2.36.12,3.55.02.92.04,1.84.06,2.76Z"/><path class="cls-8" d="M57.17,86.11c-.03.12-.07.25-.1.37-.02.06-.03.12-.05.18-.02-.25-.03-.51-.05-.76-.03-.51-.06-1.01-.08-1.52.06-.14.11-.27.17-.4.04.71.08,1.42.12,2.13Z"/><path class="cls-8" d="M56.27,54l.4-3.96c.02-.84.05-1.71.06-2.52.03-1.04.05-3.73.07-6.98.03-3.43.05-7.49.07-10.87-.08-.21-.17-.41-.27-.61-.01,4.73-.02,10.18-.04,10.69-.06,1.89-.1,3.78-.14,5.68,0,.42-.01.84-.02,1.27-.01.67-.02,1.33-.03,2-.03,1.76-.07,3.53-.11,5.29Z"/><path class="cls-8" d="M51.57,115.72c-.02,2.53.07,5.13.07,7.72h0c.06-.05.11-.11.16-.16h0c-.02-2.28-.1-4.54-.1-6.91.05-1.22.1-2.44.14-3.66.03-1.06.06-2.13.07-3.19.02-1.09.04-2.3.05-3.39.01-.96.03-1.92.05-2.88.01-.96.02-1.93.03-2.9,0-3.5-.09-6.95-.16-10.39-.02-1.15-.04-2.32-.05-3.48.12-8.61.59-16.88.19-25.49,0-.94-.02-1.87-.04-2.82-.04-1.87-.1-3.75-.18-5.63.03-1.19.03-2.55.05-3.8.1-2.87.19-5.68.28-8.48.03-.94.06-1.95.09-2.88.02-.57.04-6.36.06-11.22-.08-.01-.15-.02-.22-.02-.03,5.1-.06,11.77-.08,12.46-.03.97-.06,1.94-.09,2.9-.06,1.92-.13,3.83-.19,5.73-.03.94-.04,1.86-.05,2.79-.01.93-.02,1.88-.04,2.78.04,2.73.09,5.47.13,8.21.01.92.03,1.84.05,2.78.49,7.5-.14,15.05-.13,22.56.03,1.15.04,2.34.07,3.51.09,3.47.18,6.94.19,10.42,0,.99,0,1.97-.01,2.96,0,.99-.01,1.97-.03,2.96-.01.98-.03,2.13-.05,3.14-.03.99-.06,1.97-.1,2.96-.04,1.14-.09,2.27-.13,3.41Z"/><path class="cls-8" d="M54.74,41.17c-.03,1.03-.06,2.05-.08,3.08.03-.96.07-1.9.1-2.86.04-1.04.07-2.16.1-3.19.02-.39.03-6.4.04-11.15-.02-.02-.04-.03-.06-.04,0,4.7,0,10.61-.02,10.95-.03,1.02-.05,2.17-.08,3.21Z"/><path class="cls-8" d="M54.65,44.52s0-.03,0-.04c0-.08,0-.16,0-.23,0,.09,0,.18-.01.27Z"/><path class="cls-8" d="M56.92,47.57l.17-1.68c.05-1.42.1-7,.16-12.36,0-.84.02-1.68.03-2.5-.05-.23-.11-.46-.17-.68-.03,2.03-.05,4.27-.07,6.44v.05c-.05,4.8-.09,9.29-.11,10.73Z"/><path class="cls-8" d="M56.58,64.22c-.02.05-.03.11-.05.16-.02.07-.05.13-.07.2.01-.79.03-1.58.05-2.38.05-.03.09-.05.14-.08-.02.7-.04,1.39-.06,2.09Z"/><path class="cls-8" d="M57.72,61.44c.03.09.06.18.09.28-.03.36-.06.72-.09,1.07-.08.09-.15.17-.23.26.04-.52.09-1.03.15-1.55.03-.02.06-.05.09-.07Z"/><path class="cls-8" d="M50.26,40.53c.02-.85.05-1.7.08-2.56.04-1.1.1-2.23.15-3.33,0-.3.01-4.38.02-8.45-.04,0-.09,0-.13.02-.02,4.95-.05,10.85-.07,11.49-.03.94-.05,1.88-.06,2.83Z"/><path class="cls-8" d="M50.24,51.3c-.11-3.62-.08-7.21.01-10.77-.05,3.41-.04,6.83.07,10.23,0,1.1.02,2.21.03,3.32.02,1.11.04,2.23.08,3.36,0,.06-.01.12-.02.18-.05-.99-.09-1.95-.12-2.91-.03-1.14-.05-2.27-.06-3.4Z"/><path class="cls-8" d="M48.34,53c.18.58.38,1.13.38,1.74-.01,1.18-.01,2.37-.02,3.55,0,1.13,0,2.31,0,3.44.04.86.08,1.71.12,2.57.04.86.07,1.73.1,2.58,0,1.16.02,2.33.03,3.55.16,10.6.99,20.87.08,31.39v.03c.02.41.03.82.05,1.22,0,.4.03.8.05,1.2,1.16-11.63.07-23.52-.03-35.41-.02-1-.04-2.03-.05-3.04-.05-1.03-.1-2.05-.17-3.08-.01-1.23-.01-2.37,0-3.5,0-.75,0-1.6.02-2.35,0-.94.02-1.87.03-2.81,0-.95.01-1.95.02-2.9-.15-4.87-.14-9.71,0-14.55.03-.99.05-2.01.09-3.01,0-.29,0-3.5.01-7.05-.09.04-.17.07-.26.12-.01,4.12-.03,8.04-.06,8.64-.06,1.2-.11,2.4-.15,3.6-.19,4.79-.3,9.54-.22,14.07Z"/><path class="cls-8" d="M45.15,44.47c.03-.32.06-.65.09-.97-.01.36-.03.72-.05,1.08-.01-.04-.03-.08-.04-.11Z"/><path class="cls-8" d="M45.24,43.5c.02-.43.03-.85.03-1.28,0,0,0,.01,0,.02,0,.37-.02.73-.03,1.1,0,.05,0,.11-.01.16Z"/><path class="cls-8" d="M51.02,84.18c-.07-2.05-.07-4.13-.05-6.22.01,1.67.03,3.34.03,5,0,.41.01.82.02,1.22Z"/><path class="cls-8" d="M50.82,45.81c0,1.07,0,2.15.01,3.23,0,1.07,0,2.14,0,3.21.01,1.08.05,2.24.08,3.31.12,1.99.15,3.99.14,6.01,0,1.01-.02,2.02-.05,3.04-.12,4.49-.07,8.93-.03,13.35.06-4.48.24-9.02.22-13.44.02-1,.02-2.01.02-3.02,0-2-.06-4.01-.19-6.02-.03-1.29-.05-2.58-.05-3.84s.01-2.52.03-3.77c.02-1.05.03-2.1.05-3.15.01-1.69.04-3.41.09-5.15.03-.87.06-1.73.09-2.61.02-.58.04-6.05.07-10.83-.04,0-.07,0-.11,0-.03,4.58-.05,9.61-.07,10.11-.03,1.02-.07,2.12-.11,3.19-.04,1.06-.08,2.12-.13,3.17-.03,1.07-.05,2.13-.06,3.21Z"/><path class="cls-8" d="M51.18,88.69c.13,3.63.24,7.27.22,10.97-.02.95-.03,1.92-.06,2.89-.03.95-.07,1.91-.12,2.87-.02,1.09-.05,2.08-.08,3.07-.03.97-.06,1.93-.1,2.9-.02,1.01-.04,2.11-.05,3.13,0,.94,0,1.87,0,2.8-.08,1.7-.24,3.41-.24,5.11.01.61.03,1.21.04,1.82-.03.03-.07.06-.1.09,0-1.29-.01-2.58-.01-3.86-.08-1.46.24-2.68.16-4.14-.02-.94-.03-1.89-.04-2.83.02-1.04.04-2.08.06-3.12.02-1.04.04-2.07.05-3.11.05-1,.09-1.99.13-2.99.04-1,.07-2,.1-2.99.12-5.14.02-10.2-.09-15.27-.01-.61-.02-1.23-.04-1.84,0,.29.02.59.03.88.04,1.21.08,2.41.13,3.62Z"/><path class="cls-8" d="M50.79,101.57c-.06,1.03-.14,2.05-.23,3.07-.04,1.04-.07,1.98-.1,2.92-.03.92-.07,1.84-.11,2.75,0,.98,0,1.89,0,2.8,0,.91,0,1.82.02,2.73.08,2.68-.31,5.11-.24,7.79.01.4.02.8.03,1.2-.01,0-.02.02-.03.03h0c-.02-1.47-.05-2.94-.07-4.4-.08-2.19.31-4.38.24-6.58,0-.81,0-1.68-.02-2.43.02-.93.04-1.87.06-2.8.02-.94.05-1.97.07-2.89.08-1.06.15-2.13.21-3.19.1-2.33.14-4.67.14-7.01-.03,2.11-.12,4.21-.27,6.3-.08,1.04-.17,2.07-.27,3.1-.05.93-.1,1.88-.14,2.78-.05.89-.09,1.78-.15,2.66,0,.87-.02,2-.02,2.99,0,3.53.03,7.08.06,10.64-.05-1.15-.15-3.45-.28-6.42.04-.37.06-.73.06-1.06,0-1.05-.02-2.1-.02-3.14,0-1.05,0-2.24.01-3.27.03-.72.06-1.45.09-2.17.03-.72.05-1.45.08-2.17.11-1.2.19-2.4.27-3.6.75-10.97-.59-21.68-.37-32.66,0-.75,0-1.53,0-2.29-.01-2.27-.05-4.54-.12-6.76.04-.89.08-1.89.14-2.82.06-.9.14-1.81.24-2.72,0-.01,0-.03,0-.04,0,1.04-.01,2.08-.02,3.11.02,1.71.04,3.42.06,5.12,0-1.86.09-3.71.33-5.56.01.19.02.38.03.57-.24,3.03-.27,6.12-.23,9.25,0,.2,0,.41,0,.61.03.73.07,1.46.11,2.17.02,4.25.09,8.39.31,12.64.04,1.05.07,2.1.11,3.15.17,5.23.28,10.42.02,15.58Z"/><path class="cls-8" d="M50.05,54.94c0-.2,0-.4,0-.6.02.19.02.39,0,.6Z"/><path class="cls-8" d="M50.06,54.34v-.08c.01-1.14.02-2.27.04-3.41.02-1.14.03-2.29.03-3.48-.08-3.38-.07-6.78,0-10.17.02-.65.04-6.13.07-10.97-.15.03-.29.06-.43.1-.02,4.43-.02,9.1-.04,9.56-.03.88-.04,1.76-.06,2.64-.08,4.4-.05,8.84-.1,13.28-.06.99.39,1.66.48,2.53Z"/><path class="cls-8" d="M54.05,93.35c.02,2.3.11,4.64.2,6.97-.14-2.64-.29-5.28-.3-7.98,0-.85,0-1.73.04-2.64.13-1.29.25-2.58.35-3.88-.09,1.73-.18,3.46-.28,5.19,0,.68-.02,1.56-.01,2.34Z"/><path class="cls-8" d="M45.89,36.54c.04.41.09.83.13,1.25,0-.24,0-.47,0-.7.01-1.01.02-2.03.05-3.14.01-.36.04-1.96.04-4.1-.06.16-.11.33-.16.5,0,1.57,0,2.7,0,2.94-.03,1.14-.05,2.22-.06,3.26Z"/><path class="cls-8" d="M46.13,76.34s-.02-.06-.03-.08c-.05-.16-.1-.31-.15-.47-.02-.36-.04-.73-.07-1.09.05-.11.11-.22.16-.33.04.66.07,1.31.09,1.97Z"/><path class="cls-8" d="M46.75,65.68c.03.5.05,1,.08,1.5-.08-.09-.16-.18-.24-.27-.02-.18-.03-.36-.05-.54-.06-.66-.1-1.33-.14-1.99l.3.18c.02.38.03.75.05,1.13Z"/><path class="cls-8" d="M46.6,48.06c.06.13.12.26.18.38,0,.01.01.02.02.03l.02-.27c0-1.14.02-2.35.03-3.5,0-2,.02-4,.07-6,.02-1,.04-2.07.07-2.99.02-1.01.03-2.02.06-3.03,0-.23,0-2.13.01-4.58-.1.12-.18.25-.27.38-.01,3.06-.02,5.59-.02,5.95-.02.99-.04,1.93-.05,2.85-.03,1.84-.03,3.68-.04,5.52,0,.57,0,1.14,0,1.71.01.14.03.28.04.42,0-.03-.03-.05-.04-.07h0s0,1.09,0,1.09c-.02.71-.05,1.42-.07,2.12Z"/><path class="cls-8" d="M47.56,80.27c-.06-.14-.11-.28-.16-.42-.04-.1-.07-.19-.11-.29-.02-.99-.05-1.97-.08-2.95.07.14.14.28.22.42.05,1.08.1,2.16.14,3.24Z"/><path class="cls-8" d="M45.49,32.76v.02s0,.05.01.07c.01-.36.02-.71.03-1.07-.02.34-.03.66-.04.99Z"/><path class="cls-8" d="M45.79,43.23c.06.11.12.23.18.34-.01.95-.02,1.9-.05,2.91-.07-.18-.14-.36-.22-.55-.02-.04-.03-.09-.05-.13.04-.53.08-1.06.13-1.59,0-.33,0-.66.01-.98Z"/><path class="cls-8" d="M45.46,65.11c.02.26.04.52.06.78-.14-.11-.26-.21-.38-.3-.02-.19-.04-.39-.06-.58-.03-.49-.05-.99-.07-1.49l.37.23c.02.45.04.9.06,1.35Z"/><path class="cls-8" d="M44.59,41.16s.06-.09.08-.14c.02.04.04.08.06.12-.02.65-.04,1.33-.06,1.96-.05-.15-.1-.31-.16-.46.02-.49.05-.99.07-1.48Z"/><path class="cls-8" d="M45.53,31.67c0-.05,0-.23,0-.52,0,.29,0,.47,0,.52Z"/><path class="cls-8" d="M47.77,50.11c.03-.49.13-.94.22-1.38.02,1.49.04,2.97.07,4.46,0,.36,0,.73-.01,1.1-.06-1.54-.36-2.74-.29-4.18Z"/><path class="cls-8" d="M56.31,62.32c-.03.96-.05,1.92-.06,2.88-.09.27-.17.54-.25.81,0-1.18.01-2.35.04-3.53.09-.05.18-.1.27-.15Z"/><path class="cls-8" d="M55.87,86.7c0,1.12,0,2.23-.02,3.35,0,.1,0,.21,0,.31-.09.23-.17.46-.25.67-.04.11-.08.22-.13.32.06-1.38.12-2.76.16-4.14.08-.17.16-.35.24-.52Z"/><path class="cls-8" d="M47.99,48.73c.15-.66.3-1.3.25-2.03-.06-3.11-.04-6.21.03-9.3.03-1.05.06-2.16.09-3.21,0-.43,0-3.67,0-7.29-.09.05-.18.11-.26.17,0,3.76-.01,7.17-.01,7.7-.04.9-.05,2.11-.07,3.15-.07,3.62-.07,7.23-.03,10.82Z"/><path class="cls-8" d="M56.66,87.88c-.05.15-.09.3-.14.45-.03.09-.06.18-.08.26,0-1.05,0-2.1-.02-3.14.07-.15.13-.3.2-.45.02.96.03,1.92.04,2.88Z"/><path class="cls-8" d="M55.7,59.71l.16-1.57c0-.21,0-.42.01-.63.01-1.08.04-2.16.07-3.25v-.09c.03-1.05.06-2.11.1-3.16.03-1.26.05-2.41.07-3.55.05-2.28.1-4.56.15-6.83.02-.7.04-7.03.05-12.1-.08-.13-.16-.25-.25-.36-.02,5.12-.03,11.61-.04,12.31-.04,2.26-.08,4.51-.11,6.76-.02,1.13-.04,2.33-.06,3.51-.04,1.13-.07,2.26-.09,3.39-.03,1.13-.04,2.25-.05,3.38v.2c0,.67-.01,1.33-.01,1.99Z"/><path class="cls-8" d="M55.72,67.07c0-1.47-.02-2.94-.02-4.41.04-.02.08-.04.12-.07,0,1.37,0,2.75,0,4.12-.03.12-.06.23-.09.35Z"/><path class="cls-8" d="M48.24,57.48c.02,1.16.03,2.33.05,3.5.02,1.19.04,2.39.08,3.66.04.83.07,1.65.1,2.48.03.84.06,1.67.08,2.51.07,9.25.65,18.7.31,27.96-.02-.66-.05-1.3-.07-1.94.27-7.42-.11-14.86-.36-22.2-.02-1.21-.03-2-.02-2.52,0-.29-.02-.58-.07-.86-.02-.69-.03-1.38-.04-2.07-.03-.8-.05-1.59-.08-2.38-.05-.9-.11-1.82-.16-2.72-.12-2.3-.04-4.25,0-6.51,0-.69.01-1.39.02-2.08,0,.03,0,.05,0,.08.08,1.03.14,2.07.18,3.11Z"/><path class="cls-2" d="M61.18,116.56c.15.32.29.65.44.98-.15-.3-.28-.6-.42-.89h0s-.01-.06-.02-.08Z"/><path class="cls-3" d="M56.29,101.22c-1.47-4.08-5.46-15.64-5.46-15.64l-2.13,3.01-.99-1.46s2.59-3.76,1.27-6.75c-.44-.99-1.2-3.01-3.09-7.42,0,.08-.02.16-.03.25-.02.2-.04.41-.06.61-.04.41-.08.84-.11,1.27-.04.42-.06.85-.09,1.27-.02.42-.05.83-.08,1.23,0,.19-.02.38-.02.57-.2-.18-.4-.36-.61-.54,0,0,0-.02,0-.02-.03-.4-.07-.82-.11-1.24-.03-.42-.07-.85-.1-1.28-.03-.43-.05-.86-.07-1.29-.01-.21-.02-.42-.03-.63,0-.21-.01-.42-.02-.62-.01-.4-.02-.8-.02-1.17,0-.38,0-.73.01-1.07,0-.14,0-.28.01-.41-1.23-2.85-4.14-10.42-7.09-18.2v-.02c-.16-.38-.3-.76-.44-1.14-.15-.37-.29-.74-.43-1.12h0c-3.72-9.84-7.24-19.31-7.24-19.31l.12-.05c.65.25,1.32.46,1.95.74.04.01.07.02.11.04.04.01.07.03.11.04h0s.04.02.05.03c.54.25.96.69,1.38,1.11.15.15.31.3.48.45.05.05.11.1.18.14.08.06.17.12.26.18.22.14.44.23.66.31.1.04.2.07.3.11.6,1.32,1.3,2.86,2.05,4.54.12.28.25.56.38.85.03.06.06.12.08.18,2.72,5.99,6.12,13.43,8.65,18.81.07.06.23.19.44.37.16.13.33.29.53.48.1.09.21.19.32.3.11.11.22.22.34.34.23.24.48.49.73.77.25.28.52.57.78.88.13.16.27.31.41.47.13.16.26.32.4.49.27.32.54.66.81,1,.27.33.54.67.8,1.01.22.29.44.57.65.85,0,.29-.02.59-.04.88-.11-.11-.22-.22-.33-.33-.29-.28-.58-.57-.89-.86-.3-.29-.61-.58-.92-.87-.31-.29-.62-.58-.94-.86-.16-.14-.31-.28-.46-.41-.15-.13-.31-.27-.46-.39-.11-.1-.23-.2-.34-.29,4.88,10.28,5.97,16.35,11.08,21.82.08.09.15.18.22.26.06.03.11.06.17.09.26.14.53.28.81.41.28.14.56.28.85.41.02,0,.04.02.07.03.05.35.1.7.13,1.05-.18-.04-.36-.08-.54-.13-.18-.04-1.99-.22-2.16-.26l2.31,4.61,1.59,3.17,3.35,6.68,2.76,5.52,1.67,3.32.02.05,1.47,2.92.88,1.76c.04.18.08.35.11.52.04.23.08.46.11.69.03.24.05.48.05.71.01.22,0,.44,0,.66,0,.21-.03.42-.07.62-.02.14-.05.29-.09.43-.13.53-.34,1.02-.63,1.48-.01.02-.03.04-.04.06-.13.2-.28.39-.44.57-.07.07-.13.14-.21.21-.09.09-.19.18-.3.27-.11.09-.22.18-.34.26-.23.17-.48.33-.76.47-.07.04-.13.07-.2.1-.15.08-.31.16-.48.23-.07.03-.13.06-.2.08-.03.01-.06.03-.1.04-.21.09-.42.15-.63.21-.04.02-.08.03-.12.04-.06.02-.13.04-.19.05-.14.03-.29.06-.43.08-.26.05-.53.07-.77.07-.09,0-.18,0-.28,0-.15,0-.31-.02-.46-.04-.1-.01-.2-.03-.3-.05-.49-.1-.95-.28-1.38-.53-.13-.07-.26-.16-.39-.25-.4-.27-.78-.61-1.14-1.01-.11-.13-.23-.26-.34-.4-.55-.67-1.04-1.48-1.47-2.37-.29-.96-.64-2.09-1.01-3.31-.12-.39-.24-.79-.37-1.2h0c-.67-2.17-1.4-4.49-2.02-6.43-.05-.13-.09-.27-.13-.4,0,.02,0,.05,0,.07,0,.02,0,.03,0,.05-.02.2-.04.41-.06.62-.04.41-.08.84-.11,1.26-.04.42-.06.85-.09,1.27-.02.38-.04.75-.07,1.12-.23-.17-.47-.34-.7-.51-.02-.19-.04-.39-.05-.6-.03-.42-.07-.85-.1-1.28-.03-.43-.06-.86-.07-1.29-.01-.21-.02-.42-.03-.63,0-.21-.01-.41-.02-.62-.02-.41-.02-.8-.02-1.18,0-.37,0-.73.01-1.06,0-.02,0-.04,0-.07,0-.14,0-.28.01-.41,0-.01,0-.02,0-.03h0c0-.14.02-.27.03-.4,0-.02,0-.04,0-.06Z"/><path class="cls-9" d="M41.85,48.37c.34.89.68,1.78,1.02,2.68-.28-.78-.57-1.56-.86-2.34-.05-.11-.1-.23-.16-.34Z"/><path class="cls-9" d="M60.95,93.06c-.44-1.04-.87-2.08-1.3-3.13-3.31-8.73-6.82-17.43-11.04-25.58,3.92,8.1,7.63,16.33,10.78,25.05.44,1.06.92,2.22,1.37,3.29.88,2.27,1.81,4.26,2.81,6.38.49,1.05.97,2.11,1.46,3.16-.45-.99-.9-1.97-1.35-2.96-.95-2.06-1.86-4.13-2.73-6.22Z"/><path class="cls-9" d="M43.96,56.13c-1.76-4.26-3.42-8.54-4.96-12.86-.47-1.09-.99-2.35-1.46-3.44-.97-2.25-1.93-4.5-2.89-6.75.1.04.2.07.3.11.6,1.32,1.3,2.86,2.05,4.54.11.24.22.48.33.73l.05.12c.03.06.06.12.08.18.38.84.74,1.67,1.11,2.51.39.94.77,1.9,1.16,2.85.39.98.78,1.95,1.2,3.05.92,2.73,1.91,5.43,2.96,8.11.35.89.7,1.78,1.06,2.67.37.95.82,2.02,1.21,2.98,4.46,9.08,8.79,18.09,12.29,28.03.45,1.09.94,2.29,1.4,3.38.92,2.17,1.85,4.34,2.8,6.49.53,1.1,1.06,2.21,1.58,3.32.39.83.78,1.67,1.17,2.5.39.84.78,1.67,1.16,2.52.31.66,3,6.95,5.03,11.69-.07.07-.13.14-.21.21-1.98-4.61-4.54-10.57-4.79-11.11-.46-.99-.95-2.05-1.42-3.04-.92-1.98-1.85-3.96-2.78-5.94-.54-1.15-1.09-2.33-1.66-3.59-.35-.99-.71-1.98-1.08-2.95-.37-.98-.74-1.96-1.12-2.93-3.23-9.04-7.06-17.47-11.44-26.19-.81-1.51-1.41-3.1-2.08-4.62-.36-.85-.71-1.7-1.06-2.56Z"/><path class="cls-9" d="M42.4,53.8c-1.02-2.55-2.05-5.11-3.1-7.69-.42-.98-.91-2.15-1.35-3.14-.42-.95-.83-1.85-1.24-2.74-1.24-2.73-2.45-5.47-3.64-8.22.15.15.31.3.48.45.06.05.11.09.17.13h0c1.15,2.65,2.32,5.29,3.5,7.91.44.99.88,1.98,1.35,3.03,1.04,2.79,2.11,5.57,3.22,8.34.37.92.74,1.85,1.11,2.77.34.83.68,1.66,1.03,2.5s.69,1.67,1.04,2.5c2.28,5.46,4.81,10.21,7.31,15.5,2.41,5.06,3.99,10.21,5.99,15.09.44,1.09.89,2.19,1.32,3.29.44,1.1.88,2.2,1.33,3.3.51.96,1.09,2.22,1.62,3.33.47.97.93,1.94,1.39,2.91.46.98.91,1.96,1.37,2.94.51,1.1,3.55,8.17,5.79,13.35-.11.09-.22.18-.34.26-1.99-4.64-4.5-10.52-4.77-11.11-.48-1.05-1.01-2.16-1.5-3.21-.99-2.08-1.99-4.16-3.03-6.22-.52-1.11-1.01-2.21-1.51-3.36-.38-.91-.75-1.83-1.12-2.75-.37-.92-.74-1.84-1.11-2.76-3.28-9.36-7.23-18.27-11.65-27.16-.48-1.14-.93-2.24-1.37-3.35-.43-1.1-.86-2.2-1.28-3.31-.34-.86-.69-1.71-1.03-2.56Z"/><path class="cls-9" d="M51.1,62.98c-.08-.1-.16-.2-.24-.3-.04-.05-.08-.1-.12-.15.08.24.17.48.25.72.17.48.34.95.52,1.43.11.1.21.2.31.3-.24-.67-.48-1.34-.72-2Z"/><path class="cls-9" d="M62.83,92.89l1.91,3.49c.35.76.71,1.55,1.04,2.29.43.95,1.5,3.42,2.79,6.4,1.36,3.15,2.97,6.87,4.31,9.98.01.22,0,.44,0,.66-1.86-4.35-4-9.36-4.21-9.83-.79-1.72-1.57-3.44-2.34-5.18-.17-.39-.34-.77-.51-1.16-.27-.61-.54-1.22-.81-1.83-.72-1.61-1.44-3.22-2.16-4.83Z"/><path class="cls-9" d="M34.38,37.92c-1.01-2.32-1.94-4.75-2.95-7.13h0c.07.02.15.05.21.08h0c.87,2.11,1.68,4.22,2.61,6.4.52,1.11,1.04,2.21,1.56,3.32.44.97.88,1.94,1.31,2.91.44.99.93,2.1,1.36,3.1.39.87.78,1.75,1.17,2.63.39.88.77,1.77,1.15,2.66,1.36,3.22,2.64,6.43,3.92,9.62.43,1.07.88,2.15,1.31,3.22,3.47,7.88,7.14,15.31,10.13,23.39.36.86.71,1.73,1.06,2.61.7,1.74,1.38,3.49,2.04,5.25.49,1.08,1.02,2.33,1.53,3.48,1.21,2.6,2.4,5.16,3.57,7.7.39.86.82,1.77,1.2,2.61.24.52,2.52,5.84,4.44,10.3-.07.04-.13.07-.2.1-2.02-4.68-4.66-10.81-4.94-11.44-.41-.88-.81-1.76-1.22-2.64-.81-1.74-1.61-3.48-2.41-5.2-.39-.85-.77-1.7-1.13-2.54-.38-.85-.75-1.72-1.12-2.54-1.03-2.53-2.06-5.07-3.09-7.61-.34-.85-.69-1.7-1.04-2.58-2.48-7.09-6-13.8-8.94-20.72-.43-1.07-.88-2.17-1.31-3.26-1.28-3.23-2.55-6.46-3.89-9.66-.39-.91-.77-1.82-1.17-2.72-.39-.91-.79-1.81-1.18-2.71-.39-.9-.86-1.95-1.27-2.87-.41-.9-.82-1.8-1.25-2.69-.48-1.03-.97-2.06-1.45-3.09Z"/><path class="cls-9" d="M66.43,105.29c-.42-.94-.85-1.87-1.28-2.8.4.87.8,1.73,1.21,2.6.44.95.91,1.97,1.33,2.9.16.35,2.52,5.88,4.39,10.25-.01.02-.03.04-.04.06-1.84-4.33-4.15-9.76-4.29-10.07-.43-.92-.89-1.98-1.32-2.93Z"/><path class="cls-9" d="M65.04,102.24s.01.02.02.03c.03.07.07.14.09.21-.04-.08-.08-.16-.11-.25Z"/><path class="cls-9" d="M65.94,98.56l.81,1.48c.6,1.29,2.82,6.41,4.97,11.32.33.77.67,1.54,1,2.29.04.23.08.46.11.69-.82-1.86-1.71-3.91-2.58-5.9l-.02-.05c-1.92-4.4-3.71-8.52-4.29-9.83Z"/><path class="cls-9" d="M59.12,83.35s-.07-.09-.11-.13c-.05-.05-.1-.11-.14-.16.32.72.64,1.45.97,2.17.05,0,.1.01.15.02-.29-.63-.58-1.26-.87-1.9Z"/><path class="cls-9" d="M61.25,85.47c0-.1-.02-.19-.03-.29-.17-.32-.34-.64-.51-.95-.11-.05-.21-.1-.31-.15.24.46.49.91.74,1.37.04,0,.07.02.11.03Z"/><path class="cls-9" d="M62.56,107.63c.35.78.71,1.55,1.07,2.32.47.99.96,2.02,1.43,3.01.12.27,1.73,4.03,3.33,7.77-.04.02-.08.03-.12.04-1.96-4.54-4.29-9.97-4.55-10.55-.4-.86-.78-1.72-1.16-2.58Z"/><path class="cls-9" d="M58.34,97.72c1.31,3.38,2.74,6.67,4.22,9.91-1.38-3.12-2.7-6.27-3.93-9.44-.43-1.02-.85-2.04-1.27-3.07-.42-1.03-.83-2.07-1.23-3.12-.03-.05-.06-.1-.09-.15.33.93.68,1.83,1.03,2.73.42,1.06.84,2.11,1.27,3.15Z"/><path class="cls-9" d="M55.92,96.91c-.06-.61-.1-1.19-.34-1.75-.47-1.08-.94-2.18-1.4-3.26-.45-1.04-.9-2.13-1.34-3.17-.3-.8-.6-1.61-.9-2.41-.3-.8-.62-1.62-.92-2.41-.45-1.07-.9-2.15-1.36-3.28-4-9.81-7.24-19.6-12.19-28.92v-.02c-.16-.38-.3-.76-.44-1.14-.15-.37-.29-.74-.43-1.12,5.61,10.25,9.26,21.63,13.81,32.61.37.93.76,1.89,1.14,2.82.36.96.71,1.93,1.05,2.9.47,1.14.91,2.19,1.36,3.23.29.69.63,1.47.93,2.16.37.87.75,1.72,1.12,2.58.38.87.77,1.79,1.15,2.66,1.76,4.54,3.67,8.99,5.68,13.39.41.9.83,1.83,1.25,2.73.12.26,1.37,3.22,2.76,6.48-.09,0-.18,0-.28,0-1.62-3.79-3.17-7.39-3.43-7.93-.52-1.09-1.04-2.17-1.55-3.26-2.04-4.34-4-8.67-5.7-12.87Z"/><path class="cls-9" d="M56.32,106c.15.29.3.57.46.86-.15-.33-.31-.65-.47-.98,0,.04,0,.08,0,.12Z"/><path class="cls-9" d="M56.78,106.85c.18.39.36.77.53,1.16,0,0,0-.01,0-.02-.15-.34-.3-.67-.46-1-.03-.05-.05-.1-.08-.14Z"/><path class="cls-9" d="M46.2,67.15c.74,1.91,1.54,3.83,2.39,5.75-.64-1.54-1.28-3.08-1.93-4.62-.16-.38-.31-.76-.46-1.13Z"/><path class="cls-9" d="M61.01,102.55c-.42-.98-.84-1.98-1.25-2.97-.42-.98-.84-1.97-1.25-2.96-.41-1-.83-2.08-1.22-3.08-.67-1.88-1.42-3.73-2.22-5.59-.4-.92-.81-1.85-1.23-2.78-1.87-4.09-3.56-8.2-5.24-12.27,1.8,4.11,3.75,8.21,5.45,12.29.41.92.81,1.85,1.2,2.77.78,1.85,1.52,3.72,2.18,5.62.48,1.2.97,2.39,1.46,3.55s.99,2.31,1.5,3.46c.42.96.85,1.93,1.27,2.88.67,1.55,1.37,3.13,2.09,4.7.36.79.73,1.57,1.1,2.36.24.53,2.4,5.55,4.29,9.94-.03.01-.06.03-.1.04-1.82-4.21-3.8-8.83-4.01-9.28-.42-.93-.89-1.93-1.34-2.89-.45-.96-.9-1.92-1.36-2.86-.44-.97-.88-1.95-1.3-2.93Z"/><path class="cls-9" d="M44.59,62.95c-1.3-3.39-2.62-6.79-4.08-10.18-.38-.86-.78-1.76-1.18-2.63-.4-.87-.81-1.73-1.23-2.6-.45-1-.85-1.89-1.27-2.79-.4-.88-.81-1.76-1.23-2.63-.41-.92-.86-1.93-1.27-2.86-.36-.86-.72-1.72-1.09-2.58-.74-1.54-1.55-3.05-2.21-4.61-.23-.56-.45-1.13-.68-1.69-.04-.02-.09-.03-.13-.05.5,1.19.99,2.38,1.5,3.56.5,1.38,1.26,2.37,1.76,3.75.35.87.71,1.75,1.07,2.62.43.95.85,1.9,1.28,2.85.42.95.84,1.9,1.26,2.84.43.9.86,1.8,1.29,2.7.43.9.85,1.81,1.26,2.72,2.12,4.68,4.01,9.38,5.88,14.09.23.57.46,1.14.69,1.71-.11-.27-.21-.55-.31-.82-.43-1.13-.87-2.26-1.3-3.39Z"/><path class="cls-9" d="M39.19,51.24c-.46-.92-.93-1.84-1.41-2.74-.44-.94-.84-1.8-1.23-2.65-.39-.83-.78-1.66-1.17-2.49-.39-.9-.74-1.74-1.1-2.58-.35-.84-.7-1.68-1.05-2.52-.97-2.5-2.29-4.58-3.26-7.08-.15-.37-.29-.74-.44-1.12-.01,0-.03-.01-.04-.02h0c.55,1.37,1.11,2.72,1.65,4.08.78,2.05,2,3.91,2.79,5.96.31.75.65,1.55.93,2.24.38.85.77,1.7,1.15,2.55.39.86.81,1.79,1.19,2.64.49.95.97,1.9,1.44,2.86,1.01,2.11,1.95,4.24,2.86,6.4-.86-1.93-1.75-3.83-2.71-5.69-.48-.92-.96-1.84-1.46-2.75-.4-.83-.82-1.69-1.22-2.5-.39-.8-.78-1.6-1.17-2.39-.34-.8-.8-1.84-1.19-2.75-1.38-3.25-2.74-6.53-4.1-9.82.4,1.08,1.21,3.24,2.25,6.02.18.32.34.64.47.95.4.97.8,1.94,1.21,2.9.41.96.88,2.05,1.29,3.01.31.65.62,1.31.93,1.96.31.66.62,1.31.92,1.97.57,1.06,1.12,2.13,1.65,3.21,4.98,9.8,7.93,20.19,12.42,30.2.3.69.6,1.41.89,2.11.88,2.09,1.73,4.2,2.53,6.27.39.8.81,1.71,1.23,2.54.41.81.83,1.61,1.28,2.41,0,.01.01.03.02.04-.41-.95-.82-1.91-1.23-2.86-.65-1.59-1.3-3.17-1.94-4.74.73,1.71,1.53,3.38,2.48,4.99-.06-.18-.13-.36-.19-.54-1.41-2.69-2.64-5.53-3.82-8.42-.08-.19-.15-.38-.23-.56-.25-.68-.5-1.37-.75-2.04-1.65-3.92-3.19-7.76-4.65-11.75-.37-.98-.75-1.96-1.13-2.94-1.88-4.88-3.82-9.7-6.07-14.34Z"/><path class="cls-9" d="M56.74,94.45c.08.18.16.37.24.55-.06-.18-.13-.36-.24-.55Z"/><path class="cls-9" d="M56.98,95l.03.07c.45,1.04.91,2.08,1.36,3.12.46,1.04.92,2.1,1.38,3.19,1.25,3.14,2.58,6.27,3.98,9.36.27.59,2.43,5.63,4.35,10.07-.14.03-.29.06-.43.08-1.74-4.07-3.58-8.37-3.77-8.79-.37-.8-.72-1.6-1.08-2.41-1.79-4.02-3.5-8.12-5.28-12.18-.44-.89-.29-1.68-.54-2.51Z"/><path class="cls-9" d="M45.4,57.53c-.88-2.13-1.72-4.31-2.54-6.49.91,2.49,1.8,4.98,2.84,7.46.33.79.68,1.58,1.07,2.42.63,1.13,1.24,2.28,1.84,3.43-.76-1.56-1.52-3.11-2.29-4.67-.27-.62-.62-1.43-.93-2.15Z"/><path class="cls-9" d="M60.09,113.01c-.12-.39-.24-.79-.37-1.2.1.21.19.43.28.64.4.92.81,1.86,1.27,2.87.15.32.8,1.79,1.64,3.76-.11-.13-.23-.26-.34-.4-.62-1.45-1.06-2.48-1.15-2.71-.47-1.04-.91-2.03-1.33-2.97Z"/><path class="cls-9" d="M44.77,76.28s0,.06,0,.09c.01.17.03.33.04.49.12.34.24.69.37,1.03.09.08.18.16.27.24-.22-.62-.45-1.23-.69-1.85Z"/><path class="cls-9" d="M49.5,85.86c-.17-.47-.34-.94-.51-1.41-.04.12-.08.23-.12.34.05.17.11.35.17.52.21.63.43,1.26.65,1.89l.2-.28c-.13-.35-.26-.7-.39-1.06Z"/><path class="cls-9" d="M56.25,102.13c0-.14,0-.28.01-.41,0-.01,0-.02,0-.03l.12.24c.44,1.05.94,2.16,1.39,3.21.79,1.84,1.59,3.68,2.41,5.5.4.91.85,1.89,1.23,2.73.41.93.82,1.85,1.23,2.76.09.21.84,1.96,1.8,4.22-.13-.07-.26-.16-.39-.25-1.2-2.81-2.2-5.14-2.34-5.47-.41-.91-.79-1.76-1.16-2.61-.74-1.68-1.46-3.37-2.19-5.06-.22-.53-.44-1.05-.66-1.57-.05-.13-.09-.27-.13-.4,0,.03,0,.05,0,.08h0s-.42-1-.42-1c-.3-.65-.6-1.29-.89-1.92Z"/><path class="cls-9" d="M44.54,72.1c0,.15,0,.3.01.45,0,.1,0,.21,0,.31.37.91.73,1.83,1.08,2.75.01-.16.02-.32.04-.47-.37-1.01-.75-2.02-1.14-3.04Z"/><path class="cls-9" d="M61.21,116.65h0s-.01-.06-.02-.08c.15.32.29.65.44.98-.15-.3-.28-.6-.42-.89Z"/><path class="cls-9" d="M57.39,106.89c.01-.13.02-.26.03-.39-.38-.87-.76-1.74-1.19-2.66,0,.19,0,.39.02.59,0,.05,0,.1,0,.14.25.47.49.94.74,1.41.13.3.26.6.4.9Z"/><path class="cls-9" d="M48.54,86.88c-.08-.25-.17-.5-.25-.75-.08.16-.16.3-.23.42.06.18.12.37.17.55.17.46.34.93.52,1.4l.25-.36c-.16-.42-.32-.85-.47-1.27Z"/><path class="cls-9" d="M57.09,109.27s.09.06.13.1c0-.04,0-.09,0-.14-.27-.59-.56-1.2-.82-1.78.01.16.02.32.04.48.22.44.43.89.65,1.34Z"/><path class="cls-9" d="M61.66,117.63s.09.21.21.47c-.12-.27-.19-.43-.21-.47Z"/><path class="cls-9" d="M56.52,99.78c.22.44.48.81.74,1.18-.56-1.38-1.12-2.75-1.67-4.13-.15-.33-.29-.67-.44-1,.54,1.44.74,2.66,1.37,3.96Z"/><path class="cls-9" d="M59.62,85.21c-.4-.87-.79-1.75-1.18-2.62-.19-.21-.37-.43-.54-.65.46,1.08.93,2.16,1.41,3.24.1.01.21.02.31.03Z"/><path class="cls-9" d="M49.68,62.95c-.44-1.03-.88-2.05-1.33-3.08-.04-.1-.08-.19-.12-.28-.17-.18-.34-.36-.5-.52-.08-.09-.16-.17-.24-.25.6,1.24,1.18,2.49,1.76,3.75.14.13.29.26.43.39Z"/><path class="cls-9" d="M57.27,100.97c.39.55.78,1.08,1.02,1.77,1.16,2.88,2.39,5.73,3.66,8.55.43.96.89,1.97,1.34,2.92.16.39,1.43,3.38,2.84,6.71-.1-.01-.2-.03-.3-.05-1.47-3.46-2.81-6.6-3.02-7.08-.38-.82-.87-1.92-1.29-2.87-1.48-3.31-2.88-6.63-4.25-9.95Z"/><path class="cls-9" d="M49.95,61.55c-.1-.12-.2-.24-.3-.36-.06-.07-.12-.14-.18-.21.41.96.82,1.93,1.21,2.9.12.11.24.23.36.34-.36-.89-.72-1.78-1.09-2.67Z"/><path class="cls-9" d="M60.07,87.86l.76,1.39c.09.19.17.39.26.58.44.99.88,1.98,1.33,2.96l.03.08c.43.96.88,1.92,1.33,2.87.52,1.15.98,2.2,1.45,3.24.93,2.09,1.87,4.16,2.81,6.23.29.63,2.78,6.46,4.78,11.12-.02.14-.05.29-.09.43-2.01-4.7-4.56-10.68-4.84-11.32-.92-2.06-1.84-4.12-2.74-6.18-.46-1.03-.95-2.13-1.43-3.21-.47-1.03-.94-2.05-1.4-3.08-.46-1.03-.92-2.06-1.37-3.09l-.08-.18c-.26-.61-.53-1.22-.79-1.83Z"/><path class="cls-9" d="M57.21,81.07c.57,1.36,1.14,2.71,1.7,4.06.04,0,.09.01.13.02-.54-1.26-1.08-2.53-1.62-3.79-.07-.1-.15-.19-.22-.29Z"/><path class="cls-9" d="M54.08,92.82c-.44-1.08-.88-2.16-1.32-3.24-.45-1.1-.9-2.21-1.36-3.4-.29-.78-.58-1.55-.88-2.32-.3-.78-.6-1.55-.91-2.34-3.55-8.54-6.71-17.46-10.64-25.86.23.61.47,1.22.69,1.82,3.15,6.72,5.7,13.72,8.35,20.58.46,1.12.75,1.85.96,2.33.12.27.21.54.27.82.25.64.51,1.28.77,1.92.29.74.57,1.49.86,2.23.31.85.61,1.72.92,2.57.79,2.17,1.62,3.93,2.54,6,.27.64.55,1.27.83,1.91,0-.02-.02-.05-.03-.07-.33-.97-.68-1.95-1.05-2.94Z"/></g></svg>