<?xml version="1.0" encoding="UTF-8"?><svg xmlns="http://www.w3.org/2000/svg" xmlns:xlink="http://www.w3.org/1999/xlink" viewBox="0 0 102.24 150.24"><defs><style>.cls-1{fill:none;stroke:#1e1e1c;stroke-miterlimit:10;stroke-width:.25px;}.cls-2{fill:url(#linear-gradient-2);}.cls-3{fill:#fcc12d;}.cls-4{fill:url(#linear-gradient);}.cls-5{fill:#356d55;}.cls-6{fill:#ffe7a1;}.cls-7{fill:#fed695;}</style><linearGradient id="linear-gradient" x1="2668.99" y1="28.23" x2="2669.51" y2="29.03" gradientTransform="translate(2952.13 1366.06) rotate(-154.52) scale(1.19 -1.19) skewX(-.02)" gradientUnits="userSpaceOnUse"><stop offset="0" stop-color="#658e4c"/><stop offset="1" stop-color="#a0b37a"/></linearGradient><linearGradient id="linear-gradient-2" x1="2633.03" y1="19.56" x2="2680.94" y2="94.44" xlink:href="#linear-gradient"/></defs><g id="NOOOOO"><g id="margem"><polyline class="cls-1" points="21.32 141.14 10.38 141.14 10.38 75.95 10.38 9.1 21.32 9.1"/><line class="cls-1" x1="31.32" y1="9.1" x2="45.53" y2="9.1"/><polyline class="cls-1" points="80.92 9.1 91.86 9.1 91.86 141.14 80.92 141.14"/><line class="cls-1" x1="31.32" y1="9.1" x2="45.53" y2="9.1"/><line class="cls-1" x1="70.92" y1="141.14" x2="56.71" y2="141.14"/><line class="cls-1" x1="56.71" y1="9.1" x2="70.92" y2="9.1"/><line class="cls-1" x1="45.53" y1="141.14" x2="31.32" y2="141.14"/></g></g><g id="BASTOS"><path class="cls-4" d="M64.74,28.96c.19-.36.37-.73.55-1.1-.18.34-.35.67-.52,1v.02s-.03.05-.03.08Z"/><path class="cls-2" d="M58.4,46.27c-1.89,4.59-7.01,17.62-7.01,17.62l-2.29-3.55-1.21,1.62s2.78,4.43,1.12,7.78c-.56,1.11-1.52,3.39-3.9,8.33,0-.09-.01-.18-.02-.28,0-.23-.02-.47-.04-.7-.03-.48-.05-.97-.06-1.45-.02-.49-.03-.97-.04-1.46,0-.48-.02-.95-.03-1.41,0-.22,0-.44,0-.65-.24.2-.48.39-.72.58,0,0,0,.02,0,.02-.06.46-.12.93-.18,1.41-.06.48-.12.97-.17,1.46-.05.49-.1.98-.15,1.47-.03.24-.04.48-.07.72-.02.24-.04.48-.05.71-.03.46-.06.91-.08,1.34-.03.43-.03.84-.04,1.22,0,.16,0,.32,0,.47-1.54,3.2-5.25,11.71-9,20.47v.03c-.2.43-.38.86-.56,1.29-.19.42-.37.84-.54,1.26h0c-4.74,11.08-9.23,21.73-9.23,21.73l.14.07c.76-.26,1.54-.46,2.27-.75.04-.01.08-.02.12-.04.04-.01.08-.03.12-.04h0s.04-.02.06-.03c.63-.26,1.13-.74,1.63-1.2.18-.17.37-.33.57-.49.06-.05.13-.11.21-.16.1-.07.2-.13.3-.19.26-.14.52-.24.77-.32.11-.04.23-.07.35-.11.75-1.48,1.62-3.21,2.57-5.09.16-.31.32-.63.48-.95.04-.06.07-.14.1-.2,3.4-6.72,7.65-15.07,10.82-21.1.09-.07.27-.2.52-.4.19-.14.39-.32.63-.53.12-.1.24-.21.38-.32.13-.12.26-.25.4-.37.27-.26.57-.54.87-.85.3-.31.62-.63.94-.97.16-.17.32-.34.49-.52.16-.18.32-.36.48-.54.33-.36.65-.73.98-1.1.33-.37.65-.74.96-1.11.27-.32.53-.63.78-.94,0-.33,0-.67,0-1.01-.13.12-.26.24-.4.36-.34.3-.7.62-1.06.94-.36.32-.73.64-1.1.95-.37.32-.74.63-1.11.94-.18.15-.37.3-.55.45-.18.14-.37.29-.54.43-.14.11-.27.21-.4.32,6.08-11.52,7.63-18.41,13.74-24.41.1-.1.18-.19.26-.29.07-.03.13-.06.2-.09.31-.15.62-.29.94-.43.33-.15.66-.29.99-.43.02,0,.05-.02.08-.03.08-.39.15-.79.2-1.19-.21.03-.41.08-.62.12-.2.04-2.28.15-2.49.19l2.87-5.16,1.97-3.55,4.16-7.48,3.43-6.18,2.07-3.72.02-.05,1.83-3.27,1.1-1.97c.06-.2.11-.4.16-.59.06-.26.12-.52.16-.78.05-.28.08-.55.09-.81.03-.25.03-.51.02-.76,0-.24-.01-.48-.04-.71-.02-.17-.04-.33-.08-.49-.12-.61-.34-1.19-.65-1.73-.01-.03-.03-.05-.04-.07-.14-.24-.3-.46-.47-.67-.07-.09-.15-.17-.23-.25-.1-.11-.21-.21-.32-.32-.12-.11-.24-.22-.38-.32-.25-.2-.53-.4-.84-.58-.07-.05-.14-.09-.22-.12-.17-.1-.35-.19-.54-.28-.08-.04-.15-.07-.23-.1-.04-.02-.07-.03-.11-.05-.24-.11-.48-.2-.72-.27-.04-.02-.09-.04-.14-.05-.07-.03-.14-.05-.22-.07-.16-.05-.33-.09-.49-.11-.3-.07-.6-.11-.88-.12-.11,0-.21-.01-.32,0-.18,0-.35,0-.53.02-.12,0-.23.02-.35.04-.57.09-1.1.28-1.61.54-.16.08-.31.16-.46.26-.48.29-.93.66-1.35,1.1-.14.14-.27.28-.4.44-.66.74-1.26,1.64-1.8,2.64-.38,1.08-.84,2.36-1.32,3.74-.16.44-.32.9-.49,1.36h0c-.87,2.45-1.82,5.07-2.62,7.26-.06.15-.11.3-.17.45,0-.03,0-.05,0-.08,0-.02,0-.04,0-.06,0-.23-.02-.47-.04-.71-.03-.48-.05-.96-.07-1.45-.02-.49-.03-.98-.04-1.46,0-.44-.01-.86-.02-1.28-.27.19-.55.37-.82.55-.03.22-.06.45-.09.68-.06.48-.12.97-.17,1.46-.05.5-.11.98-.15,1.47-.02.24-.04.48-.07.72-.02.24-.03.47-.05.71-.04.47-.06.92-.08,1.35-.03.43-.03.84-.04,1.21,0,.03,0,.05,0,.08,0,.16,0,.32,0,.47,0,.01,0,.02,0,.04h0c0,.16,0,.31.01.46,0,.03,0,.04,0,.07Z"/><path class="cls-5" d="M39.29,106.03c.43-1,.86-2,1.3-3.01-.36.88-.73,1.75-1.1,2.63-.06.13-.13.26-.2.38Z"/><path class="cls-5" d="M63.33,55.84c-.55,1.17-1.1,2.34-1.64,3.52-4.22,9.83-8.66,19.6-13.88,28.72,4.88-9.07,9.53-18.3,13.56-28.13.55-1.19,1.16-2.5,1.73-3.69,1.12-2.56,2.28-4.78,3.52-7.16.61-1.18,1.22-2.36,1.83-3.54-.56,1.11-1.12,2.21-1.69,3.32-1.19,2.31-2.33,4.64-3.43,6.98Z"/><path class="cls-5" d="M42.08,97.25c-2.22,4.78-4.33,9.6-6.31,14.46-.59,1.22-1.24,2.64-1.84,3.86-1.22,2.53-2.42,5.05-3.63,7.58.11-.04.23-.07.35-.11.75-1.48,1.62-3.21,2.57-5.09.14-.27.28-.54.42-.82l.06-.13c.04-.06.07-.14.1-.2.47-.94.93-1.88,1.39-2.82.49-1.06.98-2.13,1.47-3.2.49-1.1.99-2.2,1.52-3.43,1.18-3.08,2.45-6.12,3.78-9.13.44-1,.89-2,1.34-3,.47-1.07,1.03-2.27,1.53-3.36,5.55-10.17,10.95-20.26,15.44-31.46.57-1.22,1.19-2.58,1.76-3.8,1.16-2.44,2.33-4.87,3.52-7.28.66-1.24,1.32-2.48,1.97-3.72.49-.94.98-1.87,1.46-2.8.48-.94.97-1.88,1.45-2.82.39-.74,3.77-7.8,6.33-13.13-.07-.09-.15-.17-.23-.25-2.49,5.17-5.71,11.87-6.03,12.48-.57,1.11-1.19,2.3-1.77,3.41-1.15,2.22-2.31,4.44-3.47,6.66-.67,1.29-1.36,2.61-2.08,4.03-.45,1.12-.91,2.23-1.38,3.33-.47,1.1-.94,2.2-1.42,3.29-4.14,10.18-8.93,19.64-14.37,29.4-1,1.68-1.76,3.48-2.61,5.19-.45.96-.9,1.91-1.34,2.88Z"/><path class="cls-5" d="M40.18,99.84c-1.29,2.87-2.6,5.75-3.92,8.64-.53,1.1-1.15,2.42-1.7,3.52-.53,1.06-1.04,2.07-1.55,3.08-1.55,3.06-3.07,6.14-4.56,9.23.18-.17.37-.33.57-.49.07-.05.13-.09.2-.15h0c1.44-2.97,2.91-5.93,4.39-8.88.55-1.11,1.11-2.22,1.69-3.4,1.32-3.14,2.69-6.27,4.09-9.38.47-1.04.94-2.08,1.41-3.11.43-.93.86-1.87,1.3-2.81s.87-1.87,1.31-2.81c2.88-6.14,6-11.44,9.12-17.37,3-5.67,5.07-11.48,7.59-16.96.56-1.23,1.12-2.46,1.68-3.69.56-1.23,1.11-2.47,1.68-3.71.63-1.07,1.35-2.48,2.02-3.73.58-1.08,1.16-2.17,1.74-3.26.57-1.09,1.14-2.2,1.71-3.3.64-1.23,4.46-9.17,7.27-14.99-.12-.11-.24-.22-.38-.32-2.5,5.21-5.67,11.81-6,12.48-.6,1.17-1.26,2.43-1.87,3.59-1.23,2.34-2.49,4.66-3.77,6.97-.65,1.25-1.26,2.47-1.89,3.78-.48,1.03-.95,2.06-1.42,3.09-.47,1.03-.94,2.06-1.41,3.1-4.21,10.55-9.16,20.54-14.66,30.5-.61,1.28-1.17,2.52-1.73,3.77-.55,1.24-1.1,2.48-1.63,3.72-.43.96-.87,1.92-1.3,2.88Z"/><path class="cls-5" d="M50.59,89.77c-.1.11-.19.22-.29.33-.05.05-.09.11-.14.16.11-.27.22-.54.32-.81.22-.54.44-1.08.66-1.61.13-.11.25-.22.37-.33-.3.75-.61,1.51-.92,2.26Z"/><path class="cls-5" d="M65.47,56.13l2.36-3.9c.43-.86.89-1.74,1.3-2.57.54-1.06,1.88-3.84,3.5-7.18,1.71-3.54,3.73-7.72,5.42-11.2.03-.25.03-.51.02-.76-2.35,4.89-5.03,10.51-5.3,11.03-.99,1.93-1.97,3.86-2.94,5.81-.21.43-.42.87-.64,1.3-.34.68-.68,1.37-1.01,2.05-.9,1.81-1.81,3.61-2.71,5.42Z"/><path class="cls-5" d="M30.23,117.61c-1.27,2.61-2.46,5.34-3.72,8.01h0c.08-.02.17-.05.25-.09h0c1.1-2.37,2.13-4.74,3.3-7.19.65-1.24,1.3-2.48,1.94-3.72.55-1.08,1.1-2.17,1.64-3.26.56-1.11,1.17-2.36,1.71-3.48.49-.98.98-1.97,1.46-2.96.48-.99.97-1.98,1.45-2.98,1.72-3.62,3.33-7.23,4.95-10.81.55-1.2,1.11-2.42,1.66-3.62,4.36-8.84,8.92-17.16,12.73-26.26.46-.97.9-1.95,1.34-2.93.89-1.95,1.75-3.93,2.59-5.91.61-1.22,1.28-2.62,1.92-3.9,1.51-2.91,2.99-5.78,4.46-8.63.49-.96,1.02-1.99,1.5-2.93.3-.58,3.17-6.56,5.58-11.57-.07-.05-.14-.09-.22-.12-2.54,5.26-5.86,12.14-6.21,12.84-.51.99-1.02,1.97-1.52,2.95-1.01,1.95-2.02,3.9-3.02,5.83-.49.96-.96,1.91-1.42,2.86-.47.95-.95,1.93-1.41,2.85-1.3,2.84-2.6,5.7-3.91,8.55-.44.96-.87,1.92-1.32,2.9-3.18,7.99-7.54,15.49-11.24,23.26-.54,1.2-1.11,2.44-1.65,3.66-1.62,3.63-3.23,7.27-4.93,10.86-.49,1.02-.97,2.04-1.47,3.06-.49,1.02-.99,2.03-1.49,3.05-.49,1.01-1.08,2.19-1.6,3.22-.51,1.01-1.03,2.01-1.56,3.01-.6,1.16-1.21,2.31-1.81,3.46Z"/><path class="cls-5" d="M70.19,42.12c-.53,1.05-1.07,2.1-1.6,3.15.5-.97,1-1.94,1.51-2.91.55-1.06,1.13-2.21,1.67-3.25.21-.39,3.17-6.6,5.53-11.51-.01-.03-.03-.05-.04-.07-2.32,4.86-5.23,10.96-5.4,11.31-.53,1.04-1.12,2.22-1.66,3.28Z"/><path class="cls-5" d="M68.45,45.54s.02-.02.02-.04c.04-.08.08-.16.12-.24-.05.09-.09.18-.14.27Z"/><path class="cls-5" d="M69.3,49.8l1-1.66c.74-1.44,3.54-7.19,6.24-12.7.42-.87.84-1.73,1.25-2.57.06-.26.12-.52.16-.78-1.03,2.09-2.15,4.39-3.24,6.62l-.02.05c-2.41,4.94-4.66,9.57-5.39,11.03Z"/><path class="cls-5" d="M60.76,66.86s-.09.1-.14.14c-.06.06-.11.12-.17.17.4-.81.81-1.62,1.22-2.43.06,0,.12,0,.18-.01-.36.71-.73,1.42-1.09,2.13Z"/><path class="cls-5" d="M63.3,64.54c-.01.11-.03.22-.05.33-.21.36-.42.71-.62,1.07-.12.05-.24.11-.37.16.3-.51.6-1.02.91-1.53.04,0,.08-.02.13-.03Z"/><path class="cls-5" d="M65.88,39.25c.44-.87.89-1.74,1.34-2.6.58-1.11,1.2-2.26,1.79-3.37.16-.3,2.17-4.52,4.19-8.73-.04-.02-.09-.04-.14-.05-2.46,5.1-5.39,11.19-5.72,11.85-.49.96-.97,1.93-1.45,2.89Z"/><path class="cls-5" d="M60.56,50.37c1.67-3.8,3.46-7.49,5.31-11.13-1.73,3.5-3.4,7.04-4.96,10.61-.54,1.14-1.07,2.29-1.6,3.45-.53,1.16-1.05,2.32-1.56,3.51-.04.06-.07.12-.11.17.43-1.05.86-2.06,1.31-3.07.53-1.19,1.06-2.38,1.61-3.55Z"/><path class="cls-5" d="M57.76,51.19c-.1.69-.17,1.36-.47,1.99-.59,1.22-1.18,2.44-1.77,3.66-.56,1.17-1.13,2.39-1.69,3.56-.38.91-.76,1.81-1.15,2.71-.39.9-.79,1.82-1.17,2.72-.57,1.2-1.13,2.42-1.72,3.68-5.05,11.03-9.25,22.07-15.36,32.49v.03c-.2.43-.38.86-.56,1.29-.19.42-.37.84-.54,1.26,6.92-11.45,11.65-24.28,17.4-36.62.47-1.04.96-2.12,1.44-3.17.46-1.08.91-2.17,1.35-3.27.59-1.28,1.15-2.46,1.72-3.62.37-.77.79-1.65,1.17-2.42.47-.97.94-1.93,1.41-2.89.47-.98.97-2.01,1.45-2.98,2.24-5.1,4.64-10.1,7.16-15.04.51-1.01,1.04-2.06,1.57-3.07.15-.29,1.73-3.61,3.48-7.28-.11,0-.21-.01-.32,0-2.04,4.25-3.99,8.3-4.31,8.9-.65,1.22-1.29,2.43-1.93,3.65-2.55,4.86-5,9.72-7.15,14.44Z"/><path class="cls-5" d="M58.66,40.81c.19-.32.38-.64.57-.96-.19.37-.38.73-.58,1.1,0-.05,0-.09.01-.14Z"/><path class="cls-5" d="M59.23,39.85c.23-.43.45-.87.66-1.31,0,0,0,.01,0,.02-.19.38-.38.75-.57,1.13-.03.05-.06.11-.1.16Z"/><path class="cls-5" d="M45.18,84.75c.94-2.15,1.96-4.31,3.01-6.46-.81,1.73-1.62,3.46-2.43,5.19-.2.43-.39.85-.58,1.27Z"/><path class="cls-5" d="M63.86,44.98c-.53,1.11-1.06,2.22-1.58,3.34-.53,1.1-1.06,2.21-1.58,3.32-.52,1.12-1.05,2.34-1.55,3.46-.85,2.12-1.81,4.2-2.82,6.28-.5,1.04-1.01,2.08-1.54,3.12-2.34,4.59-4.47,9.2-6.6,13.78,2.26-4.61,4.69-9.21,6.84-13.79.51-1.03,1.01-2.07,1.51-3.11.98-2.07,1.92-4.18,2.77-6.32.61-1.35,1.22-2.69,1.84-3.99s1.25-2.6,1.88-3.88c.53-1.08,1.07-2.16,1.6-3.24.84-1.74,1.72-3.51,2.62-5.28.45-.88.91-1.76,1.37-2.65.3-.59,3.02-6.23,5.4-11.16-.04-.02-.07-.03-.11-.05-2.29,4.72-4.78,9.91-5.04,10.42-.53,1.04-1.12,2.16-1.68,3.24-.56,1.08-1.13,2.15-1.69,3.21-.55,1.09-1.1,2.18-1.63,3.29Z"/><path class="cls-5" d="M43.13,89.48c-1.65,3.81-3.33,7.64-5.17,11.45-.48.97-.98,1.97-1.48,2.95-.5.97-1.01,1.94-1.54,2.91-.56,1.12-1.07,2.12-1.59,3.13-.5.99-1.02,1.97-1.53,2.95-.52,1.03-1.08,2.16-1.6,3.21-.45.97-.91,1.94-1.37,2.9-.92,1.72-1.92,3.41-2.76,5.17-.29.63-.57,1.27-.86,1.9-.05.02-.1.03-.15.05.63-1.34,1.25-2.67,1.89-4,.64-1.55,1.56-2.65,2.2-4.2.45-.98.9-1.96,1.35-2.94.54-1.07,1.07-2.13,1.6-3.2.53-1.06,1.06-2.13,1.58-3.19.54-1.01,1.08-2.02,1.61-3.03.53-1.01,1.06-2.03,1.58-3.05,2.65-5.25,5.05-10.54,7.42-15.83.29-.64.58-1.28.87-1.92-.13.31-.27.62-.4.92-.55,1.27-1.1,2.54-1.65,3.81Z"/><path class="cls-5" d="M36.39,102.61c-.57,1.03-1.15,2.05-1.75,3.06-.55,1.06-1.04,2.02-1.54,2.97-.48.93-.97,1.86-1.47,2.79-.49,1.01-.94,1.95-1.38,2.9-.44.94-.89,1.89-1.33,2.84-1.24,2.81-2.84,5.13-4.08,7.94-.18.42-.37.84-.56,1.26-.02,0-.03.01-.05.02h-.01c.7-1.54,1.4-3.06,2.09-4.58,1-2.3,2.48-4.38,3.48-6.68.39-.84.82-1.74,1.18-2.52.48-.95.96-1.91,1.44-2.87.49-.97,1.02-2.01,1.49-2.96.61-1.06,1.2-2.12,1.79-3.2,1.25-2.36,2.44-4.76,3.59-7.18-1.08,2.17-2.19,4.3-3.38,6.38-.59,1.03-1.19,2.06-1.8,3.07-.5.93-1.03,1.89-1.52,2.8-.48.89-.97,1.79-1.46,2.68-.43.9-1,2.06-1.49,3.09-1.74,3.65-3.46,7.33-5.17,11.03.51-1.22,1.54-3.65,2.87-6.77.22-.36.42-.72.58-1.06.51-1.09,1.02-2.18,1.53-3.26.51-1.08,1.11-2.31,1.62-3.38.39-.73.78-1.47,1.16-2.2.39-.73.77-1.47,1.15-2.2.7-1.19,1.38-2.38,2.05-3.59,6.17-10.97,10.06-22.7,15.69-33.94.37-.78.75-1.58,1.13-2.37,1.1-2.35,2.18-4.71,3.21-7.05.48-.9,1.01-1.92,1.53-2.84.51-.9,1.03-1.8,1.58-2.69,0-.01.02-.03.02-.04-.52,1.07-1.04,2.14-1.55,3.21-.82,1.78-1.64,3.56-2.46,5.33.91-1.92,1.92-3.8,3.08-5.59-.08.2-.16.4-.25.61-1.74,3.01-3.29,6.2-4.78,9.45-.1.21-.19.42-.29.63-.32.77-.64,1.54-.96,2.3-2.08,4.4-4.03,8.72-5.9,13.22-.48,1.1-.96,2.21-1.44,3.3-2.39,5.49-4.84,10.91-7.65,16.11Z"/><path class="cls-5" d="M58.58,54.04c.1-.21.2-.41.3-.62-.07.2-.17.41-.3.62Z"/><path class="cls-5" d="M58.88,53.42l.04-.08c.57-1.17,1.14-2.34,1.71-3.5.58-1.17,1.15-2.35,1.74-3.58,1.59-3.53,3.26-7.04,5.01-10.51.33-.66,3.05-6.32,5.46-11.31-.16-.05-.33-.09-.49-.11-2.2,4.57-4.5,9.39-4.74,9.87-.46.9-.91,1.8-1.36,2.7-2.24,4.52-4.4,9.11-6.63,13.68-.55,1-.41,1.91-.75,2.85Z"/><path class="cls-5" d="M43.8,95.71c-1.11,2.39-2.17,4.85-3.22,7.3,1.16-2.8,2.3-5.6,3.61-8.39.42-.88.86-1.78,1.34-2.71.77-1.26,1.53-2.54,2.27-3.84-.94,1.75-1.89,3.49-2.84,5.23-.34.7-.78,1.6-1.16,2.42Z"/><path class="cls-5" d="M63.32,32.97c-.16.44-.32.9-.49,1.36.12-.24.23-.48.35-.72.51-1.04,1.02-2.09,1.59-3.23.19-.36,1-2.01,2.07-4.22-.14.14-.27.28-.4.44-.78,1.62-1.33,2.78-1.45,3.04-.59,1.17-1.14,2.27-1.66,3.34Z"/><path class="cls-5" d="M43.99,74.23s0-.07.01-.1c.02-.19.05-.38.07-.56.16-.39.31-.77.47-1.16.11-.09.22-.17.32-.26-.29.7-.58,1.39-.88,2.08Z"/><path class="cls-5" d="M49.88,63.51c-.22.53-.44,1.06-.65,1.59-.04-.14-.07-.27-.12-.4.07-.2.14-.39.22-.59.27-.71.55-1.42.84-2.13l.22.33c-.17.4-.33.79-.5,1.19Z"/><path class="cls-5" d="M58.39,45.23c0,.16,0,.32,0,.47,0,.01,0,.02,0,.04l.15-.27c.55-1.18,1.18-2.42,1.75-3.6.99-2.07,2-4.13,3.02-6.17.51-1.02,1.06-2.12,1.54-3.06.51-1.04,1.02-2.07,1.55-3.1.12-.24,1.05-2.2,2.27-4.73-.16.08-.31.16-.46.26-1.51,3.15-2.77,5.77-2.95,6.14-.51,1.02-.99,1.98-1.45,2.92-.93,1.89-1.84,3.79-2.75,5.69-.28.59-.56,1.18-.84,1.77-.06.15-.11.3-.17.45,0-.03,0-.06,0-.09h0s-.53,1.12-.53,1.12c-.37.73-.74,1.44-1.12,2.16Z"/><path class="cls-5" d="M43.53,79c.01-.17.02-.34.04-.51,0-.12.02-.24.03-.35.47-1.03.92-2.06,1.37-3.09,0,.18.01.36.02.54-.48,1.14-.96,2.28-1.45,3.42Z"/><path class="cls-5" d="M64.78,28.87v.02s-.03.05-.03.08c.19-.36.37-.73.55-1.1-.18.34-.35.67-.52,1Z"/><path class="cls-5" d="M59.93,39.84c0,.15.01.3.02.44-.48.97-.96,1.95-1.49,2.98.01-.22.03-.44.05-.67,0-.05,0-.11.01-.16.3-.53.61-1.05.91-1.58.17-.34.33-.67.5-1.01Z"/><path class="cls-5" d="M48.83,62.29c-.11.28-.22.56-.32.84-.09-.19-.17-.35-.24-.5.08-.21.15-.42.23-.62.21-.52.44-1.05.67-1.57l.27.42c-.2.48-.4.95-.6,1.43Z"/><path class="cls-5" d="M59.71,37.11c.05-.03.1-.07.15-.1,0,.05,0,.1,0,.16-.34.67-.7,1.35-1.03,2,.02-.19.04-.37.07-.55.27-.5.54-1,.81-1.5Z"/><path class="cls-5" d="M65.35,27.76c.02-.05.12-.24.26-.53-.15.3-.23.48-.26.53Z"/><path class="cls-5" d="M58.59,47.93c.27-.49.59-.91.91-1.31-.71,1.55-1.42,3.1-2.12,4.65-.18.37-.37.75-.55,1.13.69-1.62.97-3.01,1.76-4.46Z"/><path class="cls-5" d="M61.41,64.76c-.5.98-.99,1.96-1.48,2.94-.22.24-.44.47-.65.71.58-1.22,1.17-2.43,1.78-3.63.12,0,.24-.02.36-.02Z"/><path class="cls-5" d="M48.96,89.73c-.55,1.15-1.11,2.3-1.67,3.46-.05.11-.1.21-.15.32-.2.2-.4.39-.59.57-.1.09-.2.19-.29.27.74-1.39,1.48-2.79,2.2-4.2.17-.14.34-.28.51-.42Z"/><path class="cls-5" d="M59.5,46.61c.47-.61.95-1.2,1.26-1.97,1.47-3.24,3.01-6.44,4.61-9.6.54-1.08,1.12-2.21,1.67-3.27.2-.44,1.8-3.79,3.58-7.54-.12,0-.23.02-.35.04-1.86,3.89-3.54,7.41-3.8,7.95-.48.92-1.09,2.16-1.62,3.22-1.85,3.71-3.63,7.44-5.35,11.18Z"/><path class="cls-5" d="M49.2,91.34c-.12.13-.24.27-.36.4-.07.08-.15.15-.22.23.52-1.08,1.03-2.17,1.53-3.26.14-.12.28-.25.42-.37-.45,1-.91,2-1.37,3Z"/><path class="cls-5" d="M62.07,61.75l.93-1.55c.11-.22.21-.43.32-.65.55-1.11,1.1-2.22,1.67-3.32l.04-.09c.54-1.08,1.1-2.15,1.66-3.21.65-1.29,1.23-2.47,1.82-3.64,1.17-2.34,2.34-4.67,3.52-6.99.36-.71,3.5-7.25,6.01-12.49-.02-.17-.04-.33-.08-.49-2.53,5.28-5.74,11.99-6.09,12.71-1.15,2.32-2.3,4.63-3.44,6.94-.58,1.16-1.19,2.39-1.79,3.6-.59,1.15-1.18,2.3-1.75,3.46-.58,1.15-1.15,2.31-1.71,3.47l-.1.2c-.33.69-.66,1.37-.99,2.06Z"/><path class="cls-5" d="M58.46,69.38c.72-1.53,1.43-3.05,2.15-4.56.05,0,.1,0,.15-.01-.68,1.42-1.36,2.84-2.04,4.26-.09.11-.18.21-.26.32Z"/><path class="cls-5" d="M55.46,55.78c-.56,1.21-1.11,2.42-1.67,3.64-.56,1.24-1.14,2.49-1.72,3.82-.37.87-.74,1.75-1.12,2.61-.38.88-.76,1.75-1.15,2.63-4.48,9.6-8.53,19.65-13.44,29.06.3-.69.59-1.37.88-2.05,3.93-7.53,7.2-15.42,10.56-23.13.58-1.26.95-2.08,1.22-2.62.15-.3.26-.61.34-.92.32-.72.64-1.44.97-2.16.37-.83.73-1.67,1.09-2.5.39-.96.79-1.94,1.18-2.89,1.01-2.44,2.05-4.41,3.2-6.74.35-.71.7-1.43,1.04-2.14-.01.03-.02.05-.03.08-.43,1.1-.88,2.2-1.35,3.31Z"/><path class="cls-7" d="M80.61,45.47l-1.25.82c-.74.48-1.3,1.22-1.57,2.08l-.38,1.2-.08.26-.05.13-.05-.13-.08-.26-.38-1.2c-.27-.86-.83-1.59-1.57-2.08l-1.25-.82,1.25-.89c.66-.47,1.15-1.14,1.41-1.91l.67-1.99h0s0,0,0,0l.67,1.99c.26.77.76,1.44,1.41,1.91l1.25.89Z"/><path class="cls-3" d="M85.55,37.94l-.83.54c-.49.32-.86.81-1.04,1.38l-.25.8-.06.18-.03.09-.04-.09-.06-.18-.25-.8c-.18-.57-.55-1.06-1.04-1.38l-.83-.54.83-.59c.44-.31.77-.76.94-1.27l.45-1.32h0s0,0,0,0l.45,1.32c.17.51.5.96.94,1.27l.83.59Z"/><path class="cls-3" d="M52.13,49.76l-.59.39c-.35.23-.61.58-.74.98l-.18.57-.04.12-.02.06-.03-.06-.04-.12-.18-.57c-.13-.41-.39-.75-.74-.98l-.59-.39.59-.42c.31-.22.54-.54.67-.91l.32-.94h0s0,0,0,0l.32.94c.12.37.36.68.67.91l.59.42Z"/><path class="cls-3" d="M68.14,73.6l-.59.39c-.35.23-.61.58-.74.98l-.18.57-.04.12-.02.06-.03-.06-.04-.12-.18-.57c-.13-.41-.39-.75-.74-.98l-.59-.39.59-.42c.31-.22.54-.54.67-.91l.32-.94h0s0,0,0,0l.32.94c.12.37.36.68.67.91l.59.42Z"/><path class="cls-7" d="M52.53,105.33l-1.25.82c-.74.48-1.3,1.22-1.57,2.08l-.38,1.2-.08.26-.05.13-.05-.13-.08-.26-.38-1.2c-.27-.86-.83-1.59-1.57-2.08l-1.25-.82,1.25-.89c.66-.47,1.15-1.14,1.41-1.91l.67-1.99h0s0,0,0,0l.67,1.99c.26.77.76,1.44,1.41,1.91l1.25.89Z"/><path class="cls-3" d="M35.15,76.52l-.83.54c-.49.32-.86.81-1.04,1.38l-.25.8-.06.18-.03.09-.04-.09-.06-.18-.25-.8c-.18-.57-.55-1.06-1.04-1.38l-.83-.54.83-.59c.44-.31.77-.76.94-1.27l.45-1.32h0s0,0,0,0l.45,1.32c.17.51.5.96.94,1.27l.83.59Z"/><path class="cls-3" d="M39.74,118.2l-.59.39c-.35.23-.61.58-.74.98l-.18.57-.04.12-.02.06-.03-.06-.04-.12-.18-.57c-.13-.41-.39-.75-.74-.98l-.59-.39.59-.42c.31-.22.54-.54.67-.91l.32-.94h0s0,0,0,0l.32.94c.12.37.36.68.67.91l.59.42Z"/><path class="cls-3" d="M58.5,65.23l3.5.7.57,3.61s.05.03.06,0l.57-3.61,3.5-.7s.03-.05,0-.06l-3.5-.71-.57-3.44s-.05-.03-.06,0l-.57,3.44-3.5.71s-.03.05,0,.06Z"/><path class="cls-6" d="M79.32,49.91l1.49.3.24,1.53s.02.01.03,0l.24-1.53,1.49-.3s.01-.02,0-.03l-1.49-.3-.24-1.46s-.02-.01-.03,0l-.24,1.46-1.49.3s-.01.02,0,.03Z"/><path class="cls-3" d="M39.4,65.33l2.26.45.37,2.33s.03.02.04,0l.37-2.33,2.26-.45s.02-.03,0-.04l-2.26-.46-.37-2.22s-.03-.02-.04,0l-.37,2.22-2.26.46s-.02.03,0,.04Z"/><path class="cls-6" d="M59.24,23.97l1.49.3.24,1.53s.02.01.03,0l.24-1.53,1.49-.3s.01-.02,0-.03l-1.49-.3-.24-1.46s-.02-.01-.03,0l-.24,1.46-1.49.3s-.01.02,0,.03Z"/><path class="cls-3" d="M53.71,35.05l-1.79,1.17c-1.06.69-1.85,1.74-2.24,2.96l-.54,1.71-.12.38-.07.19-.08-.19-.12-.38-.54-1.71c-.39-1.23-1.18-2.27-2.24-2.96l-1.79-1.17,1.78-1.27c.94-.67,1.64-1.63,2.01-2.73l.96-2.83v.02s.01-.02.01-.02l.96,2.83c.37,1.1,1.08,2.06,2.01,2.73l1.78,1.27Z"/><path class="cls-6" d="M31.61,99.41l-3.98.79-.65,4.11s-.06.04-.07,0l-.65-4.11-3.98-.79s-.04-.06,0-.07l3.98-.81.65-3.92s.06-.04.07,0l.65,3.92,3.98.81s.04.06,0,.07Z"/><ellipse class="cls-6" cx="38.55" cy="47.68" rx=".21" ry=".22"/><ellipse class="cls-6" cx="33.68" cy="44.11" rx=".21" ry=".22"/><circle class="cls-3" cx="37.6" cy="46.96" r=".14"/><circle class="cls-3" cx="38.03" cy="48.18" r=".14"/><path class="cls-3" d="M34.32,47.06l.81-1.23-.84-1.2s0-.03.02-.02l1.17.87,1.2-.83s.02,0,.02.02l-.8,1.23.8,1.15s0,.03-.02.02l-1.12-.82-1.2.82s-.02,0-.02-.02Z"/><path class="cls-3" d="M35.5,48.53l-.43-2.29-2.25-.37s-.02-.04,0-.04l2.25-.37.43-2.29s.03-.02.04,0l.44,2.29,2.14.37s.02.04,0,.04l-2.14.37-.44,2.29s-.03.02-.04,0Z"/><path class="cls-3" d="M61.02,96.31l-.92-4.84-4.75-.79s-.05-.07,0-.08l4.75-.79.92-4.84s.07-.04.08,0l.93,4.84,4.53.79s.05.07,0,.08l-4.53.79-.93,4.84s-.07.04-.08,0Z"/><path class="cls-3" d="M75.68,65.17l-.63-3.31-3.25-.54s-.03-.05,0-.06l3.25-.54.63-3.31s.05-.03.05,0l.64,3.31,3.09.54s.03.05,0,.06l-3.09.54-.64,3.31s-.05.03-.05,0Z"/><path class="cls-3" d="M40.31,43.98l-1.46.15-.15,1.53s-.02.01-.02,0l-.17-1.53-1.44-.15s-.01-.02,0-.02l1.44-.12.17-1.55s.02-.01.02,0l.15,1.55,1.46.12s.01.02,0,.02Z"/><ellipse class="cls-3" cx="38.68" cy="43.98" rx=".39" ry=".4"/><ellipse class="cls-6" cx="72.62" cy="32.53" rx=".49" ry=".47"/><ellipse class="cls-6" cx="58.42" cy="30.26" rx=".49" ry=".47"/><ellipse class="cls-3" cx="70.38" cy="30.96" rx=".32" ry=".31"/><ellipse class="cls-3" cx="71.4" cy="33.62" rx=".32" ry=".31"/><path class="cls-3" d="M62.72,31.18l1.89-2.67-1.97-2.62s.01-.06.04-.04l2.74,1.89,2.79-1.8s.06.01.04.04l-1.88,2.68,1.86,2.51s-.01.06-.04.04l-2.63-1.78-2.8,1.79s-.06-.01-.04-.04Z"/><path class="cls-3" d="M65.48,34.37l-1.01-4.99-5.25-.82c-.05,0-.05-.08,0-.08l5.25-.82,1.01-4.99s.08-.05.09,0l1.03,4.99,5.01.82s.05.08,0,.08l-5.01.82-1.03,4.99s-.08.05-.09,0Z"/><path class="cls-3" d="M46.02,85.54l-3.08.31-.31,3.24s-.05.03-.05,0l-.37-3.24-3.05-.31s-.03-.05,0-.05l3.05-.26.37-3.28s.04-.03.05,0l.31,3.28,3.08.26s.03.05,0,.05Z"/><ellipse class="cls-3" cx="42.57" cy="85.54" rx=".83" ry=".85"/></g></svg>