<?xml version="1.0" encoding="UTF-8"?><svg xmlns="http://www.w3.org/2000/svg" xmlns:xlink="http://www.w3.org/1999/xlink" viewBox="0 0 102.24 150.24"><defs><style>.cls-1{fill:none;stroke:#1e1e1c;stroke-miterlimit:10;stroke-width:.25px;}.cls-2{fill:url(#linear-gradient-4);}.cls-3{fill:url(#linear-gradient-3);}.cls-4{fill:url(#linear-gradient-2);}.cls-5{fill:url(#linear-gradient);}.cls-6{fill:#356d55;}.cls-7{fill:#ae4c3b;}</style><linearGradient id="linear-gradient" x1="2364.04" y1="-21.51" x2="2364.56" y2="-20.71" gradientTransform="translate(2250.77 961.08) rotate(-158.51)" gradientUnits="userSpaceOnUse"><stop offset="0" stop-color="#935537"/><stop offset="1" stop-color="#cc7e62"/></linearGradient><linearGradient id="linear-gradient-2" x1="2328.14" y1="-30.17" x2="2375.97" y2="44.6" xlink:href="#linear-gradient"/><linearGradient id="linear-gradient-3" x1="2387.78" y1="33.89" x2="2388.29" y2="34.7" gradientTransform="translate(2285.14 873.75) rotate(-158.51) scale(1 -1)" gradientUnits="userSpaceOnUse"><stop offset="0" stop-color="#658e4c"/><stop offset="1" stop-color="#a0b37a"/></linearGradient><linearGradient id="linear-gradient-4" x1="2351.87" y1="25.23" x2="2399.7" y2="100.01" xlink:href="#linear-gradient-3"/></defs><g id="NOOOOO"><g id="margem"><polyline class="cls-1" points="21.32 141.14 10.38 141.14 10.38 75.95 10.38 9.1 21.32 9.1"/><line class="cls-1" x1="31.32" y1="9.1" x2="45.53" y2="9.1"/><polyline class="cls-1" points="80.92 9.1 91.86 9.1 91.86 141.14 80.92 141.14"/><line class="cls-1" x1="31.32" y1="9.1" x2="45.53" y2="9.1"/><line class="cls-1" x1="70.92" y1="141.14" x2="56.71" y2="141.14"/><line class="cls-1" x1="56.71" y1="9.1" x2="70.92" y2="9.1"/><line class="cls-1" x1="45.53" y1="141.14" x2="31.32" y2="141.14"/></g></g><g id="BASTOS"><path class="cls-5" d="M43.18,114.12c-.12.32-.24.64-.35.97.1-.3.21-.6.32-.89h0s.02-.06.03-.07Z"/><path class="cls-4" d="M50.14,100.34c1.73-3.78,6.78-14.37,6.78-14.37l-3.48.63.3-1.66s4.3-.83,5.4-3.77c.36-.98,1.2-2.87,2.87-7.15-.06.05-.12.1-.19.15-.15.13-.3.25-.45.38-.31.26-.62.53-.93.79-.31.26-.61.54-.92.81-.3.27-.59.54-.88.79-.14.13-.27.25-.4.37-.02-.26-.04-.51-.06-.78,0,0,0-.01.01-.02.25-.3.5-.61.76-.92.26-.31.52-.63.79-.94.27-.31.54-.62.82-.93.13-.15.27-.3.4-.45.14-.15.27-.3.41-.44.26-.28.52-.56.78-.82.25-.26.5-.5.73-.72.1-.09.19-.18.28-.28,1.08-2.77,4.17-9.91,7.38-17.22v-.02c.17-.36.32-.72.48-1.07.15-.35.3-.7.46-1.05h0c4.07-9.24,8.02-18.09,8.02-18.09l.12.05c.28.61.59,1.21.84,1.82.02.03.03.06.04.1.02.03.03.07.04.1h0s.02.04.02.05c.2.54.19,1.11.2,1.69,0,.21.01.42.03.63,0,.07.01.14.02.22.01.1.03.2.05.3.06.24.15.45.25.66.04.09.09.18.13.28-.48,1.3-1.04,2.83-1.65,4.49-.1.27-.2.56-.31.84-.02.06-.04.12-.07.18-2.17,5.93-4.84,13.3-6.73,18.69.01.09.03.28.05.55.02.19.03.42.03.69,0,.13.01.27.02.41,0,.15,0,.3,0,.46,0,.32,0,.66-.02,1.02-.01.36-.03.74-.06,1.13-.02.2-.03.39-.04.59-.02.2-.04.4-.05.6-.03.41-.07.82-.12,1.23-.04.41-.08.82-.13,1.22-.04.34-.08.69-.13,1.02-.2.19-.41.39-.62.58,0-.15,0-.3,0-.45-.01-.38-.02-.78-.03-1.18-.01-.4-.03-.81-.05-1.22-.02-.41-.04-.81-.06-1.22-.02-.2-.02-.4-.04-.59-.02-.19-.03-.39-.05-.58,0-.15-.03-.29-.04-.43-3.57,10.31-6.91,15.2-7.08,22.38,0,.12-.01.22-.03.33.02.06.04.12.06.18.08.27.18.55.28.82.09.29.2.57.3.85,0,.02.01.04.03.07-.2.27-.4.54-.61.8-.1-.15-.19-.3-.28-.45-.09-.15-1.21-1.48-1.3-1.63l-1.52,4.71-1.05,3.24-2.2,6.83-1.82,5.64-1.09,3.39-.02.04-.96,2.99-.58,1.8c-.09.15-.18.29-.27.43-.13.19-.25.37-.39.54-.14.19-.29.36-.44.52-.14.16-.29.31-.45.45-.15.14-.3.26-.46.38-.11.09-.23.16-.35.24-.44.27-.92.47-1.43.59-.02,0-.04,0-.07.01-.22.05-.45.08-.68.09-.09,0-.19,0-.29,0-.12,0-.25,0-.38-.02-.14,0-.27-.02-.41-.05-.27-.04-.55-.1-.84-.18-.07-.02-.13-.04-.2-.06-.16-.05-.32-.11-.48-.17-.07-.03-.13-.05-.19-.08-.03-.01-.06-.02-.09-.04-.2-.09-.39-.18-.58-.28-.04-.01-.07-.03-.11-.06-.06-.03-.11-.06-.16-.1-.12-.07-.24-.15-.35-.23-.21-.15-.41-.3-.58-.47-.06-.06-.13-.12-.19-.19-.1-.11-.2-.22-.29-.33-.06-.08-.12-.16-.17-.24-.27-.4-.46-.83-.59-1.29-.04-.14-.07-.28-.1-.43-.09-.46-.12-.95-.1-1.46,0-.16.02-.33.04-.5.08-.83.28-1.71.59-2.61.44-.85.97-1.86,1.53-2.95.18-.35.37-.71.55-1.07h0c1-1.94,2.06-4.01,2.94-5.76.06-.12.12-.24.18-.36-.02.01-.04.03-.05.04-.01,0-.02.02-.04.03-.15.13-.3.25-.46.38-.31.26-.62.52-.92.79-.31.27-.62.54-.92.81-.27.24-.54.49-.8.72-.04-.27-.09-.55-.13-.82.12-.14.24-.29.37-.44.26-.31.52-.62.79-.94.27-.32.54-.63.82-.93.13-.15.27-.3.4-.45.14-.15.27-.29.4-.44.26-.29.53-.56.78-.82.25-.26.5-.5.72-.72.02-.01.03-.03.05-.04.1-.1.19-.19.29-.27,0,0,.01,0,.02-.02h0c.1-.1.19-.18.28-.25.02-.01.03-.03.04-.04Z"/><path class="cls-7" d="M75.79,54.46c-.36.84-.73,1.67-1.1,2.52.33-.72.66-1.45.98-2.18.04-.11.08-.23.12-.34Z"/><path class="cls-7" d="M58.82,97.88c.4-1.01.8-2.01,1.21-3.02,3.6-8.2,7.05-16.51,9.64-24.92-2.76,8.18-5.76,16.3-9.46,24.39-.41,1.02-.87,2.14-1.27,3.17-.93,2.15-1.63,4.13-2.37,6.26-.38,1.05-.75,2.1-1.12,3.15.36-.98.71-1.95,1.07-2.93.73-2.05,1.51-4.08,2.31-6.09Z"/><path class="cls-7" d="M72.02,61.19c1.66-4.09,3.4-8.14,5.25-12.13.41-1.06.9-2.27,1.31-3.34.85-2.19,1.71-4.37,2.56-6.56.04.09.09.18.13.28-.48,1.3-1.04,2.83-1.65,4.49-.08.24-.17.48-.26.72l-.05.12c-.02.06-.04.12-.07.18-.3.83-.62,1.64-.93,2.46-.37.91-.75,1.82-1.12,2.73-.39.93-.78,1.86-1.23,2.89-1.21,2.49-2.34,5-3.43,7.54-.36.84-.72,1.69-1.07,2.54-.39.9-.8,1.93-1.18,2.86-3.05,9.22-6.14,18.29-10.43,27.44-.42,1.05-.9,2.2-1.32,3.25-.83,2.1-1.65,4.21-2.44,6.32-.38,1.11-.76,2.23-1.15,3.33-.29.84-.58,1.67-.88,2.5-.3.83-.59,1.67-.9,2.5-.23.66-2.62,6.77-4.41,11.39-.09,0-.19,0-.29,0,1.74-4.48,4-10.28,4.19-10.83.35-.99.73-2.04,1.07-3.03.7-1.98,1.4-3.95,2.09-5.93.41-1.15.82-2.33,1.28-3.58.43-.92.84-1.83,1.25-2.75.41-.92.81-1.83,1.2-2.75,3.87-8.36,6.91-16.7,9.77-25.61.46-1.58,1.13-3.07,1.68-4.56.33-.82.66-1.64,1-2.46Z"/><path class="cls-7" d="M72.51,58.55c1.01-2.43,2.03-4.88,3.05-7.34.37-.95.82-2.09,1.19-3.06.35-.93.67-1.82,1-2.71.99-2.7,2-5.39,3.04-8.07,0,.21.01.42.03.63,0,.07.02.14.03.21h0c-.99,2.58-1.96,5.18-2.92,7.77-.36.97-.73,1.95-1.11,2.98-1.16,2.6-2.3,5.23-3.4,7.87-.37.88-.73,1.76-1.1,2.64-.32.8-.65,1.6-.98,2.4s-.65,1.6-.97,2.41c-2.11,5.27-3.57,10.22-5.42,15.52-1.76,5.08-4.13,9.67-6.04,14.35-.43,1.04-.86,2.09-1.3,3.14-.44,1.05-.88,2.1-1.31,3.15-.3,1-.75,2.25-1.12,3.37-.33.98-.67,1.95-1,2.93-.34.98-.69,1.95-1.04,2.93-.39,1.1-3.06,7.97-5.01,13.03-.14,0-.27-.02-.41-.05,1.75-4.51,3.99-10.22,4.21-10.81.37-1.04.77-2.16,1.13-3.2.72-2.09,1.43-4.19,2.11-6.29.4-1.11.79-2.19,1.23-3.32.36-.88.72-1.76,1.08-2.64.36-.87.73-1.75,1.09-2.63,4.05-8.61,7.33-17.36,10.29-26.42.43-1.1.87-2.16,1.32-3.22.44-1.04.89-2.09,1.35-3.13.34-.82.68-1.63,1.02-2.44Z"/><path class="cls-7" d="M72.3,70.68c.01-.12.03-.24.04-.37,0-.06.01-.12.02-.18-.1.22-.21.44-.31.66-.2.44-.41.88-.61,1.33,0,.14,0,.28.01.42.29-.62.57-1.24.85-1.86Z"/><path class="cls-7" d="M60.22,99.02l-1.04,3.67c-.28.75-.56,1.54-.83,2.27-.34.94-1.27,3.35-2.39,6.25-1.18,3.07-2.59,6.7-3.76,9.73-.14.16-.29.31-.45.45,1.65-4.23,3.55-9.09,3.72-9.56.61-1.71,1.24-3.41,1.88-5.12.14-.38.29-.75.43-1.14.23-.6.45-1.2.68-1.79.59-1.58,1.18-3.17,1.76-4.76Z"/><path class="cls-7" d="M77.7,42.28c.87-2.27,1.86-4.56,2.77-6.86h0c.03.06.06.13.08.2h0c-.82,2.03-1.68,4.02-2.51,6.13-.39,1.11-.77,2.21-1.17,3.32-.35.96-.7,1.92-1.06,2.87-.36.98-.78,2.06-1.15,3.04-.32.86-.65,1.72-.97,2.59-.33.86-.66,1.73-1,2.59-1.23,3.12-2.52,6.17-3.79,9.22-.42,1.02-.85,2.06-1.27,3.09-2.92,7.73-5.4,15.28-8.79,22.81-.33.83-.68,1.67-1.03,2.5-.69,1.66-1.4,3.32-2.14,4.96-.39,1.07-.87,2.28-1.29,3.41-.92,2.59-1.83,5.14-2.73,7.67-.31.85-.63,1.76-.93,2.6-.18.52-2.2,5.69-3.89,10.03-.07-.02-.13-.04-.2-.06,1.77-4.56,4.08-10.53,4.31-11.15.31-.88.63-1.75.94-2.62.62-1.73,1.23-3.47,1.84-5.18.31-.85.62-1.68.93-2.5.31-.83.64-1.68.94-2.49,1-2.42,2-4.85,3-7.29.34-.81.67-1.63,1.02-2.46,3.07-6.52,5.17-13.48,7.81-20.18.43-1.02.86-2.08,1.29-3.11,1.3-3.07,2.6-6.13,3.83-9.23.35-.88.69-1.76,1.03-2.65.34-.88.68-1.77,1.01-2.65.34-.88.72-1.92,1.06-2.82.32-.89.64-1.78.95-2.68.36-1.03.72-2.06,1.08-3.09Z"/><path class="cls-7" d="M54.35,109.93c.34-.93.67-1.85,1.01-2.78-.31.86-.61,1.72-.92,2.59-.33.94-.7,1.95-1.04,2.88-.12.35-2.23,5.72-3.88,9.97-.02,0-.04,0-.07.01,1.65-4.2,3.72-9.47,3.83-9.78.33-.92.72-1.95,1.06-2.89Z"/><path class="cls-7" d="M55.44,106.91s0,.02,0,.04c-.03.07-.05.14-.08.21.03-.08.06-.16.09-.25Z"/><path class="cls-7" d="M58.54,104.99l-.44,1.56c-.46,1.28-2.37,6.28-4.2,11.09-.29.75-.58,1.5-.85,2.24-.13.19-.25.37-.39.54.69-1.82,1.46-3.83,2.2-5.77l.02-.04c1.65-4.3,3.19-8.33,3.67-9.61Z"/><path class="cls-7" d="M64.09,90.01c0-.05,0-.11,0-.17,0-.07,0-.14,0-.2-.27.71-.53,1.42-.79,2.14.03.04.06.08.09.12.23-.63.45-1.26.68-1.88Z"/><path class="cls-7" d="M64.13,92.89c.06-.07.12-.14.17-.22.1-.33.2-.66.29-.99-.04-.11-.08-.21-.11-.32-.14.48-.28.95-.41,1.43.02.03.04.06.06.09Z"/><path class="cls-7" d="M50.12,108.93c-.28.77-.55,1.54-.83,2.31-.35.99-.7,2.03-1.04,3.02-.09.27-1.53,3.92-2.95,7.55-.04-.01-.07-.03-.11-.06,1.72-4.42,3.77-9.7,3.98-10.28.3-.85.62-1.7.94-2.54Z"/><path class="cls-7" d="M53.89,99.32c-1.37,3.19-2.61,6.4-3.77,9.62,1.15-3.06,2.37-6.11,3.66-9.1.39-.98.79-1.97,1.2-2.95.41-.98.82-1.97,1.25-2.97.01-.06.03-.11.04-.17-.4.86-.77,1.71-1.13,2.55-.43,1.01-.85,2.01-1.25,3.01Z"/><path class="cls-7" d="M52.79,97.13c.37-.46.73-.88.95-1.42.41-1.06.82-2.12,1.23-3.17.39-1.01.82-2.06,1.21-3.07.34-.75.67-1.5,1.01-2.25.33-.75.67-1.52,1-2.27.41-1.04.83-2.07,1.27-3.16,3.86-9.4,8.22-18.28,11.1-27.99v-.02c.17-.36.32-.72.48-1.07.15-.35.3-.7.46-1.05-3.05,10.79-8.2,21.02-12.47,31.6-.37.88-.75,1.8-1.11,2.7-.4.9-.81,1.8-1.23,2.69-.44,1.09-.85,2.11-1.23,3.12-.26.67-.56,1.43-.81,2.1-.33.84-.64,1.68-.97,2.52-.33.85-.68,1.74-1,2.59-1.84,4.29-3.53,8.61-5.11,12.98-.32.89-.66,1.82-.98,2.71-.1.26-1.22,3.12-2.47,6.3-.06-.06-.13-.12-.19-.19,1.44-3.68,2.8-7.19,2.98-7.73.37-1.09.75-2.18,1.13-3.27,1.52-4.34,3.09-8.62,4.75-12.63Z"/><path class="cls-7" d="M46.95,103.62c-.09.3-.18.6-.26.9.12-.33.23-.65.34-.98-.03.03-.05.06-.08.09Z"/><path class="cls-7" d="M46.69,104.52c-.14.39-.28.77-.42,1.15,0,0,0,0,.01-.01.12-.33.24-.66.36-.99.01-.05.03-.1.04-.15Z"/><path class="cls-7" d="M66.14,70.24c-.78,1.8-1.52,3.66-2.23,5.54.6-1.49,1.2-2.97,1.78-4.46.15-.36.3-.72.45-1.08Z"/><path class="cls-7" d="M52.48,104.42c.37-.96.75-1.92,1.14-2.88.37-.95.75-1.91,1.13-2.86.39-.96.83-1.98,1.23-2.93.81-1.73,1.54-3.51,2.23-5.32.35-.9.69-1.81,1.03-2.73,1.47-4.05,3.08-8,4.66-11.92-1.53,4.02-2.96,8.14-4.53,12.07-.34.9-.69,1.8-1.04,2.7-.71,1.79-1.46,3.56-2.28,5.31-.48,1.14-.95,2.29-1.39,3.41s-.87,2.25-1.3,3.37c-.35.94-.71,1.89-1.07,2.83-.58,1.51-1.16,3.06-1.73,4.62-.28.78-.56,1.57-.84,2.36-.19.52-2.09,5.41-3.75,9.69-.03-.01-.06-.02-.09-.04,1.58-4.1,3.33-8.59,3.49-9.05.34-.92.68-1.92,1.03-2.88.34-.96.67-1.92,1-2.87.35-.96.71-1.92,1.08-2.88Z"/><path class="cls-7" d="M67.86,66.27c1.39-3.19,2.77-6.41,4.05-9.71.32-.85.65-1.73.96-2.6.31-.86.61-1.73.9-2.61.36-.98.69-1.87,1.01-2.76.32-.87.62-1.75.93-2.63.33-.91.7-1.9,1.05-2.81.33-.83.67-1.66.99-2.5.53-1.55.99-3.13,1.59-4.65.22-.54.45-1.07.67-1.61-.02-.04-.04-.08-.06-.12-.46,1.15-.92,2.29-1.37,3.44-.58,1.28-.73,2.47-1.31,3.75-.35.84-.69,1.67-1.03,2.51-.35.94-.69,1.87-1.04,2.81-.35.93-.7,1.86-1.05,2.79-.31.91-.62,1.81-.94,2.72-.32.9-.64,1.81-.96,2.71-1.7,4.63-3.56,9.12-5.45,13.6-.23.54-.45,1.09-.68,1.63.11-.26.22-.52.34-.77.46-1.06.92-2.13,1.39-3.19Z"/><path class="cls-7" d="M72.04,54.64c.3-.94.6-1.88.87-2.82.33-.94.64-1.79.94-2.64.3-.83.59-1.66.87-2.5.34-.88.66-1.69.98-2.5.32-.81.65-1.62.98-2.44,1.01-2.36,1.52-4.67,2.53-7.04.15-.35.3-.7.45-1.06,0-.01-.01-.03-.02-.04h0c-.54,1.3-1.07,2.6-1.61,3.89-.84,1.93-1.26,4.02-2.1,5.95-.29.72-.6,1.5-.87,2.16-.31.84-.62,1.68-.93,2.52-.31.85-.65,1.77-.96,2.61-.3.98-.61,1.95-.93,2.92-.73,2.12-1.52,4.21-2.34,6.3.71-1.9,1.37-3.8,1.97-5.72.3-.95.58-1.91.85-2.86.28-.84.57-1.71.85-2.53.27-.81.54-1.62.81-2.43.31-.78.69-1.79,1.04-2.68,1.24-3.15,2.51-6.31,3.79-9.47-.45,1.01-1.35,3.03-2.51,5.63-.1.34-.2.67-.31.96-.38.93-.75,1.87-1.12,2.8-.37.93-.78,2-1.14,2.92-.23.66-.45,1.32-.68,1.97-.23.66-.46,1.31-.69,1.96-.33,1.11-.67,2.21-1.03,3.31-3.18,10.05-8.14,19.15-11.8,29.02-.26.67-.54,1.37-.81,2.05-.81,2.02-1.64,4.03-2.48,6-.27.81-.59,1.72-.86,2.56-.26.82-.51,1.66-.74,2.51,0,.01,0,.03-.01.04.36-.93.72-1.86,1.08-2.78.62-1.52,1.24-3.04,1.85-4.55-.65,1.66-1.23,3.34-1.66,5.08.08-.17.15-.33.23-.5.85-2.79,1.91-5.56,3.05-8.33.07-.18.15-.36.22-.54.29-.64.58-1.28.86-1.9,1.51-3.79,3.03-7.46,4.72-11.17.4-.92.8-1.85,1.2-2.77,1.99-4.61,3.91-9.2,5.49-13.9Z"/><path class="cls-7" d="M55,96c-.07.18-.14.36-.21.54.08-.16.15-.34.21-.54Z"/><path class="cls-7" d="M54.8,96.54l-.03.07c-.39,1.02-.78,2.03-1.17,3.05-.39,1.02-.78,2.05-1.2,3.11-1.26,2.99-2.44,6.03-3.57,9.08-.21.58-2.12,5.49-3.8,9.81-.12-.07-.24-.15-.35-.23,1.54-3.96,3.17-8.13,3.33-8.54.29-.8.58-1.58.88-2.38,1.48-3.96,3.06-7.91,4.58-11.88.29-.91.93-1.34,1.32-2.08Z"/><path class="cls-7" d="M72.06,63.12c.82-2.05,1.73-4.11,2.63-6.15-1.05,2.31-2.11,4.62-3.07,7.01-.3.76-.6,1.54-.89,2.37-.33,1.2-.68,2.39-1.05,3.58.53-1.57,1.06-3.15,1.57-4.73.23-.61.53-1.39.81-2.09Z"/><path class="cls-7" d="M44.82,110.96c.18-.35.37-.71.55-1.07-.08.21-.16.42-.24.63-.34.9-.7,1.82-1.06,2.82-.11.32-.66,1.77-1.4,3.68,0-.16.02-.33.04-.5.55-1.41.94-2.41,1.03-2.63.38-1.03.74-2,1.09-2.93Z"/><path class="cls-7" d="M59.02,75.52s-.04.04-.05.07c-.1.12-.2.25-.3.37-.15.32-.29.63-.44.95,0,.12.02.23.02.35.26-.57.52-1.15.77-1.73Z"/><path class="cls-7" d="M55.83,85.26c.2-.44.4-.87.6-1.31-.1.06-.21.11-.31.16-.08.16-.16.31-.24.47-.28.57-.56,1.15-.82,1.73l.33-.06c.15-.33.29-.66.44-.99Z"/><path class="cls-7" d="M49.5,100.93c.1-.1.19-.19.29-.27,0,0,.01,0,.02-.02l-.08.25c-.4,1.01-.81,2.1-1.2,3.13-.7,1.79-1.38,3.58-2.05,5.38-.34.9-.69,1.87-.99,2.69-.34.91-.68,1.81-1.01,2.72-.08.21-.74,1.9-1.6,4.1-.04-.14-.07-.28-.1-.43,1.06-2.73,1.95-5,2.07-5.32.33-.89.65-1.73.96-2.56.62-1.65,1.27-3.29,1.91-4.94.2-.51.4-1.02.6-1.52.06-.12.12-.24.18-.36-.02.02-.04.03-.06.05h0s.38-.97.38-.97c.23-.64.46-1.28.68-1.92Z"/><path class="cls-7" d="M61.67,72.51c-.1.1-.2.21-.29.32-.07.07-.13.15-.2.22-.36.87-.73,1.74-1.11,2.61.11-.1.23-.2.34-.3.42-.94.84-1.89,1.26-2.84Z"/><path class="cls-7" d="M43.14,114.19h0s.02-.06.03-.07c-.12.32-.24.64-.35.97.1-.3.21-.6.32-.89Z"/><path class="cls-7" d="M47.09,104.95c.09-.08.19-.16.28-.24.32-.85.65-1.7.97-2.62-.13.13-.26.27-.38.41-.03.03-.06.07-.09.1-.15.49-.3.98-.44,1.46-.11.29-.22.59-.33.88Z"/><path class="cls-7" d="M54.48,85.31c.11-.23.22-.45.33-.68-.16.05-.31.1-.44.14-.08.17-.17.33-.25.5-.2.43-.39.87-.58,1.31l.41-.07c.17-.4.35-.79.53-1.19Z"/><path class="cls-7" d="M45.29,106.38c0,.05.02.1.02.15.03-.03.06-.06.1-.09.21-.59.43-1.2.64-1.77-.1.12-.2.24-.3.36-.15.45-.3.9-.46,1.35Z"/><path class="cls-7" d="M42.79,115.18s-.08.21-.18.46c.1-.26.16-.42.18-.46Z"/><path class="cls-7" d="M51.27,99.51c-.14.45-.22.88-.28,1.31.54-1.32,1.08-2.64,1.63-3.95.12-.33.25-.65.38-.98-.6,1.35-1.29,2.32-1.72,3.63Z"/><path class="cls-7" d="M63.18,91.61c.31-.86.63-1.73.95-2.59.02-.27.04-.54.06-.81-.41,1.05-.82,2.1-1.21,3.17.06.08.13.15.19.23Z"/><path class="cls-7" d="M71.35,69.7c.39-1,.78-2,1.16-3,.04-.09.07-.18.11-.28,0-.24,0-.47,0-.69,0-.12,0-.23,0-.33-.43,1.25-.86,2.5-1.31,3.75.01.18.02.37.03.55Z"/><path class="cls-7" d="M50.98,100.82c-.1.64-.19,1.27-.49,1.9-1.14,2.75-2.22,5.53-3.24,8.32-.35.95-.71,1.95-1.05,2.89-.15.38-1.29,3.27-2.57,6.51-.06-.08-.12-.16-.17-.24,1.32-3.36,2.51-6.4,2.69-6.87.29-.82.7-1.9,1.04-2.83,1.21-3.26,2.48-6.48,3.78-9.67Z"/><path class="cls-7" d="M72.47,68.92c.01-.15.03-.3.04-.45,0-.09.01-.18.02-.26-.37.94-.74,1.87-1.12,2.8,0,.16.01.32.02.47.36-.85.7-1.7,1.05-2.56Z"/><path class="cls-7" d="M61.72,93.73l-.41,1.46c-.07.19-.14.38-.21.57-.37.97-.73,1.94-1.08,2.92l-.03.08c-.35.95-.69,1.9-1.02,2.85-.42,1.14-.81,2.17-1.19,3.19-.76,2.06-1.52,4.11-2.27,6.15-.23.63-2.44,6.29-4.21,10.82-.11.09-.23.16-.35.24,1.78-4.57,4.06-10.37,4.29-11,.76-2.03,1.51-4.06,2.28-6.08.38-1.01.78-2.09,1.18-3.16.37-1.02.74-2.04,1.11-3.05.37-1.01.75-2.02,1.14-3.03l.07-.17c.23-.6.46-1.19.69-1.78Z"/><path class="cls-7" d="M64.32,87.16c-.53,1.31-1.05,2.62-1.57,3.93.03.03.05.06.08.1.48-1.23.96-2.46,1.44-3.68.01-.12.03-.23.04-.34Z"/><path class="cls-7" d="M54.28,93.1c.42-1.03.85-2.07,1.27-3.11.43-1.05.87-2.12,1.36-3.24.32-.73.65-1.45.96-2.18.32-.74.64-1.47.95-2.21,3.32-8.23,7.15-16.46,10.1-24.85-.25.58-.5,1.15-.75,1.71-2.36,6.71-5.32,13.23-8.12,19.69-.44,1.08-.73,1.77-.91,2.24-.1.26-.22.51-.37.74-.26.61-.51,1.22-.77,1.83-.3.7-.61,1.4-.91,2.1-.36.79-.74,1.59-1.1,2.38-.92,2.01-1.53,3.78-2.3,5.81-.24.62-.48,1.24-.72,1.86,0-.02.02-.04.03-.07.43-.89.85-1.8,1.25-2.72Z"/><path class="cls-3" d="M50.17,31.57c.13-.31.26-.63.4-.95-.13.29-.25.58-.38.87h0s-.01.06-.02.08Z"/><path class="cls-2" d="M45.87,46.4c-1.31,3.95-4.84,15.14-4.84,15.14l-2.12-2.83-.92,1.42s2.58,3.54,1.39,6.44c-.4.96-1.08,2.92-2.77,7.19-.01-.08-.02-.15-.04-.24-.02-.19-.05-.39-.07-.59-.05-.4-.1-.81-.14-1.21-.05-.41-.08-.81-.12-1.21-.03-.4-.07-.8-.1-1.18-.01-.19-.03-.37-.04-.55-.19.18-.38.35-.57.53,0,0,0,.02,0,.02-.02.38-.05.79-.07,1.19-.02.41-.05.82-.06,1.23-.02.41-.03.82-.04,1.24,0,.2,0,.4-.02.6,0,.2,0,.4,0,.6,0,.39,0,.77.01,1.13,0,.36.02.7.04,1.02,0,.13.01.26.02.4-1.1,2.76-3.71,10.1-6.34,17.63v.02c-.14.37-.27.74-.39,1.11-.13.36-.26.72-.38,1.08h0c-3.32,9.53-6.45,18.7-6.45,18.7l.12.05c.62-.26,1.26-.48,1.85-.76.04-.01.07-.03.1-.04.04-.01.07-.03.1-.04h0s.04-.02.05-.03c.51-.26.9-.68,1.3-1.1.14-.15.29-.3.45-.44.05-.05.11-.1.16-.14.08-.06.16-.12.24-.18.21-.14.42-.23.63-.31.09-.04.19-.08.29-.11.54-1.28,1.17-2.78,1.85-4.4.11-.27.23-.54.35-.82.03-.06.05-.12.07-.18,2.45-5.82,5.52-13.04,7.82-18.26.07-.06.21-.19.41-.36.15-.13.31-.29.49-.48.09-.09.19-.19.3-.29.1-.1.2-.22.31-.34.21-.24.44-.49.68-.76.24-.27.49-.56.73-.87.12-.15.25-.3.38-.46.12-.16.24-.32.37-.48.25-.32.5-.65.75-.98.25-.32.5-.66.74-.98.2-.28.41-.56.6-.83-.01-.28-.04-.56-.06-.84-.1.1-.21.21-.31.32-.27.27-.55.56-.83.85-.28.29-.57.58-.86.86-.29.29-.58.57-.88.85-.15.13-.29.27-.43.41-.14.13-.29.26-.43.39-.11.1-.22.19-.32.29,4.41-9.98,5.31-15.83,10.07-21.2.08-.09.14-.17.2-.26.05-.03.11-.06.16-.09.25-.14.5-.28.76-.41.26-.14.53-.28.8-.42.02,0,.04-.02.06-.03.04-.33.08-.67.1-1.01-.17.04-.34.09-.51.13-.17.05-1.9.26-2.07.31l2.1-4.48,1.44-3.08,3.05-6.49,2.51-5.37,1.51-3.23.02-.04,1.34-2.84.8-1.71c.04-.17.07-.34.1-.5.04-.22.07-.44.09-.66.02-.23.04-.46.03-.68,0-.21,0-.42-.02-.63-.01-.2-.04-.4-.08-.59-.02-.14-.06-.28-.09-.41-.14-.5-.35-.97-.64-1.41-.01-.02-.03-.04-.04-.05-.13-.19-.27-.37-.44-.53-.07-.07-.13-.13-.21-.2-.09-.09-.19-.17-.29-.25-.1-.09-.21-.17-.33-.24-.22-.15-.47-.3-.74-.44-.06-.04-.12-.06-.19-.09-.15-.07-.31-.14-.47-.2-.07-.03-.13-.05-.2-.07-.03-.01-.06-.02-.1-.03-.21-.08-.41-.14-.61-.18-.04-.01-.08-.03-.12-.03-.06-.02-.12-.03-.18-.04-.14-.03-.28-.05-.41-.06-.25-.04-.51-.05-.74-.05-.09,0-.18,0-.27.01-.15,0-.29.02-.44.05-.1.01-.19.03-.29.06-.47.11-.91.29-1.31.54-.13.07-.25.16-.37.25-.38.27-.74.61-1.07.99-.11.12-.21.25-.31.39-.51.66-.96,1.44-1.35,2.31-.26.93-.56,2.02-.89,3.2-.11.38-.21.77-.33,1.16h0c-.59,2.1-1.23,4.34-1.77,6.22-.04.13-.08.26-.12.39,0-.02,0-.04-.01-.07,0-.02,0-.03,0-.05-.02-.19-.05-.39-.07-.59-.05-.4-.1-.8-.14-1.21-.05-.41-.08-.82-.12-1.21-.03-.36-.06-.72-.1-1.07-.22.17-.44.34-.66.51-.01.19-.02.38-.04.57-.02.41-.04.82-.06,1.23-.01.42-.03.83-.04,1.24,0,.2,0,.4-.02.6,0,.2,0,.4,0,.59,0,.39,0,.77,0,1.13,0,.36.02.7.04,1.02,0,.02,0,.04,0,.06,0,.14.01.27.02.4,0,.01,0,.02,0,.03h0c0,.14.02.26.04.38,0,.02,0,.04,0,.06Z"/><path class="cls-6" d="M33.36,97.45c.3-.86.6-1.72.91-2.59-.25.75-.51,1.51-.77,2.26-.05.11-.09.22-.14.33Z"/><path class="cls-6" d="M50.55,54.11c-.4,1.01-.78,2.02-1.17,3.04-2.95,8.46-6.1,16.88-9.93,24.81,3.55-7.86,6.9-15.85,9.7-24.3.39-1.03.82-2.16,1.23-3.19.79-2.2,1.63-4.13,2.53-6.19.44-1.02.88-2.05,1.32-3.07-.41.96-.81,1.92-1.22,2.87-.86,2-1.67,4.01-2.46,6.03Z"/><path class="cls-6" d="M35.19,89.96c-1.58,4.13-3.06,8.27-4.43,12.45-.43,1.06-.89,2.28-1.31,3.34-.87,2.18-1.73,4.36-2.6,6.54.09-.04.19-.08.29-.11.54-1.28,1.17-2.78,1.85-4.4.1-.23.2-.47.3-.71l.05-.12c.03-.06.05-.12.07-.18.34-.81.67-1.62,1-2.44.35-.92.69-1.84,1.04-2.76.35-.95.7-1.89,1.08-2.95.81-2.64,1.69-5.25,2.63-7.85.31-.86.63-1.73.95-2.59.33-.92.73-1.95,1.09-2.89,4.05-8.82,7.97-17.57,11.08-27.19.4-1.05.84-2.22,1.25-3.28.82-2.11,1.66-4.21,2.52-6.29.48-1.07.96-2.15,1.43-3.22.36-.81.71-1.62,1.06-2.43.35-.81.7-1.62,1.05-2.44.28-.64,2.7-6.74,4.53-11.34-.07-.07-.13-.13-.21-.2-1.78,4.47-4.08,10.25-4.32,10.78-.42.96-.86,1.99-1.28,2.95-.83,1.92-1.67,3.85-2.52,5.76-.49,1.12-.98,2.26-1.5,3.49-.31.96-.63,1.91-.96,2.86-.33.95-.66,1.89-1,2.84-2.87,8.75-6.33,16.93-10.31,25.4-.74,1.46-1.27,3.01-1.88,4.49-.32.82-.64,1.65-.95,2.48Z"/><path class="cls-6" d="M33.75,92.23c-.92,2.47-1.84,4.95-2.77,7.45-.37.95-.82,2.09-1.21,3.04-.38.92-.75,1.79-1.12,2.66-1.12,2.65-2.21,5.31-3.28,7.98.14-.15.29-.3.45-.44.05-.05.11-.09.16-.13h0c1.03-2.57,2.09-5.13,3.16-7.68.4-.96.8-1.92,1.22-2.94.92-2.7,1.89-5.39,2.87-8.08.33-.89.66-1.79,1-2.68.31-.8.61-1.61.92-2.42s.62-1.62.93-2.43c2.05-5.3,4.35-9.91,6.61-15.05,2.18-4.92,3.57-9.89,5.36-14.62.4-1.06.79-2.12,1.19-3.18.39-1.06.79-2.13,1.19-3.2.46-.93.99-2.15,1.47-3.23.43-.94.84-1.88,1.26-2.83.41-.95.83-1.9,1.24-2.85.46-1.07,3.2-7.92,5.21-12.95-.1-.09-.21-.17-.33-.24-1.79,4.5-4.05,10.2-4.29,10.78-.44,1.02-.91,2.1-1.35,3.11-.89,2.02-1.81,4.04-2.74,6.04-.47,1.08-.91,2.14-1.36,3.26-.34.88-.67,1.78-1.01,2.67-.33.89-.66,1.78-.99,2.67-2.91,9.06-6.47,17.7-10.48,26.34-.43,1.1-.83,2.17-1.23,3.25-.39,1.07-.77,2.13-1.14,3.21-.31.83-.61,1.65-.92,2.48Z"/><path class="cls-6" d="M41.86,83.21c-.07.1-.15.2-.22.3-.04.05-.07.1-.11.14.07-.23.15-.46.22-.7.15-.46.3-.92.46-1.38.1-.1.2-.2.29-.3-.21.65-.42,1.29-.64,1.94Z"/><path class="cls-6" d="M52.35,54.23l1.74-3.39c.31-.74.64-1.51.94-2.22.39-.92,1.35-3.32,2.51-6.21,1.23-3.05,2.67-6.67,3.88-9.68,0-.21,0-.42-.02-.63-1.68,4.22-3.6,9.07-3.79,9.53-.71,1.67-1.42,3.34-2.12,5.02-.15.37-.3.75-.46,1.13-.24.59-.49,1.18-.73,1.77-.65,1.56-1.3,3.12-1.95,4.69Z"/><path class="cls-6" d="M26.46,107.66c-.91,2.25-1.74,4.6-2.65,6.91h0c.07-.02.14-.06.2-.09h0c.78-2.04,1.51-4.09,2.34-6.2.47-1.08.94-2.14,1.41-3.22.4-.94.8-1.88,1.18-2.82.4-.96.84-2.04,1.23-3.01.35-.85.7-1.7,1.05-2.56.35-.86.7-1.71,1.04-2.58,1.22-3.12,2.37-6.23,3.51-9.33.39-1.04.79-2.09,1.18-3.13,3.13-7.64,6.46-14.86,9.12-22.68.32-.84.64-1.68.95-2.53.63-1.68,1.23-3.38,1.82-5.09.44-1.05.92-2.26,1.37-3.37,1.1-2.52,2.17-5,3.23-7.47.35-.83.74-1.72,1.09-2.54.22-.5,2.27-5.67,3.99-9.99-.06-.04-.12-.06-.19-.09-1.82,4.54-4.19,10.49-4.45,11.09-.37.86-.73,1.71-1.1,2.56-.73,1.69-1.46,3.38-2.18,5.05-.35.83-.69,1.65-1.02,2.47-.34.82-.68,1.67-1.01,2.46-.92,2.45-1.85,4.91-2.77,7.37-.31.82-.62,1.65-.93,2.5-2.2,6.86-5.41,13.38-8.04,20.09-.38,1.03-.79,2.11-1.17,3.16-1.14,3.13-2.28,6.26-3.49,9.36-.35.88-.69,1.76-1.05,2.64-.35.88-.71,1.76-1.07,2.63-.35.87-.78,1.89-1.15,2.78-.37.87-.74,1.74-1.13,2.61-.44,1-.88,2-1.32,3Z"/><path class="cls-6" d="M55.48,42.24c-.38.91-.77,1.81-1.15,2.72.36-.84.73-1.68,1.09-2.52.4-.92.82-1.91,1.21-2.82.15-.34,2.27-5.7,3.95-9.94-.01-.02-.03-.04-.04-.05-1.66,4.2-3.74,9.46-3.86,9.77-.38.9-.81,1.92-1.2,2.84Z"/><path class="cls-6" d="M54.23,45.2s.01-.02.02-.03c.03-.07.06-.14.09-.2-.04.08-.07.16-.1.24Z"/><path class="cls-6" d="M55.18,48.71l.74-1.44c.54-1.25,2.54-6.21,4.48-10.98.3-.75.6-1.49.9-2.22.04-.22.07-.44.09-.66-.74,1.81-1.54,3.79-2.32,5.72l-.02.04c-1.73,4.27-3.34,8.27-3.87,9.54Z"/><path class="cls-6" d="M49.03,63.47s-.07.09-.11.13c-.05.05-.09.1-.13.15.29-.7.58-1.4.88-2.1.05,0,.1-.01.15-.02-.26.61-.53,1.23-.79,1.84Z"/><path class="cls-6" d="M51.02,61.38c0,.09-.01.18-.02.28-.15.31-.31.62-.46.93-.1.05-.2.1-.3.15.22-.45.44-.89.67-1.33.03,0,.07-.02.1-.03Z"/><path class="cls-6" d="M51.71,40.1c.32-.75.64-1.5.97-2.25.42-.97.87-1.96,1.3-2.92.11-.26,1.55-3.91,2.99-7.54-.04-.01-.08-.03-.12-.03-1.76,4.41-3.86,9.67-4.1,10.24-.36.83-.7,1.67-1.05,2.5Z"/><path class="cls-6" d="M47.92,49.7c1.17-3.27,2.46-6.46,3.8-9.61-1.25,3.03-2.43,6.08-3.53,9.16-.38.99-.76,1.98-1.14,2.97-.37,1-.74,2-1.1,3.02-.03.05-.05.1-.08.15.3-.9.6-1.78.91-2.64.37-1.03.75-2.05,1.14-3.06Z"/><path class="cls-6" d="M45.62,50.55c-.04.58-.06,1.14-.28,1.69-.42,1.05-.85,2.11-1.26,3.16-.4,1.01-.81,2.06-1.2,3.07-.27.78-.53,1.56-.8,2.33-.27.78-.55,1.57-.82,2.34-.4,1.04-.81,2.08-1.23,3.18-3.58,9.51-6.45,18.98-10.96,28.05v.02c-.14.37-.27.74-.39,1.11-.13.36-.26.72-.38,1.08,5.12-9.97,8.33-20.97,12.41-31.62.33-.9.68-1.83,1.02-2.73.32-.93.63-1.87.93-2.81.42-1.1.82-2.12,1.23-3.13.26-.67.57-1.42.84-2.09.34-.84.67-1.67,1.01-2.5.34-.85.69-1.74,1.04-2.58,1.58-4.4,3.29-8.71,5.11-12.98.37-.87.75-1.78,1.13-2.65.1-.25,1.23-3.12,2.49-6.29-.09,0-.18,0-.27.01-1.46,3.67-2.85,7.17-3.09,7.69-.47,1.05-.94,2.11-1.4,3.16-1.85,4.21-3.62,8.41-5.14,12.48Z"/><path class="cls-6" d="M45.77,41.82c.14-.28.28-.56.42-.84-.14.32-.28.64-.42.95,0-.04,0-.08,0-.12Z"/><path class="cls-6" d="M46.19,40.99c.16-.38.32-.75.48-1.13,0,0,0,.01,0,.02-.14.33-.27.65-.41.97-.02.05-.05.09-.07.14Z"/><path class="cls-6" d="M37.05,79.32c.66-1.85,1.38-3.71,2.14-5.57-.57,1.5-1.15,2.99-1.73,4.48-.14.37-.28.73-.41,1.1Z"/><path class="cls-6" d="M50.36,45.01c-.38.96-.76,1.92-1.12,2.88-.38.95-.76,1.91-1.12,2.87-.37.97-.74,2.02-1.1,2.98-.59,1.82-1.27,3.62-1.99,5.41-.36.9-.73,1.8-1.11,2.69-1.69,3.97-3.2,7.95-4.72,11.9,1.62-3.98,3.38-7.97,4.92-11.92.37-.89.73-1.79,1.08-2.69.7-1.79,1.36-3.6,1.95-5.44.43-1.16.87-2.32,1.31-3.44s.89-2.24,1.35-3.35c.38-.93.77-1.87,1.15-2.8.6-1.5,1.23-3.03,1.88-4.56.33-.76.66-1.53.99-2.3.22-.51,2.16-5.38,3.86-9.64-.03-.01-.06-.02-.1-.03-1.64,4.08-3.42,8.56-3.61,9-.38.9-.81,1.87-1.21,2.81-.41.93-.82,1.86-1.23,2.78-.4.94-.79,1.89-1.18,2.84Z"/><path class="cls-6" d="M35.61,83.4c-1.16,3.28-2.34,6.58-3.66,9.87-.35.84-.7,1.7-1.07,2.55-.36.84-.73,1.68-1.12,2.52-.41.97-.77,1.84-1.15,2.71-.36.85-.73,1.71-1.11,2.55-.37.89-.78,1.87-1.15,2.78-.32.84-.65,1.67-.98,2.5-.67,1.49-1.41,2.96-2.01,4.48-.2.54-.4,1.09-.61,1.64-.04.02-.08.03-.13.05.45-1.15.89-2.3,1.35-3.45.44-1.33,1.15-2.31,1.6-3.64.32-.85.64-1.69.96-2.54.39-.92.77-1.84,1.15-2.76.38-.92.76-1.84,1.14-2.76.39-.87.78-1.75,1.17-2.62.39-.88.77-1.76,1.14-2.64,1.91-4.54,3.61-9.1,5.28-13.66.2-.55.41-1.1.62-1.66-.09.27-.19.53-.28.8-.39,1.09-.77,2.18-1.16,3.28Z"/><path class="cls-6" d="M30.74,94.76c-.42.9-.85,1.78-1.29,2.66-.4.91-.76,1.75-1.12,2.57-.35.81-.7,1.62-1.06,2.42-.35.87-.67,1.68-.99,2.5-.32.81-.63,1.63-.95,2.45-.87,2.42-2.08,4.45-2.95,6.87-.13.36-.26.72-.39,1.08-.01,0-.03.01-.04.02h0c.5-1.32.99-2.64,1.48-3.95.7-1.98,1.82-3.8,2.52-5.79.28-.73.58-1.5.84-2.18.35-.83.69-1.65,1.04-2.48.35-.84.73-1.74,1.08-2.56.45-.92.88-1.84,1.31-2.78.91-2.04,1.76-4.12,2.58-6.21-.77,1.87-1.59,3.72-2.46,5.53-.43.9-.88,1.79-1.33,2.67-.37.81-.75,1.64-1.11,2.43-.35.78-.71,1.55-1.07,2.33-.3.78-.72,1.78-1.07,2.67-1.24,3.15-2.46,6.33-3.68,9.52.36-1.05,1.08-3.14,2-5.83.16-.31.31-.63.43-.92.36-.94.72-1.88,1.09-2.81.36-.94.79-1.99,1.16-2.92.28-.64.57-1.27.84-1.91.28-.64.56-1.27.83-1.91.52-1.03,1.02-2.07,1.5-3.12,4.52-9.53,7.1-19.56,11.14-29.28.27-.67.54-1.37.8-2.05.79-2.03,1.55-4.07,2.27-6.08.35-.78.74-1.66,1.11-2.46.37-.78.76-1.56,1.17-2.34,0-.01.01-.02.02-.04-.37.92-.74,1.85-1.11,2.77-.58,1.54-1.16,3.07-1.74,4.59.65-1.66,1.38-3.28,2.25-4.85-.06.17-.11.35-.17.52-1.28,2.62-2.39,5.37-3.45,8.17-.07.18-.14.36-.21.55-.22.66-.45,1.33-.67,1.98-1.48,3.8-2.86,7.52-4.16,11.39-.33.95-.67,1.9-1.01,2.85-1.68,4.73-3.41,9.4-5.46,13.91Z"/><path class="cls-6" d="M46.47,52.88c.07-.18.14-.36.21-.53-.05.17-.12.35-.21.53Z"/><path class="cls-6" d="M46.68,52.35l.03-.07c.41-1.01.82-2.02,1.23-3.03.41-1.01.83-2.03,1.24-3.09,1.12-3.04,2.32-6.08,3.58-9.08.24-.57,2.19-5.46,3.91-9.77-.14-.03-.28-.05-.41-.06-1.57,3.95-3.22,8.11-3.39,8.52-.33.78-.65,1.56-.98,2.34-1.61,3.9-3.15,7.87-4.75,11.82-.4.86-.23,1.62-.46,2.42Z"/><path class="cls-6" d="M36.54,88.57c-.79,2.06-1.54,4.18-2.27,6.29.81-2.41,1.6-4.82,2.53-7.23.3-.76.61-1.54.97-2.34.57-1.1,1.13-2.22,1.67-3.34-.68,1.51-1.38,3.03-2.07,4.53-.24.6-.56,1.38-.83,2.09Z"/><path class="cls-6" d="M49.21,35c-.11.38-.21.77-.33,1.16.09-.21.17-.41.25-.62.36-.9.73-1.8,1.14-2.79.14-.31.72-1.74,1.48-3.65-.11.12-.21.25-.31.39-.56,1.4-.95,2.4-1.04,2.62-.42,1.01-.82,1.97-1.2,2.89Z"/><path class="cls-6" d="M35.45,70.61s0-.06,0-.09c0-.16.02-.32.03-.47.11-.33.22-.66.32-1,.08-.08.17-.16.25-.24-.2.6-.4,1.2-.61,1.79Z"/><path class="cls-6" d="M39.75,61.31c-.15.46-.3.91-.45,1.37-.04-.11-.08-.22-.12-.33.05-.17.1-.34.15-.5.18-.61.38-1.22.58-1.83l.2.27c-.12.34-.23.68-.35,1.02Z"/><path class="cls-6" d="M45.8,45.53c0,.14.01.27.02.4,0,.01,0,.02,0,.03l.11-.24c.4-1.02.84-2.09,1.26-3.11.71-1.79,1.43-3.56,2.17-5.33.36-.88.76-1.84,1.11-2.65.37-.9.74-1.79,1.11-2.68.09-.2.75-1.9,1.62-4.09-.13.07-.25.16-.37.25-1.08,2.72-1.98,4.99-2.11,5.31-.37.88-.71,1.71-1.04,2.53-.67,1.63-1.32,3.27-1.97,4.91-.2.51-.4,1.02-.6,1.53-.04.13-.08.26-.12.39,0-.03,0-.05,0-.07h0s-.38.97-.38.97c-.27.63-.54,1.25-.81,1.87Z"/><path class="cls-6" d="M35.34,74.62c0-.14,0-.29,0-.43,0-.1,0-.2,0-.3.33-.89.65-1.77.97-2.66.02.15.03.3.05.45-.33.98-.67,1.96-1.02,2.94Z"/><path class="cls-6" d="M50.19,31.49h0s-.01.06-.02.08c.13-.31.26-.63.4-.95-.13.29-.25.58-.38.87Z"/><path class="cls-6" d="M46.78,40.94c.01.12.03.25.04.37-.34.84-.69,1.69-1.07,2.58,0-.18,0-.37,0-.56,0-.04,0-.09,0-.14.22-.46.45-.92.67-1.37.12-.29.24-.58.36-.87Z"/><path class="cls-6" d="M38.8,60.35c-.07.24-.15.48-.22.72-.08-.15-.16-.28-.23-.4.05-.18.1-.36.15-.53.15-.45.31-.9.46-1.35l.25.34c-.14.41-.28.82-.42,1.23Z"/><path class="cls-6" d="M46.43,38.67s.08-.06.12-.1c0,.04,0,.09.01.13-.25.58-.5,1.17-.74,1.73,0-.16.01-.31.02-.47.19-.43.39-.86.59-1.3Z"/><path class="cls-6" d="M50.6,30.53s.09-.2.19-.46c-.11.26-.17.41-.19.46Z"/><path class="cls-6" d="M46.13,47.77c.2-.42.44-.79.68-1.15-.51,1.33-1.01,2.67-1.5,4.01-.13.32-.26.65-.39.97.49-1.39.64-2.57,1.21-3.83Z"/><path class="cls-6" d="M49.46,61.67c-.36.85-.72,1.7-1.07,2.55-.17.21-.34.42-.5.63.41-1.05.84-2.1,1.27-3.14.1-.01.2-.03.3-.04Z"/><path class="cls-6" d="M40.5,83.27c-.39.99-.79,1.99-1.19,2.99-.04.09-.07.18-.11.27-.16.18-.31.35-.46.51-.08.08-.15.17-.23.25.54-1.21,1.07-2.42,1.59-3.64.13-.13.27-.25.4-.38Z"/><path class="cls-6" d="M46.81,46.62c.36-.53.72-1.06.94-1.72,1.04-2.79,2.15-5.55,3.3-8.29.39-.93.81-1.91,1.21-2.83.15-.38,1.28-3.28,2.56-6.51-.1.01-.19.03-.29.06-1.33,3.36-2.53,6.4-2.71,6.87-.35.79-.79,1.87-1.17,2.78-1.33,3.21-2.6,6.43-3.82,9.65Z"/><path class="cls-6" d="M40.79,84.6c-.09.12-.19.24-.28.36-.06.07-.11.14-.17.21.37-.94.73-1.87,1.09-2.81.11-.11.22-.22.33-.34-.32.86-.64,1.72-.97,2.58Z"/><path class="cls-6" d="M49.83,59.12l.69-1.35c.08-.19.15-.37.23-.56.39-.96.79-1.92,1.2-2.88l.03-.08c.39-.93.79-1.86,1.2-2.78.47-1.12.89-2.14,1.31-3.15.84-2.02,1.69-4.04,2.53-6.04.26-.61,2.5-6.26,4.3-10.79-.02-.14-.06-.28-.09-.41-1.81,4.56-4.1,10.35-4.36,10.98-.83,2-1.66,4-2.47,6-.41,1-.85,2.07-1.29,3.11-.43,1-.85,1.99-1.27,2.99-.42,1-.83,1.99-1.23,3l-.07.17c-.24.59-.48,1.18-.71,1.78Z"/><path class="cls-6" d="M47.26,65.71c.51-1.32,1.02-2.63,1.53-3.94.04,0,.08-.01.13-.02-.49,1.22-.97,2.45-1.46,3.68-.07.09-.14.19-.2.28Z"/><path class="cls-6" d="M43.96,54.51c-.39,1.04-.79,2.09-1.19,3.14-.4,1.07-.8,2.15-1.21,3.3-.26.75-.52,1.5-.78,2.25-.27.76-.53,1.51-.81,2.27-3.18,8.28-5.99,16.92-9.55,25.07.21-.59.42-1.18.62-1.76,2.85-6.52,5.12-13.31,7.48-19.94.41-1.09.67-1.79.86-2.26.11-.26.18-.53.23-.79.23-.62.46-1.24.69-1.86.26-.72.51-1.44.77-2.16.27-.82.55-1.66.82-2.49.7-2.1,1.46-3.81,2.28-5.82.25-.62.5-1.23.75-1.85,0,.02-.02.05-.02.07-.29.94-.6,1.89-.93,2.84Z"/></g></svg>