<?xml version="1.0" encoding="UTF-8"?><svg xmlns="http://www.w3.org/2000/svg" xmlns:xlink="http://www.w3.org/1999/xlink" viewBox="0 0 102.24 150.24"><defs><style>.cls-1{fill:url(#linear-gradient-5);}.cls-1,.cls-2,.cls-3,.cls-4,.cls-5,.cls-6,.cls-7,.cls-8,.cls-9,.cls-10,.cls-11,.cls-12,.cls-13,.cls-14,.cls-15{fill-rule:evenodd;}.cls-2{fill:url(#linear-gradient-7);}.cls-3{fill:url(#linear-gradient-8);}.cls-4{fill:url(#linear-gradient-2);}.cls-5{fill:url(#linear-gradient-3);}.cls-6{fill:url(#linear-gradient-4);}.cls-7{fill:url(#linear-gradient-9);}.cls-8{fill:url(#linear-gradient-6);}.cls-16{fill:none;stroke:#1e1e1c;stroke-miterlimit:10;stroke-width:.25px;}.cls-9{fill:#f7d498;}.cls-17{fill:url(#linear-gradient);}.cls-18{fill:#356d55;}.cls-19{fill:#fff;}.cls-20{fill:url(#linear-gradient-10);}.cls-21{fill:url(#linear-gradient-11);}.cls-22{fill:url(#linear-gradient-12);}.cls-23{fill:url(#linear-gradient-13);}.cls-24{fill:url(#linear-gradient-14);}.cls-25{fill:url(#linear-gradient-16);}.cls-26{fill:url(#linear-gradient-17);}.cls-10{fill:url(#linear-gradient-19);}.cls-11{fill:url(#linear-gradient-18);}.cls-12{fill:url(#linear-gradient-15);}.cls-13{fill:#f6c008;}.cls-14{fill:#8b6f4f;}.cls-15{fill:#f7d499;}.cls-27{fill:#ee6f4e;}.cls-28{fill:#68aa87;}</style><linearGradient id="linear-gradient" x1="167.58" y1="-704.62" x2="155.09" y2="-702.3" gradientTransform="translate(242.28 713.49) rotate(-28.17)" gradientUnits="userSpaceOnUse"><stop offset="0" stop-color="#d8b478"/><stop offset="1" stop-color="#d55a45"/></linearGradient><linearGradient id="linear-gradient-2" x1="51.59" y1="35.3" x2="62.1" y2="35.3" gradientUnits="userSpaceOnUse"><stop offset="0" stop-color="#f7d498"/><stop offset="1" stop-color="#e0a275"/></linearGradient><linearGradient id="linear-gradient-3" x1="56.76" y1="30.11" x2="58.94" y2="30.11" xlink:href="#linear-gradient-2"/><linearGradient id="linear-gradient-4" x1="61.12" y1="26.08" x2="57.33" y2="33.42" gradientUnits="userSpaceOnUse"><stop offset="0" stop-color="#8b6f4f"/><stop offset=".25" stop-color="#876c4d"/><stop offset=".46" stop-color="#7d654a"/><stop offset=".65" stop-color="#6b5a45"/><stop offset=".83" stop-color="#53493e"/><stop offset="1" stop-color="#363635"/></linearGradient><linearGradient id="linear-gradient-5" x1="52.82" y1="26.96" x2="56.4" y2="26.96" xlink:href="#linear-gradient-2"/><linearGradient id="linear-gradient-6" x1="51.1" y1="26.66" x2="52.26" y2="34" gradientUnits="userSpaceOnUse"><stop offset="0" stop-color="#8b6f4f"/><stop offset=".24" stop-color="#9a7b58"/><stop offset=".72" stop-color="#b59168"/><stop offset="1" stop-color="#c0996e"/></linearGradient><linearGradient id="linear-gradient-7" x1="52.04" y1="25.79" x2="53.79" y2="36.79" gradientUnits="userSpaceOnUse"><stop offset="0" stop-color="#8b6f4f"/><stop offset=".3" stop-color="#8e7150"/><stop offset=".56" stop-color="#987956"/><stop offset=".79" stop-color="#aa8761"/><stop offset="1" stop-color="#c0996e"/></linearGradient><linearGradient id="linear-gradient-8" x1="50.35" y1="26.06" x2="52.1" y2="37.06" xlink:href="#linear-gradient-7"/><linearGradient id="linear-gradient-9" x1="64.31" y1="23.89" x2="46.37" y2="23.29" gradientUnits="userSpaceOnUse"><stop offset="0" stop-color="#356d55"/><stop offset=".35" stop-color="#437e63"/><stop offset="1" stop-color="#68aa87"/></linearGradient><linearGradient id="linear-gradient-10" x1="50.39" y1="125.64" x2="48.66" y2="131.38" gradientUnits="userSpaceOnUse"><stop offset="0" stop-color="#356d55"/><stop offset=".21" stop-color="#46785b"/><stop offset=".64" stop-color="#74966a"/><stop offset="1" stop-color="#a0b37a"/></linearGradient><linearGradient id="linear-gradient-11" x1="53.54" y1="92.74" x2="47.03" y2="114.33" xlink:href="#linear-gradient-10"/><linearGradient id="linear-gradient-12" x1="62.25" y1="124.28" x2="60.92" y2="134.93" xlink:href="#linear-gradient-10"/><linearGradient id="linear-gradient-13" x1="59.76" y1="79.69" x2="54.41" y2="122.67" xlink:href="#linear-gradient-10"/><linearGradient id="linear-gradient-14" x1="3039.23" y1="28.72" x2="2996.87" y2="105.29" gradientTransform="translate(3059.33 33.66) rotate(-178.75) scale(1 -1)" gradientUnits="userSpaceOnUse"><stop offset="0" stop-color="#787992"/><stop offset=".28" stop-color="#758190"/><stop offset=".71" stop-color="#6e978b"/><stop offset="1" stop-color="#68aa87"/></linearGradient><linearGradient id="linear-gradient-15" x1="65.86" y1="36.05" x2="48.53" y2="54.69" gradientUnits="userSpaceOnUse"><stop offset="0" stop-color="#cb1525"/><stop offset=".25" stop-color="#d1262d"/><stop offset=".74" stop-color="#e35441"/><stop offset="1" stop-color="#ee6f4e"/></linearGradient><linearGradient id="linear-gradient-16" x1="617.15" y1="-428.36" x2="617.54" y2="-427.75" gradientTransform="translate(551.29 132.4) rotate(157.02) scale(.7 -.7)" gradientUnits="userSpaceOnUse"><stop offset="0" stop-color="#658e4c"/><stop offset="1" stop-color="#a0b37a"/></linearGradient><linearGradient id="linear-gradient-17" x1="590.14" y1="-434.87" x2="626.12" y2="-378.63" xlink:href="#linear-gradient-16"/><linearGradient id="linear-gradient-18" x1="3008.56" y1="82.12" x2="3015.66" y2="82.12" gradientTransform="translate(3059.33 33.66) rotate(-178.75) scale(1 -1)" gradientUnits="userSpaceOnUse"><stop offset="0" stop-color="#e0a275"/><stop offset="1" stop-color="#f7d498"/></linearGradient><linearGradient id="linear-gradient-19" x1="3371.4" y1="-81.18" x2="3380.34" y2="-81.18" gradientTransform="translate(3297.8 1011.25) rotate(-165.1) scale(1 -1)" xlink:href="#linear-gradient-18"/></defs><g id="NOOOOO"><g id="margem"><polyline class="cls-16" points="21.32 141.14 10.38 141.14 10.38 75.95 10.38 9.1 21.32 9.1"/><line class="cls-16" x1="31.32" y1="9.1" x2="45.53" y2="9.1"/><polyline class="cls-16" points="80.92 9.1 91.86 9.1 91.86 141.14 80.92 141.14"/><line class="cls-16" x1="31.32" y1="9.1" x2="45.53" y2="9.1"/><line class="cls-16" x1="70.92" y1="141.14" x2="56.71" y2="141.14"/><line class="cls-16" x1="56.71" y1="9.1" x2="70.92" y2="9.1"/><line class="cls-16" x1="45.53" y1="141.14" x2="31.32" y2="141.14"/></g></g><g id="BASTOS"><path class="cls-17" d="M52.91,20.76c.32-1.55,2.15-2.2,2.84-.97-.32-1.04-1.23-1.73-2.28-1.92,0,0,0-.01.02-.02.02-.03.05-.07.07-.12.03-.05.05-.11.08-.18.05-.14.09-.32.07-.54,0-.21-.06-.45-.16-.69-.1-.24-.25-.48-.43-.71-.19-.23-.4-.45-.66-.65-.25-.2-.53-.38-.85-.52-.16-.07-.32-.14-.5-.18-.04-.01-.09-.02-.13-.03-.04-.01-.09-.02-.14-.03h-.08s-.04-.01-.06-.02h-.06s-.02,0-.02,0h-.02s0,0,0,0h-.03c-.18,0-.36,0-.54.04-.18.03-.36.09-.53.16-.34.15-.63.4-.83.67-.21.27-.34.56-.44.84-.05.14-.09.28-.12.42-.15.61-1.06,1.09-1.32,1.72-.83,2.01.9,3.79,2.5,4.69.92-1,2.28-1.64,3.63-1.96ZM49.74,19.8c-.49-3.19,2.82-3.65,3.4-1.98-1.25-.1-2.62.48-3.4,1.98ZM49.14,15.45c.09-.09.18-.18.29-.26.1-.08.22-.13.33-.18.24-.1.51-.13.79-.13h.1s.04,0,.06,0h.04c.05.01.13.03.19.04.13.03.27.08.4.13.13.05.26.12.39.18.13.07.25.14.36.22.23.15.45.32.63.5.19.18.34.36.46.54.12.18.21.37.26.54.05.17.06.33.06.47,0,.13-.03.24-.05.31,0,.01,0,.02,0,.03-.1-.02-.2-.03-.3-.04-.5-1.89-2.68-2.41-4.39-1.81.11-.2.23-.39.38-.56Z"/><path class="cls-14" d="M60.14,32.8c-.19.68-1.05,1.05-1.16,1.09.05-.04.36-.29.41-.43.02-.06,0-.1-.11-.11-.41-.03-.65-.07-1.48.21-.09.03-.19.06-.28.08l.04-.6c.73-1.34,1.6-4.28,1.32-5.01-.29-.76-.05-1.74-.05-1.74,0,0,.01-.11.02-.26.02-.31.04-.81-.02-1.08,0,0,0-.02,0-.03l.35.15s.31,2.13.52,2.89c.21.76.65,4.12.45,4.84Z"/><path class="cls-15" d="M62.95,39.36s-3.58,2.03-7.95,2.43c-4.37.4-9.71-2.43-9.71-2.43,0,0,1.38-.45,2.72-.71,1.34-.27,3.17-1.83,3.43-2.5.18-.45.18-3.24.16-5.01,0-.13,0-.25,0-.36,0-.66-.02-1.1-.02-1.1,0,0,0,0,.01,0,.01.09.03.18.04.26.05.27.17.57.32.87.68,1.32,2.16,2.75,3.03,2.78,1.07.04,2.12.2,2.48-.4.03-.05.06-.11.09-.16-.09,1.07-.17,2.88.21,3.51.15.25,2.9,1.66,4.32,2.38.51.26.85.43.85.43Z"/><path class="cls-4" d="M51.59,30.78c.1.01.22.02.36.04.68,1.32,2.16,2.75,3.03,2.78,1.07.04,2.12.2,2.48-.4.03-.05.06-.11.09-.16-.09,1.07-.17,2.88.21,3.51.15.25,2.9,1.66,4.32,2.38-1.26.32-3.79.9-4.87.66-1.43-.32-3.58.22-3.69.24.08-.07,1.3-1.15,1.58-1.58.29-.45-2.67-6.21-3.52-7.11"/><path class="cls-9" d="M57.47,33.2c-.08.13-.17.24-.28.34-.12.11-.26.19-.43.26-.4.16-.96.19-1.7.03-.17-.04-.38-.13-.59-.26-.19-.47-1.11-2.89-.86-5.1.1-.93.17-1.66.22-2.21,1.01-.12,1.99-.16,2.57.03.04.01.07.03.11.04.16.02.33.06.49.11.53.14,1.05.38,1.53.67.07.02.14.05.2.08,0,.27.04.58.14.85.29.76-.67,3.93-1.41,5.17Z"/><path class="cls-5" d="M57.47,33.2c-.08.13-.17.24-.28.34-.12.11-.26.19-.43.26.16-1.51.4-3.45.4-3.45,0,0,.31-.13.49-.4.17-.25-.59-2.08-.65-3.53.53.14,1.05.38,1.53.67.07.02.14.05.2.08,0,.27.04.58.14.85.29.76-.67,3.93-1.41,5.17Z"/><path class="cls-6" d="M59.77,33.08c0,.15-.17.28-.38.38.02-.06,0-.1-.11-.11-.41-.03-.65-.07-1.48.21-.09.03-.19.06-.28.08l.04-.6c.73-1.34,1.6-4.28,1.32-5.01-.29-.76-.05-1.74-.05-1.74,0,0,.01-.11.02-.26.02.01.04.03.06.04.92.62.88,6.54.86,7.02Z"/><path class="cls-1" d="M55.86,26.51c-.88-.64-2.7-.19-3.04.82.33-.18.73-.27,1.1-.25-.1.08-.36.45-.45.53.7.17,1.34.1,2.01-.04-.31-.05,1.16-.23.88-.36.03-.54-.72-.55-.27-.48-.02-.15-.1-.13-.18-.18l-.05-.05Z"/><path class="cls-8" d="M54.5,33.64s-1.24,0-1.62-.06c-.38-.06-.69-.1-.69-.1,0,0-2.16.29-2.58-.1-.41-.39-.48-.58-.07-1.65.33-.84.87-3.72,1.08-4.91.48-.11,1.85-.42,3.19-.58-.05.55-.12,1.28-.22,2.21-.25,2.21.67,4.63.86,5.1.02.05.03.08.03.08Z"/><path class="cls-2" d="M52.56,26.66s0,.14,0,.39c-.01.25-.05.6-.11,1.02-.07.42-.15.91-.23,1.43-.08.52-.15,1.08-.15,1.62,0,.27.03.54.09.79.06.25.16.47.28.68.11.2.25.38.4.53.07.07.16.13.23.18.07.04.18.08.27.11.19.06.37.11.53.14.16.03.3.05.42.04.11,0,.2-.03.24-.06.05-.03.06-.06.06-.06l.05.02s0,.04-.05.11c-.04.07-.15.13-.27.17-.26.08-.64.1-1.08.03-.11-.02-.22-.04-.36-.09-.13-.05-.25-.12-.36-.2-.23-.16-.42-.39-.56-.65-.14-.26-.23-.56-.27-.86-.04-.3-.05-.6-.03-.89.03-.59.15-1.15.27-1.67.12-.52.25-1,.35-1.41.1-.41.17-.76.2-1,.04-.24.05-.38.05-.38h.05Z"/><path class="cls-3" d="M51.85,27.12s-.02.12-.08.33c-.06.21-.17.5-.31.84-.15.34-.32.73-.51,1.16-.18.42-.36.88-.45,1.34-.05.23-.07.46-.05.69.02.22.09.44.18.64.09.2.2.38.33.54.07.08.15.15.22.21.07.05.18.11.27.15.19.1.39.18.55.24.17.06.32.11.44.13.12.03.22.02.27,0,.06-.01.08-.04.08-.04l.05.03s0,.04-.07.08c-.06.05-.18.08-.33.08-.3,0-.71-.07-1.17-.22-.12-.04-.23-.08-.38-.16-.14-.08-.25-.16-.36-.25-.22-.19-.38-.43-.49-.68-.11-.25-.14-.52-.13-.79,0-.26.06-.52.13-.76.14-.49.37-.94.59-1.35.22-.41.45-.79.63-1.11.18-.32.32-.6.4-.8.08-.2.12-.31.12-.31h.06Z"/><path class="cls-7" d="M62.28,26.74c.06.54-1.02.54-1.75.9-.26.13-.51.2-.76.24-.32-.28-.65-.54-1.04-.71-.07-.03-.14-.05-.2-.08-.48-.3-1.01-.54-1.53-.67-.16-.05-.33-.08-.49-.11-.04-.01-.07-.02-.11-.04-.57-.19-1.56-.16-2.57-.03-1.34.16-2.72.47-3.19.58-.11.03-.18.04-.18.04l.19-1.44c-.7-.43-1.33-.82-1.66-1.05-.98-.7.18-1.83.87-2.9.69-1.07.96-1.63,3.24-2.04,2.28-.41,7.14,2.22,8.32,3.61.84.99.74,2.64.86,3.71Z"/><path class="cls-28" d="M50.66,25.42s.1-.13.3-.32c.2-.19.51-.46.94-.69.21-.12.45-.23.72-.32.27-.08.56-.16.87-.17h.12s.03-.01.03-.01h.03s.06,0,.06,0c.08,0,.15,0,.23,0,.15,0,.31,0,.46,0,.32.02.64.04.96.08.32.06.64.1.95.2.31.07.6.19.89.3.14.06.27.13.41.19.13.06.25.14.37.21.12.07.23.15.34.22.11.07.21.15.3.23.19.15.34.32.47.46.13.15.23.29.31.4.16.24.21.39.21.39,0,0-.08-.14-.26-.35-.09-.1-.2-.23-.35-.35-.07-.07-.15-.13-.23-.19-.08-.07-.17-.13-.27-.2-.09-.07-.19-.14-.31-.2-.11-.06-.22-.14-.34-.19-.12-.06-.24-.13-.37-.18-.13-.05-.26-.11-.4-.16-.28-.09-.56-.19-.86-.26-.29-.08-.6-.12-.91-.18-.31-.04-.61-.07-.92-.09-.16,0-.31-.01-.46-.02-.08,0-.15,0-.23,0h-.06s-.02,0-.02,0h-.03s-.11,0-.11,0c-.57.01-1.09.18-1.52.36-.21.1-.4.19-.57.29-.17.1-.3.19-.42.27-.22.16-.34.27-.34.27Z"/><path class="cls-20" d="M55.02,124.49v5.75h-2.42l.08-.55s-1.75,1.64-4.42,2.1c-2.67.46-5.92.55-5.75,0,.17-.55,5.17-3.38,5.17-3.38,0,0,2.75-3.47,3.17-4.38.03-.06.05-.14.05-.24.8.72,1.71,1.48,1.98,1.48s2.13-.78,2.13-.78Z"/><path class="cls-21" d="M48,99.46c.09,1.15.35,8.27,1.14,13.26.74,4.66,2.47,9.74,2.34,11.18.84.76,1.8,1.56,2.09,1.56.17,0,.87-.26,1.44-.49,0-.1-.01-.23-.02-.39-.1-1.84-.33-7.33.04-11.67.44-5.29-1.58-14.61-1.58-14.61l1.14-14.61s-2.28-1.06-4.22-1.35c-1.93-.29-5.18.96-5.18.96,0,0,.26,3.65,1.23,7.5.97,3.85,1.49,7.5,1.58,8.65Z"/><path class="cls-22" d="M66.41,135.68c-.16.43-.7.43-1.25.34-.55-.09-4.14-1.62-4.84-2.73-.7-1.11-1.79-2.39-1.79-2.39h-.78l-1.56-.77.08-2.65s.39-1.14.56-2.51c.16.22.4.36.77.29.55-.11,1.56-.69,1.56-.69l1.09-.26s1.17,3.67,1.72,4.53c.55.85,2.5,1.88,2.65,2.31.16.43,1.95,4.1,1.8,4.53Z"/><path class="cls-23" d="M56.84,125c.18.25.45.41.87.33.62-.12,1.76-.77,1.76-.77,0,0,.02-.08.06-.24.3-1.3,1.77-7.66,2.31-11.87.62-4.71-.44-11.05-.44-11.05l.44-5.09s2.2-12.21,2.11-13.17c-.09-.96-1.93-2.31-5.27-2.31s-5.36,1.25-5.36,1.25c0,0,.88,11.73,1.49,14.61.61,2.88,1.05,4.04,1.05,5.67s-.62,7.69-.18,10.96c.44,3.27,1.14,7.98,1.23,10.09.02.53-.01,1.08-.08,1.6Z"/><path class="cls-24" d="M67.37,44.62c-.04-.17-.09-.33-.14-.48.05-.15.09-.28.1-.37.17-1.24-.95-2.29-1.53-2.65-.16-.1-.39-.26-.67-.42-.89.83-1.89,1.55-2.97,2.12-2.31,1.19-4.77,1.52-7.34,1.46-3.83-.08-8.78-.96-10.28-4.86-1.92.61-3.46.97-3.46.97,0,0-1.08,1.13-.99,2.3-1.99,2.43-5.48,6.66-5.97,7.06-.68.57-1.3,2.76-.92,4.87.38,2.12.58,3.53,1.57,3.84.68.21,1.51-.04,2.41-.49,1.21-.45,3.03-1.15,4.35-1.79.59-.28,2.97-1.75,3.63-2.25.43,1.78.33,14.52.01,17.74-.21,2.08-.42,4.16-.73,6.23l-1.26,5.38c3.19,1.44,6.9,1.94,10.25,2.07,3.58.13,7.52-.14,11.06-1.29.09-.55.14-1,.16-1.3.2-3.56-.94-12.97-1.44-15.43h0c-.02-.15-.04-.3-.06-.45,1.46-.32,5.02-3.18,5.77-5.61.75-2.44-.82-13.76-1.56-16.65Z"/><path class="cls-19" d="M54.06,80.26s0,0-.01,0c0,0,0,0,0,0,0,0,0,0,0,0Z"/><polygon class="cls-19" points="51.36 39.88 51.35 39.87 51.35 39.88 51.36 39.88"/><path class="cls-12" d="M46.18,38.43l-1.66.41-.76,1.88.54,22.87s-1.17.02-1.19.51c-.03.49.52,6.94.59,7.35.07.42-1.3.84-1.24,1.41.06.58.56,4.64,1.54,4.69.98.05,9.18-9.81,17.52-16.81,7.81-6.55,4.3-21.27,4.3-21.27,0,0-1.5-.41-1.87-.26-.37.15-3.67,2.53-9.97,1.37-6.3-1.16-6.82-2.19-6.82-2.19l-.99.03Z"/><path class="cls-27" d="M44.29,63.59s.11-.06.32-.18c.2-.12.5-.3.88-.53.38-.23.82-.54,1.35-.85,9.72-5.76,16.79-17.82,17.58-20.17.13-.4.22-.72.28-.94.06-.22.08-.34.08-.34,0,0-.04.48-.25,1.3-.11.41-.25.9-.44,1.46-.19.56-.43,1.18-.73,1.85-.14.34-.31.68-.48,1.04-.17.36-.37.71-.56,1.09-.21.37-.42.74-.64,1.13-.23.38-.47.76-.71,1.15-.26.39-.52.78-.78,1.17-.28.38-.56.77-.84,1.16-.3.39-.62.77-.93,1.16-.15.2-.33.37-.49.56l-.5.55-.25.28-.27.26c-.18.18-.36.35-.54.53-.35.36-.73.68-1.1,1.01-.19.16-.36.33-.55.49-.19.16-.38.31-.57.47-.19.15-.37.31-.56.46-.19.15-.38.29-.57.44-.74.59-1.49,1.12-2.21,1.61-.36.24-.71.49-1.05.71-.35.22-.68.44-1,.64-.33.2-.64.39-.93.57-.3.18-.59.34-.86.5-.54.31-1.01.57-1.41.78-.39.21-.71.37-.92.48-.22.1-.33.16-.33.16Z"/><path class="cls-27" d="M46.27,45.37s.07,0,.21,0c.14,0,.34,0,.6.02.26,0,.58,0,.94,0,6.62.23,14.23-3.28,15.43-4.13.2-.15.36-.27.46-.35.1-.09.16-.13.16-.13,0,0-.19.21-.58.53-.2.16-.44.35-.73.55-.29.21-.62.42-1,.65-.19.11-.39.22-.59.34-.21.11-.43.22-.65.34-.23.11-.46.22-.7.34-.24.11-.49.21-.75.32-.26.1-.52.21-.79.31-.27.1-.54.19-.81.29-.28.09-.56.17-.85.26-.14.05-.29.08-.43.11l-.43.11-.22.05-.22.04c-.15.03-.29.06-.44.08-.29.06-.59.1-.88.14-.14.02-.29.05-.43.06-.14.02-.29.03-.43.05-.14.02-.29.03-.43.05-.14.01-.28.02-.42.03-.56.05-1.1.07-1.61.09-.26,0-.51.02-.75.02-.24,0-.48,0-.7,0-.22,0-.44,0-.64-.01-.2,0-.4-.02-.58-.02-.36-.02-.68-.04-.94-.06-.26-.02-.47-.04-.6-.05-.14-.02-.21-.02-.21-.02Z"/><path class="cls-27" d="M44.05,71.56s.14-.08.39-.24c.26-.16.63-.39,1.1-.69.23-.15.5-.32.78-.5,3.19-2.06,13.5-10.57,17.66-21.47.28-.72.42-1.49.6-2.24.43-1.77.71-3.26.87-4.3.08-.52.14-.94.18-1.22.03-.28.05-.43.05-.43,0,0,0,.15-.02.43-.02.28-.05.7-.1,1.23-.12,1.05-.3,2.56-.67,4.35-.18.89-.41,1.86-.69,2.87-.28,1.01-.61,2.07-1.02,3.15-.4,1.08-.87,2.18-1.42,3.26-.55,1.09-1.18,2.16-1.91,3.18-.09.13-.18.26-.28.38l-.29.37c-.1.12-.18.24-.29.37l-.31.36c-.21.24-.41.47-.61.71-.21.23-.43.45-.64.68-.22.22-.43.45-.65.67-.22.21-.45.42-.67.63-.44.43-.9.82-1.35,1.21-.11.1-.22.19-.33.29-.11.09-.23.19-.34.28-.23.18-.45.37-.67.55-.45.36-.9.7-1.33,1.03-.44.33-.87.64-1.29.94-.43.29-.84.58-1.23.85-.4.26-.78.52-1.15.76-.37.23-.72.45-1.06.66-.33.2-.65.39-.94.57-.29.17-.56.33-.8.47-.49.28-.88.49-1.14.63-.27.14-.41.22-.41.22Z"/><path class="cls-13" d="M66.41,39.63c-.03.51-.9.89-1.95.83-1.05-.06-1.88-.52-1.85-1.03.03-.51.9-.89,1.95-.83,1.05.06,1.88.52,1.85,1.03Z"/><path class="cls-18" d="M47.82,54.94c-.16-.45-.32-.91-.48-1.36.13.4.27.79.4,1.19.03.06.05.12.07.17Z"/><path class="cls-25" d="M33.43,24.93c-.07-.17-.13-.34-.2-.51.06.16.12.31.18.47h0s.01.03.02.04Z"/><path class="cls-26" d="M37.31,32.14c.97,1.98,3.79,7.52,3.79,7.52l-1.85-.28.18.88s2.29.38,2.91,1.92c.21.51.68,1.5,1.62,3.75-.03-.02-.07-.05-.1-.08-.08-.07-.16-.13-.25-.19-.17-.13-.34-.27-.5-.41-.17-.14-.33-.28-.5-.41-.16-.14-.32-.28-.48-.41-.07-.07-.15-.13-.22-.19,0,.14-.01.27-.02.41,0,0,0,0,0,0,.13.15.27.31.42.48.14.16.29.33.43.49.15.16.29.32.44.48.07.08.15.16.22.23.07.08.15.15.22.23.14.15.29.29.42.42.14.14.27.26.4.37.05.05.1.09.15.14.61,1.45,2.35,5.19,4.15,9.02h0c.09.2.18.39.27.57.08.19.17.37.26.55h0c2.28,4.84,4.5,9.46,4.5,9.46l.06-.03c.14-.33.3-.65.42-.97,0-.02.02-.03.02-.05,0-.02.01-.04.02-.05h0s0-.02.01-.03c.1-.29.09-.59.08-.9,0-.11,0-.22,0-.33,0-.04,0-.08,0-.11,0-.05.01-.11.02-.16.03-.13.07-.24.12-.35.02-.05.04-.1.07-.15-.27-.68-.59-1.48-.93-2.35-.06-.14-.12-.29-.18-.44-.01-.03-.02-.06-.04-.09-1.23-3.11-2.75-6.98-3.82-9.8,0-.05.01-.15.02-.29,0-.1,0-.23,0-.36,0-.07,0-.14,0-.22,0-.08,0-.16,0-.24,0-.17-.01-.35-.03-.54-.01-.19-.03-.39-.05-.6-.01-.1-.02-.21-.03-.31-.01-.1-.03-.21-.04-.32-.02-.21-.05-.43-.08-.65-.03-.22-.06-.43-.09-.65-.03-.18-.05-.36-.08-.54-.11-.1-.22-.2-.34-.3,0,.08,0,.16,0,.24,0,.2,0,.41,0,.63,0,.21,0,.43,0,.65,0,.22,0,.43-.02.65,0,.1,0,.21-.01.32,0,.1-.01.21-.02.31,0,.08,0,.15-.01.23-2.04-5.41-3.87-7.95-4.06-11.75,0-.06-.01-.12-.02-.17,0-.03.02-.06.03-.1.04-.14.09-.29.13-.44.05-.15.1-.3.15-.46,0-.01,0-.02.01-.04-.11-.14-.22-.28-.34-.42-.05.08-.1.16-.14.24-.05.08-.62.8-.67.88l-.87-2.47-.6-1.7-1.26-3.58-1.04-2.96-.63-1.78v-.02s-.56-1.57-.56-1.57l-.33-.95c-.05-.08-.1-.15-.15-.23-.07-.1-.14-.19-.21-.28-.08-.1-.16-.19-.24-.27-.08-.08-.16-.16-.24-.23-.08-.07-.16-.14-.25-.19-.06-.04-.12-.08-.19-.12-.24-.14-.49-.24-.77-.29-.01,0-.02,0-.04,0-.12-.02-.24-.04-.36-.04-.05,0-.1,0-.15,0-.07,0-.13,0-.2.01-.07,0-.14.02-.22.03-.14.02-.29.06-.44.11-.04.01-.07.02-.11.04-.08.03-.17.06-.25.1-.04.01-.07.03-.1.05-.02,0-.03.01-.05.02-.11.05-.21.1-.3.16-.02,0-.04.02-.06.03-.03.02-.06.03-.09.05-.06.04-.12.08-.18.13-.11.08-.21.17-.3.26-.03.03-.07.07-.1.1-.05.06-.1.12-.15.18-.03.04-.06.08-.09.13-.14.22-.23.45-.3.69-.02.08-.04.15-.05.23-.04.24-.05.5-.03.77,0,.09.01.17.03.26.05.44.17.9.35,1.37.25.45.54.97.85,1.54.1.18.2.37.31.56h0c.56,1.01,1.15,2.1,1.64,3.01.03.06.07.13.1.19,0,0-.02-.01-.03-.02,0,0-.01-.01-.02-.02-.08-.07-.16-.13-.25-.2-.17-.13-.33-.27-.5-.4-.17-.14-.33-.28-.5-.41-.15-.13-.29-.25-.43-.37-.02.15-.04.29-.06.44.06.07.13.15.2.23.14.16.29.32.43.49.15.16.3.33.45.48.07.08.15.16.22.23.07.08.15.15.22.22.14.15.29.29.42.42.13.13.27.26.39.37,0,0,.02.01.03.02.05.05.1.1.16.14,0,0,0,0,.01.01h0c.05.05.1.09.15.13,0,0,.01.01.02.02Z"/><path class="cls-18" d="M51.53,56.07c-.2-.44-.41-.88-.62-1.32.18.38.37.76.55,1.14.02.06.05.12.07.18Z"/><path class="cls-18" d="M41.94,33.31c.23.53.45,1.05.68,1.58,2.02,4.29,3.96,8.64,5.45,13.06-1.57-4.29-3.28-8.55-5.35-12.78-.23-.53-.49-1.12-.72-1.66-.52-1.12-.92-2.16-1.34-3.28-.21-.55-.43-1.1-.64-1.65.2.51.4,1.02.61,1.54.42,1.07.86,2.14,1.31,3.19Z"/><path class="cls-18" d="M49.44,52.56c.93,2.14,1.91,4.26,2.95,6.35.23.56.51,1.19.74,1.75.48,1.15.96,2.29,1.45,3.44.02-.05.04-.1.07-.15-.27-.68-.59-1.48-.93-2.35-.05-.13-.1-.25-.15-.38l-.03-.06s-.02-.06-.04-.09c-.17-.43-.35-.86-.53-1.29-.21-.48-.42-.95-.63-1.43-.22-.49-.44-.98-.69-1.52-.67-1.3-1.31-2.61-1.92-3.94-.2-.44-.4-.89-.6-1.33-.22-.47-.45-1.01-.66-1.5-1.75-4.84-3.51-9.6-5.9-14.39-.24-.55-.51-1.15-.74-1.7-.47-1.1-.93-2.21-1.38-3.31-.22-.58-.43-1.17-.66-1.75-.17-.44-.33-.87-.5-1.31-.17-.44-.34-.87-.51-1.31-.13-.35-1.48-3.55-2.5-5.97-.05,0-.1,0-.15,0,.99,2.35,2.26,5.39,2.37,5.68.2.52.41,1.07.61,1.59.4,1.04.79,2.07,1.19,3.11.23.6.47,1.22.73,1.88.24.48.47.96.7,1.44.23.48.45.96.68,1.44,2.16,4.37,3.89,8.75,5.53,13.43.26.83.64,1.61.95,2.39.19.43.37.86.56,1.29Z"/><path class="cls-18" d="M49.74,53.95c.57,1.27,1.14,2.55,1.72,3.85.21.5.46,1.09.67,1.6.2.49.38.96.56,1.42.56,1.42,1.14,2.83,1.72,4.23,0-.11,0-.22,0-.33,0-.04,0-.07.01-.11h0c-.56-1.35-1.11-2.71-1.65-4.07-.21-.51-.41-1.02-.63-1.56-.65-1.36-1.29-2.74-1.91-4.12-.21-.46-.41-.92-.62-1.38-.18-.42-.37-.84-.55-1.26s-.37-.84-.55-1.26c-1.19-2.76-2.03-5.36-3.08-8.14-1-2.67-2.32-5.06-3.4-7.51-.24-.55-.49-1.1-.73-1.64-.25-.55-.49-1.1-.74-1.65-.17-.52-.43-1.18-.64-1.77-.19-.51-.38-1.03-.57-1.54-.2-.51-.39-1.02-.59-1.54-.22-.58-1.73-4.18-2.84-6.83-.07,0-.14.02-.22.03.99,2.36,2.25,5.36,2.38,5.66.21.55.44,1.13.64,1.68.41,1.1.82,2.2,1.2,3.3.22.58.45,1.15.7,1.74.2.46.4.92.61,1.38.21.46.41.92.62,1.38,2.26,4.5,4.13,9.09,5.81,13.85.25.58.49,1.13.74,1.68.25.55.5,1.09.76,1.64.19.43.38.85.57,1.28Z"/><path class="cls-18" d="M49.46,47.53c0,.06.02.13.03.19,0,.03,0,.06.01.09-.06-.12-.12-.23-.17-.35-.11-.23-.23-.46-.34-.69,0-.08,0-.15,0-.22.16.32.32.65.48.97Z"/><path class="cls-18" d="M42.66,32.69l-.6-1.93c-.16-.4-.32-.81-.47-1.19-.2-.49-.72-1.75-1.35-3.28-.67-1.61-1.46-3.51-2.12-5.1-.08-.08-.16-.16-.24-.23.93,2.22,2.01,4.76,2.1,5.01.35.89.7,1.79,1.06,2.68.08.2.16.4.24.6.13.31.26.63.38.94.34.83.67,1.66,1,2.5Z"/><path class="cls-18" d="M52.71,62.49c.49,1.19,1.05,2.39,1.56,3.59h0s.03-.07.04-.11h0c-.46-1.06-.94-2.1-1.41-3.21-.22-.58-.44-1.16-.66-1.74-.2-.5-.4-1.01-.6-1.51-.21-.51-.44-1.08-.65-1.59-.18-.45-.37-.9-.55-1.36-.19-.45-.37-.91-.56-1.36-.7-1.63-1.42-3.23-2.13-4.83-.24-.53-.48-1.08-.71-1.62-1.65-4.05-3.07-8.01-4.97-11.96-.19-.44-.38-.87-.58-1.31-.39-.87-.79-1.74-1.2-2.6-.22-.56-.49-1.2-.73-1.79-.52-1.36-1.04-2.7-1.55-4.02-.18-.45-.36-.92-.53-1.36-.1-.27-1.24-2.98-2.2-5.26-.04.01-.07.02-.11.04,1,2.39,2.31,5.52,2.44,5.84.18.46.36.92.53,1.37.35.91.7,1.82,1.05,2.72.17.44.35.88.53,1.31.18.44.36.88.53,1.31.56,1.27,1.13,2.54,1.69,3.82.19.43.38.85.58,1.29,1.72,3.41,2.92,7.06,4.42,10.58.24.53.48,1.09.73,1.63.73,1.61,1.46,3.21,2.16,4.83.2.46.39.92.58,1.39.19.46.38.93.57,1.39.19.46.41,1,.6,1.48.18.47.37.93.54,1.4.21.54.41,1.08.62,1.62Z"/><path class="cls-18" d="M39.4,27c.19.49.38.97.57,1.46-.18-.45-.35-.9-.52-1.36-.19-.49-.4-1.03-.59-1.51-.07-.18-1.26-3-2.19-5.22-.01,0-.02,0-.04,0,.93,2.2,2.1,4.96,2.17,5.12.19.48.41,1.02.6,1.52Z"/><path class="cls-18" d="M40.02,28.58s0-.01,0-.02c-.01-.04-.03-.07-.04-.11.02.04.03.09.05.13Z"/><path class="cls-18" d="M41.69,29.56l-.26-.82c-.26-.67-1.34-3.29-2.38-5.81-.16-.39-.33-.79-.48-1.17-.07-.1-.14-.19-.21-.28.39.96.83,2.01,1.25,3.02v.02c.94,2.25,1.81,4.36,2.09,5.04Z"/><path class="cls-18" d="M44.84,37.41s0,.06,0,.09c0,.04,0,.07,0,.11-.15-.37-.3-.75-.45-1.12.02-.02.03-.04.05-.06.13.33.26.66.39.99Z"/><path class="cls-18" d="M44.82,35.89s.06.07.1.11c.06.17.11.35.17.52-.02.06-.04.11-.05.17-.08-.25-.16-.5-.24-.75,0-.02.02-.03.03-.05Z"/><path class="cls-18" d="M37.18,27.59c-.16-.4-.31-.81-.47-1.21-.2-.52-.4-1.06-.59-1.58-.05-.14-.86-2.05-1.67-3.96-.02,0-.04.02-.06.03.97,2.32,2.13,5.09,2.25,5.39.17.45.35.89.53,1.33Z"/><path class="cls-18" d="M39.31,32.63c-.77-1.67-1.47-3.36-2.13-5.04.65,1.61,1.34,3.2,2.06,4.77.22.52.45,1.03.68,1.55.23.52.46,1.03.7,1.55,0,.03.02.06.02.09-.22-.45-.43-.89-.63-1.34-.24-.53-.48-1.05-.7-1.58Z"/><path class="cls-18" d="M38.76,33.8c.2.24.4.46.52.74.23.56.46,1.11.69,1.66.22.53.46,1.08.69,1.61.19.39.38.79.56,1.18.19.39.37.8.56,1.19.23.54.47,1.09.72,1.66,2.18,4.93,4.61,9.57,6.27,14.67h0c.09.2.18.39.27.57.08.19.17.37.26.55-1.76-5.67-4.64-11.02-7.04-16.56-.21-.46-.42-.94-.63-1.41-.22-.47-.45-.94-.69-1.41-.25-.57-.48-1.11-.7-1.64-.15-.35-.31-.75-.46-1.1-.18-.44-.36-.88-.55-1.32-.19-.45-.38-.91-.57-1.36-1.04-2.25-1.99-4.51-2.89-6.8-.18-.47-.38-.95-.56-1.42-.05-.13-.69-1.64-1.39-3.3-.03.03-.07.07-.1.1.81,1.93,1.58,3.77,1.69,4.05.21.57.43,1.15.64,1.71.86,2.28,1.76,4.52,2.69,6.62Z"/><path class="cls-18" d="M35.57,30.44c-.05-.16-.1-.31-.15-.47.07.17.13.34.19.52-.01-.01-.03-.03-.04-.04Z"/><path class="cls-18" d="M35.42,29.97c-.08-.2-.16-.4-.24-.61,0,0,0,0,0,0,.07.17.14.35.21.52,0,.03.02.05.03.08Z"/><path class="cls-18" d="M46.2,47.85c-.44-.94-.85-1.92-1.26-2.9.34.78.67,1.56,1.01,2.33.08.19.17.38.25.57Z"/><path class="cls-18" d="M38.49,29.94c.21.5.42,1.01.65,1.51.21.5.42,1,.64,1.5.22.5.47,1.04.69,1.53.45.91.86,1.84,1.26,2.79.2.47.39.95.58,1.43.84,2.13,1.74,4.19,2.63,6.25-.86-2.11-1.68-4.27-2.57-6.33-.19-.47-.39-.95-.59-1.42-.4-.94-.82-1.87-1.28-2.78-.27-.6-.53-1.2-.78-1.79s-.49-1.18-.74-1.77c-.2-.49-.4-.99-.6-1.48-.33-.79-.66-1.6-.98-2.42-.16-.41-.32-.82-.48-1.24-.11-.27-1.18-2.84-2.12-5.08-.02,0-.03.01-.05.02.9,2.15,1.88,4.5,1.98,4.74.19.48.39,1.01.58,1.51.19.5.38,1.01.57,1.51.2.5.4,1.01.61,1.51Z"/><path class="cls-18" d="M47.16,49.93c.78,1.67,1.56,3.35,2.28,5.09.18.45.37.91.54,1.36.17.45.35.91.51,1.37.21.52.39.98.57,1.45.18.46.36.92.53,1.38.19.48.4,1,.6,1.48.19.44.38.87.56,1.31.3.81.57,1.64.9,2.44.13.28.25.56.38.84,0,.02-.02.04-.03.06-.26-.6-.52-1.2-.77-1.8-.33-.67-.42-1.3-.75-1.97-.19-.44-.39-.88-.58-1.32-.2-.49-.39-.98-.59-1.47-.2-.49-.4-.98-.59-1.46-.18-.48-.35-.95-.53-1.43-.18-.47-.36-.95-.55-1.42-.96-2.43-2.01-4.78-3.07-7.13-.13-.28-.25-.57-.38-.85.06.14.13.27.19.4.26.56.52,1.11.78,1.67Z"/><path class="cls-18" d="M49.54,56.03c.17.49.34.99.5,1.48.19.49.36.94.53,1.39.17.44.33.87.5,1.31.19.46.37.89.55,1.31.18.42.37.85.55,1.28.57,1.24.87,2.45,1.44,3.69.08.18.17.37.25.55,0,0,0,.01,0,.02h0c-.3-.68-.6-1.36-.91-2.04-.47-1.01-.72-2.11-1.19-3.12-.16-.38-.34-.78-.49-1.13-.18-.44-.35-.88-.53-1.32-.18-.45-.37-.93-.54-1.37-.17-.51-.35-1.02-.54-1.53-.41-1.11-.86-2.21-1.33-3.3.4.99.78,1.99,1.12,3,.17.5.33,1,.49,1.5.16.44.33.9.48,1.33.15.42.31.85.46,1.27.17.41.39.94.59,1.4.7,1.65,1.42,3.31,2.14,4.96-.25-.53-.76-1.58-1.41-2.95-.06-.18-.11-.35-.18-.51-.21-.49-.42-.98-.63-1.47-.21-.49-.44-1.05-.64-1.53-.13-.35-.26-.69-.39-1.03-.13-.34-.26-.69-.39-1.03-.19-.58-.39-1.16-.59-1.74-1.83-5.28-4.58-10.02-6.65-15.2-.15-.35-.3-.72-.46-1.07-.46-1.06-.92-2.11-1.4-3.14-.16-.42-.34-.9-.49-1.34-.15-.43-.29-.87-.43-1.32,0,0,0-.01,0-.02.2.49.41.97.61,1.46.35.8.7,1.59,1.05,2.38-.37-.87-.7-1.75-.95-2.67.04.09.09.17.13.26.49,1.46,1.09,2.92,1.73,4.37.04.09.08.19.12.28.16.33.32.67.48,1,.85,1.99,1.71,3.91,2.65,5.85.23.48.45.97.67,1.45,1.12,2.41,2.2,4.82,3.1,7.28Z"/><path class="cls-18" d="M39.94,34.36c-.04-.09-.08-.19-.12-.28.05.08.09.18.12.28Z"/><path class="cls-18" d="M39.83,34.08v-.04c-.24-.53-.46-1.07-.67-1.6-.22-.53-.44-1.08-.68-1.63-.71-1.57-1.38-3.16-2.02-4.76-.12-.31-1.2-2.88-2.15-5.14-.06.04-.12.08-.18.13.87,2.07,1.79,4.26,1.88,4.48.16.42.33.83.5,1.25.84,2.07,1.73,4.14,2.59,6.23.17.48.51.7.73,1.09Z"/><path class="cls-18" d="M49.43,51.54c.47,1.07.97,2.15,1.48,3.22-.59-1.21-1.18-2.41-1.72-3.67-.17-.4-.34-.81-.5-1.24-.19-.63-.4-1.26-.61-1.88.3.83.6,1.65.9,2.48.13.32.3.73.46,1.1Z"/><path class="cls-18" d="M34.34,26.59c.1.18.2.37.31.56-.04-.11-.09-.22-.14-.33-.2-.47-.39-.95-.6-1.48-.06-.17-.37-.93-.79-1.93,0,.09.01.17.03.26.31.74.53,1.26.58,1.38.22.54.42,1.05.62,1.54Z"/><path class="cls-18" d="M42.36,45.15s-.02-.02-.03-.03c-.06-.06-.11-.13-.17-.19-.08-.17-.16-.33-.25-.5,0-.06,0-.12,0-.18.15.3.29.6.43.9Z"/><path class="cls-18" d="M40.53,40.04c.11.23.22.46.34.69-.06-.03-.11-.05-.17-.08-.04-.08-.09-.16-.13-.24-.16-.3-.31-.6-.46-.9l.17.03c.08.17.16.34.25.52Z"/><path class="cls-18" d="M36.96,31.83c.05.05.1.1.16.14,0,0,0,0,.01.01l-.05-.13c-.23-.53-.46-1.1-.68-1.64-.4-.94-.78-1.88-1.16-2.82-.19-.47-.39-.98-.56-1.41-.19-.48-.39-.95-.57-1.43-.04-.11-.42-1-.91-2.15-.02.08-.04.15-.05.23.6,1.43,1.1,2.62,1.17,2.79.19.47.37.91.54,1.34.35.86.72,1.73,1.08,2.59.11.27.23.53.34.8.03.06.07.13.1.19,0,0-.02-.02-.03-.03h0s.21.51.21.51c.13.34.26.67.39,1.01Z"/><path class="cls-18" d="M43.8,46.71c-.05-.05-.11-.11-.16-.16-.04-.04-.07-.08-.11-.11-.2-.46-.41-.91-.62-1.37.06.05.12.1.19.15.24.49.47.99.71,1.49Z"/><path class="cls-18" d="M33.41,24.9h0s.01.03.02.04c-.07-.17-.13-.34-.2-.51.06.16.12.31.18.47Z"/><path class="cls-18" d="M35.63,29.73c.05.04.1.08.15.12.18.45.37.89.55,1.37-.07-.07-.14-.14-.21-.21-.02-.02-.03-.03-.05-.05-.09-.26-.17-.51-.26-.77-.06-.15-.13-.31-.19-.46Z"/><path class="cls-18" d="M39.81,40.03c.06.12.12.24.18.35-.09-.03-.17-.05-.24-.07-.05-.09-.09-.17-.14-.26-.11-.22-.22-.45-.33-.68l.22.03c.1.21.2.41.3.62Z"/><path class="cls-18" d="M34.65,29s0-.05.01-.08c.02.01.03.03.05.04.12.31.24.63.36.93-.05-.06-.11-.12-.16-.18-.09-.24-.17-.47-.26-.71Z"/><path class="cls-18" d="M33.21,24.38s-.04-.11-.1-.24c.06.14.09.22.1.24Z"/><path class="cls-18" d="M37.92,32.56c-.08-.23-.13-.46-.17-.69.3.69.61,1.38.92,2.07.07.17.14.34.21.51-.33-.71-.71-1.21-.96-1.9Z"/><path class="cls-18" d="M44.34,36.58c.18.45.36.91.54,1.36.01.14.03.29.04.43-.23-.55-.46-1.1-.68-1.66.03-.04.06-.08.1-.13Z"/><path class="cls-18" d="M48.96,48.07c.22.52.44,1.05.66,1.57.02.05.04.1.06.14,0,.13.01.25.01.36,0,.06,0,.12,0,.18-.24-.66-.49-1.31-.75-1.97,0-.1,0-.19,0-.29Z"/><path class="cls-18" d="M37.75,31.87c-.06-.34-.12-.67-.29-1-.64-1.44-1.25-2.9-1.83-4.36-.2-.5-.4-1.02-.59-1.52-.09-.2-.73-1.71-1.45-3.41-.03.04-.06.08-.09.13.74,1.76,1.42,3.36,1.52,3.6.16.43.4,1,.59,1.49.69,1.71,1.4,3.39,2.14,5.07Z"/><path class="cls-18" d="M49.57,48.46c0,.08.02.16.03.24,0,.05,0,.09.01.14-.21-.49-.42-.98-.63-1.47,0-.08,0-.17,0-.25.2.44.4.89.59,1.34Z"/><path class="cls-18" d="M43.53,35.47l-.24-.77c-.04-.1-.08-.2-.12-.3-.21-.51-.41-1.02-.61-1.53l-.02-.04c-.2-.5-.39-1-.58-1.5-.24-.6-.46-1.14-.67-1.67-.43-1.08-.86-2.15-1.29-3.22-.13-.33-1.38-3.29-2.38-5.67-.06-.04-.12-.08-.19-.12,1.01,2.4,2.29,5.43,2.43,5.76.43,1.06.86,2.13,1.29,3.19.21.53.44,1.1.67,1.65.21.54.42,1.07.63,1.6.21.53.43,1.06.65,1.59l.04.09c.13.31.26.62.39.93Z"/><path class="cls-18" d="M45,38.92c-.3-.69-.59-1.37-.88-2.06.01-.02.03-.04.04-.05.27.64.54,1.29.81,1.93,0,.06.02.12.03.18Z"/><path class="cls-18" d="M39.6,35.91c.24.54.48,1.08.71,1.63.24.55.49,1.11.76,1.7.18.38.36.76.54,1.14.18.39.36.77.53,1.16,1.87,4.31,4.01,8.62,5.69,13.02-.14-.3-.28-.6-.42-.9-1.34-3.52-3-6.93-4.57-10.31-.25-.56-.41-.93-.51-1.18-.06-.14-.13-.27-.21-.39-.14-.32-.29-.64-.43-.96-.17-.37-.34-.73-.51-1.1-.2-.41-.41-.83-.61-1.24-.51-1.05-.86-1.98-1.3-3.04-.14-.32-.27-.65-.4-.98,0,.01.01.02.02.04.24.46.47.94.7,1.42Z"/><path class="cls-11" d="M49.3,49.96c-.27-.14-.62-.07-.21-.29.41-.22.54-.51.52-.72-.03-.2-.58-.38-.58-.38,0,0,.18-.6.07-.77-.11-.17-.63-.15-.63-.15,0,0,1.19-.28,1.03-.59-.26-.5-1.19-.3-1.51-.28-.32.02-.44.06-.81.12-.36.06-1.36.61-1.76.71-.41.1-.51.46-.97.95-.39.41-1.43,1.31-1.97,1.8.02.41.06,1.3.15,1.64.1.36.49.95.87,1.47.07-.09.13-.17.17-.22.26-.31.93-.15,1.58-.36.65-.21,1.82-1.07,2.2-1.33.37-.26,1.18-.3,1.18-.3,0,0,.62-.17.78-.33.17-.15.16-.85-.12-.99Z"/><path class="cls-10" d="M60.01,62.42c-.29-.01-.53-.02-.65-.03-.48-.01-2.34.1-3.01.06-.68-.04-.99-.22-1.35-.02-.36.21-1.45.5-1.75.7-.3.21-.41.27-.66.47-.25.2-1.05.71-.89,1.24.1.33,1.15-.29,1.15-.29,0,0-.38.35-.35.55.03.2.4.33.4.33,0,0-.32.46-.21.63.12.17.4.27.85.14.45-.13,1.62-.61,1.76-.48.14.14.21.25-.13.48-.33.24-1.16.71-1.16.71,0,0-.48-.18-.59.1-.1.28.47.72.7.71.23,0,1.09-.46,1.09-.46,0,0,.6-.52,1.05-.59.45-.07,1.88-.25,2.49-.56.61-.3.99-.87,1.38-.83.12.01.34.05.59.09-.32-.85-.66-1.98-.71-2.97Z"/></g></svg>