<?xml version="1.0" encoding="UTF-8"?><svg xmlns="http://www.w3.org/2000/svg" xmlns:xlink="http://www.w3.org/1999/xlink" viewBox="0 0 102.24 150.24"><defs><style>.cls-1{fill:url(#linear-gradient-5);}.cls-1,.cls-2,.cls-3,.cls-4,.cls-5,.cls-6,.cls-7,.cls-8,.cls-9,.cls-10,.cls-11,.cls-12,.cls-13,.cls-14,.cls-15,.cls-16,.cls-17,.cls-18,.cls-19,.cls-20,.cls-21{fill-rule:evenodd;}.cls-2{fill:url(#linear-gradient-2);}.cls-3{fill:url(#linear-gradient-3);}.cls-4{fill:url(#linear-gradient-4);}.cls-22{fill:none;stroke:#1e1e1c;stroke-miterlimit:10;stroke-width:.25px;}.cls-5{fill:#e4a36d;}.cls-23{fill:url(#linear-gradient-8);}.cls-24{fill:url(#linear-gradient-7);}.cls-25{fill:url(#linear-gradient-6);}.cls-26{fill:url(#linear-gradient-9);}.cls-6{fill:#f7d498;}.cls-27{fill:url(#linear-gradient);}.cls-28{fill:#356d55;}.cls-7{fill:#1b2025;}.cls-29,.cls-19{fill:#b58372;}.cls-30{fill:url(#linear-gradient-19);}.cls-31{fill:url(#linear-gradient-21);}.cls-32{fill:url(#linear-gradient-20);}.cls-33{fill:url(#linear-gradient-23);}.cls-34{fill:url(#linear-gradient-25);}.cls-35{fill:url(#linear-gradient-24);}.cls-36{fill:url(#linear-gradient-26);}.cls-37{fill:#deb8a3;}.cls-8{fill:url(#linear-gradient-14);}.cls-9{fill:url(#linear-gradient-22);}.cls-10{fill:url(#linear-gradient-18);}.cls-11{fill:url(#linear-gradient-17);}.cls-12{fill:url(#linear-gradient-16);}.cls-13{fill:url(#linear-gradient-15);}.cls-14{fill:url(#linear-gradient-27);}.cls-15{fill:url(#linear-gradient-10);}.cls-16{fill:url(#linear-gradient-11);}.cls-17{fill:url(#linear-gradient-13);}.cls-18{fill:url(#linear-gradient-12);}.cls-20{fill:#feebd9;}.cls-21{fill:#f7d499;}</style><linearGradient id="linear-gradient" x1="45.98" y1="14.18" x2="45.98" y2="58.55" gradientUnits="userSpaceOnUse"><stop offset="0" stop-color="#f6c008"/><stop offset=".16" stop-color="#f4bd10"/><stop offset=".4" stop-color="#efb726"/><stop offset=".7" stop-color="#e8ad4a"/><stop offset="1" stop-color="#e0a275"/></linearGradient><linearGradient id="linear-gradient-2" x1="50.23" y1="30.11" x2="60.08" y2="30.11" gradientUnits="userSpaceOnUse"><stop offset="0" stop-color="#f7d498"/><stop offset="1" stop-color="#e0a275"/></linearGradient><linearGradient id="linear-gradient-3" x1="55.07" y1="23.87" x2="57.22" y2="23.87" xlink:href="#linear-gradient-2"/><linearGradient id="linear-gradient-4" x1="59.41" y1="21.89" x2="55.97" y2="28.54" gradientUnits="userSpaceOnUse"><stop offset="0" stop-color="#8b6f4f"/><stop offset=".25" stop-color="#876c4d"/><stop offset=".46" stop-color="#7d654a"/><stop offset=".65" stop-color="#6b5a45"/><stop offset=".83" stop-color="#53493e"/><stop offset="1" stop-color="#363635"/></linearGradient><linearGradient id="linear-gradient-5" x1="-2533.73" y1="31.54" x2="-2533.73" y2="57" gradientTransform="translate(2296.81 272.86) rotate(5.62) scale(.89 1.04) skewX(-.71)" gradientUnits="userSpaceOnUse"><stop offset="0" stop-color="#363635"/><stop offset="1" stop-color="#9a9999"/></linearGradient><linearGradient id="linear-gradient-6" x1="172.99" y1="511.98" x2="168.73" y2="512.51" gradientTransform="translate(-50.35 -483.9) rotate(6.53)" gradientUnits="userSpaceOnUse"><stop offset="0" stop-color="#deb8a3"/><stop offset="1" stop-color="#b58372"/></linearGradient><linearGradient id="linear-gradient-7" x1="446.72" y1="217.72" x2="441.62" y2="211.2" gradientTransform="translate(-297.44 -288.51) rotate(17.33)" xlink:href="#linear-gradient-6"/><linearGradient id="linear-gradient-8" x1="1088.33" y1="557.59" x2="1084.13" y2="558.11" gradientTransform="translate(1224.54 -281.06) rotate(-168.25) scale(1 -1)" xlink:href="#linear-gradient-6"/><linearGradient id="linear-gradient-9" x1="1354.64" y1="89.44" x2="1349.47" y2="82.83" gradientTransform="translate(1398.02 -16.55) rotate(-179.05) scale(1 -1)" xlink:href="#linear-gradient-6"/><linearGradient id="linear-gradient-10" x1="67.45" y1="50.88" x2="62.84" y2="93.48" gradientUnits="userSpaceOnUse"><stop offset="0" stop-color="#472212"/><stop offset="1" stop-color="#b58372"/></linearGradient><linearGradient id="linear-gradient-11" x1="2662" y1="86.45" x2="2656.25" y2="139.54" gradientTransform="translate(2709.35) rotate(-180) scale(1 -1)" gradientUnits="userSpaceOnUse"><stop offset="0" stop-color="#b58372"/><stop offset="1" stop-color="#363635"/></linearGradient><linearGradient id="linear-gradient-12" x1="67.46" y1="50.85" x2="62.84" y2="93.47" xlink:href="#linear-gradient-10"/><linearGradient id="linear-gradient-13" x1="58.66" y1="105.8" x2="68.16" y2="130.09" gradientTransform="matrix(1,0,0,1,0,0)" xlink:href="#linear-gradient-11"/><linearGradient id="linear-gradient-14" x1="50.54" y1="21.59" x2="52.12" y2="31.55" gradientUnits="userSpaceOnUse"><stop offset="0" stop-color="#8b6f4f"/><stop offset=".3" stop-color="#8e7150"/><stop offset=".56" stop-color="#987956"/><stop offset=".79" stop-color="#aa8761"/><stop offset="1" stop-color="#c0996e"/></linearGradient><linearGradient id="linear-gradient-15" x1="154.22" y1="538.98" x2="155.8" y2="548.93" gradientTransform="translate(41.98 -539.11) rotate(15.21)" xlink:href="#linear-gradient-14"/><linearGradient id="linear-gradient-16" x1="65.69" y1="21.45" x2="40.73" y2="20.61" gradientUnits="userSpaceOnUse"><stop offset="0" stop-color="#356d55"/><stop offset=".35" stop-color="#437e63"/><stop offset="1" stop-color="#68aa87"/></linearGradient><linearGradient id="linear-gradient-17" x1="125.6" y1="167.38" x2="116.91" y2="176.73" gradientTransform="translate(-62.85 -136.18) rotate(3.81)" gradientUnits="userSpaceOnUse"><stop offset="0" stop-color="#cb1525"/><stop offset=".25" stop-color="#d1262d"/><stop offset=".74" stop-color="#e35441"/><stop offset="1" stop-color="#ee6f4e"/></linearGradient><linearGradient id="linear-gradient-18" x1="3989.04" y1="-90.11" x2="3980.34" y2="-80.76" gradientTransform="translate(4040.31 -136.18) rotate(176.19) scale(1 -1)" xlink:href="#linear-gradient-17"/><linearGradient id="linear-gradient-19" x1="323.27" y1="-354.21" x2="323.65" y2="-353.61" gradientTransform="translate(357.19 86.26) rotate(142.05) scale(.7 -.7)" gradientUnits="userSpaceOnUse"><stop offset="0" stop-color="#658e4c"/><stop offset="1" stop-color="#a0b37a"/></linearGradient><linearGradient id="linear-gradient-20" x1="296.26" y1="-360.72" x2="332.24" y2="-304.49" xlink:href="#linear-gradient-19"/><linearGradient id="linear-gradient-21" x1="54.39" y1="46.88" x2="54.39" y2="69.87" gradientUnits="userSpaceOnUse"><stop offset="0" stop-color="#68aa87"/><stop offset=".26" stop-color="#579676"/><stop offset=".73" stop-color="#3e785e"/><stop offset="1" stop-color="#356d55"/></linearGradient><linearGradient id="linear-gradient-22" x1="53.33" y1="40.83" x2="26.33" y2="93.04" gradientUnits="userSpaceOnUse"><stop offset="0" stop-color="#8b6f4f"/><stop offset=".13" stop-color="#7e664b"/><stop offset=".71" stop-color="#4a433b"/><stop offset="1" stop-color="#363635"/></linearGradient><linearGradient id="linear-gradient-23" x1="55.55" y1="58.51" x2="55.55" y2="89.97" gradientTransform="matrix(1,0,0,1,0,0)" xlink:href="#linear-gradient-6"/><linearGradient id="linear-gradient-24" x1="55.59" y1="66.3" x2="55.48" y2="108.16" gradientUnits="userSpaceOnUse"><stop offset="0" stop-color="#b58372"/><stop offset="1" stop-color="#deb8a3"/></linearGradient><linearGradient id="linear-gradient-25" x1="49.54" y1="53.92" x2="49.54" y2="67.86" gradientUnits="userSpaceOnUse"><stop offset="0" stop-color="#b58372"/><stop offset=".3" stop-color="#b78675"/><stop offset=".56" stop-color="#bf907e"/><stop offset=".8" stop-color="#cda28e"/><stop offset="1" stop-color="#deb8a3"/></linearGradient><linearGradient id="linear-gradient-26" x1="4017.85" y1="53.79" x2="4017.85" y2="67.73" gradientTransform="translate(4077.21) rotate(-180) scale(1 -1)" xlink:href="#linear-gradient-25"/><linearGradient id="linear-gradient-27" x1="59.82" y1="40.92" x2="48.57" y2="62.66" xlink:href="#linear-gradient-4"/></defs><g id="NOOOOO"><g id="margem"><polyline class="cls-22" points="21.32 141.14 10.38 141.14 10.38 75.95 10.38 9.1 21.32 9.1"/><line class="cls-22" x1="31.32" y1="9.1" x2="45.53" y2="9.1"/><polyline class="cls-22" points="80.92 9.1 91.86 9.1 91.86 141.14 80.92 141.14"/><line class="cls-22" x1="31.32" y1="9.1" x2="45.53" y2="9.1"/><line class="cls-22" x1="70.92" y1="141.14" x2="56.71" y2="141.14"/><line class="cls-22" x1="56.71" y1="9.1" x2="70.92" y2="9.1"/><line class="cls-22" x1="45.53" y1="141.14" x2="31.32" y2="141.14"/></g></g><g id="BASTOS"><path class="cls-27" d="M40.57,27.8c1.18,2.57,4.58,2.56,6.15,1.88.77.04,1.56-.05,2.2-.18-2.32.09-5.65-3.62-2.11-5.34.81-.39,1.63-.75,2.41-1.18.76-.42,1.41-.98,1.94-1.67.12-.16.26-.34.38-.54.03-.16.04-.32.05-.49.65-1.85-.12-3.19-1.34-3.89-.03-.14-.07-.29-.13-.43-.1-.29-.24-.59-.46-.87-.21-.28-.51-.54-.87-.7-.18-.08-.36-.14-.55-.17-.19-.03-.38-.05-.57-.04h-.07s-.02,0-.02,0h-.06s-.04,0-.06.01h-.08c-.05.02-.11.03-.15.04-.05.01-.09.02-.14.03-.18.05-.35.12-.52.19-.33.15-.62.34-.88.54-.26.21-.49.44-.68.67-.19.24-.34.49-.45.74-.11.25-.16.5-.17.72-.01.22.03.41.08.56.03.07.05.14.08.19.03.05.05.1.08.13,0,0,.01.01.02.02-1.09.2-2.03.91-2.37,1.99.76-1.35,2.83-.52,3,1.28-4.06-2.81-6.13,3.44-4.72,6.5ZM45,17.97c.61-1.73,4.05-1.26,3.54,2.06-.82-1.55-2.24-2.17-3.54-2.06ZM47.67,14.92h0s0,0,0,0ZM49.57,16.08c-1.78-.62-4.04-.08-4.56,1.89-.1,0-.21.02-.31.04,0-.01,0-.02,0-.03-.02-.07-.04-.19-.05-.33,0-.14,0-.31.06-.48.05-.18.14-.37.27-.56.13-.19.29-.38.48-.57.19-.18.41-.36.66-.52.12-.08.25-.15.38-.23.13-.07.27-.13.4-.19.14-.05.28-.1.42-.14.07-.02.14-.03.2-.04h.04s.04-.01.06-.01h.06s0,0,0,0h.04c.29,0,.57.03.82.13.12.05.24.11.35.19.11.08.21.17.3.27.16.17.29.37.4.58ZM47.11,23.49c-2.6-.17-5.19,2.91-2.83,5.3.55.56,1.36.8,2.22.87-5.21.22-4.43-8.14.61-6.17Z"/><path class="cls-28" d="M62.88,22.87c-.08,0-.15.02-.23.02,0,0-.07.24-.07.24-.07,0-.13.02-.2.03,0,0-.02,0-.03,0-.06,0-.13.02-.19.03-.01,0-.02,0-.03,0-.06,0-.13.02-.19.02-.01,0-.02,0-.03,0-.06,0-.13.02-.19.02-.01,0-.03,0-.04,0-.06,0-.12.01-.19.02-.02,0-.03,0-.05,0-.06,0-.12.01-.18.02-.02,0-.03,0-.05,0-.06,0-.12.01-.18.02-.02,0-.04,0-.06,0-.06,0-.12.01-.17.02-.02,0-.04,0-.06,0-.06,0-.11.01-.17.02-.02,0-.05,0-.07,0-.05,0-.11,0-.16.01-.02,0-.05,0-.07,0-.05,0-.1,0-.16.01-.03,0-.05,0-.08,0-.05,0-.1,0-.15.01-.03,0-.05,0-.08,0-.05,0-.1,0-.15.01-.03,0-.06,0-.08,0-.05,0-.1,0-.14,0-.03,0-.06,0-.09,0-.05,0-.09,0-.14,0-.03,0-.06,0-.1,0-.05,0-.09,0-.14,0-.03,0-.07,0-.1,0-.04,0-.09,0-.13,0-.03,0-.07,0-.1,0-.04,0-.09,0-.13,0-.03,0-.07,0-.1,0-.04,0-.08,0-.12,0-.03,0-.07,0-.1,0-.04,0-.08,0-.12,0h-.11s-.08,0-.12,0c-.04,0-.07,0-.11,0-.04,0-.08,0-.11,0-.04,0-.07,0-.1,0-.04,0-.07,0-.11,0-.04,0-.07,0-.11,0-.04,0-.07,0-.11,0-.03,0-.07,0-.1,0-.04,0-.07,0-.11,0-.03,0-.07,0-.1,0-.03,0-.07,0-.1,0-.03,0-.07,0-.1,0-.03,0-.07,0-.1-.01-.03,0-.07,0-.1,0-.03,0-.07,0-.1-.01-.03,0-.06,0-.1-.01-.03,0-.07,0-.1-.01-.03,0-.06,0-.09-.01-.04,0-.07-.01-.1-.02-.03,0-.06,0-.08-.01-.04,0-.07-.01-.11-.02-.02,0-.05,0-.07-.01-.06-.01-.12-.02-.18-.04-3.66-.79-8.85-1.81-11.64,1.47,0,0,.02.13.06.2.24.4,3.09,2.45,12.16,2.23,4.13-.1,6.8-3.15,6.77-4.29Z"/><path class="cls-19" d="M58.52,28.16s-.02.02-.03.03c0-.01,0-.03,0-.04.03-.21,0-.43-.07-.65-.35-.95-1.33-.61-2.08-.22.55-1.33,1.03-3.2.82-3.73-.26-.69-.04-1.58-.04-1.58,0,0,.01-.09.02-.23.02-.28.04-.74-.02-.98,0,0,0-.01,0-.02l.31.13s.33,1.92.47,2.61c.53,2.62,2.24,3.12.62,4.67Z"/><path class="cls-21" d="M50.32,33.05c.71.35.86.42,1.75.68.38.11.77.22,1.16.29.16.03.31.06.47.08.03,0,.08,0,.14.02.09,0,.18.01.27.02,1.15-.49,2.15-1.31,3.17-2.02.05-.03.09-.06.14-.1-.67-.37-1.19-.67-1.25-.77-.35-.57-.27-2.2-.19-3.18-.03.05-.05.1-.08.15-.32.54-1.28.4-2.25.36-.79-.03-2.13-1.32-2.75-2.52-.14-.27-.24-.54-.29-.79-.01-.08-.03-.16-.04-.24,0,0-.01,0-.01,0,0,0,0,.4.02,1,0,.1,0,.21,0,.32.02,1.6.02,4.12-.14,4.53-.14.34-.71.93-1.4,1.42.42.27.85.52,1.29.73Z"/><path class="cls-2" d="M60.08,33.41c-1.14.29-3.43.81-4.41.6-1.29-.29-3.25.2-3.34.22.07-.06,1.18-1.04,1.43-1.43.26-.41-2.42-5.62-3.19-6.44-.21-.22-.34-.36-.34-.36,0,0,.12.01.34.04.09.01.2.02.33.03.61,1.2,1.96,2.49,2.75,2.52.97.04,1.92.18,2.25-.36.03-.05.06-.1.08-.15-.09.97-.16,2.61.19,3.18.14.23,2.62,1.5,3.91,2.16Z"/><path class="cls-6" d="M50.51,21.65s-.18,2.3.09,3.63c.26,1.33,2.16,3.3,3.11,3.51,1.2.26,1.86-.02,2.18-.56.68-1.13,1.54-4,1.28-4.68-.26-.69-.04-1.58-.04-1.58,0,0,.09-.85,0-1.21-.09-.36-1.01-1.98-3-1.66-1.98.32-3.61,2.54-3.61,2.54Z"/><path class="cls-6" d="M55.89,28.23c-.07.12-.16.22-.26.31-.37.33-.98.46-1.92.26-.95-.21-2.84-2.18-3.11-3.51-.26-1.33-.09-3.63-.09-3.63,0,0,1.63-2.22,3.61-2.54.35-.06.66-.05.94,0,1.34.21,1.98,1.36,2.06,1.66.09.36,0,1.21,0,1.21,0,0-.22.89.04,1.58.27.69-.6,3.55-1.28,4.68Z"/><path class="cls-6" d="M55.89,28.23c-.07.12-.16.22-.26.31-.11.1-.24.17-.38.23-.37.15-.87.17-1.54.02-.95-.21-2.84-2.18-3.11-3.51-.26-1.33-.09-3.63-.09-3.63,0,0,1.63-2.22,3.61-2.54.35-.06.66-.05.94,0,1.34.21,1.98,1.36,2.06,1.66.09.36,0,1.21,0,1.21,0,0-.22.89.04,1.58.27.69-.6,3.55-1.28,4.68Z"/><path class="cls-3" d="M55.89,28.23c-.07.12-.16.22-.26.31-.11.1-.24.17-.38.23.14-1.37.36-3.12.36-3.12,0,0,.28-.12.44-.36.16-.24-.94-1.75-.59-3.5.06-.29-.32-2.41-.39-2.82,1.34.21,1.98,1.49,2.05,1.79.09.36,0,1.21,0,1.21,0,0-.22.89.04,1.58.27.69-.6,3.55-1.28,4.68Z"/><path class="cls-4" d="M58.49,28.15c.03-.21,0-.43-.07-.65-.35-.95-1.33-.61-2.08-.22.55-1.33,1.03-3.2.82-3.73-.26-.69-.04-1.58-.04-1.58,0,0,.01-.09.02-.23.02,0,.04.02.05.03.61.42,1.3,4.66,1.32,6.39,0,0-.02,0-.03-.01Z"/><path class="cls-20" d="M53.25,33.66c1.01,0,3.28-2.4,3.28-2.4-.24-.12-.09-1.6-.09-1.6,0,0-.41.46-1.14,1.2-1.06,1.09-1.81.99-1.81.99l-.25,1.12-.22-1.19s-1.09-.21-1.75-1.01c-.32-.39-1.06-1.42-1.06-1.42,0,0,.04.41-.24,1.42-.03.09-.23.19-.26.27,0,0,2.44,2.62,3.55,2.62Z"/><path class="cls-5" d="M55.01,22.14c-.41.37-1.5-.34-2.02-.27-.63.09-.63.84-1.04,1.39.51-.24.97-.39,1.56-.41-.26.03-.46.16-.59.38.63.11,1.08.44,1.74.26-1.32-.26.62-.71.48-1.34-.09.02-.17.04-.26.08"/><path class="cls-1" d="M67.62,85.25c.39-3.14-2.83-9.37-2.84-9.36-5.02-.84-10.05-1.67-15.07-2.51-1.35,1.64-2.69,3.28-4.03,4.92-.27,1.09-.54,2.19-.81,3.28-.04-.03-.08-.06-.12-.09,0,0-1.11,1.51-1.25,2.89-.14,1.38-2.04,15.52-2.36,17.25-.45,2.36-.25,3.81.16,5.25.35,1.21.86,2.41,1.3,4.15.05.19.09.38.14.58,0,0,0,0,0,.01.02.1.04.2.07.3,0,0,0,0,0,0,.02.1.04.2.06.3,0,0,0,.01,0,.02.02.1.04.21.06.32,0,0,0,.02,0,.02.02.1.04.21.06.31,0,0,0,.02,0,.03.02.11.04.22.06.33,0,.01,0,.03,0,.04.02.11.03.21.05.32,0,.01,0,.02,0,.04.02.12.03.23.05.35,0,.02,0,.04,0,.05.02.11.03.22.04.33,0,.02,0,.03,0,.04.01.12.03.25.04.37,0,.02,0,.05,0,.07.01.12.03.23.04.35,0,.02,0,.03,0,.05.01.13.03.26.04.4,0,.03,0,.06,0,.08,0,.12.02.25.03.38,0,.02,0,.03,0,.05.01.14.02.28.03.43,0,.03,0,.06,0,.1,0,.13.02.27.02.4,0,.02,0,.03,0,.05,0,.15.02.3.02.45,0,.04,0,.07,0,.11,0,.14.01.29.02.43,0,.02,0,.03,0,.05,0,.16.01.32.02.49,0,.04,0,.08,0,.12,0,.16,0,.31.01.47,0,.01,0,.03,0,.04,0,.17,0,.34,0,.52,0,.04,0,.09,0,.13,0,.17,0,.35,0,.52,0,0,0,.02,0,.02,0,.18,0,.37,0,.56,0,.05,0,.09,0,.14,0,.19,0,.39,0,.58-.06,3.06-1.53,7.18.45,7.38,1.97.2,3.65-.21,3.67-2.24.01-2.03-.64-2.82-1.15-4.91-.04-.15-.07-.3-.11-.46-.01-.05-.02-.11-.03-.16-.02-.1-.04-.21-.06-.32-.01-.06-.02-.13-.03-.2-.02-.1-.03-.2-.05-.3-.01-.07-.02-.14-.03-.21-.02-.1-.03-.2-.04-.3-.01-.07-.02-.15-.03-.22-.01-.1-.03-.2-.04-.3,0-.08-.02-.15-.03-.23-.01-.1-.02-.21-.03-.31,0-.08-.02-.15-.02-.23-.01-.11-.02-.22-.03-.33,0-.07-.01-.15-.02-.22,0-.12-.02-.23-.03-.35,0-.07-.01-.13-.01-.2,0-.15-.02-.29-.03-.44,0-.04,0-.08,0-.12,0-.19-.02-.38-.02-.57,0-.05,0-.11,0-.16,0-.14-.01-.28-.01-.42,0-.07,0-.15,0-.22,0-.12,0-.24,0-.36,0-.08,0-.16,0-.24,0-.11,0-.23,0-.34,0-.08,0-.16,0-.24,0-.11,0-.23,0-.34,0-.08,0-.16,0-.25,0-.11,0-.22,0-.34,0-.08,0-.16,0-.25,0-.11,0-.23,0-.34,0-.08,0-.16,0-.24,0-.12,0-.23.01-.35,0-.07,0-.15,0-.22,0-.13,0-.26.01-.39,0-.06,0-.12,0-.18,0-.19.02-.37.02-.56,0-.04,0-.08,0-.12,0-.15.02-.29.02-.44,0-.07,0-.14.01-.21,0-.11.01-.22.02-.33,0-.08.01-.16.02-.24,0-.1.01-.2.02-.29,0-.08.01-.16.02-.25,0-.09.01-.18.02-.27,0-.08.01-.16.02-.25,0-.09.01-.17.02-.26,0-.08.01-.17.02-.25,0-.08.01-.16.02-.24,0-.09.01-.17.02-.25,0-.07.01-.14.02-.2,0-.09.02-.18.02-.27,0-.05,0-.1.01-.15.03-.39.07-.75.1-1.09.04-.43.08-.82.11-1.17.34-3.61,2.31-7.1,3.39-9.2,4.39-8.42,11-.15,9.51,6.09-.25,1.09-.88,4.79-.55,6.42.04.18.02.45-.05.78-.03.16-.08.34-.13.53,0,0,0,.01,0,.02-.03.09-.05.18-.08.28,0,0,0,.02,0,.03-.03.1-.06.2-.1.3,0,0,0,0,0,.01-.07.21-.15.44-.24.67,0,0,0,.01,0,.02-.04.11-.09.23-.13.34,0,.01,0,.02-.01.03-.04.11-.09.23-.14.35,0,.01,0,.02-.01.03-.05.12-.1.24-.15.36,0,0,0,0,0,0-.05.13-.11.25-.16.38,0,0,0,0,0,0-.05.12-.11.25-.16.37,0,.01-.01.03-.02.04-.05.12-.11.24-.16.36,0,.02-.02.04-.02.05-.05.12-.11.24-.16.36,0,.01-.01.03-.02.04-.12.25-.23.5-.35.75,0,.01-.01.03-.02.04-.06.12-.11.24-.17.35,0,.02-.02.04-.03.06-.06.11-.11.23-.17.34-.01.02-.02.04-.03.06-.06.12-.12.23-.17.34,0,.01-.01.02-.02.03-.06.11-.11.22-.17.33,0,.01-.01.02-.02.04-.06.11-.11.22-.17.32,0,.02-.02.04-.03.06-.05.1-.11.2-.16.3-.01.02-.02.04-.03.06-.05.1-.11.2-.16.29,0,.02-.02.03-.02.04-.06.1-.11.2-.16.29,0,0,0,0,0,0-.05.1-.11.19-.16.28,0,.01-.02.03-.02.04-.05.09-.1.17-.15.25,0,.02-.02.03-.03.05-.05.08-.1.15-.14.23,0,.01-.02.03-.02.04-.05.07-.09.15-.14.21,0,0,0,.01-.01.02-.04.07-.09.13-.13.19,0,0,0,.01-.01.02-.04.06-.08.11-.12.17,0,0-.01.02-.02.03-.04.05-.07.09-.11.14,0,0-.01.02-.02.02-.04.04-.07.08-.1.11,0,0,0,0-.01.01-.03.03-.07.06-.1.09-.98.74-4.26,1.08-4.45,3.75-.18,2.68,1.99,4.87,3.55,4.35,1.58-.52,1.79-3.42,2.84-6.03.89-2.25,3.49-7.01,4.95-9.22.1-.15.2-.3.29-.45.03-.05.07-.1.1-.15.06-.09.12-.18.18-.27.04-.06.08-.12.13-.19.05-.07.09-.14.14-.21.05-.08.1-.15.15-.23.02-.03.04-.06.06-.09.94-1.36,1.7-2.4,2.31-3.49.83-1.47,1.11-3.68,1.24-7.56.12-3.88.76-5.18,1.92-8.9,1.04-3.35.54-4.99.43-5.28Z"/><path class="cls-25" d="M59.14,48.17s.81-1.24,1.96-1.84c1.15-.6,2.11-1.48,2.01-2.67-.1-1.19-.69-3.17-.97-2.89-.28.28-.99,1.24-2.36,2.36-1.38,1.12-2.16,1.57-2.16,1.57.61.97.89,2.49,1.52,3.46Z"/><path class="cls-24" d="M63.12,43.66c-.08-.97-.49-2.45-.79-2.83-.17.19-.32.36-.39.47-.27.43-.3,1.72-1.02,3.54-.73,1.82-1.53,1.1-1.54,1.8,0,.38.37.41.7.35.25-.21.59-.44,1.02-.67,1.15-.6,2.11-1.48,2.01-2.67Z"/><path class="cls-23" d="M48.29,48.15s-.48-1.67-1.35-2.61c-.88-.94-1.5-2.09-1.05-3.22.45-1.13,1.54-2.87,1.72-2.5.18.37.56,1.53,1.52,3.05.96,1.52,1.56,2.2,1.56,2.2-.78,1.03-1.58,2.06-2.4,3.09Z"/><path class="cls-26" d="M45.89,42.32c.36-.92,1.16-2.24,1.54-2.5.11.24.2.45.23.59.13.51-.21,1.77-.09,3.77.12,1.99,1.09,1.54.88,2.22-.11.37-.47.28-.77.12-.17-.28-.41-.61-.74-.96-.88-.94-1.5-2.09-1.05-3.22Z"/><path class="cls-15" d="M56.01,93.25s7.18,6.29,6.48,12.78c-.3,3.24.01,10.93-1.78,15.31-.74,1.82-1.52,2.47-1.68,4.28-.15,1.82.7,4.93,2.81,4.93,2.13,0,1.89-6.42,2.08-9.16.92-12.75,5.06-11.53,4.42-17.85-.14-1.56-2.25-9.45-.59-15.56.33-1.19.31-4.07.31-4.07,0,0-1.48,4.35-5.36,6.3-1.59.8-6.7,3.05-6.69,3.05Z"/><path class="cls-16" d="M53.38,94.27s-2.11,1.95-2.4,3.9c-.29,1.95-.78,3.53-.78,3.53,0,0-.74,2.69-.68,5.61.09,4.41,1.46,5.24,1.36,7.19-.1,1.95-.97,4.26-.1,8.43.88,4.17.68,7.45.68,7.45,0,0,.58.18.88,1.42.29,1.24.59,3.46.59,3.46,0,0,.39.8-1.75.8s-4.39-1.51-4.39-1.51c0,0-.1-1.69.59-3.28.68-1.6.29-.59.38-2.54.1-1.95,1.27-5.71.4-8.73-.88-3.02-2.05-4.61-1.85-8.16.2-3.55-.29-6.74-1.95-10.47-1.66-3.73-1.75-4.79-1.66-8.52.1-3.73.29-6.57.29-6.57,0,0,7.22,1.49,9.47,3.53,2.24,2.04.93,4.46.93,4.46Z"/><path class="cls-7" d="M56.13,81.12s0,0,.01,0c0,0,0,0,0,0,0,0,0,0-.01,0Z"/><path class="cls-29" d="M56.59,67.76s.56,1.95-2.21,1.61h-.01c-2.77.34-2.21-1.61-2.21-1.61-.92-1.34-1.37,1.34-1.04,2.06.25.56,2.05,1.32,1.04,1.95,1.24.29,1.52,1.52,2.21,1.63h.01c.69-.11.97-1.34,2.21-1.63-1.01-.63.79-1.39,1.04-1.95.33-.72-.12-3.4-1.04-2.06Z"/><path class="cls-18" d="M56.01,93.25s7.18,6.29,6.48,12.78c-.3,3.24.01,10.93-1.78,15.31-.74,1.82-1.52,2.47-1.68,4.28-.15,1.82.7,4.93,2.81,4.93,2.13,0,1.89-6.42,2.08-9.16.92-12.75,5.06-11.53,4.42-17.85-.14-1.56-2.25-9.45-.59-15.56.33-1.19.68-4.05.68-4.05,0,0-1.86,4.33-5.73,6.28-1.59.8-6.7,3.05-6.69,3.05Z"/><path class="cls-17" d="M67.66,108.2c-.9.68-2.05,1.3-2.98,1.01-.71-.22-1.57-.91-2.27-1.92,0,3.64-.09,10.08-1.71,14.04-.74,1.82-1.52,2.47-1.68,4.28-.15,1.82.7,4.93,2.81,4.93,2.13,0,1.89-6.42,2.08-9.16.63-8.42,2.6-10.75,3.73-13.18Z"/><path class="cls-19" d="M53.11,21.35l-1.43-1.03s-4.78,4.85-4.02,6.58c.14.32.51-.15.73.09.04,0,.09.03.13.05.58.27,1.06.67,1.65.87-.07-.17-.1-.33-.04-.55.03-.14.2-.16.3-.08.15.14.29.26.45.39-.13-.81.04-1.93,1.13-3.31,1.39-1.76,1.11-3.01,1.11-3.01Z"/><path class="cls-8" d="M50.78,27.7c.21.06.42.1.64.13-.03-.05-.07-.1-.1-.16-.1-.19-.2-.39-.25-.61-.05-.23-.08-.47-.08-.71,0-.49.06-1,.13-1.47.08-.47.15-.92.21-1.29.06-.38.09-.7.1-.93.01-.23,0-.35,0-.35h-.05s0,.13-.04.34c-.03.22-.09.53-.19.9-.09.37-.21.8-.31,1.27-.11.47-.21.98-.24,1.51-.02.26-.01.53.03.8.03.19.07.38.14.56Z"/><path class="cls-13" d="M47.86,27.41c0-.06-.02-.13-.02-.23.03-.37.68-.15.69-.14-.02-.07-.65-.66-.15-1.4.24-.36.46-.74.72-1.06.26-.33.51-.63.72-.89.21-.26.37-.49.47-.66.1-.17.15-.27.15-.27l-.05-.03s-.06.1-.18.25c-.12.15-.3.36-.54.6-.24.24-.52.51-.82.82-.29.31-.6.65-.84,1.04-.12.2-.23.4-.3.63-.07.23-.1.47-.07.72.03.21.1.42.21.62Z"/><circle class="cls-37" cx="56.31" cy="83.78" r="4.06" transform="translate(-29.91 31.29) rotate(-24.76)"/><path class="cls-12" d="M62.87,22.77c-3.7.23-5.17-1.38-5.17-1.38-1.25-1.67-.51-3.4-1.55-4.05-1.19-.74-4.65-.66-5.82.2-1.2.89.88,3.45-1.29,4.05,0,0-2.61.75-3.82,1.46-1.22.72-1.37,1.05-1.46,1.29-.1.25.18.59.18.59,2.79-3.27,7.92-2.45,11.57-1.66,1.97.42,4.91.24,7.32-.11.14-.22.17-.37.03-.39Z"/><path class="cls-11" d="M44.07,33.32s-.84-.47-1.96-.46c-1.12,0-2.13,1.6-2.26,1.89-1.8,3.86-6.46,11.92-7.57,14.34-1.11,2.42,5.16,9.07,7.81,10.45,2.66,1.38,4.79,1.57,6.24-.06,1.44-1.62,1.71-4.44,1.71-4.44,0,0-7.64-4.18-7.67-5.16-.04-1.33,5.41-6.71,5.41-6.71l-1.71-9.85Z"/><path class="cls-10" d="M61.32,33.32s.84-.47,1.96-.46c1.12,0,2.13,1.6,2.26,1.89,1.8,3.86,6.46,11.92,7.57,14.34,1.11,2.42-5.16,9.07-7.81,10.45-2.66,1.38-4.8,1.57-6.24-.06-1.44-1.62-1.71-4.44-1.71-4.44,0,0,7.64-4.18,7.67-5.16.04-1.33-5.41-6.71-5.41-6.71l1.71-9.85Z"/><path class="cls-30" d="M24.44,30.09c-.11-.15-.22-.29-.33-.44.1.14.2.27.29.41h0s.02.02.03.03Z"/><path class="cls-32" d="M30.04,36.05c1.45,1.66,5.6,6.28,5.6,6.28l-1.86.2.4.8s2.31-.22,3.31,1.1c.33.44,1.04,1.28,2.53,3.2-.04-.02-.08-.03-.12-.05-.09-.04-.19-.08-.29-.12-.19-.08-.39-.17-.59-.26-.2-.09-.39-.18-.59-.27-.19-.09-.38-.18-.57-.27-.09-.04-.17-.09-.26-.13.03.13.06.27.09.4,0,0,0,0,0,0,.17.11.35.23.52.35.18.12.36.24.55.36.18.12.37.24.55.35.09.06.18.11.27.17.09.05.18.11.27.16.18.11.35.2.52.3.17.1.33.18.48.26.06.03.12.06.19.1.96,1.25,3.61,4.41,6.34,7.64h0c.13.17.27.33.4.48.13.16.26.31.39.47h0c3.45,4.08,6.79,7.98,6.79,7.98l.05-.04c.05-.35.12-.7.15-1.05,0-.02,0-.04,0-.06,0-.02,0-.04,0-.06h0s0-.02,0-.03c.02-.3-.07-.59-.15-.89-.03-.11-.06-.21-.08-.32,0-.04-.02-.07-.02-.11,0-.05-.01-.11-.02-.16,0-.13,0-.25.03-.37,0-.05.02-.11.03-.16-.44-.59-.95-1.28-1.51-2.03-.09-.12-.19-.25-.28-.38-.02-.03-.04-.06-.06-.08-1.99-2.69-4.46-6.03-6.22-8.48,0-.05-.03-.15-.06-.29-.02-.1-.05-.22-.09-.35-.02-.07-.03-.14-.05-.21-.02-.07-.05-.15-.07-.23-.05-.16-.1-.33-.17-.51-.06-.18-.13-.37-.2-.56-.04-.1-.07-.2-.11-.3-.04-.1-.08-.2-.12-.3-.08-.2-.16-.4-.24-.61-.08-.2-.17-.4-.25-.6-.07-.17-.15-.34-.22-.5-.13-.07-.27-.13-.4-.2.02.07.04.15.06.23.05.2.11.4.16.61.05.21.11.42.16.63.05.21.1.42.15.63.02.1.05.21.07.31.02.1.04.2.06.3.02.08.03.15.04.22-3.36-4.7-5.79-6.68-6.96-10.3-.02-.06-.04-.11-.06-.16,0-.03,0-.07,0-.1,0-.15,0-.3.02-.46,0-.16.02-.32.03-.48,0-.01,0-.02,0-.04-.14-.11-.29-.22-.43-.31-.03.09-.05.18-.08.27-.02.09-.39.94-.42,1.03l-1.48-2.16-1.02-1.49-2.14-3.14-1.77-2.59-1.06-1.56-.02-.02-.94-1.37-.57-.83c-.07-.06-.14-.12-.2-.18-.09-.08-.18-.15-.28-.22-.1-.07-.2-.14-.3-.2-.1-.06-.19-.11-.3-.16-.1-.05-.19-.09-.29-.12-.07-.03-.14-.05-.21-.07-.27-.07-.54-.1-.81-.08-.01,0-.02,0-.04,0-.12,0-.24.03-.36.06-.05.01-.1.02-.15.04-.06.02-.13.04-.19.07-.07.02-.13.05-.2.09-.13.06-.26.13-.4.22-.03.02-.06.04-.09.06-.07.05-.15.1-.22.16-.03.02-.06.05-.09.07-.01.01-.03.02-.04.03-.09.07-.17.15-.25.23-.02.01-.03.03-.05.05-.02.02-.05.05-.07.07-.05.06-.1.11-.14.17-.09.11-.16.22-.22.33-.02.04-.05.08-.07.13-.04.07-.07.14-.1.21-.02.05-.04.1-.05.15-.08.24-.11.49-.11.74,0,.08,0,.15.01.24.02.25.08.5.17.75.03.08.06.16.09.25.16.41.4.82.69,1.24.35.37.77.8,1.22,1.27.14.15.29.3.44.46h0c.8.84,1.65,1.73,2.36,2.48.05.05.1.1.15.16-.01,0-.02,0-.03-.01,0,0-.02,0-.02-.01-.09-.04-.19-.08-.29-.13-.19-.08-.39-.17-.59-.26-.2-.09-.39-.18-.59-.27-.17-.08-.35-.17-.51-.24.02.15.04.29.06.44.08.06.17.11.25.17.18.12.36.24.54.36.19.12.37.24.56.35.09.06.18.11.27.17.09.05.18.11.27.16.18.11.35.21.52.3.16.09.33.18.47.26.01,0,.02,0,.03.01.06.03.13.07.19.1,0,0,0,0,.02,0h0c.06.03.12.06.18.09.01,0,.02,0,.03.01Z"/><path class="cls-28" d="M49.96,55.5c-.31-.37-.62-.74-.94-1.11.28.32.55.64.83.96.04.05.08.1.11.15Z"/><path class="cls-28" d="M34.82,35.99c.35.45.71.9,1.07,1.35,3.06,3.62,6.06,7.33,8.64,11.21-2.63-3.74-5.37-7.42-8.47-10.97-.36-.46-.76-.96-1.12-1.42-.79-.95-1.45-1.85-2.14-2.82-.35-.48-.7-.95-1.04-1.43.33.44.66.89.98,1.33.68.93,1.38,1.84,2.09,2.75Z"/><path class="cls-28" d="M47.03,52.65c1.46,1.83,2.95,3.63,4.49,5.38.37.48.8,1.02,1.17,1.5.76.98,1.52,1.97,2.29,2.95,0-.05.02-.11.03-.16-.44-.59-.95-1.28-1.51-2.03-.08-.11-.16-.22-.24-.33l-.04-.05s-.04-.06-.06-.08c-.28-.37-.56-.74-.84-1.11-.32-.41-.65-.81-.98-1.22-.34-.41-.68-.83-1.06-1.29-.99-1.08-1.94-2.19-2.87-3.31-.31-.37-.62-.75-.93-1.13-.33-.4-.69-.86-1.03-1.27-2.94-4.22-5.87-8.37-9.42-12.37-.37-.47-.79-.98-1.16-1.45-.74-.94-1.47-1.89-2.19-2.84-.36-.51-.72-1.02-1.09-1.52-.27-.38-.55-.76-.82-1.14-.28-.38-.55-.76-.83-1.14-.22-.3-2.35-3.04-3.95-5.12-.05.01-.1.02-.15.04,1.56,2.02,3.58,4.62,3.75,4.87.33.45.68.93,1,1.38.65.9,1.3,1.8,1.95,2.7.38.52.77,1.06,1.19,1.62.35.4.7.8,1.05,1.21.35.41.69.81,1.02,1.22,3.22,3.66,6.02,7.45,8.81,11.54.47.73,1.03,1.39,1.54,2.07.29.37.58.74.88,1.1Z"/><path class="cls-28" d="M47.68,53.92c.88,1.08,1.76,2.17,2.65,3.27.33.43.73.94,1.06,1.37.32.42.61.82.91,1.23.91,1.22,1.83,2.44,2.75,3.64-.03-.11-.06-.21-.08-.32,0-.04-.01-.07-.02-.11h0c-.89-1.16-1.77-2.33-2.65-3.51-.33-.44-.66-.88-1.01-1.35-.98-1.15-1.95-2.31-2.91-3.49-.32-.39-.64-.78-.95-1.18-.28-.36-.57-.71-.86-1.07s-.57-.72-.86-1.08c-1.86-2.36-3.35-4.65-5.08-7.07-1.66-2.32-3.55-4.29-5.22-6.38-.38-.47-.75-.93-1.13-1.4-.38-.47-.76-.93-1.14-1.4-.3-.46-.72-1.03-1.08-1.54-.31-.45-.63-.89-.95-1.34-.32-.44-.64-.89-.97-1.33-.36-.5-2.75-3.59-4.5-5.86-.07.02-.13.05-.2.09,1.57,2.03,3.56,4.59,3.76,4.86.35.47.71.98,1.06,1.46.68.95,1.36,1.91,2.02,2.88.37.5.73.99,1.12,1.5.31.39.63.78.94,1.18.32.39.63.78.95,1.17,3.35,3.77,6.33,7.72,9.19,11.87.39.5.77.97,1.15,1.44.38.46.77.93,1.15,1.39.3.36.59.73.88,1.09Z"/><path class="cls-28" d="M45.75,47.79c.02.06.05.12.07.18.01.03.02.06.04.09-.09-.1-.17-.19-.26-.29-.17-.19-.34-.39-.51-.58-.02-.07-.04-.14-.06-.21.24.27.48.54.71.82Z"/><path class="cls-28" d="M35.36,35.2l-1.08-1.71c-.25-.34-.52-.7-.76-1.03-.32-.43-1.15-1.51-2.16-2.82-1.06-1.38-2.32-3.01-3.37-4.38-.1-.06-.19-.11-.3-.16,1.47,1.9,3.17,4.08,3.33,4.3.57.77,1.14,1.55,1.72,2.32.13.17.26.34.39.51.2.27.41.54.61.81.54.72,1.07,1.43,1.61,2.15Z"/><path class="cls-28" d="M52.76,61.39c.78,1.02,1.63,2.03,2.44,3.07h0s0-.08.01-.11h0c-.72-.91-1.46-1.79-2.2-2.74-.36-.5-.72-1.01-1.09-1.51-.32-.43-.64-.87-.97-1.3-.33-.44-.7-.93-1.04-1.37-.29-.39-.59-.78-.88-1.17-.3-.39-.59-.78-.89-1.17-1.09-1.4-2.21-2.76-3.31-4.11-.37-.46-.74-.92-1.11-1.38-2.64-3.49-5.04-6.95-7.89-10.27-.29-.37-.59-.74-.9-1.12-.6-.74-1.21-1.47-1.83-2.2-.36-.48-.78-1.03-1.17-1.54-.86-1.18-1.7-2.34-2.54-3.48-.28-.39-.59-.8-.86-1.18-.17-.24-1.97-2.56-3.48-4.51-.03.02-.06.04-.09.06,1.58,2.05,3.66,4.74,3.86,5.02.29.4.58.8.87,1.19.58.79,1.15,1.57,1.72,2.36.28.38.57.76.85,1.13.28.38.58.76.85,1.12.87,1.08,1.74,2.17,2.62,3.25.29.36.59.73.89,1.1,2.54,2.85,4.65,6.07,7,9.08.37.45.75.93,1.12,1.38,1.12,1.36,2.24,2.73,3.33,4.11.31.4.62.79.92,1.19.31.4.61.8.91,1.2.3.4.66.86.96,1.27.3.4.59.81.89,1.22.34.47.68.94,1.01,1.41Z"/><path class="cls-28" d="M30.74,30.54c.31.42.62.84.93,1.26-.29-.39-.57-.78-.86-1.18-.31-.43-.65-.89-.96-1.31-.11-.16-1.99-2.57-3.47-4.48-.01,0-.02,0-.04,0,1.47,1.89,3.31,4.25,3.42,4.39.31.42.66.88.97,1.31Z"/><path class="cls-28" d="M31.75,31.91s0-.01-.01-.02c-.02-.03-.05-.06-.07-.09.03.04.05.07.08.11Z"/><path class="cls-28" d="M33.61,32.42l-.46-.73c-.43-.58-2.15-2.83-3.8-5-.26-.34-.52-.68-.77-1.01-.09-.08-.18-.15-.28-.22.63.82,1.32,1.72,1.99,2.6l.02.02c1.48,1.94,2.87,3.75,3.31,4.33Z"/><path class="cls-28" d="M38.68,39.2s.02.05.03.08c.01.03.02.07.03.1-.24-.32-.48-.64-.72-.97.01-.02.02-.05.03-.07.21.29.42.57.63.85Z"/><path class="cls-28" d="M38.27,37.73s.08.06.12.08c.1.15.2.31.3.46,0,.06,0,.12,0,.18-.14-.22-.29-.44-.43-.67,0-.02,0-.04.02-.06Z"/><path class="cls-28" d="M28.74,31.68c-.26-.35-.51-.7-.77-1.05-.33-.45-.66-.92-.98-1.38-.09-.12-1.36-1.76-2.63-3.39-.02.01-.03.03-.05.05,1.54,1.99,3.37,4.36,3.57,4.62.28.39.57.77.86,1.15Z"/><path class="cls-28" d="M32.1,36c-1.18-1.42-2.29-2.86-3.36-4.32,1.04,1.38,2.12,2.75,3.23,4.07.35.44.7.88,1.05,1.32.35.44.71.88,1.08,1.32.02.03.03.05.05.08-.33-.38-.65-.75-.96-1.13-.37-.45-.73-.89-1.09-1.34Z"/><path class="cls-28" d="M31.87,37.28c.25.18.5.34.7.58.37.48.73.95,1.1,1.43.35.46.72.92,1.08,1.38.28.33.57.66.85.99.28.33.57.67.85,1,.37.46.73.93,1.12,1.42,3.37,4.2,6.92,8.05,9.84,12.55h0c.13.17.27.33.4.48.13.16.26.31.39.47-3.17-5.02-7.32-9.45-11.08-14.18-.32-.39-.65-.8-.97-1.2-.34-.4-.68-.79-1.03-1.18-.39-.49-.75-.94-1.1-1.4-.23-.3-.5-.64-.73-.95-.29-.38-.58-.76-.87-1.13-.3-.38-.61-.78-.9-1.17-1.58-1.9-3.09-3.85-4.55-5.83-.3-.4-.61-.82-.91-1.23-.09-.12-1.09-1.4-2.2-2.83-.02.04-.05.08-.07.13,1.28,1.65,2.5,3.23,2.68,3.48.35.5.71,1,1.07,1.49,1.42,1.98,2.86,3.91,4.31,5.7Z"/><path class="cls-28" d="M27.93,34.86c-.09-.14-.18-.28-.27-.42.11.15.21.3.32.45-.02-.01-.03-.02-.05-.03Z"/><path class="cls-28" d="M27.66,34.44c-.13-.18-.26-.35-.39-.52,0,0,0,0,0,0,.11.15.22.3.33.45.02.02.03.05.04.07Z"/><path class="cls-28" d="M42.69,48.93c-.67-.8-1.32-1.63-1.96-2.48.53.66,1.05,1.33,1.57,2,.13.16.26.32.39.48Z"/><path class="cls-28" d="M30.62,33.62c.33.43.67.86,1.01,1.29.33.43.67.86,1.01,1.29.34.43.72.88,1.07,1.3.67.76,1.31,1.55,1.93,2.37.31.4.62.82.93,1.23,1.36,1.84,2.76,3.6,4.16,5.36-1.38-1.81-2.72-3.69-4.11-5.45-.31-.41-.62-.81-.94-1.22-.63-.8-1.28-1.59-1.96-2.35-.42-.51-.82-1.02-1.22-1.52s-.78-1.01-1.17-1.52c-.32-.42-.65-.85-.97-1.28-.52-.68-1.05-1.38-1.57-2.09-.26-.36-.52-.71-.78-1.07-.18-.24-1.87-2.44-3.36-4.36-.01.01-.03.02-.04.03,1.42,1.85,2.98,3.87,3.13,4.07.31.42.64.87.95,1.31.32.44.63.87.94,1.31.32.44.65.87.98,1.3Z"/><path class="cls-28" d="M44.16,50.69c1.19,1.41,2.37,2.84,3.52,4.33.29.38.59.78.88,1.18.29.39.57.79.85,1.19.33.45.63.85.93,1.25.29.4.58.79.87,1.19.31.41.64.86.96,1.27.29.37.59.75.88,1.12.5.71.97,1.44,1.5,2.12.19.24.39.48.58.72,0,.02,0,.05-.01.07-.41-.51-.81-1.03-1.21-1.54-.49-.56-.74-1.15-1.23-1.71-.3-.37-.6-.75-.9-1.12-.32-.42-.63-.85-.95-1.27-.32-.42-.63-.84-.95-1.26-.29-.41-.59-.83-.88-1.24-.3-.41-.59-.82-.9-1.23-1.56-2.1-3.18-4.1-4.81-6.09-.2-.24-.39-.48-.59-.73.1.11.19.23.29.34.39.47.79.94,1.18,1.41Z"/><path class="cls-28" d="M48.03,55.97c.3.43.59.87.87,1.3.31.43.59.82.87,1.2.27.38.55.76.82,1.14.3.39.59.76.87,1.12.29.36.57.73.86,1.09.87,1.05,1.47,2.15,2.34,3.19.13.16.26.31.39.47,0,0,0,.01,0,.02h0c-.47-.58-.94-1.16-1.4-1.74-.72-.85-1.24-1.85-1.96-2.71-.26-.32-.53-.67-.77-.97-.28-.38-.57-.76-.85-1.14-.29-.38-.59-.8-.88-1.18-.3-.45-.6-.9-.91-1.34-.69-.97-1.4-1.91-2.14-2.85.65.86,1.27,1.72,1.86,2.61.29.44.58.88.86,1.33.27.39.55.78.81,1.16.26.37.52.74.77,1.11.27.35.62.81.93,1.2,1.1,1.41,2.22,2.83,3.35,4.24-.38-.45-1.14-1.34-2.12-2.48-.1-.16-.2-.31-.3-.44-.33-.42-.66-.84-.99-1.25-.33-.42-.69-.9-1.02-1.31-.21-.3-.43-.6-.64-.9-.21-.3-.43-.6-.65-.89-.33-.51-.67-1.02-1.02-1.53-3.13-4.63-7.01-8.5-10.35-12.97-.24-.3-.48-.61-.72-.92-.71-.91-1.44-1.8-2.16-2.67-.26-.37-.56-.78-.82-1.17-.26-.38-.51-.77-.76-1.16,0,0,0-.01-.01-.02.32.42.64.84.97,1.25.55.68,1.09,1.36,1.63,2.03-.58-.75-1.13-1.51-1.61-2.33.06.07.13.15.19.22.85,1.29,1.81,2.54,2.8,3.77.06.08.13.16.19.24.24.28.48.56.72.84,1.34,1.7,2.66,3.33,4.07,4.97.34.41.69.82,1.03,1.23,1.7,2.04,3.37,4.09,4.88,6.23Z"/><path class="cls-28" d="M33.16,37.52c-.06-.08-.12-.16-.19-.24.07.07.13.15.19.24Z"/><path class="cls-28" d="M32.98,37.28l-.02-.03c-.35-.46-.7-.92-1.05-1.38-.35-.46-.71-.93-1.08-1.4-1.09-1.33-2.15-2.69-3.18-4.08-.2-.26-1.9-2.47-3.4-4.41-.05.06-.1.11-.14.17,1.38,1.78,2.83,3.65,2.97,3.84.27.36.53.72.8,1.07,1.35,1.79,2.74,3.56,4.11,5.35.29.42.67.54.98.86Z"/><path class="cls-28" d="M46.77,51.66c.73.92,1.49,1.83,2.26,2.73-.88-1.02-1.77-2.03-2.61-3.1-.27-.34-.54-.69-.81-1.07-.35-.56-.71-1.11-1.07-1.66.51.72,1.01,1.44,1.51,2.17.21.27.48.63.73.94Z"/><path class="cls-28" d="M25.75,31.45c.14.15.29.3.44.46-.07-.1-.14-.19-.22-.28-.31-.41-.63-.82-.96-1.27-.11-.15-.6-.8-1.26-1.66.03.08.06.16.09.25.49.63.84,1.08.92,1.18.35.47.68.9.99,1.32Z"/><path class="cls-28" d="M38.28,47.32s-.03-.02-.04-.02c-.07-.05-.14-.09-.21-.14-.12-.14-.24-.28-.37-.42-.01-.06-.03-.12-.04-.18.22.25.44.51.65.76Z"/><path class="cls-28" d="M35.2,42.85c.17.19.33.38.5.57-.06-.01-.12-.02-.18-.03-.06-.07-.13-.13-.19-.2-.23-.25-.46-.5-.68-.75l.18-.02c.12.15.25.29.37.44Z"/><path class="cls-28" d="M29.63,35.84c.06.03.13.07.19.1,0,0,0,0,.02,0l-.08-.11c-.36-.45-.73-.95-1.08-1.41-.62-.8-1.24-1.61-1.85-2.42-.31-.4-.63-.84-.91-1.22-.31-.41-.62-.82-.92-1.23-.07-.09-.66-.85-1.43-1.84,0,.08,0,.15.01.24.95,1.23,1.74,2.24,1.85,2.39.3.4.59.78.87,1.16.56.74,1.14,1.48,1.71,2.22.18.23.36.46.54.68.05.05.1.1.15.16-.01,0-.02-.01-.04-.02h0s.34.44.34.44c.21.29.43.58.63.87Z"/><path class="cls-28" d="M40.08,48.45c-.07-.04-.13-.08-.2-.12-.04-.03-.09-.05-.14-.08-.32-.39-.63-.78-.95-1.16.07.03.15.07.22.1.36.42.71.83,1.07,1.26Z"/><path class="cls-28" d="M24.41,30.06h0s.02.02.03.03c-.11-.15-.22-.29-.33-.44.1.14.2.27.29.41Z"/><path class="cls-28" d="M27.8,34.16c.06.03.12.05.18.08.29.38.58.77.89,1.18-.08-.05-.17-.1-.26-.15-.02-.01-.04-.02-.06-.04-.15-.23-.3-.45-.45-.68-.1-.13-.2-.27-.3-.4Z"/><path class="cls-28" d="M34.5,43.03c.09.1.18.2.27.29-.09,0-.17,0-.25,0-.07-.07-.13-.14-.2-.21-.16-.19-.33-.38-.49-.58l.22-.02c.15.18.3.35.45.52Z"/><path class="cls-28" d="M26.67,33.71s0-.05-.01-.08c.02,0,.04.02.06.03.2.27.4.54.59.8-.07-.05-.14-.09-.21-.14-.14-.21-.29-.41-.43-.62Z"/><path class="cls-28" d="M24.08,29.61s-.07-.09-.16-.21c.09.12.14.19.16.21Z"/><path class="cls-28" d="M30.74,36.3c-.14-.21-.24-.41-.34-.62.47.59.95,1.18,1.42,1.76.11.15.23.29.34.44-.51-.6-1-.98-1.42-1.58Z"/><path class="cls-28" d="M37.98,38.52c.29.39.58.78.87,1.17.05.14.1.27.15.4-.37-.47-.73-.95-1.09-1.43.02-.05.04-.1.06-.15Z"/><path class="cls-28" d="M45.42,48.43c.35.45.69.9,1.04,1.35.03.04.06.08.1.12.04.12.07.24.11.35.02.06.03.11.05.17-.4-.57-.81-1.14-1.23-1.71-.02-.09-.04-.19-.07-.29Z"/><path class="cls-28" d="M30.4,35.68c-.15-.31-.29-.61-.53-.89-.99-1.23-1.96-2.47-2.9-3.74-.32-.43-.65-.88-.97-1.31-.14-.17-1.15-1.47-2.28-2.92-.02.05-.04.1-.05.15,1.17,1.51,2.24,2.88,2.4,3.09.27.37.64.86.96,1.28,1.11,1.47,2.23,2.92,3.37,4.34Z"/><path class="cls-28" d="M46.1,48.65c.03.08.06.15.09.22.02.04.03.09.05.13-.33-.42-.66-.84-.99-1.25-.02-.08-.04-.16-.06-.24.31.38.61.76.92,1.14Z"/><path class="cls-28" d="M36.91,37.67l-.43-.68c-.06-.09-.13-.17-.19-.26-.33-.44-.66-.88-.99-1.32l-.03-.03c-.32-.43-.64-.86-.95-1.3-.38-.51-.74-.98-1.08-1.44-.7-.93-1.39-1.86-2.07-2.78-.21-.29-2.18-2.83-3.76-4.86-.07-.03-.14-.05-.21-.07,1.59,2.05,3.62,4.66,3.83,4.94.69.92,1.38,1.83,2.07,2.74.34.46.71.95,1.07,1.43.34.46.68.93,1.02,1.38.34.46.69.91,1.04,1.37l.06.08c.21.27.41.54.62.8Z"/><path class="cls-28" d="M39.23,40.61c-.46-.59-.93-1.17-1.38-1.76,0-.02.02-.04.03-.06.43.55.86,1.1,1.28,1.65.02.06.05.11.07.17Z"/><path class="cls-28" d="M33.23,39.1c.37.46.74.92,1.11,1.39.38.47.76.94,1.18,1.44.27.32.55.64.82.96.27.33.54.65.82.98,2.92,3.68,6.1,7.29,8.86,11.11-.21-.26-.43-.51-.64-.76-2.21-3.06-4.69-5.92-7.08-8.78-.39-.48-.64-.79-.8-1-.09-.12-.19-.22-.3-.32-.22-.27-.44-.54-.66-.81-.26-.31-.52-.62-.78-.93-.3-.35-.61-.7-.91-1.04-.77-.88-1.34-1.69-2.04-2.61-.21-.28-.43-.56-.64-.84,0,.01.02.02.03.03.35.39.7.79,1.04,1.19Z"/><path class="cls-31" d="M72.75,71.11c.4-2.5-2.66-7.11-7.15-10.32-1.28-.91-3.95-2.26-6.13-4.54.49-2.9,1.34-10.55,1.32-12.99-.02-2.07,1.73-8.71.78-10.09-.31-.46-1.13-.19-2.17-.47-1.04-.27-2.74-1.57-2.74-1.57,0,0-2.35,2.54-3.41,2.54-1.14,0-3.65-2.75-3.65-2.75,0,0-1.69,1.28-2.73,1.54-1.04.26-2.96.31-3.38,1.09-1.14,2.13,1.07,8.65,1.24,10.71.12,1.45,1.09,5.27,1.16,8.18-.32,1.5-1.12,5.47-3.09,7.85-3.62,4.37-7.51,12.28-6.69,14.66.82,2.38,5.37,13.14,5.49,13.9.12.76-.35,2.66-1.52,4.37-1.17,1.71-.7,4.18.35,4.47,1.05.29,3.62-1.52,4.2-2.57.58-1.05.58-5.23.7-5.61.12-.38,3.27-18.72,6.18-19.67,1.07-.35,2.16-.47,3.13-.48.96.01,2.06.13,3.13.48,2.92.95,6.07,19.29,6.18,19.67.12.38.12,4.56.7,5.61.58,1.05,3.15,2.85,4.2,2.57,1.05-.29,1.52-2.76.35-4.47-1.17-1.71-1.63-3.61-1.52-4.37.12-.76,3.9-10.37,5.07-17.72Z"/><path class="cls-9" d="M50.84,60.36c-.43-1.22.24-2.45.6-3.59.38-1.19.31-2.23.26-3.46-.05-1.31.4-2.54-.27-3.76-.15-.26-1.81-2.11-1.36-2.45-1.73,1.3-4.3,3.48-5.58,4.79-.68.69-1.36,1.38-2.01,2.09-.65.7-1.29,1.37-1.96,1.98-1.15,1.03-4.34,3.84-6.31,4.78,1.09-.48,2.13-1.32,3.08-1.92,1.63-1.03,5.65-3.71,7.51-4.06-6.22,3.52-10.47,6.83-10.19,8.88-.08.03-.16.06-.23.09-.17.06-.33.11-.49.17-.16.05-.32.09-.47.13-.62.14-1.18.16-1.63.2-.23.02-.43.04-.61.06-.17.03-.33.04-.45.07-.24.05-.37.08-.37.08,0,0,.13-.02.37-.07.12-.02.27-.04.45-.06.18-.02.38-.03.61-.05.45-.03,1.01-.05,1.64-.18.15-.04.31-.08.48-.13.16-.05.33-.1.5-.16.06-.02.13-.05.2-.07-.05.23-.03.35-.03.35,0,0,.04-.15.14-.38.07-.03.14-.05.21-.08.09-.03.18-.07.27-.1.09-.04.18-.07.27-.11.73-.3,1.48-.7,2.21-1.24.37-.25.73-.55,1.1-.84.18-.16.36-.31.54-.47.18-.16.35-.33.53-.5.38-.37.75-.77,1.11-1.18.21-.09.42-.17.63-.26-.42.6-.83,1.2-1.23,1.81-.53.8-1.04,1.57-1.6,2.28-.28.35-.56.69-.87.99-.04.04-.09.09-.13.13-.67.13-1.33.23-1.97.34-1.04.17-2.03.35-2.92.59-.66.17-1.27.37-1.82.59-.25-.01-.49-.02-.7-.03-.42-.02-.76-.03-.99-.04-.23,0-.35-.01-.35-.01,0,0,.12,0,.35.02.23.01.56.04.98.07.17.01.36.03.55.05-.14.06-.28.12-.41.19-.68.33-1.22.7-1.63,1.05-.41.35-.68.68-.86.91-.17.23-.26.36-.26.36,0,0,.09-.12.27-.35.18-.22.46-.54.88-.88.41-.34.96-.69,1.64-1,.2-.09.42-.18.64-.26.22.02.45.04.7.05.59.04,1.26.08,1.99.09h.06s-.08.01-.11.02c-.32.07-.63.14-.92.2-.58.13-1.08.23-1.49.33-.41.09-.74.18-.96.24-.22.06-.34.09-.34.09,0,0,.12-.03.34-.08.22-.05.54-.13.96-.2.41-.08.92-.17,1.51-.27.29-.05.6-.11.92-.17.32-.06.67-.1,1.03-.16.02,0,.05,0,.07-.01.41-.02.85-.05,1.29-.11.84-.11,1.71-.31,2.57-.7l.16-.07c.06-.02.11-.05.16-.07.1-.06.2-.11.3-.16l.15-.08.04-.02h.02s.02-.02.02-.02h0s.02-.02.02-.02c-1.63,1.4-2.78,2.57-3.59,3.54h-.03s-.78.29-.78.29l-.19.07-.05.02h-.05s-.1.04-.1.04l-.4.12-.4.12-.4.11c-.53.14-1.08.27-1.62.4-.54.13-1.09.26-1.63.39-.27.06-.54.14-.81.21-.27.07-.54.14-.81.23l-.4.12c-.13.04-.27.08-.4.13l-.78.28s-.05-.05-.05-.08c0-.03,0-.07.02-.1-.02.03-.03.06-.02.1,0,.04.02.07.05.09,0,0,.8-.25.8-.25.13-.04.27-.08.4-.11l.4-.1c.27-.07.54-.13.81-.19.27-.06.54-.12.82-.17.55-.11,1.09-.22,1.64-.32.55-.11,1.09-.21,1.64-.34l.41-.09.41-.1.41-.1.1-.03h.05s.05-.03.05-.03l.2-.06.25-.08c-.98,1.29-1.31,2.16-1.41,2.68,0,0-.02,0-.02,0-.19.08-.38.16-.57.24-.19.07-.36.16-.54.25-.18.08-.35.16-.52.24-.3.15-.59.3-.86.45-.07.02-.15.04-.22.06-.22.06-.42.11-.59.16-.17.05-.31.09-.43.14-.23.09-.35.14-.35.14,0,0,.12-.04.35-.13.11-.04.26-.08.43-.13.17-.05.37-.1.59-.15.04-.01.09-.02.13-.03-.3.16-.58.33-.84.49-.13.08-.26.15-.38.22-.12.07-.23.15-.34.22-.22.14-.42.28-.6.4-.36.25-.62.46-.81.59-.19.14-.29.21-.29.21,0,0,.1-.07.29-.2.19-.13.47-.33.83-.56.18-.11.39-.24.61-.38.11-.07.22-.14.35-.21.12-.07.25-.14.38-.21.43-.24.91-.49,1.44-.74.25-.07.52-.15.8-.26.15-.07.3-.13.45-.21.15-.08.31-.16.46-.24.03-.02.06-.03.08-.05.03-.01.07-.03.1-.04,0,.04,0,.08,0,.12-.15.08-.24.12-.24.12,0,0,.08-.04.24-.11,0,.14.03.2.03.2,0,0,0-.09.04-.24.01,0,.02-.01.04-.02.11-.05.25-.1.42-.17.17-.06.36-.13.58-.2.36-.13.79-.25,1.26-.46.29-.09.59-.17.89-.26.22-.06.45-.13.68-.2.22-.08.45-.15.68-.23.11-.04.23-.08.34-.12.09-.03.18-.07.27-.1-1.34,1.02-2.78,2.2-4.1,3.34-.52.15-1.03.27-1.51.36-.71.14-1.37.24-1.96.31-.59.08-1.1.14-1.52.19-.42.05-.75.1-.98.13-.23.03-.35.05-.35.05,0,0,.12-.01.35-.04.23-.02.56-.05.98-.09.42-.04.94-.08,1.53-.14.59-.05,1.25-.13,1.98-.24.35-.05.71-.12,1.09-.2-1.25,1.09-2.36,2.12-3.12,2.93.18-.14.37-.28.56-.42-.73.59-1.39,1.15-2.01,1.6-.64.47-1.23.81-1.75,1.05-.13.06-.25.11-.37.17-.12.05-.23.09-.33.12-.1.04-.2.07-.29.1-.09.03-.17.05-.24.07-.29.08-.45.12-.45.12,0,0,.16-.04.45-.11.07-.02.16-.04.25-.06.09-.03.18-.06.29-.1.1-.04.22-.07.34-.12.12-.05.24-.1.37-.16.52-.23,1.13-.57,1.78-1.02.65-.45,1.34-1.02,2.11-1.62.77-.59,1.62-1.22,2.63-1.67,1.01-.46,2.14-.77,3.32-1.06.38-.09.76-.18,1.15-.27l-.57.53c-.1.1-.2.18-.31.27l-.32.27c-.11.09-.21.18-.32.26l-.33.25c-.22.16-.43.34-.67.48l-.69.45-.72.4-.18.1-.04.03-.04.02-.09.05-.38.18-.37.18-.38.17c-.5.23-1.02.45-1.53.67-.51.22-1.03.43-1.54.66-.26.11-.51.23-.76.34-.25.11-.51.23-.76.36l-.38.19c-.12.06-.25.12-.37.19l-.73.41s-.05-.04-.06-.07c0-.03,0-.07,0-.1-.01.03-.02.07,0,.1,0,.04.03.06.06.08,0,0,.75-.38.75-.38.12-.07.25-.12.38-.18l.38-.17c.25-.12.51-.22.77-.32.26-.1.51-.21.78-.31.52-.2,1.04-.39,1.56-.59.52-.2,1.04-.39,1.56-.61l.39-.16.38-.17.38-.17.1-.04.05-.02.05-.02.19-.09.75-.38.73-.43c.25-.14.47-.31.71-.46l.35-.24c.12-.08.22-.17.34-.26l.34-.26c.11-.09.22-.17.33-.27l.64-.55c.25-.23.5-.46.74-.69.15-.04.3-.08.45-.13-.24.59-.5,1.16-.79,1.69-.4.8-.89,1.49-1.4,2.08-.13.15-.25.29-.38.43-.13.14-.25.27-.38.4-.07.07-.14.14-.2.2-.02.01-.04.02-.06.03-.41.22-.81.43-1.21.64-.1.05-.2.1-.29.16-.1.05-.19.11-.29.16-.19.11-.38.22-.56.33-.19.1-.36.22-.54.33-.18.11-.35.22-.52.33-.17.1-.33.22-.49.33-.16.11-.31.22-.47.33-.6.44-1.14.86-1.59,1.26-.12.1-.23.19-.33.28-.11.09-.2.19-.3.28-.19.18-.37.34-.52.49-.31.3-.54.55-.7.72-.16.17-.25.25-.25.25,0,0,.09-.08.26-.25.17-.16.41-.4.73-.69.16-.14.34-.3.54-.47.1-.09.2-.18.31-.27.11-.09.22-.18.34-.27.47-.38,1.02-.78,1.63-1.19.15-.1.31-.2.48-.31.16-.1.32-.21.5-.31.17-.1.34-.2.52-.31.18-.1.36-.21.55-.31.19-.1.38-.2.57-.3.1-.05.19-.1.29-.15,0,0,0,0,.01,0-.18.11-.35.2-.5.3-.2.12-.37.22-.52.32-.15.1-.28.18-.37.25-.2.15-.3.23-.3.23,0,0,.11-.08.31-.22.1-.07.23-.15.38-.24.15-.09.33-.19.53-.3.33-.18.74-.38,1.16-.67.27-.13.55-.27.83-.4.21-.1.42-.2.64-.31.21-.11.42-.23.63-.34.11-.06.21-.11.32-.17.08-.04.16-.09.24-.14-3.07,1.84-4.88,5.1-6.81,7.98,1.05-.82,2.17-1.96,3.35-2.77.91-.62,1.98-1.12,3.09-1.6,1.11-.48,2.29-.94,3.42-1.56.57-.31,1.11-.66,1.64-1.07l.37-.31.09-.08.1-.09.18-.17c.06-.06.12-.11.18-.17l.17-.18c.11-.12.23-.24.33-.37.87-1.01,1.49-2.2,1.95-3.41.47-1.21.77-2.45,1.02-3.65.58-2.75,1.27-5.47,2.16-8.12-.14-.34-.27-.69-.39-1.03ZM39.73,60.22c-.17.17-.34.34-.52.51-.18.16-.36.32-.53.47-.36.3-.71.6-1.08.85-.71.54-1.46.95-2.17,1.26-.09.04-.18.08-.27.11-.09.03-.18.07-.26.1-.05.02-.11.04-.16.06.26-.59.82-1.62,1.86-2.38.63-.46,2.14-1.15,3.99-1.92-.28.32-.57.64-.87.93ZM33.53,71.89c-.15.08-.3.14-.44.21-.21.08-.4.15-.6.21.06-.03.12-.05.18-.08.17-.07.34-.15.52-.22.18-.07.35-.16.54-.22-.07.04-.13.07-.2.11ZM42.65,67.36c-.1.17-.2.33-.3.49-.02.01-.04.02-.06.04,0-.02.02-.03.03-.05.11-.19.23-.37.34-.55,0,.03-.01.05-.02.08ZM42.7,69.33c.46-.32.89-.64,1.31-.96,0,.04-.01.08-.02.12-.49.54-.99,1.06-1.49,1.6.07-.25.14-.51.21-.76ZM42.43,71.23c.45-.45.91-.9,1.37-1.35-.15,1.48-.47,1.79-1.84,2.3-.06.02-.12.04-.19.07.03-.08.07-.16.1-.24.04-.11.08-.22.12-.32.15-.15.29-.3.44-.44ZM45.48,62.83s.03-.02.04-.03c.04-.03.07-.06.11-.08-.08.27-.16.53-.24.8-.01.03-.03.07-.04.1-.33.79-.6,1.6-.81,2.38-.4.46-.84.88-1.32,1.25.02-.09.05-.18.07-.27,0,0,0,0,0,0,.5-.85.96-1.78,1.37-2.73.06-.15.13-.3.19-.45.17-.26.34-.53.51-.78.04-.06.08-.12.12-.18ZM45.03,57.46s.06-.03.09-.04c-.1.23-.2.46-.31.69-.12.28-.25.57-.38.85-.54.67-1.09,1.34-1.64,2.02-.29.36-.57.71-.87,1.05.51-.88,1.06-1.75,1.62-2.58.48-.69.98-1.36,1.49-1.99ZM39.03,63.19c.6-.7,1.15-1.47,1.7-2.24.55-.77,1.13-1.55,1.71-2.32.04-.05.08-.11.12-.16.62-.25,1.26-.51,1.9-.77-.39.52-.78,1.06-1.15,1.61-.57.86-1.11,1.76-1.62,2.67-.13.23-.25.46-.38.69,0,.02-.02.03-.03.05-.13.13-.27.27-.41.4-.06.05-.11.1-.17.15-.55.23-1.12.42-1.69.56-.24.06-.47.11-.71.16.25-.25.48-.51.71-.78ZM36.17,65.25c-.09.05-.18.07-.26.11-.23.09-.47.16-.7.22-.46.05-.91.07-1.34.08-.73.02-1.39,0-1.98-.02-.18,0-.34-.01-.51-.02.47-.16.98-.31,1.53-.43.89-.2,1.88-.35,2.92-.5.49-.07.99-.13,1.5-.21-.13.11-.25.21-.38.3l-.12.09s-.08.05-.13.08c-.08.05-.17.11-.25.16-.09.05-.18.09-.27.14ZM39.52,64.19l-.07.05h0s-.02.02-.02.02l-.04.02-.15.09c-.1.06-.2.12-.3.18-.05.03-.1.05-.15.08l-.15.07c-.74.36-1.52.58-2.28.73.06-.03.12-.06.18-.08.1-.05.18-.1.28-.16.05-.03.09-.05.14-.08l.13-.09c.27-.18.53-.38.78-.6.41-.07.82-.14,1.24-.23.14-.03.28-.06.42-.1.08-.02.17-.04.25-.07-.09.06-.18.12-.26.18ZM39.69,66.03c.37-.23.74-.47,1.13-.71-.37.28-.76.55-1.14.82l-.11.07c.04-.06.08-.13.12-.19ZM39.38,66.23c-.04.07-.09.13-.13.2l-.25.16c-.11.08-.23.15-.35.22l-.36.21c-.12.07-.24.14-.36.21l-.37.19s-.03.02-.05.02c.55-.37,1.17-.78,1.86-1.21ZM35.76,68.79c.08-.08.17-.17.28-.26l.17-.05.79-.3c.27-.09.52-.23.78-.34l.38-.18c.13-.06.25-.13.38-.2l.03-.02c-.1.15-.21.29-.32.43-.15.19-.3.37-.44.56-.31.35-.6.71-.92,1.02-.6.64-1.25,1.16-1.9,1.58-.06.02-.13.05-.19.07-.15.05-.29.11-.43.17.18-.64.57-1.64,1.39-2.48ZM35.28,71.26c-.21.08-.41.16-.57.22-.16.07-.3.13-.41.19-.01,0-.02,0-.03.02,0-.04.02-.07.03-.11,0,0,0,0,0,0,.19-.07.39-.15.59-.21.2-.07.4-.13.61-.2.1-.03.21-.07.31-.1,0,0,0,0,.01,0-.2.07-.38.14-.55.21ZM37.4,70.22s-.04.01-.06.02c-.44.14-.87.29-1.3.43-.11.03-.21.07-.32.1-.1.04-.21.08-.31.11-.04.01-.07.03-.11.04.57-.38,1.13-.84,1.66-1.39.32-.31.63-.66.94-1.01.15-.18.3-.37.45-.56.15-.19.29-.39.44-.58.02-.03.04-.06.06-.09l.05-.03c.12-.07.25-.13.37-.21l.73-.43c.47-.31.95-.61,1.41-.93.06-.04.12-.08.17-.12-.41.72-.86,1.38-1.33,1.98-.53.72-1.13,1.32-1.73,1.81-.15.12-.3.24-.45.36-.15.12-.3.22-.44.33-.08.06-.16.11-.23.17ZM39.32,69.51c-.11.05-.22.1-.33.14-.11.04-.22.08-.33.12-.22.09-.44.17-.66.25-.05.02-.09.03-.14.04.1-.07.2-.14.31-.21.15-.11.31-.23.47-.34.63-.48,1.26-1.07,1.83-1.79.58-.7,1.14-1.48,1.64-2.34.06-.1.11-.2.17-.3.17-.12.34-.24.51-.36.19-.14.39-.27.58-.41,0,.02-.01.04-.02.06-.07.3-.15.6-.23.9-.42.75-.85,1.51-1.28,2.27-.2.36-.39.71-.6,1.04-.41.22-.83.43-1.25.63-.22.1-.44.19-.66.29ZM40.78,71.96c-.26.28-.53.55-.8.82-.54.14-1.08.28-1.61.42-1.18.31-2.32.65-3.33,1.13-.16.08-.32.16-.47.24.83-.55,1.69-1.1,2.54-1.64.49-.2.97-.45,1.44-.76l.15-.1c.05-.03.1-.06.14-.1.09-.07.18-.14.27-.21l.14-.11.03-.03h.02s.02-.03.02-.03h0s.07-.07.07-.07c.04-.04.08-.07.12-.11.9-.57,1.79-1.14,2.62-1.71-.08.35-.17.71-.27,1.05-.36.4-.72.81-1.09,1.19ZM41.4,72.27s-.03.08-.04.12c-.04.01-.07.02-.11.04h0c.05-.05.1-.1.15-.15Z"/><path class="cls-33" d="M68.26,72.66c-.26-2.06-5.6-8.71-7.01-13.07-.43-1.32-.54-3.03-.52-4.67-.29,1.15-.57,2.16-.65,2.32-.14.33-.45,1.19-.53,1.38,0-.02,0-.03-.01-.05-.02.05-.03.09-.03.09,0,0,.19,1.32.14,1.85-.01.17-.14.54-.32.96h0s0,0,0,.01c-.02.04-.03.07-.05.11-.13.31-.29.64-.44.95,0,0,0,0,0,0-.02.04-.04.09-.06.13-.02.04-.04.08-.06.11,0,0,0,.02-.01.03-.17.34-.33.61-.42.73,0,0,0,0,0,0-.01.01-.02.03-.03.04-.23.21-2.08.26-2.08.26,0-.02,0-.04-.01-.06v.06s-1.85-.05-2.08-.26c0,0-.02-.02-.03-.04,0,0,0,0,0,0-.12-.15-.34-.56-.58-1.05,0,0,0-.01,0-.02-.02-.04-.04-.09-.06-.13,0-.01-.01-.02-.02-.03-.02-.05-.05-.1-.07-.14,0-.02-.02-.04-.03-.06-.02-.03-.03-.06-.04-.1,0-.02-.02-.04-.03-.06-.02-.05-.04-.09-.06-.13,0,0,0,0,0-.01-.25-.55-.45-1.07-.47-1.29-.05-.53.14-1.85.14-1.85,0,0-.31-.86-.49-1.3-.21,1.09-.57,2.18-1.16,3.16-2.35,3.9-7.21,10.1-7.63,12.14-3.04,15.32.57,16.12,3.91,17.11,3.38.99,4.44,2.41,4.87,3.2.42.78.78,1.63.78,1.63,0,0,.77-.99,1.82-1.07.66-.04.9-.06,1-.07.09,0,.34.02,1,.07,1.05.07,1.82,1.07,1.82,1.07,0,0,.35-.85.78-1.63.42-.78,1.48-2.2,4.87-3.2,3.36-.99,5.33-5.23,3.91-17.11Z"/><path class="cls-35" d="M68.26,72.66c-.26-2.06-5.6-8.71-7.01-13.07-.43-1.32-.54-3.03-.52-4.67-.29,1.15-.57,2.16-.65,2.32-.14.33-.45,1.19-.53,1.38,0-.02,0-.03-.01-.05-.02.05-.03.09-.03.09,0,0,.19,1.32.14,1.85-.01.17-.14.54-.32.96h0s0,0,0,.01c-.02.04-.03.07-.05.11-.13.31-.29.64-.44.95,0,0,0,0,0,0-.02.04-.04.09-.06.13-.02.04-.04.08-.06.11,0,0,0,.02-.01.03-.17.34-.33.61-.42.73,0,0,0,0,0,0-.01.01-.02.03-.03.04-.23.21-2.08.26-2.08.26,0-.02,0-.04-.01-.06v.06s-1.85-.05-2.08-.26c0,0-.02-.02-.03-.04,0,0,0,0,0,0-.12-.15-.34-.56-.58-1.05,0,0,0-.01,0-.02-.02-.04-.04-.09-.06-.13,0-.01-.01-.02-.02-.03-.02-.05-.05-.1-.07-.14,0-.02-.02-.04-.03-.06-.02-.03-.03-.06-.04-.1,0-.02-.02-.04-.03-.06-.02-.05-.04-.09-.06-.13,0,0,0,0,0-.01-.25-.55-.45-1.07-.47-1.29-.05-.53.14-1.85.14-1.85,0,0-.31-.86-.49-1.3-.21,1.09-.57,2.18-1.16,3.16-2.35,3.9-7.21,10.1-7.63,12.14-3.04,15.32.57,16.12,3.91,17.11,3.38.99,4.44,2.41,4.87,3.2.42.78.78,1.63.78,1.63,0,0,.77-.99,1.82-1.07.66-.04.9-.06,1-.07.09,0,.34.02,1,.07,1.05.07,1.82,1.07,1.82,1.07,0,0,.35-.85.78-1.63.42-.78,1.48-2.2,4.87-3.2,3.36-.99,5.33-5.23,3.91-17.11Z"/><path class="cls-37" d="M47.71,68.84c0,.1.01.19.02.29.02.19.03.39.05.58.03.19.06.39.09.58.03.2.08.39.12.58.02.1.04.19.06.29.02.1.05.19.08.29.05.19.11.39.17.58.24.77.56,1.5.9,2.21.36.7.75,1.38,1.16,2,.21.31.42.62.64.91.11.14.22.29.33.43.11.14.22.27.34.41.11.14.22.27.34.39.11.13.22.26.34.38.23.24.45.48.67.7.44.44.88.84,1.3,1.19.41.35.8.64,1.15.89.23.17.44.31.63.43-.41.42-.64.66-.64.66,0,0,.08-.04.22-.12.14-.08.35-.19.61-.36.02-.01.04-.02.05-.03.02.01.04.02.05.03.26.17.47.28.61.36.14.08.22.12.22.12,0,0-.23-.24-.64-.66.19-.12.4-.27.63-.43.35-.25.74-.55,1.16-.89.41-.35.85-.74,1.3-1.19.23-.22.44-.46.67-.7.11-.12.22-.25.34-.38.11-.13.23-.26.34-.39.11-.14.22-.27.34-.41.11-.14.22-.29.33-.43.22-.29.43-.6.64-.91.42-.63.81-1.3,1.16-2,.34-.71.66-1.45.9-2.21.06-.19.11-.39.17-.58.03-.1.05-.19.08-.29.02-.1.04-.2.06-.29.04-.2.09-.39.12-.58.03-.2.06-.39.09-.58.03-.19.04-.39.05-.58,0-.1.01-.19.02-.29,0-.1,0-.19,0-.29,0-.19,0-.38,0-.56-.01-.18-.03-.37-.04-.55,0-.18-.04-.35-.06-.53-.03-.17-.05-.34-.08-.5-.04-.16-.08-.32-.11-.48-.02-.08-.04-.15-.06-.23-.02-.07-.05-.15-.07-.22-.1-.29-.18-.57-.3-.81-.11-.25-.21-.49-.33-.69-.06-.1-.11-.2-.16-.3-.05-.1-.1-.19-.16-.27-.11-.17-.22-.32-.31-.46-.09-.14-.18-.25-.27-.34-.08-.1-.15-.18-.21-.24-.11-.13-.17-.2-.17-.2,0,0,.04.09.12.25.04.08.09.18.14.3.06.12.13.25.19.4.06.15.13.32.21.5.07.18.14.39.21.61.08.21.14.45.2.7.07.24.12.51.17.79.01.07.03.14.04.21,0,.07.02.14.02.22.02.14.03.29.05.44.01.15.02.3.03.46,0,.15.02.31,0,.47,0,.16,0,.32,0,.48,0,.16-.03.33-.04.49,0,.08-.02.16-.02.25-.01.08-.03.17-.04.25-.03.17-.05.34-.08.5-.13.68-.32,1.36-.55,2.04-.24.68-.53,1.34-.85,2-.32.65-.68,1.28-1.05,1.89-.38.6-.76,1.19-1.16,1.73-.19.28-.4.54-.59.8-.2.25-.39.51-.59.75-.19.24-.38.47-.57.7-.18.23-.37.43-.55.64-.35.41-.68.78-.98,1.1-.15.17-.29.3-.42.45-.06.06-.11.12-.17.18-.05-.06-.11-.12-.17-.18-.13-.14-.27-.28-.42-.45-.3-.32-.63-.69-.98-1.1-.18-.2-.36-.41-.55-.64-.19-.22-.38-.45-.57-.7-.2-.24-.39-.49-.59-.75-.19-.26-.4-.52-.59-.8-.4-.54-.78-1.13-1.16-1.73-.37-.61-.73-1.24-1.05-1.89-.32-.65-.61-1.32-.85-2-.23-.68-.42-1.36-.55-2.04-.03-.17-.05-.34-.08-.5-.01-.08-.03-.17-.04-.25,0-.08-.01-.17-.02-.25-.01-.17-.03-.33-.04-.49,0-.16,0-.32-.01-.48-.01-.16,0-.31.01-.47,0-.15.01-.31.02-.46.02-.15.03-.3.05-.44,0-.07.02-.14.02-.22.01-.07.03-.14.04-.21.05-.27.1-.54.17-.79.06-.25.12-.49.2-.7.08-.21.14-.42.21-.61.08-.18.14-.35.21-.5.06-.16.13-.29.19-.4.06-.12.1-.22.14-.3.08-.16.12-.25.12-.25,0,0-.06.07-.17.2-.06.07-.13.15-.21.24-.08.09-.18.2-.27.34-.09.14-.2.29-.31.46-.06.08-.11.18-.16.27-.05.1-.11.2-.17.3-.12.2-.22.44-.33.69-.12.24-.2.52-.3.81-.02.07-.05.15-.07.22-.02.08-.04.15-.06.23-.04.16-.07.32-.11.48-.04.16-.05.33-.08.5-.03.17-.06.35-.06.53-.01.18-.02.36-.04.55,0,.18,0,.37,0,.56,0,.09,0,.19,0,.29Z"/><path class="cls-37" d="M68.87,79.68c0-.07,0-.14,0-.2,0-.06-.01-.12-.02-.17-.01-.11-.03-.2-.04-.27-.02-.15-.03-.22-.03-.22,0,0-.01.08-.04.22-.01.07-.02.16-.04.27-.01.11-.04.22-.07.35-.02.06-.03.13-.05.2-.02.07-.03.14-.06.21-.05.15-.1.3-.17.47-.08.15-.14.33-.24.49-.05.08-.1.16-.15.25-.03.04-.05.08-.08.13-.03.04-.06.08-.09.12-.06.08-.12.16-.18.25-.07.08-.14.15-.21.23-.04.04-.07.08-.11.12-.04.04-.08.07-.12.11-.08.07-.16.15-.24.22-.34.28-.71.55-1.14.78-.1.06-.21.11-.32.17-.11.05-.21.12-.33.16-.22.1-.45.2-.68.29-.47.18-.95.34-1.44.47-.25.07-.49.13-.74.18-.25.06-.5.11-.74.16-.25.04-.49.09-.74.13-.24.04-.49.07-.72.1-.48.07-.94.11-1.38.15-.44.04-.86.06-1.25.08-.39.01-.75.02-1.06.02-.04,0-.08,0-.12,0,.08-.05.13-.07.13-.07,0,0-.07,0-.19.01-.06,0-.14.02-.23.02-.09,0-.19,0-.31.02-.02,0-.04,0-.05,0s-.04,0-.05,0c-.11,0-.22-.01-.31-.02-.09,0-.17-.02-.23-.02-.12,0-.19-.01-.19-.01,0,0,.05.02.13.07-.04,0-.08,0-.12,0-.32,0-.67,0-1.06-.02-.39-.02-.81-.04-1.25-.08-.44-.04-.91-.08-1.38-.15-.24-.03-.48-.07-.73-.1-.24-.04-.49-.08-.74-.13-.25-.05-.5-.1-.74-.16-.25-.05-.49-.12-.74-.18-.49-.13-.98-.28-1.44-.47-.24-.09-.46-.19-.68-.29-.11-.05-.22-.11-.33-.16-.11-.06-.22-.1-.32-.17-.42-.23-.79-.5-1.13-.78-.08-.08-.16-.15-.24-.22-.04-.04-.08-.07-.12-.11-.04-.04-.07-.08-.11-.12-.07-.08-.14-.15-.21-.23-.06-.08-.12-.17-.18-.25-.03-.04-.06-.08-.09-.12-.03-.04-.05-.08-.08-.13-.05-.08-.1-.17-.15-.25-.09-.16-.16-.34-.24-.49-.06-.16-.11-.32-.17-.47-.03-.07-.04-.14-.06-.21-.02-.07-.03-.14-.05-.2-.03-.13-.06-.24-.07-.35-.02-.1-.03-.19-.04-.27-.02-.14-.04-.22-.04-.22,0,0-.01.08-.03.22,0,.07-.02.16-.03.27,0,.05-.02.11-.02.17,0,.06,0,.13,0,.2,0,.14,0,.31,0,.48.02.17.04.36.07.56.02.1.05.2.07.3.03.1.04.22.08.32.04.11.08.21.12.32.02.06.04.11.06.17.03.05.05.11.08.16.05.11.11.22.17.33.06.11.13.21.2.32.04.05.07.11.11.17.04.05.08.1.12.15.08.1.16.21.25.31.09.1.18.19.28.29.05.05.1.1.14.15.05.04.1.09.15.13.1.09.21.18.31.27.11.08.22.16.33.24.45.31.94.59,1.45.81.25.12.51.22.77.31.26.09.53.17.79.25.53.14,1.07.25,1.6.32.53.07,1.05.11,1.56.12.5.02.99-.01,1.45-.05.23-.02.45-.05.67-.07.22-.04.42-.06.62-.1.74-.14,1.35-.34,1.79-.51.44.18,1.05.37,1.79.51.2.04.41.07.62.1.22.03.44.05.67.07.46.04.95.06,1.45.05.5,0,1.03-.05,1.56-.12.53-.07,1.06-.18,1.6-.32.27-.07.53-.16.79-.25.26-.1.52-.19.77-.31.51-.22,1-.5,1.45-.81.11-.08.22-.16.33-.24.11-.08.21-.18.31-.27.05-.04.1-.09.15-.13.05-.05.1-.1.14-.15.09-.1.19-.19.28-.29.08-.11.17-.21.25-.31.04-.05.08-.1.12-.15.04-.06.07-.11.11-.17.07-.11.14-.22.2-.32.06-.11.11-.23.17-.33.03-.05.05-.11.08-.16.02-.06.04-.11.06-.17.04-.11.08-.22.12-.32.04-.1.06-.22.08-.32.02-.1.05-.2.07-.3.03-.2.05-.39.07-.56.02-.17,0-.34,0-.48Z"/><path class="cls-37" d="M61.4,54.42s-.95.36-.82,1.61c.13,1.25.26,3.29.13,4.03-.13.74-1.49,3.18-1.68,4.2-.19,1.02,0,1.7-.19,2.1s-.65,1.53-.65,1.53c0,0,.19,1.42.13,1.99-.06.57-1.36,3.07-1.61,3.29-.26.23-2.33.28-2.33.28v-.07s-.01.07-.01.07c0,0-2.07-.06-2.32-.28-.26-.23-1.55-2.73-1.61-3.29-.06-.57.13-1.99.13-1.99,0,0,0-.02-.02-.05,0,0,0-.02-.01-.03,0,0,0-.02-.01-.03-.03-.08-.08-.21-.14-.36-.01-.03-.02-.06-.04-.09-.06-.14-.12-.3-.18-.45-.02-.04-.04-.09-.05-.13-.02-.04-.03-.08-.05-.11-.05-.12-.1-.22-.13-.3-.19-.4,0-1.08-.19-2.1-.2-1.02-1.55-3.47-1.68-4.2-.06-.34-.06-.94-.04-1.61,0-.06,0-.12,0-.18,0-.17.01-.33.03-.5,0-.07,0-.14.01-.21.01-.19.03-.37.04-.55,0-.06,0-.11.01-.17.02-.2.03-.38.05-.56,0-.09.02-.17.02-.25.09-.87-.29-1.69-.53-2.1-.1-.18-.18-.29-.18-.29,0,0-.32-.85.26-1.93.58-1.08.71-2.05.9-3.07.19-1.02.32-1.37,1.16-2.16.84-.8,2.12-2.39,3.14-2.79.33-.13,1.45-.06,1.45-.06v.06-.06s1.13-.07,1.46.06c1.02.39,2.3,1.99,3.14,2.79.84.79.97,1.14,1.16,2.16.19,1.02.32,1.99.9,3.07.58,1.08.37,2.71.37,2.71Z"/><path class="cls-34" d="M51.46,64.1c0,.81-.44,2.22-.92,3.76,0,0,0-.02-.01-.03,0,0,0-.02-.01-.03-.03-.08-.08-.21-.14-.36-.01-.03-.02-.06-.04-.09-.06-.14-.12-.3-.18-.45-.02-.04-.04-.09-.05-.13-.02-.04-.03-.08-.05-.11-.05-.12-.1-.22-.13-.3-.19-.4,0-1.08-.19-2.1-.2-1.02-1.55-3.47-1.68-4.2-.06-.34-.06-.94-.04-1.61,0-.06,0-.12,0-.18,0-.17.01-.33.03-.5,0-.07,0-.14.01-.21.01-.19.03-.37.04-.55,0-.06,0-.11.01-.17.02-.2.03-.38.05-.56,0-.09.02-.17.02-.25.09-.87-.29-1.69-.53-2.1h.03c.35.56.98.64,1.24,1.26.18.44.39,1.27.2,1.74-.03.09-.08.16-.14.2.39.46.8,1.03,1.06,1.66.69,1.64,1.43,3.09,1.43,5.31Z"/><path class="cls-36" d="M57.45,63.97c0,.81.44,2.22.92,3.76,0,0,0-.02.01-.03,0,0,0-.02.01-.03.03-.08.08-.21.14-.36.01-.03.02-.06.04-.09.06-.14.12-.3.18-.45.02-.04.04-.09.05-.12.02-.04.03-.08.05-.11.05-.12.1-.22.13-.3.19-.4,0-1.08.19-2.1.2-1.02,1.55-3.46,1.68-4.2.06-.34.06-.94.04-1.62,0-.06,0-.12,0-.18,0-.16-.01-.33-.02-.5,0-.07,0-.14-.01-.21-.01-.19-.02-.37-.04-.55,0-.06,0-.11-.01-.17-.02-.2-.03-.39-.05-.56,0-.09-.02-.17-.02-.25-.09-.87.29-1.69.53-2.1h-.02c-.35.56-.98.64-1.24,1.26-.18.44-.39,1.27-.2,1.74.03.09.08.16.14.2-.39.46-.8,1.03-1.07,1.66-.69,1.64-1.43,3.09-1.43,5.31Z"/><path class="cls-14" d="M61.65,53.55c-.01-.44-.03-.84-.05-1.16-.04-.62-.07-.97-.07-.97h-.04c-.04-3.01-1.08-6.33-2.98-7.51-1.09-1.46-3.32-1.69-5.21-1.06v-.04s-.24.06-.65.16c-.21.06-.47.13-.76.22-.29.1-.61.2-.95.35-.17.07-.35.15-.53.23-.18.08-.37.18-.56.28-.19.1-.38.22-.57.33-.19.12-.38.25-.57.39-.37.28-.73.6-1.07.95-.34.35-.65.74-.93,1.14-.57.8-1.01,1.67-1.4,2.48-.39.81-.75,1.57-1.11,2.19-.35.63-.68,1.12-.94,1.46-.12.17-.23.29-.3.38-.07.09-.11.13-.11.13,0,0,.04-.04.12-.13.08-.08.19-.2.33-.36.28-.32.65-.79,1.04-1.41.39-.61.8-1.35,1.25-2.13.45-.78.93-1.6,1.52-2.34.29-.37.61-.71.94-1.02.34-.31.69-.59,1.05-.82.18-.12.36-.23.55-.33.19-.09.36-.2.54-.28.17-.08.34-.15.5-.22-1.76,1.55-3.26,3.45-4.33,5.55-.41.46-.83.92-1.22,1.36-.28.3-.55.6-.81.87-.13.14-.26.27-.38.4-.12.13-.25.24-.37.36-.12.11-.23.23-.34.33-.11.1-.22.2-.32.29-.1.09-.19.17-.28.25-.09.07-.17.14-.25.2-.3.24-.47.38-.47.38,0,0,.18-.13.49-.35.08-.06.17-.12.26-.19.09-.07.19-.15.3-.23.11-.08.22-.17.34-.27.12-.09.24-.2.36-.31.13-.11.26-.22.39-.34.13-.12.27-.24.41-.37.28-.25.57-.53.87-.82.16-.16.33-.32.5-.49-.34.81-.63,1.64-.83,2.49,1.51-1.74,3.69-2.62,5.29-4.17-.14.18-.28.35-.43.52-.25.28-.53.53-.81.79-.28.25-.58.5-.87.73-.29.23-.58.46-.87.69-.57.44-1.09.87-1.52,1.25-.22.19-.41.38-.57.55-.16.17-.3.32-.41.45-.11.13-.18.24-.24.31-.05.07-.08.11-.08.11,0,0,.03-.04.09-.1.06-.07.15-.16.27-.28.23-.24.6-.55,1.04-.91.45-.35.99-.75,1.57-1.17.29-.21.59-.43.89-.67.3-.24.6-.48.89-.74.29-.26.57-.53.82-.82.11-.13.22-.25.32-.38-.63,1.32-1.01,2.74-1.19,4.26,1.01-2.43,6.84-4.99,8.44-7.36,0,.02-.02.05-.03.07-.02.04-.03.07-.05.11-.13.29-.32.58-.52.86-.21.28-.46.54-.73.8-.26.26-.56.5-.86.73-.3.24-.61.46-.91.67-.31.21-.62.42-.91.63-.59.41-1.14.79-1.6,1.15-.23.18-.43.35-.6.51-.17.16-.32.3-.43.43-.12.12-.2.22-.26.29-.06.07-.09.11-.09.11,0,0,.03-.03.1-.1.06-.06.16-.15.29-.26.25-.22.63-.51,1.1-.83.47-.32,1.04-.68,1.64-1.06.3-.2.62-.39.93-.61.31-.22.63-.44.93-.68.3-.24.6-.49.87-.76.27-.27.53-.55.74-.86.06-.09.12-.18.18-.28-.15.34-.37.68-.62,1-.25.33-.56.64-.89.94-.32.3-.68.58-1.04.84-.36.27-.74.52-1.11.77-.38.24-.75.48-1.1.71-.72.46-1.39.9-1.94,1.31-.28.2-.52.4-.73.58-.21.18-.39.34-.53.49-.14.14-.25.26-.32.34-.07.08-.11.12-.11.12,0,0,.04-.04.12-.11.08-.07.19-.18.35-.31.15-.13.34-.28.56-.44.22-.16.48-.34.76-.52.28-.19.6-.38.93-.58.33-.2.69-.41,1.05-.63.36-.22.74-.45,1.12-.69.38-.25.76-.5,1.13-.77.37-.28.73-.56,1.06-.87.33-.31.64-.64.9-.99.26-.35.48-.72.63-1.09.02-.05.04-.09.06-.14.02-.05.03-.09.05-.14.03-.09.06-.19.09-.28.02-.09.04-.18.05-.27.02-.09.04-.18.04-.26,0-.03,0-.06,0-.1.35.53-1.03,4.79-1.3,5.25.4-.66,1.79-1.21,2.42-4.78.07.07.14.14.2.21,0,.03,0,.07,0,.1,0,.23-.01.47-.05.72-.03.25-.09.51-.15.76-.06.26-.15.51-.24.76-.1.25-.2.5-.33.73-.13.23-.25.46-.39.67-.14.21-.29.41-.43.58-.08.09-.15.17-.22.25-.07.08-.15.15-.22.22-.15.14-.29.26-.42.35-.14.1-.26.18-.36.23-.1.06-.19.1-.25.13-.06.03-.09.04-.09.04,0,0,.03,0,.1-.03.06-.02.16-.04.27-.09.12-.04.25-.1.4-.19.15-.08.31-.19.48-.32.17-.13.34-.28.51-.46.17-.17.33-.37.49-.58.31-.43.58-.93.78-1.45.1-.27.18-.53.24-.8.06-.27.11-.54.13-.81.02-.19.02-.37.02-.54.27.39.36.77.49,1.41.19,1.03.32,1.99.9,3.08.56,1.04.28,1.86.26,1.93-.4,1.13-.84.86-.56,2.89.15,1.11.17,2.45-.02,3.55,0,.01,0,.02,0,.03,0-.02.01-.03.02-.05.22-.58.41-1.18.56-1.79.07-.31.13-.61.19-.92.04-.31.1-.61.13-.91.03-.3.07-.59.08-.88.02-.29.04-.56.05-.83.02-.54.01-1.03.01-1.47Z"/></g></svg>