<?xml version="1.0" encoding="UTF-8"?><svg xmlns="http://www.w3.org/2000/svg" xmlns:xlink="http://www.w3.org/1999/xlink" viewBox="0 0 102.24 150.24"><defs><style>.cls-1{fill:none;stroke:#1e1e1c;stroke-miterlimit:10;stroke-width:.25px;}.cls-2{fill:#fcc12d;}.cls-3{fill:url(#linear-gradient);}.cls-4{fill:#c41c33;}.cls-5{fill:#7fafce;}.cls-6{fill:#ffe7a1;}.cls-7{fill:#fbbc15;}.cls-8{fill:#fed695;}</style><linearGradient id="linear-gradient" x1="48.77" y1="37.58" x2="48.77" y2="76.11" gradientTransform="translate(3.26 1.03) rotate(-.1)" gradientUnits="userSpaceOnUse"><stop offset="0" stop-color="#ce1e28"/><stop offset=".26" stop-color="#d73634"/><stop offset=".75" stop-color="#e75d48"/><stop offset="1" stop-color="#ed6d50"/></linearGradient></defs><g id="NOOOOO"><g id="margem"><polyline class="cls-1" points="65.21 141.14 91.84 141.14 91.84 9.1 65.21 9.1"/><polyline class="cls-1" points="41.37 9.1 10.4 9.1 10.4 141.14 40.31 140.95"/><polyline class="cls-1" points="65.21 141.14 91.84 141.14 91.84 9.1 65.21 9.1"/><polyline class="cls-1" points="41.37 9.1 10.4 9.1 10.4 141.14 40.31 140.95"/></g></g><g id="COPAS"><path class="cls-7" d="M48.15,99.56h7.91c1.57-1.24,2.6-3.17,2.61-5.35.01-2.62-1.88-4.8-4.39-5.27-4.87-.92-8.77.7-8.76,5.25,0,.47.05.92.14,1.36.33,1.64,1.24,3.05,2.5,4.02Z"/><path class="cls-5" d="M71.57,120.55c-5.78-2.21-11.43-4.45-14.78-7.16-1.38-1.12-2.19-2.81-2.27-4.61-.13-3.2-.01-5.52.26-7.24h-5.46c.27,1.74.4,4.06.28,7.25-.07,1.8-.88,3.5-2.25,4.62-3.34,2.73-8.98,4.99-14.75,7.22-.16.06-.26.22-.26.39v.96c0,.14.11.25.25.25l39-.07c.13,0,.24-.11.24-.25v-.96c0-.17-.11-.33-.26-.39Z"/><path class="cls-4" d="M49.04,100.59c.07.3.14.62.2.97h5.57c.1-.58.22-1.08.34-1.53.06-.21.2-.38.38-.49.02-.01.04-.02.05-.04h-7c.12.13.22.27.27.44.06.2.12.42.18.65Z"/><path class="cls-3" d="M72.03,35.72l-17.43.03h-5.02s-17.43.04-17.43.04c.08,47.1,15.28,52.77,20.03,52.77,6.36-.01,19.92-7.07,19.84-52.84Z"/><path class="cls-8" d="M34.71,100.02l-1.13.74c-.67.44-1.17,1.1-1.42,1.87l-.34,1.08-.08.24-.05.12-.05-.12-.08-.24-.34-1.08c-.24-.78-.75-1.44-1.42-1.87l-1.13-.74,1.13-.8c.59-.42,1.04-1.03,1.27-1.73l.61-1.79h0s0,0,0,0l.61,1.79c.24.7.68,1.3,1.27,1.73l1.13.8Z"/><path class="cls-2" d="M39.07,97.66l-.75.49c-.45.29-.78.73-.94,1.25l-.23.72-.05.16-.03.08-.03-.08-.05-.16-.23-.72c-.16-.52-.5-.96-.94-1.25l-.75-.49.75-.54c.39-.28.69-.68.85-1.15l.4-1.19h0s0,0,0,0l.4,1.19c.16.46.45.87.85,1.15l.75.54Z"/><path class="cls-2" d="M37.06,105.07l-.54.35c-.32.21-.56.52-.67.89l-.16.51-.04.11-.02.06-.02-.06-.04-.11-.16-.51c-.12-.37-.35-.68-.67-.89l-.54-.35.53-.38c.28-.2.49-.49.6-.82l.29-.85h0s0,0,0,0l.29.85c.11.33.32.62.6.82l.53.38Z"/><path class="cls-8" d="M42.59,28.35l-1.13.74c-.67.44-1.17,1.1-1.42,1.87l-.34,1.08-.08.24-.05.12-.05-.12-.08-.24-.34-1.08c-.24-.78-.75-1.44-1.42-1.87l-1.13-.74,1.13-.8c.59-.42,1.04-1.03,1.27-1.73l.61-1.79h0s0,0,0,0l.61,1.79c.24.7.68,1.3,1.27,1.73l1.13.8Z"/><path class="cls-2" d="M47.8,31.75l-.75.49c-.45.29-.78.73-.94,1.25l-.23.72-.05.16-.03.08-.03-.08-.05-.16-.23-.72c-.16-.52-.5-.96-.94-1.25l-.75-.49.75-.54c.39-.28.69-.68.85-1.15l.4-1.19h0s0,0,0,0l.4,1.19c.16.46.45.87.85,1.15l.75.54Z"/><path class="cls-2" d="M43.43,39.35l-.54.35c-.32.21-.56.52-.67.89l-.16.51-.04.11-.02.06-.02-.06-.04-.11-.16-.51c-.12-.37-.35-.68-.67-.89l-.54-.35.53-.38c.28-.2.49-.49.6-.82l.29-.85h0s0,0,0,0l.29.85c.11.33.32.62.6.82l.53.38Z"/><path class="cls-2" d="M19.61,46l3.16.63.52,3.26s.05.03.05,0l.52-3.26,3.16-.63s.03-.05,0-.05l-3.16-.64-.52-3.11s-.05-.03-.05,0l-.52,3.11-3.16.64s-.03.05,0,.05Z"/><path class="cls-2" d="M16.39,49.88l2.04.41.33,2.1s.03.02.03,0l.33-2.1,2.04-.41s.02-.03,0-.04l-2.04-.41-.33-2s-.03-.02-.03,0l-.33,2-2.04.41s-.02.03,0,.04Z"/><path class="cls-6" d="M18.02,42.15l1.34.27.22,1.39s.02.01.02,0l.22-1.39,1.34-.27s.01-.02,0-.02l-1.34-.27-.22-1.32s-.02-.01-.02,0l-.22,1.32-1.34.27s-.01.02,0,.02Z"/><path class="cls-2" d="M74.23,94.72l3.16.63.52,3.26s.05.03.05,0l.52-3.26,3.16-.63s.03-.05,0-.05l-3.16-.64-.52-3.11s-.05-.03-.05,0l-.52,3.11-3.16.64s-.03.05,0,.05Z"/><path class="cls-2" d="M71,98.61l2.04.41.33,2.1s.03.02.03,0l.33-2.1,2.04-.41s.02-.03,0-.04l-2.04-.41-.33-2s-.03-.02-.03,0l-.33,2-2.04.41s-.02.03,0,.04Z"/><path class="cls-6" d="M72.63,90.88l1.34.27.22,1.39s.02.01.02,0l.22-1.39,1.34-.27s.01-.02,0-.02l-1.34-.27-.22-1.32s-.02-.01-.02,0l-.22,1.32-1.34.27s-.01.02,0,.02Z"/><path class="cls-2" d="M75.17,80.14l-1.61,1.05c-.96.62-1.67,1.57-2.02,2.67l-.49,1.55-.11.34-.06.17-.07-.17-.11-.34-.49-1.55c-.35-1.11-1.06-2.05-2.02-2.67l-1.61-1.05,1.61-1.15c.84-.6,1.48-1.47,1.82-2.46l.87-2.56h0s0,0,0,0l.87,2.56c.34,1,.97,1.86,1.82,2.46l1.61,1.15Z"/><path class="cls-2" d="M77.7,35.83l-4.83.96-.79,4.99s-.07.05-.08,0l-.79-4.99-4.83-.96s-.04-.07,0-.08l4.83-.98.79-4.75s.07-.05.08,0l.79,4.75,4.83.98s.04.07,0,.08Z"/><path class="cls-2" d="M37.53,60.93l-1.61,1.05c-.96.62-1.67,1.57-2.02,2.67l-.49,1.55-.11.34-.06.17-.07-.17-.11-.34-.49-1.55c-.35-1.11-1.06-2.05-2.02-2.67l-1.61-1.05,1.61-1.15c.84-.6,1.48-1.47,1.82-2.46l.87-2.56h0s0,0,0,0l.87,2.56c.34,1,.97,1.86,1.82,2.46l1.61,1.15Z"/><ellipse class="cls-6" cx="28.54" cy="83.05" rx=".4" ry=".41"/><ellipse class="cls-6" cx="19.25" cy="76.24" rx=".4" ry=".41"/><ellipse class="cls-2" cx="26.72" cy="81.67" rx=".26" ry=".27"/><ellipse class="cls-2" cx="27.54" cy="84" rx=".26" ry=".27"/><path class="cls-2" d="M20.46,81.86l1.54-2.34-1.61-2.29s.01-.05.03-.03l2.24,1.65,2.28-1.58s.05.01.03.03l-1.53,2.35,1.52,2.2s-.01.05-.03.03l-2.14-1.56-2.29,1.57s-.05-.01-.03-.03Z"/><path class="cls-2" d="M22.71,84.66l-.83-4.37-4.29-.71s-.04-.07,0-.07l4.29-.71.83-4.37s.06-.04.07,0l.84,4.37,4.09.71s.04.07,0,.07l-4.09.71-.84,4.37s-.06.04-.07,0Z"/><path class="cls-2" d="M31.9,75.99l-2.78.28-.28,2.93s-.04.03-.04,0l-.33-2.93-2.75-.28s-.02-.04,0-.05l2.75-.23.33-2.96s.04-.03.04,0l.28,2.96,2.78.23s.02.04,0,.05Z"/><ellipse class="cls-2" cx="28.79" cy="75.99" rx=".75" ry=".76"/><ellipse class="cls-6" cx="83.82" cy="63.65" rx=".4" ry=".41"/><ellipse class="cls-6" cx="72.7" cy="56.85" rx=".4" ry=".41"/><ellipse class="cls-2" cx="81.99" cy="62.27" rx=".26" ry=".27"/><ellipse class="cls-2" cx="82.82" cy="64.61" rx=".26" ry=".27"/><path class="cls-2" d="M75.74,62.46l1.54-2.34-1.61-2.29s.01-.05.03-.03l2.24,1.65,2.28-1.58s.05.01.03.03l-1.53,2.35,1.52,2.2s-.01.05-.03.03l-2.14-1.56-2.29,1.57s-.05-.01-.03-.03Z"/><path class="cls-2" d="M77.99,65.26l-.83-4.37-4.29-.71s-.04-.07,0-.07l4.29-.71.83-4.37s.06-.04.07,0l.84,4.37,4.09.71s.04.07,0,.07l-4.09.71-.84,4.37s-.06.04-.07,0Z"/><path class="cls-2" d="M87.18,56.59l-2.78.28-.28,2.93s-.04.03-.04,0l-.33-2.93-2.75-.28s-.02-.04,0-.05l2.75-.23.33-2.96s.04-.03.04,0l.28,2.96,2.78.23s.02.04,0,.05Z"/><ellipse class="cls-2" cx="84.06" cy="56.59" rx=".75" ry=".76"/></g></svg>