<?xml version="1.0" encoding="UTF-8"?><svg xmlns="http://www.w3.org/2000/svg" xmlns:xlink="http://www.w3.org/1999/xlink" viewBox="0 0 102.24 150.24"><defs><style>.cls-1{fill:none;stroke:#1e1e1c;stroke-miterlimit:10;stroke-width:.25px;}.cls-2{fill:url(#linear-gradient-5);}.cls-3{fill:url(#linear-gradient-6);}.cls-4{fill:url(#linear-gradient-4);}.cls-5{fill:url(#linear-gradient-3);}.cls-6{fill:url(#linear-gradient-2);}.cls-7{fill:url(#linear-gradient);}.cls-8{fill:#fbbc15;}</style><linearGradient id="linear-gradient" x1="-1357.09" y1="-3116.33" x2="-1357.09" y2="-3103.33" gradientTransform="translate(1412.38 3213.32) rotate(.11)" gradientUnits="userSpaceOnUse"><stop offset="0" stop-color="#ce1e28"/><stop offset=".26" stop-color="#d73634"/><stop offset=".75" stop-color="#e75d48"/><stop offset="1" stop-color="#ed6d50"/></linearGradient><linearGradient id="linear-gradient-2" x1="2327.16" y1="-522.96" x2="2327.16" y2="-509.96" gradientTransform="translate(-2287.15 612.87) rotate(.11)" xlink:href="#linear-gradient"/><linearGradient id="linear-gradient-3" x1="-1357.15" y1="-3149.5" x2="-1357.15" y2="-3136.5" xlink:href="#linear-gradient"/><linearGradient id="linear-gradient-4" x1="2327.1" y1="-556.13" x2="2327.1" y2="-543.13" gradientTransform="translate(-2287.15 612.87) rotate(.11)" xlink:href="#linear-gradient"/><linearGradient id="linear-gradient-5" x1="-1357.21" y1="-3182.67" x2="-1357.21" y2="-3169.67" xlink:href="#linear-gradient"/><linearGradient id="linear-gradient-6" x1="2327.04" y1="-589.3" x2="2327.04" y2="-576.3" gradientTransform="translate(-2287.15 612.87) rotate(.11)" xlink:href="#linear-gradient"/></defs><g id="NOOOOO"><g id="margem"><polyline class="cls-1" points="65.21 141.14 91.84 141.14 91.84 9.1 65.21 9.1"/><polyline class="cls-1" points="41.37 9.1 10.4 9.1 10.4 141.14 40.31 140.95"/><polyline class="cls-1" points="65.21 141.14 91.84 141.14 91.84 9.1 65.21 9.1"/><polyline class="cls-1" points="41.37 9.1 10.4 9.1 10.4 141.14 40.31 140.95"/></g></g><g id="COPAS"><path class="cls-7" d="M68.33,93.48h-6.19s-1.78-.01-1.78-.01h-6.19c-3.67,11.91,2.97,17.97,7.05,17.81,4.07.17,10.74-5.86,7.12-17.8Z"/><path class="cls-8" d="M68.16,122.51c-2.05-.75-4.05-1.52-5.24-2.43-.49-.38-.78-.95-.8-1.56-.06-1.52.06-2.46.24-3.07.02-.07.07-.13.14-.16.67-.4,1.11-1.11,1.12-1.92,0-.89-.66-1.62-1.55-1.78-1.73-.32-3.11.23-3.12,1.76,0,.16.02.31.05.46.12.6.49,1.11.99,1.44.07.04.12.1.14.18.19.61.31,1.55.24,3.1-.03.61-.32,1.18-.8,1.55-1.19.91-3.19,1.67-5.25,2.42-.06.02-.09.07-.09.13v.32s.04.08.09.08h6.53s.8.01.8.01h6.53s.09-.03.09-.07v-.32c0-.06-.04-.11-.09-.13Z"/><path class="cls-6" d="M48.1,93.44h-6.19s-1.78-.01-1.78-.01h-6.19c-3.67,11.91,2.97,17.97,7.05,17.81,4.07.17,10.74-5.86,7.12-17.8Z"/><path class="cls-8" d="M47.93,122.47c-2.05-.75-4.05-1.52-5.24-2.43-.49-.38-.78-.95-.8-1.56-.06-1.52.06-2.46.24-3.07.02-.07.07-.13.14-.16.67-.4,1.11-1.11,1.12-1.92,0-.89-.66-1.62-1.55-1.78-1.73-.32-3.11.23-3.12,1.76,0,.16.02.31.05.46.12.6.49,1.11.99,1.44.07.04.12.1.14.18.19.61.31,1.55.24,3.1-.03.61-.32,1.18-.8,1.55-1.19.91-3.19,1.67-5.25,2.42-.06.02-.09.07-.09.13v.32s.04.08.09.08h6.53s.8.01.8.01h6.53s.09-.03.09-.07v-.32c0-.06-.04-.11-.09-.13Z"/><path class="cls-5" d="M68.33,60.31h-6.19s-1.78-.01-1.78-.01h-6.19c-3.67,11.91,2.97,17.97,7.05,17.81,4.07.17,10.74-5.86,7.12-17.8Z"/><path class="cls-8" d="M68.16,89.34c-2.05-.75-4.05-1.52-5.24-2.43-.49-.38-.78-.95-.8-1.56-.06-1.52.06-2.46.24-3.07.02-.07.07-.13.14-.16.67-.4,1.11-1.11,1.12-1.92,0-.89-.66-1.62-1.55-1.78-1.73-.32-3.11.23-3.12,1.76,0,.16.02.31.05.46.12.6.49,1.11.99,1.44.07.04.12.1.14.18.19.61.31,1.55.24,3.1-.03.61-.32,1.18-.8,1.55-1.19.91-3.19,1.67-5.25,2.42-.06.02-.09.07-.09.13v.32s.04.08.09.08h6.53s.8.01.8.01h6.53s.09-.03.09-.07v-.32c0-.06-.04-.11-.09-.13Z"/><path class="cls-4" d="M48.1,60.27h-6.19s-1.78-.01-1.78-.01h-6.19c-3.67,11.91,2.97,17.97,7.05,17.81,4.07.17,10.74-5.86,7.12-17.8Z"/><path class="cls-8" d="M47.93,89.3c-2.05-.75-4.05-1.52-5.24-2.43-.49-.38-.78-.95-.8-1.56-.06-1.52.06-2.46.24-3.07.02-.07.07-.13.14-.16.67-.4,1.11-1.11,1.12-1.92,0-.89-.66-1.62-1.55-1.78-1.73-.32-3.11.23-3.12,1.76,0,.16.02.31.05.46.12.6.49,1.11.99,1.44.07.04.12.1.14.18.19.61.31,1.55.24,3.1-.03.61-.32,1.18-.8,1.55-1.19.91-3.19,1.67-5.25,2.42-.06.02-.09.07-.09.13v.32s.04.08.09.08h6.53s.8.01.8.01h6.53s.09-.03.09-.07v-.32c0-.06-.04-.11-.09-.13Z"/><path class="cls-2" d="M68.33,27.14h-6.19s-1.78-.01-1.78-.01h-6.19c-3.67,11.91,2.97,17.97,7.05,17.81,4.07.17,10.74-5.86,7.12-17.8Z"/><path class="cls-8" d="M68.16,56.17c-2.05-.75-4.05-1.52-5.24-2.43-.49-.38-.78-.95-.8-1.56-.06-1.52.06-2.46.24-3.07.02-.07.07-.13.14-.16.67-.4,1.11-1.11,1.12-1.92,0-.89-.66-1.62-1.55-1.78-1.73-.32-3.11.23-3.12,1.76,0,.16.02.31.05.46.12.6.49,1.11.99,1.44.07.04.12.1.14.18.19.61.31,1.55.24,3.1-.03.61-.32,1.18-.8,1.55-1.19.91-3.19,1.67-5.25,2.42-.06.02-.09.07-.09.13v.32s.04.08.09.08h6.53s.8.01.8.01h6.53s.09-.03.09-.07v-.32c0-.06-.04-.11-.09-.13Z"/><path class="cls-3" d="M48.1,27.1h-6.19s-1.78-.01-1.78-.01h-6.19c-3.67,11.91,2.97,17.97,7.05,17.81,4.07.17,10.74-5.86,7.12-17.8Z"/><path class="cls-8" d="M47.93,56.14c-2.05-.75-4.05-1.52-5.24-2.43-.49-.38-.78-.95-.8-1.56-.06-1.52.06-2.46.24-3.07.02-.07.07-.13.14-.16.67-.4,1.11-1.11,1.12-1.92,0-.89-.66-1.62-1.55-1.78-1.73-.32-3.11.23-3.12,1.76,0,.16.02.31.05.46.12.6.49,1.11.99,1.44.07.04.12.1.14.18.19.61.31,1.55.24,3.1-.03.61-.32,1.18-.8,1.55-1.19.91-3.19,1.67-5.25,2.42-.06.02-.09.07-.09.13v.32s.04.08.09.08h6.53s.8.01.8.01h6.53s.09-.03.09-.07v-.32c0-.06-.04-.11-.09-.13Z"/></g></svg>