<?xml version="1.0" encoding="UTF-8"?><svg xmlns="http://www.w3.org/2000/svg" xmlns:xlink="http://www.w3.org/1999/xlink" viewBox="0 0 102.24 150.24"><defs><style>.cls-1{fill:none;stroke:#1e1e1c;stroke-miterlimit:10;stroke-width:.25px;}.cls-2{fill:url(#linear-gradient-7);}.cls-3{fill:url(#linear-gradient-5);}.cls-4{fill:url(#linear-gradient-6);}.cls-5{fill:url(#linear-gradient-4);}.cls-6{fill:url(#linear-gradient-3);}.cls-7{fill:url(#linear-gradient-2);}.cls-8{fill:url(#linear-gradient);}.cls-9{fill:#fbbc15;}</style><linearGradient id="linear-gradient" x1="-1388.57" y1="-2324.2" x2="-1388.57" y2="-2310.77" gradientTransform="translate(2363.66 -1309.02) rotate(-89.89)" gradientUnits="userSpaceOnUse"><stop offset="0" stop-color="#ce1e28"/><stop offset=".26" stop-color="#d73634"/><stop offset=".75" stop-color="#e75d48"/><stop offset="1" stop-color="#ed6d50"/></linearGradient><linearGradient id="linear-gradient-2" x1="-1379.59" y1="-2296.36" x2="-1379.59" y2="-2282.93" gradientTransform="translate(1426.34 2388.62) rotate(.11)" xlink:href="#linear-gradient"/><linearGradient id="linear-gradient-3" x1="1838.94" y1="-1409.52" x2="1838.94" y2="-1396.09" gradientTransform="translate(1914.12 -1287.75) rotate(-179.89)" xlink:href="#linear-gradient"/><linearGradient id="linear-gradient-4" x1="1881.69" y1="-1409.6" x2="1881.69" y2="-1396.17" gradientTransform="translate(1914.12 -1287.75) rotate(-179.89)" xlink:href="#linear-gradient"/><linearGradient id="linear-gradient-5" x1="-1379.75" y1="-2380.01" x2="-1379.75" y2="-2366.58" gradientTransform="translate(1426.34 -2322.04) rotate(-.11) scale(1 -1)" xlink:href="#linear-gradient"/><linearGradient id="linear-gradient-6" x1="1839.1" y1="-1325.87" x2="1839.1" y2="-1312.44" gradientTransform="translate(1914.12 1354.34) rotate(179.89) scale(1 -1)" xlink:href="#linear-gradient"/><linearGradient id="linear-gradient-7" x1="1881.85" y1="-1325.95" x2="1881.85" y2="-1312.52" gradientTransform="translate(1914.12 1354.34) rotate(179.89) scale(1 -1)" xlink:href="#linear-gradient"/></defs><g id="NOOOOO"><g id="margem"><polyline class="cls-1" points="65.21 141.14 91.84 141.14 91.84 9.1 65.21 9.1"/><polyline class="cls-1" points="41.37 9.1 10.4 9.1 10.4 141.14 40.31 140.95"/><polyline class="cls-1" points="65.21 141.14 91.84 141.14 91.84 9.1 65.21 9.1"/><polyline class="cls-1" points="41.37 9.1 10.4 9.1 10.4 141.14 40.31 140.95"/></g></g><g id="COPAS"><path class="cls-8" d="M35.86,67.79v6.39s-.02,1.84-.02,1.84v6.39c12.3,3.79,18.56-3.07,18.4-7.28.18-4.21-6.06-11.09-18.38-7.35Z"/><path class="cls-9" d="M65.85,67.97c-.78,2.12-1.57,4.19-2.51,5.41-.39.5-.98.8-1.61.83-1.57.06-2.54-.06-3.17-.25-.07-.02-.13-.07-.17-.14-.41-.69-1.14-1.15-1.99-1.16-.91,0-1.67.68-1.84,1.6-.33,1.79.23,3.22,1.82,3.22.16,0,.32-.02.47-.05.62-.13,1.14-.5,1.48-1.02.04-.07.11-.12.18-.15.63-.2,1.6-.32,3.2-.25.63.03,1.22.33,1.61.83.94,1.23,1.73,3.3,2.49,5.42.02.06.07.1.13.1h.33s.09-.04.09-.09v-6.74s.01-.83.01-.83v-6.74s-.03-.09-.07-.09h-.33c-.06,0-.11.04-.14.1Z"/><path class="cls-7" d="M58.45,88.69h-6.39s-1.84-.02-1.84-.02h-6.39c-3.79,12.3,3.07,18.56,7.28,18.4,4.21.18,11.09-6.06,7.35-18.38Z"/><path class="cls-9" d="M58.27,118.67c-2.12-.78-4.19-1.57-5.41-2.51-.5-.39-.8-.98-.83-1.61-.06-1.57.06-2.54.25-3.17.02-.07.07-.13.14-.17.69-.41,1.15-1.14,1.16-1.99,0-.91-.68-1.67-1.6-1.84-1.79-.33-3.22.23-3.22,1.82,0,.16.02.32.05.47.13.62.5,1.14,1.02,1.48.07.04.12.11.15.18.2.63.32,1.6.25,3.2-.03.63-.33,1.22-.83,1.61-1.23.94-3.3,1.73-5.42,2.49-.06.02-.1.07-.1.13v.33s.04.09.09.09h6.74s.83.01.83.01h6.74s.09-.03.09-.07v-.33c0-.06-.04-.11-.1-.14Z"/><path class="cls-6" d="M65.17,119.2h6.39s1.84.02,1.84.02h6.39c3.79-12.3-3.07-18.56-7.28-18.4-4.21-.18-11.09,6.06-7.35,18.38Z"/><path class="cls-9" d="M65.34,89.22c2.12.78,4.19,1.57,5.41,2.51.5.39.8.98.83,1.61.06,1.57-.06,2.54-.25,3.17-.02.07-.07.13-.14.17-.69.41-1.15,1.14-1.16,1.99,0,.91.68,1.67,1.6,1.84,1.79.33,3.22-.23,3.22-1.82,0-.16-.02-.32-.05-.47-.13-.62-.5-1.14-1.02-1.48-.07-.04-.12-.11-.15-.18-.2-.63-.32-1.6-.25-3.2.03-.63.33-1.22.83-1.61,1.23-.95,3.3-1.73,5.42-2.49.06-.02.1-.07.1-.13v-.33s-.04-.09-.09-.09h-6.74s-.83-.01-.83-.01h-6.74s-.09.03-.09.07v.33c0,.06.04.11.1.14Z"/><path class="cls-5" d="M22.42,119.2h6.39s1.84.02,1.84.02h6.39c3.79-12.3-3.07-18.56-7.28-18.4-4.21-.18-11.09,6.06-7.35,18.38Z"/><path class="cls-9" d="M22.59,89.22c2.12.78,4.19,1.57,5.41,2.51.5.39.8.98.83,1.61.06,1.57-.06,2.54-.25,3.17-.02.07-.07.13-.14.17-.69.41-1.15,1.14-1.16,1.99,0,.91.68,1.67,1.6,1.84,1.79.33,3.22-.23,3.22-1.82,0-.16-.02-.32-.05-.47-.13-.62-.5-1.14-1.02-1.48-.07-.04-.12-.11-.15-.18-.2-.63-.32-1.6-.25-3.2.03-.63.33-1.22.83-1.61,1.23-.95,3.3-1.73,5.42-2.49.06-.02.1-.07.1-.13v-.33s-.04-.09-.09-.09h-6.74s-.83-.01-.83-.01h-6.74s-.09.03-.09.07v.33c0,.06.04.11.1.14Z"/><path class="cls-3" d="M58.45,61.55h-6.39s-1.84.02-1.84.02h-6.39c-3.79-12.3,3.07-18.56,7.28-18.4,4.21-.18,11.09,6.06,7.35,18.38Z"/><path class="cls-9" d="M58.27,31.57c-2.12.78-4.19,1.57-5.41,2.51-.5.39-.8.98-.83,1.61-.06,1.57.06,2.54.25,3.17.02.07.07.13.14.17.69.41,1.15,1.14,1.16,1.99,0,.91-.68,1.67-1.6,1.84-1.79.33-3.22-.23-3.22-1.82,0-.16.02-.32.05-.47.13-.62.5-1.14,1.02-1.48.07-.04.12-.11.15-.18.2-.63.32-1.6.25-3.2-.03-.63-.33-1.22-.83-1.61-1.23-.95-3.3-1.73-5.42-2.49-.06-.02-.1-.07-.1-.13v-.33s.04-.09.09-.09h6.74s.83-.01.83-.01h6.74s.09.03.09.07v.33c0,.06-.04.11-.1.14Z"/><path class="cls-4" d="M65.17,31.04h6.39s1.84-.02,1.84-.02h6.39c3.79,12.3-3.07,18.56-7.28,18.4-4.21.18-11.09-6.06-7.35-18.38Z"/><path class="cls-9" d="M65.34,61.02c2.12-.78,4.19-1.57,5.41-2.51.5-.39.8-.98.83-1.61.06-1.57-.06-2.54-.25-3.17-.02-.07-.07-.13-.14-.17-.69-.41-1.15-1.14-1.16-1.99,0-.91.68-1.67,1.6-1.84,1.79-.33,3.22.23,3.22,1.82,0,.16-.02.32-.05.47-.13.62-.5,1.14-1.02,1.48-.07.04-.12.11-.15.18-.2.63-.32,1.6-.25,3.2.03.63.33,1.22.83,1.61,1.23.95,3.3,1.73,5.42,2.49.06.02.1.07.1.13v.33s-.04.09-.09.09h-6.74s-.83.01-.83.01h-6.74s-.09-.03-.09-.07v-.33c0-.06.04-.11.1-.14Z"/><path class="cls-2" d="M22.42,31.04h6.39s1.84-.02,1.84-.02h6.39c3.79,12.3-3.07,18.56-7.28,18.4-4.21.18-11.09-6.06-7.35-18.38Z"/><path class="cls-9" d="M22.59,61.02c2.12-.78,4.19-1.57,5.41-2.51.5-.39.8-.98.83-1.61.06-1.57-.06-2.54-.25-3.17-.02-.07-.07-.13-.14-.17-.69-.41-1.15-1.14-1.16-1.99,0-.91.68-1.67,1.6-1.84,1.79-.33,3.22.23,3.22,1.82,0,.16-.02.32-.05.47-.13.62-.5,1.14-1.02,1.48-.07.04-.12.11-.15.18-.2.63-.32,1.6-.25,3.2.03.63.33,1.22.83,1.61,1.23.95,3.3,1.73,5.42,2.49.06.02.1.07.1.13v.33s-.04.09-.09.09h-6.74s-.83.01-.83.01h-6.74s-.09-.03-.09-.07v-.33c0-.06.04-.11.1-.14Z"/></g></svg>