<?xml version="1.0" encoding="UTF-8"?><svg xmlns="http://www.w3.org/2000/svg" xmlns:xlink="http://www.w3.org/1999/xlink" viewBox="0 0 102.24 150.24"><defs><style>.cls-1{fill:none;stroke:#1e1e1c;stroke-miterlimit:10;stroke-width:.25px;}.cls-2{fill:url(#linear-gradient-3);}.cls-3{fill:url(#linear-gradient-2);}.cls-4{fill:url(#linear-gradient);}.cls-5{fill:#fbbc15;}</style><linearGradient id="linear-gradient" x1="-867.23" y1="-2855.37" x2="-867.23" y2="-2833.66" gradientTransform="translate(2885.01 -786.67) rotate(-89.89)" gradientUnits="userSpaceOnUse"><stop offset="0" stop-color="#ce1e28"/><stop offset=".26" stop-color="#d73634"/><stop offset=".75" stop-color="#e75d48"/><stop offset="1" stop-color="#ed6d50"/></linearGradient><linearGradient id="linear-gradient-2" x1="2358.05" y1="-868.14" x2="2358.05" y2="-846.43" gradientTransform="translate(-789.38 -2319.14) rotate(90.11)" xlink:href="#linear-gradient"/><linearGradient id="linear-gradient-3" x1="2427.2" y1="-868.27" x2="2427.2" y2="-846.56" gradientTransform="translate(-789.38 -2319.14) rotate(90.11)" xlink:href="#linear-gradient"/></defs><g id="NOOOOO"><g id="margem"><polyline class="cls-1" points="65.21 141.14 91.84 141.14 91.84 9.1 65.21 9.1"/><polyline class="cls-1" points="41.37 9.1 10.4 9.1 10.4 141.14 40.31 140.95"/><polyline class="cls-1" points="65.21 141.14 91.84 141.14 91.84 9.1 65.21 9.1"/><polyline class="cls-1" points="41.37 9.1 10.4 9.1 10.4 141.14 40.31 140.95"/></g></g><g id="COPAS"><path class="cls-4" d="M26.44,63.27l-.02,10.34v2.98s-.02,10.34-.02,10.34c19.91,6.13,30.04-4.96,29.77-11.77.29-6.8-9.79-17.93-29.73-11.89Z"/><path class="cls-5" d="M74.94,63.55c-1.26,3.43-2.53,6.77-4.07,8.75-.63.81-1.59,1.3-2.6,1.34-2.54.1-4.1-.09-5.12-.41-.12-.04-.21-.12-.27-.23-.66-1.11-1.85-1.86-3.21-1.87-1.48-.01-2.71,1.1-2.98,2.59-.53,2.89.38,5.2,2.94,5.21.26,0,.52-.03.77-.08,1-.21,1.85-.82,2.4-1.65.07-.11.17-.2.3-.24,1.02-.32,2.59-.52,5.18-.41,1.01.04,1.97.53,2.6,1.34,1.53,1.99,2.79,5.34,4.03,8.77.03.09.12.16.22.16h.54c.08,0,.14-.06.14-.14l.02-10.9v-1.34s.02-10.9.02-10.9c0-.08-.06-.14-.14-.14h-.54c-.1,0-.18.06-.22.15Z"/><path class="cls-3" d="M75.8,52.4l.02-10.34v-2.98s.02-10.34.02-10.34c-19.91-6.13-30.04,4.96-29.77,11.77-.29,6.8,9.79,17.93,29.73,11.89Z"/><path class="cls-5" d="M27.3,52.12c1.26-3.43,2.53-6.77,4.07-8.75.63-.81,1.59-1.3,2.6-1.34,2.54-.1,4.1.09,5.12.41.12.04.21.12.27.23.66,1.11,1.85,1.86,3.21,1.87,1.48.01,2.71-1.1,2.98-2.59.53-2.89-.38-5.2-2.94-5.21-.26,0-.52.03-.77.08-1,.21-1.85.82-2.4,1.65-.07.11-.17.2-.3.24-1.02.32-2.59.52-5.18.41-1.01-.04-1.97-.53-2.6-1.34-1.53-1.99-2.79-5.34-4.03-8.77-.03-.09-.12-.16-.22-.16h-.54c-.08,0-.14.06-.14.14l-.02,10.9v1.34s-.02,10.9-.02,10.9c0,.08.06.14.14.14h.54c.1,0,.18-.06.22-.15Z"/><path class="cls-2" d="M75.8,121.54l.02-10.34v-2.98s.02-10.34.02-10.34c-19.91-6.13-30.04,4.96-29.77,11.77-.29,6.8,9.79,17.93,29.73,11.89Z"/><path class="cls-5" d="M27.3,121.26c1.26-3.43,2.53-6.77,4.07-8.75.63-.81,1.59-1.3,2.6-1.34,2.54-.1,4.1.09,5.12.41.12.04.21.12.27.23.66,1.11,1.85,1.86,3.21,1.87,1.48.01,2.71-1.1,2.98-2.59.53-2.89-.38-5.2-2.94-5.21-.26,0-.52.03-.77.08-1,.21-1.85.82-2.4,1.65-.07.11-.17.2-.3.24-1.02.32-2.59.52-5.18.41-1.01-.04-1.97-.53-2.6-1.34-1.53-1.99-2.79-5.34-4.03-8.77-.03-.09-.12-.16-.22-.16h-.54c-.08,0-.14.06-.14.14l-.02,10.9v1.34s-.02,10.9-.02,10.9c0,.08.06.14.14.14h.54c.1,0,.18-.06.22-.15Z"/></g></svg>