<?xml version="1.0" encoding="UTF-8"?><svg xmlns="http://www.w3.org/2000/svg" xmlns:xlink="http://www.w3.org/1999/xlink" viewBox="0 0 102.24 150.24"><defs><style>.cls-1{fill:none;stroke:#1e1e1c;stroke-miterlimit:10;stroke-width:.25px;}.cls-2{fill:url(#linear-gradient-4);}.cls-3{fill:url(#linear-gradient-3);}.cls-4{fill:url(#linear-gradient-2);}.cls-5{fill:url(#linear-gradient);}.cls-6{fill:#fbbc15;}</style><linearGradient id="linear-gradient" x1="-1039.46" y1="-2774.39" x2="-1039.46" y2="-2754.44" gradientTransform="translate(-967.18 -2654.35) rotate(-179.89)" gradientUnits="userSpaceOnUse"><stop offset="0" stop-color="#ce1e28"/><stop offset=".26" stop-color="#d73634"/><stop offset=".75" stop-color="#e75d48"/><stop offset="1" stop-color="#ed6d50"/></linearGradient><linearGradient id="linear-gradient-2" x1="2271.93" y1="-945.37" x2="2271.93" y2="-925.42" gradientTransform="translate(-2238.48 1020.54) rotate(.11)" xlink:href="#linear-gradient"/><linearGradient id="linear-gradient-3" x1="-1039.36" y1="-2723.1" x2="-1039.36" y2="-2703.15" xlink:href="#linear-gradient"/><linearGradient id="linear-gradient-4" x1="2271.83" y1="-996.66" x2="2271.83" y2="-976.71" gradientTransform="translate(-2238.48 1020.54) rotate(.11)" xlink:href="#linear-gradient"/></defs><g id="NOOOOO"><g id="margem"><polyline class="cls-1" points="65.21 141.14 91.84 141.14 91.84 9.1 65.21 9.1"/><polyline class="cls-1" points="41.37 9.1 10.4 9.1 10.4 141.14 40.31 140.95"/><polyline class="cls-1" points="65.21 141.14 91.84 141.14 91.84 9.1 65.21 9.1"/><polyline class="cls-1" points="41.37 9.1 10.4 9.1 10.4 141.14 40.31 140.95"/></g></g><g id="COPAS"><path class="cls-5" d="M56.11,123.43l9.5.02h2.74s9.5.02,9.5.02c5.63-18.29-4.56-27.6-10.81-27.35-6.25-.27-16.48,9-10.92,27.31Z"/><path class="cls-6" d="M56.37,78.88c3.15,1.16,6.22,2.33,8.04,3.74.75.58,1.19,1.46,1.23,2.39.09,2.34-.09,3.77-.38,4.71-.03.11-.11.19-.21.25-1.02.61-1.71,1.7-1.72,2.95-.01,1.36,1.01,2.49,2.38,2.74,2.66.48,4.78-.35,4.78-2.7,0-.24-.02-.48-.07-.7-.19-.92-.75-1.7-1.52-2.2-.1-.07-.18-.16-.22-.27-.3-.94-.48-2.38-.37-4.76.04-.93.49-1.81,1.24-2.39,1.83-1.4,4.9-2.56,8.06-3.71.09-.03.14-.11.14-.2v-.5c0-.07-.06-.13-.13-.13l-10.01-.02h-1.24s-10.01-.02-10.01-.02c-.07,0-.13.06-.13.13v.5c0,.09.06.17.14.2Z"/><path class="cls-4" d="M46.13,78.09l-9.5-.02h-2.74s-9.5-.02-9.5-.02c-5.63,18.29,4.56,27.6,10.81,27.35,6.25.27,16.48-9,10.92-27.31Z"/><path class="cls-6" d="M45.87,122.65c-3.15-1.16-6.22-2.33-8.04-3.74-.75-.58-1.19-1.46-1.23-2.39-.09-2.34.09-3.77.38-4.71.03-.11.11-.19.21-.25,1.02-.61,1.71-1.7,1.72-2.95.01-1.36-1.01-2.49-2.38-2.74-2.66-.48-4.78.35-4.78,2.7,0,.24.02.48.07.7.19.92.75,1.7,1.52,2.2.1.07.18.16.22.27.3.94.48,2.38.37,4.76-.04.93-.49,1.81-1.24,2.39-1.83,1.4-4.9,2.56-8.06,3.71-.09.03-.14.11-.14.2v.5c0,.07.06.13.13.13l10.01.02h1.24s10.01.02,10.01.02c.07,0,.13-.06.13-.13v-.5c0-.09-.06-.17-.14-.2Z"/><path class="cls-3" d="M56.11,72.15l9.5.02h2.74s9.5.02,9.5.02c5.63-18.29-4.56-27.6-10.81-27.35-6.25-.27-16.48,9-10.92,27.31Z"/><path class="cls-6" d="M56.37,27.59c3.15,1.16,6.22,2.33,8.04,3.74.75.58,1.19,1.46,1.23,2.39.09,2.34-.09,3.77-.38,4.71-.03.11-.11.19-.21.25-1.02.61-1.71,1.7-1.72,2.95-.01,1.36,1.01,2.49,2.38,2.74,2.66.48,4.78-.35,4.78-2.7,0-.24-.02-.48-.07-.7-.19-.92-.75-1.7-1.52-2.2-.1-.07-.18-.16-.22-.27-.3-.94-.48-2.38-.37-4.76.04-.93.49-1.81,1.24-2.39,1.83-1.4,4.9-2.56,8.06-3.71.09-.03.14-.11.14-.2v-.5c0-.07-.06-.13-.13-.13l-10.01-.02h-1.24s-10.01-.02-10.01-.02c-.07,0-.13.06-.13.13v.5c0,.09.06.17.14.2Z"/><path class="cls-2" d="M46.13,26.81l-9.5-.02h-2.74s-9.5-.02-9.5-.02c-5.63,18.29,4.56,27.6,10.81,27.35,6.25.27,16.48-9,10.92-27.31Z"/><path class="cls-6" d="M45.87,71.36c-3.15-1.16-6.22-2.33-8.04-3.74-.75-.58-1.19-1.46-1.23-2.39-.09-2.34.09-3.77.38-4.71.03-.11.11-.19.21-.25,1.02-.61,1.71-1.7,1.72-2.95.01-1.36-1.01-2.49-2.38-2.74-2.66-.48-4.78.35-4.78,2.7,0,.24.02.48.07.7.19.92.75,1.7,1.52,2.2.1.07.18.16.22.27.3.94.48,2.38.37,4.76-.04.93-.49,1.81-1.24,2.39-1.83,1.4-4.9,2.56-8.06,3.71-.09.03-.14.11-.14.2v.5c0,.07.06.13.13.13l10.01.02h1.24s10.01.02,10.01.02c.07,0,.13-.06.13-.13v-.5c0-.09-.06-.17-.14-.2Z"/></g></svg>