<?xml version="1.0" encoding="UTF-8"?><svg xmlns="http://www.w3.org/2000/svg" xmlns:xlink="http://www.w3.org/1999/xlink" viewBox="0 0 102.24 150.24"><defs><style>.cls-1{fill:url(#linear-gradient-7);}.cls-1,.cls-2,.cls-3,.cls-4,.cls-5,.cls-6,.cls-7,.cls-8{fill-rule:evenodd;}.cls-2{fill:url(#linear-gradient-8);}.cls-3{fill:url(#linear-gradient-2);}.cls-4{fill:url(#linear-gradient-3);}.cls-5{fill:url(#linear-gradient-6);}.cls-9{fill:none;stroke:#1e1e1c;stroke-miterlimit:10;stroke-width:.25px;}.cls-10{fill:url(#linear-gradient-5);}.cls-11{fill:url(#linear-gradient-9);}.cls-12{fill:url(#linear-gradient-4);}.cls-6{fill:#7cafce;}.cls-13{fill:#e6e6e6;}.cls-7{fill:#ee6f4e;}.cls-14{fill:url(#linear-gradient);}.cls-15{fill:#edd3a6;}.cls-16{fill:#a9c8d2;}.cls-17{fill:#fff;}.cls-18{fill:url(#linear-gradient-10);}.cls-19{fill:url(#linear-gradient-12);}.cls-20{fill:url(#linear-gradient-13);}.cls-8{fill:url(#linear-gradient-11);}.cls-21{fill:#f6c008;}</style><linearGradient id="linear-gradient" x1="5014.77" y1="128.76" x2="5011.63" y2="134.26" gradientTransform="translate(5061.49) rotate(-180) scale(1 -1)" gradientUnits="userSpaceOnUse"><stop offset="0" stop-color="#787992"/><stop offset=".24" stop-color="#78809a"/><stop offset=".62" stop-color="#7a94b0"/><stop offset="1" stop-color="#7cafce"/></linearGradient><linearGradient id="linear-gradient-2" x1="39.75" y1="53.53" x2="24.18" y2="33.17" gradientUnits="userSpaceOnUse"><stop offset="0" stop-color="#435973"/><stop offset=".43" stop-color="#5f84a0"/><stop offset=".8" stop-color="#74a3c1"/><stop offset="1" stop-color="#7cafce"/></linearGradient><linearGradient id="linear-gradient-3" x1="52.3" y1="108.51" x2="21.92" y2="68.76" xlink:href="#linear-gradient-2"/><linearGradient id="linear-gradient-4" x1="4993.57" y1="127.2" x2="4986.97" y2="138.79" xlink:href="#linear-gradient"/><linearGradient id="linear-gradient-5" x1="59.13" y1="57.82" x2="59.13" y2="89.73" gradientUnits="userSpaceOnUse"><stop offset="0" stop-color="#d55a45"/><stop offset=".33" stop-color="#d03e38"/><stop offset=".76" stop-color="#cc202a"/><stop offset="1" stop-color="#cb1525"/></linearGradient><linearGradient id="linear-gradient-6" x1="69.41" y1="34.11" x2="69.35" y2="34.17" gradientUnits="userSpaceOnUse"><stop offset="0" stop-color="#435973"/><stop offset=".18" stop-color="#48617b"/><stop offset=".47" stop-color="#577793"/><stop offset=".83" stop-color="#6f9bb9"/><stop offset="1" stop-color="#7cafce"/></linearGradient><linearGradient id="linear-gradient-7" x1="100.64" y1="63.86" x2="80.56" y2="85.45" xlink:href="#linear-gradient-6"/><linearGradient id="linear-gradient-8" x1="5042.48" y1="23.37" x2="5042.13" y2="30.24" gradientTransform="translate(5099.98) rotate(-180) scale(1 -1)" gradientUnits="userSpaceOnUse"><stop offset="0" stop-color="#d4884b"/><stop offset="1" stop-color="#f7d498"/></linearGradient><linearGradient id="linear-gradient-9" x1="976.66" y1="29.64" x2="976.58" y2="30.08" gradientTransform="translate(-918.98)" gradientUnits="userSpaceOnUse"><stop offset="0" stop-color="#f6caa9"/><stop offset="1" stop-color="#e69563"/></linearGradient><linearGradient id="linear-gradient-10" x1="5040.5" y1="12.46" x2="5039.89" y2="24.21" xlink:href="#linear-gradient-8"/><linearGradient id="linear-gradient-11" x1="5044.38" y1="23.41" x2="5044.06" y2="29.69" gradientTransform="translate(5099.98) rotate(-180) scale(1 -1)" gradientUnits="userSpaceOnUse"><stop offset="0" stop-color="#d4884b"/><stop offset=".25" stop-color="#d58b4e"/><stop offset=".47" stop-color="#da9659"/><stop offset=".68" stop-color="#e2a86b"/><stop offset=".88" stop-color="#eec185"/><stop offset="1" stop-color="#f7d498"/></linearGradient><linearGradient id="linear-gradient-12" x1="104.24" y1="-57.57" x2="104.24" y2="-13.34" gradientTransform="translate(-55.33 93.58) rotate(12.2)" gradientUnits="userSpaceOnUse"><stop offset="0" stop-color="#f6c008"/><stop offset=".16" stop-color="#f4bd10"/><stop offset=".4" stop-color="#efb726"/><stop offset=".7" stop-color="#e8ad4a"/><stop offset="1" stop-color="#e0a275"/></linearGradient><linearGradient id="linear-gradient-13" x1="40.21" y1="74.26" x2="72.09" y2="74.26" gradientTransform="matrix(1,0,0,1,0,0)" xlink:href="#linear-gradient-12"/></defs><g id="NOOOOO"><g id="margem"><polyline class="cls-9" points="65.21 141.14 91.84 141.14 91.84 9.1 65.21 9.1"/><polyline class="cls-9" points="41.37 9.1 10.4 9.1 10.4 141.14 40.31 140.95"/><polyline class="cls-9" points="65.21 141.14 91.84 141.14 91.84 9.1 65.21 9.1"/><polyline class="cls-9" points="41.37 9.1 10.4 9.1 10.4 141.14 40.31 140.95"/></g></g><g id="COPAS"><path class="cls-7" d="M18.37,28.35s-.31-.57-.33-.93c-.02-.36-.09-.8-.35-1.05-.27-.25-.75-.11-.8.09-.05.19-.06.41.25.86.31.45,1.23,1.03,1.23,1.03Z"/><path class="cls-14" d="M40.17,133.09c.18-.55,5.73-3.42,5.73-3.42,0,0,2.71-3.12,3.41-4.25,1.27.2,2.58.21,3.86.06,0,.05,0,.1,0,.15,0,.15.02.28.02.37.46-.17.85-.32.85-.32v5.83h-2.68l.09-.56s-1.94,1.66-4.9,2.13c-2.96.46-6.57.55-6.38,0Z"/><path class="cls-7" d="M20.75,33.59s1.04.56,1.71.87c.68.31,1.61,1.35,1.92,1.94.32.6,1.52,2.46,1.52,2.46,0,0,.6-.29,1.44-.93.83-.64,1.22-1.48,1.22-1.48,0,0-3.36-4.06-3.53-4.57-.17-.51-1.62-1.68-1.62-1.68l-5.41,1.5,2.75,1.89Z"/><path class="cls-15" d="M21.78,35.24s0,0,0,.01c0,0,0,.02-.02.04-.02.03-.06.08-.09.14-.03.07-.05.15-.07.25,0,.05-.01.1-.02.16,0,.06,0,.12,0,.18,0,.12,0,.26.01.4.01.14.03.29.07.44.03.15.08.31.16.46.04.07.09.14.15.2.06.06.14.11.23.14.15.05.31.1.46.16.15.06.3.11.44.17.29.11.55.22.78.31.23.09.41.17.54.24.06.03.11.06.14.08.02.01.03.02.03.03,0,0,0,.01,0,.01,0,0,0,0,0-.01,0,0-.01-.02-.03-.03-.03-.02-.08-.06-.14-.09-.12-.07-.3-.17-.53-.28-.22-.1-.49-.22-.77-.34-.14-.06-.29-.12-.44-.17-.15-.06-.3-.11-.46-.17-.14-.04-.25-.16-.33-.3-.08-.13-.13-.28-.16-.43-.07-.29-.1-.58-.11-.82,0-.06,0-.12,0-.17,0-.05,0-.11,0-.16.01-.1.03-.18.06-.25.03-.06.06-.11.08-.15,0-.02.01-.03.02-.04,0,0,0-.01,0-.01Z"/><path class="cls-17" d="M21.8,35.25c.03-.08.03-.12.02-.15.05-.01.16-.05.19-.15.05-.12,0-.24,0-.25l-.05.02s.04.11,0,.21c-.04.1-.19.12-.19.12h-.05s.03.04.03.04c0,0,.03.04,0,.14l.04.02Z"/><path class="cls-15" d="M22.34,33.4s-.03.08-.04.13c0,.04-.01.09-.02.13h0s0,.02,0,.02c0,.02.01.04.02.06,0,.02.01.05.02.07,0,.02.01.05.01.07v.07s.02.07.02.07v.02s0,.01,0,.01h0s0,0,0,0h0s0,.04,0,.04c0,.01,0,.02,0,.03,0,0,0,.02,0,.03,0,.02-.01.04-.02.06-.02.04-.04.09-.07.13-.01.02-.03.04-.04.06-.01.02-.03.04-.04.06-.06.08-.12.16-.19.23.04-.03.09-.05.13-.09.04-.03.08-.07.12-.1.04-.04.07-.08.1-.12.02-.02.03-.04.04-.07.02-.02.03-.05.04-.07.01-.02.02-.05.03-.08,0-.01,0-.03,0-.04,0-.02,0-.03,0-.04v-.04h0s0-.01,0-.01h0s0-.01,0-.01v-.02s-.01-.08-.01-.08v-.08s-.03-.05-.03-.08c0-.02-.01-.05-.03-.07-.01-.02-.02-.05-.04-.07v.02s0-.08,0-.13c0-.02,0-.04,0-.06,0-.02,0-.04,0-.07Z"/><path class="cls-17" d="M22.36,33.41c.02-.12-.22-.2-.5-.28-.05-.02-.1-.03-.14-.05l-.02.05s.1.03.14.05c.2.06.48.15.47.23h.05Z"/><path class="cls-15" d="M21.52,32.75s0,0-.01.02c0,.01-.02.03-.02.05-.01.02-.02.04-.02.07,0,.03,0,.07.01.11,0,.02.02.03.03.05.01.01.03.02.04.03.01,0,.03.01.04.02s.03,0,.04,0c.02,0,.04,0,.06,0,.01,0,.02,0,.02,0,0,0,0,0-.01-.02,0-.01-.02-.02-.04-.04,0,0-.02-.01-.02-.02,0,0-.02-.01-.03-.02,0,0,0,0-.01-.01,0,0,0,0-.01-.01,0,0,0,0,0-.01,0,0,0,0,0-.01,0,0,0-.02,0-.03,0,0,0-.02,0-.03,0-.02,0-.05,0-.07,0-.02,0-.04-.01-.05,0-.01,0-.02,0-.02Z"/><path class="cls-15" d="M22.28,32.04s.06.1.05.14c0,.01,0,.02,0,.03,0,.01,0,.02-.02.03,0,0,0,.01,0,.01v.02s-.03.02-.04.03l-.03.02s-.02.01-.03.02c-.02.01-.04.03-.07.04-.02.01-.05.03-.07.04-.02.01-.05.02-.07.03l-.06.03.04.06s.02.02.02.03c0,.01,0,.03,0,.03,0,.01,0,.02,0,.03,0,0-.01.02-.02.02,0,0-.01,0-.01.01,0,0-.02,0-.02.01-.01,0-.03.01-.04.02-.03.01-.07.03-.1.04-.07.03-.14.05-.21.09-.02,0-.03.02-.05.03-.02.01-.03.02-.05.04-.02.01-.03.03-.04.05,0,0,0,.02,0,.03v.03-.03s.02-.02.02-.02c.01-.01.03-.02.04-.03.01,0,.03-.01.05-.02.02,0,.03-.01.05-.02.03-.01.07-.02.1-.03l.11-.03s.07-.02.11-.03c.02,0,.04-.01.06-.02h.02s.02-.03.03-.03c.02-.01.04-.03.05-.06.01-.02.02-.05.02-.08,0-.03,0-.05-.02-.07-.01-.02-.02-.04-.04-.06l-.02.08s.05-.03.08-.04c.02-.02.05-.03.07-.05.02-.02.05-.03.07-.06.01,0,.02-.02.03-.03l.03-.03s.02-.02.02-.04v-.02s.02-.02.02-.02c0-.01,0-.03.01-.05,0-.02,0-.03,0-.05,0-.06-.05-.11-.1-.14Z"/><path class="cls-15" d="M24.3,38.6s-.1,0-.28-.01c-.17,0-.43-.01-.73-.02-.15,0-.31,0-.48,0-.17,0-.35,0-.54,0-.19,0-.38,0-.58,0-.2,0-.4,0-.6,0-.2,0-.4,0-.6,0-.2,0-.39,0-.58,0-.19,0-.37,0-.54,0-.17,0-.34,0-.49,0-.3,0-.55.01-.73.02-.17,0-.28.01-.28.01,0,0,.1,0,.28.01.18,0,.43.01.73.02.15,0,.31,0,.49,0,.17,0,.35,0,.54,0,.19,0,.38,0,.58,0,.2,0,.4,0,.6,0,.2,0,.4,0,.6,0,.2,0,.39,0,.58,0,.19,0,.37,0,.54,0,.17,0,.33,0,.48-.01.3,0,.55-.01.73-.02.18,0,.28-.01.28-.01Z"/><path class="cls-3" d="M41.02,52.57c-2.82-.58-5.39-1.45-6.78-1.52-3.08-.17-10.56-5.92-12.18-8.99-1.62-3.08-1.85-5.56.02-7.24,1.87-1.68,5.14-2.02,5.14-2.02,0,0,4.9,8.84,6.04,8.86.7.02,2.58-1.08,4.62-2.38-.65,1.77-.84,5.65.95,9.75.49,1.12,1.26,2.34,2.19,3.54Z"/><path class="cls-4" d="M47.63,58.71c-2.24,6.54-4.52,14.12-6.38,21.92-4.08,15.47-8.07,33.8-10.03,43.99-.1-7.94,6.1-49.11,10.59-71.07,1.81,2.14,4,4.1,5.82,5.16Z"/><path class="cls-21" d="M19.84,38.5c.66-.21.71-1.55.68-2.02-.03-.47-.16-.53-.21-.66-.05-.13,0-.18,0-.18,0,0-.18-.03-.24-.16-.05-.13,0-.26,0-.26,0,0-.5-.39-.47-.73.03-.34.1-.45.1-.45,0,0,0-.16-.03-.29-.03-.13.39-.24.71-.34.32-.1.21-.24.21-.39s-.42-.21-.55-.29c-.13-.08-.03-.21-.03-.21,0,0-.24-.11-.31-.24-.08-.13.05-.24.05-.24l-3.99-10.53h10.5l-3.99,10.53s.13.1.05.24c-.08.13-.32.24-.32.24,0,0,.1.13-.03.21-.13.08-.55.13-.55.29s-.1.29.21.39c.31.1.73.21.71.34-.03.13-.03.29-.03.29,0,0,.08.1.1.45.03.34-.47.73-.47.73,0,0,.05.13,0,.26-.05.13-.24.16-.24.16,0,0,.05.05,0,.18-.05.13-.18.18-.21.66-.03.47.03,1.81.68,2.02.66.21,2.62,1,2.69,1.18.08.18.03.18-.05.21-.07.02-3.01,0-3.83,0-.82,0-3.76.02-3.83,0-.08-.03-.13-.03-.05-.21.08-.18,2.04-.97,2.7-1.18Z"/><path class="cls-15" d="M26.27,21.51s-.07.16-.18.45c-.11.29-.28.69-.47,1.19-.19.49-.42,1.06-.66,1.68-.23.62-.49,1.27-.74,1.93-.25.66-.49,1.32-.72,1.94-.23.62-.44,1.2-.62,1.69-.18.5-.33.91-.43,1.2-.1.29-.16.46-.16.46,0,0,.07-.16.18-.45.11-.29.28-.69.47-1.19.19-.49.42-1.06.65-1.68.24-.62.49-1.27.74-1.93.25-.66.49-1.32.72-1.94.23-.62.44-1.2.62-1.69.18-.5.33-.91.43-1.2.1-.29.16-.46.16-.46Z"/><path class="cls-15" d="M23,30.15l-.06.15s0,0,0-.01c0-.06.02-.11.06-.14Z"/><path class="cls-15" d="M22.87,30.49s.01-.05.03-.07l-.03.07Z"/><path class="cls-7" d="M23.07,29.82c.1,2,.31,2.96.68,3.59.37-.25.82-.41,1.3-.46.18-.84.15-1.5.15-1.5,0,0,.03-.71-.47-1.68-.5-.97-.7-1.55-.7-1.55,0,0-.22-.97-.31-1.11-.1-.15-.45-.58-.45-.58,0,0-.33-1.33-.61-1.18-.4.21-.49.72-.17,1.56.16.42.32.76.35.94.12.71.22,1.27.25,1.96Z"/><path class="cls-7" d="M17.62,30.72s-.42.37-.22.77c.2.4.74.52,1.37.48.63-.04.91,0,1.15-.17.11-.07.18-.35.04-.64-.26-.51-2.18-.61-2.18-.61l-.16.16Z"/><path class="cls-7" d="M17.56,29.21s-.34.14-.38.48c-.05.34.02.51.44.75.42.24,1.79.61,2.33.36.15-.07.28-.37.19-.65-.09-.28-1.44-.74-1.44-.74l-1.14-.2Z"/><path class="cls-7" d="M17.67,27.76s-.38.36-.36.75c.03.39.18.66.68.88.51.22.75.5.99.36.24-.14.49-.26.34-.68-.15-.42-1.24-.94-1.24-.94l-.1-.16-.31-.21Z"/><path class="cls-12" d="M65.78,124.77c.02-.11.03-.22.04-.33.94-.11,1.88-.27,2.81-.43,0,.03-.02.07-.02.09-.04.15-.06.23-.06.23l1.29-.28s1.39,3.98,2.04,4.9c.65.93,2.96,2.04,3.14,2.5.19.46,2.31,4.44,2.13,4.9-.19.46-.83.46-1.48.37-.65-.09-4.9-1.76-5.74-2.96-.83-1.2-2.13-2.59-2.13-2.59h-.93l-1.85-.83.09-2.87s.46-1.24.66-2.71Z"/><path class="cls-10" d="M70.66,126.66c-2.4.74-6.62,1.48-14.01,1.68-3.85.11-6.81-.46-9.04-1.26,1.53-6.11.91-33.14,2.02-50.46.11-1.78.24-3.46.4-4.99.16-1.62.35-3.09.57-4.38.57-3.65,1.21-7.17,1.85-10.43h0c2.46-4.82,5.45-14.44,5.45-14.44,0,0,2.02,11.05,3.22,14.93.65,2.13,1.88,3.47,3.49,3.61,1.03,18.71,2.6,40.51,3.36,48,.87,8.62,1.29,14.15,2.69,17.74Z"/><path class="cls-5" d="M70.3,34.95c-.55-.45-1.08-.89-1.57-1.31-.1-.09-.21-.17-.31-.26,0,0,0,0,0,0,.47.35.96.74,1.45,1.18.14.13.29.26.43.39Z"/><path class="cls-1" d="M84.27,120.43c-3.94-16-12.01-47.28-14.67-61.63-.03-.15-.06-.3-.08-.45,3.14-3.08,8.02-6.79,9.69-10.41,2.66,4.66,5.15,9.59,4.94,11.36-.58,4.74-1.02,5.7-2.69,10.74.82,11.18,2.5,38.61,2.81,50.39Z"/><path class="cls-13" d="M86.46,130.28c-.46,1.23-5.03,3.1-8.31,2.34-4.09-.96-6.21-2.63-7.5-5.96-1.4-3.59-1.82-9.12-2.69-17.74-.76-7.49-2.33-29.29-3.36-48,.27.02.55.01.83-.03.12-.02.25-.05.37-.08.09-.02.17-.05.26-.08.07-.02.15-.05.22-.08.07-.03.14-.06.22-.09.07-.03.15-.06.23-.1.07-.03.14-.07.2-.1,0,0,.02,0,.03-.01.06-.03.12-.06.18-.1.02,0,.03-.02.05-.03.07-.04.15-.08.22-.13.06-.04.13-.08.19-.12.06-.04.11-.08.17-.12.06-.04.12-.09.18-.13.11-.08.22-.17.33-.26.05-.04.1-.08.15-.12.04-.03.07-.06.11-.1.06-.05.13-.11.19-.17.07-.06.14-.13.21-.2.06-.05.11-.1.17-.16.05-.05.09-.09.14-.14.08-.08.15-.15.23-.23.03.15.05.3.08.45,2.65,14.35,10.73,45.63,14.67,61.63,1.42,5.78,2.3,9.57,2.2,9.85Z"/><path class="cls-16" d="M79.21,47.94c-1.67,3.62-6.55,7.33-9.69,10.41-.08.08-.16.15-.23.23-.05.05-.1.09-.14.14-1.35,1.31-2.6,2-3.7,2.17-.29.05-.57.06-.83.03-1.61-.14-2.84-1.48-3.49-3.61-1.19-3.88-3.22-14.93-3.22-14.93,0,0-2.99,9.62-5.45,14.44h0c-.73,1.43-1.42,2.44-1.97,2.65-.21.08-.45.1-.73.07-.33-.03-.7-.14-1.1-.31-.32-.13-.66-.31-1.02-.52-1.82-1.07-4.01-3.03-5.82-5.16-.27-.33-.54-.65-.79-.98-.92-1.2-1.69-2.42-2.19-3.54-1.79-4.1-1.61-7.98-.95-9.75.11-.3.23-.53.36-.7.9-1.19,6.78-3.48,8.96-4.78,9.32-5.54,16.98-3.83,21.22-.42.1.08.21.17.31.26.5.42,1.03.86,1.57,1.31,0,0,0,0,.01.01,4.09,3.34,9.29,7.25,9.47,10.32.05.87-.16,1.77-.58,2.66Z"/><path class="cls-13" d="M67.4,29.38c-.21.84.55,2.13.6,3.04.02.29-.05.82-.22,1.23.12.87.02,1.75-.42,2.62-.7,1.38-3.12,2.96-4.73,2.65.9-.44,1.47-1.49.99-2.51-.07.72-.68,1.25-1.26,1.39,1-.9.17-1.83-.56-2.53-.14-.14-.28-.27-.41-.4-.9,1.76-2.24,3.93-3.41,5.21-.31-1.27-2.47-1.87-3.21-2.59-.32-.31-.58-.63-.78-.94.07.17.19.34.38.51-.58-.15-1.19-.67-1.26-1.39-.48,1.01.09,2.07.99,2.51-1.61.31-4.02-1.27-4.73-2.65-1.07-2.09-.15-4.22,1.07-6.19,0-.3,0-.61.03-.95-.07.13-.26.35-.35.6-1.04-1.46.94-2.85,2.15-4.08.11-.25.25-.5.4-.74.25-.37.49-.72.7-1.06.35-.06.7-.11,1.04-.15-.28,1.8-.51,3.72-.11,5.91,1.2-.7,1.36-.74,1.79-.85.32-.12.77.24,1.08.42.27-.14.84-.54,1.1-.41.43.13,2.1.78,2.51,1.05.12-1.48.38-2.98.32-4.41-.02-.52-.03-1.07-.07-1.62,1.14.21,2.32.52,3.62.94v-.04c.42.73.68,1.48.85,2.26,1.16,1.15,2.71,2.17,2.47,3.83.01-.37-.26-.56-.61-.65Z"/><path class="cls-2" d="M54.27,28.62c.02.08.04.15.06.23,1.17-.69,1.34-.72,1.77-.83.29-.11.67.16.97.35,0,0,0,0,0,0,.04.02.07.05.11.06.27-.14.84-.54,1.1-.41.43.13,2.1.78,2.51,1.05.12-1.48.38-2.98.33-4.41-.02-.52-.03-1.07-.07-1.62-2.18-.39-4.21-.41-6.64-.08-.26,1.73-.49,3.58-.15,5.66Z"/><path class="cls-11" d="M58.95,29.87c-.98.09-1.61.1-2.62-.05.71-.09.6-.11,1.11-.11.62,0,.77.04,1.51.16Z"/><path class="cls-18" d="M51.84,14.89c-.02.22.14.4.35.42.04,0,.08,0,.11-.01,1.46,2.47,1.43,5.09.99,7.83.03,0,.06-.01.1-.02.35-.06.7-.11,1.03-.15,2.43-.32,4.46-.31,6.64.08,1.14.21,2.32.52,3.62.94v-.04c-.03-2.79.34-5.39,2.2-7.63.04.03.1.05.15.05.21.02.39-.15.41-.36.02-.22-.14-.4-.35-.42-.21-.01-.39.15-.4.36,0,.1.02.2.08.27-1.45,1.56-2.2,2.71-2.86,2.4-.56-.27-.72-1.8.05-3.66.32-.05.58-.31.6-.66.03-.4-.26-.74-.64-.77-.38-.03-.72.27-.75.66-.01.18.04.34.13.47-1.03,2.07-1.74,3.54-2.43,3.39-.66-.15-.98-1.92-.82-4.23.22-.11.39-.33.41-.6.03-.39-.26-.74-.64-.77-.38-.03-.72.27-.75.67-.02.26.1.5.29.64-.18,2.32-.76,4.03-1.44,4.08-.71.05-1.2-1.55-1.92-3.78.11-.12.19-.28.2-.46.03-.41-.27-.77-.66-.8-.4-.03-.74.28-.77.69-.03.37.21.69.55.78.51,1.99.12,3.5-.48,3.68-.69.2-1.25-1-2.41-2.71.09-.07.15-.17.16-.29.02-.22-.14-.4-.35-.42-.21-.01-.39.15-.4.36Z"/><path class="cls-8" d="M57.24,22.73c-.01.19-.04.37-.08.56-.14.7-.33,1.4-.5,2.09-.15.59-.55,1.77-.32,2.37.12.3.56.42.73.61-.3-.19-.69-.46-.98-.35-.43.11-.59.14-1.77.83-.02-.07-.04-.15-.07-.23-.34-2.08-.12-3.93.15-5.66,1-.13,1.93-.21,2.83-.22Z"/><path class="cls-19" d="M52,70.78c.15.03.3,0,.43-.07.28.02.67.04,1.03.05.18,0,.49.06.93.15.29.06.6.13.87.2.06.05.17.16.14.31-.04.17-.45.54-.72.76-.01,0-.02.02-.02.04-.04.18-.21,1.04-.46,2.36l2.41.52c.28-1.32.47-2.19.51-2.38,0-.01,0-.03,0-.04-.17-.3-.4-.81-.36-.98.03-.15.17-.21.25-.23.28.05.61.11.91.17.44.09.74.17.91.23.37.14.77.29.99.37.09.12.22.2.36.23.33.07.65-.15.72-.48.07-.33-.15-.65-.48-.72-.16-.03-.32,0-.46.09-.18,0-.38-.03-.59-.07-.11-.02-.22-.05-.33-.08-.39-.11-.82-.29-1.23-.47-.12-.05-.24-.1-.35-.15.06-.06.1-.14.11-.23.02-.1,0-.2-.05-.28.07-.07.12-.16.14-.26.02-.1,0-.2-.05-.28.07-.07.12-.16.14-.26.02-.1,0-.2-.05-.28.07-.07.12-.16.14-.26.02-.1,0-.2-.05-.28.07-.07.12-.16.13-.26.02-.1,0-.2-.05-.28.07-.07.12-.16.13-.26.01-.1,0-.2-.04-.28.07-.07.11-.16.13-.26.02-.1,0-.2-.04-.28.07-.07.11-.16.13-.26.02-.1,0-.2-.04-.28.07-.07.11-.16.13-.26.02-.1,0-.2-.04-.28.06-.07.11-.16.13-.26.02-.1,0-.2-.04-.28.06-.07.11-.16.13-.26.02-.1,0-.2-.04-.28.06-.07.11-.16.12-.26.02-.1,0-.2-.03-.28.06-.07.11-.16.12-.26.02-.1,0-.2-.03-.28.06-.07.1-.16.12-.26.02-.1,0-.2-.03-.28.06-.07.1-.16.12-.26.02-.1,0-.2-.03-.28.06-.07.1-.16.12-.26,0,0,0-.02,0-.03.2-.03.37-.15.5-.34.18-.28.21-.67.08-.97l-.14-.29c-.18-.37-.55-1.13-.59-1.23-.01-.05-.05-.09-.1-.1-.01,0-.02,0-.03,0-.01,0-.03,0-.04,0-.02,0-.04.02-.06.04-.08.07-.74.61-1.07.88l-.24.19c-.25.22-.39.58-.35.91.03.24.15.43.34.54,0,.01,0,.03-.01.04-.02.1-.02.2,0,.29-.06.06-.11.15-.14.24-.02.1-.02.2,0,.29-.06.06-.11.15-.14.24-.02.1-.02.2,0,.29-.07.06-.12.14-.14.24-.03.1-.02.2,0,.29-.07.06-.12.15-.14.24-.02.1-.02.2.01.29-.07.06-.12.15-.14.24-.02.1-.02.2.01.29-.07.06-.12.14-.14.24-.02.1-.02.2.01.29-.07.06-.12.14-.15.24-.02.1-.02.2.02.29-.07.06-.12.14-.15.24-.02.1-.02.2.02.29-.07.06-.13.14-.15.24-.02.1-.02.2.02.29-.07.06-.13.14-.15.24-.02.1-.02.2.02.29-.07.06-.13.14-.15.24-.02.1-.02.2.02.29-.07.06-.13.14-.15.24-.02.1-.02.2.02.29-.08.06-.13.14-.15.24-.03.1-.02.2.02.29-.08.06-.13.14-.16.24-.02.1-.01.2.03.29-.08.06-.13.14-.16.24-.02.09-.02.17.01.25-.12,0-.25,0-.38,0-.45,0-.91,0-1.31-.06-.12-.02-.23-.03-.34-.06-.2-.04-.38-.1-.54-.16-.09-.14-.23-.23-.39-.26-.33-.07-.65.14-.72.48-.07.33.15.65.48.72Z"/><path class="cls-6" d="M54.51,71.88s0,.03-.01.05l-7.84,36.23c-.17.81.34,1.6,1.14,1.77.81.17,1.6-.34,1.77-1.14l7.84-36.23s0-.03,0-.05l-2.91-.63Z"/><path class="cls-20" d="M65.51,71.37v5.08c-5.25.85-10.62.91-15.88.17.11-1.78.24-3.46.4-4.99,5.13.77,10.38.69,15.49-.26Z"/><path class="cls-13" d="M52.44,56.83c-.65,3.25-1.28,6.78-1.85,10.43-.22,1.28-.4,2.75-.57,4.38-.15,1.54-.29,3.21-.4,4.99-1.11,17.32-.49,44.35-2.02,50.46-.15.58-.31.97-.5,1.15-6.38,6.02-16.37,5.4-17.12,4.18-.14-.16.33-3.12,1.24-7.8,1.96-10.18,5.95-28.52,10.03-43.99,1.86-7.8,4.14-15.38,6.38-21.92.36.21.7.39,1.02.52.05.02.1.04.15.06.12.05.24.09.36.12.04.02.08.02.12.04.04,0,.08.02.12.03.12.03.23.05.35.06.28.03.52,0,.73-.07.55-.2,1.23-1.21,1.97-2.65Z"/></g></svg>