<?xml version="1.0" encoding="UTF-8"?><svg xmlns="http://www.w3.org/2000/svg" xmlns:xlink="http://www.w3.org/1999/xlink" viewBox="0 0 102.24 150.24"><defs><style>.cls-1{fill:none;stroke:#1e1e1c;stroke-miterlimit:10;stroke-width:.25px;}.cls-2{fill:url(#linear-gradient-2);}.cls-3{fill:url(#linear-gradient);}.cls-4{fill:#fbbc15;}</style><linearGradient id="linear-gradient" x1="-567.18" y1="-3158.76" x2="-567.18" y2="-3137.49" gradientTransform="translate(-493.5 -3062.02) rotate(-179.89)" gradientUnits="userSpaceOnUse"><stop offset="0" stop-color="#ce1e28"/><stop offset=".26" stop-color="#d73634"/><stop offset=".75" stop-color="#e75d48"/><stop offset="1" stop-color="#ed6d50"/></linearGradient><linearGradient id="linear-gradient-2" x1="2320.68" y1="-563.89" x2="2320.68" y2="-542.61" gradientTransform="translate(-2287.15 611.87) rotate(.11)" xlink:href="#linear-gradient"/></defs><g id="NOOOOO"><g id="margem"><polyline class="cls-1" points="65.21 141.14 91.84 141.14 91.84 9.1 65.21 9.1"/><polyline class="cls-1" points="41.37 9.1 10.4 9.1 10.4 141.14 40.31 140.95"/><polyline class="cls-1" points="65.21 141.14 91.84 141.14 91.84 9.1 65.21 9.1"/><polyline class="cls-1" points="41.37 9.1 10.4 9.1 10.4 141.14 40.31 140.95"/></g></g><g id="COPAS"><path class="cls-3" d="M56.04,99.33l10.13.02h2.92s10.13.02,10.13.02c6-19.51-4.86-29.43-11.53-29.17-6.67-.28-17.57,9.6-11.65,29.13Z"/><path class="cls-4" d="M56.32,51.81c3.36,1.23,6.63,2.48,8.57,3.98.8.62,1.27,1.56,1.31,2.55.1,2.49-.09,4.02-.4,5.02-.04.11-.12.21-.22.27-1.09.65-1.82,1.81-1.83,3.15-.01,1.45,1.08,2.65,2.54,2.92,2.83.52,5.1-.37,5.1-2.88,0-.26-.03-.51-.08-.75-.2-.98-.8-1.81-1.62-2.35-.11-.07-.2-.17-.23-.29-.32-1-.51-2.54-.4-5.08.04-.99.52-1.93,1.32-2.54,1.95-1.5,5.23-2.73,8.59-3.95.09-.03.15-.12.15-.21v-.53c0-.08-.06-.14-.14-.14l-10.68-.02h-1.32s-10.68-.02-10.68-.02c-.08,0-.14.06-.14.14v.53c0,.1.06.18.15.21Z"/><path class="cls-2" d="M46.2,50.91l-10.13-.02h-2.92s-10.13-.02-10.13-.02c-6,19.51,4.86,29.43,11.53,29.17,6.67.28,17.57-9.6,11.65-29.13Z"/><path class="cls-4" d="M45.92,98.43c-3.36-1.23-6.63-2.48-8.57-3.98-.8-.62-1.27-1.56-1.31-2.55-.1-2.49.09-4.02.4-5.02.04-.11.12-.21.22-.27,1.09-.65,1.82-1.81,1.83-3.15.01-1.45-1.08-2.65-2.54-2.92-2.83-.52-5.1.37-5.1,2.88,0,.26.03.51.08.75.2.98.8,1.81,1.62,2.35.11.07.2.17.23.29.32,1,.51,2.54.4,5.08-.04.99-.52,1.93-1.32,2.54-1.95,1.5-5.23,2.73-8.59,3.95-.09.03-.15.12-.15.21v.53c0,.08.06.14.14.14l10.68.02h1.32s10.68.02,10.68.02c.08,0,.14-.06.14-.14v-.53c0-.1-.06-.18-.15-.21Z"/></g></svg>