<?xml version="1.0" encoding="UTF-8"?><svg xmlns="http://www.w3.org/2000/svg" xmlns:xlink="http://www.w3.org/1999/xlink" viewBox="0 0 102.24 150.24"><defs><style>.cls-1{fill:url(#linear-gradient-5);}.cls-1,.cls-2,.cls-3,.cls-4,.cls-5,.cls-6,.cls-7,.cls-8,.cls-9,.cls-10{fill-rule:evenodd;}.cls-2{fill:url(#linear-gradient-7);}.cls-3{fill:url(#linear-gradient-2);}.cls-4{fill:url(#linear-gradient-3);}.cls-5{fill:url(#linear-gradient-4);}.cls-6{fill:url(#linear-gradient-9);}.cls-7{fill:url(#linear-gradient-6);}.cls-11{fill:none;stroke:#1e1e1c;stroke-miterlimit:10;stroke-width:.25px;}.cls-8,.cls-12{fill:#cb1525;}.cls-13{fill:url(#linear-gradient-8);}.cls-9{fill:#f7d498;}.cls-14{fill:url(#linear-gradient);}.cls-15{fill:#f7ead8;}.cls-10,.cls-16{fill:#f6c008;}.cls-17{fill:#ee6f4e;}</style><linearGradient id="linear-gradient" x1="2830.66" y1="-455.61" x2="2830.66" y2="-413.01" gradientTransform="translate(2899.34 -413.96) rotate(162.28) scale(1 -1)" gradientUnits="userSpaceOnUse"><stop offset="0" stop-color="#f6c008"/><stop offset=".16" stop-color="#f4bd10"/><stop offset=".4" stop-color="#efb726"/><stop offset=".7" stop-color="#e8ad4a"/><stop offset="1" stop-color="#e0a275"/></linearGradient><linearGradient id="linear-gradient-2" x1="50.34" y1="30.46" x2="66.82" y2="30.46" gradientUnits="userSpaceOnUse"><stop offset="0" stop-color="#d4884b"/><stop offset=".25" stop-color="#d58b4e"/><stop offset=".47" stop-color="#da9659"/><stop offset=".68" stop-color="#e2a86b"/><stop offset=".88" stop-color="#eec185"/><stop offset="1" stop-color="#f7d498"/></linearGradient><linearGradient id="linear-gradient-3" x1="54.59" y1="34.07" x2="60.72" y2="34.07" gradientUnits="userSpaceOnUse"><stop offset="0" stop-color="#f7d498"/><stop offset="1" stop-color="#e0a275"/></linearGradient><linearGradient id="linear-gradient-4" x1="53.52" y1="30.08" x2="55.64" y2="30.08" xlink:href="#linear-gradient-3"/><linearGradient id="linear-gradient-5" x1="3045.43" y1="50.48" x2="3048.95" y2="50.48" gradientTransform="translate(3105.47 24.81) rotate(-179.1) scale(1 -1)" xlink:href="#linear-gradient-3"/><linearGradient id="linear-gradient-6" x1="58.36" y1="39.08" x2="58.36" y2="87.61" gradientUnits="userSpaceOnUse"><stop offset="0" stop-color="#ee6f4e"/><stop offset=".19" stop-color="#eb694b"/><stop offset=".41" stop-color="#e65a44"/><stop offset=".67" stop-color="#dc4139"/><stop offset=".93" stop-color="#cf1f29"/><stop offset="1" stop-color="#cb1525"/></linearGradient><linearGradient id="linear-gradient-7" x1="58.29" y1="87.59" x2="58.29" y2="87.59" xlink:href="#linear-gradient-6"/><linearGradient id="linear-gradient-8" x1="53.5" y1="-72.03" x2="54.55" y2="-71.72" gradientTransform="translate(-29.86 105.22) rotate(-1.13)" gradientUnits="userSpaceOnUse"><stop offset="0" stop-color="#ddd"/><stop offset=".68" stop-color="#c6c5c5"/><stop offset="1" stop-color="#c0bfbf"/></linearGradient><linearGradient id="linear-gradient-9" x1="57.71" y1="19.88" x2="55.96" y2="29.11" xlink:href="#linear-gradient-6"/></defs><g id="NOOOOO"><g id="margem"><polyline class="cls-11" points="65.21 141.14 91.84 141.14 91.84 9.1 65.21 9.1"/><polyline class="cls-11" points="41.37 9.1 10.4 9.1 10.4 141.14 40.31 140.95"/><polyline class="cls-11" points="65.21 141.14 91.84 141.14 91.84 9.1 65.21 9.1"/><polyline class="cls-11" points="41.37 9.1 10.4 9.1 10.4 141.14 40.31 140.95"/></g></g><g id="COPAS"><path class="cls-17" d="M67.51,102.16s.74,7.63-.15,12.49c-.71,3.89-1.13,7.99-1.47,10.85-.11-.3-.18-.48-.18-.48l-1.17.27s-1.07.58-1.66.7c-.39.08-.65-.06-.83-.27-.11.98-.36,1.84-.48,2.24,0,0-.02,0-.03,0,.09-.3.17-.63.25-.97.12-.54.2-1.11.23-1.67.1-2.24-.36-7.22-.74-10.62-.34-3.41.32-9.68.26-11.38-.04-1.69-.54-2.88-1.34-5.83-.39-1.69-1.23-6.27-1.9-9.9.44-.02.88-.06,1.3-.12,3.33-.48,7.46-1.29,9.26-1.65-.29,4.27-.99,10.88-1.07,10.88-.07,1.82-.16,3.64-.27,5.46Z"/><path class="cls-9" d="M28.34,37.8l-2.11,1.13c-.14-.19-.28-.35-.42-.46-.43-.33-1.08-.9-1.08-.9l-1.65-1.8,4.1-2.6s.84,3.49.88,3.88c0,.05.11.32.29.74Z"/><path class="cls-8" d="M48.16,50.52c0,.11,0,.21,0,.3-.65-.58-1.29-.46-1.29-.46,0,0-7.24,1.11-10.47,1.26-3.23.15-2.1,1.55-5.61-1.97-3.51-3.52-6.31-9.79-6.31-9.79l1.73-.93,2.11-1.13.21-.11s2.46,4.06,4.56,6.2c2.1,2.14,4.23.33,4.23.33,0,0,4.36-2.13,7.56-4.15,2.86-1.8,3.07-.7,3.07-.7,0,0,.12.35.31.97-.09.14-.17.31-.26.51,0,.06.07,6.23.13,9.01h0c0,.1,0,.2,0,.29,0,.12,0,.25,0,.37Z"/><path class="cls-12" d="M72.49,136.05c-.16.42-.75.43-1.34.35-.59-.08-4.46-1.52-5.23-2.6-.77-1.08-1.96-2.31-1.96-2.31h-.84s-1.69-.71-1.69-.71l.04-2.6s.03-.08.08-.23c.12-.4.37-1.26.48-2.24.18.21.44.35.83.27.59-.12,1.66-.7,1.66-.7l1.17-.27s.07.19.18.48c.38,1,1.27,3.29,1.73,3.92.6.83,2.71,1.8,2.88,2.22.17.41,2.15,3.98,1.99,4.41Z"/><path class="cls-14" d="M66.92,19.7c-.37-1.7,1.28-3.06,2.36-2.05-.62-.89-1.69-1.27-2.75-1.13,0,0,0-.01,0-.02.01-.04.02-.08.03-.14.01-.06.02-.12.02-.2,0-.15-.02-.33-.09-.53-.07-.2-.2-.41-.37-.61-.17-.2-.38-.39-.63-.55-.25-.16-.52-.31-.82-.42-.3-.11-.62-.2-.96-.24-.17-.02-.35-.03-.53-.02-.04,0-.09,0-.14.01-.04,0-.09.01-.15.02h-.08s-.04.02-.06.03h-.06s-.01.02-.01.02h-.02s0,0,0,0h-.03c-.17.06-.34.13-.51.21-.16.09-.32.19-.46.32-.28.25-.48.57-.59.89-.11.32-.15.64-.16.93,0,.15,0,.29.01.43-.91,1-1.22,2.44-.09,3.94.06.15.12.3.19.43.17.14.34.27.5.38.69.48,1.44.8,2.26.96.84.17,1.7.26,2.55.38,3.74.53,1.78,4.9-.37,5.5.63-.08,1.37-.22,2.07-.48,1.63.16,4.74-.82,5.07-3.51.4-3.21-3.33-8.32-6.22-4.57ZM63.58,19.5c-1.43-2.88,1.58-4.33,2.64-2.92-1.22.28-2.35,1.26-2.64,2.92ZM62.89,14.57h0s0,0,0,0ZM61.69,15.55c.05-.12.12-.23.19-.33.07-.1.17-.19.26-.28.2-.16.44-.28.71-.36h.03s0,0,0,0h0s0,0,0,0h.06s.04-.02.06-.03h.04c.05-.02.13-.02.19-.03.14,0,.28,0,.42,0,.14.01.28.03.42.06.14.03.28.06.41.1.27.07.52.17.75.28.23.11.43.24.61.38.17.14.31.29.41.43.1.15.16.3.2.43.03.13.05.24.05.31,0,.01,0,.02,0,.03-.1.01-.2.03-.29.05-1.05-1.65-3.28-1.47-4.72-.39.04-.22.1-.44.2-.64ZM68.26,27.71c.76-.31,1.43-.77,1.77-1.44,1.46-2.87-1.81-4.93-4.13-4.02,4.03-3.27,7.19,4.13,2.36,5.46Z"/><path class="cls-3" d="M62.43,33.81c-.34.96-1.83.85-2.59,1.12-.91.33-2.31.72-3.23.35-.22-.09-3.25-.29-3.73-.82-.6-.67.06-5.14.12-5.92,0,0,.07-.93,1.65-2.03,1.17-.82,2.78-1.08,4.18-1.01.33.02,3.04.78,2.82.92,0,0,.02-.01.03-.02.08.32.11.66.15.99.23,1.84,1.26,4.58.61,6.41Z"/><path class="cls-9" d="M60.72,30.77c0,.14,0,.29-.02.47,0,.09,0,.18,0,.28,0,.02,0,.05,0,.07-.03,1.06-.06,2.5-.04,3.56-.96.24-2.21.62-2.45,1.08-.41.77-.56,1.88-.56,1.88,0,0-.06-.34-.19-.74-.04-.12-.08-.25-.13-.37-.04-.1-.08-.2-.12-.29-.01-.03-.03-.05-.04-.08-.01-.03-.03-.05-.04-.08-.08-.15-.17-.28-.27-.38-.4-.39-1.52-.77-2-.91.03-.65,0-1.36-.04-1.89.01.03.03.05.04.08.01.03.03.05.04.08.03.05.06.1.1.15.01.02.03.04.04.06.02.02.04.04.05.06.03.03.05.05.08.08.03.03.07.06.11.09,0,0,0,0,0,0,.03.02.06.05.1.06.02.01.04.03.07.03,0,0,.02.01.02.01.04.02.07.04.11.05.03.01.06.02.09.03.03,0,.06.02.09.03.02,0,.04.01.07.02,0,0,.02,0,.03,0,.01,0,.02,0,.04,0,.03,0,.07.01.1.02.02,0,.05,0,.07,0,.05,0,.09.01.14.01.06,0,.13,0,.2,0,.25,0,.53-.03.85-.09.03,0,.06-.01.09-.02.06-.02.12-.04.19-.07.03-.01.07-.03.1-.05.07-.03.14-.07.21-.12.04-.02.07-.04.11-.07.04-.02.07-.05.11-.07.08-.05.15-.11.23-.17.04-.03.08-.06.12-.09.08-.06.16-.13.24-.2.08-.07.16-.14.24-.22.04-.04.08-.08.12-.12.03-.03.06-.05.08-.08.06-.06.12-.12.18-.18.08-.08.15-.16.22-.25.05-.05.09-.1.13-.15.11-.13.21-.26.3-.39.02-.03.04-.06.07-.09.13-.19.25-.39.36-.58.09-.16.16-.32.22-.48.05,0,.1,0,.15-.02Z"/><path class="cls-4" d="M60.72,30.77c0,.14,0,.29-.02.47,0,.09,0,.18,0,.28,0,.04-.02.07-.02.09-.65.68-2.47,3.97-3.23,5.76-.04-.12-.08-.25-.13-.37-.04-.1-.08-.2-.12-.29-.01-.03-.03-.05-.04-.08-.01-.03-.03-.05-.04-.08-.08-.15-.17-.28-.27-.38-.4-.39-1.52-.77-2-.91.03-.65,0-1.36-.04-1.89.01.03.03.05.04.08.01.03.03.05.04.08.03.05.06.1.09.14.01.02.03.04.05.06.02.02.04.04.05.06.03.03.05.05.08.08.03.03.07.06.11.09,0,0,0,0,0,0,.03.02.06.05.1.06.02.01.04.03.07.03t0,0s.01,0,.02,0c.04.02.07.04.11.05.03.01.06.02.09.03.03.01.06.02.09.03.02,0,.04.02.07.02,0,0,.02,0,.03,0,.01,0,.02,0,.04,0,.03,0,.07.01.1.02.02,0,.05,0,.07,0,.05,0,.09.01.14.01.06,0,.13,0,.2,0,.25,0,.53-.03.85-.09.03,0,.06-.01.09-.02.03,0,.06-.02.09-.03.03-.01.06-.02.1-.04.03-.01.07-.03.1-.05.07-.03.14-.07.21-.12.04-.02.07-.04.11-.07.04-.02.07-.05.11-.07.08-.05.15-.11.23-.17.04-.03.08-.06.12-.09.08-.06.16-.13.24-.2.08-.07.16-.14.24-.22.04-.04.08-.08.12-.12.03-.03.06-.05.08-.08.06-.06.12-.12.18-.18.08-.08.15-.16.22-.25.04-.05.09-.1.13-.15.11-.13.21-.26.3-.39.02-.03.04-.06.07-.09.13-.19.25-.39.36-.58,0,0,0,0,0,0,.09-.16.16-.32.22-.47h0s.1,0,.15-.02Z"/><path class="cls-9" d="M61.7,29.06c-.08.54-.49,1.04-.82,1.5-.05.07-.1.14-.14.21,0,0-.02,0-.03,0-.05,0-.11.02-.15.02h0c-.06.15-.13.31-.22.47-.3.56-.77,1.15-1.26,1.65-.03.03-.06.06-.08.08-.04.04-.08.08-.12.12-.08.07-.16.15-.24.22-.08.07-.16.14-.24.2-.04.03-.08.06-.12.09-.08.06-.16.12-.23.17-.04.03-.08.05-.11.07-.04.03-.07.05-.11.07-.07.04-.14.08-.21.12-.04.02-.07.03-.1.05-.07.03-.13.05-.19.07-.03,0-.06.02-.09.02-.32.06-.6.09-.85.09-.07,0-.14,0-.2,0-.05,0-.1,0-.14-.01-.02,0-.05,0-.07,0-.04,0-.07-.01-.1-.02-.01,0-.03,0-.04,0-.03,0-.06-.02-.1-.03-.03,0-.06-.02-.09-.03-.03,0-.06-.02-.09-.03-.04-.01-.07-.03-.11-.05,0,0-.02,0-.02-.01-.02,0-.04-.02-.07-.03-.03-.02-.07-.04-.1-.06,0,0,0,0,0,0-.04-.03-.07-.06-.11-.09-.03-.02-.05-.05-.08-.08-.02-.02-.04-.04-.05-.06-.02-.02-.03-.04-.04-.06-.03-.05-.07-.1-.1-.15-.01-.03-.03-.05-.04-.08-.02-.03-.03-.05-.04-.08-.7-1.33-1.51-4.23-1.22-4.94.15-.37.17-.79.15-1.13.22-.24.52-.5.91-.78,1.17-.82,2.78-1.08,4.18-1.01.14,0,.68.14,1.26.31.15.2.22.34.22.34,0,0,.33,1.4.32,2.38.21,0,.56-.52.78-.45.31.1.33.72.3.97Z"/><path class="cls-9" d="M57.62,34.04c.07-.03.14-.07.21-.12-.07.05-.14.08-.21.12Z"/><path class="cls-9" d="M55.16,33.86s.07.06.11.09c-.04-.03-.07-.05-.11-.09-.03-.03-.05-.05-.08-.08.03.03.05.05.08.08Z"/><path class="cls-5" d="M55.58,34.12c-.16-.06-.3-.15-.41-.26-.11-.1-.2-.21-.27-.34-.71-1.24-1.6-4.36-1.31-5.1.15-.37.17-.79.15-1.13.22-.24.52-.5.91-.78.27-.19.56-.35.87-.48-.03.25-.06.44-.05.52.04,1.45-.87,3.51-.7,3.78.17.27.81.47.81.47,0,0,.15,1.71,0,3.32Z"/><path class="cls-1" d="M56.57,26.98c.87-.61,2.65-.15,2.97.85-.32-.18-.71-.27-1.07-.26.1.08.35.45.43.53-.69.15-1.32.08-1.98-.07.3-.04-1.14-.24-.86-.37-.02-.53.71-.53.27-.46.02-.15.1-.12.19-.18l.05-.05Z"/><path class="cls-17" d="M55.05,103.32c-.06,1.7.6,7.97.26,11.38-.38,3.4-.84,8.38-.74,10.62,0,.21.03.42.05.63-.14.06-.31.08-.51.03-.59-.12-1.66-.7-1.66-.7l-1.02-.24c-.67-2.62-1.79-7.7-2.33-11.28-.84-5.05-.03-11.62-.02-11.61-.11-1.82-.2-3.64-.27-5.46-.08,0-.81-6.82-1.08-11.08,1.77.65,6.4,2.16,10.58,1.97-.67,3.63-1.5,8.22-1.9,9.9-.8,2.94-1.3,4.13-1.34,5.83Z"/><path class="cls-7" d="M69.76,85.63s-.34.07-.91.19c-1.8.36-5.93,1.17-9.26,1.65-.43.06-.86.1-1.3.12h0s0,0,0,0c-4.17.19-8.8-1.32-10.58-1.97-.48-.17-.75-.29-.75-.29,0,0,.62-7.04.58-10.51-.08-7.22,2.52-10.05,1.92-11.63-.48-1.26-1.02-2.46-.99-4.02.07-3.53-.22-5.69-.31-8.36,0-.09,0-.18,0-.3,0-.11,0-.24,0-.37,0-.09,0-.19,0-.28h0c-.06-2.78-.12-8.95-.13-9.01.09-.19.17-.36.26-.51.18-.3.35-.49.52-.55.21-.08.52-.15.85-.2,0,.01.01.02.02.04.39.66,2.26,3.31,7.23,3.46,4.1.11,6.65-1.32,8.06-2.54.45-.38.78-.75,1.01-1.03.14-.17.24-.31.31-.41.48,0,.83-.02,1.02-.02.6,0,1.19.18,1.69.41-.09.02-.14.04-.14.04,0,0-1.72,7.87-.56,10.22.14.28.38.56.68.83-.43,3.75-.72,7.76-.43,10.49,0,.05,0,.11,0,.16-.02.1-.06.2-.12.31-.55.95-2.63,2.18-2.63,2.18,0,0,2,3.85,2.46,5.49.99,3.52,1.51,16.42,1.51,16.42Z"/><polygon class="cls-2" points="58.29 87.59 58.29 87.59 58.29 87.59 58.29 87.59"/><path class="cls-12" d="M55.53,130.78l-1.69.73h-.84s-1.19,1.22-1.96,2.3c-.77,1.08-4.64,2.52-5.23,2.6-.59.07-1.17.07-1.34-.35-.16-.42,1.82-3.99,1.99-4.41.18-.42,2.28-1.39,2.88-2.22.6-.83,1.91-4.41,1.91-4.41l.15.03,1.02.24s1.07.58,1.66.7c.21.04.38.02.51-.03.13-.05.23-.13.32-.24.16,1.34.56,2.47.56,2.47l.04,2.6Z"/><path class="cls-16" d="M50.78,64.94c.19.07.42.15.68.23.13.04.27.08.42.12.15.04.3.08.47.12.16.03.33.08.51.1.18.03.36.07.54.09.09.01.19.03.28.04.1,0,.19.02.29.03.2.02.4.03.6.04.21.01.4,0,.61,0h.15s.17,0,.17,0c.11,0,.22,0,.34-.02h.15s.16-.02.16-.02c.11-.01.22-.02.33-.03.22-.01.44-.06.66-.08.44-.06.88-.13,1.31-.21.41-.07.81-.15,1.19-.22-.11.01-.22.03-.33.04-.41.04-.83.08-1.24.1-.42.02-.83.05-1.26.05-.4,0-.84,0-1.23-.04-.2-.01-.4-.03-.59-.06-.19-.02-.38-.05-.56-.08-.09-.02-.18-.03-.27-.04-.09-.02-.17-.04-.26-.06-.17-.03-.33-.07-.49-.11-.31-.08-.59-.17-.84-.25-.25-.09-.45-.18-.62-.25-.17-.08-.3-.15-.39-.19-.09-.05-.13-.08-.13-.08,0,0,.05,0,.15.02.1.01.24.02.42.04.18.02.4.03.65.04.25.01.53.03.84.03.62.01,1.33.01,2.09-.02.19,0,.38-.02.57-.03.19,0,.39-.02.6-.04.1,0,.2-.01.3-.02l.31-.03c.2-.02.41-.03.62-.05.41-.03.82-.06,1.23-.08.41-.02.81-.04,1.2-.05.39-.01.76-.02,1.12-.02.36,0,.7,0,1.01,0,.31,0,.6.02.86.03.26.01.48.03.66.04.37.03.58.06.58.06,0,0-.18.07-.49.17.07-.01.1-.02.1-.02,0,0-.05.03-.14.09-.09.06-.23.14-.41.24-.18.1-.39.22-.65.35-.25.13-.54.26-.86.41-.32.14-.67.28-1.04.42-.37.14-.77.28-1.19.4-.21.07-.42.13-.64.18-.22.06-.44.12-.66.17-.45.11-.91.19-1.38.26-.47.06-.93.11-1.43.11h-.5s-.18-.02-.18-.02c-.24-.02-.48-.03-.7-.07-.22-.03-.44-.06-.65-.12-.11-.02-.21-.05-.31-.07-.1-.03-.2-.06-.3-.09-.4-.12-.76-.26-1.08-.41-.16-.08-.31-.16-.46-.23-.14-.08-.27-.16-.4-.24-.24-.16-.44-.31-.6-.44-.16-.13-.27-.24-.35-.32-.08-.08-.11-.12-.11-.12,0,0,.21.1.59.24Z"/><path class="cls-8" d="M66.41,38.91s-.04.07-.12.19c-.07.1-.17.24-.31.41-.23.29-.56.65-1.01,1.03-1.41,1.22-3.96,2.65-8.06,2.54-4.97-.14-6.84-2.79-7.23-3.46,0-.01-.02-.03-.02-.04-.04-.07-.06-.11-.06-.11,0,0,.45-.11,1.05-.3.45-.15.99-.34,1.49-.56,1.18-.53,2.52-1.73,2.52-1.73v-.29s-.03-1.41-.03-1.41c0,0,.09.02.22.07.48.15,1.6.53,2,.91.27.26.47.77.61,1.2.12.4.19.74.19.74,0,0,.15-1.11.56-1.88.25-.46,1.49-.85,2.45-1.08.65-.16,1.17-.25,1.17-.25,0,0-.16.85-.06,1.44.09.59,2.06,1.41,2.06,1.41l2.59,1.15Z"/><path class="cls-10" d="M26.73,42c-.61-.2-.64-1.44-.62-1.88.03-.44.15-.49.2-.61.05-.12,0-.17,0-.17,0,0,.17-.02.22-.14.05-.12,0-.24,0-.24,0,0,.47-.36.44-.68-.02-.32-.09-.42-.09-.42,0,0,0-.15.03-.27.03-.12-.36-.22-.66-.32-.29-.1-.19-.22-.19-.37,0-.15.39-.19.51-.26.12-.07.03-.19.03-.19,0,0,.22-.1.29-.22.07-.12-.05-.22-.05-.22l3.79-9.75-9.76-.09,3.62,9.82s-.12.1-.05.22c.07.12.29.22.29.22,0,0-.1.12.02.2.12.08.51.13.51.27,0,.15.1.27-.2.36-.29.1-.68.19-.66.31.02.12.02.27.02.27,0,0-.07.1-.1.41-.03.32.43.69.43.69,0,0-.05.12,0,.24.05.12.22.15.22.15,0,0-.05.05,0,.17.05.12.17.17.19.61.02.44-.04,1.68-.65,1.87-.61.19-2.44.91-2.51,1.08-.07.17-.03.17.05.2.07.02,2.79.03,3.56.03.76.01,3.49.05,3.56.03.07-.02.12-.02.05-.19-.07-.17-1.89-.92-2.49-1.12Z"/><path class="cls-9" d="M22.96,35.1s-.35.19-.27.48c.07.26.44.43.87.5.43.07.6.17.79.1.08-.03.18-.21.13-.42-.1-.38-1.35-.76-1.35-.76l-.16.1Z"/><path class="cls-9" d="M23.18,33.93s-.26.04-.35.28c-.09.24-.07.41.19.65.26.24,1.18.69,1.6.6.12-.02.26-.22.24-.43-.02-.22-.9-.77-.9-.77l-.78-.33Z"/><path class="cls-9" d="M23.49,32.91s-.33.2-.38.48c-.05.28.02.5.34.74.32.24.44.42.65.42.18,0,.39-.11.35-.43-.04-.33-.73-.87-.73-.87l-.04-.13-.19-.2Z"/><path class="cls-15" d="M23.99,34.46s.1,0,.22-.13c.07-.07.11-.23.11-.23,0,0-.26-.26-.35-.26-.08,0-.17,0-.25.08-.08.07-.04.17-.03.21,0,.04.29.33.29.33Z"/><path class="cls-15" d="M24.07,35.03c.09-.2.23-.27.41-.19.17.08.3.13.35.23.03.07.01.16-.06.32-.08.16-.55,0-.67-.13-.06-.06-.04-.17-.02-.23Z"/><path class="cls-15" d="M23.91,35.78c-.05.11-.03.19.17.26.21.07.29.08.29.08,0,0,.19-.02.19-.21,0-.12-.13-.18-.13-.18,0,0-.22-.07-.31-.06-.1.01-.18.05-.2.11Z"/><path class="cls-9" d="M27.61,38.02c.13-.3,1.09-1.05.9-2.61-.1-.87-.04-1.97-.07-2.09-.04-.12-.21-.77-.21-.77,0,0-.01-.69-.19-.68-.33.02-.49.41-.44,1.06.03.33.07.6.06.73-.22,1.67-.56,1.95-.69,2.44-.47,1.77.56,1.84.64,1.92Z"/><path class="cls-15" d="M28.09,32.53c.26.27.12-.63.04-.67-.03-.02-.16,0-.15.37,0,.14.06.25.1.3Z"/><path class="cls-13" d="M23.76,33.2s0,0,0,0c0,0-.71-.38-.96-.69-.26-.31-.25-.48-.23-.62.02-.1.17-.19.34-.19.07,0,.17.01.25.08.17.13.27.37.32.75.03.26.29.65.29.66,0,0,0,0,0,0,0,0,0,0,0,0Z"/><path class="cls-9" d="M23.72,33.18s-.25-.4-.28-.67c-.03-.26-.1-.58-.3-.75-.21-.17-.55-.05-.58.1-.03.14-.03.3.22.61.25.31.94.7.94.7Z"/><path class="cls-6" d="M62.47,25.24c-.17.22-.58.99-.8,1.17,0,0-.02.02-.03.02.13-.09-.75-.38-1.57-.62-.58-.17-1.12-.3-1.26-.31-1.08-.05-2.28.09-3.31.53-.31.13-.6.29-.87.48-.39.27-.69.54-.91.78-.67.73-.74,1.25-.74,1.25l-.5-1.14c-.82-.09-1.56-.18-1.96-.25-1.19-.21-.6-1.73-.41-2.99.19-1.26.2-1.88,2.12-3.21,1.92-1.33,7.46-1.02,9.12-.26,1.18.53,1.78,2.07,2.33,2.98.28.46-.71.92-1.23,1.56Z"/><path class="cls-9" d="M70.8,64.74c-.87.95-2,2.28-2.58,3.45-.58,1.17-2.69-2.74-2.9-4.47-.15-1.23,1.87-1.7,2.93-1.99l2.55,3.01Z"/><path class="cls-8" d="M81.14,54.61c-.53,1.45-9.99,10.54-9.99,10.54l-.35-.42-2.74-3.23-.09-.1c.06-.11.62-.36.64-.46l4.65-7.94s-2.84-1.13-4.27-2.43c-.3-.27-.54-.55-.68-.83-1.16-2.35.56-10.22.56-10.22,0,0,.05-.02.14-.04.65-.15,3.43-.55,5.04,2.93,1.83,3.96,4.76,4.94,6.19,6.72.87,1.08,1.44,4.01.91,5.46Z"/><path class="cls-8" d="M68.55,61.24c-.02.1-.06.2-.12.31l-.03-.03.16-.27Z"/></g></svg>