<?xml version="1.0" encoding="UTF-8"?><svg xmlns="http://www.w3.org/2000/svg" xmlns:xlink="http://www.w3.org/1999/xlink" viewBox="0 0 102.24 150.24"><defs><style>.cls-1{mask:url(#mask);}.cls-2{fill:url(#linear-gradient-5);}.cls-2,.cls-3,.cls-4,.cls-5,.cls-6,.cls-7,.cls-8,.cls-9,.cls-10,.cls-11,.cls-12,.cls-13,.cls-14,.cls-15,.cls-16,.cls-17,.cls-18,.cls-19,.cls-20,.cls-21,.cls-22,.cls-23{fill-rule:evenodd;}.cls-3{fill:url(#linear-gradient-7);}.cls-4{fill:url(#linear-gradient-8);}.cls-5{fill:url(#linear-gradient-2);}.cls-6{fill:url(#linear-gradient-3);}.cls-7{fill:url(#linear-gradient-9);}.cls-8{fill:url(#linear-gradient-6);}.cls-24{filter:url(#luminosity-noclip);}.cls-25{fill:none;stroke:#1e1e1c;stroke-miterlimit:10;stroke-width:.25px;}.cls-26{fill:#010101;}.cls-27{fill:#cb1525;}.cls-28{fill:#472212;}.cls-9{fill:#7cafce;}.cls-10{fill:url(#linear-gradient-4);mix-blend-mode:multiply;}.cls-11{fill:#f7d498;}.cls-12{fill:#ee6f4e;}.cls-29{fill:url(#linear-gradient);}.cls-30{fill:#edd3a6;}.cls-31{mask:url(#mask-1);}.cls-13{fill:#a17566;}.cls-32,.cls-23{fill:#feebd9;}.cls-33{fill:#fff;}.cls-34{fill:#b58372;}.cls-35{fill:url(#linear-gradient-22);}.cls-36{fill:url(#linear-gradient-23);}.cls-37{fill:url(#linear-gradient-28);}.cls-38{fill:url(#linear-gradient-25);}.cls-39{fill:url(#linear-gradient-15);}.cls-40{fill:url(#linear-gradient-16);}.cls-41{fill:url(#linear-gradient-17);}.cls-42{fill:url(#linear-gradient-27);}.cls-43{fill:url(#linear-gradient-24);}.cls-44{fill:url(#linear-gradient-26);}.cls-45{fill:url(#linear-gradient-29);}.cls-46{fill:#deb8a3;}.cls-14{fill:url(#linear-gradient-21);}.cls-15{fill:url(#linear-gradient-19);}.cls-16{fill:url(#linear-gradient-14);}.cls-17{fill:url(#linear-gradient-20);}.cls-18{fill:url(#linear-gradient-18);}.cls-19{fill:url(#linear-gradient-10);}.cls-20{fill:url(#linear-gradient-11);}.cls-21{fill:url(#linear-gradient-13);}.cls-22{fill:url(#linear-gradient-12);}.cls-47{fill:#f7ead8;}.cls-48{fill:#f6c008;}</style><linearGradient id="linear-gradient" x1="-79.04" y1="388.66" x2="-79.04" y2="423.44" gradientTransform="translate(209.85 -355.14) rotate(10.11)" gradientUnits="userSpaceOnUse"><stop offset="0" stop-color="#f6c008"/><stop offset=".16" stop-color="#f4bd10"/><stop offset=".4" stop-color="#efb726"/><stop offset=".7" stop-color="#e8ad4a"/><stop offset="1" stop-color="#e0a275"/></linearGradient><linearGradient id="linear-gradient-2" x1="4084.56" y1="24.83" x2="4104.7" y2="24.83" gradientTransform="translate(4142.98) rotate(-180) scale(1 -1)" gradientUnits="userSpaceOnUse"><stop offset="0" stop-color="#d4884b"/><stop offset=".25" stop-color="#d58b4e"/><stop offset=".47" stop-color="#da9659"/><stop offset=".68" stop-color="#e2a86b"/><stop offset=".88" stop-color="#eec185"/><stop offset="1" stop-color="#f7d498"/></linearGradient><linearGradient id="linear-gradient-3" x1="46.9" y1="30.12" x2="50.54" y2="30.12" gradientUnits="userSpaceOnUse"><stop offset="0" stop-color="#f7d498"/><stop offset="1" stop-color="#e0a275"/></linearGradient><filter id="luminosity-noclip" x="49.75" y="22.34" width="2.87" height="1.24" color-interpolation-filters="sRGB" filterUnits="userSpaceOnUse"><feFlood flood-color="#fff" result="bg"/><feBlend in="SourceGraphic" in2="bg"/></filter><filter id="luminosity-noclip-2" x="49.75" y="-8535" width="2.87" height="32766" color-interpolation-filters="sRGB" filterUnits="userSpaceOnUse"><feFlood flood-color="#fff" result="bg"/><feBlend in="SourceGraphic" in2="bg"/></filter><mask id="mask-1" x="49.75" y="-8535" width="2.87" height="32766" maskUnits="userSpaceOnUse"/><linearGradient id="linear-gradient-4" x1="4090.36" y1="22.96" x2="4093.23" y2="22.96" gradientTransform="translate(4142.98) rotate(-180) scale(1 -1)" gradientUnits="userSpaceOnUse"><stop offset="0" stop-color="#666"/><stop offset=".11" stop-color="#8d8d8d"/><stop offset=".22" stop-color="#afafaf"/><stop offset=".34" stop-color="#ccc"/><stop offset=".47" stop-color="#e2e2e2"/><stop offset=".62" stop-color="#f2f2f2"/><stop offset=".78" stop-color="#fcfcfc"/><stop offset="1" stop-color="#fff"/></linearGradient><mask id="mask" x="49.75" y="22.34" width="2.87" height="1.24" maskUnits="userSpaceOnUse"><g class="cls-24"><g class="cls-31"><path class="cls-10" d="M52.05,22.36c.81-.17.52.82.52.82,0,0-.44-.16-.81-.16-.36,0-.56.01-.45.06.53.21.69.46.69.47-.03-.02-.13,0-.15,0-.11,0-.22.01-.34.02-.21.01-.42.03-.63-.04-.12-.04-.24-.08-.37-.07-.13.02-.24.09-.37.04-.2-.07-.39-.38-.38-.61,0,0,.75-.21,2.31-.54Z"/></g></g></mask><linearGradient id="linear-gradient-5" x1="4090.36" y1="22.96" x2="4093.23" y2="22.96" gradientTransform="translate(4142.98) rotate(-180) scale(1 -1)" gradientUnits="userSpaceOnUse"><stop offset="0" stop-color="#e0a275"/><stop offset=".11" stop-color="#e0a275"/><stop offset="1" stop-color="#e0a275"/></linearGradient><linearGradient id="linear-gradient-6" x1="45.73" y1="26.13" x2="49.98" y2="26.13" xlink:href="#linear-gradient-3"/><linearGradient id="linear-gradient-7" x1="47.94" y1="15.34" x2="47.94" y2="25.69" gradientUnits="userSpaceOnUse"><stop offset="0" stop-color="#ee6f4e"/><stop offset=".19" stop-color="#eb694b"/><stop offset=".41" stop-color="#e65a44"/><stop offset=".67" stop-color="#dc4139"/><stop offset=".93" stop-color="#cf1f29"/><stop offset="1" stop-color="#cb1525"/></linearGradient><linearGradient id="linear-gradient-8" x1="33.99" y1="25.69" x2="33.99" xlink:href="#linear-gradient-7"/><linearGradient id="linear-gradient-9" x1="40.65" y1="25.3" x2="40.65" y2="25.33" xlink:href="#linear-gradient-7"/><linearGradient id="linear-gradient-10" x1="40.91" y1="25.27" x2="40.91" y2="25.3" xlink:href="#linear-gradient-7"/><linearGradient id="linear-gradient-11" x1="42.63" y1="25.04" x2="42.63" y2="25.08" xlink:href="#linear-gradient-7"/><linearGradient id="linear-gradient-12" x1="54.8" y1="21" x2="54.8" y2="23.66" xlink:href="#linear-gradient-7"/><linearGradient id="linear-gradient-13" x1="68.09" y1="37.45" x2="58.66" y2="47.59" gradientUnits="userSpaceOnUse"><stop offset="0" stop-color="#435973"/><stop offset=".18" stop-color="#48617b"/><stop offset=".47" stop-color="#577793"/><stop offset=".83" stop-color="#6f9bb9"/><stop offset="1" stop-color="#7cafce"/></linearGradient><linearGradient id="linear-gradient-14" x1="37.26" y1="28.43" x2="24.44" y2="42.21" gradientUnits="userSpaceOnUse"><stop offset="0" stop-color="#435973"/><stop offset=".14" stop-color="#4d6883"/><stop offset=".52" stop-color="#668eab"/><stop offset=".82" stop-color="#76a6c4"/><stop offset="1" stop-color="#7cafce"/></linearGradient><linearGradient id="linear-gradient-15" x1="50.21" y1="30.11" x2="50.21" y2="98.36" gradientUnits="userSpaceOnUse"><stop offset="0" stop-color="#d55a45"/><stop offset=".33" stop-color="#d03e38"/><stop offset=".76" stop-color="#cc202a"/><stop offset="1" stop-color="#cb1525"/></linearGradient><linearGradient id="linear-gradient-16" x1="57.09" y1="53.56" x2="57.09" y2="60.49" xlink:href="#linear-gradient-15"/><linearGradient id="linear-gradient-17" x1="49.88" y1="54.7" x2="49.88" y2="85.12" gradientUnits="userSpaceOnUse"><stop offset="0" stop-color="#deb8a3"/><stop offset=".11" stop-color="#d6ae99"/><stop offset=".44" stop-color="#c39683"/><stop offset=".74" stop-color="#b88776"/><stop offset="1" stop-color="#b58372"/></linearGradient><linearGradient id="linear-gradient-18" x1="47.16" y1="100.15" x2="47.16" y2="117.87" gradientUnits="userSpaceOnUse"><stop offset="0" stop-color="#363635"/><stop offset="1" stop-color="#9a9999"/></linearGradient><linearGradient id="linear-gradient-19" x1="48.85" y1="66.24" x2="45.63" y2="96.02" gradientUnits="userSpaceOnUse"><stop offset="0" stop-color="#472212"/><stop offset="1" stop-color="#b58372"/></linearGradient><linearGradient id="linear-gradient-20" x1="40.41" y1="101.95" x2="48.81" y2="123.42" gradientUnits="userSpaceOnUse"><stop offset="0" stop-color="#b58372"/><stop offset="1" stop-color="#472212"/></linearGradient><linearGradient id="linear-gradient-21" x1="57.84" y1="84.47" x2="51.74" y2="140.78" xlink:href="#linear-gradient-20"/><linearGradient id="linear-gradient-22" x1="54.43" y1="59.89" x2="79.58" y2="76.4" gradientUnits="userSpaceOnUse"><stop offset="0" stop-color="#feebd9"/><stop offset=".42" stop-color="#ebd0aa"/><stop offset=".8" stop-color="#ddbb85"/><stop offset="1" stop-color="#d8b478"/></linearGradient><linearGradient id="linear-gradient-23" x1="54.28" y1="67.34" x2="86.54" y2="67.34" gradientUnits="userSpaceOnUse"><stop offset="0" stop-color="#f7ead8"/><stop offset=".41" stop-color="#e8d0aa"/><stop offset=".8" stop-color="#dcbb85"/><stop offset="1" stop-color="#d8b478"/></linearGradient><linearGradient id="linear-gradient-24" x1="43.02" y1="37.99" x2="45.99" y2="49.53" gradientUnits="userSpaceOnUse"><stop offset="0" stop-color="#deb8a3"/><stop offset="1" stop-color="#b58372"/></linearGradient><linearGradient id="linear-gradient-25" x1="58.82" y1="44.86" x2="54.02" y2="45.45" xlink:href="#linear-gradient-24"/><linearGradient id="linear-gradient-26" x1="44.11" y1="54.94" x2="44.11" y2="59.78" gradientUnits="userSpaceOnUse"><stop offset="0" stop-color="#b58372"/><stop offset="1" stop-color="#deb8a3"/></linearGradient><linearGradient id="linear-gradient-27" x1="6526.68" x2="6526.68" gradientTransform="translate(6582.41) rotate(-180) scale(1 -1)" xlink:href="#linear-gradient-26"/><linearGradient id="linear-gradient-28" x1="45.14" y1="56.06" x2="45.14" y2="73.29" xlink:href="#linear-gradient-26"/><linearGradient id="linear-gradient-29" x1="54.75" y1="56.06" x2="54.75" y2="74.9" xlink:href="#linear-gradient-26"/></defs><g id="NOOOOO"><g id="margem"><polyline class="cls-25" points="65.21 141.14 91.84 141.14 91.84 9.1 65.21 9.1"/><polyline class="cls-25" points="41.37 9.1 10.4 9.1 10.4 141.14 40.31 140.95"/><polyline class="cls-25" points="65.21 141.14 91.84 141.14 91.84 9.1 65.21 9.1"/><polyline class="cls-25" points="41.37 9.1 10.4 9.1 10.4 141.14 40.31 140.95"/></g></g><g id="COPAS"><path class="cls-9" d="M61.43,21.1c.11.03.22.05.33.08.07.02.14.04.2.06.04,0,.07.02.11.03.07.02.15.04.22.07.03.01.06.02.1.03.07.02.14.05.21.07.03.01.06.02.1.03.07.02.13.05.19.07.03.01.06.02.09.04.06.02.12.05.18.07.03.01.06.02.08.03.06.03.12.05.18.07.03.01.05.02.08.03.06.02.11.05.17.07.02.01.04.02.07.03.05.02.1.05.16.07.01,0,.02,0,.03.02.58.28.93.5.93.49,0,0,0-.01-.01-.03h0s-.03-.06-.07-.11c0,0,0-.01-.01-.02-.02-.04-.05-.09-.09-.15,0-.01-.01-.02-.02-.04-.04-.06-.08-.12-.13-.19-.01-.01-.02-.03-.03-.04-.05-.07-.11-.15-.17-.23-.01-.02-.02-.03-.04-.05-.06-.08-.14-.17-.21-.26-.02-.02-.03-.04-.05-.06-.08-.09-.17-.19-.26-.29-.02-.02-.04-.04-.06-.06-.12-.12-.24-.24-.38-.37-.06-.04-.13-.07-.19-.11-.03-.01-.05-.02-.08-.04-.04-.02-.08-.04-.13-.05-.03-.01-.06-.02-.1-.03-.04-.01-.07-.02-.1-.03-.44-.13-.86-.14-.94-.17-.04-.01-.08-.03-.11-.04-.01,0-.03-.01-.04-.02-.01,0-.02-.01-.03-.02-.01,0-.02-.01-.02-.01,0,0,0,0,.02,0,0,0,.02,0,.03.01.01,0,.02,0,.04.01.03,0,.06.02.1.03.04,0,.08.01.12.02.04,0,.09,0,.14,0,.05,0,.1,0,.15,0,.05,0,.11,0,.17,0,.06,0,.12,0,.18.02.06,0,.12.02.19.03.06.01.13.03.2.05,0,0,0,0,0,0-.6-.47-1.37-.93-2.25-1.25-.95-.22-1.86.41-2,.45,0,0,0,0-.01,0t0,0s-.09.01-.12.02c-.02,0-.04,0-.06,0-.02,0-.03,0-.04,0-.02,0-.03,0-.03,0s.01,0,.03,0c.01,0,.02,0,.04,0,.01,0,.03,0,.05,0,.04,0,.08-.02.12-.03.04-.01.09-.04.13-.06.04-.02.08-.06.12-.09.04-.04.09-.07.14-.11.05-.04.11-.07.17-.11.06-.03.12-.07.18-.1.06-.03.13-.07.2-.1.07-.03.15-.06.23-.08.02,0,.05-.01.07-.01-.15-.04-.3-.07-.45-.1-1.02-.03-1.79.77-1.92.84-.05.02-.1.04-.14.05-.02,0-.04,0-.06.01-.02,0-.03,0-.04,0-.02,0-.04,0-.04,0,0,0,.01,0,.03,0,.01,0,.03,0,.04-.01.01,0,.03,0,.05-.02.04-.01.08-.03.12-.06.04-.02.09-.06.12-.09.04-.03.07-.08.11-.13.04-.05.08-.09.13-.14.04-.05.1-.1.15-.15.06-.05.11-.1.17-.15.06-.05.13-.09.19-.14.06-.04.13-.08.21-.12-.25-.01-.5-.02-.74,0-4.16.36-5.17,3.02-4.79,3.25-.56.63-.96,1.34-1.18,2.06-.02.06.01.11.07.12t0,0c.05,0,.11-.03.13-.09.22-.71.6-1.4,1.16-2.02.61.08,2.48-1.25,5.45-1.16.04,0,.08,0,.12,0-.05-.03-.11-.06-.16-.09-.07-.04-.14-.08-.21-.12-.07-.04-.14-.08-.21-.12-.07-.04-.14-.07-.21-.11-.07-.04-.13-.07-.19-.1-.06-.03-.12-.06-.18-.08-.06-.02-.11-.04-.16-.05-.05-.01-.1-.02-.13-.02-.02,0-.04,0-.05,0-.02,0-.03,0-.04,0-.02,0-.03,0-.03,0,0,0,0,0,.03,0,0,0,.02,0,.03,0,.01,0,.03,0,.05,0,.04,0,.09,0,.14,0,.2,0,1.28.56,1.92.74.53.04,1.05.11,1.55.21-.05-.04-.1-.07-.15-.11-.06-.05-.12-.1-.18-.15s-.12-.1-.18-.14c-.06-.05-.12-.09-.18-.14-.06-.04-.12-.09-.17-.12-.06-.04-.11-.08-.16-.11-.05-.03-.1-.05-.14-.07-.04-.02-.09-.03-.12-.04-.02,0-.03,0-.05,0-.01,0-.02,0-.03,0-.02,0-.03,0-.03,0,0,0,.01,0,.03,0,0,0,.02,0,.03,0,.01,0,.03,0,.05,0,.03,0,.08.01.13.03.11.03.59.34,1.05.63,0,0,0,0,0,0,.06.04.12.08.18.11.02,0,.03.02.05.03.06.03.12.07.17.1.01,0,.03.01.04.02.06.03.12.06.18.09Z"/><path class="cls-29" d="M72.78,19.08s.07.03.11.05c.01,0,.03.01.04.02.02,0,.04.02.05.02,0,0,0,0,0,0,.02,0,.03.02.05.02h0s.07.03.07.03c0,0-.01-.02-.04-.05,0,0,0,0,0,0-.15-.19-1.02-1.38-2.72-2.7,0,0-.02-.01-.03-.02-.12-.09-.25-.18-.38-.28-.01-.01-.03-.02-.04-.03-.14-.1-.29-.2-.45-.31-.09-.04-.19-.08-.28-.12-.02,0-.04-.01-.06-.02-1.05-.37-2.15-.21-2.34-.24-.07-.01-.14-.03-.2-.05-.03,0-.05-.02-.08-.02-.02,0-.04-.01-.05-.02-.03-.01-.05-.02-.05-.02,0,0,.02,0,.05.01.02,0,.03,0,.06.02.02,0,.05.01.07.02.05,0,.12.02.18.02.07,0,.13,0,.2,0,.07,0,.13-.02.21-.03.07-.01.15-.03.23-.04.08-.01.17-.02.27-.03.07,0,.15-.01.22-.02h0s.04,0,.07,0c.1,0,.2,0,.3,0,.11,0,.22,0,.33.03,0,0,0,0,.02,0-1.23-.7-2.71-1.29-4.29-1.6,0,0-.01,0-.02,0,0,0,0,0,0,0-.09-.02-.17-.04-.26-.05-1.69-.09-2.66,1.24-2.87,1.34,0,0-.01,0-.02,0,0,0,0,0,0,0-.07.03-.13.05-.19.06-.03,0-.06.01-.09.02-.03,0-.05,0-.07,0-.04,0-.06,0-.06,0,0,0,.02,0,.05-.01.02,0,.04,0,.07-.01.02,0,.05-.02.08-.03.06-.02.12-.05.18-.09.06-.04.12-.08.17-.14.05-.05.08-.12.13-.19.04-.07.09-.14.14-.22.05-.08.12-.15.18-.23.07-.08.13-.16.21-.23.07-.08.15-.15.24-.22.09-.07.19-.14.3-.2.03-.02.07-.03.1-.05-.28-.02-.55-.03-.83-.03-1.69.28-2.31,1.81-2.51,1.96-.07.05-.14.09-.21.12-.03.01-.06.03-.09.04-.03,0-.05.02-.07.02-.04.01-.06.02-.06.02,0,0,.02,0,.05-.02.02,0,.04-.02.07-.03.02-.01.05-.03.08-.04.05-.03.11-.07.17-.13.05-.05.1-.12.14-.19.04-.07.06-.15.09-.24.03-.09.06-.18.1-.27.03-.09.09-.19.13-.29.05-.1.1-.2.16-.3.06-.1.13-.19.2-.29.07-.09.15-.18.24-.26-.43.05-.85.13-1.26.23-6.73,2.01-6.88,6.46-6.14,6.64-.65,1.16-1,2.38-1.07,3.56,0,.09.07.16.16.16,0,0,0,0,0,0,.09,0,.17-.09.17-.18.08-1.17.43-2.37,1.08-3.5,1.08-.08,3.76-2.83,8.95-3.26.07,0,.14-.01.21-.02-.11-.04-.23-.08-.34-.12-.15-.06-.3-.11-.45-.17-.15-.05-.3-.11-.45-.16-.15-.05-.3-.1-.44-.14-.14-.05-.28-.09-.41-.13-.13-.04-.26-.08-.37-.1-.12-.02-.23-.04-.32-.04-.1,0-.18,0-.25,0-.03,0-.06,0-.09.01-.03,0-.05.01-.06.01-.03,0-.05.01-.05.01,0,0,.02,0,.05-.02.01,0,.03-.01.06-.02.02,0,.05-.01.09-.02.06-.01.15-.02.25-.03.36-.06,2.62.64,3.82.85.93-.03,1.84,0,2.72.09-.11-.06-.22-.12-.33-.19-.14-.08-.27-.16-.41-.23-.13-.08-.27-.15-.41-.23-.13-.07-.27-.14-.4-.21-.13-.07-.25-.13-.37-.19-.12-.06-.24-.12-.34-.16-.11-.04-.21-.08-.3-.1-.09-.02-.17-.04-.23-.04-.03,0-.06,0-.08,0-.02,0-.04,0-.06,0-.03,0-.05,0-.05,0,0,0,.02,0,.04,0,.02,0,.03,0,.06,0,.02,0,.05,0,.08,0,.06,0,.14,0,.24.02.25.03,1.54.61,2.61,1.1.02.01.04.02.07.03.12.06.25.11.36.16.02,0,.05.02.07.03.12.05.24.09.35.13.18.03.35.05.53.08,0,0,0,0,0,0,.01,0,.02,0,.03,0,.02,0,.04,0,.06,0,.02,0,.03,0,.04,0,.06,0,.12.02.19.03.07.01.14.02.2.04.06.01.11.02.17.03,0,0,.01,0,.02,0,1.97.4,3.6,1.09,4.37,1.44.02,0,.03.01.04.02.05.02.09.04.13.06Z"/><path class="cls-27" d="M34.05,25.68s-.04.01-.05.02c0,0,0-.01,0-.01,0,0,.02,0,.06,0Z"/><path class="cls-27" d="M61.76,22.73s0,0,0,.01c0,0,0,0,0,0-.18.54-2.91,4.52-13.91,5.83-10.67,1.27-13.68-2.65-13.84-2.89.16,0,2.38,0,5.09-.23.31-.02.63-.05.95-.09.04,0,.07,0,.11-.01h.05c.11-.02.22-.03.33-.04.06,0,.12-.01.17-.02.02,0,.04,0,.06,0,.07,0,.14-.02.22-.02.02,0,.05,0,.07,0,.16-.02.33-.04.49-.06.03,0,.05,0,.08,0,.04,0,.08-.01.12-.02.05,0,.11-.01.16-.02.06,0,.13-.02.19-.02.03,0,.06-.01.09-.01.1-.01.19-.03.29-.04.09-.01.19-.03.28-.04.25-.04.5-.08.74-.12.03,0,.07-.01.1-.02.14-.03.29-.05.43-.08.04,0,.08-.02.12-.02.05-.01.09-.02.14-.03.02,0,.05-.01.07-.01.18-.04.35-.07.52-.11.03,0,.05-.01.08-.02.04,0,.08-.02.11-.03.18-.04.37-.09.54-.14.04,0,.07-.02.11-.03.05-.01.1-.03.15-.04.24-.07.47-.14.69-.21.04-.01.07-.03.11-.04.02,0,.04-.02.07-.02.02,0,.03-.01.05-.02.04-.01.07-.03.11-.04.02,0,.03-.01.05-.02.02,0,.05-.02.07-.03.03-.01.06-.02.1-.04,0,0,.02,0,.03-.01.03-.01.06-.02.09-.04.03-.01.06-.02.08-.03.03-.01.07-.03.1-.04.03-.02.07-.03.1-.04.1-.04.19-.09.29-.13,4.13-1.87,9.89-4.26,13.97-1.16,0,0,0,.13-.02.23Z"/><path class="cls-5" d="M55.57,24.73c.28-1.26-.59-2.38-1.31-3.29-.68.13-1.36.3-2.02.5.02.03.05.05.07.08.69.88.36,1.84.36,2.83,0,.42-.09,1.43-.39,2.1.54-.15,1.11-.24,1.64-.29.07-.04.14-.08.21-.12,0,0,0,.01,0,.02l-.02.06v.02c.16-.01.32-.03.47-.04.09-.08.17-.16.25-.25.03-.03.05-.06.08-.1.03-.03.05-.07.07-.1l.06-.1s.03-.07.05-.1c.04-.08.07-.17.1-.25.04-.04.08-.09.11-.14,0,.02-.01.05-.02.08-.02.08,0,.17.04.23.02.03.05.05.07.06.03.01.05.01.07.02.02,0,.03,0,.04,0h.02s0,0-.01,0c0,0-.02,0-.04-.01-.03-.01-.08-.04-.1-.09-.02-.05,0-.11.02-.18.12-.31.13-.63.2-.94ZM54.52,26.29s-.06.07-.08.1c0-.02,0-.03,0-.05.03-.02.06-.04.09-.06,0,0,0,0-.01.01ZM45.95,24.85c0-.08-.03-.24-.07-.47-.48.14-.99.26-1.51.37-.04.33-.16.61-.34.84-.02.02-.03.04-.05.07-.06.09-.12.17-.18.27-.06.09-.12.19-.18.3-.05.11-.1.22-.14.34v.04s-.02.05-.02.05c0,.03-.01.06-.01.1,0,.03,0,.06,0,.1,0,.03,0,.06,0,.1,0,.03.01.06.02.1v.05s.03.03.04.04c.02.03.03.06.04.09.02.03.04.05.06.08.02.03.04.05.06.07l.03.04.02.02h.02c.04.05.09.09.13.12.08.07.16.13.22.19.03.03.05.06.07.09.01.02.02.05.01.07-.02.04-.08.09-.12.11-.05.02-.09.04-.12.06-.03,0-.04.02-.04.02,0,0,.02,0,.05,0,.03,0,.08,0,.14-.02.03,0,.06-.02.1-.03.04-.02.07-.04.1-.08.02-.02.02-.04.03-.07,0-.02,0-.05,0-.07-.01-.05-.04-.09-.06-.13-.06-.08-.13-.16-.2-.23-.04-.04-.07-.08-.11-.11l-.02-.02h0s-.02-.04-.02-.04c-.01-.02-.03-.04-.04-.06-.05-.08-.08-.17-.1-.26,0-.02,0-.05,0-.07,0-.02,0-.05,0-.07,0-.02,0-.05.01-.07v-.04s.02-.04.02-.04c0-.11.09-.26.14-.35.04-.09.09-.18.13-.26-.07.15-.12.31-.13.48,0,.24.06.47.13.69.04.12.09.24.15.35.29.57.64.86,1.25.55.4-.2.79-.44,1.23-.58-.08-.12-.16-.25-.23-.39-.38-.67-.49-1.82-.49-2.28Z"/><path class="cls-6" d="M50.54,29.09c-.11.11-.21.21-.32.3-.38.35-.55,1-.68,1.67-.04,0-.07,0-.07,0l-.25,1.15-.22-1.21s-.25-.05-.58-.19c-.37-.15-.85-.42-1.21-.85-.08-.1-.19-.21-.3-.33l.12-1.59c.64.85,1.2,1.21,1.61,1.36.11.04.21.07.3.08.02,0,.03,0,.04,0,.18.03.28,0,.28,0h0s.11,0,.11,0c0,0,.47.1,1.18-.4Z"/><path class="cls-26" d="M53.19,18.13h0s0,0,0,0Z"/><path class="cls-11" d="M52.66,24.85c0,.42-.09,1.43-.39,2.1-.03.06-.06.12-.09.18-.01.02-.03.05-.04.07-.01.69,0,1.42.01,1.99-.2.21-.47.5-.82.86-.9.92-1.57,1.01-1.78,1.01.13-.67.3-1.33.68-1.67.1-.1.21-.2.32-.3-.71.49-1.18.4-1.18.4h-.11s0,0,0,0c0,0-.24.05-.62-.09-.4-.15-.97-.51-1.61-1.36-.12-.16-.24-.33-.36-.52-.08-.12-.16-.25-.23-.39-.38-.67-.49-1.82-.49-2.28,0-.08-.03-.24-.07-.47.6-.17,1.16-.37,1.65-.59.09-.04.19-.09.28-.13.29-.13.58-.26.88-.39.54-.24,1.1-.47,1.68-.69.1-.04.2-.08.3-.11.51-.19,1.03-.36,1.55-.52.02.03.05.05.07.08.69.88.36,1.84.36,2.83Z"/><path class="cls-11" d="M48.7,23.27c-.3.13-.6.26-.88.39.29-.13.58-.26.88-.39Z"/><path class="cls-11" d="M51.65,27.96c-.4.55-.78.9-1.1,1.13.42-.4.84-.84,1.1-1.13Z"/><g class="cls-1"><path class="cls-2" d="M52.05,22.36c.81-.17.52.82.52.82,0,0-.44-.16-.81-.16-.36,0-.56.01-.45.06.53.21.69.46.69.47-.03-.02-.13,0-.15,0-.11,0-.22.01-.34.02-.21.01-.42.03-.63-.04-.12-.04-.24-.08-.37-.07-.13.02-.24.09-.37.04-.2-.07-.39-.38-.38-.61,0,0,.75-.21,2.31-.54Z"/></g><path class="cls-28" d="M33.99,25.69s9.34,0,13.54-1.91c4.15-1.89,10.08-4.46,14.25-1.29,0,0,.21-.22.04-.49-.18-.27-.45-.62-2.08-1.16-1.64-.54-4.94-.74-4.94-.74-2.74-.15-.92-3.75-2.59-4.49-1.61-.72-5.76.08-6.99,1.28-1.07,1.04.27,2.91-.79,5.23,0,0-1.64,2.84-7.39,3.16-2.11.12-3.06.42-3.06.42Z"/><path class="cls-23" d="M52.51,30.34c-.2.22-2.43,2.58-3.47,2.58-.88,0-2.55-1.6-3.32-2.38-.07-.18-.1-.29-.1-.29.03-.09.24-.18.27-.28.29-1.03.25-1.1.25-1.1,0,0,.43.4.78.77.11.12.22.24.3.33.36.43.84.69,1.21.85.33.14.58.19.58.19l.22,1.21.25-1.15s.02,0,.07,0c.21,0,.88-.09,1.78-1.01.35-.36.63-.65.82-.86.22-.24.34-.37.34-.37,0,0-.11,1.12.01,1.52Z"/><path class="cls-8" d="M49.41,29.21c.06.1.13.19.19.28-.15.02-.24,0-.24,0h-.11s0,0,0,0c0,0-1.31.27-2.82-2.36-.38-.67-.49-1.82-.49-2.28,0-.08-.03-.24-.07-.47.6-.17,1.16-.37,1.65-.59.75-.34,1.56-.7,2.4-1.03l.05.63s-1.04.43-1.14.85c-.1.43-.81,1.89-.47,1.99.33.1.53-.1.71.62.18.72.09,1.99.33,2.37Z"/><path class="cls-3" d="M61.76,22.73c.02-.09.02-.23.02-.23-4.08-3.1-9.83-.72-13.97,1.16-.1.04-.19.09-.29.13-.03.02-.07.03-.1.04-.06.03-.12.05-.19.08-.03.01-.06.03-.09.04-.04.02-.08.03-.13.05-.02,0-.05.02-.07.03-.05.02-.1.04-.15.06-.02,0-.03.01-.05.02-.06.02-.12.04-.18.06-.22.07-.45.15-.69.21-.05.01-.1.03-.15.04-.04,0-.07.02-.11.03-.18.05-.36.1-.54.14-.06.02-.13.03-.19.04-.17.04-.34.08-.52.11-.02,0-.05,0-.07.01-.08.02-.17.03-.25.05-.14.03-.29.05-.43.08-.03,0-.07.01-.1.02-.25.04-.5.09-.74.12-.04,0-.07,0-.1.02-.06,0-.12.02-.18.03-.1.02-.19.03-.29.04-.09.01-.19.03-.28.04-.05,0-.11.01-.16.02-.07,0-.14.02-.21.03-.16.02-.33.04-.49.06-.02,0-.05,0-.07,0-.07,0-.14.02-.22.02-.02,0-.04,0-.06,0-.06,0-.12.01-.17.02-.11.01-.22.02-.33.04-.05,0-.1.01-.16.02-.32.03-.64.06-.95.09-2.71.22-4.93.23-5.09.23,0,0,0,0,0,0,0,0,.03,0,.05-.02h0c.25-.07,1.2-.3,3-.4,5.75-.32,7.39-3.16,7.39-3.16,1.06-2.31-.28-4.19.79-5.23,1.23-1.19,5.38-2,6.99-1.28,1.67.74-.15,4.34,2.59,4.49,0,0,3.3.21,4.94.74,1.63.53,1.9.89,2.08,1.16.15.23,0,.62-.05.72Z"/><polygon class="cls-4" points="34 25.69 34 25.69 33.99 25.69 34 25.69"/><path class="cls-7" d="M40.71,25.31s.04,0,.06,0c-.08,0-.16.02-.24.03.06,0,.12-.01.17-.02Z"/><path class="cls-19" d="M40.98,25.28s.05,0,.07,0c-.09.01-.19.02-.29.03.07,0,.14-.02.22-.02Z"/><path class="cls-20" d="M42.49,25.08c.09-.01.19-.03.28-.04-.04,0-.07,0-.1.02-.06,0-.12.02-.18.03Z"/><path class="cls-22" d="M61.76,22.73s0,0,0,.01c0,0,0,.01,0,.01-2.19-1.66-4.86-1.82-7.49-1.31-.68.13-1.36.3-2.02.5-.79.24-1.56.52-2.31.81-.74.29-1.45.6-2.11.9,4.13-1.87,9.89-4.26,13.97-1.16,0,0,0,.13-.02.23Z"/><path class="cls-12" d="M23.12,29.04c-.45.29-1.26.85-2.21,1.67-.53-.24-1.32-.67-1.32-.67l-2.15-1.47,4-2.08s1.35,1.82,1.49,2.22c.02.06.09.18.2.33Z"/><path class="cls-30" d="M20.35,31.78s0,0,0,.01c0,0,0,.02-.02.03-.02.03-.05.07-.08.12-.03.06-.05.13-.06.22,0,.04-.01.09-.02.14,0,.05,0,.1,0,.16,0,.11,0,.23.01.35,0,.12.03.26.06.39.03.13.07.27.14.4.04.06.08.13.14.18.06.05.12.1.2.12.14.04.27.09.4.14.13.05.26.1.39.15.25.1.49.19.69.27.2.08.36.15.48.21.06.03.1.05.12.07.01,0,.02.02.03.03,0,0,0,.01,0,.01,0,0,0,0,0-.01,0,0-.01-.02-.03-.03-.03-.02-.07-.05-.12-.08-.11-.06-.27-.15-.46-.24-.2-.09-.43-.19-.68-.3-.13-.05-.25-.1-.39-.15-.13-.05-.27-.1-.41-.15-.13-.04-.22-.14-.29-.26-.07-.12-.11-.25-.14-.38-.06-.26-.09-.51-.09-.72,0-.05,0-.1,0-.15,0-.05,0-.09,0-.14.01-.09.02-.16.05-.22.02-.06.05-.1.07-.13,0-.01.01-.03.02-.03,0,0,0-.01,0-.01Z"/><path class="cls-33" d="M20.37,31.79c.03-.07.02-.11.01-.14.05-.01.14-.05.17-.13.04-.11,0-.22,0-.22l-.04.02s.04.1,0,.19c-.04.09-.17.11-.17.11h-.04s.03.04.03.04c0,0,.03.03,0,.12l.04.02Z"/><path class="cls-30" d="M20.84,30.16s-.02.07-.03.11c0,.04-.01.08-.02.11h0s0,.02,0,.02c0,.01.01.04.02.06,0,.02,0,.04.01.06,0,.02,0,.04.01.06v.06s.01.06.01.06v.02s0,0,0,0h0s0,0,0,0h0s0,.04,0,.04c0,.01,0,.02,0,.03,0,0,0,.02,0,.03,0,.02-.01.04-.02.06-.02.04-.03.08-.06.11-.01.02-.02.04-.03.05-.01.02-.02.04-.04.05-.05.07-.11.14-.17.21.04-.02.08-.05.11-.08.04-.03.07-.06.1-.09.03-.03.06-.07.09-.1.01-.02.03-.04.04-.06.01-.02.02-.04.03-.06.01-.02.02-.05.02-.07,0-.01,0-.03,0-.04,0-.01,0-.03,0-.04v-.03h0s0,0,0,0h0s0-.01,0-.01v-.02s-.01-.07-.01-.07v-.07s-.02-.04-.03-.07c0-.02-.01-.04-.02-.07-.01-.02-.02-.04-.04-.07v.02s0-.07,0-.11c0-.02,0-.04,0-.06,0-.02,0-.04,0-.06Z"/><path class="cls-33" d="M20.87,30.16c.02-.1-.19-.17-.44-.25-.04-.01-.09-.03-.13-.04v.04s.07.03.11.04c.18.06.42.13.41.2h.04Z"/><path class="cls-30" d="M20.13,29.59s0,0,0,.02c0,.01-.01.02-.02.04,0,.02-.02.04-.02.07,0,.03,0,.06.01.09,0,.02.02.03.03.04.01.01.02.02.04.03.01,0,.02.01.04.02.01,0,.02,0,.03,0,.02,0,.04,0,.05,0,.01,0,.02,0,.02,0,0,0,0,0-.01-.01,0,0-.02-.02-.03-.03,0,0-.01-.01-.02-.02,0,0-.02-.01-.02-.02,0,0,0,0-.01-.01,0,0,0,0,0-.01,0,0,0,0,0-.01,0,0,0,0,0-.01,0,0,0-.01,0-.02,0,0,0-.02,0-.03,0-.02,0-.04,0-.06,0-.02,0-.04-.01-.05,0-.01,0-.02,0-.02Z"/><path class="cls-30" d="M20.78,28.83s.04.07.04.11c0,0,0,.02,0,.03,0,0,0,.02-.01.02,0,0,0,0,0,0h-.01s-.01.03-.02.03l-.02.02s-.01.01-.02.02c-.02.01-.03.02-.05.03-.02.01-.04.02-.05.03-.02,0-.04.02-.05.03l-.05.02.03.04s.01.02.01.03c0,0,0,.02,0,.03,0,0,0,.02,0,.02,0,0,0,.01-.02.02,0,0,0,0-.01,0,0,0-.01,0-.02,0-.01,0-.02,0-.03.02-.03.01-.05.02-.08.03-.05.02-.11.04-.16.07-.01,0-.03.02-.04.02-.01,0-.02.02-.04.03-.01,0-.02.02-.03.04,0,0,0,.01,0,.02v.02-.02s.02-.02.02-.02c.01,0,.02-.02.03-.02.01,0,.03-.01.04-.02.01,0,.03,0,.04-.01.03,0,.05-.01.08-.02l.08-.02s.06-.02.09-.02c.01,0,.03,0,.05-.02h.02s.02-.02.02-.03c.01-.01.03-.03.04-.05.01-.02.02-.04.01-.06,0-.02,0-.04-.01-.06,0-.02-.02-.03-.03-.05l-.02.06s.04-.02.06-.03c.02-.01.04-.02.06-.04.02-.01.04-.03.05-.04,0,0,.02-.01.03-.02l.02-.03s.01-.02.02-.03h0s0-.03,0-.03c0-.01,0-.02,0-.04,0-.01,0-.03,0-.04,0-.05-.04-.09-.08-.11Z"/><path class="cls-30" d="M22.57,34.73s-.09,0-.24,0c-.15,0-.37-.01-.64-.02-.13,0-.27,0-.43,0-.15,0-.31,0-.48,0-.17,0-.34,0-.51,0-.17,0-.35,0-.53,0-.18,0-.35,0-.53,0-.17,0-.34,0-.51,0-.17,0-.33,0-.48,0-.15,0-.29,0-.43,0-.26,0-.48.01-.64.02-.15,0-.24,0-.24,0,0,0,.09,0,.24,0,.15,0,.37.01.64.02.13,0,.28,0,.43,0,.15,0,.31,0,.48,0,.17,0,.34,0,.51,0,.17,0,.35,0,.53,0,.18,0,.35,0,.53,0,.17,0,.34,0,.51,0,.16,0,.32,0,.48,0,.15,0,.29,0,.43,0,.26,0,.49-.01.64-.02.15,0,.24,0,.24,0Z"/><path class="cls-21" d="M61.75,59.36c-.41.21-.81.4-1.2.55-2.16.87-3.92.8-5.17-.61-1.47-1.66-1.75-4.54-1.75-4.54,0,0,.92-.5,2.13-1.21,2.32-1.34,5.68-3.41,5.7-4.06.03-1.04-3.18-4.46-4.72-6.04.01-.28.02-.52.01-.73-.02-2.01,1.6-8.27.92-10.08v-.07s.87-.47,2.02-.47c1.15,0,2.18,1.64,2.31,1.93,1.84,3.94,6.6,12.18,7.73,14.65,1.13,2.47-5.27,9.27-7.98,10.68Z"/><path class="cls-16" d="M39.81,41.08c-3.45,1.9-7.01,3.92-8.5,4.61-2.46,1.15-9.3-5.21-10.73-7.92-1.43-2.71-1.72-5.23-.07-6.71.13-.12.27-.24.39-.35.96-.82,1.76-1.38,2.21-1.67.24-.15.37-.23.37-.23,0,0,5.96,8.59,6.96,8.62,1.36.03,4.73-4.89,6.82-5.57.82-.27,2.24-.16,3.76.1-.86.15-1.71.36-1.97.85-.83,1.57.09,5.44.75,8.28Z"/><path class="cls-39" d="M63.79,89.3c-.12.78.36,2.72,1.55,4.47,1.19,1.75.72,4.27-.36,4.56-1.07.29-3.7-1.55-4.29-2.62-.59-1.07-.59-5.34-.71-5.73-.12-.39-3.34-19.13-6.32-20.1-1.09-.35-2.21-.47-3.2-.49-.98.01-2.11.13-3.2.49-2.98.97-6.2,19.72-6.32,20.1-.12.39-.12,4.66-.71,5.73-.6,1.07-3.22,2.91-4.29,2.62-1.07-.29-1.55-2.82-.36-4.56,1.19-1.75,1.67-3.69,1.55-4.47-.12-.78-4.77-11.77-5.6-14.2-.83-2.43,3.14-10.51,6.84-14.98,2.02-2.44,2.84-6.48,3.16-8.02-.08-2.97-1.06-6.87-1.19-8.35-.05-.59-.26-1.55-.52-2.66-.65-2.84-1.58-6.72-.75-8.28.26-.49,1.11-.7,1.97-.85.53-.09,1.08-.16,1.48-.26,1.06-.26,2.79-1.57,2.79-1.57,0,0,.15.17.4.43.77.78,2.44,2.38,3.32,2.38,1.04,0,3.27-2.36,3.47-2.58,0,0,.02-.02.02-.02,0,0,1.74,1.33,2.81,1.61,1.06.28,1.9,0,2.22.47.05.07.09.15.12.24.69,1.81-.94,8.07-.92,10.08,0,.21,0,.45-.01.73-.08,2.33-.55,6.89-.98,10.1-1.21.7-2.13,1.21-2.13,1.21,0,0,.28,2.88,1.75,4.54,1.25,1.41,3.01,1.48,5.17.61.43.27.81.51,1.11.73,4.59,3.28,7.71,7.99,7.31,10.54-1.19,7.51-5.06,17.33-5.18,18.11Z"/><path class="cls-40" d="M60.55,59.92c-2.16.87-3.92.8-5.17-.61-1.47-1.66-1.75-4.54-1.75-4.54,0,0,.92-.5,2.13-1.21-.13.97-.25,1.82-.36,2.44,1.71,1.79,3.72,3.02,5.15,3.92Z"/><path class="cls-12" d="M17.73,25.95s-.24-.44-.26-.73c-.02-.28-.07-.63-.28-.82-.21-.19-.59-.08-.63.07-.04.15-.05.32.2.67.24.35.96.81.96.81Z"/><path class="cls-48" d="M18.87,33.87c.51-.16.55-1.21.53-1.58-.02-.37-.12-.41-.16-.51-.04-.1,0-.14,0-.14,0,0-.14-.02-.18-.12-.04-.1,0-.2,0-.2,0,0-.39-.31-.37-.57.02-.27.08-.35.08-.35,0,0,0-.12-.02-.23-.02-.1.31-.18.55-.27.25-.08.16-.18.16-.31s-.33-.16-.43-.23c-.1-.06-.02-.16-.02-.16,0,0-.18-.08-.25-.18-.06-.1.04-.18.04-.18l-3.11-8.22h8.2l-3.11,8.22s.1.08.04.18c-.06.1-.25.18-.25.18,0,0,.08.1-.02.16-.1.06-.43.1-.43.23s-.08.22.16.31c.25.08.57.16.55.27-.02.1-.02.23-.02.23,0,0,.06.08.08.35.02.27-.37.57-.37.57,0,0,.04.1,0,.2-.04.1-.18.12-.18.12,0,0,.04.04,0,.14-.04.1-.14.14-.16.51-.02.37.02,1.41.53,1.58.51.16,2.04.78,2.1.92.06.14.02.14-.04.16-.05.02-2.35,0-2.99,0-.64,0-2.93.02-2.99,0-.06-.02-.1-.02-.04-.16.06-.14,1.59-.76,2.1-.92Z"/><path class="cls-30" d="M21.34,27.35l-.04.12s0,0,0,0c0-.05.01-.09.05-.11Z"/><path class="cls-30" d="M21.24,27.62s0-.04.02-.05l-.02.05Z"/><path class="cls-12" d="M21.4,27.09c.08,1.56.24,2.31.53,2.81.29-.2,1.12-.59,1.13-1.53,0-.34.02-.55-.37-1.31-.39-.75-.55-1.21-.55-1.21,0,0-.17-.76-.24-.87-.07-.11-.35-.45-.35-.45,0,0-.26-1.04-.48-.92-.31.16-.38.56-.14,1.22.12.33.25.6.27.73.09.55.17.99.2,1.53Z"/><path class="cls-12" d="M17.14,27.8s-.33.29-.17.6c.16.31.58.41,1.07.38.49-.03.71,0,.9-.13.08-.06.14-.27.03-.5-.2-.4-1.7-.48-1.7-.48l-.12.13Z"/><path class="cls-12" d="M17.1,26.62s-.26.1-.3.37c-.04.27.02.4.34.59.33.19,1.4.47,1.82.28.12-.05.22-.29.15-.51-.07-.22-1.13-.58-1.13-.58l-.89-.16Z"/><path class="cls-12" d="M17.18,25.48s-.3.28-.28.59c.02.3.14.52.53.69.39.17.59.39.77.28.19-.11.38-.2.26-.53-.12-.33-.97-.73-.97-.73l-.07-.13-.25-.16Z"/><path class="cls-41" d="M60.39,64.91c-1.75-5.24-4.76-7.46-4.76-7.46l-5.55-.63h-.39l-5.55.63s-3.01,2.22-4.76,7.46c-1.75,5.24-3.17,9.2-2.54,14.44.63,5.24,2.22,7.3,3.33,10,1.11,2.7,1.59,3.97,4.44,3.81,2.86-.16,3.97-.63,5.08-.63h.39c1.11,0,2.22.48,5.08.63,2.86.16,3.33-1.11,4.44-3.81,1.11-2.7,2.7-4.76,3.33-10,.63-5.24-.79-9.2-2.54-14.44Z"/><path class="cls-18" d="M50.2,124.23s.18-3.31-.63-7.51c-.8-4.2,0-6.52.09-8.49.09-1.97-1.17-2.8-1.25-7.24-.06-2.94.62-5.65.62-5.65,0,0,.34-1.21.61-2.83-1.1.01-2.22.48-5.04.63-.69.04-1.23,0-1.69-.13.2.59.45,1.23.76,1.99,1.52,3.75,1.97,6.97,1.79,10.55-.18,3.57.89,5.18,1.7,8.22.8,3.04-.27,6.82-.36,8.79-.09,1.97.27.95-.35,2.56-.63,1.61-.54,3.31-.54,3.31,0,0,1.13,1.47,3.1,1.47s2.39-2.03,2.39-2.03c0,0-.13-.96-.4-2.22-.27-1.25-.8-1.43-.8-1.43Z"/><path class="cls-15" d="M39.9,88.31c1.09,3.94,1.25,6.88-.36,10.67-1.45,3.4-2.47,4.75-.57,7.99,2.09,3.57,2.31,6.41,3.57,10.25.88,2.69,5.1,8.13,7.17,2.5,2.04-5.53-3.78-3.02-5.56-5.37-2.46-3.25,1.28-6.86,1.23-11-.03-2.34-3.72-2.36,1.51-8.44,1.69-1.97,1.43-2.24,1.43-2.24,0,0-3.85,1.01-8.41-4.33v-.03Z"/><path class="cls-17" d="M44.14,114.35c-2.11-2.79.39-6.29,1.15-9.79-1.73,1.28-3.25,1.71-5.07,1.66-.63-.01-1.32-.34-2.01-.8.17.47.41.98.74,1.55,2.09,3.57,2.31,6.41,3.57,10.25.88,2.69,5.1,8.13,7.17,2.5,2.04-5.53-3.78-3.02-5.56-5.37Z"/><path class="cls-14" d="M51.9,92.71s1.13,1.98,1.41,4.05c.28,2.07.76,3.75.76,3.75,0,0,.71,2.86.65,5.96-.09,4.68-1.41,5.56-1.32,7.64.09,2.07.94,4.53.09,8.96-.85,4.43-.66,7.92-.66,7.92,0,0-.57.19-.85,1.51-.28,1.32-.57,3.68-.57,3.68,0,0-.38.85,1.7.85s4.24-1.6,4.24-1.6c0,0,.09-1.79-.57-3.49-.66-1.7-.28-.63-.37-2.7-.09-2.07-1.23-6.07-.38-9.27.85-3.21,1.98-4.9,1.79-8.68-.19-3.77.28-7.17,1.89-11.13,1.6-3.96,1.7-5.09,1.6-9.05-.09-3.96-.28-6.98-.28-6.98,0,0-2.17,2.55-4.34,4.71-2.17,2.17-4.81,3.87-4.81,3.87Z"/><path class="cls-46" d="M38.06,84.65l-.08-.25c1.14.82,3.53,1.17,5.6.7,2.05-.46,3.75-1.52,4.44-2.77l.86.47c-.83,1.5-2.73,2.72-5.08,3.25-.8.18-3.79.21-5.74-1.41Z"/><path class="cls-46" d="M61.74,84.65l.08-.25c-1.14.82-3.53,1.17-5.6.7-2.05-.46-3.75-1.52-4.44-2.77l-.86.47c.83,1.5,2.73,2.72,5.08,3.25.8.18,3.79.21,5.74-1.41Z"/><path class="cls-46" d="M49.29,83.04c-3.29-.88-6.39-3.9-8.49-8.29-2.13-4.44-2.12-9.05-.96-11.69l.21.1c-1.02,2.32-.18,7,1.78,11.09,1.96,4.09,4.79,6.89,7.76,7.68l-.3,1.1Z"/><path class="cls-46" d="M50.47,83.04c3.29-.88,6.39-3.9,8.49-8.29,2.13-4.44,2.12-9.05.96-11.69l-.21.1c1.02,2.32.18,7-1.78,11.09-1.96,4.09-4.79,6.89-7.76,7.68l.3,1.1Z"/><path class="cls-35" d="M74.37,59.24c.36.09.73.16,1.09.17-.3.01-.67-.05-1.09-.17Z"/><path class="cls-35" d="M85.99,79.55c-.09-.01-.19-.01-.3-.03-.11-.02-.23-.04-.36-.06-.13-.02-.27-.04-.41-.08-.14-.04-.3-.08-.46-.12-.65-.18-1.41-.47-2.25-.89-.81-.4-1.69-.93-2.66-1.48.25.13.49.25.73.38-1.06-.8-2.56-1.79-4.23-2.82.45.02.89.03,1.31.02.87-.01,1.66-.05,2.36-.1.7-.05,1.31-.1,1.81-.14.5-.04.9-.07,1.17-.08.27-.02.41-.03.41-.03,0,0-.14,0-.41.01-.27,0-.67.02-1.17.04-.5.02-1.12.05-1.82.07-.7.03-1.49.04-2.35.02-.58-.01-1.2-.05-1.83-.13-1.77-1.07-3.68-2.17-5.45-3.1.11.02.22.05.33.07.14.02.28.05.42.07.28.04.56.09.84.13.28.03.56.07.83.1.37.04.73.08,1.09.13.59.15,1.12.22,1.56.3.27.04.51.09.71.13.21.05.38.08.52.12.02,0,.03,0,.05.01.06.17.09.27.09.27,0,0,.01-.08,0-.24.19.06.3.09.3.09,0,0-.1-.03-.3-.1,0-.04-.01-.08-.02-.13.04,0,.08.02.12.02.04.01.07.02.11.04.2.07.4.13.59.2.19.06.38.1.56.15.35.07.68.12.99.15.67.19,1.28.38,1.83.58.17.06.33.12.49.17.16.06.3.12.45.18.29.12.55.22.79.32.47.2.83.38,1.08.49.25.12.38.18.38.18,0,0-.13-.07-.38-.19-.25-.12-.6-.31-1.07-.53-.23-.1-.49-.22-.78-.35-.14-.06-.29-.13-.44-.19-.16-.06-.32-.12-.48-.19-.33-.14-.69-.27-1.07-.4.05,0,.11,0,.16.01.27.02.51.04.72.06.21.03.39.04.53.07.28.06.44.08.44.08,0,0-.15-.03-.44-.09-.14-.03-.32-.05-.53-.08-.21-.03-.45-.05-.72-.07-.08,0-.17-.01-.26-.02-.35-.12-.71-.24-1.09-.36-.21-.06-.43-.12-.65-.19-.22-.06-.44-.13-.68-.18-.23-.05-.47-.11-.71-.17,0,0-.02,0-.03,0-.22-.59-.77-1.54-2.17-2.86l.31.04.25.03h.06s.07.01.07.01h.12s.49.05.49.05l.49.04.5.02c.67.04,1.33.05,1.99.07.66.01,1.32.03,1.98.05.33,0,.66.03.99.04.33.02.66.03.99.07l.49.04c.16.01.33.03.49.05,0,0,.74.1.94.12,0,0-.02-.01-.03-.02l-.9-.16c-.16-.03-.33-.05-.49-.07l-.49-.06c-.33-.05-.66-.08-.99-.11-.33-.03-.66-.06-.99-.09-.66-.05-1.32-.1-1.98-.14-.66-.05-1.32-.09-1.97-.16l-.49-.04-.49-.06-.49-.06h-.12s-.06-.02-.06-.02h-.06s-.24-.05-.24-.05l-.96-.17h-.04c-1.14-.99-2.71-2.13-4.89-3.45h.03s.01.02.01.02h.02s.02.02.02.02l.05.02.19.07c.13.04.26.09.39.13.06.02.13.04.2.06l.2.05c1.08.28,2.14.34,3.15.31.53-.02,1.04-.06,1.53-.12.03,0,.06,0,.09,0,.43,0,.85-.02,1.24-.01.39,0,.77.01,1.11.02.7,0,1.31.01,1.81.03.5,0,.9.04,1.17.05.27.01.41.02.41.02,0,0-.14-.01-.41-.04-.27-.02-.66-.07-1.16-.09-.5-.03-1.11-.06-1.81-.09-.35-.02-.72-.04-1.11-.06-.04,0-.09,0-.14,0,.02,0,.05,0,.07-.01.85-.16,1.63-.33,2.31-.5.29-.07.56-.14.81-.2.28.05.55.11.8.18.85.22,1.56.53,2.11.85.55.31.94.63,1.2.85.25.23.38.36.38.36,0,0-.13-.13-.37-.37-.25-.23-.63-.56-1.18-.89-.54-.33-1.25-.67-2.11-.92-.17-.05-.34-.1-.52-.14.23-.06.44-.11.64-.16.49-.12.87-.22,1.14-.28.26-.06.4-.1.4-.1,0,0-.14.03-.41.08-.26.05-.65.13-1.15.24-.25.05-.52.11-.81.17-.68-.16-1.43-.27-2.24-.34-1.09-.1-2.28-.11-3.53-.12-.77,0-1.56,0-2.37-.01-.06-.04-.12-.08-.18-.12-.42-.3-.81-.64-1.21-.99-.79-.72-1.55-1.52-2.32-2.35-.58-.63-1.18-1.25-1.79-1.88.27.06.53.12.79.18.5.41,1.02.81,1.53,1.17.24.16.48.33.72.48.24.15.48.3.72.45.49.27.96.55,1.45.77.95.49,1.92.81,2.82,1.02.11.03.23.05.34.08.11.02.22.04.33.07.09.02.18.03.26.05.16.26.24.42.24.42,0,0,0-.14-.11-.4.08.01.16.03.24.04.21.04.41.06.61.09.2.03.39.04.58.06.76.03,1.41-.06,1.95-.11.27-.03.51-.05.72-.06.21,0,.39-.02.53-.02.29,0,.44,0,.44,0,0,0-.16,0-.44-.02-.15,0-.32,0-.53.01-.21,0-.45.03-.72.05-.54.04-1.2.13-1.95.09-.19-.02-.38-.03-.58-.07-.2-.03-.4-.06-.61-.1-.1-.02-.19-.04-.29-.05-.07-2.46-5.7-5.49-13.65-8.4,2.25.05,7.47,2.41,9.58,3.29,1.23.52,2.61,1.3,3.98,1.65-2.49-.71-6.76-3.37-8.31-4.36-.9-.58-1.78-1.25-2.68-1.93-.9-.69-1.83-1.37-2.76-2.05-1.75-1.28-4.07-2.36-6.34-3.54.22.66.2,1.41.19,2.16.06.05.12.09.16.13.09.07.13.12.13.12,0,0-.06-.02-.17-.07-.04-.01-.08-.03-.12-.05,0,.52,0,1.04.1,1.52.3,1.35,1.01,2.65,1.06,4.06,0,.13-.01.3-.05.53-.08,1.43-.45,4.81-.63,5.92,0,.15,0,.27-.04.38-.05.15-.14.49-.31,1.27,1.55,2.93,2.89,5.97,4.1,9.07.53,1.35,1.12,2.74,1.9,4.07.78,1.32,1.74,2.59,2.94,3.6.15.13.3.25.46.37l.23.18c.08.06.16.11.24.16l.24.16.13.08.12.07.5.29c.7.37,1.41.67,2.13.93,1.45.51,2.91.82,4.31,1.16,1.4.34,2.74.72,3.93,1.27,1.54.71,3.07,1.84,4.45,2.59-2.82-3-5.57-6.45-9.52-8.01.1.04.21.08.31.12.14.05.27.09.41.14.27.09.54.18.81.27.27.08.54.16.8.24.36.1.71.21,1.05.31.55.25,1.06.4,1.49.55.26.09.49.17.68.24.19.08.36.14.49.21.26.13.4.19.4.19,0,0-.14-.07-.4-.21-.13-.07-.29-.13-.49-.22-.19-.08-.42-.17-.68-.27-.2-.08-.42-.16-.65-.25,0,0,.01,0,.02,0,.12.04.25.08.37.12.24.08.48.16.72.24.24.07.47.16.7.25.23.09.45.17.67.26.22.08.43.18.64.27.21.09.41.18.62.27.79.37,1.52.72,2.14,1.08.16.09.31.17.45.25.15.08.28.17.41.25.26.16.5.31.72.45.43.28.76.51.99.67.23.16.35.24.35.24,0,0-.12-.09-.34-.25-.22-.16-.54-.41-.96-.7-.21-.14-.45-.3-.71-.47-.13-.08-.26-.18-.4-.27-.14-.09-.29-.17-.45-.27-.61-.38-1.32-.76-2.11-1.16-.2-.09-.4-.19-.61-.29-.21-.1-.42-.2-.64-.29-.22-.09-.44-.19-.67-.28-.23-.1-.46-.19-.7-.28-.24-.09-.48-.18-.72-.27-.12-.04-.24-.09-.37-.14-.12-.04-.25-.08-.37-.12-.5-.17-1.02-.34-1.54-.51-.02,0-.05-.02-.07-.02-.09-.07-.19-.13-.28-.2-.17-.13-.35-.25-.52-.39-.18-.13-.35-.28-.53-.42-.72-.59-1.42-1.3-2.05-2.15-.43-.57-.85-1.17-1.25-1.82.18.02.37.04.55.06.33.22.67.44,1,.66l.86.52c.14.09.29.17.44.25l.44.24c.15.08.29.16.44.23l.46.21c.31.14.6.29.92.41l.94.36.96.3.24.07.06.02.07.02.12.03.48.12.48.12.49.11c.65.15,1.3.27,1.95.4.65.13,1.3.25,1.94.38.32.06.65.14.97.21.32.07.65.14.96.23l.48.12c.16.04.32.08.48.13,0,0,.95.3.95.29.03-.03.06-.06.06-.1,0-.04-.01-.08-.03-.12.02.04.03.08.02.12,0,.04-.03.07-.06.1l-.93-.33c-.16-.06-.31-.11-.47-.15l-.47-.14c-.31-.1-.63-.19-.95-.27-.32-.09-.64-.17-.96-.25-.64-.16-1.28-.31-1.93-.47-.64-.16-1.28-.31-1.92-.48l-.48-.13-.47-.14-.47-.14-.12-.04-.05-.02-.06-.02-.23-.08-.92-.33-.9-.39c-.3-.12-.59-.29-.88-.43l-.43-.23c-.14-.08-.28-.16-.42-.25l-.42-.25c-.14-.08-.28-.17-.41-.26l-.78-.51c.47.03.94.06,1.4.1,1.43.1,2.82.25,4.09.59,1.27.33,2.39.9,3.4,1.44,1.01.55,1.93,1.08,2.78,1.48.85.41,1.62.68,2.28.85.16.04.32.08.46.11.15.03.29.05.42.07.13.02.25.04.36.06.11.02.21.02.3.03.36.03.55.04.55.04,0,0-.19-.02-.55-.05ZM77.77,72.22c.22.05.44.11.65.16.08.02.15.04.22.06-.24-.03-.48-.07-.74-.13-.18-.05-.37-.1-.56-.16-.08-.03-.17-.06-.25-.09.23.04.46.1.68.16ZM71.67,60.25c1.37.69,2.23,1.78,2.64,2.42-.06-.01-.13-.03-.19-.04-.11-.02-.22-.05-.33-.07-.11-.03-.22-.05-.33-.08-.9-.22-1.85-.55-2.79-1.05-.48-.23-.95-.51-1.43-.79-.23-.15-.47-.3-.71-.45-.24-.15-.47-.33-.71-.49-.4-.29-.8-.6-1.2-.92,2.32.55,4.22,1.05,5.05,1.47ZM71.76,70.83c-.27-.05-.54-.11-.82-.16-.14-.03-.28-.05-.41-.08-.14-.03-.27-.07-.41-.1-.27-.07-.55-.14-.83-.21-.53-.15-1.06-.32-1.58-.5-.31-.36-.61-.72-.91-1.1-.65-.8-1.3-1.61-1.94-2.4-.15-.34-.3-.67-.44-1.01,0-.02-.02-.05-.03-.07.25.12.51.24.76.37.22.11.44.22.66.33.08.1.17.21.25.32.75.91,1.56,1.71,2.37,2.42.8.72,1.66,1.3,2.49,1.73.21.11.41.22.61.31.13.07.26.13.4.19-.06,0-.11-.02-.17-.03ZM66.12,70.95c.13.29.26.57.39.85-.69-.53-1.38-1.05-2.06-1.58-.02-.05-.03-.09-.05-.14.55.3,1.12.59,1.72.87ZM65.76,68.53c.17.19.34.39.51.58.01.02.03.04.05.05-.02-.01-.05-.02-.07-.03-.15-.17-.3-.34-.45-.51-.01-.03-.02-.06-.04-.09ZM66.81,73.11c.2.14.4.29.6.43.07.12.13.24.2.35.05.09.11.18.16.27-.08-.01-.15-.03-.23-.04-1.7-.33-2.13-.63-2.6-2.33.63.44,1.25.87,1.87,1.32ZM72.57,70.96s-.05,0-.07-.01c-.1-.05-.2-.1-.31-.15-.19-.09-.38-.19-.58-.3-.2-.1-.39-.21-.59-.33-.8-.46-1.62-1.04-2.38-1.78-.66-.62-1.32-1.3-1.94-2.06.07.04.15.07.22.11.6.29,1.21.55,1.83.82l.93.37c.15.06.31.12.47.17l.07.02s.06.06.09.09c.21.2.41.41.63.6.21.19.43.38.64.56.44.35.86.7,1.3,1,.72.54,1.48.97,2.21,1.3-.05,0-.09-.02-.14-.03-.13-.02-.26-.05-.39-.07-.13-.02-.26-.04-.39-.06-.52-.08-1.06-.16-1.6-.24ZM76.39,71.93s.04.09.05.13c-.01,0-.02,0-.04-.01-.14-.05-.31-.08-.52-.14-.21-.05-.44-.1-.71-.15-.21-.04-.44-.09-.68-.14,0,0,.01,0,.02,0,.13.02.26.04.38.06.25.04.5.08.75.12.25.03.49.08.73.13,0,0,0,0,0,0ZM73.55,68.69l.21.03c.14.09.27.17.38.25,1.13.83,1.78,1.92,2.11,2.63-.18-.04-.36-.08-.54-.11-.08-.01-.16-.03-.23-.04-.84-.36-1.7-.84-2.52-1.48-.43-.31-.85-.66-1.28-1.01-.21-.19-.41-.37-.63-.57-.16-.14-.31-.29-.46-.45h.04c.16.07.32.12.48.17l.48.13c.32.08.64.19.97.25l.98.2ZM71.82,67.72s-.04-.01-.06-.02l-.46-.15c-.15-.05-.31-.11-.46-.17l-.46-.17c-.15-.06-.3-.12-.45-.18l-.33-.14c-.06-.07-.13-.14-.19-.21.88.37,1.7.73,2.41,1.06ZM69,66.49c.06.07.12.13.18.2l-.15-.07c-.5-.24-1-.48-1.49-.74.5.21.99.41,1.46.61ZM73.26,64.17c1.25-.03,2.43-.05,3.51.01.66.04,1.29.1,1.88.2-.19.04-.38.08-.59.12-.69.14-1.47.28-2.32.41-.5.07-1.03.13-1.58.17-.29-.02-.58-.06-.86-.11-.11-.03-.22-.04-.33-.08-.11-.04-.23-.07-.34-.11-.1-.04-.21-.09-.32-.13-.05-.02-.11-.04-.16-.07l-.16-.08c-.17-.08-.34-.18-.51-.28.61-.01,1.21-.03,1.79-.05ZM70.82,64.23c.33.21.68.4,1.03.55l.17.08c.06.02.12.04.17.07.12.04.23.09.35.13.08.02.15.04.23.06-.91-.02-1.88-.13-2.81-.4l-.19-.05c-.06-.02-.13-.03-.19-.06-.13-.05-.25-.1-.38-.15l-.19-.07-.05-.02s-.02,0-.03-.01h-.01s-.09-.05-.09-.05c-.11-.05-.23-.11-.34-.16.1.01.2.02.31.03.17.01.34.03.51.03.51.02,1.01.03,1.5.03ZM76.49,84.83c-.18-.1-.36-.2-.55-.29-1.2-.58-2.55-.99-3.95-1.36-1.4-.37-2.85-.71-4.25-1.24-.7-.26-1.39-.58-2.04-.94l-.49-.3-.12-.07-.11-.08-.23-.16c-.08-.05-.16-.11-.23-.16l-.22-.18c-.15-.11-.3-.23-.43-.36-1.14-.99-2.04-2.23-2.77-3.53-.73-1.3-1.29-2.67-1.78-4.02-.42-1.14-.88-2.22-1.31-3.26.85,1.33,1.81,2.55,2.73,3.26.01.01.02.02.03.04.25.49.53.97.83,1.43,2.42,3.8,9.13,7.33,14.91,11.2ZM69.54,76.68c.67.85,1.42,1.56,2.16,2.12.18.14.37.28.55.41.12.09.24.17.36.25-.05-.02-.11-.03-.16-.05-.26-.1-.52-.2-.78-.3-.13-.05-.26-.1-.39-.15-.13-.05-.26-.1-.4-.15-1.31-.53-2.5-1.22-3.43-2.31-.46-.54-.88-2.15-1.58-2.35.53.15,1.06.27,1.6.36.19.03.37.06.56.09.48.75.99,1.44,1.51,2.08ZM68.22,74.12c.07.05.13.1.2.14,0,0,0,0,0,0-.04,0-.09-.01-.14-.02-.02-.04-.05-.08-.08-.13ZM76.05,75.31c-1.28-.38-2.68-.55-4.12-.68-.65-.06-1.3-.11-1.96-.18-.37-.26-.73-.53-1.09-.81-.51-.38-1.01-.79-1.51-1.18-.18-.38-.35-.78-.52-1.18,1.08.5,2.23,1,3.39,1.49.06.04.11.07.17.11l.09.06h.01s.02.02.02.02h.02s.04.04.04.04l.18.1c.12.07.24.13.36.2.06.03.12.06.19.09l.19.08c.61.27,1.22.47,1.83.61,1.11.46,2.21.93,3.3,1.42-.19-.07-.39-.13-.59-.19Z"/><path class="cls-32" d="M74.37,59.24c.36.09.73.16,1.09.17-.3.01-.67-.05-1.09-.17Z"/><path class="cls-36" d="M85.99,79.55c-.09-.01-.19-.01-.3-.03-.11-.02-.23-.04-.36-.06-.13-.02-.27-.04-.41-.08-.14-.04-.3-.08-.46-.12-.65-.18-1.41-.47-2.25-.89-.81-.4-1.69-.93-2.66-1.48.25.13.49.25.73.38-1.06-.8-2.56-1.79-4.23-2.82.45.02.89.03,1.31.02.87-.01,1.66-.05,2.36-.1.7-.05,1.31-.1,1.81-.14.5-.04.9-.07,1.17-.08.27-.02.41-.03.41-.03,0,0-.14,0-.41.01-.27,0-.67.02-1.17.04-.5.02-1.12.05-1.82.07-.7.03-1.49.04-2.35.02-.58-.01-1.2-.05-1.83-.13-1.77-1.07-3.68-2.17-5.45-3.1.11.02.22.05.33.07.14.02.28.05.42.07.28.04.56.09.84.13.28.03.56.07.83.1.37.04.73.08,1.09.13.59.15,1.12.22,1.56.3.27.04.51.09.71.13.21.05.38.08.52.12.02,0,.03,0,.05.01.06.17.09.27.09.27,0,0,.01-.08,0-.24.19.06.3.09.3.09,0,0-.1-.03-.3-.1,0-.04-.01-.08-.02-.13.04,0,.08.02.12.02.04.01.07.02.11.04.2.07.4.13.59.2.19.06.38.1.56.15.35.07.68.12.99.15.67.19,1.28.38,1.83.58.17.06.33.12.49.17.16.06.3.12.45.18.29.12.55.22.79.32.47.2.83.38,1.08.49.25.12.38.18.38.18,0,0-.13-.07-.38-.19-.25-.12-.6-.31-1.07-.53-.23-.1-.49-.22-.78-.35-.14-.06-.29-.13-.44-.19-.16-.06-.32-.12-.48-.19-.33-.14-.69-.27-1.07-.4.05,0,.11,0,.16.01.27.02.51.04.72.06.21.03.39.04.53.07.28.06.44.08.44.08,0,0-.15-.03-.44-.09-.14-.03-.32-.05-.53-.08-.21-.03-.45-.05-.72-.07-.08,0-.17-.01-.26-.02-.35-.12-.71-.24-1.09-.36-.21-.06-.43-.12-.65-.19-.22-.06-.44-.13-.68-.18-.23-.05-.47-.11-.71-.17,0,0-.02,0-.03,0-.22-.59-.77-1.54-2.17-2.86l.31.04.25.03h.06s.07.01.07.01h.12s.49.05.49.05l.49.04.5.02c.67.04,1.33.05,1.99.07.66.01,1.32.03,1.98.05.33,0,.66.03.99.04.33.02.66.03.99.07l.49.04c.16.01.33.03.49.05,0,0,.74.1.94.12,0,0-.02-.01-.03-.02l-.9-.16c-.16-.03-.33-.05-.49-.07l-.49-.06c-.33-.05-.66-.08-.99-.11-.33-.03-.66-.06-.99-.09-.66-.05-1.32-.1-1.98-.14-.66-.05-1.32-.09-1.97-.16l-.49-.04-.49-.06-.49-.06h-.12s-.06-.02-.06-.02h-.06s-.24-.05-.24-.05l-.96-.17h-.04c-1.14-.99-2.71-2.13-4.89-3.45h.03s.01.02.01.02h.02s.02.02.02.02l.05.02.19.07c.13.04.26.09.39.13.06.02.13.04.2.06l.2.05c1.08.28,2.14.34,3.15.31.53-.02,1.04-.06,1.53-.12.03,0,.06,0,.09,0,.43,0,.85-.02,1.24-.01.39,0,.77.01,1.11.02.7,0,1.31.01,1.81.03.5,0,.9.04,1.17.05.27.01.41.02.41.02,0,0-.14-.01-.41-.04-.27-.02-.66-.07-1.16-.09-.5-.03-1.11-.06-1.81-.09-.35-.02-.72-.04-1.11-.06-.04,0-.09,0-.14,0,.02,0,.05,0,.07-.01.85-.16,1.63-.33,2.31-.5.29-.07.56-.14.81-.2.28.05.55.11.8.18.85.22,1.56.53,2.11.85.55.31.94.63,1.2.85.25.23.38.36.38.36,0,0-.13-.13-.37-.37-.25-.23-.63-.56-1.18-.89-.54-.33-1.25-.67-2.11-.92-.17-.05-.34-.1-.52-.14.23-.06.44-.11.64-.16.49-.12.87-.22,1.14-.28.26-.06.4-.1.4-.1,0,0-.14.03-.41.08-.26.05-.65.13-1.15.24-.25.05-.52.11-.81.17-.68-.16-1.43-.27-2.24-.34-1.09-.1-2.28-.11-3.53-.12-.77,0-1.56,0-2.37-.01-.06-.04-.12-.08-.18-.12-.42-.3-.81-.64-1.21-.99-.79-.72-1.55-1.52-2.32-2.35-.58-.63-1.18-1.25-1.79-1.88.27.06.53.12.79.18.5.41,1.02.81,1.53,1.17.24.16.48.33.72.48.24.15.48.3.72.45.49.27.96.55,1.45.77.95.49,1.92.81,2.82,1.02.11.03.23.05.34.08.11.02.22.04.33.07.09.02.18.03.26.05.16.26.24.42.24.42,0,0,0-.14-.11-.4.08.01.16.03.24.04.21.04.41.06.61.09.2.03.39.04.58.06.76.03,1.41-.06,1.95-.11.27-.03.51-.05.72-.06.21,0,.39-.02.53-.02.29,0,.44,0,.44,0,0,0-.16,0-.44-.02-.15,0-.32,0-.53.01-.21,0-.45.03-.72.05-.54.04-1.2.13-1.95.09-.19-.02-.38-.03-.58-.07-.2-.03-.4-.06-.61-.1-.1-.02-.19-.04-.29-.05-.07-2.46-5.7-5.49-13.65-8.4,2.25.05,7.47,2.41,9.58,3.29,1.23.52,2.61,1.3,3.98,1.65-2.49-.71-6.76-3.37-8.31-4.36-.9-.58-1.78-1.25-2.68-1.93-.9-.69-1.83-1.37-2.76-2.05-1.75-1.28-4.07-2.36-6.34-3.54.22.66.2,1.41.19,2.16.06.05.12.09.16.13.09.07.13.12.13.12,0,0-.06-.02-.17-.07-.04-.01-.08-.03-.12-.05,0,.52,0,1.04.1,1.52.3,1.35,1.01,2.65,1.06,4.06,0,.13-.01.3-.05.53-.08,1.43-.45,4.81-.63,5.92,0,.15,0,.27-.04.38-.05.15-.14.49-.31,1.27,1.55,2.93,2.89,5.97,4.1,9.07.53,1.35,1.12,2.74,1.9,4.07.78,1.32,1.74,2.59,2.94,3.6.15.13.3.25.46.37l.23.18c.08.06.16.11.24.16l.24.16.13.08.12.07.5.29c.7.37,1.41.67,2.13.93,1.45.51,2.91.82,4.31,1.16,1.4.34,2.74.72,3.93,1.27,1.54.71,3.07,1.84,4.45,2.59-2.82-3-5.57-6.45-9.52-8.01.1.04.21.08.31.12.14.05.27.09.41.14.27.09.54.18.81.27.27.08.54.16.8.24.36.1.71.21,1.05.31.55.25,1.06.4,1.49.55.26.09.49.17.68.24.19.08.36.14.49.21.26.13.4.19.4.19,0,0-.14-.07-.4-.21-.13-.07-.29-.13-.49-.22-.19-.08-.42-.17-.68-.27-.2-.08-.42-.16-.65-.25,0,0,.01,0,.02,0,.12.04.25.08.37.12.24.08.48.16.72.24.24.07.47.16.7.25.23.09.45.17.67.26.22.08.43.18.64.27.21.09.41.18.62.27.79.37,1.52.72,2.14,1.08.16.09.31.17.45.25.15.08.28.17.41.25.26.16.5.31.72.45.43.28.76.51.99.67.23.16.35.24.35.24,0,0-.12-.09-.34-.25-.22-.16-.54-.41-.96-.7-.21-.14-.45-.3-.71-.47-.13-.08-.26-.18-.4-.27-.14-.09-.29-.17-.45-.27-.61-.38-1.32-.76-2.11-1.16-.2-.09-.4-.19-.61-.29-.21-.1-.42-.2-.64-.29-.22-.09-.44-.19-.67-.28-.23-.1-.46-.19-.7-.28-.24-.09-.48-.18-.72-.27-.12-.04-.24-.09-.37-.14-.12-.04-.25-.08-.37-.12-.5-.17-1.02-.34-1.54-.51-.02,0-.05-.02-.07-.02-.09-.07-.19-.13-.28-.2-.17-.13-.35-.25-.52-.39-.18-.13-.35-.28-.53-.42-.72-.59-1.42-1.3-2.05-2.15-.43-.57-.85-1.17-1.25-1.82.18.02.37.04.55.06.33.22.67.44,1,.66l.86.52c.14.09.29.17.44.25l.44.24c.15.08.29.16.44.23l.46.21c.31.14.6.29.92.41l.94.36.96.3.24.07.06.02.07.02.12.03.48.12.48.12.49.11c.65.15,1.3.27,1.95.4.65.13,1.3.25,1.94.38.32.06.65.14.97.21.32.07.65.14.96.23l.48.12c.16.04.32.08.48.13,0,0,.95.3.95.29.03-.03.06-.06.06-.1,0-.04-.01-.08-.03-.12.02.04.03.08.02.12,0,.04-.03.07-.06.1l-.93-.33c-.16-.06-.31-.11-.47-.15l-.47-.14c-.31-.1-.63-.19-.95-.27-.32-.09-.64-.17-.96-.25-.64-.16-1.28-.31-1.93-.47-.64-.16-1.28-.31-1.92-.48l-.48-.13-.47-.14-.47-.14-.12-.04-.05-.02-.06-.02-.23-.08-.92-.33-.9-.39c-.3-.12-.59-.29-.88-.43l-.43-.23c-.14-.08-.28-.16-.42-.25l-.42-.25c-.14-.08-.28-.17-.41-.26l-.78-.51c.47.03.94.06,1.4.1,1.43.1,2.82.25,4.09.59,1.27.33,2.39.9,3.4,1.44,1.01.55,1.93,1.08,2.78,1.48.85.41,1.62.68,2.28.85.16.04.32.08.46.11.15.03.29.05.42.07.13.02.25.04.36.06.11.02.21.02.3.03.36.03.55.04.55.04,0,0-.19-.02-.55-.05ZM77.77,72.22c.22.05.44.11.65.16.08.02.15.04.22.06-.24-.03-.48-.07-.74-.13-.18-.05-.37-.1-.56-.16-.08-.03-.17-.06-.25-.09.23.04.46.1.68.16ZM71.67,60.25c1.37.69,2.23,1.78,2.64,2.42-.06-.01-.13-.03-.19-.04-.11-.02-.22-.05-.33-.07-.11-.03-.22-.05-.33-.08-.9-.22-1.85-.55-2.79-1.05-.48-.23-.95-.51-1.43-.79-.23-.15-.47-.3-.71-.45-.24-.15-.47-.33-.71-.49-.4-.29-.8-.6-1.2-.92,2.32.55,4.22,1.05,5.05,1.47ZM71.76,70.83c-.27-.05-.54-.11-.82-.16-.14-.03-.28-.05-.41-.08-.14-.03-.27-.07-.41-.1-.27-.07-.55-.14-.83-.21-.53-.15-1.06-.32-1.58-.5-.31-.36-.61-.72-.91-1.1-.65-.8-1.3-1.61-1.94-2.4-.15-.34-.3-.67-.44-1.01,0-.02-.02-.05-.03-.07.25.12.51.24.76.37.22.11.44.22.66.33.08.1.17.21.25.32.75.91,1.56,1.71,2.37,2.42.8.72,1.66,1.3,2.49,1.73.21.11.41.22.61.31.13.07.26.13.4.19-.06,0-.11-.02-.17-.03ZM66.12,70.95c.13.29.26.57.39.85-.69-.53-1.38-1.05-2.06-1.58-.02-.05-.03-.09-.05-.14.55.3,1.12.59,1.72.87ZM65.76,68.53c.17.19.34.39.51.58.01.02.03.04.05.05-.02-.01-.05-.02-.07-.03-.15-.17-.3-.34-.45-.51-.01-.03-.02-.06-.04-.09ZM66.81,73.11c.2.14.4.29.6.43.07.12.13.24.2.35.05.09.11.18.16.27-.08-.01-.15-.03-.23-.04-1.7-.33-2.13-.63-2.6-2.33.63.44,1.25.87,1.87,1.32ZM72.57,70.96s-.05,0-.07-.01c-.1-.05-.2-.1-.31-.15-.19-.09-.38-.19-.58-.3-.2-.1-.39-.21-.59-.33-.8-.46-1.62-1.04-2.38-1.78-.66-.62-1.32-1.3-1.94-2.06.07.04.15.07.22.11.6.29,1.21.55,1.83.82l.93.37c.15.06.31.12.47.17l.07.02s.06.06.09.09c.21.2.41.41.63.6.21.19.43.38.64.56.44.35.86.7,1.3,1,.72.54,1.48.97,2.21,1.3-.05,0-.09-.02-.14-.03-.13-.02-.26-.05-.39-.07-.13-.02-.26-.04-.39-.06-.52-.08-1.06-.16-1.6-.24ZM76.39,71.93s.04.09.05.13c-.01,0-.02,0-.04-.01-.14-.05-.31-.08-.52-.14-.21-.05-.44-.1-.71-.15-.21-.04-.44-.09-.68-.14,0,0,.01,0,.02,0,.13.02.26.04.38.06.25.04.5.08.75.12.25.03.49.08.73.13,0,0,0,0,0,0ZM73.55,68.69l.21.03c.14.09.27.17.38.25,1.13.83,1.78,1.92,2.11,2.63-.18-.04-.36-.08-.54-.11-.08-.01-.16-.03-.23-.04-.84-.36-1.7-.84-2.52-1.48-.43-.31-.85-.66-1.28-1.01-.21-.19-.41-.37-.63-.57-.16-.14-.31-.29-.46-.45h.04c.16.07.32.12.48.17l.48.13c.32.08.64.19.97.25l.98.2ZM71.82,67.72s-.04-.01-.06-.02l-.46-.15c-.15-.05-.31-.11-.46-.17l-.46-.17c-.15-.06-.3-.12-.45-.18l-.33-.14c-.06-.07-.13-.14-.19-.21.88.37,1.7.73,2.41,1.06ZM69,66.49c.06.07.12.13.18.2l-.15-.07c-.5-.24-1-.48-1.49-.74.5.21.99.41,1.46.61ZM73.26,64.17c1.25-.03,2.43-.05,3.51.01.66.04,1.29.1,1.88.2-.19.04-.38.08-.59.12-.69.14-1.47.28-2.32.41-.5.07-1.03.13-1.58.17-.29-.02-.58-.06-.86-.11-.11-.03-.22-.04-.33-.08-.11-.04-.23-.07-.34-.11-.1-.04-.21-.09-.32-.13-.05-.02-.11-.04-.16-.07l-.16-.08c-.17-.08-.34-.18-.51-.28.61-.01,1.21-.03,1.79-.05ZM70.82,64.23c.33.21.68.4,1.03.55l.17.08c.06.02.12.04.17.07.12.04.23.09.35.13.08.02.15.04.23.06-.91-.02-1.88-.13-2.81-.4l-.19-.05c-.06-.02-.13-.03-.19-.06-.13-.05-.25-.1-.38-.15l-.19-.07-.05-.02s-.02,0-.03-.01h-.01s-.09-.05-.09-.05c-.11-.05-.23-.11-.34-.16.1.01.2.02.31.03.17.01.34.03.51.03.51.02,1.01.03,1.5.03ZM76.49,84.83c-.18-.1-.36-.2-.55-.29-1.2-.58-2.55-.99-3.95-1.36-1.4-.37-2.85-.71-4.25-1.24-.7-.26-1.39-.58-2.04-.94l-.49-.3-.12-.07-.11-.08-.23-.16c-.08-.05-.16-.11-.23-.16l-.22-.18c-.15-.11-.3-.23-.43-.36-1.14-.99-2.04-2.23-2.77-3.53-.73-1.3-1.29-2.67-1.78-4.02-.42-1.14-.88-2.22-1.31-3.26.85,1.33,1.81,2.55,2.73,3.26.01.01.02.02.03.04.25.49.53.97.83,1.43,2.42,3.8,9.13,7.33,14.91,11.2ZM69.54,76.68c.67.85,1.42,1.56,2.16,2.12.18.14.37.28.55.41.12.09.24.17.36.25-.05-.02-.11-.03-.16-.05-.26-.1-.52-.2-.78-.3-.13-.05-.26-.1-.39-.15-.13-.05-.26-.1-.4-.15-1.31-.53-2.5-1.22-3.43-2.31-.46-.54-.88-2.15-1.58-2.35.53.15,1.06.27,1.6.36.19.03.37.06.56.09.48.75.99,1.44,1.51,2.08ZM68.22,74.12c.07.05.13.1.2.14,0,0,0,0,0,0-.04,0-.09-.01-.14-.02-.02-.04-.05-.08-.08-.13ZM76.05,75.31c-1.28-.38-2.68-.55-4.12-.68-.65-.06-1.3-.11-1.96-.18-.37-.26-.73-.53-1.09-.81-.51-.38-1.01-.79-1.51-1.18-.18-.38-.35-.78-.52-1.18,1.08.5,2.23,1,3.39,1.49.06.04.11.07.17.11l.09.06h.01s.02.02.02.02h.02s.04.04.04.04l.18.1c.12.07.24.13.36.2.06.03.12.06.19.09l.19.08c.61.27,1.22.47,1.83.61,1.11.46,2.21.93,3.3,1.42-.19-.07-.39-.13-.59-.19Z"/><path class="cls-43" d="M44.66,48.99s-.2-.88-1.13-1.94c-.93-1.06-1.6-2.35-1.07-3.58.53-1.23,1.87-3.11,2.07-2.7.2.41.6,1.7,1.6,3.4,1,1.7,1.6,2.47,1.6,2.47l-3.07,2.35Z"/><path class="cls-38" d="M54.86,49.16s.45-.8,1.67-1.61c1.21-.81,2.24-1.9,2.09-3.21-.15-1.31-.89-3.43-1.2-3.08-.31.35-1.08,1.51-2.55,2.92-1.47,1.42-2.27,2.02-2.27,2.02l2.27,2.97Z"/><path class="cls-13" d="M44.32,41.05s.06.1.15.27c.03.09.08.21.12.35.03.13.07.29.1.46.03.17.06.35.1.54.03.19.08.38.14.57.04.09.07.18.11.28.05.1.09.2.14.3.08.21.17.42.25.64.08.22.14.44.2.66.05.22.09.44.11.66.04.21.02.43.02.63-.01.1-.02.2-.03.29,0,.05-.01.09-.02.14,0,.04-.02.08-.03.13-.05.17-.1.32-.17.45-.03.06-.07.12-.1.17-.04.05-.07.09-.11.13-.07.07-.13.13-.17.16-.04.03-.07.05-.07.05,0,0,.02-.02.05-.06.04-.04.08-.1.13-.18.02-.04.05-.09.08-.14.02-.05.05-.11.07-.17.04-.13.08-.27.1-.43,0-.04,0-.09.01-.13,0-.04,0-.08,0-.13,0-.09,0-.18,0-.27-.02-.19-.02-.38-.06-.59-.03-.2-.09-.41-.13-.62-.06-.21-.12-.42-.2-.63-.07-.21-.15-.42-.23-.62-.09-.2-.16-.4-.23-.62-.06-.22-.09-.43-.11-.62-.02-.2-.03-.38-.04-.55,0-.17-.02-.32-.04-.46-.02-.13-.04-.25-.06-.34-.06-.19-.09-.3-.09-.3Z"/><path class="cls-46" d="M56.82,53.34c-.6-1.11-.73-2.11-.93-3.17-.2-1.06-.33-1.41-1.2-2.23-.87-.82-2.19-2.47-3.24-2.88-.34-.13-1.5-.06-1.5-.06v.07s-.01-.07-.01-.07c0,0-1.15-.07-1.5.06-1.06.4-2.37,2.05-3.24,2.88-.87.82-1,1.17-1.2,2.23-.2,1.06-.33,2.05-.93,3.17-.6,1.12-.27,2-.27,2,0,0,.87,1.17.73,2.47-.13,1.29-.27,3.4-.13,4.17.13.76,1.53,3.29,1.73,4.34.2,1.06,0,1.76.2,2.17.2.41.67,1.59.67,1.59,0,0-.2,1.47-.13,2.05.07.59,1.4,3.17,1.67,3.4.27.23,2.4.29,2.4.29v-.07.07s2.15-.06,2.41-.29c.27-.23,1.6-2.82,1.67-3.4.07-.59-.13-2.05-.13-2.05,0,0,.47-1.17.67-1.59.2-.41,0-1.11.2-2.17.2-1.06,1.6-3.58,1.74-4.34.13-.76,0-2.88-.13-4.17-.13-1.29.73-2.47.73-2.47,0,0,.33-.88-.27-2Z"/><path class="cls-44" d="M45.09,58.15c-.18-.64-1.96-2.7-2.17-2.65l.47,1.05v.07c.08.33.14.84.05,1.37v.06s.04.02.04.02c.08.03.15.05.23.07.1.03.2.05.3.07.1.02.2.05.29.07.32.09.65.22.87.58l.12-.07c-.08-.17-.14-.4-.21-.64Z"/><path class="cls-42" d="M54.75,58.15c.18-.64,1.96-2.7,2.17-2.65l-.47,1.05v.07c-.08.33-.14.84-.05,1.37v.06s-.04.02-.04.02c-.08.03-.15.05-.23.07-.1.03-.2.05-.3.07-.1.02-.2.05-.29.07-.32.09-.65.22-.87.58l-.12-.07c.08-.17.14-.4.21-.64Z"/><path class="cls-37" d="M43.5,58.06c-.12,1.3-.23,3.19-.11,3.91.13.76,1.53,3.29,1.73,4.34.2,1.06,0,1.76.2,2.17.18.36.56,1.32.65,1.54.49-1.6.95-3.06.95-3.89,0-2.29-.76-3.79-1.48-5.48-.49-1.15-1.41-2.1-1.95-2.59Z"/><path class="cls-13" d="M57.54,41.57s-.06.1-.17.26c-.04.09-.1.19-.16.32-.05.13-.11.27-.17.43-.06.16-.12.34-.2.52-.07.18-.17.38-.28.57-.06.09-.13.19-.2.28-.07.09-.14.18-.21.26-.14.18-.28.35-.4.54-.14.18-.26.37-.38.55-.11.19-.23.37-.31.56-.1.19-.17.37-.24.55-.03.09-.05.18-.08.26-.03.09-.05.17-.06.25-.03.16-.04.31-.04.45,0,.13.02.25.05.35.03.09.05.17.08.22.02.05.03.07.03.07,0,0-.02-.02-.05-.07-.03-.04-.08-.11-.12-.2-.02-.05-.04-.1-.06-.16-.01-.06-.04-.13-.05-.2-.03-.14-.03-.31-.03-.49,0-.08.02-.18.04-.27.02-.09.03-.19.06-.29.06-.19.12-.4.21-.6.08-.21.19-.4.31-.6.12-.19.24-.39.38-.58.13-.19.28-.37.42-.55.07-.09.14-.17.22-.26.07-.09.13-.16.19-.25.11-.17.22-.34.3-.52.09-.17.17-.34.25-.49.07-.16.16-.29.23-.41.08-.12.16-.22.22-.3.14-.14.22-.22.22-.22Z"/><path class="cls-45" d="M56.38,58.06c.12,1.3.23,3.19.11,3.91-.13.76-1.53,3.29-1.74,4.34-.2,1.06,0,1.76-.2,2.17-.18.36-.56,1.32-.65,1.54-.49-1.6-.95-3.06-.95-3.89,0-2.29.76-3.79,1.48-5.48.49-1.15,1.41-2.1,1.95-2.59Z"/><path class="cls-34" d="M52.23,69.92s.58,2.02-2.29,1.67h-.01c-2.87.35-2.29-1.67-2.29-1.67-.95-1.39-1.42,1.38-1.08,2.13.26.58,2.12,1.36,1.08,2.01,1.28.3,1.57,1.57,2.29,1.69h.01c.71-.11,1.01-1.39,2.29-1.69-1.05-.65.81-1.43,1.08-2.01.34-.75-.13-3.52-1.08-2.13Z"/><path class="cls-47" d="M58.68,58.71c-.04-.08-.09-.21-.18-.36-.08-.15-.19-.33-.32-.54-.13-.2-.28-.43-.46-.67-.36-.48-.8-1.01-1.29-1.57-.24-.28-.49-.57-.74-.87-.25-.3-.5-.6-.73-.92-.23-.31-.46-.63-.66-.96-.12-.2-.23-.41-.34-.61,1.31,1.89,3.34,3.22,4.52,5.28-.17-4.11-1.94-8.18-4.65-11.28-2.16-2.48-7.13-3.35-8.14.62-.03.04-.07.09-.11.14-.1.14-.21.31-.3.51-.1.2-.18.42-.25.66-.06.24-.12.5-.15.77-.03.27-.04.55-.03.84,0,.29.04.57.08.86.1.57.27,1.13.5,1.63.11.25.24.48.37.69.14.21.28.4.42.56.14.17.29.3.42.42.13.11.26.2.37.27.1.07.19.11.25.14.06.03.09.05.09.05,0,0-.03-.02-.08-.06-.05-.04-.13-.1-.22-.18-.1-.08-.2-.18-.32-.31-.11-.13-.24-.27-.36-.44-.06-.08-.12-.17-.18-.27-.06-.09-.12-.2-.18-.3-.11-.21-.22-.44-.32-.68-.1-.24-.18-.5-.26-.76-.08-.26-.13-.53-.18-.81-.04-.27-.08-.55-.09-.82-.01-.27-.02-.54,0-.8.02-.26.05-.51.1-.74.03-.12.05-.23.08-.34.04-.17.1-.32.2-.47.08.86.45,1.4.73,2.19-.19-.52.02-1.44.48-1.91,0,.03,0,.07-.01.1-.01.09-.01.18-.01.28,0,.09,0,.19,0,.29,0,.1.02.2.03.3,0,.05,0,.1.02.15.01.05.02.1.03.15.07.41.22.82.41,1.23.19.41.44.8.71,1.19.27.38.58.74.9,1.1.32.35.66.68.99,1.01.33.32.67.63,1,.93.33.3.64.58.94.85.3.27.57.53.83.78.25.25.48.48.67.68.19.21.36.4.48.56.13.16.22.29.29.38.07.09.1.14.1.14,0,0-.03-.05-.08-.15-.05-.1-.13-.24-.25-.41-.11-.17-.26-.37-.44-.6-.18-.23-.39-.48-.63-.74-.48-.52-1.07-1.1-1.7-1.71-.32-.31-.64-.62-.97-.94-.33-.32-.66-.65-.97-1-.31-.34-.62-.69-.89-1.06-.27-.37-.52-.74-.71-1.13-.19-.38-.34-.76-.43-1.14.04.11.08.21.13.32.15.35.35.69.57,1.02.22.33.47.64.73.95.26.3.54.59.81.87.27.28.55.54.82.8.54.51,1.04.99,1.45,1.41.41.42.74.79.95,1.07.11.14.19.25.24.32.05.08.08.12.08.12,0,0-.02-.04-.07-.13-.04-.08-.11-.2-.2-.35-.09-.15-.21-.32-.35-.52-.14-.19-.31-.41-.51-.64-.39-.45-.87-.96-1.39-1.49-.26-.27-.52-.54-.79-.82-.27-.28-.54-.57-.79-.87-.25-.3-.5-.6-.72-.91-.21-.32-.42-.63-.57-.96-.15-.33-.29-.65-.35-.97-.01-.04-.02-.08-.03-.12,0-.03,0-.05-.01-.08,1.14,2.72,6.53,6.48,7.07,9.15.11-1.57.03-3.09-.35-4.55.08.15.16.3.25.45.2.34.43.67.67.99.24.32.5.62.75.92.25.3.51.58.76.85.5.55.97,1.05,1.36,1.5.38.45.69.84.88,1.13.1.14.17.26.22.34.05.08.07.12.07.12,0,0-.02-.04-.06-.13Z"/><path class="cls-46" d="M54.05,81.94c0,2.14-1.73,3.87-3.87,3.87s-3.87-1.73-3.87-3.87,1.73-3.87,3.87-3.87,3.87,1.73,3.87,3.87Z"/></g></svg>