<?xml version="1.0" encoding="UTF-8"?><svg xmlns="http://www.w3.org/2000/svg" xmlns:xlink="http://www.w3.org/1999/xlink" viewBox="0 0 102.24 150.24"><defs><style>.cls-1{fill:none;stroke:#1e1e1c;stroke-miterlimit:10;stroke-width:.25px;}.cls-2{fill:url(#linear-gradient-8);}.cls-3{fill:url(#linear-gradient-7);}.cls-4{fill:url(#linear-gradient-5);}.cls-5{fill:url(#linear-gradient-6);}.cls-6{fill:url(#linear-gradient-9);}.cls-7{fill:url(#linear-gradient-4);}.cls-8{fill:url(#linear-gradient-3);}.cls-9{fill:url(#linear-gradient-2);}.cls-10{fill:url(#linear-gradient);}.cls-11{fill:#fbbc15;}</style><linearGradient id="linear-gradient" x1="-1388.95" y1="-3116.84" x2="-1388.95" y2="-3103.74" gradientTransform="translate(-1310.14 -3063.83) rotate(-179.89)" gradientUnits="userSpaceOnUse"><stop offset="0" stop-color="#ce1e28"/><stop offset=".26" stop-color="#d73634"/><stop offset=".75" stop-color="#e75d48"/><stop offset="1" stop-color="#ed6d50"/></linearGradient><linearGradient id="linear-gradient-2" x1="-1389.01" y1="-3150.25" x2="-1389.01" y2="-3137.16" xlink:href="#linear-gradient"/><linearGradient id="linear-gradient-3" x1="-1389.08" y1="-3183.67" x2="-1389.08" y2="-3170.57" xlink:href="#linear-gradient"/><linearGradient id="linear-gradient-4" x1="-1345.47" y1="-3116.92" x2="-1345.47" y2="-3103.82" xlink:href="#linear-gradient"/><linearGradient id="linear-gradient-5" x1="-1345.53" y1="-3150.34" x2="-1345.53" y2="-3137.24" xlink:href="#linear-gradient"/><linearGradient id="linear-gradient-6" x1="-1345.59" y1="-3183.75" x2="-1345.59" y2="-3170.66" xlink:href="#linear-gradient"/><linearGradient id="linear-gradient-7" x1="-1367.1" y1="-3116.88" x2="-1367.1" y2="-3103.78" gradientTransform="translate(1412.28 3214.03) rotate(.11)" xlink:href="#linear-gradient"/><linearGradient id="linear-gradient-8" x1="-1367.17" y1="-3150.29" x2="-1367.17" y2="-3137.2" gradientTransform="translate(1412.28 3214.03) rotate(.11)" xlink:href="#linear-gradient"/><linearGradient id="linear-gradient-9" x1="-1367.23" y1="-3183.71" x2="-1367.23" y2="-3170.61" gradientTransform="translate(1412.28 3214.03) rotate(.11)" xlink:href="#linear-gradient"/></defs><g id="NOOOOO"><g id="margem"><polyline class="cls-1" points="65.21 141.14 91.84 141.14 91.84 9.1 65.21 9.1"/><polyline class="cls-1" points="41.37 9.1 10.4 9.1 10.4 141.14 40.31 140.95"/><polyline class="cls-1" points="65.21 141.14 91.84 141.14 91.84 9.1 65.21 9.1"/><polyline class="cls-1" points="41.37 9.1 10.4 9.1 10.4 141.14 40.31 140.95"/></g></g><g id="COPAS"><path class="cls-10" d="M65.71,56.59h6.24s1.8.01,1.8.01h6.24c3.69-12-2.99-18.1-7.1-17.95-4.1-.17-10.82,5.91-7.17,17.93Z"/><path class="cls-11" d="M65.89,27.34c2.07.76,4.08,1.53,5.28,2.45.49.38.78.96.81,1.57.06,1.53-.06,2.47-.25,3.09-.02.07-.07.13-.14.17-.67.4-1.12,1.12-1.13,1.94,0,.89.67,1.63,1.56,1.8,1.74.32,3.14-.23,3.14-1.77,0-.16-.02-.31-.05-.46-.13-.6-.49-1.12-1-1.45-.07-.04-.12-.11-.14-.18-.19-.62-.31-1.56-.24-3.12.03-.61.32-1.19.81-1.57,1.2-.92,3.22-1.68,5.29-2.43.06-.02.09-.07.09-.13v-.33s-.04-.08-.09-.09h-6.57s-.81-.01-.81-.01h-6.57s-.09.03-.09.07v.33c0,.06.04.11.09.13Z"/><path class="cls-9" d="M65.71,90h6.24s1.8.01,1.8.01h6.24c3.69-12-2.99-18.1-7.1-17.95-4.1-.17-10.82,5.91-7.17,17.93Z"/><path class="cls-11" d="M65.89,60.75c2.07.76,4.08,1.53,5.28,2.45.49.38.78.96.81,1.57.06,1.53-.06,2.47-.25,3.09-.02.07-.07.13-.14.17-.67.4-1.12,1.12-1.13,1.94,0,.89.67,1.63,1.56,1.8,1.74.32,3.14-.23,3.14-1.77,0-.16-.02-.31-.05-.46-.13-.6-.49-1.12-1-1.45-.07-.04-.12-.11-.14-.18-.19-.62-.31-1.56-.24-3.12.03-.61.32-1.19.81-1.57,1.2-.92,3.22-1.68,5.29-2.43.06-.02.09-.07.09-.13v-.33s-.04-.08-.09-.09h-6.57s-.81-.01-.81-.01h-6.57s-.09.03-.09.07v.33c0,.06.04.11.09.13Z"/><path class="cls-8" d="M65.71,123.42h6.24s1.8.01,1.8.01h6.24c3.69-12-2.99-18.1-7.1-17.95-4.1-.17-10.82,5.91-7.17,17.93Z"/><path class="cls-11" d="M65.88,94.17c2.07.76,4.08,1.53,5.28,2.45.49.38.78.96.81,1.57.06,1.53-.06,2.47-.25,3.09-.02.07-.07.13-.14.17-.67.4-1.12,1.12-1.13,1.94,0,.89.67,1.63,1.56,1.8,1.74.32,3.14-.23,3.14-1.77,0-.16-.02-.31-.05-.46-.13-.6-.49-1.12-1-1.45-.07-.04-.12-.11-.14-.18-.19-.62-.31-1.56-.24-3.12.03-.61.32-1.19.81-1.57,1.2-.92,3.22-1.68,5.29-2.43.06-.02.09-.07.09-.13v-.33s-.04-.08-.09-.09h-6.57s-.81-.01-.81-.01h-6.57s-.09.03-.09.07v.33c0,.06.04.11.09.13Z"/><path class="cls-7" d="M22.23,56.59h6.24s1.8.01,1.8.01h6.24c3.69-12-2.99-18.1-7.1-17.95-4.1-.17-10.82,5.91-7.17,17.93Z"/><path class="cls-11" d="M22.4,27.34c2.07.76,4.08,1.53,5.28,2.45.49.38.78.96.81,1.57.06,1.53-.06,2.47-.25,3.09-.02.07-.07.13-.14.17-.67.4-1.12,1.12-1.13,1.94,0,.89.67,1.63,1.56,1.8,1.74.32,3.14-.23,3.14-1.77,0-.16-.02-.31-.05-.46-.13-.6-.49-1.12-1-1.45-.07-.04-.12-.11-.14-.18-.19-.62-.31-1.56-.24-3.12.03-.61.32-1.19.81-1.57,1.2-.92,3.22-1.68,5.29-2.43.06-.02.09-.07.09-.13v-.33s-.04-.08-.09-.09h-6.57s-.81-.01-.81-.01h-6.57s-.09.03-.09.07v.33c0,.06.04.11.09.13Z"/><path class="cls-4" d="M22.23,90h6.24s1.8.01,1.8.01h6.24c3.69-12-2.99-18.1-7.1-17.95-4.1-.17-10.82,5.91-7.17,17.93Z"/><path class="cls-11" d="M22.4,60.75c2.07.76,4.08,1.53,5.28,2.45.49.38.78.96.81,1.57.06,1.53-.06,2.47-.25,3.09-.02.07-.07.13-.14.17-.67.4-1.12,1.12-1.13,1.94,0,.89.67,1.63,1.56,1.8,1.74.32,3.14-.23,3.14-1.77,0-.16-.02-.31-.05-.46-.13-.6-.49-1.12-1-1.45-.07-.04-.12-.11-.14-.18-.19-.62-.31-1.56-.24-3.12.03-.61.32-1.19.81-1.57,1.2-.92,3.22-1.68,5.29-2.43.06-.02.09-.07.09-.13v-.33s-.04-.08-.09-.09h-6.57s-.81-.01-.81-.01h-6.57s-.09.03-.09.07v.33c0,.06.04.11.09.13Z"/><path class="cls-5" d="M22.23,123.42h6.24s1.8.01,1.8.01h6.24c3.69-12-2.99-18.1-7.1-17.95-4.1-.17-10.82,5.91-7.17,17.93Z"/><path class="cls-11" d="M22.4,94.17c2.07.76,4.08,1.53,5.28,2.45.49.38.78.96.81,1.57.06,1.53-.06,2.47-.25,3.09-.02.07-.07.13-.14.17-.67.4-1.12,1.12-1.13,1.94,0,.89.67,1.63,1.56,1.8,1.74.32,3.14-.23,3.14-1.77,0-.16-.02-.31-.05-.46-.13-.6-.49-1.12-1-1.45-.07-.04-.12-.11-.14-.18-.19-.62-.31-1.56-.24-3.12.03-.61.32-1.19.81-1.57,1.2-.92,3.22-1.68,5.29-2.43.06-.02.09-.07.09-.13v-.33s-.04-.08-.09-.09h-6.57s-.81-.01-.81-.01h-6.57s-.09.03-.09.07v.33c0,.06.04.11.09.13Z"/><path class="cls-3" d="M58.27,93.65h-6.24s-1.8-.01-1.8-.01h-6.24c-3.69,12,2.99,18.1,7.1,17.94,4.1.17,10.82-5.91,7.17-17.93Z"/><path class="cls-11" d="M58.1,122.9c-2.07-.76-4.08-1.53-5.28-2.45-.49-.38-.78-.96-.81-1.57-.06-1.53.06-2.47.25-3.09.02-.07.07-.13.14-.17.67-.4,1.12-1.12,1.13-1.94,0-.89-.67-1.63-1.56-1.8-1.74-.32-3.14.23-3.14,1.77,0,.16.02.31.05.46.13.6.49,1.12,1,1.45.07.04.12.11.14.18.19.62.31,1.56.24,3.12-.03.61-.32,1.19-.81,1.57-1.2.92-3.22,1.68-5.29,2.43-.06.02-.09.07-.09.13v.33s.04.08.09.09h6.57s.81.01.81.01h6.57s.09-.03.09-.07v-.33c0-.06-.04-.11-.09-.13Z"/><path class="cls-2" d="M58.27,60.24h-6.24s-1.8-.01-1.8-.01h-6.24c-3.69,12,2.99,18.1,7.1,17.94,4.1.17,10.82-5.91,7.17-17.93Z"/><path class="cls-11" d="M58.1,89.49c-2.07-.76-4.08-1.53-5.28-2.45-.49-.38-.78-.96-.81-1.57-.06-1.53.06-2.47.25-3.09.02-.07.07-.13.14-.17.67-.4,1.12-1.12,1.13-1.94,0-.89-.67-1.63-1.56-1.8-1.74-.32-3.14.23-3.14,1.77,0,.16.02.31.05.46.13.6.49,1.12,1,1.45.07.04.12.11.14.18.19.62.31,1.56.24,3.12-.03.61-.32,1.19-.81,1.57-1.2.92-3.22,1.68-5.29,2.43-.06.02-.09.07-.09.13v.33s.04.08.09.09h6.57s.81.01.81.01h6.57s.09-.03.09-.07v-.33c0-.06-.04-.11-.09-.13Z"/><path class="cls-6" d="M58.27,26.82h-6.24s-1.8-.01-1.8-.01h-6.24c-3.69,12,2.99,18.1,7.1,17.94,4.1.17,10.82-5.91,7.17-17.93Z"/><path class="cls-11" d="M58.1,56.07c-2.07-.76-4.08-1.53-5.28-2.45-.49-.38-.78-.96-.81-1.57-.06-1.53.06-2.47.25-3.09.02-.07.07-.13.14-.17.67-.4,1.12-1.12,1.13-1.94,0-.89-.67-1.63-1.56-1.8-1.74-.32-3.14.23-3.14,1.77,0,.16.02.31.05.46.13.6.49,1.12,1,1.45.07.04.12.11.14.18.19.62.31,1.56.24,3.12-.03.61-.32,1.19-.81,1.57-1.2.92-3.22,1.68-5.29,2.43-.06.02-.09.07-.09.13v.33s.04.08.09.09h6.57s.81.01.81.01h6.57s.09-.03.09-.07v-.33c0-.06-.04-.11-.09-.13Z"/></g></svg>