<?xml version="1.0" encoding="UTF-8"?><svg xmlns="http://www.w3.org/2000/svg" xmlns:xlink="http://www.w3.org/1999/xlink" viewBox="0 0 102.24 150.24"><defs><style>.cls-1{fill:none;stroke:#1e1e1c;stroke-miterlimit:10;stroke-width:.25px;}.cls-2{fill:url(#linear-gradient-5);}.cls-3{fill:url(#linear-gradient-4);}.cls-4{fill:url(#linear-gradient-3);}.cls-5{fill:url(#linear-gradient-2);}.cls-6{fill:url(#linear-gradient);}.cls-7{fill:#fbbc15;}</style><linearGradient id="linear-gradient" x1="-1355.39" y1="-3120.91" x2="-1355.39" y2="-3105.72" gradientTransform="translate(1412.38 3213.07) rotate(.11)" gradientUnits="userSpaceOnUse"><stop offset="0" stop-color="#ce1e28"/><stop offset=".26" stop-color="#d73634"/><stop offset=".75" stop-color="#e75d48"/><stop offset="1" stop-color="#ed6d50"/></linearGradient><linearGradient id="linear-gradient-2" x1="2325.45" y1="-527.54" x2="2325.45" y2="-512.34" gradientTransform="translate(-2287.15 612.62) rotate(.11)" xlink:href="#linear-gradient"/><linearGradient id="linear-gradient-3" x1="-1376.64" y1="-3194.06" x2="-1376.64" y2="-3178.87" gradientTransform="translate(3231.62 -1295.57) rotate(-89.89)" xlink:href="#linear-gradient"/><linearGradient id="linear-gradient-4" x1="-1355.5" y1="-3182.46" x2="-1355.5" y2="-3167.26" xlink:href="#linear-gradient"/><linearGradient id="linear-gradient-5" x1="2325.33" y1="-589.08" x2="2325.33" y2="-573.89" gradientTransform="translate(-2287.15 612.62) rotate(.11)" xlink:href="#linear-gradient"/></defs><g id="NOOOOO"><g id="margem"><polyline class="cls-1" points="65.21 141.14 91.84 141.14 91.84 9.1 65.21 9.1"/><polyline class="cls-1" points="41.37 9.1 10.4 9.1 10.4 141.14 40.31 140.95"/><polyline class="cls-1" points="65.21 141.14 91.84 141.14 91.84 9.1 65.21 9.1"/><polyline class="cls-1" points="41.37 9.1 10.4 9.1 10.4 141.14 40.31 140.95"/></g></g><g id="COPAS"><path class="cls-6" d="M71.24,88.5h-7.23s-2.08-.02-2.08-.02h-7.23c-4.29,13.92,3.47,21.01,8.24,20.82,4.76.2,12.55-6.85,8.32-20.8Z"/><path class="cls-7" d="M71.04,122.43c-2.4-.88-4.74-1.77-6.12-2.85-.57-.44-.91-1.11-.93-1.82-.07-1.78.07-2.87.29-3.58.03-.08.08-.15.16-.19.78-.46,1.3-1.3,1.31-2.25,0-1.03-.77-1.89-1.82-2.08-2.02-.37-3.64.26-3.64,2.06,0,.18.02.36.05.54.15.7.57,1.3,1.16,1.68.08.05.14.12.17.21.23.71.36,1.82.28,3.62-.03.71-.37,1.38-.94,1.82-1.39,1.07-3.73,1.95-6.14,2.82-.07.02-.11.08-.11.15v.38c0,.05.04.1.1.1h7.63s.94.02.94.02h7.63c.06.01.1-.03.1-.08v-.38c0-.07-.04-.13-.11-.15Z"/><path class="cls-5" d="M47.59,88.45h-7.23s-2.08-.02-2.08-.02h-7.23c-4.29,13.92,3.47,21.01,8.24,20.82,4.76.2,12.55-6.85,8.32-20.8Z"/><path class="cls-7" d="M47.39,122.39c-2.4-.88-4.74-1.77-6.12-2.85-.57-.44-.91-1.11-.93-1.82-.07-1.78.07-2.87.29-3.58.03-.08.08-.15.16-.19.78-.46,1.3-1.3,1.31-2.25,0-1.03-.77-1.89-1.82-2.08-2.02-.37-3.64.26-3.64,2.06,0,.18.02.36.05.54.15.7.57,1.3,1.16,1.68.08.05.14.12.17.21.23.71.36,1.82.28,3.62-.03.71-.37,1.38-.94,1.82-1.39,1.07-3.73,1.95-6.14,2.82-.07.02-.11.08-.11.15v.38c0,.05.04.1.1.1h7.63s.94.02.94.02h7.63c.06.01.1-.03.1-.08v-.38c0-.07-.04-.13-.11-.15Z"/><path class="cls-4" d="M33.85,66.68v7.24s-.02,2.08-.02,2.08v7.24c13.92,4.29,21.01-3.47,20.82-8.24.2-4.76-6.85-12.55-20.8-8.32Z"/><path class="cls-7" d="M67.79,66.87c-.88,2.4-1.77,4.74-2.85,6.12-.44.57-1.11.91-1.82.93-1.78.07-2.87-.07-3.58-.29-.08-.03-.15-.08-.19-.16-.46-.78-1.3-1.3-2.25-1.31-1.03,0-1.89.77-2.08,1.82-.37,2.02.26,3.64,2.06,3.64.18,0,.36-.02.54-.05.7-.15,1.3-.57,1.68-1.16.05-.08.12-.14.21-.17.71-.23,1.82-.36,3.62-.28.71.03,1.38.37,1.82.94,1.07,1.39,1.95,3.73,2.82,6.14.02.07.08.11.15.11h.38c.05,0,.1-.04.1-.1v-7.63s.02-.94.02-.94v-7.63c.01-.06-.03-.1-.08-.1h-.38c-.07,0-.13.04-.15.11Z"/><path class="cls-3" d="M71.24,26.95h-7.23s-2.08-.02-2.08-.02h-7.23c-4.29,13.92,3.47,21.01,8.24,20.82,4.76.2,12.55-6.85,8.32-20.8Z"/><path class="cls-7" d="M71.04,60.88c-2.4-.88-4.74-1.77-6.12-2.85-.57-.44-.91-1.11-.93-1.82-.07-1.78.07-2.87.29-3.58.03-.08.08-.15.16-.19.78-.46,1.3-1.3,1.31-2.25,0-1.03-.77-1.89-1.82-2.08-2.02-.37-3.64.26-3.64,2.06,0,.18.02.36.05.54.15.7.57,1.3,1.16,1.68.08.05.14.12.17.21.23.71.36,1.82.28,3.62-.03.71-.37,1.38-.94,1.82-1.39,1.07-3.73,1.95-6.14,2.82-.07.02-.11.08-.11.15v.38c0,.05.04.1.1.1h7.63s.94.02.94.02h7.63c.06.01.1-.03.1-.08v-.38c0-.07-.04-.13-.11-.15Z"/><path class="cls-2" d="M47.59,26.91h-7.23s-2.08-.02-2.08-.02h-7.23c-4.29,13.92,3.47,21.01,8.24,20.82,4.76.2,12.55-6.85,8.32-20.8Z"/><path class="cls-7" d="M47.39,60.84c-2.4-.88-4.74-1.77-6.12-2.85-.57-.44-.91-1.11-.93-1.82-.07-1.78.07-2.87.29-3.58.03-.08.08-.15.16-.19.78-.46,1.3-1.3,1.31-2.25,0-1.03-.77-1.89-1.82-2.08-2.02-.37-3.64.26-3.64,2.06,0,.18.02.36.05.54.15.7.57,1.3,1.16,1.68.08.05.14.12.17.21.23.71.36,1.82.28,3.62-.03.71-.37,1.38-.94,1.82-1.39,1.07-3.73,1.95-6.14,2.82-.07.02-.11.08-.11.15v.38c0,.05.04.1.1.1h7.63s.94.02.94.02h7.63c.06.01.1-.03.1-.08v-.38c0-.07-.04-.13-.11-.15Z"/></g></svg>