<?xml version="1.0" encoding="UTF-8"?><svg xmlns="http://www.w3.org/2000/svg" xmlns:xlink="http://www.w3.org/1999/xlink" viewBox="0 0 102.24 150.24"><defs><style>.cls-1{fill:url(#linear-gradient-7);}.cls-1,.cls-2,.cls-3,.cls-4,.cls-5,.cls-6,.cls-7,.cls-8{fill-rule:evenodd;}.cls-2{fill:url(#linear-gradient-6);}.cls-9{fill:none;stroke:#1e1e1c;stroke-miterlimit:10;stroke-width:.25px;}.cls-10{fill:#cb1525;}.cls-11{fill:url(#linear-gradient-8);}.cls-12{fill:url(#linear-gradient-5);}.cls-13{fill:url(#linear-gradient-9);}.cls-14{fill:url(#linear-gradient-4);}.cls-15{fill:url(#linear-gradient-3);}.cls-16{fill:url(#linear-gradient-2);}.cls-17{fill:#7cafce;}.cls-18{fill:#e6e6e6;}.cls-3{fill:#ee6f4e;}.cls-19{fill:url(#linear-gradient);}.cls-20{fill:#fff;}.cls-4{fill:url(#linear-gradient-10);}.cls-5{fill:url(#linear-gradient-11);}.cls-6{fill:#a9c8d2;}.cls-21{fill:#d4e3e8;}.cls-7{fill:#f6c008;}.cls-22{fill:#e5b520;}.cls-8{fill:#f7d499;}</style><linearGradient id="linear-gradient" x1="5022.11" y1="128.37" x2="5019.02" y2="133.78" gradientTransform="translate(5061.49) rotate(-180) scale(1 -1)" gradientUnits="userSpaceOnUse"><stop offset="0" stop-color="#787992"/><stop offset=".24" stop-color="#78809a"/><stop offset=".62" stop-color="#7a94b0"/><stop offset="1" stop-color="#7cafce"/></linearGradient><linearGradient id="linear-gradient-2" x1="4997.17" y1="127.12" x2="4990.68" y2="138.52" xlink:href="#linear-gradient"/><linearGradient id="linear-gradient-3" x1="4990.41" y1="74.69" x2="5031.25" y2="74.69" gradientTransform="translate(5061.49) rotate(-180) scale(1 -1)" gradientUnits="userSpaceOnUse"><stop offset="0" stop-color="#f6c008"/><stop offset=".16" stop-color="#f4bd10"/><stop offset=".4" stop-color="#efb726"/><stop offset=".7" stop-color="#e8ad4a"/><stop offset="1" stop-color="#e0a275"/></linearGradient><linearGradient id="linear-gradient-4" x1="74.81" y1="62.46" x2="43.1" y2="118.18" gradientTransform="matrix(1,0,0,1,0,0)" xlink:href="#linear-gradient"/><linearGradient id="linear-gradient-5" x1="55.26" y1="61.28" x2="20.01" y2="113.82" gradientTransform="matrix(1,0,0,1,0,0)" xlink:href="#linear-gradient"/><linearGradient id="linear-gradient-6" x1="59.36" y1="31.67" x2="35.19" y2="49.38" gradientUnits="userSpaceOnUse"><stop offset="0" stop-color="#cb1525"/><stop offset=".25" stop-color="#d1262d"/><stop offset=".74" stop-color="#e35441"/><stop offset="1" stop-color="#ee6f4e"/></linearGradient><linearGradient id="linear-gradient-7" x1="5050.03" y1="24.43" x2="5049.68" y2="31.19" gradientTransform="translate(5099.98) rotate(-180) scale(1 -1)" gradientUnits="userSpaceOnUse"><stop offset="0" stop-color="#d4884b"/><stop offset="1" stop-color="#f7d498"/></linearGradient><linearGradient id="linear-gradient-8" x1="969.12" y1="30.59" x2="969.03" y2="31.03" gradientTransform="translate(-918.98)" gradientUnits="userSpaceOnUse"><stop offset="0" stop-color="#f6caa9"/><stop offset="1" stop-color="#e69563"/></linearGradient><linearGradient id="linear-gradient-9" x1="5048.08" y1="13.71" x2="5047.48" y2="25.26" xlink:href="#linear-gradient-7"/><linearGradient id="linear-gradient-10" x1="5051.9" y1="24.47" x2="5051.58" y2="30.65" gradientTransform="translate(5099.98) rotate(-180) scale(1 -1)" gradientUnits="userSpaceOnUse"><stop offset="0" stop-color="#d4884b"/><stop offset=".25" stop-color="#d58b4e"/><stop offset=".47" stop-color="#da9659"/><stop offset=".68" stop-color="#e2a86b"/><stop offset=".88" stop-color="#eec185"/><stop offset="1" stop-color="#f7d498"/></linearGradient><linearGradient id="linear-gradient-11" x1="1.58" y1="114.52" x2="4.95" y2="114.52" gradientTransform="translate(27.59 -40.18) rotate(2.02)" gradientUnits="userSpaceOnUse"><stop offset="0" stop-color="#f7d498"/><stop offset="1" stop-color="#e0a275"/></linearGradient></defs><g id="NOOOOO"><g id="margem"><polyline class="cls-9" points="31.32 141.14 10.38 141.14 10.38 75.95 10.38 9.1 31.32 9.1"/><polyline class="cls-9" points="70.92 9.1 91.86 9.1 91.86 141.14 70.92 141.14"/><line class="cls-9" x1="61.02" y1="141.14" x2="41.22" y2="141.14"/><line class="cls-9" x1="41.22" y1="9.1" x2="61.02" y2="9.1"/></g></g><g id="ESPADA"><path class="cls-19" d="M32.94,132.62c.18-.54,5.64-3.36,5.64-3.36,0,0,2.66-3.06,3.35-4.18,1.25.2,2.53.21,3.79.06,0,.05,0,.1,0,.15,0,.15.02.27.02.37.45-.16.83-.31.83-.31v5.73h-2.64l.09-.55s-1.91,1.64-4.82,2.09c-2.91.45-6.45.55-6.27,0Z"/><path class="cls-16" d="M62.22,124.74c.02-.11.03-.21.04-.32.92-.11,1.84-.27,2.76-.42,0,.03-.02.07-.02.09-.04.15-.06.23-.06.23l1.27-.27s1.36,3.91,2,4.82c.63.91,2.91,2,3.09,2.46.18.45,2.27,4.36,2.09,4.82-.18.46-.82.45-1.45.36-.64-.09-4.82-1.73-5.64-2.91-.82-1.18-2.09-2.54-2.09-2.54h-.91l-1.82-.82.09-2.82s.46-1.22.65-2.67Z"/><path class="cls-3" d="M37.65,107.47c1.34,13.07,2.96,16.5,1.61,18.6,2.32,1.24,5.86,2.33,11.05,2.19,16.07-.44,16.88-3.44,16.88-3.44l-5.24-73.99-.74.1-1.14-16.04c-1.6.35-3.15.67-3.15.69-.06-.05-.11-.11-.17-.17-.14-.14-.28-.28-.42-.43-.14-.15-.28-.31-.42-.47-.04-.05-.07-.09-.11-.14.12.15-.09.63-.16.78-.17.33-.47.6-.87.75.01.02.03.03.04.05.04.05.07.1.11.15.13.22.22.47.26.74.03.27,0,.55-.08.83-.08.28-.22.56-.42.8-.01.02-.02.03-.04.05l-.04.04-.08.08c-.06.06-.12.12-.18.17-.12.11-.26.21-.39.3-.52.33-1.09.56-1.61.78-.09.07-.18.15-.27.22-.2.17-.41.34-.61.5-.12-.02-3.3-.93-4.19-1.77-.22-.37-.35-.73-.34-1.09-.32-.15-.64-.29-1.03-.4-.18-.05-.37-.1-.56-.15-.87,3.48-3.82,15.18-5.58,28.44-2.35,15.83-2.99,33.91-2.1,41.8Z"/><path class="cls-15" d="M38.67,71.44c6.61,1.79,13.62,2.07,20.35.83v4.99c-6.74,1.09-13.7.85-20.35-.72v-5.1Z"/><path class="cls-14" d="M77.05,62.51c-.61,4.99-4.24,14.99-5.99,20.29,1.91,26.03,3.28,34.61-2.03,39.88-2.53,2.51-8.35,1.75-8.35,1.75l-5.14-78.64c.14-.12.27-.24.41-.36,3.66-3.2,4.79-7.52,5.13-9.73.31.24.62.51.94.79,1.24,1.1,2.49,2.44,3.58,3.96,1.21,1.69,11.89,18.39,11.44,22.07Z"/><path class="cls-12" d="M42.42,52.66l-2.53,70.72s-9.09,5.56-8.45-11.65c.34-9.18,1.93-25.85,3.34-39.41-3.83,2.91-6.94,2.98-6.94,2.98l-4.28-5.44s7.3-4.86,9.14-8.7c1.31-2.72,2.57-7.14,3.19-9.49.1-.04.33-.75.58-1.61.75.44,1.53.79,2.37,1.06-.02.35-.03.69-.04,1.04,0,.02,0,.04-.01.06.87.31,2.06.55,3.61.43Z"/><path class="cls-2" d="M61.25,34.24s-.01.55-.15,1.45c-.35,2.22-1.48,6.54-5.13,9.73-.14.12-.28.24-.41.36-5.92,5.08-10.18,6.65-13.13,6.89-3.11.25-4.76-1-5.36-1.2-.03-.01-.05-.02-.07-.02-1.03-.23-1.4-2.62-1.44-2.96-.04-.34,1.41-.3,1.35-.55-.06-.25-.4-4.01-.35-4.28.04-.27,1.27-.05,1.27-.05,0,0,1.1-1,1.29-1.9.5-2.42.66-7.14,2.48-8.5,1.38-1.04,5.38,1.24,7.09,1.35,3.99.27,5.17.43,9.08-.49.19-.04.36-.13.52-.24.58-.04.94-.1,1.04-.1.39-.01,1.95.52,1.95.52Z"/><path class="cls-10" d="M37.81,43.59s.12-.01.34-.04c.22-.03.54-.07.94-.13.41-.05.88-.14,1.45-.21,10.39-1.32,18.24-6.74,19.15-7.91.15-.2.26-.36.32-.48.07-.11.09-.18.09-.18,0,0-.06.26-.31.69-.13.21-.29.46-.52.74-.22.28-.49.58-.83.9-.16.16-.35.32-.54.49-.19.17-.41.33-.63.5-.23.17-.47.34-.71.51-.26.17-.52.34-.79.51-.28.17-.57.34-.86.51-.31.16-.61.33-.93.49-.33.16-.67.31-1.01.47-.17.08-.36.15-.54.22l-.55.21-.28.11-.29.1c-.19.06-.39.13-.58.19-.38.13-.79.24-1.18.36-.2.05-.39.12-.6.17-.2.05-.41.1-.61.15-.2.05-.4.1-.6.15-.2.04-.41.09-.61.14-.8.18-1.61.33-2.37.47-.39.07-.76.13-1.13.19-.37.06-.73.11-1.07.16-.35.05-.68.09-1,.14-.32.04-.63.08-.91.11-.58.07-1.08.12-1.51.16-.42.04-.76.07-.98.09-.23.02-.35.03-.35.03Z"/><path class="cls-10" d="M37.26,48.05s.15-.02.42-.06c.27-.04.67-.1,1.18-.17.25-.04.53-.08.83-.13,3.42-.53,14.53-3.29,19.29-8.63.32-.35.49-.76.71-1.15.51-.91.86-1.7,1.07-2.26.1-.28.18-.5.23-.65.05-.15.07-.23.07-.23,0,0-.01.08-.04.24-.03.16-.07.39-.15.67-.16.57-.41,1.39-.86,2.33-.22.47-.5.97-.83,1.49-.33.52-.72,1.05-1.18,1.58-.46.53-.99,1.06-1.61,1.56-.62.5-1.32.98-2.12,1.42-.1.05-.2.11-.3.16l-.31.15c-.11.05-.2.1-.32.15l-.34.14c-.22.09-.45.19-.67.28-.23.09-.47.17-.7.26-.24.08-.46.17-.7.25-.24.08-.48.15-.72.22-.47.15-.97.28-1.45.42-.12.03-.24.07-.36.1-.12.03-.25.06-.37.09-.24.06-.49.12-.73.18-.48.12-.97.21-1.43.32-.47.1-.94.19-1.39.28-.46.08-.9.16-1.32.24-.43.07-.84.14-1.23.2-.4.06-.78.11-1.13.16-.36.05-.69.09-1,.13-.31.04-.6.07-.86.11-.52.06-.94.1-1.22.13-.29.03-.44.04-.44.04Z"/><path class="cls-18" d="M44.2,33.03c.05.52.26,1.1.65,1.41.19-.44.51-.82,1.02-.79.64.03,1.11.48,1.17,1.13.09,1.05.2,1.94.88,2.81.63.8,1.38,1.4,2.31,1.77,1.32-1.44,3.07-2.56,3.91-4.37.14-.31.48-.51.82-.38,1.86.74,2.58-.72,3.75-1.71-.76-2.69-.29-5.48-1.71-7.91v.04c-1.27-.41-2.43-.72-3.55-.92.03.54.04,1.08.06,1.59.06,1.41-.19,2.88-.32,4.33-.41-.27-2.05-.91-2.47-1.03-.26-.13-.82.27-1.08.4-.31-.18-.75-.53-1.06-.41-.42.11-.59.14-1.76.83-.4-2.15-.17-4.04.11-5.8-.33.04-.67.1-1.02.15-.21.34-.45.68-.69,1.04-1.35,2.05-.92,4.62-.86,6.93,0,.34-.05.63-.15.88Z"/><path class="cls-1" d="M46.78,29.59c.02.08.04.15.06.22,1.15-.68,1.32-.71,1.74-.82.28-.11.66.16.96.35,0,0,0,0,0,0,.04.02.07.04.1.06.27-.14.82-.53,1.08-.4.42.12,2.06.77,2.47,1.03.12-1.46.38-2.92.32-4.33-.02-.51-.03-1.05-.07-1.6-2.14-.39-4.14-.4-6.53-.08-.26,1.7-.48,3.51-.14,5.56Z"/><path class="cls-11" d="M51.38,30.82c-.96.08-1.58.09-2.57-.05.69-.09.59-.11,1.09-.1.61,0,.76.04,1.49.15Z"/><path class="cls-13" d="M44.39,16.1c-.02.21.14.4.34.41.04,0,.07,0,.11-.01,1.44,2.43,1.41,5.01.97,7.69.03,0,.06-.01.1-.02.35-.06.69-.11,1.02-.15,2.39-.32,4.39-.3,6.53.08,1.12.2,2.28.51,3.55.92v-.04c-.03-2.74.34-5.3,2.16-7.49.04.03.1.04.15.05.2.02.38-.14.4-.35.02-.21-.14-.4-.34-.41-.2-.01-.38.14-.4.36,0,.1.02.19.08.26-1.43,1.53-2.16,2.66-2.81,2.36-.55-.27-.71-1.77.05-3.6.31-.05.57-.31.59-.65.03-.39-.25-.73-.63-.76-.38-.03-.7.26-.73.65-.01.17.04.33.13.47-1.01,2.03-1.71,3.48-2.39,3.33-.65-.15-.97-1.88-.81-4.16.22-.1.38-.32.4-.59.03-.39-.25-.73-.63-.76-.38-.03-.7.27-.73.65-.02.26.1.49.28.63-.18,2.28-.75,3.96-1.42,4.01-.7.05-1.18-1.52-1.89-3.72.11-.12.19-.28.2-.45.03-.4-.26-.75-.65-.78-.39-.03-.73.27-.76.68-.03.36.21.68.54.76.5,1.95.12,3.44-.47,3.62-.67.19-1.22-.98-2.37-2.66.09-.06.15-.16.16-.28.02-.21-.14-.4-.34-.41-.2-.01-.38.14-.4.36Z"/><path class="cls-4" d="M49.7,23.81c-.01.18-.04.37-.07.55-.14.69-.32,1.38-.5,2.06-.15.58-.55,1.74-.31,2.33.12.29.55.41.72.6-.3-.19-.68-.45-.96-.35-.42.11-.58.14-1.74.82-.02-.07-.04-.15-.06-.22-.34-2.05-.12-3.86.14-5.56.98-.13,1.89-.21,2.78-.22Z"/><path class="cls-7" d="M61.68,35.14c-.13.62-1.17.92-2.33.67-1.15-.25-1.98-.94-1.85-1.56.13-.61,1.17-.91,2.33-.67,1.15.25,1.98.94,1.85,1.56Z"/><path class="cls-21" d="M78.52,75.95c0-11.72-5.54-21.22-12.38-21.22s-12.38,9.5-12.38,21.22,5.54,21.22,12.38,21.22,12.38-9.5,12.38-21.22Z"/><path class="cls-20" d="M67.7,75.85c0-.81-.37-1.46-.84-1.46s-.84.66-.84,1.46.37,1.46.84,1.46.84-.66.84-1.46Z"/><path class="cls-8" d="M25.66,70.18c-.4.37-.88.29-1.65.45-.32.07-.55.22-.72.36.52-.17,2.18-.24,3.27.02,1.18.27,1.36.63,1.38,1.09.02.45-.08.82-.08.82,0,0,.38.27.48.61.03.11.04.2.04.28.07.05.13.09.18.1.37.15.67-.3.67-.3,0,0-.13-.9-.12-1.22.01-.33.18-.65.22-1.06.04-.41-.42-.64-.91-.92-.49-.29-.82-.85-1.3-.95-.48-.1-1.08.36-1.48.73Z"/><path class="cls-7" d="M24.75,69.59c-.12.08-.2.22-.2.38,0,.16.1.28.22.34-.12.08-.2.22-.19.38,0,.16.1.28.22.34-.12.08-.2.22-.19.38,0,.16.09.28.21.34-.12.08-.19.22-.18.38,0,.16.09.28.21.34-.11.08-.19.22-.18.38,0,.16.09.28.2.34-.11.08-.18.22-.17.38,0,.16.09.28.2.34-.11.08-.18.22-.17.38,0,.16.09.28.2.34-.11.08-.17.22-.17.38,0,.16.08.28.19.34-.1.08-.17.22-.16.38,0,.16.08.28.19.35-.1.08-.16.22-.16.38,0,.16.08.28.18.35-.1.08-.16.22-.15.38,0,.16.08.28.18.35-.09.08-.15.22-.15.37,0,.16.08.28.17.35-.09.08-.15.22-.14.37,0,.16.08.29.17.35-.09.08-.15.22-.14.37,0,.16.07.29.16.35-.09.08-.14.22-.13.37,0,.07.02.13.04.19-.03,0-.06,0-.09.02-.65.16-.79,1.1-.37,1.65.44.54,1.43.71,1.43.71,0,0,.95-.21,1.37-.76.4-.56.24-1.49-.42-1.63-.01,0-.02,0-.04,0,.02-.05.03-.11.03-.17,0-.16-.05-.3-.13-.37.09-.06.16-.19.16-.35,0-.16-.05-.3-.14-.37.09-.06.16-.19.17-.35,0-.16-.05-.3-.14-.37.1-.06.17-.19.17-.35,0-.16-.05-.3-.15-.37.1-.06.17-.19.18-.35,0-.16-.06-.3-.15-.38.1-.06.18-.19.18-.35,0-.16-.06-.3-.16-.38.1-.06.18-.19.19-.35,0-.16-.06-.3-.16-.38.11-.06.19-.19.19-.34,0-.16-.06-.3-.17-.38.11-.06.19-.19.2-.34,0-.16-.06-.3-.17-.38.11-.06.19-.19.2-.34,0-.16-.07-.3-.17-.38.11-.06.2-.19.2-.34,0-.16-.07-.3-.18-.38.12-.06.2-.19.21-.34,0-.16-.07-.3-.18-.38.12-.06.21-.19.21-.34,0-.16-.07-.3-.19-.38.12-.06.21-.19.22-.34,0-.16-.07-.3-.19-.38.13-.06.22-.19.22-.34,0-.16-.07-.3-.2-.38.13-.06.22-.19.23-.34.01-.23-.16-.43-.39-.44-.69-.05-1.39-.05-2.09,0-.22.02-.4.22-.39.44,0,.16.1.28.23.34Z"/><path class="cls-6" d="M25.11,67.3c-.01.34-.38.48-.38.48l1.2.27h0s0,0,0,0l1.2-.27s-.37-.14-.38-.48c0-1.07.75-1.22.75-1.22,0,0-.3-37.01-.53-37.76-.22-.75-1.05-2.99-1.05-2.99v.05s0-.05,0-.05c0,0-.83,2.25-1.05,2.99-.23.75-.53,37.76-.53,37.76,0,0,.79.09.75,1.22Z"/><polygon class="cls-17" points="25.62 68.04 25.96 29.12 26.29 68.04 25.62 68.04"/><path class="cls-22" d="M20.45,68.76c.21,0,.4-.09.53-.24.28-.05.69-.09,1.25-.05,1.17.09,2.6.54,3.54.54.07,0,.13,0,.18-.02.05.01.11.02.18.02.94,0,2.38-.45,3.54-.54.58-.04,1.01,0,1.29.05.13.14.32.23.53.23.4,0,.73-.33.73-.73s-.33-.73-.73-.73c-.19,0-.37.08-.5.2-.36.05-.92.13-1.41.21-.81.13-3.45,0-3.45,0h-.36s-2.65.13-3.45,0c-.47-.08-1.01-.16-1.37-.21-.13-.13-.31-.2-.5-.2-.4,0-.73.33-.73.73s.33.73.73.73Z"/><path class="cls-22" d="M25.97,83.51c1.03,0,1.87-.84,1.87-1.87s-.84-1.87-1.87-1.87-1.87.84-1.87,1.87.84,1.87,1.87,1.87Z"/><path class="cls-8" d="M23.03,74.3s.11.22.09.57c-.01.35.06.35.21.76.15.41.35.86.34,1.15,0,.3.32.42.47.49.15.07.71.28,1.02.32.3.03,1.77-.01,2.18-.17.41-.16.55-.32.6-.45.05-.14.06-.24.04-.45-.02-.21-.14-.38-.14-.38,0,0,.48-.18.53-.37.05-.19.16-.33.1-.55-.06-.22-.28-.54-.28-.54,0,0,.15-.07.22-.28.07-.22.18-.34.11-.68-.06-.34-.41-.65-.41-.65,0,0,.13-.35.16-.8.03-.45-.11-.83-1.26-1.22-1.15-.39-2.96-.48-3.35-.33-.4.15-.63.67-.66.96-.03.29.2.49.15.82-.05.33-.12.35-.21.87-.09.51.1.96.1.96Z"/><path class="cls-5" d="M25.5,76.23c.07-.03.15-.05.23-.06-.08.02-.15.04-.23.06ZM27.4,76.21c-.08-.01-.17-.02-.26-.02.09.01.18.02.26.02ZM25.73,76.17c.17-.01.34.03.5.04.24.03.6-.03.91-.02-.23-.03-.47-.09-.68-.1-.25,0-.49.02-.73.08ZM26.41,74.76c-.38-.04-.75-.11-1.14-.2.27.15.7.2,1.14.2ZM28.14,71.72c0,.33-.05.52-.06.76-.02.42-.08.64-.51.66-.29,0-.57,0-.86-.03.16.03.31.06.45.09.37.08,1.4.44,1.07,1.06-.09.16-.36.37-.55.4-.32.05-.8.1-1.26.1.26.03.53.05.8.06.38.01.83.01.97.44.13.38-.11.8-.48.92-.1.03-.19.04-.3.04.06.01.1.02.15.04.35.16.4.56.26.89.07-.06.1-.12.12-.18.05-.14.06-.24.04-.45-.02-.21-.14-.38-.14-.38,0,0,.48-.18.53-.37.05-.19.16-.33.1-.55-.06-.22-.28-.54-.28-.54,0,0,.15-.07.22-.28.07-.22.18-.34.11-.68-.06-.34-.41-.65-.41-.65,0,0,.13-.35.16-.8.01-.19,0-.36-.11-.53ZM26.71,73.11c-.6-.12-1.29-.25-1.51-.26.5.11,1.01.21,1.51.26Z"/></g></svg>