<?xml version="1.0" encoding="UTF-8"?><svg xmlns="http://www.w3.org/2000/svg" xmlns:xlink="http://www.w3.org/1999/xlink" viewBox="0 0 102.24 150.24"><defs><style>.cls-1{mask:url(#mask);}.cls-2{fill:url(#linear-gradient-5);}.cls-2,.cls-3,.cls-4,.cls-5,.cls-6,.cls-7,.cls-8,.cls-9,.cls-10,.cls-11,.cls-12,.cls-13,.cls-14,.cls-15,.cls-16,.cls-17,.cls-18,.cls-19,.cls-20,.cls-21,.cls-22{fill-rule:evenodd;}.cls-3{fill:url(#linear-gradient-7);}.cls-4{fill:url(#linear-gradient-2);}.cls-5{fill:url(#linear-gradient-9);}.cls-6{fill:url(#linear-gradient-6);}.cls-23{filter:url(#luminosity-noclip);}.cls-24{fill:none;stroke:#1e1e1c;stroke-miterlimit:10;stroke-width:.25px;}.cls-25{fill:#cb1525;}.cls-26{fill:url(#linear-gradient-8);}.cls-27{fill:url(#linear-gradient-4);}.cls-28{fill:url(#linear-gradient-3);}.cls-29{fill:#7cafce;}.cls-7,.cls-30{fill:#f7d498;}.cls-31{fill:#a17566;}.cls-32{mask:url(#mask-1);}.cls-33{fill:#d55a45;}.cls-8{fill:#1b2025;}.cls-34{fill:#fff;}.cls-35{fill:url(#linear-gradient-14);}.cls-36{fill:url(#linear-gradient-21);}.cls-37{fill:url(#linear-gradient-20);}.cls-38{fill:url(#linear-gradient-22);}.cls-39{fill:url(#linear-gradient-23);}.cls-40{fill:url(#linear-gradient-28);}.cls-41{fill:url(#linear-gradient-25);}.cls-42{fill:url(#linear-gradient-30);}.cls-43{fill:url(#linear-gradient-15);}.cls-44{fill:url(#linear-gradient-27);}.cls-45{fill:url(#linear-gradient-24);}.cls-46{fill:url(#linear-gradient-26);}.cls-9{fill:url(#linear-gradient-19);}.cls-10{fill:url(#linear-gradient-18);}.cls-11{fill:url(#linear-gradient-17);}.cls-12{fill:url(#linear-gradient-16);}.cls-13{fill:url(#linear-gradient-29);}.cls-14{fill:url(#linear-gradient-10);}.cls-15{fill:url(#linear-gradient-11);}.cls-16{fill:url(#linear-gradient-13);}.cls-17{fill:#deb8a3;}.cls-18{fill:url(#linear-gradient);}.cls-19{fill:#a9c8d2;}.cls-47{fill:#d4e3e8;}.cls-20,.cls-48{fill:#f6c008;}.cls-49{fill:#e5b520;}.cls-21{fill:#f7d499;}.cls-22{fill:url(#linear-gradient-12);mix-blend-mode:multiply;}</style><linearGradient id="linear-gradient" x1="53.22" y1="20.23" x2="53.22" y2="33.49" gradientUnits="userSpaceOnUse"><stop offset="0" stop-color="#d4884b"/><stop offset=".25" stop-color="#d58b4e"/><stop offset=".47" stop-color="#da9659"/><stop offset=".68" stop-color="#e2a86b"/><stop offset=".88" stop-color="#eec185"/><stop offset="1" stop-color="#f7d498"/></linearGradient><linearGradient id="linear-gradient-2" x1="52.19" y1="26.15" x2="52.19" y2="32.74" gradientUnits="userSpaceOnUse"><stop offset="0" stop-color="#f7d498"/><stop offset="1" stop-color="#e0a275"/></linearGradient><linearGradient id="linear-gradient-3" x1="70.74" y1="170.59" x2="60.89" y2="187.9" gradientTransform="translate(-12.5 -134.52) rotate(3.81)" gradientUnits="userSpaceOnUse"><stop offset="0" stop-color="#787992"/><stop offset=".24" stop-color="#78809a"/><stop offset=".62" stop-color="#7a94b0"/><stop offset="1" stop-color="#7cafce"/></linearGradient><linearGradient id="linear-gradient-4" x1="37.71" y1="35.66" x2="71.46" y2="94.96" gradientTransform="matrix(1,0,0,1,0,0)" xlink:href="#linear-gradient-3"/><linearGradient id="linear-gradient-5" x1="3838.29" y1="-34.85" x2="3841.14" y2="-34.85" gradientTransform="translate(3914.68 -44.77) rotate(177.98) scale(1 -1)" xlink:href="#linear-gradient-2"/><linearGradient id="linear-gradient-6" x1="-1161.13" y1="491.8" x2="-1174.3" y2="505.95" gradientTransform="translate(1302.06 -212.22) rotate(12.08)" gradientUnits="userSpaceOnUse"><stop offset="0" stop-color="#cb1525"/><stop offset=".25" stop-color="#d1262d"/><stop offset=".74" stop-color="#e35441"/><stop offset="1" stop-color="#ee6f4e"/></linearGradient><linearGradient id="linear-gradient-7" x1="49.19" y1="21.44" x2="50.74" y2="21.44" xlink:href="#linear-gradient-2"/><linearGradient id="linear-gradient-8" x1="58.36" y1="21.34" x2="49.65" y2="16.51" gradientUnits="userSpaceOnUse"><stop offset="0" stop-color="#787992"/><stop offset=".17" stop-color="#78809a"/><stop offset=".43" stop-color="#7b94b0"/><stop offset=".6" stop-color="#7da4c2"/><stop offset="1" stop-color="#787992"/></linearGradient><linearGradient id="linear-gradient-9" x1="2784.2" y1="-29.01" x2="2783.34" y2="-25.38" gradientTransform="translate(2824.52) rotate(-180) scale(1 -1)" xlink:href="#linear-gradient-2"/><linearGradient id="linear-gradient-10" x1="52.4" y1="24.65" x2="49.49" y2="30.63" xlink:href="#linear-gradient"/><linearGradient id="linear-gradient-11" x1="54.32" y1="25.57" x2="54.32" y2="25.95" xlink:href="#linear-gradient"/><filter id="luminosity-noclip" x="40.66" y="82.26" width="25.97" height="54.19" color-interpolation-filters="sRGB" filterUnits="userSpaceOnUse"><feFlood flood-color="#fff" result="bg"/><feBlend in="SourceGraphic" in2="bg"/></filter><filter id="luminosity-noclip-2" x="40.66" y="-8156.41" width="25.97" height="32766" color-interpolation-filters="sRGB" filterUnits="userSpaceOnUse"><feFlood flood-color="#fff" result="bg"/><feBlend in="SourceGraphic" in2="bg"/></filter><mask id="mask-1" x="40.66" y="-8156.41" width="25.97" height="32766" maskUnits="userSpaceOnUse"/><linearGradient id="linear-gradient-12" x1="1535.67" y1="196.95" x2="1535.67" y2="221.16" gradientTransform="translate(1505.84 119.69) rotate(-170.8) scale(.94 -1.05)" gradientUnits="userSpaceOnUse"><stop offset="0" stop-color="#fff"/><stop offset="1" stop-color="#ccc"/></linearGradient><mask id="mask" x="40.66" y="82.26" width="25.97" height="54.19" maskUnits="userSpaceOnUse"><g class="cls-23"><g class="cls-32"><path class="cls-22" d="M42.99,90.14c.43-2.98,5.17-7.88,5.17-7.88,5.09.49,10.17.99,15.25,1.48.88,1.84,1.76,3.69,2.63,5.53-.02,1.07-.04,2.14-.06,3.22.05-.02.09-.03.14-.05,0,0,.68,1.67.47,2.97-.22,1.3-.63,3.94-2.06,7.63-1.42,3.69.02,7.13-.12,8.79-.17,2.28-.74,3.56-1.51,4.78-.65,1.02-1.46,2-2.33,3.48-.09.16-.19.33-.29.5,0,0,0,0,0,.01-.05.09-.1.17-.14.26,0,0,0,0,0,0-.05.09-.09.17-.14.26,0,0,0,.01,0,.02-.05.09-.09.18-.14.28,0,0,0,.01-.01.02-.05.09-.09.18-.14.27,0,0,0,.02-.01.02-.05.1-.09.19-.14.29,0,.01-.01.02-.02.04-.04.09-.09.19-.13.28,0,.01-.01.02-.02.03-.05.1-.09.21-.14.31,0,.02-.01.03-.02.05-.04.1-.09.2-.13.3,0,.01-.01.03-.02.04-.05.11-.09.22-.14.33,0,.02-.02.04-.03.06-.04.1-.08.21-.13.32,0,.01-.01.03-.02.04-.05.12-.09.24-.14.36,0,.03-.02.05-.03.07-.04.11-.08.22-.13.34,0,.02-.01.03-.02.05-.05.13-.09.25-.14.38-.01.03-.02.06-.03.09-.04.12-.08.24-.13.36,0,.02-.01.03-.02.05-.05.13-.09.27-.14.41-.01.03-.02.07-.03.1-.04.13-.09.26-.13.39,0,.02-.01.03-.02.05-.05.14-.09.29-.14.44-.01.04-.02.07-.03.11-.04.14-.09.28-.13.43,0,.01,0,.03-.01.04-.05.16-.09.32-.14.48-.01.04-.02.08-.04.12-.05.16-.09.32-.14.48,0,0,0,.01,0,.02-.05.17-.1.34-.14.52-.01.04-.02.09-.04.13-.05.18-.1.35-.15.54-.73,2.82-.38,6.98-2.35,6.66-1.96-.31-3.48-1.11-2.98-2.98.51-1.87,1.35-2.42,2.39-4.21.07-.13.15-.26.22-.4.02-.04.05-.09.07-.14.05-.09.1-.18.14-.28.03-.06.06-.11.08-.17.04-.09.09-.17.13-.26.03-.06.06-.12.09-.19.04-.09.08-.17.12-.26.03-.07.06-.13.09-.2.04-.09.08-.18.12-.27.03-.07.06-.13.08-.2.04-.09.08-.18.11-.28.03-.07.05-.13.08-.2.04-.1.08-.19.11-.29.03-.07.05-.13.08-.2.04-.1.08-.21.12-.32.02-.06.04-.12.07-.18.05-.13.09-.26.14-.4.01-.04.03-.07.04-.11.06-.17.12-.34.17-.52.02-.05.03-.1.05-.14.04-.13.08-.25.12-.38.02-.07.04-.13.06-.2.03-.11.07-.22.1-.33.02-.07.04-.15.06-.22.03-.1.06-.21.09-.31.02-.08.04-.15.06-.22.03-.1.06-.21.09-.31.02-.08.04-.15.06-.23.03-.1.06-.21.08-.31.02-.08.04-.15.06-.23.03-.1.05-.21.08-.31.02-.07.04-.15.06-.22.03-.11.05-.22.08-.32.02-.07.03-.14.05-.21.03-.12.06-.24.09-.36.01-.06.03-.11.04-.17.04-.17.08-.35.12-.52,0-.04.02-.07.02-.11.03-.14.06-.27.09-.41.01-.06.03-.13.04-.19.02-.1.05-.21.07-.31.02-.07.03-.15.05-.22.02-.09.04-.18.06-.27.02-.08.03-.15.05-.23.02-.09.03-.17.05-.26.02-.08.03-.15.05-.23.02-.08.03-.16.05-.24.02-.08.03-.16.04-.23.01-.08.03-.15.04-.22.01-.08.03-.16.05-.24.01-.06.02-.13.04-.19.02-.08.03-.17.05-.25,0-.05.02-.1.03-.15.07-.36.13-.71.18-1.03.07-.41.14-.78.19-1.1.61-3.39-.4-7.09-.91-9.29-2.08-8.83-10.62-2.91-10.79,3.2-.04,1.06-.39,4.62-1.12,6.03-.08.16-.13.41-.15.72-.01.16-.01.33-.01.52v.02c0,.09,0,.18,0,.28,0,0,0,.02,0,.02,0,.1,0,.2.02.3,0,0,0,0,0,.01.01.21.03.44.06.67,0,0,0,.01,0,.02.01.11.02.23.04.35,0,.01,0,.02,0,.04.01.12.03.23.04.35,0,.01,0,.02,0,.04.02.12.03.25.05.37,0,0,0,0,0,0,.02.13.04.26.06.39,0,0,0,0,0,.01.02.13.04.25.06.38,0,.02,0,.03,0,.04.02.12.04.25.06.37,0,.02,0,.04,0,.06.02.12.04.25.07.37,0,.01,0,.03,0,.04.05.26.1.52.15.78,0,.01,0,.03,0,.05.02.12.05.24.07.37,0,.02,0,.04.01.06.02.12.05.24.07.36,0,.02,0,.04.01.06.03.12.05.24.08.36,0,.01,0,.02,0,.04.03.12.05.23.08.34,0,.01,0,.02,0,.04.03.11.05.23.08.34,0,.02,0,.04.01.06.03.11.05.22.08.32,0,.02.01.04.02.06.03.11.05.21.08.31,0,.02,0,.03.01.05.03.11.06.21.08.31,0,0,0,0,0,0,.03.1.06.2.08.29,0,.01,0,.03.01.04.03.09.05.18.08.26,0,.02,0,.03.02.05.03.08.05.17.08.24,0,.01,0,.03.01.04.03.08.05.16.08.23,0,0,0,.01,0,.02.03.07.05.14.08.21,0,0,0,.01,0,.02.03.07.05.13.08.18,0,0,0,.02.01.03.02.05.05.11.07.15,0,0,0,.02.01.03.02.05.05.09.07.13,0,0,0,0,.01.02.03.04.05.07.07.1.75.93,3.85,2.06,3.34,4.56-.52,2.5-3.19,3.97-4.57,3.1-1.39-.87-.85-3.59-1.2-6.25-.29-2.29-1.57-7.31-2.41-9.7-.06-.17-.11-.33-.17-.49-.02-.06-.04-.11-.06-.16-.04-.1-.07-.2-.11-.3-.02-.07-.05-.13-.07-.2-.03-.08-.06-.15-.08-.22-.03-.08-.06-.17-.09-.25-.01-.03-.02-.06-.04-.1-.56-1.49-1.02-2.63-1.34-3.78-.42-1.55-.13-3.66.76-7.25.89-3.59.6-4.94.44-8.65-.14-3.33.76-4.71.94-4.96Z"/></g></g></mask><linearGradient id="linear-gradient-13" x1="1535.67" y1="196.95" x2="1535.67" y2="221.16" gradientTransform="translate(1505.84 119.69) rotate(-170.8) scale(.94 -1.05)" gradientUnits="userSpaceOnUse"><stop offset="0" stop-color="#435973"/><stop offset="1" stop-color="#99aca6"/></linearGradient><linearGradient id="linear-gradient-14" x1="47.11" y1="44.05" x2="39.13" y2="58.91" gradientUnits="userSpaceOnUse"><stop offset="0" stop-color="#363635"/><stop offset=".21" stop-color="#404043"/><stop offset=".61" stop-color="#5a5b68"/><stop offset="1" stop-color="#787992"/></linearGradient><linearGradient id="linear-gradient-15" x1="53.16" y1="59.88" x2="53.16" y2="89.81" gradientUnits="userSpaceOnUse"><stop offset="0" stop-color="#deb8a3"/><stop offset="1" stop-color="#b58372"/></linearGradient><linearGradient id="linear-gradient-16" x1="51.6" y1="63.82" x2="48.21" y2="95.09" gradientUnits="userSpaceOnUse"><stop offset="0" stop-color="#472212"/><stop offset="1" stop-color="#b58372"/></linearGradient><linearGradient id="linear-gradient-17" x1="66.41" y1="52.27" x2="62" y2="92.92" xlink:href="#linear-gradient-16"/><linearGradient id="linear-gradient-18" x1="45.05" y1="102.8" x2="53.76" y2="125.07" gradientUnits="userSpaceOnUse"><stop offset="0" stop-color="#b58372"/><stop offset="1" stop-color="#363635"/></linearGradient><linearGradient id="linear-gradient-19" x1="58.09" y1="104.65" x2="67.12" y2="127.74" xlink:href="#linear-gradient-18"/><linearGradient id="linear-gradient-20" x1="85.84" y1="512.77" x2="81.82" y2="513.27" gradientTransform="translate(35.81 -478.98) rotate(6.53)" gradientUnits="userSpaceOnUse"><stop offset="0" stop-color="#f7ead8"/><stop offset="1" stop-color="#b58372"/></linearGradient><linearGradient id="linear-gradient-21" x1="219.25" y1="247.83" x2="214.43" y2="241.67" gradientTransform="translate(-71.88 -254.14) rotate(17.33)" xlink:href="#linear-gradient-15"/><linearGradient id="linear-gradient-22" x1="1242.95" y1="569.29" x2="1238.98" y2="569.79" gradientTransform="translate(1378.77 -265.15) rotate(-168.25) scale(1 -1)" xlink:href="#linear-gradient-20"/><linearGradient id="linear-gradient-23" x1="1366.62" y1="85.03" x2="1361.73" y2="78.78" gradientTransform="translate(1410.59 -16.47) rotate(-179.05) scale(1 -1)" xlink:href="#linear-gradient-15"/><linearGradient id="linear-gradient-24" x1="53.85" y1="54.3" x2="53.85" y2="68.4" xlink:href="#linear-gradient-15"/><linearGradient id="linear-gradient-25" x1="-64.89" y1="515.16" x2="-64.89" y2="518.36" gradientTransform="translate(228.74 -439.64) rotate(13.01)" gradientUnits="userSpaceOnUse"><stop offset="0" stop-color="#b58372"/><stop offset="1" stop-color="#deb8a3"/></linearGradient><linearGradient id="linear-gradient-26" x1="3806.74" y1="-379.33" x2="3806.74" y2="-376.14" gradientTransform="translate(3852.41 -439.64) rotate(166.99) scale(1 -1)" xlink:href="#linear-gradient-25"/><linearGradient id="linear-gradient-27" x1="49.39" y1="48.04" x2="49.39" y2="62.78" gradientTransform="matrix(1,0,0,1,0,0)" xlink:href="#linear-gradient-25"/><linearGradient id="linear-gradient-28" x1="58.35" y1="48.04" x2="58.35" y2="62.78" gradientTransform="matrix(1,0,0,1,0,0)" xlink:href="#linear-gradient-25"/><linearGradient id="linear-gradient-29" x1="53.87" y1="52.45" x2="53.87" y2="58.66" xlink:href="#linear-gradient-16"/><linearGradient id="linear-gradient-30" x1="59.34" y1="34.7" x2="45.9" y2="51.53" gradientUnits="userSpaceOnUse"><stop offset="0" stop-color="#363635"/><stop offset=".21" stop-color="#48484f"/><stop offset=".55" stop-color="#626373"/><stop offset=".82" stop-color="#727389"/><stop offset="1" stop-color="#787992"/></linearGradient></defs><g id="NOOOOO"><g id="margem"><polyline class="cls-24" points="31.32 141.14 10.38 141.14 10.38 75.95 10.38 9.1 31.32 9.1"/><polyline class="cls-24" points="70.92 9.1 91.86 9.1 91.86 141.14 70.92 141.14"/><line class="cls-24" x1="61.02" y1="141.14" x2="41.22" y2="141.14"/><line class="cls-24" x1="41.22" y1="9.1" x2="61.02" y2="9.1"/></g></g><g id="ESPADA"><path class="cls-18" d="M59.1,28.4c-2.5,2.51-4.21,1.57-6.59,1.38-.82-.07-3.04-2.63-3.95-4.86-.58.7-1.12,1.54-.5,2.22-2.06-1.32.6-4.26.23-6.41,0,0,.02-.03.05-.08,1.72-1.15,6.31.29,9.19,2.21,0-.02,0-.04,0-.06.47.71,1.24,1.83,1.37,2.72.15,1,.37,1.79.2,2.89Z"/><path class="cls-21" d="M56.33,30.34c-.5.52-2.36,2.4-3.27,2.4-.95,0-2.86-1.92-3.46-2.55.08-.05.15-.09.21-.13,1.52-.28,2.95-1.07,4-2.23.28-.31.51-.57.7-.79-.08-.34-.12-.67-.15-1.02h0s.01-.03.02-.04c.26,1,.5,2,.42,3.09-.04.45.54.87.92.54.1.2.32.45.61.73Z"/><path class="cls-4" d="M53.6,32.59c-.2.09-.38.15-.54.15-.89,0-2.61-1.67-3.32-2.4.26-.15.43-.27.46-.33,0-.01.02-.03.02-.04,1.36-.33,2.64-1.08,3.6-2.14.28-.31.51-.57.7-.79-.06-.27-.1-.54-.13-.82.02-.02.04-.04.06-.06.05.2.13.48.18.82-1.02,1.82-2.22,4.28-2.05,4.56.16.25.66.73,1.02,1.06Z"/><path class="cls-7" d="M53.94,23.82c.07.6.21,1.18.35,1.75-.74-.09-1.86-.21-3.02-.93-.64-.39-1.28-.56-1.86-.02l.09-.12s-.1.09-.14.13c-.3-1-.48-1.98-.34-2.34.26-.68.04-1.56.04-1.56,0,0-.09-.84,0-1.2.07-.3.71-1.44,2.03-1.64.28-.05.59-.05.93,0,.55.09,1.07.33,1.54.62-.08.08-.13.2-.13.37.03.75.15,1.48.27,2.22.15.9.12,1.81.22,2.71Z"/><path class="cls-7" d="M54.39,25.97s-.01.03-.02.04c0-.06,0-.11-.01-.17,0,.04.02.08.03.12Z"/><path class="cls-28" d="M43.92,32.4s-.84-.46-1.96-.46c-1.12,0-2.12,1.6-2.26,1.88-1.8,3.85-6.44,11.88-7.55,14.29-1.1,2.41,5.14,9.04,7.79,10.42,2.65,1.38,4.78,1.56,6.22-.06,1.44-1.62,1.71-4.43,1.71-4.43,0,0-7.62-4.17-7.64-5.14-.04-1.33,5.4-6.68,5.4-6.68l-1.7-9.82Z"/><path class="cls-27" d="M79.15,52.89c-.58,1.73-5.16,2.43-5.16,2.43,0,0-2.55-6.75-5.29-8.94-1.94-1.55-5.26-3.38-7.02-4.31-.03-.16-.64-.29-1.07-.44-.02.26-.04.49-.04.68.03,2.43-.83,10.06-1.31,12.95,2.18,2.28,4.83,3.62,6.11,4.53,4.48,3.2,7.52,7.8,7.13,10.29-1.16,7.33-4.94,16.91-5.05,17.67-.12.76.35,2.65,1.51,4.36,1.16,1.7.7,4.17-.35,4.45-1.05.28-3.61-1.52-4.19-2.56-.58-1.04-.58-5.21-.7-5.59-.12-.38-3.26-18.67-6.17-19.61-1.06-.35-2.16-.46-3.12-.48-.96.01-2.06.13-3.12.48-2.91.95-6.05,19.23-6.17,19.61-.12.38-.12,4.55-.7,5.59-.58,1.04-3.14,2.84-4.19,2.56-1.05-.28-1.51-2.75-.35-4.45,1.16-1.71,1.63-3.6,1.51-4.36-.12-.76-4.65-11.48-5.47-13.85-.81-2.37,3.07-10.26,6.67-14.61,1.97-2.38,2.77-6.33,3.08-7.83-.07-2.9-1.04-6.71-1.16-8.15-.17-2.06-2.37-8.55-1.24-10.68.42-.78,2.33-.83,3.37-1.09,1.04-.26,2.72-1.53,2.72-1.53,0,0,.07.07.18.2.04.04.09.09.14.14.72.73,2.43,2.4,3.32,2.4.16,0,.34-.05.54-.15.97-.45,2.32-1.81,2.73-2.25.08-.09.13-.13.13-.13,0,0,1.7,1.3,2.74,1.57,1.04.27,1.66.24,2.17.46.31.14.43-.05.43-.05,0,0,1.98-.59,4.72,3.24,2.74,3.83,4.93,7.48,6.02,8.57s4.38,3.83,5.11,5.11c.73,1.28,1.96,2.42,1.51,3.78Z"/><path class="cls-21" d="M77.03,51.98c.34.32.75.24,1.4.38.27.06.47.18.61.31-.44-.14-1.85-.2-2.78.02-1,.23-1.15.54-1.17.92-.02.38.06.69.06.69,0,0-.32.23-.41.51-.03.1-.04.17-.04.24-.06.04-.11.07-.15.09-.32.13-.57-.25-.57-.25,0,0,.11-.76.1-1.04-.01-.28-.15-.55-.19-.9-.04-.35.36-.54.77-.78.41-.24.69-.72,1.1-.81.41-.09.91.3,1.25.62Z"/><path class="cls-20" d="M76.12,51.78c-.1.07-.17.19-.17.32,0,.13.08.24.19.29-.1.07-.17.19-.16.32,0,.13.08.24.18.29-.1.07-.16.19-.16.32,0,.13.08.24.18.29-.1.07-.16.19-.16.32,0,.13.08.24.18.29-.1.07-.16.19-.15.32,0,.13.08.24.17.29-.09.07-.15.19-.15.32,0,.13.07.24.17.29-.09.07-.15.19-.14.32,0,.13.07.24.17.29-.09.07-.15.18-.14.32,0,.13.07.24.16.29-.09.07-.14.19-.14.32,0,.13.07.24.16.29-.08.07-.14.18-.13.32,0,.13.07.24.15.29-.08.06-.13.18-.13.32,0,.13.07.24.15.29-.08.06-.13.18-.12.32,0,.13.06.24.15.29-.08.06-.13.18-.12.32,0,.13.06.24.14.29-.08.06-.12.18-.12.32,0,.13.06.24.14.29-.07.06-.12.18-.11.31,0,.06.02.11.04.16-.02,0-.05,0-.07.01-.55.14-.66.93-.31,1.39.37.45,1.2.6,1.2.6,0,0,.8-.18,1.16-.64.34-.47.2-1.26-.35-1.38,0,0-.02,0-.03,0,.02-.04.03-.09.03-.14,0-.13-.04-.25-.11-.31.08-.05.13-.16.14-.29,0-.13-.04-.25-.12-.32.08-.05.14-.16.14-.29,0-.13-.04-.25-.12-.32.08-.05.14-.16.15-.29,0-.13-.05-.25-.12-.32.08-.05.14-.16.15-.29,0-.13-.05-.25-.13-.32.09-.05.15-.16.15-.29,0-.13-.05-.25-.13-.32.09-.05.15-.16.16-.29,0-.13-.05-.25-.14-.32.09-.05.16-.16.16-.29,0-.13-.05-.25-.14-.32.09-.05.16-.16.17-.29,0-.13-.05-.25-.14-.32.09-.05.16-.16.17-.29,0-.13-.05-.25-.15-.32.1-.05.17-.16.17-.29,0-.13-.06-.25-.15-.32.1-.05.17-.16.18-.29,0-.13-.06-.25-.15-.32.1-.05.17-.16.18-.29,0-.13-.06-.25-.16-.32.1-.05.18-.16.18-.29,0-.13-.06-.25-.16-.32.11-.05.18-.16.19-.29,0-.13-.06-.25-.17-.32.11-.05.19-.16.19-.29,0-.19-.14-.36-.33-.37-.59-.04-1.17-.04-1.76,0-.19.01-.34.18-.33.37,0,.13.08.24.19.29Z"/><path class="cls-19" d="M76.42,49.85c0,.29-.32.4-.32.4l1.01.23h0s0,0,0,0l1.01-.23s-.31-.11-.32-.4c0-.9.63-1.03.63-1.03,0,0-.25-31.19-.44-31.82-.19-.63-.89-2.52-.89-2.52v.05s0-.05,0-.05c0,0-.7,1.89-.89,2.52-.19.63-.44,31.82-.44,31.82,0,0,.66.07.63,1.03Z"/><polygon class="cls-29" points="76.86 50.47 77.14 17.67 77.42 50.47 76.86 50.47"/><path class="cls-49" d="M72.5,51.08c.18,0,.34-.08.45-.2.24-.04.58-.08,1.05-.04.98.08,2.19.45,2.99.45.06,0,.11,0,.15-.02.04.01.09.02.15.02.79,0,2-.38,2.99-.45.49-.04.85,0,1.08.05.11.12.27.19.45.19.34,0,.61-.27.61-.61s-.28-.61-.61-.61c-.16,0-.31.06-.42.17-.3.04-.77.11-1.19.18-.68.11-2.91,0-2.91,0h-.3s-2.23.11-2.91,0c-.4-.07-.85-.13-1.16-.18-.11-.11-.26-.17-.42-.17-.34,0-.61.28-.61.61s.28.61.61.61Z"/><path class="cls-49" d="M77.15,63.51c.87,0,1.58-.71,1.58-1.58s-.71-1.58-1.58-1.58-1.58.71-1.58,1.58.71,1.58,1.58,1.58Z"/><path class="cls-21" d="M79.27,55.48s-.09.19-.08.49c.01.3-.05.3-.18.65-.13.35-.29.73-.29.98,0,.25-.27.36-.4.42-.12.06-.61.24-.86.27-.26.03-1.5,0-1.85-.15-.35-.14-.47-.27-.51-.38-.04-.12-.05-.2-.03-.38.02-.18.12-.32.12-.32,0,0-.4-.15-.45-.32-.04-.16-.13-.28-.08-.47.05-.19.24-.46.24-.46,0,0-.13-.06-.19-.24-.06-.19-.15-.29-.1-.58.05-.29.35-.55.35-.55,0,0-.11-.3-.14-.68-.02-.39.1-.7,1.07-1.04.97-.33,2.51-.41,2.85-.28.34.13.53.57.56.81.02.25-.17.42-.13.7.05.28.1.3.17.74.07.43-.08.81-.08.81Z"/><path class="cls-2" d="M76.98,57.07c.07,0,.13.02.19.05-.06-.02-.13-.03-.19-.05ZM75.78,57.08c-.08,0-.16,0-.22.02.07,0,.15,0,.22-.02ZM76.36,57c-.18,0-.38.06-.58.09.26,0,.57.04.77.02.14-.02.29-.05.43-.04-.2-.05-.41-.08-.62-.07ZM77.36,55.7c-.33.08-.64.13-.97.17.37,0,.74-.04.97-.17ZM74.83,53.74c.02.38.14.68.14.68,0,0-.3.26-.35.55-.05.29.04.39.1.58.06.19.19.24.19.24,0,0-.18.27-.24.46-.05.19.04.3.08.47.04.17.45.32.45.32,0,0-.1.14-.12.32-.02.18,0,.27.03.38.02.05.05.1.11.15-.12-.28-.08-.62.22-.75.04-.02.08-.03.12-.04-.09,0-.17,0-.25-.03-.32-.1-.52-.45-.41-.78.12-.36.5-.36.82-.37.23,0,.45-.02.68-.05-.4,0-.8-.04-1.07-.09-.16-.02-.39-.2-.47-.34-.28-.53.59-.84.9-.9.11-.02.24-.05.38-.08-.24.02-.49.03-.73.03-.37-.01-.42-.2-.44-.56,0-.21-.05-.37-.05-.65-.09.14-.11.29-.1.45ZM77.43,54.25c-.19,0-.78.12-1.28.22.43-.04.86-.12,1.28-.22Z"/><path class="cls-6" d="M63.43,32.29c-1.33-.43-2.66-.79-4.07-.78-3.53.9-5.09.93-9.23.98-2,.03-6.38-1.49-8.04-.94-2.02.69-2.88,3.25-3.75,4.82,0,.02,0,.03-.01.05-.11.29-.29.5-.52.66-.55.42-1.55.76-1.55.75,0,0-.22-.05-.5-.09-.42.34-.38.91-.44,1.4-.1.84-.4,1.57-.65,2.36-.21.65-.18,1.1.1,1.49.98.38,2.66.97,5.51,1.1,3.93.14,10.13-.64,18.26-5.21,3.56-2.09,5.05-4.41,5.68-6.07-.27-.16-.54-.36-.79-.52Z"/><path class="cls-25" d="M62.44,31.99c-2.27,1.53-11.04,6-22.8,5.91-.7,0-1.29,0-1.8-.01-.5-.01-.9-.02-1.17-.03-.27-.01-.42-.02-.42-.02,0,0,.15.01.43.03.28.02.7.04,1.21.06.52.02,1.14.04,1.86.05.35,0,.74,0,1.13,0,.39,0,.81-.01,1.24-.02.43-.01.87-.03,1.33-.05.46-.02.92-.05,1.4-.09.95-.07,1.95-.16,2.94-.29.25-.03.5-.06.75-.1.25-.04.5-.08.75-.11.25-.04.5-.08.75-.12.25-.04.49-.09.74-.14.49-.1.99-.19,1.46-.3.24-.06.48-.11.71-.17.12-.03.24-.06.36-.09.11-.03.23-.06.34-.09.22-.06.45-.13.67-.19.22-.06.46-.13.66-.2.42-.14.83-.28,1.24-.42.38-.15.75-.29,1.12-.44.35-.15.7-.3,1.04-.45.32-.15.64-.31.94-.46.29-.15.57-.3.84-.45.25-.15.51-.3.74-.44.22-.14.44-.28.63-.42.39-.27.71-.52.95-.75.06-.05.11-.1.16-.14-.07-.02-.14-.04-.2-.06Z"/><path class="cls-25" d="M63.67,32.45c-.18.26-.39.55-.65.86-.25.3-.45.6-.81.89-5.5,4.78-19.89,6.84-24.26,6.47-.39,0-.74-.01-1.06-.02-.65-.02-1.15-.03-1.5-.05-.18,0-.31-.02-.41-.02,0,0,0,0,0,0,.09,0,.24.02.42.03.36.02.89.06,1.55.08.33.01.7.02,1.09.03.4,0,.82.01,1.28.02.45,0,.93,0,1.44,0,.5-.01,1.03-.03,1.57-.05.54-.02,1.1-.06,1.69-.09.57-.04,1.17-.09,1.77-.15.59-.06,1.22-.12,1.83-.21.3-.04.61-.08.92-.13.16-.02.31-.05.47-.07.15-.03.31-.05.46-.08.61-.1,1.25-.21,1.85-.34.31-.06.61-.13.92-.19.3-.07.59-.14.89-.21.29-.07.6-.15.88-.23.28-.08.56-.16.84-.25.14-.04.28-.08.42-.13.15-.05.27-.09.4-.13.13-.04.26-.09.39-.13.13-.05.25-.09.38-.14,1.01-.38,1.88-.8,2.64-1.23.76-.43,1.4-.86,1.96-1.29.56-.43,1.01-.85,1.4-1.26.39-.4.69-.79.95-1.14.18-.26.34-.5.46-.73-.06-.04-.13-.08-.19-.13Z"/><path class="cls-25" d="M61.66,31.79c-3.09,1.07-10.19,2.91-16.56,2.49-.42-.02-.79-.03-1.1-.05-.3-.02-.54-.03-.7-.04-.16-.01-.25-.02-.25-.02,0,0,.09,0,.25.03.16.02.4.04.7.06.3.03.67.05,1.09.08.21.01.44.02.68.03.24,0,.49.02.75.03.26,0,.54.01.82.02.28,0,.58,0,.88,0,.6,0,1.24-.02,1.9-.06.16,0,.33-.02.5-.03.17-.01.33-.02.5-.04.17-.01.34-.02.51-.04.17-.01.34-.03.51-.05.34-.04.69-.07,1.03-.11.17-.02.34-.04.52-.07.09-.01.17-.02.26-.04.09-.01.17-.03.26-.04.17-.03.34-.05.51-.08.17-.03.34-.06.51-.09.33-.07.66-.13.99-.2.32-.07.64-.15.95-.22.31-.08.62-.16.91-.24.29-.08.58-.16.87-.25.28-.09.55-.17.81-.26.26-.09.51-.17.75-.26.23-.09.47-.17.68-.25.24-.09.46-.18.67-.27-.06-.02-.12-.03-.18-.04Z"/><path class="cls-20" d="M64.5,32.89c-.1.34-1.47.27-3.06-.18-1.59-.44-2.81-1.08-2.71-1.42.1-.34,1.47-.27,3.06.18,1.6.44,2.81,1.08,2.71,1.42Z"/><path class="cls-3" d="M50.55,24.2s.01.04.04.12c-.35-.1-.69-.06-1.02.17-.28-.91-.46-1.83-.33-2.16.23-.59.04-1.36.04-1.36,0,0-.07-.73,0-1.04.06-.26.31-1.37,1.47-1.54-.06.35-.35,2.18-.33,2.43.05,1.15-.91,2.86-.77,3.07.14.21.91.31.91.31Z"/><path class="cls-48" d="M48.23,19.68s0,0-.01,0c-.02,0-.03,0-.05,0-.85-2.09.95-2.94,2.84-3.21,1.9-.26,3.06.17,4.44-1.48.04.69-.26,1.27-.82,1.62,1.23.73-.86,1.5-1.61,1.56.23.06.36.12.65.14-1.01,1.52-4.06-.01-5.43,1.36Z"/><path class="cls-26" d="M57.53,22.85c-2.88-1.91-7.47-3.35-9.19-2.21-.11.07-.21.16-.29.26.72-4.33,3.33-7.18,5.66-7.11,2.6.09,3.73,3.88,3.82,9,0,.02,0,.04,0,.06Z"/><path class="cls-48" d="M53.99,20.19s0,0-.01,0c-.02,0-.03,0-.05,0-.53-2.2,1.37-2.77,3.28-2.76,1.92.02,3,.61,4.61-.82-.07.69-.44,1.22-1.05,1.49,1.11.9-1.07,1.36-1.82,1.31.22.1.34.17.62.24-1.23,1.36-4.01-.6-5.57.55Z"/><path class="cls-5" d="M53.06,21.47c.25-.01.5.03.74.1,0-.11-.03-.26-.04-.34-.63-.53-1.88-.69-2.55-.25l-.04.04c-.08.05-.16.03-.18.16.03,0,.06,0,.08-.01.07-.02.09-.02,0,0-.11.04-.35.15-.33.42-.27.11,1.13.27.84.31.64.11,1.25.17,1.91.03-.08-.07-.33-.39-.43-.46Z"/><path class="cls-47" d="M26.48,52.76c0,9.49,4.49,17.18,10.03,17.18s10.03-7.69,10.03-17.18-4.49-17.18-10.03-17.18-10.03,7.69-10.03,17.18Z"/><path class="cls-34" d="M32.57,52.39c0,.65.3,1.19.68,1.19s.68-.53.68-1.19-.3-1.19-.68-1.19-.68.53-.68,1.19Z"/><path class="cls-14" d="M54.52,27.04c-.19.22-.42.49-.7.79-.96,1.06-2.24,1.81-3.6,2.14-.13.03-.27.06-.41.09-.43.08-.87.11-1.31.11.35-.18.61-.38.52-.83-.16.07-.33.1-.51.1.83-.78-.57-2.3.18-3.27-.02,0-.09.03-.1.04-.06-.68.31-1.14.76-1.56.05-.05.1-.09.14-.13l-.09.12s.1-.09.15-.12c.33-.23.67-.27,1.02-.17.23.06.46.17.69.31,1.16.72,2.27.84,3.02.93.02.1.05.19.07.28,0,.05,0,.1.01.16h0c0,.08.01.14.02.21.03.28.07.55.13.82Z"/><path class="cls-15" d="M54.36,25.85c-.03-.09-.05-.19-.07-.28.02,0,.04,0,.06,0,0,.03,0,.05,0,.07,0,.07,0,.13.01.2Z"/><path class="cls-30" d="M49.82,25.39s0-.02.05-.06c.02-.02.04-.03.07-.05.03-.01.07-.03.11-.03.04,0,.08-.01.13-.01.03,0,.08,0,.13,0,.09,0,.18,0,.27.01.18.01.36.05.5.09.14.04.23.1.23.1,0,0-.1.05-.24.08-.14.03-.33.05-.53.04-.1,0-.19-.02-.27-.05-.05-.01-.08-.02-.13-.04-.03,0-.07-.02-.1-.04-.03-.02-.06-.02-.08-.03-.03,0-.05-.02-.07-.01-.02,0-.04,0-.05,0-.01,0-.02,0-.02,0Z"/><g class="cls-1"><path class="cls-16" d="M42.99,90.14c.43-2.98,5.17-7.88,5.17-7.88,5.09.49,10.17.99,15.25,1.48.88,1.84,1.76,3.69,2.63,5.53-.02,1.07-.04,2.14-.06,3.22.05-.02.09-.03.14-.05,0,0,.68,1.67.47,2.97-.22,1.3-.63,3.94-2.06,7.63-1.42,3.69.02,7.13-.12,8.79-.17,2.28-.74,3.56-1.51,4.78-.65,1.02-1.46,2-2.33,3.48-.09.16-.19.33-.29.5,0,0,0,0,0,.01-.05.09-.1.17-.14.26,0,0,0,0,0,0-.05.09-.09.17-.14.26,0,0,0,.01,0,.02-.05.09-.09.18-.14.28,0,0,0,.01-.01.02-.05.09-.09.18-.14.27,0,0,0,.02-.01.02-.05.1-.09.19-.14.29,0,.01-.01.02-.02.04-.04.09-.09.19-.13.28,0,.01-.01.02-.02.03-.05.1-.09.21-.14.31,0,.02-.01.03-.02.05-.04.1-.09.2-.13.3,0,.01-.01.03-.02.04-.05.11-.09.22-.14.33,0,.02-.02.04-.03.06-.04.1-.08.21-.13.32,0,.01-.01.03-.02.04-.05.12-.09.24-.14.36,0,.03-.02.05-.03.07-.04.11-.08.22-.13.34,0,.02-.01.03-.02.05-.05.13-.09.25-.14.38-.01.03-.02.06-.03.09-.04.12-.08.24-.13.36,0,.02-.01.03-.02.05-.05.13-.09.27-.14.41-.01.03-.02.07-.03.1-.04.13-.09.26-.13.39,0,.02-.01.03-.02.05-.05.14-.09.29-.14.44-.01.04-.02.07-.03.11-.04.14-.09.28-.13.43,0,.01,0,.03-.01.04-.05.16-.09.32-.14.48-.01.04-.02.08-.04.12-.05.16-.09.32-.14.48,0,0,0,.01,0,.02-.05.17-.1.34-.14.52-.01.04-.02.09-.04.13-.05.18-.1.35-.15.54-.73,2.82-.38,6.98-2.35,6.66-1.96-.31-3.48-1.11-2.98-2.98.51-1.87,1.35-2.42,2.39-4.21.07-.13.15-.26.22-.4.02-.04.05-.09.07-.14.05-.09.1-.18.14-.28.03-.06.06-.11.08-.17.04-.09.09-.17.13-.26.03-.06.06-.12.09-.19.04-.09.08-.17.12-.26.03-.07.06-.13.09-.2.04-.09.08-.18.12-.27.03-.07.06-.13.08-.2.04-.09.08-.18.11-.28.03-.07.05-.13.08-.2.04-.1.08-.19.11-.29.03-.07.05-.13.08-.2.04-.1.08-.21.12-.32.02-.06.04-.12.07-.18.05-.13.09-.26.14-.4.01-.04.03-.07.04-.11.06-.17.12-.34.17-.52.02-.05.03-.1.05-.14.04-.13.08-.25.12-.38.02-.07.04-.13.06-.2.03-.11.07-.22.1-.33.02-.07.04-.15.06-.22.03-.1.06-.21.09-.31.02-.08.04-.15.06-.22.03-.1.06-.21.09-.31.02-.08.04-.15.06-.23.03-.1.06-.21.08-.31.02-.08.04-.15.06-.23.03-.1.05-.21.08-.31.02-.07.04-.15.06-.22.03-.11.05-.22.08-.32.02-.07.03-.14.05-.21.03-.12.06-.24.09-.36.01-.06.03-.11.04-.17.04-.17.08-.35.12-.52,0-.04.02-.07.02-.11.03-.14.06-.27.09-.41.01-.06.03-.13.04-.19.02-.1.05-.21.07-.31.02-.07.03-.15.05-.22.02-.09.04-.18.06-.27.02-.08.03-.15.05-.23.02-.09.03-.17.05-.26.02-.08.03-.15.05-.23.02-.08.03-.16.05-.24.02-.08.03-.16.04-.23.01-.08.03-.15.04-.22.01-.08.03-.16.05-.24.01-.06.02-.13.04-.19.02-.08.03-.17.05-.25,0-.05.02-.1.03-.15.07-.36.13-.71.18-1.03.07-.41.14-.78.19-1.1.61-3.39-.4-7.09-.91-9.29-2.08-8.83-10.62-2.91-10.79,3.2-.04,1.06-.39,4.62-1.12,6.03-.08.16-.13.41-.15.72-.01.16-.01.33-.01.52v.02c0,.09,0,.18,0,.28,0,0,0,.02,0,.02,0,.1,0,.2.02.3,0,0,0,0,0,.01.01.21.03.44.06.67,0,0,0,.01,0,.02.01.11.02.23.04.35,0,.01,0,.02,0,.04.01.12.03.23.04.35,0,.01,0,.02,0,.04.02.12.03.25.05.37,0,0,0,0,0,0,.02.13.04.26.06.39,0,0,0,0,0,.01.02.13.04.25.06.38,0,.02,0,.03,0,.04.02.12.04.25.06.37,0,.02,0,.04,0,.06.02.12.04.25.07.37,0,.01,0,.03,0,.04.05.26.1.52.15.78,0,.01,0,.03,0,.05.02.12.05.24.07.37,0,.02,0,.04.01.06.02.12.05.24.07.36,0,.02,0,.04.01.06.03.12.05.24.08.36,0,.01,0,.02,0,.04.03.12.05.23.08.34,0,.01,0,.02,0,.04.03.11.05.23.08.34,0,.02,0,.04.01.06.03.11.05.22.08.32,0,.02.01.04.02.06.03.11.05.21.08.31,0,.02,0,.03.01.05.03.11.06.21.08.31,0,0,0,0,0,0,.03.1.06.2.08.29,0,.01,0,.03.01.04.03.09.05.18.08.26,0,.02,0,.03.02.05.03.08.05.17.08.24,0,.01,0,.03.01.04.03.08.05.16.08.23,0,0,0,.01,0,.02.03.07.05.14.08.21,0,0,0,.01,0,.02.03.07.05.13.08.18,0,0,0,.02.01.03.02.05.05.11.07.15,0,0,0,.02.01.03.02.05.05.09.07.13,0,0,0,0,.01.02.03.04.05.07.07.1.75.93,3.85,2.06,3.34,4.56-.52,2.5-3.19,3.97-4.57,3.1-1.39-.87-.85-3.59-1.2-6.25-.29-2.29-1.57-7.31-2.41-9.7-.06-.17-.11-.33-.17-.49-.02-.06-.04-.11-.06-.16-.04-.1-.07-.2-.11-.3-.02-.07-.05-.13-.07-.2-.03-.08-.06-.15-.08-.22-.03-.08-.06-.17-.09-.25-.01-.03-.02-.06-.04-.1-.56-1.49-1.02-2.63-1.34-3.78-.42-1.55-.13-3.66.76-7.25.89-3.59.6-4.94.44-8.65-.14-3.33.76-4.71.94-4.96Z"/></g><path class="cls-35" d="M52.67,52.46c-.31-1.67-.26-3.35-.66-5.02-.19-.8-.38-1.57-.83-2.26-.36-.54-.77-1.03-1.16-1.55-.16-.22-.39-.48-.62-.77-.52,2.04-1.86,3.17-3.27,4.51-.9.86-1.77,1.85-2.64,2.89-.86,1.06-1.69,2.2-2.49,3.39-.79,1.2-1.55,2.45-2.27,3.72-.18.32-.35.64-.53.96-.11.2-.22.4-.33.61-.91.41-1.84.73-2.78.94-.32.07-.64.14-.95.2.34-.34.66-.7.99-1.08.82-.97,1.59-2.04,2.36-3.12.76-1.08,1.57-2.15,2.38-3.23.41-.53.81-1.06,1.22-1.59.42-.52.83-1.03,1.24-1.54.2-.26.43-.5.64-.75.21-.25.43-.49.64-.74.11-.12.21-.24.32-.36l.04-.04h0s.01-.02.01-.02l.02-.02.08-.08.16-.17c.22-.22.43-.45.65-.67.21-.22.44-.43.66-.64.22-.21.44-.41.66-.61.44-.4.88-.79,1.3-1.17.61-.54,1.18-1.09,1.86-1.47-.33-.42-.66-.91-.86-1.39-.82,1.03-1.77,1.9-2.82,2.87-2.5,2.3-4.45,5.09-6.42,7.88-.77,1.11-1.54,2.22-2.27,3.33-.73,1.11-1.45,2.19-2.22,3.17-.39.49-.78.96-1.2,1.37-.06.06-.12.12-.18.18-.9.15-1.79.28-2.65.41-1.4.21-2.72.42-3.93.72-1.2.29-2.29.66-3.21,1.1-.92.44-1.66.95-2.22,1.43-.56.48-.93.94-1.18,1.25-.23.32-.35.5-.35.5,0,0,.13-.17.37-.49.26-.3.64-.74,1.21-1.21.56-.46,1.31-.94,2.23-1.35.92-.41,2-.74,3.2-.99,1.2-.25,2.52-.43,3.92-.59.65-.08,1.33-.15,2.01-.24-.17.15-.35.29-.53.41l-.17.12c-.06.04-.12.07-.17.11-.11.07-.24.15-.34.21-.12.06-.24.12-.36.18-.12.06-.24.1-.36.15-.48.18-.97.3-1.45.38-.48.09-.94.15-1.38.24-.44.09-.85.17-1.24.25-.78.16-1.45.29-2.01.41-.56.11-.99.23-1.29.3-.3.07-.45.11-.45.11,0,0,.16-.03.46-.1.3-.06.73-.16,1.29-.25.56-.1,1.24-.21,2.02-.33.39-.06.81-.13,1.24-.2.44-.07.9-.12,1.38-.19.49-.06.99-.16,1.51-.33.13-.05.27-.09.39-.14.12-.06.25-.11.37-.17.14-.07.25-.14.37-.21.06-.04.12-.07.19-.11l.18-.12c.37-.24.72-.52,1.06-.83.55-.08,1.11-.17,1.67-.28.19-.04.38-.08.57-.12.2-.04.38-.1.58-.15.34-.1.67-.2,1-.32-7.57,6.18-8.82,9.56-8.98,10.83-.1.06-.2.11-.29.17-.21.12-.42.23-.62.34-.2.11-.41.19-.6.28-.79.32-1.53.46-2.12.6-.3.07-.56.14-.79.2-.23.07-.42.12-.58.18-.31.12-.47.18-.47.18,0,0,.17-.06.47-.17.15-.06.35-.1.58-.17.23-.06.5-.12.8-.19.6-.14,1.33-.27,2.14-.58.2-.09.4-.17.61-.28.2-.11.41-.21.63-.33.08-.04.17-.09.25-.14-.03.33.02.49.02.49,0,0,.03-.22.12-.57.09-.05.18-.1.27-.15.11-.06.22-.13.33-.19.11-.07.22-.14.34-.21.91-.56,1.83-1.28,2.69-2.18.45-.43.86-.91,1.3-1.4.21-.25.42-.51.63-.77.21-.26.4-.54.61-.81.43-.6.85-1.23,1.25-1.88,1.63-1.02,3.44-2.13,5.21-3.23-.09.34-.18.69-.28,1.03-.11.42-.23.85-.34,1.27-.59,1.05-1.2,2.1-1.8,3.16-.33.6-.66,1.18-1.02,1.74-.35.57-.73,1.1-1.12,1.62-.2.26-.41.51-.61.75-.11.12-.22.24-.32.36-.1.12-.21.24-.33.34-.11.11-.22.22-.34.33l-.08.08h-.01s-.02.03-.02.03l-.05.04-.18.15c-.12.1-.24.2-.36.31-.06.05-.12.1-.18.14l-.18.13c-.98.7-2.06,1.2-3.11,1.55-1.05.36-2.08.59-3.04.76-.96.16-1.84.28-2.63.37-.79.09-1.47.16-2.04.22-.57.06-1.01.11-1.31.14-.3.04-.46.06-.46.06,0,0,.16-.01.47-.04.3-.03.75-.06,1.32-.09.57-.04,1.26-.08,2.05-.13.79-.05,1.68-.14,2.65-.27.97-.13,2.02-.32,3.11-.65,1.09-.33,2.21-.78,3.28-1.49l.2-.13c.07-.04.13-.09.2-.14.12-.1.25-.2.37-.29l.19-.15.05-.04.02-.02.02-.02h.01s.09-.09.09-.09c.12-.11.24-.22.36-.33.12-.11.24-.23.35-.35.12-.12.23-.24.35-.36.22-.25.45-.5.66-.75.42-.52.84-1.06,1.22-1.63.39-.56.75-1.15,1.1-1.73.16-.26.32-.51.48-.77-.02.08-.04.16-.06.24-.08.36-.16.72-.24,1.08-.08.36-.16.71-.23,1.07-.19.86-.41,1.71-.66,2.53-.5.55-1,1.11-1.51,1.65-.51.56-1.05,1.1-1.59,1.63l-.83.77c-.14.13-.28.25-.42.37l-.43.36c-.15.12-.29.25-.43.36l-.45.34c-.3.22-.59.46-.91.66l-.94.61-.98.54-.25.14-.06.03-.06.03-.13.06-.51.25-.51.25-.51.23c-.68.31-1.37.6-2.07.89-.7.29-1.39.57-2.08.87-.35.14-.69.3-1.04.45-.34.15-.69.3-1.03.48l-.51.25c-.17.08-.34.16-.5.26l-.99.55s-.07-.06-.08-.1c-.01-.05,0-.1,0-.14-.02.04-.02.09-.01.14,0,.05.04.09.08.11,0,0,1.02-.5,1.02-.5.17-.09.34-.16.51-.24l.52-.23c.34-.16.69-.29,1.04-.43.35-.14.7-.28,1.05-.41.7-.26,1.41-.52,2.11-.78.7-.26,1.41-.52,2.11-.8l.53-.21.52-.22.52-.22.13-.06.07-.03.06-.03.26-.13,1.02-.51.99-.58c.34-.18.64-.42.96-.63l.48-.33c.16-.11.31-.23.46-.35l.46-.35c.15-.12.31-.24.45-.36l.88-.75c.57-.52,1.14-1.04,1.69-1.59.07-.07.14-.14.21-.2-.41,1.09-.88,2.11-1.38,3.05-.57,1.11-1.25,2.08-1.96,2.89-.18.2-.35.4-.53.59-.17.19-.35.37-.52.55-.09.1-.19.19-.28.28-.03.01-.05.03-.08.04-.56.29-1.1.58-1.64.86-.13.07-.27.14-.4.21-.13.07-.26.15-.39.22-.26.15-.51.29-.77.44-.25.14-.5.29-.73.45-.24.15-.47.3-.7.44-.23.14-.45.3-.67.45-.22.15-.43.3-.64.45-.82.6-1.55,1.18-2.17,1.73-.16.13-.31.26-.46.39-.15.13-.28.26-.41.38-.26.25-.5.47-.72.68-.43.42-.74.76-.97.99-.22.23-.34.35-.34.35,0,0,.12-.12.35-.34.23-.22.56-.55,1-.95.22-.2.47-.41.74-.65.13-.12.27-.24.42-.36.15-.12.31-.24.47-.37.64-.52,1.39-1.06,2.22-1.63.21-.14.43-.28.65-.42.22-.14.44-.29.68-.42.23-.13.47-.27.71-.41.24-.14.49-.28.74-.41.25-.13.51-.27.77-.4.13-.07.26-.14.39-.2,0,0,.01,0,.02,0-.24.14-.47.27-.68.4-.27.16-.51.3-.71.43-.2.14-.38.24-.51.34-.27.2-.41.31-.41.31,0,0,.15-.1.42-.3.14-.1.32-.2.52-.32.21-.12.45-.26.72-.4.45-.25,1-.51,1.58-.9.37-.18.75-.36,1.13-.54.28-.14.57-.27.86-.41.28-.15.57-.3.86-.46.14-.08.29-.15.43-.23.11-.06.22-.13.33-.2-3.27,3.52-6.99,8.02-8.85,10.79.21-.23.43-.47.66-.7-.86.98-1.62,1.9-2.36,2.65-.75.78-1.48,1.38-2.12,1.82-.16.11-.31.21-.45.3-.15.09-.29.16-.42.24-.13.07-.25.14-.36.2-.11.06-.22.1-.31.15-.37.17-.57.26-.57.26,0,0,.2-.09.58-.25.09-.04.2-.08.31-.14.11-.06.23-.12.36-.2.13-.07.28-.14.42-.23.14-.09.3-.19.46-.3.64-.43,1.39-1.02,2.16-1.79.78-.77,1.58-1.7,2.49-2.69.91-.98,1.92-2.03,3.17-2.87,1.25-.85,2.69-1.51,4.19-2.15,1.51-.64,3.1-1.24,4.64-2.08.77-.42,1.51-.9,2.23-1.45l.51-.42.13-.11.13-.12.25-.23c.08-.08.17-.15.25-.24l.23-.25c.16-.17.31-.33.46-.51,1.19-1.4,2.07-3.06,2.73-4.75.67-1.7,1.12-3.45,1.5-5.13,1.2-5.27,2.66-10.46,4.68-15.42-.16-.1-.29-.26-.33-.47ZM34.49,64.81c-.2.27-.39.55-.59.81-.21.26-.41.52-.61.77-.42.49-.83.98-1.27,1.41-.84.9-1.75,1.63-2.64,2.2-.11.07-.22.14-.33.21-.11.07-.22.13-.33.2-.07.04-.13.08-.2.11.23-.88.78-2.43,2.02-3.71.75-.78,2.62-2.04,4.93-3.5-.32.51-.64,1.01-.97,1.49ZM39.26,58.23c-.31.18-.63.35-.95.5.04-.08.09-.16.13-.24.18-.32.35-.64.54-.95.73-1.26,1.51-2.49,2.3-3.67.81-1.17,1.65-2.29,2.51-3.32.88-1.02,1.75-1.98,2.65-2.81.52-.51,1.05-.97,1.57-1.4,0,.02-.01.03-.02.05,0,.02-.02.04-.03.06-.11.12-.22.23-.34.36-.17.18-.35.37-.53.56-.18.19-.35.4-.54.61-.18.21-.37.42-.55.64-.18.21-.37.44-.56.68-.38.47-.76.97-1.12,1.53-.35.56-.67,1.19-.91,1.86-.22.63-.45,1.27-.68,1.92-.08.21-.16.43-.23.64-.97.96-2.06,1.95-3.26,2.96ZM44.41,53.28s.04-.1.06-.15c.23-.58.51-1.09.84-1.59.21-.3.42-.58.64-.85-.03.05-.05.1-.08.15-.2.37-.39.74-.61,1.1l-.31.55-.16.27-.15.24c-.08.09-.16.18-.25.28ZM44.49,65.3c-.77,3.35-2.02,6.59-4.28,8.92.09-.21.17-.42.26-.64.51-1.3.93-2.69,1.3-4.11.09-.36.18-.71.27-1.07.05-.19.1-.38.15-.57.04-.07.08-.14.11-.22.11-.11.22-.22.33-.34.55-.55,1.08-1.12,1.6-1.7.08-.1.17-.19.25-.29ZM39.9,67.49c.09-.35.18-.71.27-1.07.09-.35.18-.71.28-1.06.18-.71.37-1.42.56-2.14.04-.12.07-.25.11-.37.12-.19.24-.38.35-.57.17-.28.35-.56.52-.84.18-.28.36-.55.54-.83.36-.55.71-1.09,1.06-1.62.16-.24.31-.48.46-.71-.15.47-.3.95-.45,1.44-.02.05-.04.09-.06.14-1.03,2.4-1.63,4.92-1.98,6.85-.68.74-1.37,1.47-2.06,2.21.14-.47.28-.95.4-1.43ZM35.69,77.94c-.14.09-.27.18-.41.26-.14.08-.28.16-.42.24-.28.16-.55.32-.83.48-.06.03-.11.06-.17.09.12-.12.24-.23.36-.36.19-.18.37-.38.55-.58.74-.8,1.47-1.76,2.09-2.87.63-1.1,1.23-2.3,1.73-3.61.06-.15.11-.3.17-.45.2-.2.4-.41.6-.61.62-.63,1.25-1.25,1.88-1.87-.02.19-.05.37-.06.52-.01.05-.02.09-.03.14-.32,1.41-.69,2.78-1.15,4.08-.19.55-.4,1.09-.62,1.6-.38.35-.79.74-1.22,1.17-.54.43-1.1.84-1.66,1.24-.27.18-.55.36-.82.53ZM47.6,68.18c-.35,1.68-.75,3.39-1.37,5.05-.61,1.66-1.43,3.27-2.55,4.63-.13.18-.28.34-.43.5l-.22.24c-.07.08-.15.15-.23.23l-.23.23-.11.11-.13.11-.5.43c-.67.53-1.39,1.02-2.13,1.44-1.49.85-3.06,1.49-4.56,2.16-1.5.67-2.95,1.37-4.2,2.26-.2.14-.39.28-.57.43,5.86-5.53,12.81-10.82,14.93-15.71.26-.6.49-1.21.7-1.83.01-.02.02-.03.03-.05.92-.99,1.8-2.59,2.55-4.31-.33,1.3-.67,2.66-.96,4.08Z"/><path class="cls-33" d="M43.03,56.91s0-.02,0-.02c0,0,0,0,0,0,0,.01-.01.02-.02.03Z"/><path class="cls-43" d="M67.53,73.34c-.3-1.96-6.34-8.28-7.93-12.43-.48-1.26-.61-2.88-.58-4.44-.33,1.09-.65,2.05-.73,2.21-.16.31-.51,1.13-.6,1.32,0-.02-.01-.03-.02-.04-.02.05-.04.08-.04.08,0,0,.22,1.26.16,1.76-.02.16-.16.51-.36.91h0s0,0,0,0c-.02.03-.03.07-.05.1-.15.3-.32.61-.49.9,0,0,0,0,0,0-.02.04-.05.08-.07.12-.02.04-.04.07-.07.11,0,0-.01.02-.02.03-.2.32-.37.58-.47.69,0,0,0,0,0,0-.01.01-.03.03-.04.03-.26.2-2.35.25-2.35.25,0-.02,0-.04-.01-.06v.06s-2.09-.05-2.35-.25c-.01,0-.02-.02-.04-.03,0,0,0,0,0,0-.13-.14-.39-.54-.66-1,0,0,0-.01-.01-.02-.02-.04-.05-.08-.07-.12,0-.01-.01-.02-.02-.03-.03-.05-.05-.09-.08-.14-.01-.02-.02-.04-.03-.05-.02-.03-.03-.06-.05-.09-.01-.02-.02-.04-.03-.06-.02-.04-.05-.09-.07-.13,0,0,0,0,0-.01-.28-.52-.51-1.02-.53-1.23-.06-.5.15-1.76.15-1.76,0,0-.35-.82-.56-1.24-.24,1.04-.65,2.08-1.31,3.01-2.65,3.71-8.15,9.61-8.62,11.55-3.44,14.57.65,15.34,4.42,16.28,3.83.95,5.02,2.3,5.51,3.04.48.74.88,1.55.88,1.55,0,0,.87-.95,2.06-1.01.74-.04,1.02-.06,1.13-.06.1,0,.38.02,1.13.06,1.19.07,2.06,1.01,2.06,1.01,0,0,.4-.81.88-1.55.48-.74,1.68-2.09,5.5-3.04,3.8-.95,6.03-4.98,4.42-16.28Z"/><path class="cls-12" d="M54.76,116.3c-1.36.05-2.63.87-3.73.16-1.32-.88-5.2-8.33-4.61-9.68.61-1.35.37-4.53.23-5.47-.15-.94,2.16-5.26,3.38-6.46.42-.41.73-.8.96-1.14-.4.26-.64.52-.64.52,0,0-.4-.81-.88-1.55-.48-.74-1.68-2.09-5.51-3.04-2.84-.7-4.32-1.55-4.65-2.93-.17.24-1,1.59-.29,4.5.79,3.23,1.36,4.38.92,7.66-.44,3.28-.43,5.17.34,6.48.77,1.3,1.89,2.56,3.32,4.54,1.44,1.98,3.96,6.21,4.79,8.19.98,2.29,2.51,4.12,4.41,4.69,1.9.57,1.84.1,1.84.1,0,0,1.05-1.56,1.09-3.85.03-2.29.38-2.76-.98-2.7Z"/><path class="cls-11" d="M54.5,93.14s7.87,5.62,7.07,11.78c-.34,3.08.02,10.4-2.02,14.57-.83,1.73-1.71,2.35-1.89,4.07-.17,1.73.79,4.69,3.18,4.69,2.4,0,2.14-6.11,2.36-8.72,1.04-12.13,5.72-10.97,5-16.99-.16-1.49-2.54-8.99-.67-14.8.38-1.14.35-3.87.35-3.87,0,0-1.68,4.14-6.06,5.99-1.8.76-7.32,3.27-7.31,3.27Z"/><path class="cls-10" d="M54.76,116.3c-1.36.05-2.63.87-3.73.16-1.19-.79-4.36-6.76-4.65-9.02-.69.64-1.55,1.1-2.52.83-.69-.19-1.61-.75-2.46-1.33.62.83,1.36,1.75,2.21,2.93,1.44,1.98,3.96,6.21,4.79,8.19.98,2.29,2.51,4.12,4.41,4.69,1.9.57,1.84.1,1.84.1,0,0,1.05-1.56,1.09-3.85.03-2.29.38-2.76-.98-2.7Z"/><path class="cls-9" d="M67.42,106.99c-1.02.64-2.32,1.24-3.37.96-.8-.21-1.89-.82-2.68-1.78,0,3.47.02,9.55-1.81,13.32-.83,1.73-1.71,2.35-1.89,4.07-.17,1.73.79,4.69,3.18,4.69,2.4,0,2.14-6.11,2.36-8.72.72-8.02,2.94-10.23,4.22-12.54Z"/><path class="cls-37" d="M58.86,43.76s.77-1.17,1.85-1.74c1.09-.57,2-1.4,1.9-2.52-.09-1.13-.65-2.99-.92-2.73-.27.27-.93,1.17-2.23,2.23-1.31,1.06-2.04,1.49-2.04,1.49.58.91.84,2.36,1.44,3.27Z"/><path class="cls-36" d="M62.62,39.5c-.08-.91-.46-2.32-.74-2.67-.17.18-.3.34-.37.44-.26.41-.28,1.63-.96,3.35-.69,1.72-1.45,1.04-1.45,1.7,0,.36.34.38.66.33.24-.2.55-.42.96-.63,1.09-.57,2-1.4,1.9-2.52Z"/><path class="cls-38" d="M48.61,43.74s-.45-1.58-1.28-2.47c-.83-.89-1.41-1.98-.99-3.05.42-1.07,1.46-2.71,1.63-2.36.17.35.53,1.45,1.44,2.88.91,1.44,1.48,2.08,1.47,2.08-.74.97-1.5,1.94-2.27,2.91Z"/><path class="cls-39" d="M46.34,38.23c.34-.87,1.09-2.11,1.45-2.36.1.23.19.43.22.55.12.48-.2,1.68-.08,3.56.12,1.88,1.03,1.46.83,2.09-.11.35-.44.26-.72.11-.16-.26-.39-.58-.7-.91-.83-.89-1.41-1.98-.99-3.05Z"/><path class="cls-45" d="M59.93,45.66c-.58-.95-1.25-3.65-1.73-4.57-.79-1.51-2.54-1.01-4.3-.97-1.78.04-3.19-.5-4.15.99-.56.87-1.31,3.5-1.89,4.45-.57.95-.17,1.86-.17,1.86,0,0,.45,1,.3,2.11-.16,1.1-.35,2.91-.24,3.56.1.65,1.35,2.81,1.53,3.72.17.9-.03,1.51.15,1.86.18.35.62,1.36.62,1.36,0,0-.21,1.26-.15,1.76.05.5,1.33,2.71,1.6,2.92.26.2,2.35.25,2.35.25v-.06s0,.04.01.06c0,0,2.09-.05,2.35-.25.26-.2,1.53-2.41,1.59-2.92.06-.5-.16-1.76-.16-1.76,0,0,.43-1.01.61-1.36.18-.35-.02-.95.15-1.86.17-.9,1.42-3.06,1.52-3.72.1-.65-.09-2.46-.26-3.56-.16-1.1.14-2.11.14-2.11,0,0,.7-.81.12-1.77Z"/><path class="cls-41" d="M49.16,49.95c-.12-.03-.25-.05-.38-.08-.13-.03-.26-.05-.39-.08-.1-.02-.2-.05-.3-.08-.02,0-.05-.01-.07-.02,0-.02,0-.05.01-.07.09-.63,0-1.24-.08-1.64,0-.03-.01-.05-.02-.08.03,0,.06-.01.09-.02.27-.06.52-.07.74-.02.83.19,1.14,1.14,1.4,1.9.1.29.19.56.3.76-.18,0-.88-.49-1.29-.59Z"/><path class="cls-46" d="M58.49,49.95c.12-.03.25-.05.38-.08.13-.03.26-.05.39-.08.1-.02.2-.05.3-.08.02,0,.05-.01.07-.02,0-.02,0-.05-.01-.07-.09-.63,0-1.24.08-1.64,0-.03.01-.05.02-.08-.03,0-.06-.01-.09-.02-.27-.06-.52-.07-.74-.02-.83.19-1.14,1.14-1.4,1.9-.1.29-.19.56-.3.76.18,0,.88-.49,1.29-.59Z"/><path class="cls-44" d="M47.99,49.75c-.15,1.11-.31,2.73-.21,3.34.09.65,1.49,5.22,1.69,5.57.16.31.52,1.13.6,1.32.5-1.37.95-2.62.95-3.33.02-1.96-.68-3.24-1.31-4.69-.43-.98-1.25-1.8-1.73-2.22Z"/><path class="cls-40" d="M59.72,49.75c.16,1.11.32,2.73.23,3.34-.09.65-1.47,5.22-1.67,5.57-.16.31-.51,1.13-.6,1.32-.5-1.37-.95-2.62-.97-3.33-.03-1.96.66-3.24,1.29-4.69.43-.98,1.24-1.8,1.72-2.22Z"/><path class="cls-13" d="M56.28,57.53s.64,1.91-2.4,1.58h-.01c-3.04.33-2.41-1.58-2.41-1.58-.98-1.31-1.91,1.63-1.16,2.01,2.32,1.18,2.39,4.29,3.16,4.4.16.02.32.04.49.06.77-.11,1.11-3.03,3.51-4.46.72-.43-.19-3.33-1.17-2.01Z"/><path class="cls-31" d="M57.43,62.69c-.11-.28-.91,1.48-1.34,1.53-.43.05-.37.11-1.61-.16-.19-.04-.76-.11-1.25,0-1.24.27-1.18.22-1.61.16-.44-.05-1.24-1.81-1.35-1.53.41.82,1.05,1.87,1.23,2.01.26.2,2.35.25,2.35.25v-.06s0,.04.01.06c0,0,2.09-.05,2.35-.25.17-.14.81-1.18,1.22-2.01Z"/><path class="cls-17" d="M44.25,69.71c0,.09.02.18.03.27.02.18.03.37.06.55.03.18.06.37.1.56.03.19.09.37.13.55.02.09.05.19.07.28.03.09.06.18.09.27.06.18.12.37.19.55.27.73.62,1.43,1.01,2.11.4.67.84,1.31,1.31,1.91.24.29.47.59.72.86.12.14.25.27.37.41.13.13.25.26.38.39.12.13.25.25.38.38.13.12.25.24.38.36.26.23.5.46.76.67.5.42.99.8,1.46,1.13.46.33.91.61,1.3.85.26.16.49.29.71.41-.46.4-.72.63-.72.63,0,0,.09-.04.25-.11.16-.08.4-.18.69-.34.02,0,.04-.02.06-.03.02.01.04.02.06.03.29.16.53.26.69.34.16.07.25.11.25.11,0,0-.26-.23-.72-.63.22-.12.45-.25.71-.41.39-.24.84-.52,1.3-.85.47-.33.96-.71,1.46-1.13.26-.21.5-.44.76-.67.13-.12.25-.24.38-.36.13-.12.26-.25.38-.38.13-.13.25-.26.38-.39.12-.14.25-.27.37-.41.25-.27.48-.57.72-.86.47-.6.91-1.24,1.31-1.91.39-.68.74-1.38,1.01-2.11.07-.18.13-.37.19-.55.03-.09.06-.18.09-.27.02-.09.05-.19.07-.28.04-.19.1-.37.13-.55.03-.19.07-.37.1-.56.03-.18.04-.37.06-.55,0-.09.02-.18.03-.27,0-.09,0-.18,0-.27,0-.18,0-.36,0-.53-.01-.18-.03-.35-.04-.52,0-.17-.04-.34-.07-.5-.03-.16-.05-.32-.09-.48-.04-.15-.09-.31-.13-.45-.02-.07-.04-.15-.06-.22-.03-.07-.05-.14-.08-.21-.11-.27-.2-.54-.34-.77-.12-.24-.24-.46-.37-.66-.06-.1-.13-.19-.19-.29-.06-.09-.12-.18-.18-.26-.13-.16-.25-.3-.35-.43-.1-.13-.21-.23-.3-.32-.09-.09-.17-.17-.23-.23-.13-.12-.2-.19-.2-.19,0,0,.05.08.13.24.04.08.1.17.16.28.06.11.14.24.21.38.07.14.15.3.23.48.08.17.15.37.24.58.09.2.15.43.23.67.08.23.13.49.19.75.01.07.03.13.04.2,0,.07.02.14.03.2.02.14.04.28.06.42.02.14.02.29.03.43,0,.15.02.29.01.45,0,.15,0,.3-.01.46,0,.15-.03.31-.05.47,0,.08-.02.16-.02.24-.01.08-.03.16-.04.24-.03.16-.05.32-.09.48-.14.64-.36,1.29-.62,1.94-.27.64-.6,1.28-.96,1.9-.36.62-.77,1.22-1.18,1.8-.43.57-.86,1.13-1.31,1.65-.22.27-.45.51-.67.76-.23.24-.44.48-.66.71-.22.23-.43.45-.64.66-.21.22-.42.41-.61.61-.4.39-.77.74-1.11,1.04-.16.16-.33.29-.47.42-.07.06-.13.12-.19.17-.06-.06-.13-.11-.19-.17-.14-.14-.31-.27-.47-.42-.33-.31-.71-.66-1.1-1.04-.2-.19-.41-.39-.61-.61-.21-.21-.43-.43-.64-.66-.22-.23-.44-.47-.66-.71-.21-.25-.45-.5-.67-.76-.45-.52-.88-1.08-1.31-1.65-.42-.58-.82-1.18-1.18-1.8-.36-.62-.68-1.26-.96-1.9-.26-.65-.48-1.29-.62-1.94-.04-.16-.06-.32-.09-.48-.01-.08-.03-.16-.04-.24,0-.08-.02-.16-.02-.24-.01-.16-.04-.31-.04-.47,0-.15,0-.31-.01-.46-.01-.15,0-.3.01-.45.01-.15.01-.29.03-.43.02-.14.04-.28.06-.42,0-.07.02-.14.03-.2.02-.07.03-.13.05-.2.06-.26.11-.51.19-.75.07-.24.13-.46.23-.67.09-.2.16-.4.24-.58.09-.17.16-.33.23-.48.07-.15.15-.27.21-.38.06-.11.12-.21.16-.28.09-.15.13-.24.13-.24,0,0-.07.07-.19.19-.06.06-.14.14-.23.23-.09.09-.2.19-.3.32-.11.13-.22.28-.35.43-.07.08-.12.17-.18.26-.06.09-.12.19-.19.29-.14.19-.25.42-.37.66-.13.23-.23.5-.34.77-.03.07-.05.14-.08.21-.02.07-.04.15-.06.22-.04.15-.08.3-.13.45-.04.16-.06.32-.09.48-.03.16-.06.33-.07.5-.01.17-.03.34-.04.52,0,.18,0,.35,0,.53,0,.09,0,.18,0,.27Z"/><path class="cls-17" d="M68.07,80.02c0-.07,0-.13,0-.19,0-.06-.02-.11-.02-.16-.02-.1-.03-.19-.04-.26-.02-.14-.04-.21-.04-.21,0,0-.02.07-.04.21-.01.07-.03.15-.05.25-.01.1-.05.21-.08.33-.02.06-.04.12-.06.19-.02.07-.03.13-.07.2-.06.14-.12.29-.19.44-.09.15-.16.31-.27.47-.05.08-.11.15-.17.24-.03.04-.06.08-.09.12-.03.04-.07.08-.1.11-.07.08-.14.15-.2.23-.08.07-.16.15-.24.22-.04.04-.08.07-.12.11-.04.04-.09.07-.13.11-.09.07-.18.14-.27.21-.39.26-.81.53-1.28.74-.11.06-.24.11-.36.16-.12.05-.24.11-.37.15-.25.09-.51.19-.77.27-.52.17-1.07.32-1.62.44-.28.06-.55.13-.83.17-.28.06-.56.1-.84.15-.28.04-.56.08-.83.12-.28.03-.55.07-.82.1-.54.06-1.06.1-1.55.14-.5.03-.97.06-1.4.07-.44.01-.84.02-1.2.02-.05,0-.09,0-.14,0,.09-.04.14-.07.14-.07,0,0-.07,0-.22.01-.07,0-.15.01-.26.02-.1,0-.22,0-.35.02-.02,0-.04,0-.06,0-.02,0-.04,0-.06,0-.13,0-.24-.01-.35-.02-.1,0-.19-.01-.26-.02-.14,0-.22-.01-.22-.01,0,0,.05.02.14.07-.05,0-.09,0-.14,0-.36,0-.76,0-1.19-.02-.44-.01-.91-.04-1.4-.07-.5-.04-1.02-.08-1.55-.14-.27-.03-.54-.06-.82-.1-.27-.04-.55-.08-.83-.12-.28-.05-.56-.09-.84-.15-.28-.05-.56-.11-.83-.17-.55-.12-1.1-.27-1.62-.44-.26-.08-.52-.18-.77-.27-.13-.04-.25-.1-.37-.15-.12-.05-.25-.1-.36-.16-.47-.22-.89-.48-1.28-.74-.09-.07-.18-.14-.27-.21-.04-.04-.09-.07-.13-.11-.04-.04-.08-.08-.12-.11-.08-.08-.16-.15-.24-.22-.07-.08-.14-.16-.2-.23-.03-.04-.07-.08-.1-.11-.03-.04-.06-.08-.09-.12-.06-.08-.11-.16-.17-.24-.11-.16-.18-.32-.27-.47-.07-.15-.13-.3-.19-.44-.03-.07-.05-.14-.07-.2-.02-.07-.04-.13-.06-.19-.04-.12-.07-.23-.08-.33-.02-.1-.03-.19-.05-.25-.03-.14-.04-.21-.04-.21,0,0-.01.07-.04.21-.01.07-.02.16-.04.26,0,.05-.02.1-.02.16,0,.06,0,.12,0,.19,0,.13-.01.29,0,.45.02.16.04.34.08.53.03.09.05.19.08.29.03.1.05.21.1.3.04.1.09.2.13.31.02.05.05.11.07.16.03.05.06.1.09.15.06.1.12.21.19.32.07.1.15.2.23.31.04.05.08.1.12.16.04.05.09.1.13.15.09.1.19.2.28.3.1.09.21.18.31.28.05.05.11.09.16.14.06.04.11.08.17.13.11.08.23.17.35.25.12.08.25.15.37.23.51.3,1.06.57,1.63.77.29.11.58.2.87.3.3.08.59.16.89.23.6.13,1.2.24,1.8.3.59.07,1.18.11,1.75.11.57.02,1.12-.01,1.64-.04.26-.02.51-.04.75-.07.24-.03.48-.06.7-.1.83-.13,1.52-.32,2.01-.49.49.17,1.18.35,2.01.49.22.04.46.06.7.1.24.03.49.05.75.07.52.03,1.07.06,1.63.04.57,0,1.16-.05,1.75-.11.6-.07,1.2-.17,1.8-.3.3-.07.6-.15.89-.23.29-.09.59-.18.87-.3.57-.21,1.12-.47,1.63-.77.13-.08.25-.15.37-.23.12-.08.24-.17.35-.25.06-.04.11-.09.17-.13.05-.05.11-.09.16-.14.11-.09.21-.18.31-.28.09-.1.19-.2.28-.3.05-.05.09-.1.13-.15.04-.05.08-.11.12-.16.08-.11.16-.21.23-.31.06-.11.13-.21.19-.32.03-.05.06-.1.09-.15.03-.05.05-.11.07-.16.05-.11.09-.21.13-.31.05-.1.06-.21.1-.3.03-.1.05-.19.08-.29.03-.19.05-.37.07-.53.02-.16,0-.32,0-.45Z"/><path class="cls-17" d="M44.25,69.71c0,.09.02.18.03.27.02.18.03.37.06.55.03.18.06.37.1.56.03.19.09.37.13.55.02.09.05.19.07.28.03.09.06.18.09.27.06.18.12.37.19.55.27.73.62,1.43,1.01,2.11.4.67.84,1.31,1.31,1.91.24.29.47.59.72.86.12.14.25.27.37.41.13.13.25.26.38.39.12.13.25.25.38.38.13.12.25.24.38.36.26.23.5.46.76.67.5.42.99.8,1.46,1.13.46.33.91.61,1.3.85.26.16.49.29.71.41-.46.4-.72.63-.72.63,0,0,.09-.04.25-.11.16-.08.4-.18.69-.34.02,0,.04-.02.06-.03.02.01.04.02.06.03.29.16.53.26.69.34.16.07.25.11.25.11,0,0-.26-.23-.72-.63.22-.12.45-.25.71-.41.39-.24.84-.52,1.3-.85.47-.33.96-.71,1.46-1.13.26-.21.5-.44.76-.67.13-.12.25-.24.38-.36.13-.12.26-.25.38-.38.13-.13.25-.26.38-.39.12-.14.25-.27.37-.41.25-.27.48-.57.72-.86.47-.6.91-1.24,1.31-1.91.39-.68.74-1.38,1.01-2.11.07-.18.13-.37.19-.55.03-.09.06-.18.09-.27.02-.09.05-.19.07-.28.04-.19.1-.37.13-.55.03-.19.07-.37.1-.56.03-.18.04-.37.06-.55,0-.09.02-.18.03-.27,0-.09,0-.18,0-.27,0-.18,0-.36,0-.53-.01-.18-.03-.35-.04-.52,0-.17-.04-.34-.07-.5-.03-.16-.05-.32-.09-.48-.04-.15-.09-.31-.13-.45-.02-.07-.04-.15-.06-.22-.03-.07-.05-.14-.08-.21-.11-.27-.2-.54-.34-.77-.12-.24-.24-.46-.37-.66-.06-.1-.13-.19-.19-.29-.06-.09-.12-.18-.18-.26-.13-.16-.25-.3-.35-.43-.1-.13-.21-.23-.3-.32-.09-.09-.17-.17-.23-.23-.13-.12-.2-.19-.2-.19,0,0,.05.08.13.24.04.08.1.17.16.28.06.11.14.24.21.38.07.14.15.3.23.48.08.17.15.37.24.58.09.2.15.43.23.67.08.23.13.49.19.75.01.07.03.13.04.2,0,.07.02.14.03.2.02.14.04.28.06.42.02.14.02.29.03.43,0,.15.02.29.01.45,0,.15,0,.3-.01.46,0,.15-.03.31-.05.47,0,.08-.02.16-.02.24-.01.08-.03.16-.04.24-.03.16-.05.32-.09.48-.14.64-.36,1.29-.62,1.94-.27.64-.6,1.28-.96,1.9-.36.62-.77,1.22-1.18,1.8-.43.57-.86,1.13-1.31,1.65-.22.27-.45.51-.67.76-.23.24-.44.48-.66.71-.22.23-.43.45-.64.66-.21.22-.42.41-.61.61-.4.39-.77.74-1.11,1.04-.16.16-.33.29-.47.42-.07.06-.13.12-.19.17-.06-.06-.13-.11-.19-.17-.14-.14-.31-.27-.47-.42-.33-.31-.71-.66-1.1-1.04-.2-.19-.41-.39-.61-.61-.21-.21-.43-.43-.64-.66-.22-.23-.44-.47-.66-.71-.21-.25-.45-.5-.67-.76-.45-.52-.88-1.08-1.31-1.65-.42-.58-.82-1.18-1.18-1.8-.36-.62-.68-1.26-.96-1.9-.26-.65-.48-1.29-.62-1.94-.04-.16-.06-.32-.09-.48-.01-.08-.03-.16-.04-.24,0-.08-.02-.16-.02-.24-.01-.16-.04-.31-.04-.47,0-.15,0-.31-.01-.46-.01-.15,0-.3.01-.45.01-.15.01-.29.03-.43.02-.14.04-.28.06-.42,0-.07.02-.14.03-.2.02-.07.03-.13.05-.2.06-.26.11-.51.19-.75.07-.24.13-.46.23-.67.09-.2.16-.4.24-.58.09-.17.16-.33.23-.48.07-.15.15-.27.21-.38.06-.11.12-.21.16-.28.09-.15.13-.24.13-.24,0,0-.07.07-.19.19-.06.06-.14.14-.23.23-.09.09-.2.19-.3.32-.11.13-.22.28-.35.43-.07.08-.12.17-.18.26-.06.09-.12.19-.19.29-.14.19-.25.42-.37.66-.13.23-.23.5-.34.77-.03.07-.05.14-.08.21-.02.07-.04.15-.06.22-.04.15-.08.3-.13.45-.04.16-.06.32-.09.48-.03.16-.06.33-.07.5-.01.17-.03.34-.04.52,0,.18,0,.35,0,.53,0,.09,0,.18,0,.27Z"/><path class="cls-17" d="M68.07,80.02c0-.07,0-.13,0-.19,0-.06-.02-.11-.02-.16-.02-.1-.03-.19-.04-.26-.02-.14-.04-.21-.04-.21,0,0-.02.07-.04.21-.01.07-.03.15-.05.25-.01.1-.05.21-.08.33-.02.06-.04.12-.06.19-.02.07-.03.13-.07.2-.06.14-.12.29-.19.44-.09.15-.16.31-.27.47-.05.08-.11.15-.17.24-.03.04-.06.08-.09.12-.03.04-.07.08-.1.11-.07.08-.14.15-.2.23-.08.07-.16.15-.24.22-.04.04-.08.07-.12.11-.04.04-.09.07-.13.11-.09.07-.18.14-.27.21-.39.26-.81.53-1.28.74-.11.06-.24.11-.36.16-.12.05-.24.11-.37.15-.25.09-.51.19-.77.27-.52.17-1.07.32-1.62.44-.28.06-.55.13-.83.17-.28.06-.56.1-.84.15-.28.04-.56.08-.83.12-.28.03-.55.07-.82.1-.54.06-1.06.1-1.55.14-.5.03-.97.06-1.4.07-.44.01-.84.02-1.2.02-.05,0-.09,0-.14,0,.09-.04.14-.07.14-.07,0,0-.07,0-.22.01-.07,0-.15.01-.26.02-.1,0-.22,0-.35.02-.02,0-.04,0-.06,0-.02,0-.04,0-.06,0-.13,0-.24-.01-.35-.02-.1,0-.19-.01-.26-.02-.14,0-.22-.01-.22-.01,0,0,.05.02.14.07-.05,0-.09,0-.14,0-.36,0-.76,0-1.19-.02-.44-.01-.91-.04-1.4-.07-.5-.04-1.02-.08-1.55-.14-.27-.03-.54-.06-.82-.1-.27-.04-.55-.08-.83-.12-.28-.05-.56-.09-.84-.15-.28-.05-.56-.11-.83-.17-.55-.12-1.1-.27-1.62-.44-.26-.08-.52-.18-.77-.27-.13-.04-.25-.1-.37-.15-.12-.05-.25-.1-.36-.16-.47-.22-.89-.48-1.28-.74-.09-.07-.18-.14-.27-.21-.04-.04-.09-.07-.13-.11-.04-.04-.08-.08-.12-.11-.08-.08-.16-.15-.24-.22-.07-.08-.14-.16-.2-.23-.03-.04-.07-.08-.1-.11-.03-.04-.06-.08-.09-.12-.06-.08-.11-.16-.17-.24-.11-.16-.18-.32-.27-.47-.07-.15-.13-.3-.19-.44-.03-.07-.05-.14-.07-.2-.02-.07-.04-.13-.06-.19-.04-.12-.07-.23-.08-.33-.02-.1-.03-.19-.05-.25-.03-.14-.04-.21-.04-.21,0,0-.01.07-.04.21-.01.07-.02.16-.04.26,0,.05-.02.1-.02.16,0,.06,0,.12,0,.19,0,.13-.01.29,0,.45.02.16.04.34.08.53.03.09.05.19.08.29.03.1.05.21.1.3.04.1.09.2.13.31.02.05.05.11.07.16.03.05.06.1.09.15.06.1.12.21.19.32.07.1.15.2.23.31.04.05.08.1.12.16.04.05.09.1.13.15.09.1.19.2.28.3.1.09.21.18.31.28.05.05.11.09.16.14.06.04.11.08.17.13.11.08.23.17.35.25.12.08.25.15.37.23.51.3,1.06.57,1.63.77.29.11.58.2.87.3.3.08.59.16.89.23.6.13,1.2.24,1.8.3.59.07,1.18.11,1.75.11.57.02,1.12-.01,1.64-.04.26-.02.51-.04.75-.07.24-.03.48-.06.7-.1.83-.13,1.52-.32,2.01-.49.49.17,1.18.35,2.01.49.22.04.46.06.7.1.24.03.49.05.75.07.52.03,1.07.06,1.63.04.57,0,1.16-.05,1.75-.11.6-.07,1.2-.17,1.8-.3.3-.07.6-.15.89-.23.29-.09.59-.18.87-.3.57-.21,1.12-.47,1.63-.77.13-.08.25-.15.37-.23.12-.08.24-.17.35-.25.06-.04.11-.09.17-.13.05-.05.11-.09.16-.14.11-.09.21-.18.31-.28.09-.1.19-.2.28-.3.05-.05.09-.1.13-.15.04-.05.08-.11.12-.16.08-.11.16-.21.23-.31.06-.11.13-.21.19-.32.03-.05.06-.1.09-.15.03-.05.05-.11.07-.16.05-.11.09-.21.13-.31.05-.1.06-.21.1-.3.03-.1.05-.19.08-.29.03-.19.05-.37.07-.53.02-.16,0-.32,0-.45Z"/><path class="cls-17" d="M60.18,78.5c-.08,6.45-6.79,9.04-6.79,9.04,0,0-6.42-2.69-6.45-9.28-.01-3.65,3.01-2.3,6.66-2.23,3.65.07,6.62-1.18,6.57,2.48Z"/><path class="cls-8" d="M53.81,81.39s0,0,.01,0c0,0,0,0,0,0,0,0,0,0-.01,0Z"/><path class="cls-42" d="M48.37,42.31c.44-1.18,1.8-1.51,2.94-1.33-1.03.83-2.17,1.77-2.29,3.18,1.17-1.86,3.76-1.78,5.64-2.45-.24.93-1.12,1.5-2.05,1.69,1.8.13,6.09.52,5.83-1.94-.67-6.39-10-.87-10.07.85Z"/></g></svg>