<?xml version="1.0" encoding="UTF-8"?><svg xmlns="http://www.w3.org/2000/svg" viewBox="0 0 102.24 150.24"><defs><style>.cls-1{fill:none;stroke:#1e1e1c;stroke-miterlimit:10;stroke-width:.25px;}.cls-2{fill:#7cafce;}.cls-3{fill:#a9c8d2;}.cls-3,.cls-4{fill-rule:evenodd;}.cls-4{fill:#f6c008;}.cls-5{fill:#e5b520;}</style></defs><g id="NOOOOO"><g id="margem"><polyline class="cls-1" points="31.32 141.14 10.38 141.14 10.38 75.95 10.38 9.1 31.32 9.1"/><polyline class="cls-1" points="70.92 9.1 91.86 9.1 91.86 141.14 70.92 141.14"/><line class="cls-1" x1="61.02" y1="141.14" x2="41.22" y2="141.14"/><line class="cls-1" x1="41.22" y1="9.1" x2="61.02" y2="9.1"/></g></g><g id="ESPADA"><path class="cls-4" d="M33.34,46.07c.16-.1.26-.28.25-.49,0-.2-.12-.36-.29-.44.15-.1.26-.28.25-.48,0-.2-.12-.36-.28-.44.15-.1.25-.28.24-.48,0-.2-.12-.36-.27-.44.15-.1.24-.28.24-.48,0-.2-.12-.36-.27-.44.14-.1.24-.28.23-.48,0-.2-.11-.36-.26-.44.14-.1.23-.28.22-.48,0-.2-.11-.36-.26-.44.14-.1.23-.28.22-.48,0-.2-.11-.36-.25-.44.13-.1.22-.28.21-.48,0-.2-.11-.36-.24-.44.13-.1.21-.28.21-.48,0-.2-.11-.36-.24-.44.13-.1.21-.28.2-.48,0-.2-.1-.36-.23-.44.12-.1.2-.28.19-.48,0-.2-.1-.36-.23-.44.12-.1.2-.28.19-.48,0-.2-.1-.36-.22-.44.12-.1.19-.28.18-.48,0-.2-.1-.36-.22-.44.11-.1.19-.28.18-.48,0-.2-.09-.37-.21-.44.11-.1.18-.28.17-.48,0-.09-.02-.17-.05-.24.04,0,.07-.01.11-.02.83-.21,1.01-1.41.47-2.11-.56-.69-1.83-.91-1.83-.91,0,0-1.22.27-1.75.97-.52.72-.3,1.91.53,2.09.01,0,.03,0,.05,0-.02.06-.04.14-.04.22,0,.2.06.38.17.48-.12.08-.2.24-.21.44,0,.2.06.38.18.48-.12.08-.21.24-.22.44,0,.2.07.38.18.48-.12.08-.21.24-.22.44,0,.2.07.38.19.48-.13.08-.22.24-.23.44,0,.2.07.38.2.48-.13.08-.22.24-.23.44,0,.2.07.38.2.48-.13.08-.23.24-.24.44,0,.2.08.38.21.48-.14.08-.24.24-.25.44,0,.2.08.38.21.48-.14.08-.24.24-.25.44,0,.2.08.38.22.48-.14.08-.25.24-.26.44,0,.2.08.38.22.48-.15.08-.25.24-.26.44,0,.2.09.38.23.48-.15.08-.26.24-.27.44,0,.2.09.38.24.48-.15.08-.27.24-.27.44,0,.2.09.38.24.48-.16.08-.27.24-.28.44,0,.2.09.38.25.48-.16.08-.28.24-.29.44,0,.2.1.38.25.49-.16.08-.28.24-.29.44-.01.29.21.55.5.57.89.06,1.78.06,2.67,0,.29-.02.51-.28.5-.57,0-.2-.13-.36-.29-.44Z"/><path class="cls-3" d="M32.88,49.01c.01-.44.48-.61.48-.61l-1.54-.35h0s0,0,0,0l-1.54.35s.48.17.48.61c.01,1.37-.96,1.57-.96,1.57,0,0,.38,47.36.67,48.31.29.96,1.34,3.83,1.34,3.83v-.07s0,.07,0,.07c0,0,1.06-2.87,1.35-3.83.29-.96.67-48.31.67-48.31,0,0-1.01-.11-.96-1.57Z"/><polygon class="cls-2" points="32.22 48.06 31.79 97.85 31.37 48.06 32.22 48.06"/><path class="cls-5" d="M38.84,47.14c-.27,0-.51.12-.68.3-.36.07-.89.12-1.6.06-1.49-.11-3.33-.69-4.53-.69-.09,0-.17,0-.23.03-.06-.02-.14-.03-.23-.03-1.2,0-3.04.57-4.53.69-.74.06-1.29,0-1.64-.07-.17-.18-.41-.29-.68-.29-.52,0-.93.42-.93.93s.42.93.93.93c.25,0,.47-.1.63-.25.46-.07,1.17-.17,1.8-.27,1.03-.17,4.42,0,4.42,0h.46s3.39-.17,4.42,0c.61.1,1.29.2,1.75.27.17.16.39.26.64.26.52,0,.93-.42.93-.93s-.42-.93-.93-.93Z"/><path class="cls-5" d="M31.77,28.26c-1.32,0-2.39,1.07-2.39,2.39s1.07,2.39,2.39,2.39,2.39-1.07,2.39-2.39-1.07-2.39-2.39-2.39Z"/><path class="cls-4" d="M61.83,46.07c.16-.1.26-.28.25-.49,0-.2-.12-.36-.29-.44.15-.1.26-.28.25-.48,0-.2-.12-.36-.28-.44.15-.1.25-.28.24-.48,0-.2-.12-.36-.27-.44.15-.1.24-.28.24-.48,0-.2-.12-.36-.27-.44.14-.1.24-.28.23-.48,0-.2-.11-.36-.26-.44.14-.1.23-.28.22-.48,0-.2-.11-.36-.26-.44.14-.1.23-.28.22-.48,0-.2-.11-.36-.25-.44.13-.1.22-.28.21-.48,0-.2-.11-.36-.24-.44.13-.1.21-.28.21-.48,0-.2-.11-.36-.24-.44.13-.1.21-.28.2-.48,0-.2-.1-.36-.23-.44.12-.1.2-.28.19-.48,0-.2-.1-.36-.23-.44.12-.1.2-.28.19-.48,0-.2-.1-.36-.22-.44.12-.1.19-.28.18-.48,0-.2-.1-.36-.22-.44.11-.1.19-.28.18-.48,0-.2-.09-.37-.21-.44.11-.1.18-.28.17-.48,0-.09-.02-.17-.05-.24.04,0,.07-.01.11-.02.83-.21,1.01-1.41.47-2.11-.56-.69-1.83-.91-1.83-.91,0,0-1.22.27-1.75.97-.52.72-.3,1.91.53,2.09.01,0,.03,0,.05,0-.02.06-.04.14-.04.22,0,.2.06.38.17.48-.12.08-.2.24-.21.44,0,.2.06.38.18.48-.12.08-.21.24-.22.44,0,.2.07.38.18.48-.12.08-.21.24-.22.44,0,.2.07.38.19.48-.13.08-.22.24-.23.44,0,.2.07.38.2.48-.13.08-.22.24-.23.44,0,.2.07.38.2.48-.13.08-.23.24-.24.44,0,.2.08.38.21.48-.14.08-.24.24-.25.44,0,.2.08.38.21.48-.14.08-.24.24-.25.44,0,.2.08.38.22.48-.14.08-.25.24-.26.44,0,.2.08.38.22.48-.15.08-.25.24-.26.44,0,.2.09.38.23.48-.15.08-.26.24-.27.44,0,.2.09.38.24.48-.15.08-.27.24-.27.44,0,.2.09.38.24.48-.16.08-.27.24-.28.44,0,.2.09.38.25.48-.16.08-.28.24-.29.44,0,.2.1.38.25.49-.16.08-.28.24-.29.44-.01.29.21.55.5.57.89.06,1.78.06,2.67,0,.29-.02.51-.28.5-.57,0-.2-.13-.36-.29-.44Z"/><path class="cls-3" d="M61.37,49.01c.01-.44.48-.61.48-.61l-1.54-.35h0s0,0,0,0l-1.54.35s.48.17.48.61c.01,1.37-.96,1.57-.96,1.57,0,0,.38,47.36.67,48.31.29.96,1.34,3.83,1.34,3.83v-.07s0,.07,0,.07c0,0,1.06-2.87,1.35-3.83.29-.96.67-48.31.67-48.31,0,0-1.01-.11-.96-1.57Z"/><polygon class="cls-2" points="60.71 48.06 60.29 97.85 59.86 48.06 60.71 48.06"/><path class="cls-5" d="M67.33,47.14c-.27,0-.51.12-.68.3-.36.07-.89.12-1.6.06-1.49-.11-3.33-.69-4.53-.69-.09,0-.17,0-.23.03-.06-.02-.14-.03-.23-.03-1.2,0-3.04.57-4.53.69-.74.06-1.29,0-1.64-.07-.17-.18-.41-.29-.68-.29-.52,0-.93.42-.93.93s.42.93.93.93c.25,0,.47-.1.63-.25.46-.07,1.17-.17,1.8-.27,1.03-.17,4.42,0,4.42,0h.46s3.39-.17,4.42,0c.61.1,1.29.2,1.75.27.17.16.39.26.64.26.52,0,.93-.42.93-.93s-.42-.93-.93-.93Z"/><path class="cls-5" d="M60.27,28.26c-1.32,0-2.39,1.07-2.39,2.39s1.07,2.39,2.39,2.39,2.39-1.07,2.39-2.39-1.07-2.39-2.39-2.39Z"/><path class="cls-4" d="M72.95,104.17c-.16.1-.26.28-.25.49,0,.2.12.36.29.44-.15.1-.26.28-.25.48,0,.2.12.36.28.44-.15.1-.25.28-.24.48,0,.2.12.36.27.44-.15.1-.24.28-.24.48,0,.2.12.36.27.44-.14.1-.24.28-.23.48,0,.2.11.36.26.44-.14.1-.23.28-.22.48,0,.2.11.36.26.44-.14.1-.23.28-.22.48,0,.2.11.36.25.44-.13.1-.22.28-.21.48,0,.2.11.36.24.44-.13.1-.21.28-.21.48,0,.2.11.36.24.44-.13.1-.21.28-.2.48,0,.2.1.36.23.44-.12.1-.2.28-.19.48,0,.2.1.36.23.44-.12.1-.2.28-.19.48,0,.2.1.36.22.44-.12.1-.19.28-.18.48,0,.2.1.36.22.44-.11.1-.19.28-.18.48,0,.2.09.37.21.44-.11.1-.18.28-.17.48,0,.09.02.17.05.24-.04,0-.07.01-.11.02-.83.21-1.01,1.41-.47,2.11.56.69,1.83.91,1.83.91,0,0,1.22-.27,1.75-.97.52-.72.3-1.91-.53-2.09-.01,0-.03,0-.05,0,.02-.06.04-.14.04-.22,0-.2-.06-.38-.17-.48.12-.08.2-.24.21-.44,0-.2-.06-.38-.18-.48.12-.08.21-.24.22-.44,0-.2-.07-.38-.18-.48.12-.08.21-.24.22-.44,0-.2-.07-.38-.19-.48.13-.08.22-.24.23-.44,0-.2-.07-.38-.2-.48.13-.08.22-.24.23-.44,0-.2-.07-.38-.2-.48.13-.08.23-.24.24-.44,0-.2-.08-.38-.21-.48.14-.08.24-.24.25-.44,0-.2-.08-.38-.21-.48.14-.08.24-.24.25-.44,0-.2-.08-.38-.22-.48.14-.08.25-.24.26-.44,0-.2-.08-.38-.22-.48.15-.08.25-.24.26-.44,0-.2-.09-.38-.23-.48.15-.08.26-.24.27-.44,0-.2-.09-.38-.24-.48.15-.08.27-.24.27-.44,0-.2-.09-.38-.24-.48.16-.08.27-.24.28-.44,0-.2-.09-.38-.25-.48.16-.08.28-.24.29-.44,0-.2-.1-.38-.25-.49.16-.08.28-.24.29-.44.01-.29-.21-.55-.5-.57-.89-.06-1.78-.06-2.67,0-.29.02-.51.28-.5.57,0,.2.13.36.29.44Z"/><path class="cls-3" d="M73.41,101.23c-.01.44-.48.61-.48.61l1.54.35h0s0,0,0,0l1.54-.35s-.48-.17-.48-.61c-.01-1.37.96-1.57.96-1.57,0,0-.38-47.36-.67-48.31-.29-.96-1.34-3.83-1.34-3.83v.07s0-.07,0-.07c0,0-1.06,2.87-1.35,3.83-.29.96-.67,48.31-.67,48.31,0,0,1.01.11.96,1.57Z"/><polygon class="cls-2" points="74.07 102.18 74.5 52.39 74.92 102.18 74.07 102.18"/><path class="cls-5" d="M67.45,103.1c.27,0,.51-.12.68-.3.36-.07.89-.12,1.6-.06,1.49.11,3.33.69,4.53.69.09,0,.17,0,.23-.03.06.02.14.03.23.03,1.2,0,3.04-.57,4.53-.69.74-.06,1.29,0,1.64.07.17.18.41.29.68.29.52,0,.93-.42.93-.93s-.42-.93-.93-.93c-.25,0-.47.1-.63.25-.46.07-1.17.17-1.8.27-1.03.17-4.42,0-4.42,0h-.46s-3.39.17-4.42,0c-.61-.1-1.29-.2-1.75-.27-.17-.16-.39-.26-.64-.26-.52,0-.93.42-.93.93s.42.93.93.93Z"/><path class="cls-5" d="M74.51,121.98c1.32,0,2.39-1.07,2.39-2.39s-1.07-2.39-2.39-2.39-2.39,1.07-2.39,2.39,1.07,2.39,2.39,2.39Z"/><path class="cls-4" d="M69.88,75.36c.1.15.27.25.47.24.19,0,.35-.12.42-.28.1.15.27.25.47.24.19,0,.35-.12.42-.27.1.15.27.24.47.23.19,0,.35-.12.42-.27.1.14.27.24.47.23.19,0,.35-.11.42-.26.1.14.27.23.47.22.19,0,.35-.11.42-.25.1.14.27.22.47.22.19,0,.35-.11.43-.25.1.13.27.22.47.21.19,0,.35-.11.43-.24.1.13.27.21.46.21.19,0,.35-.1.43-.24.1.13.27.21.47.2.19,0,.35-.1.43-.23.1.12.27.2.46.19.19,0,.35-.1.43-.23.1.12.27.2.46.19.19,0,.35-.1.43-.22.09.12.27.19.46.18.19,0,.35-.1.43-.21.09.11.27.19.46.18.19,0,.35-.09.43-.21.1.11.27.18.46.17.19,0,.35-.09.43-.2.09.11.27.17.46.17.09,0,.17-.02.24-.05,0,.03.01.07.02.11.2.8,1.36.97,2.04.45.66-.54.88-1.76.88-1.76,0,0-.26-1.18-.94-1.7-.69-.5-1.85-.29-2.02.52,0,.01,0,.03,0,.04-.06-.02-.13-.04-.21-.04-.19,0-.37.06-.46.17-.08-.11-.24-.19-.43-.2-.19,0-.37.06-.46.17-.08-.12-.23-.2-.43-.21-.19,0-.37.06-.46.18-.08-.12-.23-.21-.43-.21-.19,0-.37.07-.46.18-.08-.12-.23-.21-.43-.22-.19,0-.37.07-.46.19-.08-.13-.23-.22-.43-.23-.19,0-.37.07-.46.19-.08-.13-.23-.22-.43-.23-.19,0-.37.07-.47.2-.07-.13-.23-.23-.43-.24-.19,0-.37.08-.46.21-.08-.14-.23-.23-.43-.24-.19,0-.37.08-.47.21-.07-.14-.23-.24-.43-.25-.19,0-.37.08-.47.22-.07-.14-.23-.24-.42-.25-.19,0-.37.08-.47.22-.07-.14-.23-.25-.42-.26-.19,0-.37.08-.47.23-.07-.15-.23-.26-.42-.26-.19,0-.37.09-.47.23-.07-.15-.23-.26-.42-.27-.19,0-.37.09-.47.24-.07-.16-.23-.27-.42-.28-.19,0-.37.09-.47.24-.07-.16-.23-.27-.42-.28-.28-.01-.53.2-.55.48-.06.86-.06,1.72,0,2.58.02.28.27.49.55.48.19,0,.35-.12.42-.28Z"/><path class="cls-3" d="M67.05,74.92c.42.01.59.46.59.46l.34-1.49h0s0,0,0,0l-.34-1.49s-.17.46-.59.46c-1.32.01-1.51-.93-1.51-.93,0,0-45.75.37-46.68.65-.93.28-3.7,1.3-3.7,1.3h.07s-.07,0-.07,0c0,0,2.78,1.02,3.7,1.3.93.28,46.68.65,46.68.65,0,0,.11-.97,1.51-.93Z"/><polygon class="cls-2" points="67.96 74.29 19.85 73.87 67.96 73.46 67.96 74.29"/><path class="cls-5" d="M68.85,80.68c0-.26-.11-.49-.29-.66-.06-.35-.11-.86-.06-1.54.11-1.44.67-3.22.67-4.38,0-.09,0-.16-.03-.22.02-.06.03-.13.03-.22,0-1.16-.55-2.94-.67-4.38-.06-.72,0-1.24.07-1.59.17-.16.28-.4.28-.65,0-.5-.4-.9-.9-.9s-.9.4-.9.9c0,.24.09.45.24.61.06.45.16,1.13.27,1.74.17,1,0,4.27,0,4.27v.44s.17,3.27,0,4.27c-.1.59-.19,1.25-.26,1.7-.15.16-.25.38-.25.62,0,.5.4.9.9.9s.9-.4.9-.9Z"/><path class="cls-5" d="M87.09,73.85c0-1.28-1.04-2.31-2.31-2.31s-2.31,1.04-2.31,2.31,1.04,2.31,2.31,2.31,2.31-1.04,2.31-2.31Z"/><path class="cls-4" d="M44.46,104.17c-.16.1-.26.28-.25.49,0,.2.12.36.29.44-.15.1-.26.28-.25.48,0,.2.12.36.28.44-.15.1-.25.28-.24.48,0,.2.12.36.27.44-.15.1-.24.28-.24.48,0,.2.12.36.27.44-.14.1-.24.28-.23.48,0,.2.11.36.26.44-.14.1-.23.28-.22.48,0,.2.11.36.26.44-.14.1-.23.28-.22.48,0,.2.11.36.25.44-.13.1-.22.28-.21.48,0,.2.11.36.24.44-.13.1-.21.28-.21.48,0,.2.11.36.24.44-.13.1-.21.28-.2.48,0,.2.1.36.23.44-.12.1-.2.28-.19.48,0,.2.1.36.23.44-.12.1-.2.28-.19.48,0,.2.1.36.22.44-.12.1-.19.28-.18.48,0,.2.1.36.22.44-.11.1-.19.28-.18.48,0,.2.09.37.21.44-.11.1-.18.28-.17.48,0,.09.02.17.05.24-.04,0-.07.01-.11.02-.83.21-1.01,1.41-.47,2.11.56.69,1.83.91,1.83.91,0,0,1.22-.27,1.75-.97.52-.72.3-1.91-.53-2.09-.01,0-.03,0-.05,0,.02-.06.04-.14.04-.22,0-.2-.06-.38-.17-.48.12-.08.2-.24.21-.44,0-.2-.06-.38-.18-.48.12-.08.21-.24.22-.44,0-.2-.07-.38-.18-.48.12-.08.21-.24.22-.44,0-.2-.07-.38-.19-.48.13-.08.22-.24.23-.44,0-.2-.07-.38-.2-.48.13-.08.22-.24.23-.44,0-.2-.07-.38-.2-.48.13-.08.23-.24.24-.44,0-.2-.08-.38-.21-.48.14-.08.24-.24.25-.44,0-.2-.08-.38-.21-.48.14-.08.24-.24.25-.44,0-.2-.08-.38-.22-.48.14-.08.25-.24.26-.44,0-.2-.08-.38-.22-.48.15-.08.25-.24.26-.44,0-.2-.09-.38-.23-.48.15-.08.26-.24.27-.44,0-.2-.09-.38-.24-.48.15-.08.27-.24.27-.44,0-.2-.09-.38-.24-.48.16-.08.27-.24.28-.44,0-.2-.09-.38-.25-.48.16-.08.28-.24.29-.44,0-.2-.1-.38-.25-.49.16-.08.28-.24.29-.44.01-.29-.21-.55-.5-.57-.89-.06-1.78-.06-2.67,0-.29.02-.51.28-.5.57,0,.2.13.36.29.44Z"/><path class="cls-3" d="M44.92,101.23c-.01.44-.48.61-.48.61l1.54.35h0s0,0,0,0l1.54-.35s-.48-.17-.48-.61c-.01-1.37.96-1.57.96-1.57,0,0-.38-47.36-.67-48.31-.29-.96-1.34-3.83-1.34-3.83v.07s0-.07,0-.07c0,0-1.06,2.87-1.35,3.83-.29.96-.67,48.31-.67,48.31,0,0,1.01.11.96,1.57Z"/><polygon class="cls-2" points="45.57 102.18 46 52.39 46.43 102.18 45.57 102.18"/><path class="cls-5" d="M38.96,103.1c.27,0,.51-.12.68-.3.36-.07.89-.12,1.6-.06,1.49.11,3.33.69,4.53.69.09,0,.17,0,.23-.03.06.02.14.03.23.03,1.2,0,3.04-.57,4.53-.69.74-.06,1.29,0,1.64.07.17.18.41.29.68.29.52,0,.93-.42.93-.93s-.42-.93-.93-.93c-.25,0-.47.1-.63.25-.46.07-1.17.17-1.8.27-1.03.17-4.42,0-4.42,0h-.46s-3.39.17-4.42,0c-.61-.1-1.29-.2-1.75-.27-.17-.16-.39-.26-.64-.26-.52,0-.93.42-.93.93s.42.93.93.93Z"/><path class="cls-5" d="M46.02,121.98c1.32,0,2.39-1.07,2.39-2.39s-1.07-2.39-2.39-2.39-2.39,1.07-2.39,2.39,1.07,2.39,2.39,2.39Z"/></g></svg>