<?xml version="1.0" encoding="UTF-8"?><svg xmlns="http://www.w3.org/2000/svg" xmlns:xlink="http://www.w3.org/1999/xlink" viewBox="0 0 102.24 150.24"><defs><style>.cls-1{fill:none;stroke:#1e1e1c;stroke-miterlimit:10;stroke-width:.25px;}.cls-2{fill:#fcc12d;}.cls-3{fill:#7cafce;}.cls-4{fill:#efa3a5;}.cls-4,.cls-5,.cls-6,.cls-7{fill-rule:evenodd;}.cls-8{fill:#ffe7a1;}.cls-5{fill:url(#linear-gradient);}.cls-6{fill:#a9c8d2;}.cls-9{fill:#fed695;}.cls-7,.cls-10{fill:#f6c008;}.cls-11{fill:#e5b520;}</style><linearGradient id="linear-gradient" x1="376.03" y1="-1341.31" x2="376.03" y2="-1261.14" gradientTransform="translate(-291.39 -1246.45) rotate(149.48)" gradientUnits="userSpaceOnUse"><stop offset="0" stop-color="#7cafce"/><stop offset="1" stop-color="#d4e3e8"/></linearGradient></defs><g id="NOOOOO"><g id="margem"><polyline class="cls-1" points="31.32 141.14 10.38 141.14 10.38 75.95 10.38 9.1 31.32 9.1"/><polyline class="cls-1" points="70.92 9.1 91.86 9.1 91.86 141.14 70.92 141.14"/><line class="cls-1" x1="61.02" y1="141.14" x2="41.22" y2="141.14"/><line class="cls-1" x1="41.22" y1="9.1" x2="61.02" y2="9.1"/></g></g><g id="ESPADA"><path class="cls-6" d="M66.04,103.57c.32.58-.16,1.17-.16,1.17l2.3-.74h0s0,0,0,0l1.75-1.65s-.76.14-1.11-.43c-1.08-1.8.05-2.81.05-2.81,0,0-37.27-62.06-38.39-63.1-1.12-1.04-4.74-4-4.74-4l.05.09-.06-.09s.84,4.6,1.2,6.09c.36,1.48,36.62,64.14,36.62,64.14,0,0,1.41-.64,2.48,1.32Z"/><polygon class="cls-3" points="67.64 104.31 29.55 38.41 68.77 103.64 67.64 104.31"/><path class="cls-5" d="M68.7,98.29L30.18,33.77c-.85-1.44-3.71-3.63-5.14-2.78-1.44.85-.9,4.41-.06,5.85,0,0,37.83,64.89,37.84,64.92,0,0,5.9-3.44,5.88-3.47Z"/><path class="cls-10" d="M62.64,101.73c-.1-.16-.04-.38.12-.47l5.65-3.33c.16-.1.38-.04.47.12h0c.1.16.04.38-.12.47l-5.65,3.33c-.16.1-.38.04-.47-.12h0Z"/><polygon class="cls-4" points="54.86 103.34 54.86 103.34 54.86 103.34 54.86 103.34"/><path class="cls-7" d="M67.78,107.53c-.13.27-.11.6.07.87.18.26.47.38.75.35-.13.27-.11.6.07.86.18.26.47.39.75.36-.12.26-.1.59.08.86.18.26.47.39.74.36-.12.26-.09.59.09.85.18.26.46.39.73.37-.11.26-.08.58.1.85.18.27.46.4.72.38-.11.25-.08.58.1.84.18.26.46.4.72.38-.1.25-.07.57.11.84.18.26.45.4.71.39-.1.25-.06.56.12.83.18.26.45.4.7.39-.09.24-.05.56.12.82.18.26.45.4.69.4-.09.24-.05.55.13.82.18.26.45.41.69.4-.08.24-.04.55.14.81.18.26.44.41.68.41-.08.23-.03.54.15.81.18.26.44.41.67.41-.08.23-.03.54.15.8.18.26.44.41.67.42-.07.23-.02.53.16.8.18.26.43.42.66.42-.07.22-.01.53.17.79.08.12.18.21.28.28-.04.04-.09.08-.13.12-.95.98-.18,2.75,1.13,3.24,1.33.46,3.24-.3,3.24-.3,0,0,1.42-1.39,1.56-2.79.1-1.4-1.2-2.84-2.48-2.38-.02,0-.04.02-.07.03-.02-.11-.06-.22-.12-.33-.16-.28-.4-.46-.63-.5.09-.21.07-.5-.09-.78-.16-.28-.41-.46-.64-.5.1-.21.08-.5-.08-.78-.16-.28-.41-.46-.65-.49.1-.21.08-.51-.07-.79-.16-.28-.41-.46-.66-.49.1-.21.09-.51-.06-.79-.16-.28-.42-.46-.67-.49.11-.21.1-.52-.06-.79-.16-.28-.42-.45-.68-.48.12-.22.11-.52-.05-.8-.16-.28-.42-.45-.68-.48.12-.22.12-.52-.04-.8-.16-.28-.43-.45-.69-.47.12-.22.13-.53-.03-.81-.16-.28-.43-.45-.7-.47.13-.22.13-.53-.02-.81-.16-.28-.43-.45-.71-.46.13-.23.14-.54-.01-.81-.16-.28-.44-.45-.72-.46.14-.23.15-.54,0-.82-.16-.28-.44-.44-.72-.46.14-.23.16-.55,0-.82-.16-.28-.44-.44-.73-.45.15-.23.17-.55,0-.83-.16-.28-.45-.44-.74-.45.15-.24.18-.55.02-.83-.16-.28-.45-.44-.75-.44.16-.24.18-.56.03-.83-.22-.4-.75-.56-1.15-.35-1.25.66-2.46,1.41-3.61,2.24-.37.27-.46.81-.2,1.19.18.26.48.38.76.35Z"/><path class="cls-11" d="M59.45,110.72c.37-.23.59-.59.67-.98.43-.39,1.1-.9,2.11-1.43,2.11-1.1,5.08-1.86,6.71-2.87.12-.08.22-.15.29-.23.1-.03.21-.08.33-.16,1.63-1.01,3.63-3.33,5.55-4.74.96-.7,1.74-1.08,2.28-1.29.38.1.8.05,1.16-.17.7-.43.91-1.35.48-2.05s-1.35-.91-2.05-.48c-.33.21-.55.52-.65.87-.57.48-1.44,1.21-2.2,1.88-1.25,1.1-5.98,3.71-5.98,3.71l-.62.39s-4.43,3.08-5.98,3.71c-.91.37-1.92.81-2.6,1.11-.36-.08-.75-.02-1.09.19-.7.43-.91,1.35-.48,2.05s1.35.91,2.05.48Z"/><path class="cls-11" d="M84.84,130.31c1.79-1.11,2.34-3.46,1.23-5.25s-3.46-2.34-5.25-1.23-2.34,3.46-1.23,5.25,3.46,2.34,5.25,1.23Z"/><path class="cls-9" d="M49.21,107.61l-1.25.82c-.74.48-1.3,1.22-1.57,2.08l-.38,1.2-.08.26-.05.13-.05-.13-.08-.26-.38-1.2c-.27-.86-.83-1.59-1.57-2.08l-1.25-.82,1.25-.89c.66-.47,1.15-1.14,1.41-1.91l.67-1.99h0s0,0,0,0l.67,1.99c.26.77.76,1.44,1.41,1.91l1.25.89Z"/><path class="cls-2" d="M54.04,104.99l-.83.54c-.49.32-.86.81-1.04,1.38l-.25.8-.06.18-.03.09-.04-.09-.06-.18-.25-.8c-.18-.57-.55-1.06-1.04-1.38l-.83-.54.83-.59c.44-.31.77-.76.94-1.27l.45-1.32h0s0,0,0,0l.45,1.32c.17.51.5.96.94,1.27l.83.59Z"/><path class="cls-2" d="M51.82,113.2l-.59.39c-.35.23-.61.58-.74.98l-.18.57-.04.12-.02.06-.03-.06-.04-.12-.18-.57c-.13-.41-.39-.75-.74-.98l-.59-.39.59-.42c.31-.22.54-.54.67-.91l.32-.94h0s0,0,0,0l.32.94c.12.37.36.68.67.91l.59.42Z"/><path class="cls-9" d="M44.72,26.52l-1.25.82c-.74.48-1.3,1.22-1.57,2.08l-.38,1.2-.08.26-.05.13-.05-.13-.08-.26-.38-1.2c-.27-.86-.83-1.59-1.57-2.08l-1.25-.82,1.25-.89c.66-.47,1.15-1.14,1.41-1.91l.67-1.99h0s0,0,0,0l.67,1.99c.26.77.76,1.44,1.41,1.91l1.25.89Z"/><path class="cls-2" d="M50.49,30.28l-.83.54c-.49.32-.86.81-1.04,1.38l-.25.8-.06.18-.03.09-.04-.09-.06-.18-.25-.8c-.18-.57-.55-1.06-1.04-1.38l-.83-.54.83-.59c.44-.31.77-.76.94-1.27l.45-1.32h0s0,0,0,0l.45,1.32c.17.51.5.96.94,1.27l.83.59Z"/><path class="cls-2" d="M45.64,38.7l-.59.39c-.35.23-.61.58-.74.98l-.18.57-.04.12-.02.06-.03-.06-.04-.12-.18-.57c-.13-.41-.39-.75-.74-.98l-.59-.39.59-.42c.31-.22.54-.54.67-.91l.32-.94h0s0,0,0,0l.32.94c.12.37.36.68.67.91l.59.42Z"/><path class="cls-2" d="M15.62,22.12l3.5.7.57,3.61s.05.03.06,0l.57-3.61,3.5-.7s.03-.05,0-.06l-3.5-.71-.57-3.44s-.05-.03-.06,0l-.57,3.44-3.5.71s-.03.05,0,.06Z"/><path class="cls-2" d="M58.78,47.96l2.26.45.37,2.33s.03.02.04,0l.37-2.33,2.26-.45s.02-.03,0-.04l-2.26-.46-.37-2.22s-.03-.02-.04,0l-.37,2.22-2.26.46s-.02.03,0,.04Z"/><path class="cls-8" d="M20.46,28.37l1.49.3.24,1.53s.02.01.03,0l.24-1.53,1.49-.3s.01-.02,0-.03l-1.49-.3-.24-1.46s-.02-.01-.03,0l-.24,1.46-1.49.3s-.01.02,0,.03Z"/><path class="cls-2" d="M21.84,56.48l3.5.7.57,3.61s.05.03.06,0l.57-3.61,3.5-.7s.03-.05,0-.06l-3.5-.71-.57-3.44s-.05-.03-.06,0l-.57,3.44-3.5.71s-.03.05,0,.06Z"/><path class="cls-2" d="M75.95,85.52l2.26.45.37,2.33s.03.02.04,0l.37-2.33,2.26-.45s.02-.03,0-.04l-2.26-.46-.37-2.22s-.03-.02-.04,0l-.37,2.22-2.26.46s-.02.03,0,.04Z"/><path class="cls-8" d="M77.25,76.95l1.49.3.24,1.53s.02.01.03,0l.24-1.53,1.49-.3s.01-.02,0-.03l-1.49-.3-.24-1.46s-.02-.01-.03,0l-.24,1.46-1.49.3s-.01.02,0,.03Z"/><path class="cls-2" d="M71.52,71.34l-1.79,1.17c-1.06.69-1.85,1.74-2.24,2.96l-.54,1.71-.12.38-.07.19-.08-.19-.12-.38-.54-1.71c-.39-1.23-1.18-2.27-2.24-2.96l-1.79-1.17,1.78-1.27c.94-.67,1.64-1.63,2.01-2.73l.96-2.83v.02s.01-.02.01-.02l.96,2.83c.37,1.1,1.08,2.06,2.01,2.73l1.78,1.27Z"/><path class="cls-8" d="M57.87,85.03l-3.98.79-.65,4.11s-.06.04-.07,0l-.65-4.11-3.98-.79s-.04-.06,0-.07l3.98-.81.65-3.92s.06-.04.07,0l.65,3.92,3.98.81s.04.06,0,.07Z"/><ellipse class="cls-8" cx="37.24" cy="80.6" rx=".45" ry=".46"/><ellipse class="cls-8" cx="26.95" cy="73.06" rx=".45" ry=".46"/><ellipse class="cls-2" cx="35.22" cy="79.07" rx=".29" ry=".3"/><ellipse class="cls-2" cx="36.13" cy="81.65" rx=".29" ry=".3"/><path class="cls-2" d="M28.29,79.28l1.71-2.59-1.78-2.54s.01-.05.04-.04l2.48,1.83,2.53-1.75s.05.01.04.04l-1.7,2.6,1.68,2.44s-.01.05-.04.04l-2.37-1.73-2.54,1.74s-.05-.01-.04-.04Z"/><path class="cls-2" d="M30.79,82.38l-.92-4.84-4.75-.79s-.05-.07,0-.08l4.75-.79.92-4.84s.07-.04.08,0l.93,4.84,4.53.79s.05.07,0,.08l-4.53.79-.93,4.84s-.07.04-.08,0Z"/><path class="cls-2" d="M40.96,72.78l-3.08.31-.31,3.24s-.05.03-.05,0l-.37-3.24-3.05-.31s-.03-.05,0-.05l3.05-.26.37-3.28s.04-.03.05,0l.31,3.28,3.08.26s.03.05,0,.05Z"/><ellipse class="cls-2" cx="37.51" cy="72.78" rx=".83" ry=".85"/><ellipse class="cls-8" cx="61.71" cy="54.75" rx=".45" ry=".46"/><ellipse class="cls-8" cx="48.88" cy="52.54" rx=".45" ry=".46"/><ellipse class="cls-2" cx="59.69" cy="53.23" rx=".29" ry=".3"/><ellipse class="cls-2" cx="60.6" cy="55.81" rx=".29" ry=".3"/><path class="cls-2" d="M52.76,53.44l1.71-2.59-1.78-2.54s.01-.05.04-.04l2.48,1.83,2.53-1.75s.05.01.04.04l-1.7,2.6,1.68,2.44s-.01.05-.04.04l-2.37-1.73-2.54,1.74s-.05-.01-.04-.04Z"/><path class="cls-2" d="M55.26,56.54l-.92-4.84-4.75-.79s-.05-.07,0-.08l4.75-.79.92-4.84s.07-.04.08,0l.93,4.84,4.53.79s.05.07,0,.08l-4.53.79-.93,4.84s-.07.04-.08,0Z"/><path class="cls-2" d="M37.21,39.3l-3.08.31-.31,3.24s-.05.03-.05,0l-.37-3.24-3.05-.31s-.03-.05,0-.05l3.05-.26.37-3.28s.04-.03.05,0l.31,3.28,3.08.26s.03.05,0,.05Z"/><ellipse class="cls-2" cx="33.76" cy="39.3" rx=".83" ry=".85"/></g></svg>