<?xml version="1.0" encoding="UTF-8"?><svg xmlns="http://www.w3.org/2000/svg" xmlns:xlink="http://www.w3.org/1999/xlink" viewBox="0 0 102.24 150.24"><defs><style>.cls-1{fill:url(#linear-gradient-7);}.cls-1,.cls-2,.cls-3,.cls-4,.cls-5,.cls-6,.cls-7,.cls-8,.cls-9,.cls-10{fill-rule:evenodd;}.cls-2{fill:url(#linear-gradient-8);}.cls-3{fill:url(#linear-gradient-3);}.cls-4{fill:url(#linear-gradient-9);}.cls-5{fill:url(#linear-gradient-6);}.cls-11{fill:none;stroke:#1e1e1c;stroke-miterlimit:10;stroke-width:.25px;}.cls-12{fill:#cb1525;}.cls-13{fill:url(#linear-gradient-5);}.cls-14{fill:url(#linear-gradient-4);}.cls-15{fill:url(#linear-gradient-2);}.cls-16{fill:#7cafce;}.cls-6{fill:#f7d498;}.cls-17{fill:url(#linear-gradient);}.cls-18{fill:#fff;}.cls-19{fill:url(#linear-gradient-10);}.cls-7{fill:url(#linear-gradient-11);}.cls-8{fill:#a9c8d2;}.cls-20{fill:#d4e3e8;}.cls-9,.cls-21{fill:#f6c008;}.cls-22{fill:#e5b520;}.cls-10{fill:#f7d499;}</style><linearGradient id="linear-gradient" x1="47.73" y1="97.26" x2="26.95" y2="133.76" gradientUnits="userSpaceOnUse"><stop offset="0" stop-color="#787992"/><stop offset=".24" stop-color="#78809a"/><stop offset=".62" stop-color="#7a94b0"/><stop offset="1" stop-color="#7cafce"/></linearGradient><linearGradient id="linear-gradient-2" x1="70.9" y1="98.12" x2="54.49" y2="126.95" xlink:href="#linear-gradient"/><linearGradient id="linear-gradient-3" x1="53.26" y1="15.86" x2="53.26" y2="38.32" gradientUnits="userSpaceOnUse"><stop offset="0" stop-color="#d4884b"/><stop offset=".25" stop-color="#d58b4e"/><stop offset=".47" stop-color="#da9659"/><stop offset=".68" stop-color="#e2a86b"/><stop offset=".88" stop-color="#eec185"/><stop offset="1" stop-color="#f7d498"/></linearGradient><linearGradient id="linear-gradient-4" x1="67.3" y1="37.16" x2="40.65" y2="83.96" xlink:href="#linear-gradient"/><linearGradient id="linear-gradient-5" x1="59.55" y1="23.85" x2="35.04" y2="49.95" xlink:href="#linear-gradient"/><linearGradient id="linear-gradient-6" x1="3029.31" y1="31.41" x2="3040.61" y2="31.41" gradientTransform="translate(3085.7) rotate(-180) scale(1 -1)" gradientUnits="userSpaceOnUse"><stop offset="0" stop-color="#f7d498"/><stop offset="1" stop-color="#e0a275"/></linearGradient><linearGradient id="linear-gradient-7" x1="3034.78" y1="24.31" x2="3037.06" y2="24.31" xlink:href="#linear-gradient-6"/><linearGradient id="linear-gradient-8" x1="3030.97" y1="22.75" x2="3034.69" y2="22.75" xlink:href="#linear-gradient-6"/><linearGradient id="linear-gradient-9" x1="2873.54" y1="-239.36" x2="2860.03" y2="-224.83" gradientTransform="translate(2910.5 -273.78) rotate(169.16) scale(1 -1)" gradientUnits="userSpaceOnUse"><stop offset="0" stop-color="#cb1525"/><stop offset=".25" stop-color="#d1262d"/><stop offset=".74" stop-color="#e35441"/><stop offset="1" stop-color="#ee6f4e"/></linearGradient><linearGradient id="linear-gradient-10" x1="-128.21" y1="76.24" x2="-136.29" y2="72.12" gradientTransform="translate(179.84 -39.57) rotate(3.79) scale(.91)" gradientUnits="userSpaceOnUse"><stop offset="0" stop-color="#787992"/><stop offset=".17" stop-color="#78809a"/><stop offset=".43" stop-color="#7b94b0"/><stop offset=".6" stop-color="#7da4c2"/><stop offset="1" stop-color="#787992"/></linearGradient><linearGradient id="linear-gradient-11" x1="6.22" y1="113.39" x2="9.6" y2="113.39" gradientTransform="translate(27.75 -49.37) rotate(2.02)" xlink:href="#linear-gradient-6"/></defs><g id="NOOOOO"><g id="margem"><polyline class="cls-11" points="31.32 141.14 10.38 141.14 10.38 75.95 10.38 9.1 31.32 9.1"/><polyline class="cls-11" points="70.92 9.1 91.86 9.1 91.86 141.14 70.92 141.14"/><line class="cls-11" x1="61.02" y1="141.14" x2="41.22" y2="141.14"/><line class="cls-11" x1="41.22" y1="9.1" x2="61.02" y2="9.1"/></g></g><g id="ESPADA"><path class="cls-21" d="M48.14,20.09s0,0-.01,0c-.02,0-.03,0-.05,0-.83-2.27,1.13-3.12,3.16-3.33,2.04-.22,3.27.29,4.8-1.43.01.74-.32,1.35-.94,1.71,1.3.82-.98,1.58-1.78,1.61.25.08.38.14.69.18-1.14,1.6-4.34-.16-5.86,1.27Z"/><path class="cls-17" d="M44.36,103.86c-2.47,8.39-3.95,20.74-3.95,20.74,0,0,.49,3.79.33,5.43-.17,1.64-1.61,5.62-3.65,6.34-1.57.55-3.27-1.24-3.43-4.53-.12-2.35,2.65-5.03,3.13-6.75,1.98-7.08-4.28-13.83,2.63-26.01,1.56-2.74,2.47-9.63,2.93-14.46,2.31.86,6.65,2.35,10,2.83-3.35,6.04-6.98,12.97-7.99,16.4Z"/><path class="cls-15" d="M73.99,129.37s-.82.49-3.62.49-3.95-.49-6.25-.99c-2.31-.49-5.1-.49-5.1-1.81s.77-1.5,1.27-4.63c.49-3.13-4.26-18-3.05-25.59.34-2.14-.34-5.76-1.24-9.23,5.17-.15,8.15-1.6,9.44-2.42-.2,2.87-.47,5.48-.69,7.15-.57,4.41-.79,6.75-1.45,12.51-.66,5.76-.82,15.72,2.14,18.35,2.96,2.63,8.56,6.17,8.56,6.17Z"/><path class="cls-3" d="M48.5,30.89c1.22.68,2.52,1.55,3.96,1.67,2.76.23,5.26-.45,7.65-1.6.21-1.28-.05-2.2-.23-3.36-.22-1.44-1.86-3.38-2.01-3.86-.01-.07-.18-1.81-.19-1.88-.2-1.63.24-3-1.09-4.2-1.28-1.15-3.56-2.18-5.31-1.65-2.08.63-3.2,5.05-3.2,5.05-.29.94-.52,1.21-.86,2.17-.43,1.24-.9,3.75-.9,5.13,0,.56.03,1.09.05,1.6.73.23,1.43.56,2.12.94Z"/><path class="cls-14" d="M66.59,63.1c-.94-.34-3.46-.61-3.46-.61,0,0,3.57,2.12,3.36,10.17-.1,3.67-.28,11.96-.28,11.96,0,0-.25.24-.78.58-1.29.83-4.27,2.27-9.44,2.42-.65.02-1.34.02-2.07,0-.49-.02-1.02-.07-1.57-.15-3.34-.48-7.68-1.98-10-2.83-1-.37-1.62-.62-1.62-.62,0,0,3.65-13.34,4.64-17.08.46-1.74,1.63-5.71,1.63-5.71,0,0-3.06-1.75-2.97-2.75.64-6.99-2.41-21.76-2.41-21.76,0,0,1.63-1.53,3.36-1.53s16.61.1,16.61.1c0,0,2.16.03,2.98.34.82.31,1.81,3.23,2.32,7.3.51,4.08,1.7,4.38,2,4.79.31.41,2.67,6.8,2.81,7.5.56,2.82-2.45,8.85-5.12,7.88Z"/><path class="cls-13" d="M44.9,45.86c.46-.73.44-1.69.39-2.64-.06-.97-.09-1.95-.2-2.91-.09-.83-.44-2.18-.99-3.22l-.88-.64s-1.09-1.92-4.27,2.53c-3.18,4.45-5.72,8.68-6.99,9.95-1.27,1.27-5.08,4.45-5.93,5.93-.85,1.48-2.28,2.81-1.75,4.38.68,2.01,5.98,2.82,5.98,2.82,0,0,2.96-7.84,6.14-10.38,2.25-1.8,6.1-3.92,8.15-5,.05-.27.16-.54.33-.82Z"/><path class="cls-10" d="M44.21,35.62s3.72,2.11,8.26,2.53c4.54.42,10.09-2.53,10.09-2.53,0,0-1.44-.46-2.83-.74-1.39-.28-3.29-1.9-3.57-2.59-.19-.47-.19-3.37-.16-5.2,0-.13,0-.26,0-.37,0-.68.02-1.15.02-1.15,0,0,0,0-.01,0-.01.09-.03.19-.05.27-.06.28-.17.59-.34.91-.7,1.38-2.25,2.86-3.15,2.89-1.11.05-2.21.21-2.58-.42-.03-.05-.06-.11-.09-.17.1,1.12.18,2.99-.22,3.65-.16.26-3.01,1.73-4.49,2.47-.53.27-.88.45-.88.45Z"/><path class="cls-5" d="M52.34,34.47c-.29-.46,2.74-6.39,3.64-7.37,0-.13,0-.26,0-.39-.11.01-.23.02-.36.04-.7,1.38-2.25,2.86-3.15,2.89-1.11.05-2.21.21-2.58-.42-.03-.05-.06-.11-.09-.17.1,1.12.18,2.99-.22,3.65-.16.26-3.01,1.73-4.49,2.47,1.3.33,3.94.93,5.06.68,1.48-.33,3.72.23,3.83.25-.08-.07-1.35-1.19-1.64-1.64Z"/><path class="cls-6" d="M57.02,24.39c-.09.66-.64,1.28-.99,1.82-.07.02-.13.03-.19.03-.55,1.49-2.46,3.41-3.45,3.63-.77.17-1.34.14-1.77-.03-.17-.06-.32-.15-.44-.26-.12-.1-.22-.22-.29-.35-.77-1.3-1.77-4.59-1.46-5.37.3-.79.05-1.81.05-1.81,0,0-.1-.97,0-1.39.08-.34.82-1.67,2.36-1.91.32-.05.68-.06,1.08.01,2.27.37,4.14,2.92,4.14,2.92,0,0,.07.89.07,1.93.22,0,.33-.31.57-.23.33.1.37.75.33,1.02Z"/><path class="cls-6" d="M56.06,21.67s.2,2.64-.1,4.17c-.3,1.53-2.48,3.79-3.57,4.03-1.37.3-2.13-.02-2.5-.65-.77-1.3-1.77-4.59-1.47-5.37.3-.79.05-1.81.05-1.81,0,0-.1-.97,0-1.39.1-.42,1.16-2.27,3.44-1.9,2.28.37,4.15,2.92,4.15,2.92Z"/><path class="cls-6" d="M49.89,29.22c.08.13.18.25.29.35.43.38,1.13.53,2.21.29,1.09-.24,3.26-2.5,3.57-4.03.3-1.53.1-4.17.1-4.17,0,0-1.87-2.55-4.15-2.92-.4-.07-.76-.06-1.08,0-1.54.24-2.28,1.56-2.36,1.91-.1.42,0,1.39,0,1.39,0,0,.25,1.02-.05,1.81-.3.79.69,4.08,1.47,5.37Z"/><path class="cls-1" d="M50.16,29.31c.08.13.18.25.29.35.12.11.27.2.44.26.14-1.7-.45-3.51-.45-3.51,0,0-.68-.2-.86-.48-.19-.28.74-2.48.67-4.01-.01-.33.36-2.77.44-3.24-1.54.24-1.87,1.71-1.95,2.06-.1.42,0,1.39,0,1.39,0,0,.25,1.02-.05,1.81-.3.79.69,4.08,1.47,5.37Z"/><path class="cls-2" d="M51.57,22.28c.91-.66,2.8-.2,3.16.85-.34-.18-.76-.28-1.14-.26.11.09.38.47.47.55-.73.17-1.39.1-2.09-.04.32-.05-1.21-.24-.91-.37-.04-.56.75-.57.28-.5.02-.16.11-.13.19-.19l.05-.05Z"/><path class="cls-21" d="M63.92,61.87c-.23.09-.52.19-.85.3-.16.05-.34.1-.52.16-.19.05-.38.11-.58.15-.21.04-.41.11-.63.14-.22.04-.44.09-.68.12-.12.02-.23.04-.35.06-.12.01-.24.03-.37.04-.24.03-.5.05-.75.06-.26.02-.51.02-.76.02h-.19s-.21,0-.21,0c-.14,0-.28,0-.42-.01h-.19s-.2-.02-.2-.02c-.14-.01-.27-.02-.41-.03-.27-.01-.55-.06-.82-.09-.55-.06-1.1-.15-1.65-.23-.51-.08-1.01-.17-1.5-.26.14.01.28.03.42.04.51.04,1.04.08,1.56.1.53.02,1.04.04,1.58.03.5,0,1.05-.03,1.55-.08.25-.02.5-.05.74-.08.24-.03.47-.07.7-.11.11-.02.22-.04.34-.06.11-.02.22-.05.32-.07.21-.05.41-.1.61-.15.39-.1.74-.22,1.04-.34.31-.11.57-.23.78-.33.21-.1.37-.19.48-.25.11-.06.16-.1.16-.1,0,0-.07,0-.19.03-.12.02-.3.03-.53.06-.23.03-.51.04-.82.07-.32.02-.67.04-1.06.06-.77.03-1.67.04-2.62.02-.24,0-.48-.02-.72-.02-.24,0-.49-.02-.75-.04-.12,0-.25-.01-.38-.02l-.39-.03c-.26-.02-.52-.03-.78-.05-.52-.03-1.04-.06-1.55-.07-.51-.02-1.02-.03-1.5-.04-.49,0-.96,0-1.41,0-.45,0-.87.01-1.27.03-.39.01-.75.03-1.08.05-.32.02-.6.05-.83.07-.46.04-.73.08-.73.08,0,0,.22.08.62.2-.08-.01-.13-.02-.13-.02,0,0,.06.04.18.11.12.07.29.18.52.29.22.12.5.27.82.42.32.16.69.32,1.09.49.4.17.84.34,1.32.51.47.17.97.34,1.5.48.26.08.53.15.81.22.27.07.55.14.84.19.57.12,1.15.22,1.74.29.6.07,1.17.12,1.79.11.14,0,.28,0,.42,0h.21s.23-.03.23-.03c.3-.03.6-.05.88-.1.28-.05.56-.09.82-.16.13-.03.26-.07.39-.1.13-.04.25-.08.38-.12.49-.15.95-.35,1.35-.54.2-.1.39-.2.57-.3.17-.11.34-.2.49-.31.3-.2.55-.4.75-.56.2-.16.34-.31.44-.41.1-.1.14-.16.14-.16,0,0-.26.13-.73.31Z"/><path class="cls-12" d="M64.04,40.63s-.09,0-.25,0c-.16,0-.4,0-.7-.01-.3,0-.67-.03-1.09-.03-7.68-.09-16.26-2.98-17.6-3.66-.22-.12-.4-.21-.51-.28-.12-.07-.17-.1-.17-.1,0,0,.21.16.64.41.22.12.48.27.81.43.32.16.69.34,1.11.52.21.09.44.18.67.27.23.09.48.18.73.28.26.09.52.18.79.28.28.09.56.18.84.27.29.09.59.17.89.26.3.08.61.16.92.25.32.08.64.15.96.23.16.04.33.07.49.1l.5.1.25.05.25.04c.17.03.34.05.5.08.33.06.67.1,1,.14.17.02.33.05.5.06.17.02.33.04.5.05.16.02.33.03.49.05.16.01.33.03.49.04.64.06,1.27.1,1.86.13.3.01.59.03.86.04.28,0,.55.02.81.03.26,0,.51,0,.74.02.24,0,.46,0,.67,0,.42,0,.79,0,1.09,0,.3,0,.54-.01.7-.02.16,0,.25,0,.25,0Z"/><path class="cls-4" d="M70.39,50.27c.06-.25.46-4.07.41-4.34-.05-.28-1.47-.05-1.47-.05,0,0-1.28-1.02-1.5-1.92-.58-2.46-.77-7.25-2.88-8.63-1.61-1.05-6.27,1.26-8.25,1.37-4.64.27-6.01.43-10.56-.5-.22-.04-.42-.13-.6-.24-.68-.05-1.09-.1-1.21-.1-.45,0-2.26.53-2.26.53,0,0,.19,6.8,6.15,11.35,14.8,11.29,20.88,6.34,22.08,6.11,1.19-.23,1.63-2.66,1.68-3,.05-.34-1.64-.31-1.57-.56Z"/><path class="cls-12" d="M69.33,45.87s-.14-.01-.39-.04c-.25-.03-.63-.07-1.1-.13-.47-.05-1.02-.14-1.69-.21-12.09-1.34-21.22-6.84-22.29-8.03-.17-.21-.3-.37-.38-.48-.08-.11-.11-.18-.11-.18,0,0,.07.27.36.7.15.21.34.47.6.75.25.28.58.59.96.92.19.16.41.33.63.5.23.17.48.34.73.51.27.17.54.34.83.52.3.17.61.34.92.52.33.17.67.34,1.01.51.36.16.71.33,1.08.5.39.16.79.32,1.18.48.19.08.42.15.63.22l.64.22.32.11.34.1c.22.06.45.13.68.19.44.13.92.24,1.38.36.23.06.46.12.69.17.24.05.47.1.71.15.23.05.47.1.7.15.24.05.47.09.71.14.93.19,1.87.34,2.76.48.45.07.88.14,1.31.19.43.06.85.11,1.25.16.41.05.79.09,1.16.14.37.04.73.08,1.06.11.67.07,1.26.12,1.75.16.49.04.88.07,1.15.09.27.02.41.03.41.03Z"/><path class="cls-12" d="M69.97,50.4s-.17-.02-.49-.06c-.32-.04-.78-.1-1.37-.17-.29-.04-.62-.08-.97-.13-3.98-.54-16.9-3.34-22.44-8.76-.37-.36-.57-.77-.83-1.16-.6-.93-1-1.73-1.24-2.3-.12-.28-.21-.51-.27-.66-.05-.16-.08-.24-.08-.24,0,0,.02.09.05.25.04.16.09.39.18.68.19.58.48,1.41,1,2.36.26.48.58.99.96,1.51.39.52.83,1.07,1.37,1.6.54.54,1.15,1.08,1.87,1.58.72.51,1.54,1,2.47,1.44.12.05.23.11.35.16l.37.15c.13.05.24.1.38.15l.39.14c.26.09.52.19.78.28.26.09.54.17.81.26.27.08.54.17.82.25.28.08.56.15.84.23.55.16,1.13.29,1.69.42.14.03.28.07.42.1.14.03.29.06.43.09.28.06.57.12.84.18.56.12,1.13.22,1.67.32.55.1,1.09.19,1.61.28.53.08,1.04.16,1.54.24.5.07.98.14,1.43.2.46.06.9.11,1.31.17.42.05.81.09,1.17.14.36.04.7.07,1,.11.61.06,1.09.1,1.42.13.33.03.51.04.51.04Z"/><path class="cls-9" d="M41.08,36.49c.13.61,1.16.9,2.29.66,1.14-.24,1.96-.93,1.83-1.54-.13-.61-1.16-.9-2.29-.66-1.14.24-1.96.93-1.83,1.54Z"/><path class="cls-10" d="M26.74,58.2c-.4.37-.87.28-1.63.45-.31.07-.54.21-.7.36.51-.16,2.14-.23,3.23.02,1.16.27,1.34.62,1.36,1.07.02.45-.07.8-.07.8,0,0,.38.27.47.6.03.11.04.2.04.28.07.05.13.09.17.1.37.15.66-.29.66-.29,0,0-.13-.88-.12-1.21.01-.32.17-.64.22-1.04.04-.4-.41-.63-.89-.91-.48-.28-.81-.83-1.28-.94-.47-.1-1.06.35-1.46.72Z"/><path class="cls-9" d="M26.03,57.66c-.12.08-.2.22-.19.37,0,.15.09.27.22.33-.12.08-.19.22-.19.37,0,.15.09.28.21.33-.11.08-.19.22-.18.37,0,.15.09.28.21.33-.11.08-.19.22-.18.37,0,.15.09.28.2.33-.11.08-.18.21-.17.37,0,.15.09.28.2.33-.11.08-.18.21-.17.37,0,.15.09.28.19.33-.1.08-.17.21-.17.37,0,.15.08.28.19.34-.1.08-.17.21-.16.37,0,.15.08.28.19.34-.1.08-.16.21-.16.37,0,.15.08.28.18.34-.1.08-.16.21-.15.36,0,.15.08.28.18.34-.09.07-.15.21-.15.36,0,.15.08.28.17.34-.09.07-.15.21-.14.36,0,.15.07.28.17.34-.09.07-.15.21-.14.36,0,.15.07.28.16.34-.09.07-.14.21-.14.36,0,.15.07.28.16.34-.08.07-.14.21-.13.36,0,.07.02.13.04.18-.03,0-.05,0-.08.02-.63.16-.76,1.07-.36,1.6.42.52,1.39.69,1.39.69,0,0,.92-.2,1.33-.74.39-.54.23-1.45-.41-1.59-.01,0-.02,0-.03,0,.02-.05.03-.1.03-.16,0-.15-.05-.29-.13-.36.09-.06.15-.19.16-.34,0-.15-.05-.29-.14-.36.09-.06.16-.18.16-.34,0-.15-.05-.29-.14-.36.09-.06.16-.18.17-.34,0-.15-.05-.29-.14-.36.1-.06.17-.18.17-.34,0-.15-.05-.29-.15-.36.1-.06.17-.18.18-.34,0-.15-.06-.29-.15-.36.1-.06.18-.18.18-.34,0-.15-.06-.29-.16-.37.1-.06.18-.18.19-.34,0-.15-.06-.29-.16-.37.11-.06.18-.18.19-.34,0-.15-.06-.29-.17-.37.11-.06.19-.18.19-.33,0-.15-.06-.29-.17-.37.11-.06.19-.18.2-.33,0-.15-.07-.29-.17-.37.11-.06.2-.18.2-.33,0-.15-.07-.29-.18-.37.12-.06.2-.18.21-.33,0-.15-.07-.29-.18-.37.12-.06.21-.18.21-.33,0-.15-.07-.29-.19-.37.12-.06.21-.18.22-.33,0-.15-.07-.29-.19-.37.12-.06.21-.18.22-.33,0-.22-.16-.42-.38-.43-.67-.05-1.35-.05-2.03,0-.22.01-.39.21-.38.43,0,.15.1.27.22.33Z"/><path class="cls-8" d="M26.38,55.43c-.01.33-.36.46-.36.46l1.17.26h0s0,0,0,0l1.17-.26s-.36-.13-.37-.46c0-1.04.73-1.19.73-1.19,0,0-.29-35.95-.51-36.68-.22-.73-1.02-2.91-1.02-2.91v.05s0-.05,0-.05c0,0-.8,2.18-1.02,2.91-.22.73-.51,36.68-.51,36.68,0,0,.76.08.73,1.19Z"/><polygon class="cls-16" points="26.88 56.15 27.2 18.35 27.53 56.15 26.88 56.15"/><path class="cls-22" d="M21.85,56.85c.21,0,.39-.09.52-.23.27-.05.67-.09,1.21-.05,1.13.09,2.53.52,3.44.52.07,0,.13,0,.17-.02.05.01.11.02.17.02.91,0,2.31-.44,3.44-.52.56-.04.98,0,1.25.05.13.14.31.22.51.22.39,0,.71-.32.71-.71s-.32-.71-.71-.71c-.19,0-.36.07-.48.19-.35.05-.89.13-1.37.21-.78.13-3.36,0-3.36,0h-.35s-2.57.13-3.35,0c-.46-.08-.98-.15-1.33-.2-.13-.12-.3-.2-.49-.2-.39,0-.71.32-.71.71s.32.71.71.71Z"/><path class="cls-22" d="M27.22,71.18c1,0,1.82-.81,1.82-1.82s-.81-1.82-1.82-1.82-1.82.81-1.82,1.82.81,1.82,1.82,1.82Z"/><path class="cls-19" d="M57.99,23.82c.09-5.51-.99-9.65-3.77-9.83-2.49-.17-5.39,2.79-6.31,7.41,1.57-1.65,6.87.14,10.09,2.42Z"/><path class="cls-21" d="M54.29,20.85s0,0-.01,0c-.02,0-.03,0-.05,0-.49-2.37,1.57-2.92,3.61-2.84,2.05.08,3.19.76,4.96-.72-.1.74-.52,1.29-1.18,1.56,1.16,1-1.19,1.42-2,1.34.23.11.35.2.65.28-1.36,1.41-4.27-.79-5.98.4Z"/><path class="cls-20" d="M81.1,69.11c0,11.2-5.3,20.28-11.83,20.28s-11.83-9.08-11.83-20.28,5.3-20.28,11.83-20.28,11.83,9.08,11.83,20.28Z"/><path class="cls-18" d="M73.92,68.68c0,.77-.36,1.4-.8,1.4s-.8-.63-.8-1.4.36-1.4.8-1.4.8.63.8,1.4Z"/><path class="cls-10" d="M27.85,64.14s.11.22.09.57c-.02.35.06.36.21.77.15.41.35.86.34,1.16,0,.3.32.42.47.49.15.07.72.29,1.02.32.3.03,1.77-.01,2.18-.17.41-.16.56-.32.61-.46.05-.14.06-.24.04-.45-.02-.21-.14-.38-.14-.38,0,0,.48-.18.53-.37.05-.2.16-.33.1-.55-.06-.22-.28-.55-.28-.55,0,0,.15-.07.22-.29s.18-.34.12-.68c-.06-.34-.41-.66-.41-.66,0,0,.13-.35.16-.81.03-.46-.11-.83-1.26-1.23-1.15-.4-2.97-.49-3.36-.33-.4.15-.63.67-.66.96-.03.29.2.5.15.82-.05.33-.12.36-.21.87-.09.51.1.96.1.96Z"/><path class="cls-7" d="M30.33,66.07c.07-.03.15-.05.23-.06-.08.02-.15.04-.23.06ZM32.24,66.06c-.08-.01-.17-.02-.26-.02.09.01.18.02.26.02ZM30.56,66.02c.17-.01.34.03.51.04.24.03.6-.03.91-.02-.23-.03-.47-.09-.69-.1-.25-.01-.49.02-.73.08ZM31.25,64.6c-.38-.04-.76-.11-1.14-.2.27.15.7.2,1.14.2ZM32.99,61.55c0,.33-.05.52-.06.77-.02.42-.08.65-.52.66-.29,0-.58,0-.87-.03.16.03.31.06.45.09.37.08,1.4.45,1.07,1.07-.09.16-.36.37-.55.4-.32.05-.8.1-1.27.1.26.03.53.05.8.06.38.01.83.01.97.44.13.39-.11.81-.48.92-.1.03-.19.04-.3.04.06.01.1.02.15.04.35.16.4.56.26.89.07-.06.1-.12.12-.18.05-.14.06-.24.04-.45-.02-.21-.14-.38-.14-.38,0,0,.48-.18.53-.37.05-.2.16-.33.1-.55-.06-.22-.28-.55-.28-.55,0,0,.15-.07.22-.29s.18-.34.12-.68c-.06-.34-.41-.66-.41-.66,0,0,.13-.35.16-.81.01-.19,0-.36-.11-.53ZM31.55,62.94c-.6-.12-1.29-.25-1.52-.26.5.11,1.01.21,1.52.26Z"/></g></svg>