<?xml version="1.0" encoding="UTF-8"?><svg xmlns="http://www.w3.org/2000/svg" viewBox="0 0 102.24 150.24"><defs><style>.cls-1{fill:none;stroke:#1e1e1c;stroke-miterlimit:10;stroke-width:.25px;}.cls-2{fill:#7cafce;}.cls-3{fill:#a9c8d2;}.cls-3,.cls-4{fill-rule:evenodd;}.cls-4{fill:#f6c008;}.cls-5{fill:#e5b520;}</style></defs><g id="NOOOOO"><g id="margem"><polyline class="cls-1" points="31.32 141.14 10.38 141.14 10.38 75.95 10.38 9.1 31.32 9.1"/><polyline class="cls-1" points="70.92 9.1 91.86 9.1 91.86 141.14 70.92 141.14"/><line class="cls-1" x1="61.02" y1="141.14" x2="41.22" y2="141.14"/><line class="cls-1" x1="41.22" y1="9.1" x2="61.02" y2="9.1"/></g></g><g id="ESPADA"><path class="cls-4" d="M79.47,107.59c-.13.08-.22.23-.21.4,0,.17.1.3.24.36-.13.08-.21.23-.2.4,0,.17.1.3.23.36-.12.08-.21.23-.2.4,0,.17.1.3.23.36-.12.08-.2.23-.19.4,0,.17.1.3.22.36-.12.08-.2.23-.19.4,0,.17.09.3.22.36-.12.08-.19.23-.18.4,0,.17.09.3.21.36-.11.08-.19.23-.18.4,0,.17.09.3.21.36-.11.08-.18.23-.18.4,0,.17.09.3.2.36-.11.08-.18.23-.17.4,0,.17.09.3.2.36-.1.08-.17.23-.17.4,0,.17.09.3.19.36-.1.08-.17.23-.16.4,0,.17.08.3.19.37-.1.08-.16.23-.16.4,0,.17.08.3.18.37-.1.08-.16.23-.15.39,0,.17.08.3.18.37-.09.08-.15.23-.15.39,0,.16.08.3.17.37-.09.08-.15.23-.14.39,0,.07.02.14.04.2-.03,0-.06.01-.09.02-.68.17-.83,1.16-.39,1.74.46.56,1.5.75,1.5.75,0,0,1-.22,1.45-.8.43-.59.25-1.58-.44-1.72-.01,0-.02,0-.04,0,.02-.05.03-.11.03-.18,0-.16-.05-.31-.14-.39.1-.07.17-.2.17-.37,0-.17-.05-.31-.15-.39.1-.07.17-.2.18-.37,0-.16-.05-.31-.15-.39.1-.06.18-.2.18-.37,0-.17-.06-.31-.16-.4.1-.06.18-.2.19-.37,0-.17-.06-.31-.16-.4.11-.06.19-.2.19-.36,0-.16-.06-.31-.17-.4.11-.06.19-.2.2-.36,0-.17-.06-.32-.17-.4.11-.06.2-.2.2-.36,0-.16-.06-.31-.18-.4.12-.06.2-.2.21-.36,0-.17-.07-.32-.18-.4.12-.06.2-.2.21-.36,0-.17-.07-.32-.18-.4.12-.06.21-.2.22-.36,0-.16-.07-.32-.19-.4.12-.06.21-.2.22-.36,0-.17-.07-.32-.19-.4.13-.06.22-.2.23-.36,0-.17-.07-.32-.2-.4.13-.06.22-.2.23-.36,0-.17-.08-.32-.2-.4.13-.06.23-.2.24-.36,0-.17-.08-.32-.21-.4.14-.06.23-.2.24-.36.01-.24-.17-.45-.41-.47-.73-.05-1.47-.05-2.2,0-.24.02-.42.23-.41.47,0,.17.11.3.24.36Z"/><path class="cls-3" d="M79.84,105.17c-.01.36-.4.5-.4.5l1.27.29h0s0,0,0,0l1.27-.29s-.39-.14-.4-.5c0-1.13.79-1.29.79-1.29,0,0-.32-39.02-.55-39.81-.24-.79-1.11-3.16-1.11-3.16v.06s0-.06,0-.06c0,0-.87,2.37-1.11,3.16-.24.79-.55,39.81-.55,39.81,0,0,.83.09.79,1.29Z"/><polygon class="cls-2" points="80.39 105.96 80.74 64.93 81.09 105.96 80.39 105.96"/><path class="cls-5" d="M74.93,106.71c.22,0,.42-.1.56-.25.3-.06.73-.1,1.32-.05,1.23.09,2.74.57,3.74.57.07,0,.14,0,.19-.02.05.01.11.02.19.02.99,0,2.51-.47,3.74-.57.61-.05,1.06,0,1.36.06.14.15.34.24.56.24.42,0,.77-.34.77-.77s-.34-.77-.77-.77c-.2,0-.39.08-.52.21-.38.05-.97.14-1.48.23-.85.14-3.64,0-3.64,0h-.38s-2.79.14-3.64,0c-.5-.08-1.06-.17-1.45-.22-.14-.13-.32-.21-.53-.21-.42,0-.77.34-.77.77s.34.77.77.77Z"/><path class="cls-5" d="M80.76,122.26c1.09,0,1.97-.88,1.97-1.97s-.88-1.97-1.97-1.97-1.97.88-1.97,1.97.88,1.97,1.97,1.97Z"/><path class="cls-4" d="M55.99,107.59c-.13.08-.22.23-.21.4,0,.17.1.3.24.36-.13.08-.21.23-.2.4,0,.17.1.3.23.36-.12.08-.21.23-.2.4,0,.17.1.3.23.36-.12.08-.2.23-.19.4,0,.17.1.3.22.36-.12.08-.2.23-.19.4,0,.17.09.3.22.36-.12.08-.19.23-.18.4,0,.17.09.3.21.36-.11.08-.19.23-.18.4,0,.17.09.3.21.36-.11.08-.18.23-.18.4,0,.17.09.3.2.36-.11.08-.18.23-.17.4,0,.17.09.3.2.36-.1.08-.17.23-.17.4,0,.17.09.3.19.36-.1.08-.17.23-.16.4,0,.17.08.3.19.37-.1.08-.16.23-.16.4,0,.17.08.3.18.37-.1.08-.16.23-.15.39,0,.17.08.3.18.37-.09.08-.15.23-.15.39,0,.16.08.3.17.37-.09.08-.15.23-.14.39,0,.07.02.14.04.2-.03,0-.06.01-.09.02-.68.17-.83,1.16-.39,1.74.46.56,1.5.75,1.5.75,0,0,1-.22,1.45-.8.43-.59.25-1.58-.44-1.72-.01,0-.02,0-.04,0,.02-.05.03-.11.03-.18,0-.16-.05-.31-.14-.39.1-.07.17-.2.17-.37,0-.17-.05-.31-.15-.39.1-.07.17-.2.18-.37,0-.16-.05-.31-.15-.39.1-.06.18-.2.18-.37,0-.17-.06-.31-.16-.4.1-.06.18-.2.19-.37,0-.17-.06-.31-.16-.4.11-.06.19-.2.19-.36,0-.16-.06-.31-.17-.4.11-.06.19-.2.2-.36,0-.17-.06-.32-.17-.4.11-.06.2-.2.2-.36,0-.16-.06-.31-.18-.4.12-.06.2-.2.21-.36,0-.17-.07-.32-.18-.4.12-.06.2-.2.21-.36,0-.17-.07-.32-.18-.4.12-.06.21-.2.22-.36,0-.16-.07-.32-.19-.4.12-.06.21-.2.22-.36,0-.17-.07-.32-.19-.4.13-.06.22-.2.23-.36,0-.17-.07-.32-.2-.4.13-.06.22-.2.23-.36,0-.17-.08-.32-.2-.4.13-.06.23-.2.24-.36,0-.17-.08-.32-.21-.4.14-.06.23-.2.24-.36.01-.24-.17-.45-.41-.47-.73-.05-1.47-.05-2.2,0-.24.02-.42.23-.41.47,0,.17.11.3.24.36Z"/><path class="cls-3" d="M56.37,105.17c-.01.36-.4.5-.4.5l1.27.29h0s0,0,0,0l1.27-.29s-.39-.14-.4-.5c0-1.13.79-1.29.79-1.29,0,0-.32-39.02-.55-39.81-.24-.79-1.11-3.16-1.11-3.16v.06s0-.06,0-.06c0,0-.87,2.37-1.11,3.16-.24.79-.55,39.81-.55,39.81,0,0,.83.09.79,1.29Z"/><polygon class="cls-2" points="56.91 105.96 57.26 64.93 57.62 105.96 56.91 105.96"/><path class="cls-5" d="M51.46,106.71c.22,0,.42-.1.56-.25.3-.06.73-.1,1.32-.05,1.23.09,2.74.57,3.74.57.07,0,.14,0,.19-.02.05.01.11.02.19.02.99,0,2.51-.47,3.74-.57.61-.05,1.06,0,1.36.06.14.15.34.24.56.24.42,0,.77-.34.77-.77s-.34-.77-.77-.77c-.2,0-.39.08-.52.21-.38.05-.97.14-1.48.23-.85.14-3.64,0-3.64,0h-.38s-2.79.14-3.64,0c-.5-.08-1.06-.17-1.45-.22-.14-.13-.32-.21-.53-.21-.42,0-.77.34-.77.77s.34.77.77.77Z"/><path class="cls-5" d="M57.28,122.26c1.09,0,1.97-.88,1.97-1.97s-.88-1.97-1.97-1.97-1.97.88-1.97,1.97.88,1.97,1.97,1.97Z"/><path class="cls-4" d="M46.83,41.73c.13-.08.22-.23.21-.4,0-.17-.1-.3-.24-.36.13-.08.21-.23.2-.4,0-.17-.1-.3-.23-.36.12-.08.21-.23.2-.4,0-.17-.1-.3-.23-.36.12-.08.2-.23.19-.4,0-.17-.1-.3-.22-.36.12-.08.2-.23.19-.4,0-.17-.09-.3-.22-.36.12-.08.19-.23.18-.4,0-.17-.09-.3-.21-.36.11-.08.19-.23.18-.4,0-.17-.09-.3-.21-.36.11-.08.18-.23.18-.4,0-.17-.09-.3-.2-.36.11-.08.18-.23.17-.4,0-.17-.09-.3-.2-.36.1-.08.17-.23.17-.4,0-.17-.09-.3-.19-.36.1-.08.17-.23.16-.4,0-.17-.08-.3-.19-.37.1-.08.16-.23.16-.4,0-.17-.08-.3-.18-.37.1-.08.16-.23.15-.39,0-.17-.08-.3-.18-.37.09-.08.15-.23.15-.39,0-.16-.08-.3-.17-.37.09-.08.15-.23.14-.39,0-.07-.02-.14-.04-.2.03,0,.06-.01.09-.02.68-.17.83-1.16.39-1.74-.46-.56-1.5-.75-1.5-.75,0,0-1,.22-1.45.8-.43.59-.25,1.58.44,1.72.01,0,.02,0,.04,0-.02.05-.03.11-.03.18,0,.16.05.31.14.39-.1.07-.17.2-.17.37,0,.17.05.31.15.39-.1.07-.17.2-.18.37,0,.16.05.31.15.39-.1.06-.18.2-.18.37,0,.17.06.31.16.4-.1.06-.18.2-.19.37,0,.17.06.31.16.4-.11.06-.19.2-.19.36,0,.16.06.31.17.4-.11.06-.19.2-.2.36,0,.17.06.32.17.4-.11.06-.2.2-.2.36,0,.16.06.31.18.4-.12.06-.2.2-.21.36,0,.17.07.32.18.4-.12.06-.2.2-.21.36,0,.17.07.32.18.4-.12.06-.21.2-.22.36,0,.16.07.32.19.4-.12.06-.21.2-.22.36,0,.17.07.32.19.4-.13.06-.22.2-.23.36,0,.17.07.32.2.4-.13.06-.22.2-.23.36,0,.17.08.32.2.4-.13.06-.23.2-.24.36,0,.17.08.32.21.4-.14.06-.23.2-.24.36-.01.24.17.45.41.47.73.05,1.47.05,2.2,0,.24-.02.42-.23.41-.47,0-.17-.11-.3-.24-.36Z"/><path class="cls-3" d="M46.45,44.14c.01-.36.4-.5.4-.5l-1.27-.29h0s0,0,0,0l-1.27.29s.39.14.4.5c0,1.13-.79,1.29-.79,1.29,0,0,.32,39.02.55,39.81.24.79,1.11,3.16,1.11,3.16v-.06s0,.06,0,.06c0,0,.87-2.37,1.11-3.16.24-.79.55-39.81.55-39.81,0,0-.83-.09-.79-1.29Z"/><polygon class="cls-2" points="45.91 43.36 45.56 84.39 45.21 43.36 45.91 43.36"/><path class="cls-5" d="M51.36,42.6c-.22,0-.42.1-.56.25-.3.06-.73.1-1.32.05-1.23-.09-2.74-.57-3.74-.57-.07,0-.14,0-.19.02-.05-.01-.11-.02-.19-.02-.99,0-2.51.47-3.74.57-.61.05-1.06,0-1.36-.06-.14-.15-.34-.24-.56-.24-.42,0-.77.34-.77.77s.34.77.77.77c.2,0,.39-.08.52-.21.38-.05.97-.14,1.48-.23.85-.14,3.64,0,3.64,0h.38s2.79-.14,3.64,0c.5.08,1.06.17,1.45.22.14.13.32.21.53.21.42,0,.77-.34.77-.77s-.34-.77-.77-.77Z"/><path class="cls-5" d="M45.54,27.05c-1.09,0-1.97.88-1.97,1.97s.88,1.97,1.97,1.97,1.97-.88,1.97-1.97-.88-1.97-1.97-1.97Z"/><path class="cls-4" d="M31.93,107.59c-.13.08-.22.23-.21.4,0,.17.1.3.24.36-.13.08-.21.23-.2.4,0,.17.1.3.23.36-.12.08-.21.23-.2.4,0,.17.1.3.23.36-.12.08-.2.23-.19.4,0,.17.1.3.22.36-.12.08-.2.23-.19.4,0,.17.09.3.22.36-.12.08-.19.23-.18.4,0,.17.09.3.21.36-.11.08-.19.23-.18.4,0,.17.09.3.21.36-.11.08-.18.23-.18.4,0,.17.09.3.2.36-.11.08-.18.23-.17.4,0,.17.09.3.2.36-.1.08-.17.23-.17.4,0,.17.09.3.19.36-.1.08-.17.23-.16.4,0,.17.08.3.19.37-.1.08-.16.23-.16.4,0,.17.08.3.18.37-.1.08-.16.23-.15.39,0,.17.08.3.18.37-.09.08-.15.23-.15.39,0,.16.08.3.17.37-.09.08-.15.23-.14.39,0,.07.02.14.04.2-.03,0-.06.01-.09.02-.68.17-.83,1.16-.39,1.74.46.56,1.5.75,1.5.75,0,0,1-.22,1.45-.8.43-.59.25-1.58-.44-1.72-.01,0-.02,0-.04,0,.02-.05.03-.11.03-.18,0-.16-.05-.31-.14-.39.1-.07.17-.2.17-.37,0-.17-.05-.31-.15-.39.1-.07.17-.2.18-.37,0-.16-.05-.31-.15-.39.1-.06.18-.2.18-.37,0-.17-.06-.31-.16-.4.1-.06.18-.2.19-.37,0-.17-.06-.31-.16-.4.11-.06.19-.2.19-.36,0-.16-.06-.31-.17-.4.11-.06.19-.2.2-.36,0-.17-.06-.32-.17-.4.11-.06.2-.2.2-.36,0-.16-.06-.31-.18-.4.12-.06.2-.2.21-.36,0-.17-.07-.32-.18-.4.12-.06.2-.2.21-.36,0-.17-.07-.32-.18-.4.12-.06.21-.2.22-.36,0-.16-.07-.32-.19-.4.12-.06.21-.2.22-.36,0-.17-.07-.32-.19-.4.13-.06.22-.2.23-.36,0-.17-.07-.32-.2-.4.13-.06.22-.2.23-.36,0-.17-.08-.32-.2-.4.13-.06.23-.2.24-.36,0-.17-.08-.32-.21-.4.14-.06.23-.2.24-.36.01-.24-.17-.45-.41-.47-.73-.05-1.47-.05-2.2,0-.24.02-.42.23-.41.47,0,.17.11.3.24.36Z"/><path class="cls-3" d="M32.31,105.17c-.01.36-.4.5-.4.5l1.27.29h0s0,0,0,0l1.27-.29s-.39-.14-.4-.5c0-1.13.79-1.29.79-1.29,0,0-.32-39.02-.55-39.81-.24-.79-1.11-3.16-1.11-3.16v.06s0-.06,0-.06c0,0-.87,2.37-1.11,3.16-.24.79-.55,39.81-.55,39.81,0,0,.83.09.79,1.29Z"/><polygon class="cls-2" points="32.85 105.96 33.2 64.93 33.55 105.96 32.85 105.96"/><path class="cls-5" d="M27.4,106.71c.22,0,.42-.1.56-.25.3-.06.73-.1,1.32-.05,1.23.09,2.74.57,3.74.57.07,0,.14,0,.19-.02.05.01.11.02.19.02.99,0,2.51-.47,3.74-.57.61-.05,1.06,0,1.36.06.14.15.34.24.56.24.42,0,.77-.34.77-.77s-.34-.77-.77-.77c-.2,0-.39.08-.52.21-.38.05-.97.14-1.48.23-.85.14-3.64,0-3.64,0h-.38s-2.79.14-3.64,0c-.5-.08-1.06-.17-1.45-.22-.14-.13-.32-.21-.53-.21-.42,0-.77.34-.77.77s.34.77.77.77Z"/><path class="cls-5" d="M33.22,122.26c1.09,0,1.97-.88,1.97-1.97s-.88-1.97-1.97-1.97-1.97.88-1.97,1.97.88,1.97,1.97,1.97Z"/><path class="cls-4" d="M22.77,41.73c.13-.08.22-.23.21-.4,0-.17-.1-.3-.24-.36.13-.08.21-.23.2-.4,0-.17-.1-.3-.23-.36.12-.08.21-.23.2-.4,0-.17-.1-.3-.23-.36.12-.08.2-.23.19-.4,0-.17-.1-.3-.22-.36.12-.08.2-.23.19-.4,0-.17-.09-.3-.22-.36.12-.08.19-.23.18-.4,0-.17-.09-.3-.21-.36.11-.08.19-.23.18-.4,0-.17-.09-.3-.21-.36.11-.08.18-.23.18-.4,0-.17-.09-.3-.2-.36.11-.08.18-.23.17-.4,0-.17-.09-.3-.2-.36.1-.08.17-.23.17-.4,0-.17-.09-.3-.19-.36.1-.08.17-.23.16-.4,0-.17-.08-.3-.19-.37.1-.08.16-.23.16-.4,0-.17-.08-.3-.18-.37.1-.08.16-.23.15-.39,0-.17-.08-.3-.18-.37.09-.08.15-.23.15-.39,0-.16-.08-.3-.17-.37.09-.08.15-.23.14-.39,0-.07-.02-.14-.04-.2.03,0,.06-.01.09-.02.68-.17.83-1.16.39-1.74-.46-.56-1.5-.75-1.5-.75,0,0-1,.22-1.45.8-.43.59-.25,1.58.44,1.72.01,0,.02,0,.04,0-.02.05-.03.11-.03.18,0,.16.05.31.14.39-.1.07-.17.2-.17.37,0,.17.05.31.15.39-.1.07-.17.2-.18.37,0,.16.05.31.15.39-.1.06-.18.2-.18.37,0,.17.06.31.16.4-.1.06-.18.2-.19.37,0,.17.06.31.16.4-.11.06-.19.2-.19.36,0,.16.06.31.17.4-.11.06-.19.2-.2.36,0,.17.06.32.17.4-.11.06-.2.2-.2.36,0,.16.06.31.18.4-.12.06-.2.2-.21.36,0,.17.07.32.18.4-.12.06-.2.2-.21.36,0,.17.07.32.18.4-.12.06-.21.2-.22.36,0,.16.07.32.19.4-.12.06-.21.2-.22.36,0,.17.07.32.19.4-.13.06-.22.2-.23.36,0,.17.07.32.2.4-.13.06-.22.2-.23.36,0,.17.08.32.2.4-.13.06-.23.2-.24.36,0,.17.08.32.21.4-.14.06-.23.2-.24.36-.01.24.17.45.41.47.73.05,1.47.05,2.2,0,.24-.02.42-.23.41-.47,0-.17-.11-.3-.24-.36Z"/><path class="cls-3" d="M22.39,44.14c.01-.36.4-.5.4-.5l-1.27-.29h0s0,0,0,0l-1.27.29s.39.14.4.5c0,1.13-.79,1.29-.79,1.29,0,0,.32,39.02.55,39.81.24.79,1.11,3.16,1.11,3.16v-.06s0,.06,0,.06c0,0,.87-2.37,1.11-3.16.24-.79.55-39.81.55-39.81,0,0-.83-.09-.79-1.29Z"/><polygon class="cls-2" points="21.85 43.36 21.5 84.39 21.14 43.36 21.85 43.36"/><path class="cls-5" d="M27.3,42.6c-.22,0-.42.1-.56.25-.3.06-.73.1-1.32.05-1.23-.09-2.74-.57-3.74-.57-.07,0-.14,0-.19.02-.05-.01-.11-.02-.19-.02-.99,0-2.51.47-3.74.57-.61.05-1.06,0-1.36-.06-.14-.15-.34-.24-.56-.24-.42,0-.77.34-.77.77s.34.77.77.77c.2,0,.39-.08.52-.21.38-.05.97-.14,1.48-.23.85-.14,3.64,0,3.64,0h.38s2.79-.14,3.64,0c.5.08,1.06.17,1.45.22.14.13.32.21.53.21.42,0,.77-.34.77-.77s-.34-.77-.77-.77Z"/><path class="cls-5" d="M21.48,27.05c-1.09,0-1.97.88-1.97,1.97s.88,1.97,1.97,1.97,1.97-.88,1.97-1.97-.88-1.97-1.97-1.97Z"/><path class="cls-4" d="M70.31,41.73c.13-.08.22-.23.21-.4,0-.17-.1-.3-.24-.36.13-.08.21-.23.2-.4,0-.17-.1-.3-.23-.36.12-.08.21-.23.2-.4,0-.17-.1-.3-.23-.36.12-.08.2-.23.19-.4,0-.17-.1-.3-.22-.36.12-.08.2-.23.19-.4,0-.17-.09-.3-.22-.36.12-.08.19-.23.18-.4,0-.17-.09-.3-.21-.36.11-.08.19-.23.18-.4,0-.17-.09-.3-.21-.36.11-.08.18-.23.18-.4,0-.17-.09-.3-.2-.36.11-.08.18-.23.17-.4,0-.17-.09-.3-.2-.36.1-.08.17-.23.17-.4,0-.17-.09-.3-.19-.36.1-.08.17-.23.16-.4,0-.17-.08-.3-.19-.37.1-.08.16-.23.16-.4,0-.17-.08-.3-.18-.37.1-.08.16-.23.15-.39,0-.17-.08-.3-.18-.37.09-.08.15-.23.15-.39,0-.16-.08-.3-.17-.37.09-.08.15-.23.14-.39,0-.07-.02-.14-.04-.2.03,0,.06-.01.09-.02.68-.17.83-1.16.39-1.74-.46-.56-1.5-.75-1.5-.75,0,0-1,.22-1.45.8-.43.59-.25,1.58.44,1.72.01,0,.02,0,.04,0-.02.05-.03.11-.03.18,0,.16.05.31.14.39-.1.07-.17.2-.17.37,0,.17.05.31.15.39-.1.07-.17.2-.18.37,0,.16.05.31.15.39-.1.06-.18.2-.18.37,0,.17.06.31.16.4-.1.06-.18.2-.19.37,0,.17.06.31.16.4-.11.06-.19.2-.19.36,0,.16.06.31.17.4-.11.06-.19.2-.2.36,0,.17.06.32.17.4-.11.06-.2.2-.2.36,0,.16.06.31.18.4-.12.06-.2.2-.21.36,0,.17.07.32.18.4-.12.06-.2.2-.21.36,0,.17.07.32.18.4-.12.06-.21.2-.22.36,0,.16.07.32.19.4-.12.06-.21.2-.22.36,0,.17.07.32.19.4-.13.06-.22.2-.23.36,0,.17.07.32.2.4-.13.06-.22.2-.23.36,0,.17.08.32.2.4-.13.06-.23.2-.24.36,0,.17.08.32.21.4-.14.06-.23.2-.24.36-.01.24.17.45.41.47.73.05,1.47.05,2.2,0,.24-.02.42-.23.41-.47,0-.17-.11-.3-.24-.36Z"/><path class="cls-3" d="M69.93,44.14c.01-.36.4-.5.4-.5l-1.27-.29h0s0,0,0,0l-1.27.29s.39.14.4.5c0,1.13-.79,1.29-.79,1.29,0,0,.32,39.02.55,39.81.24.79,1.11,3.16,1.11,3.16v-.06s0,.06,0,.06c0,0,.87-2.37,1.11-3.16.24-.79.55-39.81.55-39.81,0,0-.83-.09-.79-1.29Z"/><polygon class="cls-2" points="69.39 43.36 69.03 84.39 68.68 43.36 69.39 43.36"/><path class="cls-5" d="M74.84,42.6c-.22,0-.42.1-.56.25-.3.06-.73.1-1.32.05-1.23-.09-2.74-.57-3.74-.57-.07,0-.14,0-.19.02-.05-.01-.11-.02-.19-.02-.99,0-2.51.47-3.74.57-.61.05-1.06,0-1.36-.06-.14-.15-.34-.24-.56-.24-.42,0-.77.34-.77.77s.34.77.77.77c.2,0,.39-.08.52-.21.38-.05.97-.14,1.48-.23.85-.14,3.64,0,3.64,0h.38s2.79-.14,3.64,0c.5.08,1.06.17,1.45.22.14.13.32.21.53.21.42,0,.77-.34.77-.77s-.34-.77-.77-.77Z"/><path class="cls-5" d="M69.02,27.05c-1.09,0-1.97.88-1.97,1.97s.88,1.97,1.97,1.97,1.97-.88,1.97-1.97-.88-1.97-1.97-1.97Z"/></g></svg>