<?xml version="1.0" encoding="UTF-8"?><svg xmlns="http://www.w3.org/2000/svg" viewBox="0 0 102.24 150.24"><defs><style>.cls-1{fill:none;stroke:#1e1e1c;stroke-miterlimit:10;stroke-width:.25px;}.cls-2{fill:#7cafce;}.cls-3{fill:#a9c8d2;}.cls-3,.cls-4{fill-rule:evenodd;}.cls-4{fill:#f6c008;}.cls-5{fill:#e5b520;}</style></defs><g id="NOOOOO"><g id="margem"><polyline class="cls-1" points="31.32 141.14 10.38 141.14 10.38 75.95 10.38 9.1 31.32 9.1"/><polyline class="cls-1" points="70.92 9.1 91.86 9.1 91.86 141.14 70.92 141.14"/><line class="cls-1" x1="61.02" y1="141.14" x2="41.22" y2="141.14"/><line class="cls-1" x1="41.22" y1="9.1" x2="61.02" y2="9.1"/></g></g><g id="ESPADA"><path class="cls-4" d="M42.01,50.21c.2-.13.34-.36.32-.62-.01-.26-.16-.46-.37-.56.2-.13.33-.36.32-.62-.01-.26-.16-.46-.36-.56.19-.13.32-.36.31-.62-.01-.26-.15-.46-.35-.56.19-.13.31-.36.3-.62-.01-.26-.15-.47-.34-.56.19-.13.31-.36.29-.62-.01-.26-.15-.47-.34-.56.18-.13.3-.36.29-.62-.01-.26-.15-.47-.33-.56.18-.13.29-.36.28-.62-.01-.26-.14-.47-.32-.57.17-.13.28-.36.27-.62-.01-.26-.14-.47-.31-.57.17-.13.27-.36.27-.62-.01-.26-.14-.47-.31-.57.16-.13.27-.36.26-.62-.01-.26-.13-.47-.3-.57.16-.13.26-.36.25-.62-.01-.26-.13-.47-.29-.57.15-.13.25-.36.24-.62-.01-.26-.13-.47-.28-.57.15-.13.25-.36.24-.61-.01-.26-.13-.47-.28-.57.15-.13.24-.36.23-.61-.01-.26-.12-.47-.27-.57.14-.12.23-.36.22-.61,0-.12-.03-.22-.07-.31.05,0,.09-.02.14-.03,1.07-.26,1.29-1.81.6-2.7-.72-.88-2.34-1.17-2.34-1.17,0,0-1.56.35-2.25,1.25-.66.92-.39,2.45.69,2.68.02,0,.04,0,.06,0-.03.08-.05.18-.05.28-.01.26.08.49.22.61-.15.1-.26.31-.27.57-.01.26.08.49.23.61-.15.1-.27.31-.28.57-.01.26.09.49.23.61-.16.1-.27.31-.28.57-.01.26.09.49.24.62-.16.1-.28.31-.29.57-.01.26.09.49.25.62-.17.1-.29.31-.3.57-.01.26.09.49.26.62-.17.1-.3.31-.31.57-.01.26.1.49.27.62-.18.1-.3.31-.31.57-.01.26.1.49.27.62-.18.1-.31.31-.32.57-.01.26.1.49.28.62-.18.1-.32.31-.33.56-.01.26.11.49.29.62-.19.1-.33.31-.34.56-.01.26.11.49.29.62-.19.1-.33.31-.34.56-.01.26.11.49.3.62-.2.1-.34.31-.35.56-.01.26.11.49.31.62-.2.1-.35.31-.36.56-.01.26.12.49.32.62-.21.1-.36.31-.37.56-.01.26.12.49.32.62-.21.1-.36.3-.37.56-.02.37.27.7.64.73,1.14.08,2.28.08,3.42,0,.37-.03.66-.36.64-.73-.01-.26-.16-.46-.37-.56Z"/><path class="cls-3" d="M41.43,53.97c.02-.56.62-.78.62-.78l-1.97-.45h0s0,0,0,0l-1.97.45s.61.22.62.78c.02,1.76-1.23,2.01-1.23,2.01,0,0,.49,60.75.86,61.98.37,1.23,1.73,4.91,1.73,4.91v-.09.09s1.36-3.69,1.73-4.91c.37-1.23.86-61.98.86-61.98,0,0-1.29-.14-1.23-2.01Z"/><polygon class="cls-2" points="40.58 52.76 40.03 116.63 39.49 52.76 40.58 52.76"/><path class="cls-5" d="M49.07,51.58c-.35,0-.66.15-.88.39-.46.09-1.14.15-2.05.08-1.91-.15-4.27-.88-5.82-.88-.11,0-.21.01-.29.03-.08-.02-.18-.03-.29-.03-1.55,0-3.9.74-5.82.88-.95.07-1.65,0-2.11-.09-.22-.23-.52-.38-.87-.38-.66,0-1.2.54-1.2,1.2s.54,1.2,1.2,1.2c.32,0,.6-.12.81-.32.59-.08,1.5-.22,2.31-.35,1.33-.22,5.67,0,5.67,0h.59s4.34-.22,5.67,0c.78.13,1.66.26,2.25.34.21.21.5.33.82.33.66,0,1.2-.54,1.2-1.2s-.54-1.2-1.2-1.2Z"/><path class="cls-5" d="M40.01,27.37c-1.7,0-3.07,1.38-3.07,3.07s1.37,3.07,3.07,3.07,3.07-1.37,3.07-3.07-1.37-3.07-3.07-3.07Z"/><path class="cls-4" d="M60.23,100.03c-.2.13-.34.36-.32.62.01.26.16.46.37.56-.2.13-.33.36-.32.62.01.26.16.46.36.56-.19.13-.32.36-.31.62.01.26.15.46.35.56-.19.13-.31.36-.3.62.01.26.15.47.34.56-.19.13-.31.36-.29.62.01.26.15.47.34.56-.18.13-.3.36-.29.62.01.26.15.47.33.56-.18.13-.29.36-.28.62.01.26.14.47.32.57-.17.13-.28.36-.27.62.01.26.14.47.31.57-.17.13-.27.36-.27.62.01.26.14.47.31.57-.16.13-.27.36-.26.62.01.26.13.47.3.57-.16.13-.26.36-.25.62.01.26.13.47.29.57-.15.13-.25.36-.24.62.01.26.13.47.28.57-.15.13-.25.36-.24.61.01.26.13.47.28.57-.15.13-.24.36-.23.61.01.26.12.47.27.57-.14.12-.23.36-.22.61,0,.12.03.22.07.31-.05,0-.09.02-.14.03-1.07.26-1.29,1.81-.6,2.7.72.88,2.34,1.17,2.34,1.17,0,0,1.56-.35,2.25-1.25.66-.92.39-2.45-.69-2.68-.02,0-.04,0-.06,0,.03-.08.05-.18.05-.28.01-.26-.08-.49-.22-.61.15-.1.26-.31.27-.57.01-.26-.08-.49-.23-.61.15-.1.27-.31.28-.57.01-.26-.09-.49-.23-.61.16-.1.27-.31.28-.57.01-.26-.09-.49-.24-.62.16-.1.28-.31.29-.57.01-.26-.09-.49-.25-.62.17-.1.29-.31.3-.57.01-.26-.09-.49-.26-.62.17-.1.3-.31.31-.57.01-.26-.1-.49-.27-.62.18-.1.3-.31.31-.57.01-.26-.1-.49-.27-.62.18-.1.31-.31.32-.57.01-.26-.1-.49-.28-.62.18-.1.32-.31.33-.56.01-.26-.11-.49-.29-.62.19-.1.33-.31.34-.56.01-.26-.11-.49-.29-.62.19-.1.33-.31.34-.56.01-.26-.11-.49-.3-.62.2-.1.34-.31.35-.56.01-.26-.11-.49-.31-.62.2-.1.35-.31.36-.56.01-.26-.12-.49-.32-.62.21-.1.36-.31.37-.56.01-.26-.12-.49-.32-.62.21-.1.36-.3.37-.56.02-.37-.27-.7-.64-.73-1.14-.08-2.28-.08-3.42,0-.37.03-.66.36-.64.73.01.26.16.46.37.56Z"/><path class="cls-3" d="M60.81,96.27c-.02.56-.62.78-.62.78l1.97.45h0s0,0,0,0l1.97-.45s-.61-.22-.62-.78c-.02-1.76,1.23-2.01,1.23-2.01,0,0-.49-60.75-.86-61.98-.37-1.23-1.73-4.91-1.73-4.91v.09s0-.09,0-.09c0,0-1.36,3.69-1.73,4.91-.37,1.23-.86,61.98-.86,61.98,0,0,1.29.14,1.23,2.01Z"/><polygon class="cls-2" points="61.66 97.48 62.21 33.61 62.75 97.48 61.66 97.48"/><path class="cls-5" d="M53.17,98.66c.35,0,.66-.15.88-.39.46-.09,1.14-.15,2.05-.08,1.91.15,4.27.88,5.82.88.11,0,.21-.01.29-.03.08.02.18.03.29.03,1.55,0,3.9-.74,5.82-.88.95-.07,1.65,0,2.11.09.22.23.52.38.87.38.66,0,1.2-.54,1.2-1.2s-.54-1.2-1.2-1.2c-.32,0-.6.12-.81.32-.59.08-1.5.22-2.31.35-1.33.22-5.67,0-5.67,0h-.59s-4.34.22-5.67,0c-.78-.13-1.66-.26-2.25-.34-.21-.21-.5-.33-.82-.33-.66,0-1.2.54-1.2,1.2s.54,1.2,1.2,1.2Z"/><path class="cls-5" d="M62.23,122.87c1.7,0,3.07-1.38,3.07-3.07s-1.37-3.07-3.07-3.07-3.07,1.37-3.07,3.07,1.37,3.07,3.07,3.07Z"/></g></svg>