<?xml version="1.0" encoding="UTF-8"?><svg xmlns="http://www.w3.org/2000/svg" viewBox="0 0 102.24 150.24"><defs><style>.cls-1{fill:none;stroke:#1e1e1c;stroke-miterlimit:10;stroke-width:.25px;}.cls-2{fill:#7cafce;}.cls-3{fill:#a9c8d2;}.cls-3,.cls-4{fill-rule:evenodd;}.cls-4{fill:#f6c008;}.cls-5{fill:#e5b520;}</style></defs><g id="NOOOOO"><g id="margem"><polyline class="cls-1" points="31.32 141.14 10.38 141.14 10.38 75.95 10.38 9.1 31.32 9.1"/><polyline class="cls-1" points="70.92 9.1 91.86 9.1 91.86 141.14 70.92 141.14"/><line class="cls-1" x1="61.02" y1="141.14" x2="41.22" y2="141.14"/><line class="cls-1" x1="41.22" y1="9.1" x2="61.02" y2="9.1"/></g></g><g id="ESPADA"><path class="cls-4" d="M79.7,107.59c-.13.08-.22.23-.21.4,0,.17.1.3.24.36-.13.08-.21.23-.2.4,0,.17.1.3.23.36-.12.08-.21.23-.2.4,0,.17.1.3.23.36-.12.08-.2.23-.19.4,0,.17.1.3.22.36-.12.08-.2.23-.19.4,0,.17.09.3.22.36-.12.08-.19.23-.18.4,0,.17.09.3.21.36-.11.08-.19.23-.18.4,0,.17.09.3.21.36-.11.08-.18.23-.18.4,0,.17.09.3.2.36-.11.08-.18.23-.17.4,0,.17.09.3.2.36-.1.08-.17.23-.17.4,0,.17.09.3.19.36-.1.08-.17.23-.16.4,0,.17.08.3.19.37-.1.08-.16.23-.16.4,0,.17.08.3.18.37-.1.08-.16.23-.15.39,0,.17.08.3.18.37-.09.08-.15.23-.15.39,0,.16.08.3.17.37-.09.08-.15.23-.14.39,0,.07.02.14.04.2-.03,0-.06.01-.09.02-.68.17-.83,1.16-.39,1.74.46.56,1.5.75,1.5.75,0,0,1-.22,1.45-.8.43-.59.25-1.58-.44-1.72-.01,0-.02,0-.04,0,.02-.05.03-.11.03-.18,0-.16-.05-.31-.14-.39.1-.07.17-.2.17-.37,0-.17-.05-.31-.15-.39.1-.07.17-.2.18-.37,0-.16-.05-.31-.15-.39.1-.06.18-.2.18-.37,0-.17-.06-.31-.16-.4.1-.06.18-.2.19-.37,0-.17-.06-.31-.16-.4.11-.06.19-.2.19-.36,0-.16-.06-.31-.17-.4.11-.06.19-.2.2-.36,0-.17-.06-.32-.17-.4.11-.06.2-.2.2-.36,0-.16-.06-.31-.18-.4.12-.06.2-.2.21-.36,0-.17-.07-.32-.18-.4.12-.06.2-.2.21-.36,0-.17-.07-.32-.18-.4.12-.06.21-.2.22-.36,0-.16-.07-.32-.19-.4.12-.06.21-.2.22-.36,0-.17-.07-.32-.19-.4.13-.06.22-.2.23-.36,0-.17-.07-.32-.2-.4.13-.06.22-.2.23-.36,0-.17-.08-.32-.2-.4.13-.06.23-.2.24-.36,0-.17-.08-.32-.21-.4.14-.06.23-.2.24-.36.01-.24-.17-.45-.41-.47-.73-.05-1.47-.05-2.2,0-.24.02-.42.23-.41.47,0,.17.11.3.24.36Z"/><path class="cls-3" d="M80.08,105.17c-.01.36-.4.5-.4.5l1.27.29h0s0,0,0,0l1.27-.29s-.39-.14-.4-.5c0-1.13.79-1.29.79-1.29,0,0-.32-39.02-.55-39.81-.24-.79-1.11-3.16-1.11-3.16v.06s0-.06,0-.06c0,0-.87,2.37-1.11,3.16-.24.79-.55,39.81-.55,39.81,0,0,.83.09.79,1.29Z"/><polygon class="cls-2" points="80.62 105.96 80.97 64.93 81.33 105.96 80.62 105.96"/><path class="cls-5" d="M75.17,106.71c.22,0,.42-.1.56-.25.3-.06.73-.1,1.32-.05,1.23.09,2.74.57,3.74.57.07,0,.14,0,.19-.02.05.01.11.02.19.02.99,0,2.51-.47,3.74-.57.61-.05,1.06,0,1.36.06.14.15.34.24.56.24.42,0,.77-.34.77-.77s-.34-.77-.77-.77c-.2,0-.39.08-.52.21-.38.05-.97.14-1.48.23-.85.14-3.64,0-3.64,0h-.38s-2.79.14-3.64,0c-.5-.08-1.06-.17-1.45-.22-.14-.13-.32-.21-.53-.21-.42,0-.77.34-.77.77s.34.77.77.77Z"/><path class="cls-5" d="M80.99,122.26c1.09,0,1.97-.88,1.97-1.97s-.88-1.97-1.97-1.97-1.97.88-1.97,1.97.88,1.97,1.97,1.97Z"/><path class="cls-4" d="M56.23,107.59c-.13.08-.22.23-.21.4,0,.17.1.3.24.36-.13.08-.21.23-.2.4,0,.17.1.3.23.36-.12.08-.21.23-.2.4,0,.17.1.3.23.36-.12.08-.2.23-.19.4,0,.17.1.3.22.36-.12.08-.2.23-.19.4,0,.17.09.3.22.36-.12.08-.19.23-.18.4,0,.17.09.3.21.36-.11.08-.19.23-.18.4,0,.17.09.3.21.36-.11.08-.18.23-.18.4,0,.17.09.3.2.36-.11.08-.18.23-.17.4,0,.17.09.3.2.36-.1.08-.17.23-.17.4,0,.17.09.3.19.36-.1.08-.17.23-.16.4,0,.17.08.3.19.37-.1.08-.16.23-.16.4,0,.17.08.3.18.37-.1.08-.16.23-.15.39,0,.17.08.3.18.37-.09.08-.15.23-.15.39,0,.16.08.3.17.37-.09.08-.15.23-.14.39,0,.07.02.14.04.2-.03,0-.06.01-.09.02-.68.17-.83,1.16-.39,1.74.46.56,1.5.75,1.5.75,0,0,1-.22,1.45-.8.43-.59.25-1.58-.44-1.72-.01,0-.02,0-.04,0,.02-.05.03-.11.03-.18,0-.16-.05-.31-.14-.39.1-.07.17-.2.17-.37,0-.17-.05-.31-.15-.39.1-.07.17-.2.18-.37,0-.16-.05-.31-.15-.39.1-.06.18-.2.18-.37,0-.17-.06-.31-.16-.4.1-.06.18-.2.19-.37,0-.17-.06-.31-.16-.4.11-.06.19-.2.19-.36,0-.16-.06-.31-.17-.4.11-.06.19-.2.2-.36,0-.17-.06-.32-.17-.4.11-.06.2-.2.2-.36,0-.16-.06-.31-.18-.4.12-.06.2-.2.21-.36,0-.17-.07-.32-.18-.4.12-.06.2-.2.21-.36,0-.17-.07-.32-.18-.4.12-.06.21-.2.22-.36,0-.16-.07-.32-.19-.4.12-.06.21-.2.22-.36,0-.17-.07-.32-.19-.4.13-.06.22-.2.23-.36,0-.17-.07-.32-.2-.4.13-.06.22-.2.23-.36,0-.17-.08-.32-.2-.4.13-.06.23-.2.24-.36,0-.17-.08-.32-.21-.4.14-.06.23-.2.24-.36.01-.24-.17-.45-.41-.47-.73-.05-1.47-.05-2.2,0-.24.02-.42.23-.41.47,0,.17.11.3.24.36Z"/><path class="cls-3" d="M56.6,105.17c-.01.36-.4.5-.4.5l1.27.29h0s0,0,0,0l1.27-.29s-.39-.14-.4-.5c0-1.13.79-1.29.79-1.29,0,0-.32-39.02-.55-39.81-.24-.79-1.11-3.16-1.11-3.16v.06s0-.06,0-.06c0,0-.87,2.37-1.11,3.16-.24.79-.55,39.81-.55,39.81,0,0,.83.09.79,1.29Z"/><polygon class="cls-2" points="57.15 105.96 57.5 64.93 57.85 105.96 57.15 105.96"/><path class="cls-5" d="M51.69,106.71c.22,0,.42-.1.56-.25.3-.06.73-.1,1.32-.05,1.23.09,2.74.57,3.74.57.07,0,.14,0,.19-.02.05.01.11.02.19.02.99,0,2.51-.47,3.74-.57.61-.05,1.06,0,1.36.06.14.15.34.24.56.24.42,0,.77-.34.77-.77s-.34-.77-.77-.77c-.2,0-.39.08-.52.21-.38.05-.97.14-1.48.23-.85.14-3.64,0-3.64,0h-.38s-2.79.14-3.64,0c-.5-.08-1.06-.17-1.45-.22-.14-.13-.32-.21-.53-.21-.42,0-.77.34-.77.77s.34.77.77.77Z"/><path class="cls-5" d="M57.51,122.26c1.09,0,1.97-.88,1.97-1.97s-.88-1.97-1.97-1.97-1.97.88-1.97,1.97.88,1.97,1.97,1.97Z"/><path class="cls-4" d="M47.06,63.73c.13-.08.22-.23.21-.4,0-.17-.1-.3-.24-.36.13-.08.21-.23.2-.4,0-.17-.1-.3-.23-.36.12-.08.21-.23.2-.4,0-.17-.1-.3-.23-.36.12-.08.2-.23.19-.4,0-.17-.1-.3-.22-.36.12-.08.2-.23.19-.4,0-.17-.09-.3-.22-.36.12-.08.19-.23.18-.4,0-.17-.09-.3-.21-.36.11-.08.19-.23.18-.4,0-.17-.09-.3-.21-.36.11-.08.18-.23.18-.4,0-.17-.09-.3-.2-.36.11-.08.18-.23.17-.4,0-.17-.09-.3-.2-.36.1-.08.17-.23.17-.4,0-.17-.09-.3-.19-.36.1-.08.17-.23.16-.4,0-.17-.08-.3-.19-.37.1-.08.16-.23.16-.4,0-.17-.08-.3-.18-.37.1-.08.16-.23.15-.39,0-.17-.08-.3-.18-.37.09-.08.15-.23.15-.39,0-.16-.08-.3-.17-.37.09-.08.15-.23.14-.39,0-.07-.02-.14-.04-.2.03,0,.06-.01.09-.02.68-.17.83-1.16.39-1.74-.46-.56-1.5-.75-1.5-.75,0,0-1,.22-1.45.8-.43.59-.25,1.58.44,1.72.01,0,.02,0,.04,0-.02.05-.03.11-.03.18,0,.16.05.31.14.39-.1.07-.17.2-.17.37,0,.17.05.31.15.39-.1.07-.17.2-.18.37,0,.16.05.31.15.39-.1.06-.18.2-.18.37,0,.17.06.31.16.4-.1.06-.18.2-.19.37,0,.17.06.31.16.4-.11.06-.19.2-.19.36,0,.16.06.31.17.4-.11.06-.19.2-.2.36,0,.17.06.32.17.4-.11.06-.2.2-.2.36,0,.16.06.31.18.4-.12.06-.2.2-.21.36,0,.17.07.32.18.4-.12.06-.2.2-.21.36,0,.17.07.32.18.4-.12.06-.21.2-.22.36,0,.16.07.32.19.4-.12.06-.21.2-.22.36,0,.17.07.32.19.4-.13.06-.22.2-.23.36,0,.17.07.32.2.4-.13.06-.22.2-.23.36,0,.17.08.32.2.4-.13.06-.23.2-.24.36,0,.17.08.32.21.4-.14.06-.23.2-.24.36-.01.24.17.45.41.47.73.05,1.47.05,2.2,0,.24-.02.42-.23.41-.47,0-.17-.11-.3-.24-.36Z"/><path class="cls-3" d="M46.69,66.14c.01-.36.4-.5.4-.5l-1.27-.29h0s0,0,0,0l-1.27.29s.39.14.4.5c0,1.13-.79,1.29-.79,1.29,0,0,.32,39.02.55,39.81.24.79,1.11,3.16,1.11,3.16v-.06s0,.06,0,.06c0,0,.87-2.37,1.11-3.16.24-.79.55-39.81.55-39.81,0,0-.83-.09-.79-1.29Z"/><polygon class="cls-2" points="46.15 65.36 45.79 106.39 45.44 65.36 46.15 65.36"/><path class="cls-5" d="M51.6,64.6c-.22,0-.42.1-.56.25-.3.06-.73.1-1.32.05-1.23-.09-2.74-.57-3.74-.57-.07,0-.14,0-.19.02-.05-.01-.11-.02-.19-.02-.99,0-2.51.47-3.74.57-.61.05-1.06,0-1.36-.06-.14-.15-.34-.24-.56-.24-.42,0-.77.34-.77.77s.34.77.77.77c.2,0,.39-.08.52-.21.38-.05.97-.14,1.48-.23.85-.14,3.64,0,3.64,0h.38s2.79-.14,3.64,0c.5.08,1.06.17,1.45.22.14.13.32.21.53.21.42,0,.77-.34.77-.77s-.34-.77-.77-.77Z"/><path class="cls-5" d="M45.78,49.05c-1.09,0-1.97.88-1.97,1.97s.88,1.97,1.97,1.97,1.97-.88,1.97-1.97-.88-1.97-1.97-1.97Z"/><path class="cls-4" d="M32.16,107.59c-.13.08-.22.23-.21.4,0,.17.1.3.24.36-.13.08-.21.23-.2.4,0,.17.1.3.23.36-.12.08-.21.23-.2.4,0,.17.1.3.23.36-.12.08-.2.23-.19.4,0,.17.1.3.22.36-.12.08-.2.23-.19.4,0,.17.09.3.22.36-.12.08-.19.23-.18.4,0,.17.09.3.21.36-.11.08-.19.23-.18.4,0,.17.09.3.21.36-.11.08-.18.23-.18.4,0,.17.09.3.2.36-.11.08-.18.23-.17.4,0,.17.09.3.2.36-.1.08-.17.23-.17.4,0,.17.09.3.19.36-.1.08-.17.23-.16.4,0,.17.08.3.19.37-.1.08-.16.23-.16.4,0,.17.08.3.18.37-.1.08-.16.23-.15.39,0,.17.08.3.18.37-.09.08-.15.23-.15.39,0,.16.08.3.17.37-.09.08-.15.23-.14.39,0,.07.02.14.04.2-.03,0-.06.01-.09.02-.68.17-.83,1.16-.39,1.74.46.56,1.5.75,1.5.75,0,0,1-.22,1.45-.8.43-.59.25-1.58-.44-1.72-.01,0-.02,0-.04,0,.02-.05.03-.11.03-.18,0-.16-.05-.31-.14-.39.1-.07.17-.2.17-.37,0-.17-.05-.31-.15-.39.1-.07.17-.2.18-.37,0-.16-.05-.31-.15-.39.1-.06.18-.2.18-.37,0-.17-.06-.31-.16-.4.1-.06.18-.2.19-.37,0-.17-.06-.31-.16-.4.11-.06.19-.2.19-.36,0-.16-.06-.31-.17-.4.11-.06.19-.2.2-.36,0-.17-.06-.32-.17-.4.11-.06.2-.2.2-.36,0-.16-.06-.31-.18-.4.12-.06.2-.2.21-.36,0-.17-.07-.32-.18-.4.12-.06.2-.2.21-.36,0-.17-.07-.32-.18-.4.12-.06.21-.2.22-.36,0-.16-.07-.32-.19-.4.12-.06.21-.2.22-.36,0-.17-.07-.32-.19-.4.13-.06.22-.2.23-.36,0-.17-.07-.32-.2-.4.13-.06.22-.2.23-.36,0-.17-.08-.32-.2-.4.13-.06.23-.2.24-.36,0-.17-.08-.32-.21-.4.14-.06.23-.2.24-.36.01-.24-.17-.45-.41-.47-.73-.05-1.47-.05-2.2,0-.24.02-.42.23-.41.47,0,.17.11.3.24.36Z"/><path class="cls-3" d="M32.54,105.17c-.01.36-.4.5-.4.5l1.27.29h0s0,0,0,0l1.27-.29s-.39-.14-.4-.5c0-1.13.79-1.29.79-1.29,0,0-.32-39.02-.55-39.81-.24-.79-1.11-3.16-1.11-3.16v.06s0-.06,0-.06c0,0-.87,2.37-1.11,3.16-.24.79-.55,39.81-.55,39.81,0,0,.83.09.79,1.29Z"/><polygon class="cls-2" points="33.08 105.96 33.44 64.93 33.79 105.96 33.08 105.96"/><path class="cls-5" d="M27.63,106.71c.22,0,.42-.1.56-.25.3-.06.73-.1,1.32-.05,1.23.09,2.74.57,3.74.57.07,0,.14,0,.19-.02.05.01.11.02.19.02.99,0,2.51-.47,3.74-.57.61-.05,1.06,0,1.36.06.14.15.34.24.56.24.42,0,.77-.34.77-.77s-.34-.77-.77-.77c-.2,0-.39.08-.52.21-.38.05-.97.14-1.48.23-.85.14-3.64,0-3.64,0h-.38s-2.79.14-3.64,0c-.5-.08-1.06-.17-1.45-.22-.14-.13-.32-.21-.53-.21-.42,0-.77.34-.77.77s.34.77.77.77Z"/><path class="cls-5" d="M33.45,122.26c1.09,0,1.97-.88,1.97-1.97s-.88-1.97-1.97-1.97-1.97.88-1.97,1.97.88,1.97,1.97,1.97Z"/><path class="cls-4" d="M23,63.73c.13-.08.22-.23.21-.4,0-.17-.1-.3-.24-.36.13-.08.21-.23.2-.4,0-.17-.1-.3-.23-.36.12-.08.21-.23.2-.4,0-.17-.1-.3-.23-.36.12-.08.2-.23.19-.4,0-.17-.1-.3-.22-.36.12-.08.2-.23.19-.4,0-.17-.09-.3-.22-.36.12-.08.19-.23.18-.4,0-.17-.09-.3-.21-.36.11-.08.19-.23.18-.4,0-.17-.09-.3-.21-.36.11-.08.18-.23.18-.4,0-.17-.09-.3-.2-.36.11-.08.18-.23.17-.4,0-.17-.09-.3-.2-.36.1-.08.17-.23.17-.4,0-.17-.09-.3-.19-.36.1-.08.17-.23.16-.4,0-.17-.08-.3-.19-.37.1-.08.16-.23.16-.4,0-.17-.08-.3-.18-.37.1-.08.16-.23.15-.39,0-.17-.08-.3-.18-.37.09-.08.15-.23.15-.39,0-.16-.08-.3-.17-.37.09-.08.15-.23.14-.39,0-.07-.02-.14-.04-.2.03,0,.06-.01.09-.02.68-.17.83-1.16.39-1.74-.46-.56-1.5-.75-1.5-.75,0,0-1,.22-1.45.8-.43.59-.25,1.58.44,1.72.01,0,.02,0,.04,0-.02.05-.03.11-.03.18,0,.16.05.31.14.39-.1.07-.17.2-.17.37,0,.17.05.31.15.39-.1.07-.17.2-.18.37,0,.16.05.31.15.39-.1.06-.18.2-.18.37,0,.17.06.31.16.4-.1.06-.18.2-.19.37,0,.17.06.31.16.4-.11.06-.19.2-.19.36,0,.16.06.31.17.4-.11.06-.19.2-.2.36,0,.17.06.32.17.4-.11.06-.2.2-.2.36,0,.16.06.31.18.4-.12.06-.2.2-.21.36,0,.17.07.32.18.4-.12.06-.2.2-.21.36,0,.17.07.32.18.4-.12.06-.21.2-.22.36,0,.16.07.32.19.4-.12.06-.21.2-.22.36,0,.17.07.32.19.4-.13.06-.22.2-.23.36,0,.17.07.32.2.4-.13.06-.22.2-.23.36,0,.17.08.32.2.4-.13.06-.23.2-.24.36,0,.17.08.32.21.4-.14.06-.23.2-.24.36-.01.24.17.45.41.47.73.05,1.47.05,2.2,0,.24-.02.42-.23.41-.47,0-.17-.11-.3-.24-.36Z"/><path class="cls-3" d="M22.62,66.14c.01-.36.4-.5.4-.5l-1.27-.29h0s0,0,0,0l-1.27.29s.39.14.4.5c0,1.13-.79,1.29-.79,1.29,0,0,.32,39.02.55,39.81.24.79,1.11,3.16,1.11,3.16v-.06s0,.06,0,.06c0,0,.87-2.37,1.11-3.16.24-.79.55-39.81.55-39.81,0,0-.83-.09-.79-1.29Z"/><polygon class="cls-2" points="22.08 65.36 21.73 106.39 21.38 65.36 22.08 65.36"/><path class="cls-5" d="M27.53,64.6c-.22,0-.42.1-.56.25-.3.06-.73.1-1.32.05-1.23-.09-2.74-.57-3.74-.57-.07,0-.14,0-.19.02-.05-.01-.11-.02-.19-.02-.99,0-2.51.47-3.74.57-.61.05-1.06,0-1.36-.06-.14-.15-.34-.24-.56-.24-.42,0-.77.34-.77.77s.34.77.77.77c.2,0,.39-.08.52-.21.38-.05.97-.14,1.48-.23.85-.14,3.64,0,3.64,0h.38s2.79-.14,3.64,0c.5.08,1.06.17,1.45.22.14.13.32.21.53.21.42,0,.77-.34.77-.77s-.34-.77-.77-.77Z"/><path class="cls-5" d="M21.71,49.05c-1.09,0-1.97.88-1.97,1.97s.88,1.97,1.97,1.97,1.97-.88,1.97-1.97-.88-1.97-1.97-1.97Z"/><path class="cls-4" d="M70.54,63.73c.13-.08.22-.23.21-.4,0-.17-.1-.3-.24-.36.13-.08.21-.23.2-.4,0-.17-.1-.3-.23-.36.12-.08.21-.23.2-.4,0-.17-.1-.3-.23-.36.12-.08.2-.23.19-.4,0-.17-.1-.3-.22-.36.12-.08.2-.23.19-.4,0-.17-.09-.3-.22-.36.12-.08.19-.23.18-.4,0-.17-.09-.3-.21-.36.11-.08.19-.23.18-.4,0-.17-.09-.3-.21-.36.11-.08.18-.23.18-.4,0-.17-.09-.3-.2-.36.11-.08.18-.23.17-.4,0-.17-.09-.3-.2-.36.1-.08.17-.23.17-.4,0-.17-.09-.3-.19-.36.1-.08.17-.23.16-.4,0-.17-.08-.3-.19-.37.1-.08.16-.23.16-.4,0-.17-.08-.3-.18-.37.1-.08.16-.23.15-.39,0-.17-.08-.3-.18-.37.09-.08.15-.23.15-.39,0-.16-.08-.3-.17-.37.09-.08.15-.23.14-.39,0-.07-.02-.14-.04-.2.03,0,.06-.01.09-.02.68-.17.83-1.16.39-1.74-.46-.56-1.5-.75-1.5-.75,0,0-1,.22-1.45.8-.43.59-.25,1.58.44,1.72.01,0,.02,0,.04,0-.02.05-.03.11-.03.18,0,.16.05.31.14.39-.1.07-.17.2-.17.37,0,.17.05.31.15.39-.1.07-.17.2-.18.37,0,.16.05.31.15.39-.1.06-.18.2-.18.37,0,.17.06.31.16.4-.1.06-.18.2-.19.37,0,.17.06.31.16.4-.11.06-.19.2-.19.36,0,.16.06.31.17.4-.11.06-.19.2-.2.36,0,.17.06.32.17.4-.11.06-.2.2-.2.36,0,.16.06.31.18.4-.12.06-.2.2-.21.36,0,.17.07.32.18.4-.12.06-.2.2-.21.36,0,.17.07.32.18.4-.12.06-.21.2-.22.36,0,.16.07.32.19.4-.12.06-.21.2-.22.36,0,.17.07.32.19.4-.13.06-.22.2-.23.36,0,.17.07.32.2.4-.13.06-.22.2-.23.36,0,.17.08.32.2.4-.13.06-.23.2-.24.36,0,.17.08.32.21.4-.14.06-.23.2-.24.36-.01.24.17.45.41.47.73.05,1.47.05,2.2,0,.24-.02.42-.23.41-.47,0-.17-.11-.3-.24-.36Z"/><path class="cls-3" d="M70.16,66.14c.01-.36.4-.5.4-.5l-1.27-.29h0s0,0,0,0l-1.27.29s.39.14.4.5c0,1.13-.79,1.29-.79,1.29,0,0,.32,39.02.55,39.81.24.79,1.11,3.16,1.11,3.16v-.06s0,.06,0,.06c0,0,.87-2.37,1.11-3.16.24-.79.55-39.81.55-39.81,0,0-.83-.09-.79-1.29Z"/><polygon class="cls-2" points="69.62 65.36 69.27 106.39 68.92 65.36 69.62 65.36"/><path class="cls-5" d="M75.07,64.6c-.22,0-.42.1-.56.25-.3.06-.73.1-1.32.05-1.23-.09-2.74-.57-3.74-.57-.07,0-.14,0-.19.02-.05-.01-.11-.02-.19-.02-.99,0-2.51.47-3.74.57-.61.05-1.06,0-1.36-.06-.14-.15-.34-.24-.56-.24-.42,0-.77.34-.77.77s.34.77.77.77c.2,0,.39-.08.52-.21.38-.05.97-.14,1.48-.23.85-.14,3.64,0,3.64,0h.38s2.79-.14,3.64,0c.5.08,1.06.17,1.45.22.14.13.32.21.53.21.42,0,.77-.34.77-.77s-.34-.77-.77-.77Z"/><path class="cls-5" d="M69.25,49.05c-1.09,0-1.97.88-1.97,1.97s.88,1.97,1.97,1.97,1.97-.88,1.97-1.97-.88-1.97-1.97-1.97Z"/><path class="cls-4" d="M69.57,37.99c.1.15.27.25.46.24.19,0,.34-.12.42-.27.1.15.27.24.46.24.19,0,.34-.12.42-.27.1.14.27.24.46.23.19,0,.34-.11.42-.26.1.14.27.23.46.22.19,0,.34-.11.42-.25.1.14.27.23.46.22.19,0,.35-.11.42-.25.1.13.27.22.46.21.19,0,.35-.11.42-.24.1.13.27.22.46.21.19,0,.35-.11.42-.24.09.13.27.21.46.2.19,0,.35-.1.42-.23.09.12.27.2.46.2.19,0,.35-.1.42-.23.09.12.27.2.46.19.19,0,.35-.1.42-.22.09.12.27.19.46.18.19,0,.35-.1.42-.22.09.11.27.19.46.18.19,0,.35-.09.42-.21.09.11.26.18.45.17.19,0,.35-.09.42-.21.09.11.26.18.46.17.19,0,.35-.09.42-.2.09.1.26.17.45.16.09,0,.16-.02.23-.05,0,.03.01.07.02.11.2.79,1.34.96,2,.45.65-.53.87-1.74.87-1.74,0,0-.26-1.16-.92-1.67-.68-.49-1.82-.29-1.99.51,0,.01,0,.03,0,.04-.06-.02-.13-.04-.2-.04-.19,0-.36.06-.45.16-.08-.11-.23-.19-.42-.2-.19,0-.36.06-.46.17-.07-.11-.23-.2-.42-.21-.19,0-.36.06-.45.17-.07-.12-.23-.2-.42-.21-.19,0-.36.07-.46.18-.07-.12-.23-.21-.42-.22-.19,0-.36.07-.46.19-.07-.12-.23-.21-.42-.22-.19,0-.36.07-.46.19-.07-.13-.23-.22-.42-.23-.19,0-.36.07-.46.2-.07-.13-.23-.22-.42-.23-.19,0-.36.07-.46.2-.07-.13-.23-.23-.42-.24-.19,0-.36.08-.46.21-.07-.14-.23-.24-.42-.24-.19,0-.36.08-.46.21-.07-.14-.23-.24-.42-.25-.19,0-.36.08-.46.22-.07-.14-.23-.25-.42-.25-.19,0-.36.08-.46.22-.07-.15-.23-.25-.42-.26-.19,0-.36.09-.46.23-.07-.15-.23-.26-.42-.27-.19,0-.36.09-.46.23-.07-.15-.23-.26-.42-.27-.19,0-.36.09-.46.24-.07-.16-.23-.27-.42-.28-.27-.01-.52.2-.54.47-.06.84-.06,1.69,0,2.54.02.27.26.49.54.47.19,0,.34-.12.42-.28Z"/><path class="cls-3" d="M66.79,37.56c.41.01.58.46.58.46l.33-1.46h0s0,0,0,0l-.33-1.46s-.17.45-.58.46c-1.3.01-1.49-.91-1.49-.91,0,0-45,.36-45.91.64-.91.27-3.64,1.28-3.64,1.28h.07s-.07,0-.07,0c0,0,2.73,1,3.64,1.28.91.27,45.91.64,45.91.64,0,0,.1-.96,1.49-.91Z"/><polygon class="cls-2" points="67.69 36.93 20.37 36.53 67.69 36.12 67.69 36.93"/><path class="cls-5" d="M68.56,43.22c0-.26-.11-.49-.29-.65-.06-.34-.11-.84-.06-1.52.11-1.42.65-3.16.65-4.31,0-.09,0-.16-.03-.22.02-.06.03-.13.03-.22,0-1.15-.55-2.89-.65-4.31-.05-.71,0-1.22.07-1.56.17-.16.28-.39.28-.64,0-.49-.4-.89-.89-.89s-.89.4-.89.89c0,.23.09.45.24.6.06.44.16,1.11.26,1.71.16.98,0,4.2,0,4.2v.44s.16,3.22,0,4.2c-.1.58-.19,1.23-.25,1.67-.15.16-.25.37-.25.61,0,.49.4.89.89.89s.89-.4.89-.89Z"/><path class="cls-5" d="M86.5,36.51c0-1.26-1.02-2.28-2.28-2.28s-2.28,1.02-2.28,2.28,1.02,2.28,2.28,2.28,2.28-1.02,2.28-2.28Z"/></g></svg>