<?xml version="1.0" encoding="UTF-8"?><svg xmlns="http://www.w3.org/2000/svg" viewBox="0 0 102.24 150.24"><defs><style>.cls-1{fill:none;stroke:#1e1e1c;stroke-miterlimit:10;stroke-width:.25px;}.cls-2{fill:#7cafce;}.cls-3{fill:#a9c8d2;}.cls-3,.cls-4{fill-rule:evenodd;}.cls-4{fill:#f6c008;}.cls-5{fill:#e5b520;}</style></defs><g id="NOOOOO"><g id="margem"><polyline class="cls-1" points="31.32 141.14 10.38 141.14 10.38 75.95 10.38 9.1 31.32 9.1"/><polyline class="cls-1" points="70.92 9.1 91.86 9.1 91.86 141.14 70.92 141.14"/><line class="cls-1" x1="61.02" y1="141.14" x2="41.22" y2="141.14"/><line class="cls-1" x1="41.22" y1="9.1" x2="61.02" y2="9.1"/></g></g><g id="ESPADA"><path class="cls-4" d="M31.46,46.4c.16-.1.26-.28.25-.49,0-.2-.12-.36-.29-.44.15-.1.26-.28.25-.48,0-.2-.12-.36-.28-.44.15-.1.25-.28.24-.48,0-.2-.12-.36-.27-.44.15-.1.24-.28.24-.48,0-.2-.12-.36-.27-.44.14-.1.24-.28.23-.48,0-.2-.11-.36-.26-.44.14-.1.23-.28.22-.48,0-.2-.11-.36-.26-.44.14-.1.23-.28.22-.48,0-.2-.11-.36-.25-.44.13-.1.22-.28.21-.48,0-.2-.11-.36-.24-.44.13-.1.21-.28.21-.48,0-.2-.11-.36-.24-.44.13-.1.21-.28.2-.48,0-.2-.1-.36-.23-.44.12-.1.2-.28.19-.48,0-.2-.1-.36-.23-.44.12-.1.2-.28.19-.48,0-.2-.1-.36-.22-.44.12-.1.19-.28.18-.48,0-.2-.1-.36-.22-.44.11-.1.19-.28.18-.48,0-.2-.09-.37-.21-.44.11-.1.18-.28.17-.48,0-.09-.02-.17-.05-.24.04,0,.07-.01.11-.02.83-.21,1.01-1.41.47-2.11-.56-.69-1.83-.91-1.83-.91,0,0-1.22.27-1.75.97-.52.72-.3,1.91.53,2.09.01,0,.03,0,.05,0-.02.06-.04.14-.04.22,0,.2.06.38.17.48-.12.08-.2.24-.21.44,0,.2.06.38.18.48-.12.08-.21.24-.22.44,0,.2.07.38.18.48-.12.08-.21.24-.22.44,0,.2.07.38.19.48-.13.08-.22.24-.23.44,0,.2.07.38.2.48-.13.08-.22.24-.23.44,0,.2.07.38.2.48-.13.08-.23.24-.24.44,0,.2.08.38.21.48-.14.08-.24.24-.25.44,0,.2.08.38.21.48-.14.08-.24.24-.25.44,0,.2.08.38.22.48-.14.08-.25.24-.26.44,0,.2.08.38.22.48-.15.08-.25.24-.26.44,0,.2.09.38.23.48-.15.08-.26.24-.27.44,0,.2.09.38.24.48-.15.08-.27.24-.27.44,0,.2.09.38.24.48-.16.08-.27.24-.28.44,0,.2.09.38.25.48-.16.08-.28.24-.29.44,0,.2.1.38.25.49-.16.08-.28.24-.29.44-.01.29.21.55.5.57.89.06,1.78.06,2.67,0,.29-.02.51-.28.5-.57,0-.2-.13-.36-.29-.44Z"/><path class="cls-3" d="M31.01,49.33c.01-.44.48-.61.48-.61l-1.54-.35h0s0,0,0,0l-1.54.35s.48.17.48.61c.01,1.37-.96,1.57-.96,1.57,0,0,.38,47.36.67,48.31.29.96,1.34,3.83,1.34,3.83v-.07s0,.07,0,.07c0,0,1.06-2.87,1.35-3.83.29-.96.67-48.31.67-48.31,0,0-1.01-.11-.96-1.57Z"/><polygon class="cls-2" points="30.35 48.38 29.92 98.18 29.49 48.38 30.35 48.38"/><path class="cls-5" d="M36.97,47.46c-.27,0-.51.12-.68.3-.36.07-.89.12-1.6.06-1.49-.11-3.33-.69-4.53-.69-.09,0-.17,0-.23.03-.06-.02-.14-.03-.23-.03-1.2,0-3.04.57-4.53.69-.74.06-1.29,0-1.64-.07-.17-.18-.41-.29-.68-.29-.52,0-.93.42-.93.93s.42.93.93.93c.25,0,.47-.1.63-.25.46-.07,1.17-.17,1.8-.27,1.03-.17,4.42,0,4.42,0h.46s3.39-.17,4.42,0c.61.1,1.29.2,1.75.27.17.16.39.26.64.26.52,0,.93-.42.93-.93s-.42-.93-.93-.93Z"/><path class="cls-5" d="M29.9,28.59c-1.32,0-2.39,1.07-2.39,2.39s1.07,2.39,2.39,2.39,2.39-1.07,2.39-2.39-1.07-2.39-2.39-2.39Z"/><path class="cls-4" d="M59.96,46.4c.16-.1.26-.28.25-.49,0-.2-.12-.36-.29-.44.15-.1.26-.28.25-.48,0-.2-.12-.36-.28-.44.15-.1.25-.28.24-.48,0-.2-.12-.36-.27-.44.15-.1.24-.28.24-.48,0-.2-.12-.36-.27-.44.14-.1.24-.28.23-.48,0-.2-.11-.36-.26-.44.14-.1.23-.28.22-.48,0-.2-.11-.36-.26-.44.14-.1.23-.28.22-.48,0-.2-.11-.36-.25-.44.13-.1.22-.28.21-.48,0-.2-.11-.36-.24-.44.13-.1.21-.28.21-.48,0-.2-.11-.36-.24-.44.13-.1.21-.28.2-.48,0-.2-.1-.36-.23-.44.12-.1.2-.28.19-.48,0-.2-.1-.36-.23-.44.12-.1.2-.28.19-.48,0-.2-.1-.36-.22-.44.12-.1.19-.28.18-.48,0-.2-.1-.36-.22-.44.11-.1.19-.28.18-.48,0-.2-.09-.37-.21-.44.11-.1.18-.28.17-.48,0-.09-.02-.17-.05-.24.04,0,.07-.01.11-.02.83-.21,1.01-1.41.47-2.11-.56-.69-1.83-.91-1.83-.91,0,0-1.22.27-1.75.97-.52.72-.3,1.91.53,2.09.01,0,.03,0,.05,0-.02.06-.04.14-.04.22,0,.2.06.38.17.48-.12.08-.2.24-.21.44,0,.2.06.38.18.48-.12.08-.21.24-.22.44,0,.2.07.38.18.48-.12.08-.21.24-.22.44,0,.2.07.38.19.48-.13.08-.22.24-.23.44,0,.2.07.38.2.48-.13.08-.22.24-.23.44,0,.2.07.38.2.48-.13.08-.23.24-.24.44,0,.2.08.38.21.48-.14.08-.24.24-.25.44,0,.2.08.38.21.48-.14.08-.24.24-.25.44,0,.2.08.38.22.48-.14.08-.25.24-.26.44,0,.2.08.38.22.48-.15.08-.25.24-.26.44,0,.2.09.38.23.48-.15.08-.26.24-.27.44,0,.2.09.38.24.48-.15.08-.27.24-.27.44,0,.2.09.38.24.48-.16.08-.27.24-.28.44,0,.2.09.38.25.48-.16.08-.28.24-.29.44,0,.2.1.38.25.49-.16.08-.28.24-.29.44-.01.29.21.55.5.57.89.06,1.78.06,2.67,0,.29-.02.51-.28.5-.57,0-.2-.13-.36-.29-.44Z"/><path class="cls-3" d="M59.5,49.33c.01-.44.48-.61.48-.61l-1.54-.35h0s0,0,0,0l-1.54.35s.48.17.48.61c.01,1.37-.96,1.57-.96,1.57,0,0,.38,47.36.67,48.31.29.96,1.34,3.83,1.34,3.83v-.07s0,.07,0,.07c0,0,1.06-2.87,1.35-3.83.29-.96.67-48.31.67-48.31,0,0-1.01-.11-.96-1.57Z"/><polygon class="cls-2" points="58.84 48.38 58.41 98.18 57.99 48.38 58.84 48.38"/><path class="cls-5" d="M65.46,47.46c-.27,0-.51.12-.68.3-.36.07-.89.12-1.6.06-1.49-.11-3.33-.69-4.53-.69-.09,0-.17,0-.23.03-.06-.02-.14-.03-.23-.03-1.2,0-3.04.57-4.53.69-.74.06-1.29,0-1.64-.07-.17-.18-.41-.29-.68-.29-.52,0-.93.42-.93.93s.42.93.93.93c.25,0,.47-.1.63-.25.46-.07,1.17-.17,1.8-.27,1.03-.17,4.42,0,4.42,0h.46s3.39-.17,4.42,0c.61.1,1.29.2,1.75.27.17.16.39.26.64.26.52,0,.93-.42.93-.93s-.42-.93-.93-.93Z"/><path class="cls-5" d="M58.4,28.59c-1.32,0-2.39,1.07-2.39,2.39s1.07,2.39,2.39,2.39,2.39-1.07,2.39-2.39-1.07-2.39-2.39-2.39Z"/><path class="cls-4" d="M71.08,104.49c-.16.1-.26.28-.25.49,0,.2.12.36.29.44-.15.1-.26.28-.25.48,0,.2.12.36.28.44-.15.1-.25.28-.24.48,0,.2.12.36.27.44-.15.1-.24.28-.24.48,0,.2.12.36.27.44-.14.1-.24.28-.23.48,0,.2.11.36.26.44-.14.1-.23.28-.22.48,0,.2.11.36.26.44-.14.1-.23.28-.22.48,0,.2.11.36.25.44-.13.1-.22.28-.21.48,0,.2.11.36.24.44-.13.1-.21.28-.21.48,0,.2.11.36.24.44-.13.1-.21.28-.2.48,0,.2.1.36.23.44-.12.1-.2.28-.19.48,0,.2.1.36.23.44-.12.1-.2.28-.19.48,0,.2.1.36.22.44-.12.1-.19.28-.18.48,0,.2.1.36.22.44-.11.1-.19.28-.18.48,0,.2.09.37.21.44-.11.1-.18.28-.17.48,0,.09.02.17.05.24-.04,0-.07.01-.11.02-.83.21-1.01,1.41-.47,2.11.56.69,1.83.91,1.83.91,0,0,1.22-.27,1.75-.97.52-.72.3-1.91-.53-2.09-.01,0-.03,0-.05,0,.02-.06.04-.14.04-.22,0-.2-.06-.38-.17-.48.12-.08.2-.24.21-.44,0-.2-.06-.38-.18-.48.12-.08.21-.24.22-.44,0-.2-.07-.38-.18-.48.12-.08.21-.24.22-.44,0-.2-.07-.38-.19-.48.13-.08.22-.24.23-.44,0-.2-.07-.38-.2-.48.13-.08.22-.24.23-.44,0-.2-.07-.38-.2-.48.13-.08.23-.24.24-.44,0-.2-.08-.38-.21-.48.14-.08.24-.24.25-.44,0-.2-.08-.38-.21-.48.14-.08.24-.24.25-.44,0-.2-.08-.38-.22-.48.14-.08.25-.24.26-.44,0-.2-.08-.38-.22-.48.15-.08.25-.24.26-.44,0-.2-.09-.38-.23-.48.15-.08.26-.24.27-.44,0-.2-.09-.38-.24-.48.15-.08.27-.24.27-.44,0-.2-.09-.38-.24-.48.16-.08.27-.24.28-.44,0-.2-.09-.38-.25-.48.16-.08.28-.24.29-.44,0-.2-.1-.38-.25-.49.16-.08.28-.24.29-.44.01-.29-.21-.55-.5-.57-.89-.06-1.78-.06-2.67,0-.29.02-.51.28-.5.57,0,.2.13.36.29.44Z"/><path class="cls-3" d="M71.54,101.56c-.01.44-.48.61-.48.61l1.54.35h0s0,0,0,0l1.54-.35s-.48-.17-.48-.61c-.01-1.37.96-1.57.96-1.57,0,0-.38-47.36-.67-48.31-.29-.96-1.34-3.83-1.34-3.83v.07s0-.07,0-.07c0,0-1.06,2.87-1.35,3.83-.29.96-.67,48.31-.67,48.31,0,0,1.01.11.96,1.57Z"/><polygon class="cls-2" points="72.2 102.51 72.62 52.71 73.05 102.51 72.2 102.51"/><path class="cls-5" d="M65.58,103.43c.27,0,.51-.12.68-.3.36-.07.89-.12,1.6-.06,1.49.11,3.33.69,4.53.69.09,0,.17,0,.23-.03.06.02.14.03.23.03,1.2,0,3.04-.57,4.53-.69.74-.06,1.29,0,1.64.07.17.18.41.29.68.29.52,0,.93-.42.93-.93s-.42-.93-.93-.93c-.25,0-.47.1-.63.25-.46.07-1.17.17-1.8.27-1.03.17-4.42,0-4.42,0h-.46s-3.39.17-4.42,0c-.61-.1-1.29-.2-1.75-.27-.17-.16-.39-.26-.64-.26-.52,0-.93.42-.93.93s.42.93.93.93Z"/><path class="cls-5" d="M72.64,122.3c1.32,0,2.39-1.07,2.39-2.39s-1.07-2.39-2.39-2.39-2.39,1.07-2.39,2.39,1.07,2.39,2.39,2.39Z"/><path class="cls-4" d="M42.59,104.49c-.16.1-.26.28-.25.49,0,.2.12.36.29.44-.15.1-.26.28-.25.48,0,.2.12.36.28.44-.15.1-.25.28-.24.48,0,.2.12.36.27.44-.15.1-.24.28-.24.48,0,.2.12.36.27.44-.14.1-.24.28-.23.48,0,.2.11.36.26.44-.14.1-.23.28-.22.48,0,.2.11.36.26.44-.14.1-.23.28-.22.48,0,.2.11.36.25.44-.13.1-.22.28-.21.48,0,.2.11.36.24.44-.13.1-.21.28-.21.48,0,.2.11.36.24.44-.13.1-.21.28-.2.48,0,.2.1.36.23.44-.12.1-.2.28-.19.48,0,.2.1.36.23.44-.12.1-.2.28-.19.48,0,.2.1.36.22.44-.12.1-.19.28-.18.48,0,.2.1.36.22.44-.11.1-.19.28-.18.48,0,.2.09.37.21.44-.11.1-.18.28-.17.48,0,.09.02.17.05.24-.04,0-.07.01-.11.02-.83.21-1.01,1.41-.47,2.11.56.69,1.83.91,1.83.91,0,0,1.22-.27,1.75-.97.52-.72.3-1.91-.53-2.09-.01,0-.03,0-.05,0,.02-.06.04-.14.04-.22,0-.2-.06-.38-.17-.48.12-.08.2-.24.21-.44,0-.2-.06-.38-.18-.48.12-.08.21-.24.22-.44,0-.2-.07-.38-.18-.48.12-.08.21-.24.22-.44,0-.2-.07-.38-.19-.48.13-.08.22-.24.23-.44,0-.2-.07-.38-.2-.48.13-.08.22-.24.23-.44,0-.2-.07-.38-.2-.48.13-.08.23-.24.24-.44,0-.2-.08-.38-.21-.48.14-.08.24-.24.25-.44,0-.2-.08-.38-.21-.48.14-.08.24-.24.25-.44,0-.2-.08-.38-.22-.48.14-.08.25-.24.26-.44,0-.2-.08-.38-.22-.48.15-.08.25-.24.26-.44,0-.2-.09-.38-.23-.48.15-.08.26-.24.27-.44,0-.2-.09-.38-.24-.48.15-.08.27-.24.27-.44,0-.2-.09-.38-.24-.48.16-.08.27-.24.28-.44,0-.2-.09-.38-.25-.48.16-.08.28-.24.29-.44,0-.2-.1-.38-.25-.49.16-.08.28-.24.29-.44.01-.29-.21-.55-.5-.57-.89-.06-1.78-.06-2.67,0-.29.02-.51.28-.5.57,0,.2.13.36.29.44Z"/><path class="cls-3" d="M43.04,101.56c-.01.44-.48.61-.48.61l1.54.35h0s0,0,0,0l1.54-.35s-.48-.17-.48-.61c-.01-1.37.96-1.57.96-1.57,0,0-.38-47.36-.67-48.31-.29-.96-1.34-3.83-1.34-3.83v.07s0-.07,0-.07c0,0-1.06,2.87-1.35,3.83-.29.96-.67,48.31-.67,48.31,0,0,1.01.11.96,1.57Z"/><polygon class="cls-2" points="43.7 102.51 44.13 52.71 44.56 102.51 43.7 102.51"/><path class="cls-5" d="M37.08,103.43c.27,0,.51-.12.68-.3.36-.07.89-.12,1.6-.06,1.49.11,3.33.69,4.53.69.09,0,.17,0,.23-.03.06.02.14.03.23.03,1.2,0,3.04-.57,4.53-.69.74-.06,1.29,0,1.64.07.17.18.41.29.68.29.52,0,.93-.42.93-.93s-.42-.93-.93-.93c-.25,0-.47.1-.63.25-.46.07-1.17.17-1.8.27-1.03.17-4.42,0-4.42,0h-.46s-3.39.17-4.42,0c-.61-.1-1.29-.2-1.75-.27-.17-.16-.39-.26-.64-.26-.52,0-.93.42-.93.93s.42.93.93.93Z"/><path class="cls-5" d="M44.15,122.3c1.32,0,2.39-1.07,2.39-2.39s-1.07-2.39-2.39-2.39-2.39,1.07-2.39,2.39,1.07,2.39,2.39,2.39Z"/></g></svg>